  0
SECTION
  2
HEADER
  0
ENDSEC
  0
SECTION
  2
BLOCKS
  0
BLOCK
  8
Meshes
  2
GreenNote
 70
    64
 10
0
 20
0
 30
0
  3
GreenNote
  0
3DFACE
  8
0
 62
    90
 10
0
 20
0
 30
-19.0822
 11
0.993864
 21
0.203848
 31
-18.9498
 12
1.14761
 22
0
 32
-18.9498
 13
1.14761
 23
0
 33
-18.9498
  0
3DFACE
  8
0
 62
    90
 10
1.14761
 20
0
 30
-18.9498
 11
0.993864
 21
0.203848
 31
-18.9498
 12
1.83642
 22
0.376663
 32
-18.5725
 13
2.12052
 23
0
 33
-18.5725
  0
3DFACE
  8
0
 62
    90
 10
2.12052
 20
0
 30
-18.5725
 11
1.83642
 21
0.376663
 31
-18.5725
 12
2.3994
 22
0.492133
 32
-18.0079
 13
2.77059
 23
0
 33
-18.0079
  0
3DFACE
  8
0
 62
    90
 10
2.77059
 20
0
 30
-18.0079
 11
2.3994
 21
0.492133
 31
-18.0079
 12
2.59709
 22
0.532681
 32
-17.342
 13
2.99886
 23
0
 33
-17.342
  0
3DFACE
  8
0
 62
    90
 10
2.99886
 20
0
 30
-17.342
 11
2.59709
 21
0.532681
 31
-17.342
 12
2.3994
 22
0.492133
 32
-16.676
 13
2.77059
 23
0
 33
-16.676
  0
3DFACE
  8
0
 62
    90
 10
1.83642
 20
0.376663
 30
-16.1114
 11
2.12052
 21
0
 31
-16.1114
 12
2.77059
 22
0
 32
-16.676
 13
2.3994
 23
0.492133
 33
-16.676
  0
3DFACE
  8
0
 62
    90
 10
2.12052
 20
0
 30
-16.1114
 11
1.83642
 21
0.376663
 31
-16.1114
 12
0.993864
 22
0.203848
 32
-15.7342
 13
1.14761
 23
0
 33
-15.7342
  0
3DFACE
  8
0
 62
    90
 10
1.14761
 20
0
 30
-15.7342
 11
0.993864
 21
0.203848
 31
-15.7342
 12
0
 22
0
 32
-15.6017
 13
0
 23
0
 33
-15.6017
  0
3DFACE
  8
0
 62
    90
 10
0.993864
 20
0.203848
 30
-15.7342
 11
0.573807
 21
0.353076
 31
-15.7342
 12
0
 22
0
 32
-15.6017
 13
0
 23
0
 33
-15.6017
  0
3DFACE
  8
0
 62
    90
 10
1.83642
 20
0.376663
 30
-16.1114
 11
1.06026
 21
0.652399
 31
-16.1114
 12
0.573807
 22
0.353076
 32
-15.7342
 13
0.993864
 23
0.203848
 33
-15.7342
  0
3DFACE
  8
0
 62
    90
 10
2.3994
 20
0.492133
 30
-16.676
 11
1.38529
 21
0.8524
 31
-16.676
 12
1.06026
 22
0.652399
 32
-16.1114
 13
1.83642
 23
0.376663
 33
-16.1114
  0
3DFACE
  8
0
 62
    90
 10
2.59709
 20
0.532681
 30
-17.342
 11
1.49943
 21
0.922631
 31
-17.342
 12
1.38529
 22
0.8524
 32
-16.676
 13
2.3994
 23
0.492133
 33
-16.676
  0
3DFACE
  8
0
 62
    90
 10
2.3994
 20
0.492133
 30
-18.0079
 11
1.38529
 21
0.8524
 31
-18.0079
 12
1.49943
 22
0.922631
 32
-17.342
 13
2.59709
 23
0.532681
 33
-17.342
  0
3DFACE
  8
0
 62
    90
 10
1.83642
 20
0.376663
 30
-18.5725
 11
1.06026
 21
0.652399
 31
-18.5725
 12
1.38529
 22
0.8524
 32
-18.0079
 13
2.3994
 23
0.492133
 33
-18.0079
  0
3DFACE
  8
0
 62
    90
 10
0.993864
 20
0.203848
 30
-18.9498
 11
0.573808
 21
0.353076
 31
-18.9498
 12
1.06026
 22
0.652399
 32
-18.5725
 13
1.83642
 23
0.376663
 33
-18.5725
  0
3DFACE
  8
0
 62
    90
 10
0
 20
0
 30
-19.0822
 11
0.573808
 21
0.353076
 31
-18.9498
 12
0.993864
 22
0.203848
 32
-18.9498
 13
0.993864
 23
0.203848
 33
-18.9498
  0
3DFACE
  8
0
 62
    90
 10
0
 20
0
 30
-19.0822
 11
0
 21
0.407697
 31
-18.9498
 12
0.573808
 22
0.353076
 32
-18.9498
 13
0.573808
 23
0.353076
 33
-18.9498
  0
3DFACE
  8
0
 62
    90
 10
0.573808
 20
0.353076
 30
-18.9498
 11
0
 21
0.407697
 31
-18.9498
 12
0
 22
0.753325
 32
-18.5725
 13
1.06026
 23
0.652399
 33
-18.5725
  0
3DFACE
  8
0
 62
    90
 10
1.06026
 20
0.652399
 30
-18.5725
 11
0
 21
0.753325
 31
-18.5725
 12
0
 22
0.984267
 32
-18.0079
 13
1.38529
 23
0.8524
 33
-18.0079
  0
3DFACE
  8
0
 62
    90
 10
1.38529
 20
0.8524
 30
-18.0079
 11
0
 21
0.984267
 31
-18.0079
 12
0
 22
1.06536
 32
-17.342
 13
1.49943
 23
0.922631
 33
-17.342
  0
3DFACE
  8
0
 62
    90
 10
1.49943
 20
0.922631
 30
-17.342
 11
0
 21
1.06536
 31
-17.342
 12
0
 22
0.984267
 32
-16.676
 13
1.38529
 23
0.8524
 33
-16.676
  0
3DFACE
  8
0
 62
    90
 10
1.38529
 20
0.8524
 30
-16.676
 11
0
 21
0.984267
 31
-16.676
 12
0
 22
0.753325
 32
-16.1114
 13
1.06026
 23
0.652399
 33
-16.1114
  0
3DFACE
  8
0
 62
    90
 10
1.06026
 20
0.652399
 30
-16.1114
 11
0
 21
0.753325
 31
-16.1114
 12
0
 22
0.407697
 32
-15.7342
 13
0.573807
 23
0.353076
 33
-15.7342
  0
3DFACE
  8
0
 62
    90
 10
0.573807
 20
0.353076
 30
-15.7342
 11
0
 21
0.407697
 31
-15.7342
 12
0
 22
0
 32
-15.6017
 13
0
 23
0
 33
-15.6017
  0
3DFACE
  8
0
 62
    90
 10
0
 20
0.407697
 30
-15.7342
 11
-0.573808
 21
0.353076
 31
-15.7342
 12
0
 22
0
 32
-15.6017
 13
0
 23
0
 33
-15.6017
  0
3DFACE
  8
0
 62
    90
 10
0
 20
0.753325
 30
-16.1114
 11
-1.06026
 21
0.652399
 31
-16.1114
 12
-0.573808
 22
0.353076
 32
-15.7342
 13
0
 23
0.407697
 33
-15.7342
  0
3DFACE
  8
0
 62
    90
 10
0
 20
0.984267
 30
-16.676
 11
-1.38529
 21
0.8524
 31
-16.676
 12
-1.06026
 22
0.652399
 32
-16.1114
 13
0
 23
0.753325
 33
-16.1114
  0
3DFACE
  8
0
 62
    90
 10
0
 20
1.06536
 30
-17.342
 11
-1.49943
 21
0.922631
 31
-17.342
 12
-1.38529
 22
0.8524
 32
-16.676
 13
0
 23
0.984267
 33
-16.676
  0
3DFACE
  8
0
 62
    90
 10
0
 20
0.984267
 30
-18.0079
 11
-1.38529
 21
0.8524
 31
-18.0079
 12
-1.49943
 22
0.922631
 32
-17.342
 13
0
 23
1.06536
 33
-17.342
  0
3DFACE
  8
0
 62
    90
 10
0
 20
0.753325
 30
-18.5725
 11
-1.06026
 21
0.652399
 31
-18.5725
 12
-1.38529
 22
0.8524
 32
-18.0079
 13
0
 23
0.984267
 33
-18.0079
  0
3DFACE
  8
0
 62
    90
 10
0
 20
0.407697
 30
-18.9498
 11
-0.573808
 21
0.353076
 31
-18.9498
 12
-1.06026
 22
0.652399
 32
-18.5725
 13
0
 23
0.753325
 33
-18.5725
  0
3DFACE
  8
0
 62
    90
 10
0
 20
0
 30
-19.0822
 11
-0.573808
 21
0.353076
 31
-18.9498
 12
0
 22
0.407697
 32
-18.9498
 13
0
 23
0.407697
 33
-18.9498
  0
3DFACE
  8
0
 62
    90
 10
0
 20
0
 30
-19.0822
 11
-0.993864
 21
0.203848
 31
-18.9498
 12
-0.573808
 22
0.353076
 32
-18.9498
 13
-0.573808
 23
0.353076
 33
-18.9498
  0
3DFACE
  8
0
 62
    90
 10
-0.573808
 20
0.353076
 30
-18.9498
 11
-0.993864
 21
0.203848
 31
-18.9498
 12
-1.83642
 22
0.376663
 32
-18.5725
 13
-1.06026
 23
0.652399
 33
-18.5725
  0
3DFACE
  8
0
 62
    90
 10
-1.06026
 20
0.652399
 30
-18.5725
 11
-1.83642
 21
0.376663
 31
-18.5725
 12
-2.3994
 22
0.492133
 32
-18.0079
 13
-1.38529
 23
0.8524
 33
-18.0079
  0
3DFACE
  8
0
 62
    90
 10
-1.38529
 20
0.8524
 30
-18.0079
 11
-2.3994
 21
0.492133
 31
-18.0079
 12
-2.59709
 22
0.532681
 32
-17.342
 13
-1.49943
 23
0.922631
 33
-17.342
  0
3DFACE
  8
0
 62
    90
 10
-1.49943
 20
0.922631
 30
-17.342
 11
-2.59709
 21
0.532681
 31
-17.342
 12
-2.3994
 22
0.492133
 32
-16.676
 13
-1.38529
 23
0.8524
 33
-16.676
  0
3DFACE
  8
0
 62
    90
 10
-1.38529
 20
0.8524
 30
-16.676
 11
-2.3994
 21
0.492133
 31
-16.676
 12
-1.83642
 22
0.376663
 32
-16.1114
 13
-1.06026
 23
0.652399
 33
-16.1114
  0
3DFACE
  8
0
 62
    90
 10
-1.06026
 20
0.652399
 30
-16.1114
 11
-1.83642
 21
0.376663
 31
-16.1114
 12
-0.993864
 22
0.203848
 32
-15.7342
 13
-0.573808
 23
0.353076
 33
-15.7342
  0
3DFACE
  8
0
 62
    90
 10
-0.573808
 20
0.353076
 30
-15.7342
 11
-0.993864
 21
0.203848
 31
-15.7342
 12
0
 22
0
 32
-15.6017
 13
0
 23
0
 33
-15.6017
  0
3DFACE
  8
0
 62
    90
 10
-0.993864
 20
0.203848
 30
-15.7342
 11
-1.14761
 21
0
 31
-15.7342
 12
0
 22
0
 32
-15.6017
 13
0
 23
0
 33
-15.6017
  0
3DFACE
  8
0
 62
    90
 10
-1.83642
 20
0.376663
 30
-16.1114
 11
-2.12052
 21
0
 31
-16.1114
 12
-1.14761
 22
0
 32
-15.7342
 13
-0.993864
 23
0.203848
 33
-15.7342
  0
3DFACE
  8
0
 62
    90
 10
-2.3994
 20
0.492133
 30
-16.676
 11
-2.77059
 21
0
 31
-16.676
 12
-2.12052
 22
0
 32
-16.1114
 13
-1.83642
 23
0.376663
 33
-16.1114
  0
3DFACE
  8
0
 62
    90
 10
-2.59709
 20
0.532681
 30
-17.342
 11
-2.99886
 21
0
 31
-17.342
 12
-2.77059
 22
0
 32
-16.676
 13
-2.3994
 23
0.492133
 33
-16.676
  0
3DFACE
  8
0
 62
    90
 10
-2.3994
 20
0.492133
 30
-18.0079
 11
-2.77059
 21
0
 31
-18.0079
 12
-2.99886
 22
0
 32
-17.342
 13
-2.59709
 23
0.532681
 33
-17.342
  0
3DFACE
  8
0
 62
    90
 10
-1.83642
 20
0.376663
 30
-18.5725
 11
-2.12052
 21
0
 31
-18.5725
 12
-2.77059
 22
0
 32
-18.0079
 13
-2.3994
 23
0.492133
 33
-18.0079
  0
3DFACE
  8
0
 62
    90
 10
-0.993864
 20
0.203848
 30
-18.9498
 11
-1.14761
 21
0
 31
-18.9498
 12
-2.12052
 22
0
 32
-18.5725
 13
-1.83642
 23
0.376663
 33
-18.5725
  0
3DFACE
  8
0
 62
    90
 10
0
 20
0
 30
-19.0822
 11
-1.14761
 21
0
 31
-18.9498
 12
-0.993864
 22
0.203848
 32
-18.9498
 13
-0.993864
 23
0.203848
 33
-18.9498
  0
3DFACE
  8
0
 62
    90
 10
0
 20
0
 30
-19.0822
 11
-0.993864
 21
-0.203848
 31
-18.9498
 12
-1.14761
 22
0
 32
-18.9498
 13
-1.14761
 23
0
 33
-18.9498
  0
3DFACE
  8
0
 62
    90
 10
-1.14761
 20
0
 30
-18.9498
 11
-0.993864
 21
-0.203848
 31
-18.9498
 12
-1.83642
 22
-0.376663
 32
-18.5725
 13
-2.12052
 23
0
 33
-18.5725
  0
3DFACE
  8
0
 62
    90
 10
-2.12052
 20
0
 30
-18.5725
 11
-1.83642
 21
-0.376663
 31
-18.5725
 12
-2.3994
 22
-0.492133
 32
-18.0079
 13
-2.77059
 23
0
 33
-18.0079
  0
3DFACE
  8
0
 62
    90
 10
-2.77059
 20
0
 30
-18.0079
 11
-2.3994
 21
-0.492133
 31
-18.0079
 12
-2.59709
 22
-0.532681
 32
-17.342
 13
-2.99886
 23
0
 33
-17.342
  0
3DFACE
  8
0
 62
    90
 10
-2.99886
 20
0
 30
-17.342
 11
-2.59709
 21
-0.532681
 31
-17.342
 12
-2.3994
 22
-0.492133
 32
-16.676
 13
-2.77059
 23
0
 33
-16.676
  0
3DFACE
  8
0
 62
    90
 10
-2.77059
 20
0
 30
-16.676
 11
-2.3994
 21
-0.492133
 31
-16.676
 12
-1.83642
 22
-0.376663
 32
-16.1114
 13
-2.12052
 23
0
 33
-16.1114
  0
3DFACE
  8
0
 62
    90
 10
-2.12052
 20
0
 30
-16.1114
 11
-1.83642
 21
-0.376663
 31
-16.1114
 12
-0.993864
 22
-0.203848
 32
-15.7342
 13
-1.14761
 23
0
 33
-15.7342
  0
3DFACE
  8
0
 62
    90
 10
-1.14761
 20
0
 30
-15.7342
 11
-0.993864
 21
-0.203848
 31
-15.7342
 12
0
 22
0
 32
-15.6017
 13
0
 23
0
 33
-15.6017
  0
3DFACE
  8
0
 62
    90
 10
-0.993864
 20
-0.203848
 30
-15.7342
 11
-0.573807
 21
-0.353076
 31
-15.7342
 12
0
 22
0
 32
-15.6017
 13
0
 23
0
 33
-15.6017
  0
3DFACE
  8
0
 62
    90
 10
-1.83642
 20
-0.376663
 30
-16.1114
 11
-1.06026
 21
-0.652399
 31
-16.1114
 12
-0.573807
 22
-0.353076
 32
-15.7342
 13
-0.993864
 23
-0.203848
 33
-15.7342
  0
3DFACE
  8
0
 62
    90
 10
-2.3994
 20
-0.492133
 30
-16.676
 11
-1.38529
 21
-0.8524
 31
-16.676
 12
-1.06026
 22
-0.652399
 32
-16.1114
 13
-1.83642
 23
-0.376663
 33
-16.1114
  0
3DFACE
  8
0
 62
    90
 10
-2.59709
 20
-0.532681
 30
-17.342
 11
-1.49943
 21
-0.922631
 31
-17.342
 12
-1.38529
 22
-0.8524
 32
-16.676
 13
-2.3994
 23
-0.492133
 33
-16.676
  0
3DFACE
  8
0
 62
    90
 10
-2.3994
 20
-0.492133
 30
-18.0079
 11
-1.38529
 21
-0.8524
 31
-18.0079
 12
-1.49943
 22
-0.922631
 32
-17.342
 13
-2.59709
 23
-0.532681
 33
-17.342
  0
3DFACE
  8
0
 62
    90
 10
-1.83642
 20
-0.376663
 30
-18.5725
 11
-1.06026
 21
-0.652399
 31
-18.5725
 12
-1.38529
 22
-0.8524
 32
-18.0079
 13
-2.3994
 23
-0.492133
 33
-18.0079
  0
3DFACE
  8
0
 62
    90
 10
-0.993864
 20
-0.203848
 30
-18.9498
 11
-0.573807
 21
-0.353076
 31
-18.9498
 12
-1.06026
 22
-0.652399
 32
-18.5725
 13
-1.83642
 23
-0.376663
 33
-18.5725
  0
3DFACE
  8
0
 62
    90
 10
0
 20
0
 30
-19.0822
 11
-0.573807
 21
-0.353076
 31
-18.9498
 12
-0.993864
 22
-0.203848
 32
-18.9498
 13
-0.993864
 23
-0.203848
 33
-18.9498
  0
3DFACE
  8
0
 62
    90
 10
0
 20
0
 30
-19.0822
 11
0
 21
-0.407697
 31
-18.9498
 12
-0.573807
 22
-0.353076
 32
-18.9498
 13
-0.573807
 23
-0.353076
 33
-18.9498
  0
3DFACE
  8
0
 62
    90
 10
-0.573807
 20
-0.353076
 30
-18.9498
 11
0
 21
-0.407697
 31
-18.9498
 12
0
 22
-0.753325
 32
-18.5725
 13
-1.06026
 23
-0.652399
 33
-18.5725
  0
3DFACE
  8
0
 62
    90
 10
-1.06026
 20
-0.652399
 30
-18.5725
 11
0
 21
-0.753325
 31
-18.5725
 12
0
 22
-0.984267
 32
-18.0079
 13
-1.38529
 23
-0.8524
 33
-18.0079
  0
3DFACE
  8
0
 62
    90
 10
-1.38529
 20
-0.8524
 30
-18.0079
 11
0
 21
-0.984267
 31
-18.0079
 12
0
 22
-1.06536
 32
-17.342
 13
-1.49943
 23
-0.922631
 33
-17.342
  0
3DFACE
  8
0
 62
    90
 10
-1.49943
 20
-0.922631
 30
-17.342
 11
0
 21
-1.06536
 31
-17.342
 12
0
 22
-0.984267
 32
-16.676
 13
-1.38529
 23
-0.8524
 33
-16.676
  0
3DFACE
  8
0
 62
    90
 10
-1.38529
 20
-0.8524
 30
-16.676
 11
0
 21
-0.984267
 31
-16.676
 12
0
 22
-0.753325
 32
-16.1114
 13
-1.06026
 23
-0.652399
 33
-16.1114
  0
3DFACE
  8
0
 62
    90
 10
-1.06026
 20
-0.652399
 30
-16.1114
 11
0
 21
-0.753325
 31
-16.1114
 12
0
 22
-0.407697
 32
-15.7342
 13
-0.573807
 23
-0.353076
 33
-15.7342
  0
3DFACE
  8
0
 62
    90
 10
-0.573807
 20
-0.353076
 30
-15.7342
 11
0
 21
-0.407697
 31
-15.7342
 12
0
 22
0
 32
-15.6017
 13
0
 23
0
 33
-15.6017
  0
3DFACE
  8
0
 62
    90
 10
0
 20
-0.407697
 30
-15.7342
 11
0.573807
 21
-0.353076
 31
-15.7342
 12
0
 22
0
 32
-15.6017
 13
0
 23
0
 33
-15.6017
  0
3DFACE
  8
0
 62
    90
 10
0
 20
-0.753325
 30
-16.1114
 11
1.06026
 21
-0.652399
 31
-16.1114
 12
0.573807
 22
-0.353076
 32
-15.7342
 13
0
 23
-0.407697
 33
-15.7342
  0
3DFACE
  8
0
 62
    90
 10
0
 20
-0.984267
 30
-16.676
 11
1.38529
 21
-0.8524
 31
-16.676
 12
1.06026
 22
-0.652399
 32
-16.1114
 13
0
 23
-0.753325
 33
-16.1114
  0
3DFACE
  8
0
 62
    90
 10
0
 20
-1.06536
 30
-17.342
 11
1.49943
 21
-0.922631
 31
-17.342
 12
1.38529
 22
-0.8524
 32
-16.676
 13
0
 23
-0.984267
 33
-16.676
  0
3DFACE
  8
0
 62
    90
 10
0
 20
-0.984267
 30
-18.0079
 11
1.38529
 21
-0.8524
 31
-18.0079
 12
1.49943
 22
-0.922631
 32
-17.342
 13
0
 23
-1.06536
 33
-17.342
  0
3DFACE
  8
0
 62
    90
 10
0
 20
-0.753325
 30
-18.5725
 11
1.06026
 21
-0.652399
 31
-18.5725
 12
1.38529
 22
-0.8524
 32
-18.0079
 13
0
 23
-0.984267
 33
-18.0079
  0
3DFACE
  8
0
 62
    90
 10
0
 20
-0.407697
 30
-18.9498
 11
0.573808
 21
-0.353076
 31
-18.9498
 12
1.06026
 22
-0.652399
 32
-18.5725
 13
0
 23
-0.753325
 33
-18.5725
  0
3DFACE
  8
0
 62
    90
 10
0
 20
0
 30
-19.0822
 11
0.573808
 21
-0.353076
 31
-18.9498
 12
0
 22
-0.407697
 32
-18.9498
 13
0
 23
-0.407697
 33
-18.9498
  0
3DFACE
  8
0
 62
    90
 10
0
 20
0
 30
-19.0822
 11
0.993864
 21
-0.203848
 31
-18.9498
 12
0.573808
 22
-0.353076
 32
-18.9498
 13
0.573808
 23
-0.353076
 33
-18.9498
  0
3DFACE
  8
0
 62
    90
 10
0.573808
 20
-0.353076
 30
-18.9498
 11
0.993864
 21
-0.203848
 31
-18.9498
 12
1.83642
 22
-0.376663
 32
-18.5725
 13
1.06026
 23
-0.652399
 33
-18.5725
  0
3DFACE
  8
0
 62
    90
 10
1.06026
 20
-0.652399
 30
-18.5725
 11
1.83642
 21
-0.376663
 31
-18.5725
 12
2.3994
 22
-0.492133
 32
-18.0079
 13
1.38529
 23
-0.8524
 33
-18.0079
  0
3DFACE
  8
0
 62
    90
 10
1.38529
 20
-0.8524
 30
-18.0079
 11
2.3994
 21
-0.492133
 31
-18.0079
 12
2.59709
 22
-0.532681
 32
-17.342
 13
1.49943
 23
-0.922631
 33
-17.342
  0
3DFACE
  8
0
 62
    90
 10
1.49943
 20
-0.922631
 30
-17.342
 11
2.59709
 21
-0.532681
 31
-17.342
 12
2.3994
 22
-0.492133
 32
-16.676
 13
1.38529
 23
-0.8524
 33
-16.676
  0
3DFACE
  8
0
 62
    90
 10
1.38529
 20
-0.8524
 30
-16.676
 11
2.3994
 21
-0.492133
 31
-16.676
 12
1.83642
 22
-0.376663
 32
-16.1114
 13
1.06026
 23
-0.652399
 33
-16.1114
  0
3DFACE
  8
0
 62
    90
 10
1.06026
 20
-0.652399
 30
-16.1114
 11
1.83642
 21
-0.376663
 31
-16.1114
 12
0.993864
 22
-0.203848
 32
-15.7342
 13
0.573807
 23
-0.353076
 33
-15.7342
  0
3DFACE
  8
0
 62
    90
 10
0.573807
 20
-0.353076
 30
-15.7342
 11
0.993864
 21
-0.203848
 31
-15.7342
 12
0
 22
0
 32
-15.6017
 13
0
 23
0
 33
-15.6017
  0
3DFACE
  8
0
 62
    90
 10
0.993864
 20
-0.203848
 30
-15.7342
 11
1.14761
 21
0
 31
-15.7342
 12
0
 22
0
 32
-15.6017
 13
0
 23
0
 33
-15.6017
  0
3DFACE
  8
0
 62
    90
 10
1.83642
 20
-0.376663
 30
-16.1114
 11
2.12052
 21
0
 31
-16.1114
 12
1.14761
 22
0
 32
-15.7342
 13
0.993864
 23
-0.203848
 33
-15.7342
  0
3DFACE
  8
0
 62
    90
 10
2.12052
 20
0
 30
-16.1114
 11
1.83642
 21
-0.376663
 31
-16.1114
 12
2.3994
 22
-0.492133
 32
-16.676
 13
2.77059
 23
0
 33
-16.676
  0
3DFACE
  8
0
 62
    90
 10
2.59709
 20
-0.532681
 30
-17.342
 11
2.99886
 21
0
 31
-17.342
 12
2.77059
 22
0
 32
-16.676
 13
2.3994
 23
-0.492133
 33
-16.676
  0
3DFACE
  8
0
 62
    90
 10
2.3994
 20
-0.492133
 30
-18.0079
 11
2.77059
 21
0
 31
-18.0079
 12
2.99886
 22
0
 32
-17.342
 13
2.59709
 23
-0.532681
 33
-17.342
  0
3DFACE
  8
0
 62
    90
 10
1.83642
 20
-0.376663
 30
-18.5725
 11
2.12052
 21
0
 31
-18.5725
 12
2.77059
 22
0
 32
-18.0079
 13
2.3994
 23
-0.492133
 33
-18.0079
  0
3DFACE
  8
0
 62
    90
 10
0.993864
 20
-0.203848
 30
-18.9498
 11
1.14761
 21
0
 31
-18.9498
 12
2.12052
 22
0
 32
-18.5725
 13
1.83642
 23
-0.376663
 33
-18.5725
  0
3DFACE
  8
0
 62
    90
 10
0
 20
0
 30
-19.0822
 11
1.14761
 21
0
 31
-18.9498
 12
0.993864
 22
-0.203848
 32
-18.9498
 13
0.993864
 23
-0.203848
 33
-18.9498
  0
3DFACE
  8
0
 62
    90
 10
4.49325
 20
-0.29929
 30
1.99573
 11
4.94058
 21
-0.29929
 31
1.53377
 12
4.57986
 22
-0.29929
 32
1.07987
 13
4.20983
 23
-0.29929
 33
1.46199
  0
3DFACE
  8
0
 62
    90
 10
4.49325
 20
-0.29929
 30
1.99573
 11
3.98289
 21
-0.29929
 31
2.339
 12
3.78767
 22
-0.29929
 32
1.74594
 13
4.20983
 23
-0.29929
 33
1.46199
  0
3DFACE
  8
0
 62
    90
 10
3.98289
 20
-0.29929
 30
2.339
 11
3.42912
 21
-0.29929
 31
2.55038
 12
3.32959
 22
-0.29929
 32
1.92079
 13
3.78767
 23
-0.29929
 33
1.74594
  0
3DFACE
  8
0
 62
    90
 10
3.42912
 20
-0.29929
 30
2.55038
 11
2.85321
 21
-0.29929
 31
2.62176
 12
2.85321
 22
-0.29929
 32
1.97984
 13
3.32959
 23
-0.29929
 33
1.92079
  0
3DFACE
  8
0
 62
    90
 10
4.49324
 20
-0.29929
 30
-4.18143
 11
3.98288
 21
-0.29929
 31
-4.52469
 12
3.78766
 22
-0.29929
 32
-3.93163
 13
4.20983
 23
-0.29929
 33
-3.64769
  0
3DFACE
  8
0
 62
    90
 10
4.49324
 20
-0.29929
 30
-4.18143
 11
4.94058
 21
-0.29929
 31
-3.71947
 12
4.57986
 22
-0.29929
 32
-3.26556
 13
4.20983
 23
-0.29929
 33
-3.64769
  0
3DFACE
  8
0
 62
    90
 10
4.94058
 20
-0.29929
 30
-3.71947
 11
5.30769
 21
-0.29929
 31
-3.15657
 12
4.88353
 22
-0.29929
 32
-2.79994
 13
4.57986
 23
-0.29929
 33
-3.26556
  0
3DFACE
  8
0
 62
    90
 10
5.30769
 20
-0.29929
 30
-3.15657
 11
5.58048
 21
-0.29929
 31
-2.51436
 12
5.10918
 22
-0.29929
 32
-2.26871
 13
4.88353
 23
-0.29929
 33
-2.79994
  0
3DFACE
  8
0
 62
    90
 10
5.58048
 20
-0.29929
 30
-2.51436
 11
5.74847
 21
-0.29929
 31
-1.81753
 12
5.24814
 22
-0.29929
 32
-1.6923
 13
5.10918
 23
-0.29929
 33
-2.26871
  0
3DFACE
  8
0
 62
    90
 10
5.74847
 20
-0.29929
 30
-1.81753
 11
5.80519
 21
-0.29929
 31
-1.09285
 12
5.29506
 22
-0.29929
 32
-1.09285
 13
5.24814
 23
-0.29929
 33
-1.6923
  0
3DFACE
  8
0
 62
    90
 10
5.74847
 20
-0.29929
 30
-0.368163
 11
5.80519
 21
-0.29929
 31
-1.09285
 12
5.29506
 22
-0.29929
 32
-1.09285
 13
5.24814
 23
-0.29929
 33
-0.493396
  0
3DFACE
  8
0
 62
    90
 10
5.74847
 20
-0.29929
 30
-0.368163
 11
5.58048
 21
-0.29929
 31
0.328671
 12
5.10918
 22
-0.29929
 32
0.083018
 13
5.24814
 23
-0.29929
 33
-0.493396
  0
3DFACE
  8
0
 62
    90
 10
5.58048
 20
-0.29929
 30
0.328671
 11
5.30769
 21
-0.29929
 31
0.970877
 12
4.88353
 22
-0.29929
 32
0.614244
 13
5.10918
 23
-0.29929
 33
0.083018
  0
3DFACE
  8
0
 62
    90
 10
5.30769
 20
-0.29929
 30
0.970877
 11
4.94058
 21
-0.29929
 31
1.53377
 12
4.57986
 22
-0.29929
 32
1.07987
 13
4.88353
 23
-0.29929
 33
0.614244
  0
3DFACE
  8
0
 62
    90
 10
4.88353
 20
-0.29929
 30
0.614244
 11
4.57986
 21
-0.29929
 31
1.07987
 12
4.57986
 22
0.30223
 32
1.07987
 13
4.88353
 23
0.30223
 33
0.614244
  0
3DFACE
  8
0
 62
    90
 10
5.10918
 20
-0.29929
 30
0.083018
 11
4.88353
 21
-0.29929
 31
0.614244
 12
4.88353
 22
0.30223
 32
0.614244
 13
5.10918
 23
0.30223
 33
0.083018
  0
3DFACE
  8
0
 62
    90
 10
5.24814
 20
-0.29929
 30
-0.493396
 11
5.10918
 21
-0.29929
 31
0.083018
 12
5.10918
 22
0.30223
 32
0.083018
 13
5.24814
 23
0.30223
 33
-0.493396
  0
3DFACE
  8
0
 62
    90
 10
5.24814
 20
-0.29929
 30
-0.493396
 11
5.29506
 21
-0.29929
 31
-1.09285
 12
5.29506
 22
0.30223
 32
-1.09285
 13
5.24814
 23
0.30223
 33
-0.493396
  0
3DFACE
  8
0
 62
    90
 10
5.24814
 20
-0.29929
 30
-1.6923
 11
5.29506
 21
-0.29929
 31
-1.09285
 12
5.29506
 22
0.30223
 32
-1.09285
 13
5.24814
 23
0.30223
 33
-1.6923
  0
3DFACE
  8
0
 62
    90
 10
5.10918
 20
-0.29929
 30
-2.26871
 11
5.24814
 21
-0.29929
 31
-1.6923
 12
5.24814
 22
0.30223
 32
-1.6923
 13
5.10918
 23
0.30223
 33
-2.26871
  0
3DFACE
  8
0
 62
    90
 10
4.88353
 20
-0.29929
 30
-2.79994
 11
5.10918
 21
-0.29929
 31
-2.26871
 12
5.10918
 22
0.30223
 32
-2.26871
 13
4.88353
 23
0.30223
 33
-2.79994
  0
3DFACE
  8
0
 62
    90
 10
4.57986
 20
-0.29929
 30
-3.26556
 11
4.88353
 21
-0.29929
 31
-2.79994
 12
4.88353
 22
0.30223
 32
-2.79994
 13
4.57986
 23
0.30223
 33
-3.26556
  0
3DFACE
  8
0
 62
    90
 10
4.20983
 20
-0.29929
 30
-3.64769
 11
4.57986
 21
-0.29929
 31
-3.26556
 12
4.57986
 22
0.30223
 32
-3.26556
 13
4.20983
 23
0.30223
 33
-3.64769
  0
3DFACE
  8
0
 62
    90
 10
4.20983
 20
-0.29929
 30
-3.64769
 11
3.78766
 21
-0.29929
 31
-3.93163
 12
3.78766
 22
0.30223
 32
-3.93163
 13
4.20983
 23
0.30223
 33
-3.64769
  0
3DFACE
  8
0
 62
    90
 10
3.78766
 20
-0.29929
 30
-3.93163
 11
3.98288
 21
-0.29929
 31
-4.52469
 12
3.98288
 22
0.30223
 32
-4.52469
 13
3.78766
 23
0.30223
 33
-3.93163
  0
3DFACE
  8
0
 62
    90
 10
3.32959
 20
-0.29929
 30
1.92079
 11
2.85321
 21
-0.29929
 31
1.97984
 12
2.85321
 22
0.30223
 32
1.97984
 13
3.32959
 23
0.30223
 33
1.92079
  0
3DFACE
  8
0
 62
    90
 10
3.78767
 20
-0.29929
 30
1.74594
 11
3.32959
 21
-0.29929
 31
1.92079
 12
3.32959
 22
0.30223
 32
1.92079
 13
3.78767
 23
0.30223
 33
1.74594
  0
3DFACE
  8
0
 62
    90
 10
4.20983
 20
-0.29929
 30
1.46199
 11
3.78767
 21
-0.29929
 31
1.74594
 12
3.78767
 22
0.30223
 32
1.74594
 13
4.20983
 23
0.30223
 33
1.46199
  0
3DFACE
  8
0
 62
    90
 10
4.20983
 20
-0.29929
 30
1.46199
 11
4.57986
 21
-0.29929
 31
1.07987
 12
4.57986
 22
0.30223
 32
1.07987
 13
4.20983
 23
0.30223
 33
1.46199
  0
3DFACE
  8
0
 62
    90
 10
4.49325
 20
-0.29929
 30
1.99573
 11
4.94058
 21
-0.29929
 31
1.53377
 12
4.94058
 22
0.30223
 32
1.53377
 13
4.49325
 23
0.30223
 33
1.99573
  0
3DFACE
  8
0
 62
    90
 10
4.49325
 20
-0.29929
 30
1.99573
 11
3.98289
 21
-0.29929
 31
2.339
 12
3.98289
 22
0.30223
 32
2.339
 13
4.49325
 23
0.30223
 33
1.99573
  0
3DFACE
  8
0
 62
    90
 10
3.98289
 20
-0.29929
 30
2.339
 11
3.42912
 21
-0.29929
 31
2.55038
 12
3.42912
 22
0.30223
 32
2.55038
 13
3.98289
 23
0.30223
 33
2.339
  0
3DFACE
  8
0
 62
    90
 10
3.42912
 20
-0.29929
 30
2.55038
 11
2.85321
 21
-0.29929
 31
2.62176
 12
2.85321
 22
0.30223
 32
2.62176
 13
3.42912
 23
0.30223
 33
2.55038
  0
3DFACE
  8
0
 62
    90
 10
4.49324
 20
-0.29929
 30
-4.18143
 11
3.98288
 21
-0.29929
 31
-4.52469
 12
3.98288
 22
0.30223
 32
-4.52469
 13
4.49324
 23
0.30223
 33
-4.18143
  0
3DFACE
  8
0
 62
    90
 10
4.49324
 20
-0.29929
 30
-4.18143
 11
4.94058
 21
-0.29929
 31
-3.71947
 12
4.94058
 22
0.30223
 32
-3.71947
 13
4.49324
 23
0.30223
 33
-4.18143
  0
3DFACE
  8
0
 62
    90
 10
4.94058
 20
-0.29929
 30
-3.71947
 11
5.30769
 21
-0.29929
 31
-3.15657
 12
5.30769
 22
0.30223
 32
-3.15657
 13
4.94058
 23
0.30223
 33
-3.71947
  0
3DFACE
  8
0
 62
    90
 10
5.30769
 20
-0.29929
 30
-3.15657
 11
5.58048
 21
-0.29929
 31
-2.51436
 12
5.58048
 22
0.30223
 32
-2.51436
 13
5.30769
 23
0.30223
 33
-3.15657
  0
3DFACE
  8
0
 62
    90
 10
5.58048
 20
-0.29929
 30
-2.51436
 11
5.74847
 21
-0.29929
 31
-1.81753
 12
5.74847
 22
0.30223
 32
-1.81753
 13
5.58048
 23
0.30223
 33
-2.51436
  0
3DFACE
  8
0
 62
    90
 10
5.74847
 20
-0.29929
 30
-1.81753
 11
5.80519
 21
-0.29929
 31
-1.09285
 12
5.80519
 22
0.30223
 32
-1.09285
 13
5.74847
 23
0.30223
 33
-1.81753
  0
3DFACE
  8
0
 62
    90
 10
5.74847
 20
-0.29929
 30
-0.368163
 11
5.80519
 21
-0.29929
 31
-1.09285
 12
5.80519
 22
0.30223
 32
-1.09285
 13
5.74847
 23
0.30223
 33
-0.368163
  0
3DFACE
  8
0
 62
    90
 10
5.74847
 20
-0.29929
 30
-0.368163
 11
5.58048
 21
-0.29929
 31
0.328671
 12
5.58048
 22
0.30223
 32
0.328671
 13
5.74847
 23
0.30223
 33
-0.368163
  0
3DFACE
  8
0
 62
    90
 10
5.58048
 20
-0.29929
 30
0.328671
 11
5.30769
 21
-0.29929
 31
0.970877
 12
5.30769
 22
0.30223
 32
0.970877
 13
5.58048
 23
0.30223
 33
0.328671
  0
3DFACE
  8
0
 62
    90
 10
5.30769
 20
-0.29929
 30
0.970877
 11
4.94058
 21
-0.29929
 31
1.53377
 12
4.94058
 22
0.30223
 32
1.53377
 13
5.30769
 23
0.30223
 33
0.970877
  0
3DFACE
  8
0
 62
    90
 10
4.49325
 20
0.30223
 30
1.99573
 11
4.94058
 21
0.30223
 31
1.53377
 12
4.57986
 22
0.30223
 32
1.07987
 13
4.20983
 23
0.30223
 33
1.46199
  0
3DFACE
  8
0
 62
    90
 10
4.49325
 20
0.30223
 30
1.99573
 11
3.98289
 21
0.30223
 31
2.339
 12
3.78767
 22
0.30223
 32
1.74594
 13
4.20983
 23
0.30223
 33
1.46199
  0
3DFACE
  8
0
 62
    90
 10
3.98289
 20
0.30223
 30
2.339
 11
3.42912
 21
0.30223
 31
2.55038
 12
3.32959
 22
0.30223
 32
1.92079
 13
3.78767
 23
0.30223
 33
1.74594
  0
3DFACE
  8
0
 62
    90
 10
3.42912
 20
0.30223
 30
2.55038
 11
2.85321
 21
0.30223
 31
2.62176
 12
2.85321
 22
0.30223
 32
1.97984
 13
3.32959
 23
0.30223
 33
1.92079
  0
3DFACE
  8
0
 62
    90
 10
4.49324
 20
0.30223
 30
-4.18143
 11
3.98288
 21
0.30223
 31
-4.52469
 12
3.78766
 22
0.30223
 32
-3.93163
 13
4.20983
 23
0.30223
 33
-3.64769
  0
3DFACE
  8
0
 62
    90
 10
4.49324
 20
0.30223
 30
-4.18143
 11
4.94058
 21
0.30223
 31
-3.71947
 12
4.57986
 22
0.30223
 32
-3.26556
 13
4.20983
 23
0.30223
 33
-3.64769
  0
3DFACE
  8
0
 62
    90
 10
4.94058
 20
0.30223
 30
-3.71947
 11
5.30769
 21
0.30223
 31
-3.15657
 12
4.88353
 22
0.30223
 32
-2.79994
 13
4.57986
 23
0.30223
 33
-3.26556
  0
3DFACE
  8
0
 62
    90
 10
5.30769
 20
0.30223
 30
-3.15657
 11
5.58048
 21
0.30223
 31
-2.51436
 12
5.10918
 22
0.30223
 32
-2.26871
 13
4.88353
 23
0.30223
 33
-2.79994
  0
3DFACE
  8
0
 62
    90
 10
5.58048
 20
0.30223
 30
-2.51436
 11
5.74847
 21
0.30223
 31
-1.81753
 12
5.24814
 22
0.30223
 32
-1.6923
 13
5.10918
 23
0.30223
 33
-2.26871
  0
3DFACE
  8
0
 62
    90
 10
5.74847
 20
0.30223
 30
-1.81753
 11
5.80519
 21
0.30223
 31
-1.09285
 12
5.29506
 22
0.30223
 32
-1.09285
 13
5.24814
 23
0.30223
 33
-1.6923
  0
3DFACE
  8
0
 62
    90
 10
5.74847
 20
0.30223
 30
-0.368163
 11
5.80519
 21
0.30223
 31
-1.09285
 12
5.29506
 22
0.30223
 32
-1.09285
 13
5.24814
 23
0.30223
 33
-0.493396
  0
3DFACE
  8
0
 62
    90
 10
5.74847
 20
0.30223
 30
-0.368163
 11
5.58048
 21
0.30223
 31
0.328671
 12
5.10918
 22
0.30223
 32
0.083018
 13
5.24814
 23
0.30223
 33
-0.493396
  0
3DFACE
  8
0
 62
    90
 10
5.58048
 20
0.30223
 30
0.328671
 11
5.30769
 21
0.30223
 31
0.970877
 12
4.88353
 22
0.30223
 32
0.614244
 13
5.10918
 23
0.30223
 33
0.083018
  0
3DFACE
  8
0
 62
    90
 10
5.30769
 20
0.30223
 30
0.970877
 11
4.94058
 21
0.30223
 31
1.53377
 12
4.57986
 22
0.30223
 32
1.07987
 13
4.88353
 23
0.30223
 33
0.614244
  0
3DFACE
  8
0
 62
    90
 10
2.81089
 20
0.355072
 30
-17.4296
 11
2.8109
 21
0.355072
 31
2.62652
 12
2.87321
 22
0.279145
 32
2.62652
 13
2.87321
 23
0.279145
 33
-17.4296
  0
3DFACE
  8
0
 62
    90
 10
2.87321
 20
0.279145
 30
-17.4296
 11
2.87321
 21
0.279145
 31
2.62652
 12
2.91951
 22
0.19252
 32
2.62652
 13
2.91951
 23
0.192521
 33
-17.4296
  0
3DFACE
  8
0
 62
    90
 10
2.91951
 20
0.192521
 30
-17.4296
 11
2.91951
 21
0.19252
 31
2.62652
 12
2.94802
 22
0.098527
 32
2.62652
 13
2.94802
 23
0.098528
 33
-17.4296
  0
3DFACE
  8
0
 62
    90
 10
2.94802
 20
0.098528
 30
-17.4296
 11
2.94802
 21
0.098527
 31
2.62652
 12
2.95765
 22
0.000778
 32
2.62652
 13
2.95765
 23
0.000779
 33
-17.4296
  0
3DFACE
  8
0
 62
    90
 10
2.95765
 20
0.000779
 30
-17.4296
 11
2.95765
 21
0.000778
 31
2.62652
 12
2.94802
 22
-0.096971
 32
2.62652
 13
2.94802
 23
-0.09697
 33
-17.4296
  0
3DFACE
  8
0
 62
    90
 10
2.94802
 20
-0.09697
 30
-17.4296
 11
2.94802
 21
-0.096971
 31
2.62652
 12
2.91951
 22
-0.190963
 32
2.62652
 13
2.91951
 23
-0.190963
 33
-17.4296
  0
3DFACE
  8
0
 62
    90
 10
2.91951
 20
-0.190963
 30
-17.4296
 11
2.91951
 21
-0.190963
 31
2.62652
 12
2.87321
 22
-0.277587
 32
2.62652
 13
2.87321
 23
-0.277587
 33
-17.4296
  0
3DFACE
  8
0
 62
    90
 10
2.87321
 20
-0.277587
 30
-17.4296
 11
2.87321
 21
-0.277587
 31
2.62652
 12
2.81089
 22
-0.353514
 32
2.62652
 13
2.81089
 23
-0.353514
 33
-17.4296
  0
3DFACE
  8
0
 62
    90
 10
2.81089
 20
-0.353514
 30
-17.4296
 11
2.81089
 21
-0.353514
 31
2.62652
 12
2.73497
 22
-0.415825
 32
2.62652
 13
2.73497
 23
-0.415825
 33
-17.4296
  0
3DFACE
  8
0
 62
    90
 10
2.73497
 20
-0.415825
 30
-17.4296
 11
2.73497
 21
-0.415825
 31
2.62652
 12
2.64834
 22
-0.462127
 32
2.62652
 13
2.64834
 23
-0.462127
 33
-17.4296
  0
3DFACE
  8
0
 62
    90
 10
2.64834
 20
-0.462127
 30
-17.4296
 11
2.64834
 21
-0.462127
 31
2.62652
 12
2.55435
 22
-0.490639
 32
2.62652
 13
2.55435
 23
-0.490639
 33
-17.4296
  0
3DFACE
  8
0
 62
    90
 10
2.55435
 20
-0.490639
 30
-17.4296
 11
2.55435
 21
-0.490639
 31
2.62652
 12
2.4566
 22
-0.500267
 32
2.62652
 13
2.4566
 23
-0.500267
 33
-17.4296
  0
3DFACE
  8
0
 62
    90
 10
2.4566
 20
-0.500267
 30
-17.4296
 11
2.4566
 21
-0.500267
 31
2.62652
 12
2.35885
 22
-0.490639
 32
2.62652
 13
2.35885
 23
-0.490639
 33
-17.4296
  0
3DFACE
  8
0
 62
    90
 10
2.35885
 20
-0.490639
 30
-17.4296
 11
2.35885
 21
-0.490639
 31
2.62652
 12
2.26486
 22
-0.462127
 32
2.62652
 13
2.26486
 23
-0.462127
 33
-17.4296
  0
3DFACE
  8
0
 62
    90
 10
2.26486
 20
-0.462127
 30
-17.4296
 11
2.26486
 21
-0.462127
 31
2.62652
 12
2.17824
 22
-0.415826
 32
2.62652
 13
2.17824
 23
-0.415825
 33
-17.4296
  0
3DFACE
  8
0
 62
    90
 10
2.17824
 20
-0.415825
 30
-17.4296
 11
2.17824
 21
-0.415826
 31
2.62652
 12
2.10231
 22
-0.353515
 32
2.62652
 13
2.10231
 23
-0.353514
 33
-17.4296
  0
3DFACE
  8
0
 62
    90
 10
2.10231
 20
-0.353514
 30
-17.4296
 11
2.10231
 21
-0.353515
 31
2.62652
 12
2.04
 22
-0.277588
 32
2.62652
 13
2.04
 23
-0.277587
 33
-17.4296
  0
3DFACE
  8
0
 62
    90
 10
2.04
 20
-0.277587
 30
-17.4296
 11
2.04
 21
-0.277588
 31
2.62652
 12
1.9937
 22
-0.190964
 32
2.62652
 13
1.9937
 23
-0.190962
 33
-17.4296
  0
3DFACE
  8
0
 62
    90
 10
1.9937
 20
-0.190962
 30
-17.4296
 11
1.9937
 21
-0.190964
 31
2.62652
 12
1.96518
 22
-0.096972
 32
2.62652
 13
1.96518
 23
-0.09697
 33
-17.4296
  0
3DFACE
  8
0
 62
    90
 10
1.96518
 20
-0.09697
 30
-17.4296
 11
1.96518
 21
-0.096972
 31
2.62652
 12
1.95556
 22
0.000777
 32
2.62652
 13
1.95556
 23
0.00078
 33
-17.4296
  0
3DFACE
  8
0
 62
    90
 10
1.95556
 20
0.00078
 30
-17.4296
 11
1.95556
 21
0.000777
 31
2.62652
 12
1.96518
 22
0.098526
 32
2.62652
 13
1.96518
 23
0.098529
 33
-17.4296
  0
3DFACE
  8
0
 62
    90
 10
1.96518
 20
0.098529
 30
-17.4296
 11
1.96518
 21
0.098526
 31
2.62652
 12
1.9937
 22
0.192519
 32
2.62652
 13
1.9937
 23
0.192522
 33
-17.4296
  0
3DFACE
  8
0
 62
    90
 10
1.9937
 20
0.192522
 30
-17.4296
 11
1.9937
 21
0.192519
 31
2.62652
 12
2.04
 22
0.279143
 32
2.62652
 13
2.04
 23
0.279146
 33
-17.4296
  0
3DFACE
  8
0
 62
    90
 10
2.04
 20
0.279146
 30
-17.4296
 11
2.04
 21
0.279143
 31
2.62652
 12
2.10231
 22
0.35507
 32
2.62652
 13
2.10231
 23
0.355073
 33
-17.4296
  0
3DFACE
  8
0
 62
    90
 10
2.10231
 20
0.355073
 30
-17.4296
 11
2.10231
 21
0.35507
 31
2.62652
 12
2.17823
 22
0.417382
 32
2.62652
 13
2.17824
 23
0.417384
 33
-17.4296
  0
3DFACE
  8
0
 62
    90
 10
2.17824
 20
0.417384
 30
-17.4296
 11
2.17823
 21
0.417382
 31
2.62652
 12
2.26486
 22
0.463684
 32
2.62652
 13
2.26486
 23
0.463686
 33
-17.4296
  0
3DFACE
  8
0
 62
    90
 10
2.26486
 20
0.463686
 30
-17.4296
 11
2.26486
 21
0.463684
 31
2.62652
 12
2.35885
 22
0.492197
 32
2.62652
 13
2.35885
 23
0.492198
 33
-17.4296
  0
3DFACE
  8
0
 62
    90
 10
2.35885
 20
0.492198
 30
-17.4296
 11
2.35885
 21
0.492197
 31
2.62652
 12
2.4566
 22
0.501825
 32
2.62652
 13
2.4566
 23
0.501825
 33
-17.4296
  0
3DFACE
  8
0
 62
    90
 10
2.4566
 20
0.501825
 30
-17.4296
 11
2.4566
 21
0.501825
 31
2.62652
 12
2.55435
 22
0.492199
 32
2.62652
 13
2.55435
 23
0.492198
 33
-17.4296
  0
3DFACE
  8
0
 62
    90
 10
2.55435
 20
0.492198
 30
-17.4296
 11
2.55435
 21
0.492199
 31
2.62652
 12
2.64834
 22
0.463687
 32
2.62652
 13
2.64834
 23
0.463685
 33
-17.4296
  0
3DFACE
  8
0
 62
    90
 10
2.64834
 20
0.463685
 30
-17.4296
 11
2.64834
 21
0.463687
 31
2.62652
 12
2.73497
 22
0.417386
 32
2.62652
 13
2.73497
 23
0.417383
 33
-17.4296
  0
3DFACE
  8
0
 62
    90
 10
2.8109
 20
0.355072
 30
2.62652
 11
2.81089
 21
0.355072
 31
-17.4296
 12
2.73497
 22
0.417383
 32
-17.4296
 13
2.73497
 23
0.417386
 33
2.62652
  0
3DFACE
  8
0
 62
    90
 10
2.4566
 20
0.501825
 30
2.62652
 11
2.35885
 21
0.492197
 31
2.62652
 12
2.64834
 22
0.463687
 32
2.62652
 13
2.55435
 23
0.492199
 33
2.62652
  0
3DFACE
  8
0
 62
    90
 10
2.35885
 20
0.492197
 30
2.62652
 11
2.26486
 21
0.463684
 31
2.62652
 12
2.73497
 22
0.417386
 32
2.62652
 13
2.64834
 23
0.463687
 33
2.62652
  0
3DFACE
  8
0
 62
    90
 10
2.26486
 20
0.463684
 30
2.62652
 11
2.17823
 21
0.417382
 31
2.62652
 12
2.8109
 22
0.355072
 32
2.62652
 13
2.73497
 23
0.417386
 33
2.62652
  0
3DFACE
  8
0
 62
    90
 10
2.17823
 20
0.417382
 30
2.62652
 11
2.10231
 21
0.35507
 31
2.62652
 12
2.87321
 22
0.279145
 32
2.62652
 13
2.8109
 23
0.355072
 33
2.62652
  0
3DFACE
  8
0
 62
    90
 10
2.10231
 20
0.35507
 30
2.62652
 11
2.04
 21
0.279143
 31
2.62652
 12
2.91951
 22
0.19252
 32
2.62652
 13
2.87321
 23
0.279145
 33
2.62652
  0
3DFACE
  8
0
 62
    90
 10
2.04
 20
0.279143
 30
2.62652
 11
1.9937
 21
0.192519
 31
2.62652
 12
2.94802
 22
0.098527
 32
2.62652
 13
2.91951
 23
0.19252
 33
2.62652
  0
3DFACE
  8
0
 62
    90
 10
1.9937
 20
0.192519
 30
2.62652
 11
1.96518
 21
0.098526
 31
2.62652
 12
2.95765
 22
0.000778
 32
2.62652
 13
2.94802
 23
0.098527
 33
2.62652
  0
3DFACE
  8
0
 62
    90
 10
1.96518
 20
0.098526
 30
2.62652
 11
1.95556
 21
0.000777
 31
2.62652
 12
2.94802
 22
-0.096971
 32
2.62652
 13
2.95765
 23
0.000778
 33
2.62652
  0
3DFACE
  8
0
 62
    90
 10
1.95556
 20
0.000777
 30
2.62652
 11
1.96518
 21
-0.096972
 31
2.62652
 12
2.91951
 22
-0.190963
 32
2.62652
 13
2.94802
 23
-0.096971
 33
2.62652
  0
3DFACE
  8
0
 62
    90
 10
1.96518
 20
-0.096972
 30
2.62652
 11
1.9937
 21
-0.190964
 31
2.62652
 12
2.87321
 22
-0.277587
 32
2.62652
 13
2.91951
 23
-0.190963
 33
2.62652
  0
3DFACE
  8
0
 62
    90
 10
1.9937
 20
-0.190964
 30
2.62652
 11
2.04
 21
-0.277588
 31
2.62652
 12
2.81089
 22
-0.353514
 32
2.62652
 13
2.87321
 23
-0.277587
 33
2.62652
  0
3DFACE
  8
0
 62
    90
 10
2.04
 20
-0.277588
 30
2.62652
 11
2.10231
 21
-0.353515
 31
2.62652
 12
2.73497
 22
-0.415825
 32
2.62652
 13
2.81089
 23
-0.353514
 33
2.62652
  0
3DFACE
  8
0
 62
    90
 10
2.10231
 20
-0.353515
 30
2.62652
 11
2.17824
 21
-0.415826
 31
2.62652
 12
2.64834
 22
-0.462127
 32
2.62652
 13
2.73497
 23
-0.415825
 33
2.62652
  0
3DFACE
  8
0
 62
    90
 10
2.17824
 20
-0.415826
 30
2.62652
 11
2.26486
 21
-0.462127
 31
2.62652
 12
2.55435
 22
-0.490639
 32
2.62652
 13
2.64834
 23
-0.462127
 33
2.62652
  0
3DFACE
  8
0
 62
    90
 10
2.26486
 20
-0.462127
 30
2.62652
 11
2.35885
 21
-0.490639
 31
2.62652
 12
2.4566
 22
-0.500267
 32
2.62652
 13
2.55435
 23
-0.490639
 33
2.62652
  0
ENDBLK
  8
0
  0
BLOCK
  8
Meshes
  2
Noteline
 70
    64
 10
0
 20
0
 30
0
  3
Noteline
  0
3DFACE
  8
0
 62
   250
 10
25.0304
 20
0.499658
 30
-0.169316
 11
25.0304
 21
-0.499659
 31
-0.169316
 12
-25.0184
 22
-0.499658
 32
-0.169316
 13
-25.0184
 23
0.499659
 33
-0.169316
  0
3DFACE
  8
0
 62
   250
 10
25.0304
 20
0.499658
 30
0.219393
 11
-25.0184
 21
0.499658
 31
0.219393
 12
-25.0184
 22
-0.499658
 32
0.219393
 13
25.0304
 23
-0.499659
 33
0.219393
  0
3DFACE
  8
0
 62
   250
 10
25.0304
 20
0.499658
 30
-0.169316
 11
25.0304
 21
0.499658
 31
0.219393
 12
25.0304
 22
-0.499659
 32
0.219393
 13
25.0304
 23
-0.499659
 33
-0.169316
  0
3DFACE
  8
0
 62
   250
 10
25.0304
 20
-0.499659
 30
-0.169316
 11
25.0304
 21
-0.499659
 31
0.219393
 12
-25.0184
 22
-0.499658
 32
0.219393
 13
-25.0184
 23
-0.499658
 33
-0.169316
  0
3DFACE
  8
0
 62
   250
 10
-25.0184
 20
-0.499658
 30
-0.169316
 11
-25.0184
 21
-0.499658
 31
0.219393
 12
-25.0184
 22
0.499658
 32
0.219393
 13
-25.0184
 23
0.499659
 33
-0.169316
  0
3DFACE
  8
0
 62
   250
 10
25.0304
 20
0.499658
 30
0.219393
 11
25.0304
 21
0.499658
 31
-0.169316
 12
-25.0184
 22
0.499659
 32
-0.169316
 13
-25.0184
 23
0.499658
 33
0.219393
  0
ENDBLK
  8
0
  0
BLOCK
  8
Meshes
  2
Noteline_004
 70
    64
 10
0
 20
0
 30
0
  3
Noteline_004
  0
3DFACE
  8
0
 62
   250
 10
25.0304
 20
0.499658
 30
-0.169316
 11
25.0304
 21
-0.499659
 31
-0.169316
 12
-25.0184
 22
-0.499658
 32
-0.169316
 13
-25.0184
 23
0.499659
 33
-0.169316
  0
3DFACE
  8
0
 62
   250
 10
25.0304
 20
0.499658
 30
0.219393
 11
-25.0184
 21
0.499658
 31
0.219393
 12
-25.0184
 22
-0.499658
 32
0.219393
 13
25.0304
 23
-0.499659
 33
0.219393
  0
3DFACE
  8
0
 62
   250
 10
25.0304
 20
0.499658
 30
-0.169316
 11
25.0304
 21
0.499658
 31
0.219393
 12
25.0304
 22
-0.499659
 32
0.219393
 13
25.0304
 23
-0.499659
 33
-0.169316
  0
3DFACE
  8
0
 62
   250
 10
25.0304
 20
-0.499659
 30
-0.169316
 11
25.0304
 21
-0.499659
 31
0.219393
 12
-25.0184
 22
-0.499658
 32
0.219393
 13
-25.0184
 23
-0.499658
 33
-0.169316
  0
3DFACE
  8
0
 62
   250
 10
-25.0184
 20
-0.499658
 30
-0.169316
 11
-25.0184
 21
-0.499658
 31
0.219393
 12
-25.0184
 22
0.499658
 32
0.219393
 13
-25.0184
 23
0.499659
 33
-0.169316
  0
3DFACE
  8
0
 62
   250
 10
25.0304
 20
0.499658
 30
0.219393
 11
25.0304
 21
0.499658
 31
-0.169316
 12
-25.0184
 22
0.499659
 32
-0.169316
 13
-25.0184
 23
0.499658
 33
0.219393
  0
ENDBLK
  8
0
  0
BLOCK
  8
Meshes
  2
Noteline_005
 70
    64
 10
0
 20
0
 30
0
  3
Noteline_005
  0
3DFACE
  8
0
 62
   250
 10
25.0304
 20
0.499658
 30
-0.169316
 11
25.0304
 21
-0.499659
 31
-0.169316
 12
-25.0184
 22
-0.499658
 32
-0.169316
 13
-25.0184
 23
0.499659
 33
-0.169316
  0
3DFACE
  8
0
 62
   250
 10
25.0304
 20
0.499658
 30
0.219393
 11
-25.0184
 21
0.499658
 31
0.219393
 12
-25.0184
 22
-0.499658
 32
0.219393
 13
25.0304
 23
-0.499659
 33
0.219393
  0
3DFACE
  8
0
 62
   250
 10
25.0304
 20
0.499658
 30
-0.169316
 11
25.0304
 21
0.499658
 31
0.219393
 12
25.0304
 22
-0.499659
 32
0.219393
 13
25.0304
 23
-0.499659
 33
-0.169316
  0
3DFACE
  8
0
 62
   250
 10
25.0304
 20
-0.499659
 30
-0.169316
 11
25.0304
 21
-0.499659
 31
0.219393
 12
-25.0184
 22
-0.499658
 32
0.219393
 13
-25.0184
 23
-0.499658
 33
-0.169316
  0
3DFACE
  8
0
 62
   250
 10
-25.0184
 20
-0.499658
 30
-0.169316
 11
-25.0184
 21
-0.499658
 31
0.219393
 12
-25.0184
 22
0.499658
 32
0.219393
 13
-25.0184
 23
0.499659
 33
-0.169316
  0
3DFACE
  8
0
 62
   250
 10
25.0304
 20
0.499658
 30
0.219393
 11
25.0304
 21
0.499658
 31
-0.169316
 12
-25.0184
 22
0.499659
 32
-0.169316
 13
-25.0184
 23
0.499658
 33
0.219393
  0
ENDBLK
  8
0
  0
BLOCK
  8
Meshes
  2
Noteline_006
 70
    64
 10
0
 20
0
 30
0
  3
Noteline_006
  0
3DFACE
  8
0
 62
   250
 10
25.0304
 20
0.499658
 30
-0.169316
 11
25.0304
 21
-0.499659
 31
-0.169316
 12
-25.0184
 22
-0.499658
 32
-0.169316
 13
-25.0184
 23
0.499659
 33
-0.169316
  0
3DFACE
  8
0
 62
   250
 10
25.0304
 20
0.499658
 30
0.219393
 11
-25.0184
 21
0.499658
 31
0.219393
 12
-25.0184
 22
-0.499658
 32
0.219393
 13
25.0304
 23
-0.499659
 33
0.219393
  0
3DFACE
  8
0
 62
   250
 10
25.0304
 20
0.499658
 30
-0.169316
 11
25.0304
 21
0.499658
 31
0.219393
 12
25.0304
 22
-0.499659
 32
0.219393
 13
25.0304
 23
-0.499659
 33
-0.169316
  0
3DFACE
  8
0
 62
   250
 10
25.0304
 20
-0.499659
 30
-0.169316
 11
25.0304
 21
-0.499659
 31
0.219393
 12
-25.0184
 22
-0.499658
 32
0.219393
 13
-25.0184
 23
-0.499658
 33
-0.169316
  0
3DFACE
  8
0
 62
   250
 10
-25.0184
 20
-0.499658
 30
-0.169316
 11
-25.0184
 21
-0.499658
 31
0.219393
 12
-25.0184
 22
0.499658
 32
0.219393
 13
-25.0184
 23
0.499659
 33
-0.169316
  0
3DFACE
  8
0
 62
   250
 10
25.0304
 20
0.499658
 30
0.219393
 11
25.0304
 21
0.499658
 31
-0.169316
 12
-25.0184
 22
0.499659
 32
-0.169316
 13
-25.0184
 23
0.499658
 33
0.219393
  0
ENDBLK
  8
0
  0
BLOCK
  8
Meshes
  2
Noteline_007
 70
    64
 10
0
 20
0
 30
0
  3
Noteline_007
  0
3DFACE
  8
0
 62
   250
 10
25.0304
 20
0.499658
 30
-0.169316
 11
25.0304
 21
-0.499659
 31
-0.169316
 12
-25.0184
 22
-0.499658
 32
-0.169316
 13
-25.0184
 23
0.499659
 33
-0.169316
  0
3DFACE
  8
0
 62
   250
 10
25.0304
 20
0.499658
 30
0.219393
 11
-25.0184
 21
0.499658
 31
0.219393
 12
-25.0184
 22
-0.499658
 32
0.219393
 13
25.0304
 23
-0.499659
 33
0.219393
  0
3DFACE
  8
0
 62
   250
 10
25.0304
 20
0.499658
 30
-0.169316
 11
25.0304
 21
0.499658
 31
0.219393
 12
25.0304
 22
-0.499659
 32
0.219393
 13
25.0304
 23
-0.499659
 33
-0.169316
  0
3DFACE
  8
0
 62
   250
 10
25.0304
 20
-0.499659
 30
-0.169316
 11
25.0304
 21
-0.499659
 31
0.219393
 12
-25.0184
 22
-0.499658
 32
0.219393
 13
-25.0184
 23
-0.499658
 33
-0.169316
  0
3DFACE
  8
0
 62
   250
 10
-25.0184
 20
-0.499658
 30
-0.169316
 11
-25.0184
 21
-0.499658
 31
0.219393
 12
-25.0184
 22
0.499658
 32
0.219393
 13
-25.0184
 23
0.499659
 33
-0.169316
  0
3DFACE
  8
0
 62
   250
 10
25.0304
 20
0.499658
 30
0.219393
 11
25.0304
 21
0.499658
 31
-0.169316
 12
-25.0184
 22
0.499659
 32
-0.169316
 13
-25.0184
 23
0.499658
 33
0.219393
  0
ENDBLK
  8
0
  0
BLOCK
  8
Meshes
  2
YellowNote
 70
    64
 10
0
 20
0
 30
0
  3
YellowNote
  0
3DFACE
  8
0
 62
    50
 10
2.81089
 20
0.355072
 30
-17.4296
 11
2.8109
 21
0.355072
 31
2.62652
 12
2.87321
 22
0.279145
 32
2.62652
 13
2.87321
 23
0.279145
 33
-17.4296
  0
3DFACE
  8
0
 62
    50
 10
2.87321
 20
0.279145
 30
-17.4296
 11
2.87321
 21
0.279145
 31
2.62652
 12
2.91951
 22
0.19252
 32
2.62652
 13
2.91951
 23
0.192521
 33
-17.4296
  0
3DFACE
  8
0
 62
    50
 10
2.91951
 20
0.192521
 30
-17.4296
 11
2.91951
 21
0.19252
 31
2.62652
 12
2.94802
 22
0.098527
 32
2.62652
 13
2.94802
 23
0.098528
 33
-17.4296
  0
3DFACE
  8
0
 62
    50
 10
2.94802
 20
0.098528
 30
-17.4296
 11
2.94802
 21
0.098527
 31
2.62652
 12
2.95765
 22
0.000778
 32
2.62652
 13
2.95765
 23
0.000779
 33
-17.4296
  0
3DFACE
  8
0
 62
    50
 10
2.95765
 20
0.000779
 30
-17.4296
 11
2.95765
 21
0.000778
 31
2.62652
 12
2.94802
 22
-0.096971
 32
2.62652
 13
2.94802
 23
-0.09697
 33
-17.4296
  0
3DFACE
  8
0
 62
    50
 10
2.94802
 20
-0.09697
 30
-17.4296
 11
2.94802
 21
-0.096971
 31
2.62652
 12
2.91951
 22
-0.190963
 32
2.62652
 13
2.91951
 23
-0.190963
 33
-17.4296
  0
3DFACE
  8
0
 62
    50
 10
2.91951
 20
-0.190963
 30
-17.4296
 11
2.91951
 21
-0.190963
 31
2.62652
 12
2.87321
 22
-0.277587
 32
2.62652
 13
2.87321
 23
-0.277587
 33
-17.4296
  0
3DFACE
  8
0
 62
    50
 10
2.87321
 20
-0.277587
 30
-17.4296
 11
2.87321
 21
-0.277587
 31
2.62652
 12
2.81089
 22
-0.353514
 32
2.62652
 13
2.81089
 23
-0.353514
 33
-17.4296
  0
3DFACE
  8
0
 62
    50
 10
2.81089
 20
-0.353514
 30
-17.4296
 11
2.81089
 21
-0.353514
 31
2.62652
 12
2.73497
 22
-0.415825
 32
2.62652
 13
2.73497
 23
-0.415825
 33
-17.4296
  0
3DFACE
  8
0
 62
    50
 10
2.73497
 20
-0.415825
 30
-17.4296
 11
2.73497
 21
-0.415825
 31
2.62652
 12
2.64834
 22
-0.462127
 32
2.62652
 13
2.64834
 23
-0.462127
 33
-17.4296
  0
3DFACE
  8
0
 62
    50
 10
2.64834
 20
-0.462127
 30
-17.4296
 11
2.64834
 21
-0.462127
 31
2.62652
 12
2.55435
 22
-0.490639
 32
2.62652
 13
2.55435
 23
-0.490639
 33
-17.4296
  0
3DFACE
  8
0
 62
    50
 10
2.55435
 20
-0.490639
 30
-17.4296
 11
2.55435
 21
-0.490639
 31
2.62652
 12
2.4566
 22
-0.500267
 32
2.62652
 13
2.4566
 23
-0.500267
 33
-17.4296
  0
3DFACE
  8
0
 62
    50
 10
2.4566
 20
-0.500267
 30
-17.4296
 11
2.4566
 21
-0.500267
 31
2.62652
 12
2.35885
 22
-0.490639
 32
2.62652
 13
2.35885
 23
-0.490639
 33
-17.4296
  0
3DFACE
  8
0
 62
    50
 10
2.35885
 20
-0.490639
 30
-17.4296
 11
2.35885
 21
-0.490639
 31
2.62652
 12
2.26486
 22
-0.462127
 32
2.62652
 13
2.26486
 23
-0.462127
 33
-17.4296
  0
3DFACE
  8
0
 62
    50
 10
2.26486
 20
-0.462127
 30
-17.4296
 11
2.26486
 21
-0.462127
 31
2.62652
 12
2.17824
 22
-0.415826
 32
2.62652
 13
2.17824
 23
-0.415825
 33
-17.4296
  0
3DFACE
  8
0
 62
    50
 10
2.17824
 20
-0.415825
 30
-17.4296
 11
2.17824
 21
-0.415826
 31
2.62652
 12
2.10231
 22
-0.353515
 32
2.62652
 13
2.10231
 23
-0.353514
 33
-17.4296
  0
3DFACE
  8
0
 62
    50
 10
2.10231
 20
-0.353514
 30
-17.4296
 11
2.10231
 21
-0.353515
 31
2.62652
 12
2.04
 22
-0.277588
 32
2.62652
 13
2.04
 23
-0.277587
 33
-17.4296
  0
3DFACE
  8
0
 62
    50
 10
2.04
 20
-0.277587
 30
-17.4296
 11
2.04
 21
-0.277588
 31
2.62652
 12
1.9937
 22
-0.190964
 32
2.62652
 13
1.9937
 23
-0.190962
 33
-17.4296
  0
3DFACE
  8
0
 62
    50
 10
1.9937
 20
-0.190962
 30
-17.4296
 11
1.9937
 21
-0.190964
 31
2.62652
 12
1.96518
 22
-0.096972
 32
2.62652
 13
1.96518
 23
-0.09697
 33
-17.4296
  0
3DFACE
  8
0
 62
    50
 10
1.96518
 20
-0.09697
 30
-17.4296
 11
1.96518
 21
-0.096972
 31
2.62652
 12
1.95556
 22
0.000777
 32
2.62652
 13
1.95556
 23
0.00078
 33
-17.4296
  0
3DFACE
  8
0
 62
    50
 10
1.95556
 20
0.00078
 30
-17.4296
 11
1.95556
 21
0.000777
 31
2.62652
 12
1.96518
 22
0.098526
 32
2.62652
 13
1.96518
 23
0.098529
 33
-17.4296
  0
3DFACE
  8
0
 62
    50
 10
1.96518
 20
0.098529
 30
-17.4296
 11
1.96518
 21
0.098526
 31
2.62652
 12
1.9937
 22
0.192519
 32
2.62652
 13
1.9937
 23
0.192522
 33
-17.4296
  0
3DFACE
  8
0
 62
    50
 10
1.9937
 20
0.192522
 30
-17.4296
 11
1.9937
 21
0.192519
 31
2.62652
 12
2.04
 22
0.279143
 32
2.62652
 13
2.04
 23
0.279146
 33
-17.4296
  0
3DFACE
  8
0
 62
    50
 10
2.04
 20
0.279146
 30
-17.4296
 11
2.04
 21
0.279143
 31
2.62652
 12
2.10231
 22
0.35507
 32
2.62652
 13
2.10231
 23
0.355073
 33
-17.4296
  0
3DFACE
  8
0
 62
    50
 10
2.10231
 20
0.355073
 30
-17.4296
 11
2.10231
 21
0.35507
 31
2.62652
 12
2.17823
 22
0.417382
 32
2.62652
 13
2.17824
 23
0.417384
 33
-17.4296
  0
3DFACE
  8
0
 62
    50
 10
2.17824
 20
0.417384
 30
-17.4296
 11
2.17823
 21
0.417382
 31
2.62652
 12
2.26486
 22
0.463684
 32
2.62652
 13
2.26486
 23
0.463686
 33
-17.4296
  0
3DFACE
  8
0
 62
    50
 10
2.26486
 20
0.463686
 30
-17.4296
 11
2.26486
 21
0.463684
 31
2.62652
 12
2.35885
 22
0.492197
 32
2.62652
 13
2.35885
 23
0.492198
 33
-17.4296
  0
3DFACE
  8
0
 62
    50
 10
2.35885
 20
0.492198
 30
-17.4296
 11
2.35885
 21
0.492197
 31
2.62652
 12
2.4566
 22
0.501825
 32
2.62652
 13
2.4566
 23
0.501825
 33
-17.4296
  0
3DFACE
  8
0
 62
    50
 10
2.4566
 20
0.501825
 30
-17.4296
 11
2.4566
 21
0.501825
 31
2.62652
 12
2.55435
 22
0.492199
 32
2.62652
 13
2.55435
 23
0.492198
 33
-17.4296
  0
3DFACE
  8
0
 62
    50
 10
2.55435
 20
0.492198
 30
-17.4296
 11
2.55435
 21
0.492199
 31
2.62652
 12
2.64834
 22
0.463687
 32
2.62652
 13
2.64834
 23
0.463685
 33
-17.4296
  0
3DFACE
  8
0
 62
    50
 10
2.64834
 20
0.463685
 30
-17.4296
 11
2.64834
 21
0.463687
 31
2.62652
 12
2.73497
 22
0.417386
 32
2.62652
 13
2.73497
 23
0.417383
 33
-17.4296
  0
3DFACE
  8
0
 62
    50
 10
2.8109
 20
0.355072
 30
2.62652
 11
2.81089
 21
0.355072
 31
-17.4296
 12
2.73497
 22
0.417383
 32
-17.4296
 13
2.73497
 23
0.417386
 33
2.62652
  0
3DFACE
  8
0
 62
    50
 10
2.4566
 20
0.501825
 30
2.62652
 11
2.35885
 21
0.492197
 31
2.62652
 12
2.64834
 22
0.463687
 32
2.62652
 13
2.55435
 23
0.492199
 33
2.62652
  0
3DFACE
  8
0
 62
    50
 10
2.35885
 20
0.492197
 30
2.62652
 11
2.26486
 21
0.463684
 31
2.62652
 12
2.73497
 22
0.417386
 32
2.62652
 13
2.64834
 23
0.463687
 33
2.62652
  0
3DFACE
  8
0
 62
    50
 10
2.26486
 20
0.463684
 30
2.62652
 11
2.17823
 21
0.417382
 31
2.62652
 12
2.8109
 22
0.355072
 32
2.62652
 13
2.73497
 23
0.417386
 33
2.62652
  0
3DFACE
  8
0
 62
    50
 10
2.17823
 20
0.417382
 30
2.62652
 11
2.10231
 21
0.35507
 31
2.62652
 12
2.87321
 22
0.279145
 32
2.62652
 13
2.8109
 23
0.355072
 33
2.62652
  0
3DFACE
  8
0
 62
    50
 10
2.10231
 20
0.35507
 30
2.62652
 11
2.04
 21
0.279143
 31
2.62652
 12
2.91951
 22
0.19252
 32
2.62652
 13
2.87321
 23
0.279145
 33
2.62652
  0
3DFACE
  8
0
 62
    50
 10
2.04
 20
0.279143
 30
2.62652
 11
1.9937
 21
0.192519
 31
2.62652
 12
2.94802
 22
0.098527
 32
2.62652
 13
2.91951
 23
0.19252
 33
2.62652
  0
3DFACE
  8
0
 62
    50
 10
1.9937
 20
0.192519
 30
2.62652
 11
1.96518
 21
0.098526
 31
2.62652
 12
2.95765
 22
0.000778
 32
2.62652
 13
2.94802
 23
0.098527
 33
2.62652
  0
3DFACE
  8
0
 62
    50
 10
1.96518
 20
0.098526
 30
2.62652
 11
1.95556
 21
0.000777
 31
2.62652
 12
2.94802
 22
-0.096971
 32
2.62652
 13
2.95765
 23
0.000778
 33
2.62652
  0
3DFACE
  8
0
 62
    50
 10
1.95556
 20
0.000777
 30
2.62652
 11
1.96518
 21
-0.096972
 31
2.62652
 12
2.91951
 22
-0.190963
 32
2.62652
 13
2.94802
 23
-0.096971
 33
2.62652
  0
3DFACE
  8
0
 62
    50
 10
1.96518
 20
-0.096972
 30
2.62652
 11
1.9937
 21
-0.190964
 31
2.62652
 12
2.87321
 22
-0.277587
 32
2.62652
 13
2.91951
 23
-0.190963
 33
2.62652
  0
3DFACE
  8
0
 62
    50
 10
1.9937
 20
-0.190964
 30
2.62652
 11
2.04
 21
-0.277588
 31
2.62652
 12
2.81089
 22
-0.353514
 32
2.62652
 13
2.87321
 23
-0.277587
 33
2.62652
  0
3DFACE
  8
0
 62
    50
 10
2.04
 20
-0.277588
 30
2.62652
 11
2.10231
 21
-0.353515
 31
2.62652
 12
2.73497
 22
-0.415825
 32
2.62652
 13
2.81089
 23
-0.353514
 33
2.62652
  0
3DFACE
  8
0
 62
    50
 10
2.10231
 20
-0.353515
 30
2.62652
 11
2.17824
 21
-0.415826
 31
2.62652
 12
2.64834
 22
-0.462127
 32
2.62652
 13
2.73497
 23
-0.415825
 33
2.62652
  0
3DFACE
  8
0
 62
    50
 10
2.17824
 20
-0.415826
 30
2.62652
 11
2.26486
 21
-0.462127
 31
2.62652
 12
2.55435
 22
-0.490639
 32
2.62652
 13
2.64834
 23
-0.462127
 33
2.62652
  0
3DFACE
  8
0
 62
    50
 10
2.26486
 20
-0.462127
 30
2.62652
 11
2.35885
 21
-0.490639
 31
2.62652
 12
2.4566
 22
-0.500267
 32
2.62652
 13
2.55435
 23
-0.490639
 33
2.62652
  0
3DFACE
  8
0
 62
    50
 10
4.49325
 20
-0.29929
 30
1.99573
 11
4.94058
 21
-0.29929
 31
1.53377
 12
4.57986
 22
-0.29929
 32
1.07987
 13
4.20983
 23
-0.29929
 33
1.46199
  0
3DFACE
  8
0
 62
    50
 10
4.49325
 20
-0.29929
 30
1.99573
 11
3.98289
 21
-0.29929
 31
2.339
 12
3.78767
 22
-0.29929
 32
1.74594
 13
4.20983
 23
-0.29929
 33
1.46199
  0
3DFACE
  8
0
 62
    50
 10
3.98289
 20
-0.29929
 30
2.339
 11
3.42912
 21
-0.29929
 31
2.55038
 12
3.32959
 22
-0.29929
 32
1.92079
 13
3.78767
 23
-0.29929
 33
1.74594
  0
3DFACE
  8
0
 62
    50
 10
3.42912
 20
-0.29929
 30
2.55038
 11
2.85321
 21
-0.29929
 31
2.62176
 12
2.85321
 22
-0.29929
 32
1.97984
 13
3.32959
 23
-0.29929
 33
1.92079
  0
3DFACE
  8
0
 62
    50
 10
4.49324
 20
-0.29929
 30
-4.18143
 11
3.98288
 21
-0.29929
 31
-4.52469
 12
3.78766
 22
-0.29929
 32
-3.93163
 13
4.20983
 23
-0.29929
 33
-3.64769
  0
3DFACE
  8
0
 62
    50
 10
4.49324
 20
-0.29929
 30
-4.18143
 11
4.94058
 21
-0.29929
 31
-3.71947
 12
4.57986
 22
-0.29929
 32
-3.26556
 13
4.20983
 23
-0.29929
 33
-3.64769
  0
3DFACE
  8
0
 62
    50
 10
4.94058
 20
-0.29929
 30
-3.71947
 11
5.30769
 21
-0.29929
 31
-3.15657
 12
4.88353
 22
-0.29929
 32
-2.79994
 13
4.57986
 23
-0.29929
 33
-3.26556
  0
3DFACE
  8
0
 62
    50
 10
5.30769
 20
-0.29929
 30
-3.15657
 11
5.58048
 21
-0.29929
 31
-2.51436
 12
5.10918
 22
-0.29929
 32
-2.26871
 13
4.88353
 23
-0.29929
 33
-2.79994
  0
3DFACE
  8
0
 62
    50
 10
5.58048
 20
-0.29929
 30
-2.51436
 11
5.74847
 21
-0.29929
 31
-1.81753
 12
5.24814
 22
-0.29929
 32
-1.6923
 13
5.10918
 23
-0.29929
 33
-2.26871
  0
3DFACE
  8
0
 62
    50
 10
5.74847
 20
-0.29929
 30
-1.81753
 11
5.80519
 21
-0.29929
 31
-1.09285
 12
5.29506
 22
-0.29929
 32
-1.09285
 13
5.24814
 23
-0.29929
 33
-1.6923
  0
3DFACE
  8
0
 62
    50
 10
5.74847
 20
-0.29929
 30
-0.368163
 11
5.80519
 21
-0.29929
 31
-1.09285
 12
5.29506
 22
-0.29929
 32
-1.09285
 13
5.24814
 23
-0.29929
 33
-0.493396
  0
3DFACE
  8
0
 62
    50
 10
5.74847
 20
-0.29929
 30
-0.368163
 11
5.58048
 21
-0.29929
 31
0.328671
 12
5.10918
 22
-0.29929
 32
0.083018
 13
5.24814
 23
-0.29929
 33
-0.493396
  0
3DFACE
  8
0
 62
    50
 10
5.58048
 20
-0.29929
 30
0.328671
 11
5.30769
 21
-0.29929
 31
0.970877
 12
4.88353
 22
-0.29929
 32
0.614244
 13
5.10918
 23
-0.29929
 33
0.083018
  0
3DFACE
  8
0
 62
    50
 10
5.30769
 20
-0.29929
 30
0.970877
 11
4.94058
 21
-0.29929
 31
1.53377
 12
4.57986
 22
-0.29929
 32
1.07987
 13
4.88353
 23
-0.29929
 33
0.614244
  0
3DFACE
  8
0
 62
    50
 10
4.88353
 20
-0.29929
 30
0.614244
 11
4.57986
 21
-0.29929
 31
1.07987
 12
4.57986
 22
0.30223
 32
1.07987
 13
4.88353
 23
0.30223
 33
0.614244
  0
3DFACE
  8
0
 62
    50
 10
5.10918
 20
-0.29929
 30
0.083018
 11
4.88353
 21
-0.29929
 31
0.614244
 12
4.88353
 22
0.30223
 32
0.614244
 13
5.10918
 23
0.30223
 33
0.083018
  0
3DFACE
  8
0
 62
    50
 10
5.24814
 20
-0.29929
 30
-0.493396
 11
5.10918
 21
-0.29929
 31
0.083018
 12
5.10918
 22
0.30223
 32
0.083018
 13
5.24814
 23
0.30223
 33
-0.493396
  0
3DFACE
  8
0
 62
    50
 10
5.24814
 20
-0.29929
 30
-0.493396
 11
5.29506
 21
-0.29929
 31
-1.09285
 12
5.29506
 22
0.30223
 32
-1.09285
 13
5.24814
 23
0.30223
 33
-0.493396
  0
3DFACE
  8
0
 62
    50
 10
5.24814
 20
-0.29929
 30
-1.6923
 11
5.29506
 21
-0.29929
 31
-1.09285
 12
5.29506
 22
0.30223
 32
-1.09285
 13
5.24814
 23
0.30223
 33
-1.6923
  0
3DFACE
  8
0
 62
    50
 10
5.10918
 20
-0.29929
 30
-2.26871
 11
5.24814
 21
-0.29929
 31
-1.6923
 12
5.24814
 22
0.30223
 32
-1.6923
 13
5.10918
 23
0.30223
 33
-2.26871
  0
3DFACE
  8
0
 62
    50
 10
4.88353
 20
-0.29929
 30
-2.79994
 11
5.10918
 21
-0.29929
 31
-2.26871
 12
5.10918
 22
0.30223
 32
-2.26871
 13
4.88353
 23
0.30223
 33
-2.79994
  0
3DFACE
  8
0
 62
    50
 10
4.57986
 20
-0.29929
 30
-3.26556
 11
4.88353
 21
-0.29929
 31
-2.79994
 12
4.88353
 22
0.30223
 32
-2.79994
 13
4.57986
 23
0.30223
 33
-3.26556
  0
3DFACE
  8
0
 62
    50
 10
4.20983
 20
-0.29929
 30
-3.64769
 11
4.57986
 21
-0.29929
 31
-3.26556
 12
4.57986
 22
0.30223
 32
-3.26556
 13
4.20983
 23
0.30223
 33
-3.64769
  0
3DFACE
  8
0
 62
    50
 10
4.20983
 20
-0.29929
 30
-3.64769
 11
3.78766
 21
-0.29929
 31
-3.93163
 12
3.78766
 22
0.30223
 32
-3.93163
 13
4.20983
 23
0.30223
 33
-3.64769
  0
3DFACE
  8
0
 62
    50
 10
3.78766
 20
-0.29929
 30
-3.93163
 11
3.98288
 21
-0.29929
 31
-4.52469
 12
3.98288
 22
0.30223
 32
-4.52469
 13
3.78766
 23
0.30223
 33
-3.93163
  0
3DFACE
  8
0
 62
    50
 10
3.32959
 20
-0.29929
 30
1.92079
 11
2.85321
 21
-0.29929
 31
1.97984
 12
2.85321
 22
0.30223
 32
1.97984
 13
3.32959
 23
0.30223
 33
1.92079
  0
3DFACE
  8
0
 62
    50
 10
3.78767
 20
-0.29929
 30
1.74594
 11
3.32959
 21
-0.29929
 31
1.92079
 12
3.32959
 22
0.30223
 32
1.92079
 13
3.78767
 23
0.30223
 33
1.74594
  0
3DFACE
  8
0
 62
    50
 10
4.20983
 20
-0.29929
 30
1.46199
 11
3.78767
 21
-0.29929
 31
1.74594
 12
3.78767
 22
0.30223
 32
1.74594
 13
4.20983
 23
0.30223
 33
1.46199
  0
3DFACE
  8
0
 62
    50
 10
4.20983
 20
-0.29929
 30
1.46199
 11
4.57986
 21
-0.29929
 31
1.07987
 12
4.57986
 22
0.30223
 32
1.07987
 13
4.20983
 23
0.30223
 33
1.46199
  0
3DFACE
  8
0
 62
    50
 10
4.49325
 20
-0.29929
 30
1.99573
 11
4.94058
 21
-0.29929
 31
1.53377
 12
4.94058
 22
0.30223
 32
1.53377
 13
4.49325
 23
0.30223
 33
1.99573
  0
3DFACE
  8
0
 62
    50
 10
4.49325
 20
-0.29929
 30
1.99573
 11
3.98289
 21
-0.29929
 31
2.339
 12
3.98289
 22
0.30223
 32
2.339
 13
4.49325
 23
0.30223
 33
1.99573
  0
3DFACE
  8
0
 62
    50
 10
3.98289
 20
-0.29929
 30
2.339
 11
3.42912
 21
-0.29929
 31
2.55038
 12
3.42912
 22
0.30223
 32
2.55038
 13
3.98289
 23
0.30223
 33
2.339
  0
3DFACE
  8
0
 62
    50
 10
3.42912
 20
-0.29929
 30
2.55038
 11
2.85321
 21
-0.29929
 31
2.62176
 12
2.85321
 22
0.30223
 32
2.62176
 13
3.42912
 23
0.30223
 33
2.55038
  0
3DFACE
  8
0
 62
    50
 10
4.49324
 20
-0.29929
 30
-4.18143
 11
3.98288
 21
-0.29929
 31
-4.52469
 12
3.98288
 22
0.30223
 32
-4.52469
 13
4.49324
 23
0.30223
 33
-4.18143
  0
3DFACE
  8
0
 62
    50
 10
4.49324
 20
-0.29929
 30
-4.18143
 11
4.94058
 21
-0.29929
 31
-3.71947
 12
4.94058
 22
0.30223
 32
-3.71947
 13
4.49324
 23
0.30223
 33
-4.18143
  0
3DFACE
  8
0
 62
    50
 10
4.94058
 20
-0.29929
 30
-3.71947
 11
5.30769
 21
-0.29929
 31
-3.15657
 12
5.30769
 22
0.30223
 32
-3.15657
 13
4.94058
 23
0.30223
 33
-3.71947
  0
3DFACE
  8
0
 62
    50
 10
5.30769
 20
-0.29929
 30
-3.15657
 11
5.58048
 21
-0.29929
 31
-2.51436
 12
5.58048
 22
0.30223
 32
-2.51436
 13
5.30769
 23
0.30223
 33
-3.15657
  0
3DFACE
  8
0
 62
    50
 10
5.58048
 20
-0.29929
 30
-2.51436
 11
5.74847
 21
-0.29929
 31
-1.81753
 12
5.74847
 22
0.30223
 32
-1.81753
 13
5.58048
 23
0.30223
 33
-2.51436
  0
3DFACE
  8
0
 62
    50
 10
5.74847
 20
-0.29929
 30
-1.81753
 11
5.80519
 21
-0.29929
 31
-1.09285
 12
5.80519
 22
0.30223
 32
-1.09285
 13
5.74847
 23
0.30223
 33
-1.81753
  0
3DFACE
  8
0
 62
    50
 10
5.74847
 20
-0.29929
 30
-0.368163
 11
5.80519
 21
-0.29929
 31
-1.09285
 12
5.80519
 22
0.30223
 32
-1.09285
 13
5.74847
 23
0.30223
 33
-0.368163
  0
3DFACE
  8
0
 62
    50
 10
5.74847
 20
-0.29929
 30
-0.368163
 11
5.58048
 21
-0.29929
 31
0.328671
 12
5.58048
 22
0.30223
 32
0.328671
 13
5.74847
 23
0.30223
 33
-0.368163
  0
3DFACE
  8
0
 62
    50
 10
5.58048
 20
-0.29929
 30
0.328671
 11
5.30769
 21
-0.29929
 31
0.970877
 12
5.30769
 22
0.30223
 32
0.970877
 13
5.58048
 23
0.30223
 33
0.328671
  0
3DFACE
  8
0
 62
    50
 10
5.30769
 20
-0.29929
 30
0.970877
 11
4.94058
 21
-0.29929
 31
1.53377
 12
4.94058
 22
0.30223
 32
1.53377
 13
5.30769
 23
0.30223
 33
0.970877
  0
3DFACE
  8
0
 62
    50
 10
4.49325
 20
0.30223
 30
1.99573
 11
4.94058
 21
0.30223
 31
1.53377
 12
4.57986
 22
0.30223
 32
1.07987
 13
4.20983
 23
0.30223
 33
1.46199
  0
3DFACE
  8
0
 62
    50
 10
4.49325
 20
0.30223
 30
1.99573
 11
3.98289
 21
0.30223
 31
2.339
 12
3.78767
 22
0.30223
 32
1.74594
 13
4.20983
 23
0.30223
 33
1.46199
  0
3DFACE
  8
0
 62
    50
 10
3.98289
 20
0.30223
 30
2.339
 11
3.42912
 21
0.30223
 31
2.55038
 12
3.32959
 22
0.30223
 32
1.92079
 13
3.78767
 23
0.30223
 33
1.74594
  0
3DFACE
  8
0
 62
    50
 10
3.42912
 20
0.30223
 30
2.55038
 11
2.85321
 21
0.30223
 31
2.62176
 12
2.85321
 22
0.30223
 32
1.97984
 13
3.32959
 23
0.30223
 33
1.92079
  0
3DFACE
  8
0
 62
    50
 10
4.49324
 20
0.30223
 30
-4.18143
 11
3.98288
 21
0.30223
 31
-4.52469
 12
3.78766
 22
0.30223
 32
-3.93163
 13
4.20983
 23
0.30223
 33
-3.64769
  0
3DFACE
  8
0
 62
    50
 10
4.49324
 20
0.30223
 30
-4.18143
 11
4.94058
 21
0.30223
 31
-3.71947
 12
4.57986
 22
0.30223
 32
-3.26556
 13
4.20983
 23
0.30223
 33
-3.64769
  0
3DFACE
  8
0
 62
    50
 10
4.94058
 20
0.30223
 30
-3.71947
 11
5.30769
 21
0.30223
 31
-3.15657
 12
4.88353
 22
0.30223
 32
-2.79994
 13
4.57986
 23
0.30223
 33
-3.26556
  0
3DFACE
  8
0
 62
    50
 10
5.30769
 20
0.30223
 30
-3.15657
 11
5.58048
 21
0.30223
 31
-2.51436
 12
5.10918
 22
0.30223
 32
-2.26871
 13
4.88353
 23
0.30223
 33
-2.79994
  0
3DFACE
  8
0
 62
    50
 10
5.58048
 20
0.30223
 30
-2.51436
 11
5.74847
 21
0.30223
 31
-1.81753
 12
5.24814
 22
0.30223
 32
-1.6923
 13
5.10918
 23
0.30223
 33
-2.26871
  0
3DFACE
  8
0
 62
    50
 10
5.74847
 20
0.30223
 30
-1.81753
 11
5.80519
 21
0.30223
 31
-1.09285
 12
5.29506
 22
0.30223
 32
-1.09285
 13
5.24814
 23
0.30223
 33
-1.6923
  0
3DFACE
  8
0
 62
    50
 10
5.74847
 20
0.30223
 30
-0.368163
 11
5.80519
 21
0.30223
 31
-1.09285
 12
5.29506
 22
0.30223
 32
-1.09285
 13
5.24814
 23
0.30223
 33
-0.493396
  0
3DFACE
  8
0
 62
    50
 10
5.74847
 20
0.30223
 30
-0.368163
 11
5.58048
 21
0.30223
 31
0.328671
 12
5.10918
 22
0.30223
 32
0.083018
 13
5.24814
 23
0.30223
 33
-0.493396
  0
3DFACE
  8
0
 62
    50
 10
5.58048
 20
0.30223
 30
0.328671
 11
5.30769
 21
0.30223
 31
0.970877
 12
4.88353
 22
0.30223
 32
0.614244
 13
5.10918
 23
0.30223
 33
0.083018
  0
3DFACE
  8
0
 62
    50
 10
5.30769
 20
0.30223
 30
0.970877
 11
4.94058
 21
0.30223
 31
1.53377
 12
4.57986
 22
0.30223
 32
1.07987
 13
4.88353
 23
0.30223
 33
0.614244
  0
3DFACE
  8
0
 62
    50
 10
0
 20
0
 30
-19.0822
 11
0.993864
 21
0.203848
 31
-18.9498
 12
1.14761
 22
0
 32
-18.9498
 13
1.14761
 23
0
 33
-18.9498
  0
3DFACE
  8
0
 62
    50
 10
1.14761
 20
0
 30
-18.9498
 11
0.993864
 21
0.203848
 31
-18.9498
 12
1.83642
 22
0.376663
 32
-18.5725
 13
2.12052
 23
0
 33
-18.5725
  0
3DFACE
  8
0
 62
    50
 10
2.12052
 20
0
 30
-18.5725
 11
1.83642
 21
0.376663
 31
-18.5725
 12
2.3994
 22
0.492133
 32
-18.0079
 13
2.77059
 23
0
 33
-18.0079
  0
3DFACE
  8
0
 62
    50
 10
2.77059
 20
0
 30
-18.0079
 11
2.3994
 21
0.492133
 31
-18.0079
 12
2.59709
 22
0.532681
 32
-17.342
 13
2.99886
 23
0
 33
-17.342
  0
3DFACE
  8
0
 62
    50
 10
2.99886
 20
0
 30
-17.342
 11
2.59709
 21
0.532681
 31
-17.342
 12
2.3994
 22
0.492133
 32
-16.676
 13
2.77059
 23
0
 33
-16.676
  0
3DFACE
  8
0
 62
    50
 10
1.83642
 20
0.376663
 30
-16.1114
 11
2.12052
 21
0
 31
-16.1114
 12
2.77059
 22
0
 32
-16.676
 13
2.3994
 23
0.492133
 33
-16.676
  0
3DFACE
  8
0
 62
    50
 10
2.12052
 20
0
 30
-16.1114
 11
1.83642
 21
0.376663
 31
-16.1114
 12
0.993864
 22
0.203848
 32
-15.7342
 13
1.14761
 23
0
 33
-15.7342
  0
3DFACE
  8
0
 62
    50
 10
1.14761
 20
0
 30
-15.7342
 11
0.993864
 21
0.203848
 31
-15.7342
 12
0
 22
0
 32
-15.6017
 13
0
 23
0
 33
-15.6017
  0
3DFACE
  8
0
 62
    50
 10
0.993864
 20
0.203848
 30
-15.7342
 11
0.573807
 21
0.353076
 31
-15.7342
 12
0
 22
0
 32
-15.6017
 13
0
 23
0
 33
-15.6017
  0
3DFACE
  8
0
 62
    50
 10
1.83642
 20
0.376663
 30
-16.1114
 11
1.06026
 21
0.652399
 31
-16.1114
 12
0.573807
 22
0.353076
 32
-15.7342
 13
0.993864
 23
0.203848
 33
-15.7342
  0
3DFACE
  8
0
 62
    50
 10
2.3994
 20
0.492133
 30
-16.676
 11
1.38529
 21
0.8524
 31
-16.676
 12
1.06026
 22
0.652399
 32
-16.1114
 13
1.83642
 23
0.376663
 33
-16.1114
  0
3DFACE
  8
0
 62
    50
 10
2.59709
 20
0.532681
 30
-17.342
 11
1.49943
 21
0.922631
 31
-17.342
 12
1.38529
 22
0.8524
 32
-16.676
 13
2.3994
 23
0.492133
 33
-16.676
  0
3DFACE
  8
0
 62
    50
 10
2.3994
 20
0.492133
 30
-18.0079
 11
1.38529
 21
0.8524
 31
-18.0079
 12
1.49943
 22
0.922631
 32
-17.342
 13
2.59709
 23
0.532681
 33
-17.342
  0
3DFACE
  8
0
 62
    50
 10
1.83642
 20
0.376663
 30
-18.5725
 11
1.06026
 21
0.652399
 31
-18.5725
 12
1.38529
 22
0.8524
 32
-18.0079
 13
2.3994
 23
0.492133
 33
-18.0079
  0
3DFACE
  8
0
 62
    50
 10
0.993864
 20
0.203848
 30
-18.9498
 11
0.573808
 21
0.353076
 31
-18.9498
 12
1.06026
 22
0.652399
 32
-18.5725
 13
1.83642
 23
0.376663
 33
-18.5725
  0
3DFACE
  8
0
 62
    50
 10
0
 20
0
 30
-19.0822
 11
0.573808
 21
0.353076
 31
-18.9498
 12
0.993864
 22
0.203848
 32
-18.9498
 13
0.993864
 23
0.203848
 33
-18.9498
  0
3DFACE
  8
0
 62
    50
 10
0
 20
0
 30
-19.0822
 11
0
 21
0.407697
 31
-18.9498
 12
0.573808
 22
0.353076
 32
-18.9498
 13
0.573808
 23
0.353076
 33
-18.9498
  0
3DFACE
  8
0
 62
    50
 10
0.573808
 20
0.353076
 30
-18.9498
 11
0
 21
0.407697
 31
-18.9498
 12
0
 22
0.753325
 32
-18.5725
 13
1.06026
 23
0.652399
 33
-18.5725
  0
3DFACE
  8
0
 62
    50
 10
1.06026
 20
0.652399
 30
-18.5725
 11
0
 21
0.753325
 31
-18.5725
 12
0
 22
0.984267
 32
-18.0079
 13
1.38529
 23
0.8524
 33
-18.0079
  0
3DFACE
  8
0
 62
    50
 10
1.38529
 20
0.8524
 30
-18.0079
 11
0
 21
0.984267
 31
-18.0079
 12
0
 22
1.06536
 32
-17.342
 13
1.49943
 23
0.922631
 33
-17.342
  0
3DFACE
  8
0
 62
    50
 10
1.49943
 20
0.922631
 30
-17.342
 11
0
 21
1.06536
 31
-17.342
 12
0
 22
0.984267
 32
-16.676
 13
1.38529
 23
0.8524
 33
-16.676
  0
3DFACE
  8
0
 62
    50
 10
1.38529
 20
0.8524
 30
-16.676
 11
0
 21
0.984267
 31
-16.676
 12
0
 22
0.753325
 32
-16.1114
 13
1.06026
 23
0.652399
 33
-16.1114
  0
3DFACE
  8
0
 62
    50
 10
1.06026
 20
0.652399
 30
-16.1114
 11
0
 21
0.753325
 31
-16.1114
 12
0
 22
0.407697
 32
-15.7342
 13
0.573807
 23
0.353076
 33
-15.7342
  0
3DFACE
  8
0
 62
    50
 10
0.573807
 20
0.353076
 30
-15.7342
 11
0
 21
0.407697
 31
-15.7342
 12
0
 22
0
 32
-15.6017
 13
0
 23
0
 33
-15.6017
  0
3DFACE
  8
0
 62
    50
 10
0
 20
0.407697
 30
-15.7342
 11
-0.573808
 21
0.353076
 31
-15.7342
 12
0
 22
0
 32
-15.6017
 13
0
 23
0
 33
-15.6017
  0
3DFACE
  8
0
 62
    50
 10
0
 20
0.753325
 30
-16.1114
 11
-1.06026
 21
0.652399
 31
-16.1114
 12
-0.573808
 22
0.353076
 32
-15.7342
 13
0
 23
0.407697
 33
-15.7342
  0
3DFACE
  8
0
 62
    50
 10
0
 20
0.984267
 30
-16.676
 11
-1.38529
 21
0.8524
 31
-16.676
 12
-1.06026
 22
0.652399
 32
-16.1114
 13
0
 23
0.753325
 33
-16.1114
  0
3DFACE
  8
0
 62
    50
 10
0
 20
1.06536
 30
-17.342
 11
-1.49943
 21
0.922631
 31
-17.342
 12
-1.38529
 22
0.8524
 32
-16.676
 13
0
 23
0.984267
 33
-16.676
  0
3DFACE
  8
0
 62
    50
 10
0
 20
0.984267
 30
-18.0079
 11
-1.38529
 21
0.8524
 31
-18.0079
 12
-1.49943
 22
0.922631
 32
-17.342
 13
0
 23
1.06536
 33
-17.342
  0
3DFACE
  8
0
 62
    50
 10
0
 20
0.753325
 30
-18.5725
 11
-1.06026
 21
0.652399
 31
-18.5725
 12
-1.38529
 22
0.8524
 32
-18.0079
 13
0
 23
0.984267
 33
-18.0079
  0
3DFACE
  8
0
 62
    50
 10
0
 20
0.407697
 30
-18.9498
 11
-0.573808
 21
0.353076
 31
-18.9498
 12
-1.06026
 22
0.652399
 32
-18.5725
 13
0
 23
0.753325
 33
-18.5725
  0
3DFACE
  8
0
 62
    50
 10
0
 20
0
 30
-19.0822
 11
-0.573808
 21
0.353076
 31
-18.9498
 12
0
 22
0.407697
 32
-18.9498
 13
0
 23
0.407697
 33
-18.9498
  0
3DFACE
  8
0
 62
    50
 10
0
 20
0
 30
-19.0822
 11
-0.993864
 21
0.203848
 31
-18.9498
 12
-0.573808
 22
0.353076
 32
-18.9498
 13
-0.573808
 23
0.353076
 33
-18.9498
  0
3DFACE
  8
0
 62
    50
 10
-0.573808
 20
0.353076
 30
-18.9498
 11
-0.993864
 21
0.203848
 31
-18.9498
 12
-1.83642
 22
0.376663
 32
-18.5725
 13
-1.06026
 23
0.652399
 33
-18.5725
  0
3DFACE
  8
0
 62
    50
 10
-1.06026
 20
0.652399
 30
-18.5725
 11
-1.83642
 21
0.376663
 31
-18.5725
 12
-2.3994
 22
0.492133
 32
-18.0079
 13
-1.38529
 23
0.8524
 33
-18.0079
  0
3DFACE
  8
0
 62
    50
 10
-1.38529
 20
0.8524
 30
-18.0079
 11
-2.3994
 21
0.492133
 31
-18.0079
 12
-2.59709
 22
0.532681
 32
-17.342
 13
-1.49943
 23
0.922631
 33
-17.342
  0
3DFACE
  8
0
 62
    50
 10
-1.49943
 20
0.922631
 30
-17.342
 11
-2.59709
 21
0.532681
 31
-17.342
 12
-2.3994
 22
0.492133
 32
-16.676
 13
-1.38529
 23
0.8524
 33
-16.676
  0
3DFACE
  8
0
 62
    50
 10
-1.38529
 20
0.8524
 30
-16.676
 11
-2.3994
 21
0.492133
 31
-16.676
 12
-1.83642
 22
0.376663
 32
-16.1114
 13
-1.06026
 23
0.652399
 33
-16.1114
  0
3DFACE
  8
0
 62
    50
 10
-1.06026
 20
0.652399
 30
-16.1114
 11
-1.83642
 21
0.376663
 31
-16.1114
 12
-0.993864
 22
0.203848
 32
-15.7342
 13
-0.573808
 23
0.353076
 33
-15.7342
  0
3DFACE
  8
0
 62
    50
 10
-0.573808
 20
0.353076
 30
-15.7342
 11
-0.993864
 21
0.203848
 31
-15.7342
 12
0
 22
0
 32
-15.6017
 13
0
 23
0
 33
-15.6017
  0
3DFACE
  8
0
 62
    50
 10
-0.993864
 20
0.203848
 30
-15.7342
 11
-1.14761
 21
0
 31
-15.7342
 12
0
 22
0
 32
-15.6017
 13
0
 23
0
 33
-15.6017
  0
3DFACE
  8
0
 62
    50
 10
-1.83642
 20
0.376663
 30
-16.1114
 11
-2.12052
 21
0
 31
-16.1114
 12
-1.14761
 22
0
 32
-15.7342
 13
-0.993864
 23
0.203848
 33
-15.7342
  0
3DFACE
  8
0
 62
    50
 10
-2.3994
 20
0.492133
 30
-16.676
 11
-2.77059
 21
0
 31
-16.676
 12
-2.12052
 22
0
 32
-16.1114
 13
-1.83642
 23
0.376663
 33
-16.1114
  0
3DFACE
  8
0
 62
    50
 10
-2.59709
 20
0.532681
 30
-17.342
 11
-2.99886
 21
0
 31
-17.342
 12
-2.77059
 22
0
 32
-16.676
 13
-2.3994
 23
0.492133
 33
-16.676
  0
3DFACE
  8
0
 62
    50
 10
-2.3994
 20
0.492133
 30
-18.0079
 11
-2.77059
 21
0
 31
-18.0079
 12
-2.99886
 22
0
 32
-17.342
 13
-2.59709
 23
0.532681
 33
-17.342
  0
3DFACE
  8
0
 62
    50
 10
-1.83642
 20
0.376663
 30
-18.5725
 11
-2.12052
 21
0
 31
-18.5725
 12
-2.77059
 22
0
 32
-18.0079
 13
-2.3994
 23
0.492133
 33
-18.0079
  0
3DFACE
  8
0
 62
    50
 10
-0.993864
 20
0.203848
 30
-18.9498
 11
-1.14761
 21
0
 31
-18.9498
 12
-2.12052
 22
0
 32
-18.5725
 13
-1.83642
 23
0.376663
 33
-18.5725
  0
3DFACE
  8
0
 62
    50
 10
0
 20
0
 30
-19.0822
 11
-1.14761
 21
0
 31
-18.9498
 12
-0.993864
 22
0.203848
 32
-18.9498
 13
-0.993864
 23
0.203848
 33
-18.9498
  0
3DFACE
  8
0
 62
    50
 10
0
 20
0
 30
-19.0822
 11
-0.993864
 21
-0.203848
 31
-18.9498
 12
-1.14761
 22
0
 32
-18.9498
 13
-1.14761
 23
0
 33
-18.9498
  0
3DFACE
  8
0
 62
    50
 10
-1.14761
 20
0
 30
-18.9498
 11
-0.993864
 21
-0.203848
 31
-18.9498
 12
-1.83642
 22
-0.376663
 32
-18.5725
 13
-2.12052
 23
0
 33
-18.5725
  0
3DFACE
  8
0
 62
    50
 10
-2.12052
 20
0
 30
-18.5725
 11
-1.83642
 21
-0.376663
 31
-18.5725
 12
-2.3994
 22
-0.492133
 32
-18.0079
 13
-2.77059
 23
0
 33
-18.0079
  0
3DFACE
  8
0
 62
    50
 10
-2.77059
 20
0
 30
-18.0079
 11
-2.3994
 21
-0.492133
 31
-18.0079
 12
-2.59709
 22
-0.532681
 32
-17.342
 13
-2.99886
 23
0
 33
-17.342
  0
3DFACE
  8
0
 62
    50
 10
-2.99886
 20
0
 30
-17.342
 11
-2.59709
 21
-0.532681
 31
-17.342
 12
-2.3994
 22
-0.492133
 32
-16.676
 13
-2.77059
 23
0
 33
-16.676
  0
3DFACE
  8
0
 62
    50
 10
-2.77059
 20
0
 30
-16.676
 11
-2.3994
 21
-0.492133
 31
-16.676
 12
-1.83642
 22
-0.376663
 32
-16.1114
 13
-2.12052
 23
0
 33
-16.1114
  0
3DFACE
  8
0
 62
    50
 10
-2.12052
 20
0
 30
-16.1114
 11
-1.83642
 21
-0.376663
 31
-16.1114
 12
-0.993864
 22
-0.203848
 32
-15.7342
 13
-1.14761
 23
0
 33
-15.7342
  0
3DFACE
  8
0
 62
    50
 10
-1.14761
 20
0
 30
-15.7342
 11
-0.993864
 21
-0.203848
 31
-15.7342
 12
0
 22
0
 32
-15.6017
 13
0
 23
0
 33
-15.6017
  0
3DFACE
  8
0
 62
    50
 10
-0.993864
 20
-0.203848
 30
-15.7342
 11
-0.573807
 21
-0.353076
 31
-15.7342
 12
0
 22
0
 32
-15.6017
 13
0
 23
0
 33
-15.6017
  0
3DFACE
  8
0
 62
    50
 10
-1.83642
 20
-0.376663
 30
-16.1114
 11
-1.06026
 21
-0.652399
 31
-16.1114
 12
-0.573807
 22
-0.353076
 32
-15.7342
 13
-0.993864
 23
-0.203848
 33
-15.7342
  0
3DFACE
  8
0
 62
    50
 10
-2.3994
 20
-0.492133
 30
-16.676
 11
-1.38529
 21
-0.8524
 31
-16.676
 12
-1.06026
 22
-0.652399
 32
-16.1114
 13
-1.83642
 23
-0.376663
 33
-16.1114
  0
3DFACE
  8
0
 62
    50
 10
-2.59709
 20
-0.532681
 30
-17.342
 11
-1.49943
 21
-0.922631
 31
-17.342
 12
-1.38529
 22
-0.8524
 32
-16.676
 13
-2.3994
 23
-0.492133
 33
-16.676
  0
3DFACE
  8
0
 62
    50
 10
-2.3994
 20
-0.492133
 30
-18.0079
 11
-1.38529
 21
-0.8524
 31
-18.0079
 12
-1.49943
 22
-0.922631
 32
-17.342
 13
-2.59709
 23
-0.532681
 33
-17.342
  0
3DFACE
  8
0
 62
    50
 10
-1.83642
 20
-0.376663
 30
-18.5725
 11
-1.06026
 21
-0.652399
 31
-18.5725
 12
-1.38529
 22
-0.8524
 32
-18.0079
 13
-2.3994
 23
-0.492133
 33
-18.0079
  0
3DFACE
  8
0
 62
    50
 10
-0.993864
 20
-0.203848
 30
-18.9498
 11
-0.573807
 21
-0.353076
 31
-18.9498
 12
-1.06026
 22
-0.652399
 32
-18.5725
 13
-1.83642
 23
-0.376663
 33
-18.5725
  0
3DFACE
  8
0
 62
    50
 10
0
 20
0
 30
-19.0822
 11
-0.573807
 21
-0.353076
 31
-18.9498
 12
-0.993864
 22
-0.203848
 32
-18.9498
 13
-0.993864
 23
-0.203848
 33
-18.9498
  0
3DFACE
  8
0
 62
    50
 10
0
 20
0
 30
-19.0822
 11
0
 21
-0.407697
 31
-18.9498
 12
-0.573807
 22
-0.353076
 32
-18.9498
 13
-0.573807
 23
-0.353076
 33
-18.9498
  0
3DFACE
  8
0
 62
    50
 10
-0.573807
 20
-0.353076
 30
-18.9498
 11
0
 21
-0.407697
 31
-18.9498
 12
0
 22
-0.753325
 32
-18.5725
 13
-1.06026
 23
-0.652399
 33
-18.5725
  0
3DFACE
  8
0
 62
    50
 10
-1.06026
 20
-0.652399
 30
-18.5725
 11
0
 21
-0.753325
 31
-18.5725
 12
0
 22
-0.984267
 32
-18.0079
 13
-1.38529
 23
-0.8524
 33
-18.0079
  0
3DFACE
  8
0
 62
    50
 10
-1.38529
 20
-0.8524
 30
-18.0079
 11
0
 21
-0.984267
 31
-18.0079
 12
0
 22
-1.06536
 32
-17.342
 13
-1.49943
 23
-0.922631
 33
-17.342
  0
3DFACE
  8
0
 62
    50
 10
-1.49943
 20
-0.922631
 30
-17.342
 11
0
 21
-1.06536
 31
-17.342
 12
0
 22
-0.984267
 32
-16.676
 13
-1.38529
 23
-0.8524
 33
-16.676
  0
3DFACE
  8
0
 62
    50
 10
-1.38529
 20
-0.8524
 30
-16.676
 11
0
 21
-0.984267
 31
-16.676
 12
0
 22
-0.753325
 32
-16.1114
 13
-1.06026
 23
-0.652399
 33
-16.1114
  0
3DFACE
  8
0
 62
    50
 10
-1.06026
 20
-0.652399
 30
-16.1114
 11
0
 21
-0.753325
 31
-16.1114
 12
0
 22
-0.407697
 32
-15.7342
 13
-0.573807
 23
-0.353076
 33
-15.7342
  0
3DFACE
  8
0
 62
    50
 10
-0.573807
 20
-0.353076
 30
-15.7342
 11
0
 21
-0.407697
 31
-15.7342
 12
0
 22
0
 32
-15.6017
 13
0
 23
0
 33
-15.6017
  0
3DFACE
  8
0
 62
    50
 10
0
 20
-0.407697
 30
-15.7342
 11
0.573807
 21
-0.353076
 31
-15.7342
 12
0
 22
0
 32
-15.6017
 13
0
 23
0
 33
-15.6017
  0
3DFACE
  8
0
 62
    50
 10
0
 20
-0.753325
 30
-16.1114
 11
1.06026
 21
-0.652399
 31
-16.1114
 12
0.573807
 22
-0.353076
 32
-15.7342
 13
0
 23
-0.407697
 33
-15.7342
  0
3DFACE
  8
0
 62
    50
 10
0
 20
-0.984267
 30
-16.676
 11
1.38529
 21
-0.8524
 31
-16.676
 12
1.06026
 22
-0.652399
 32
-16.1114
 13
0
 23
-0.753325
 33
-16.1114
  0
3DFACE
  8
0
 62
    50
 10
0
 20
-1.06536
 30
-17.342
 11
1.49943
 21
-0.922631
 31
-17.342
 12
1.38529
 22
-0.8524
 32
-16.676
 13
0
 23
-0.984267
 33
-16.676
  0
3DFACE
  8
0
 62
    50
 10
0
 20
-0.984267
 30
-18.0079
 11
1.38529
 21
-0.8524
 31
-18.0079
 12
1.49943
 22
-0.922631
 32
-17.342
 13
0
 23
-1.06536
 33
-17.342
  0
3DFACE
  8
0
 62
    50
 10
0
 20
-0.753325
 30
-18.5725
 11
1.06026
 21
-0.652399
 31
-18.5725
 12
1.38529
 22
-0.8524
 32
-18.0079
 13
0
 23
-0.984267
 33
-18.0079
  0
3DFACE
  8
0
 62
    50
 10
0
 20
-0.407697
 30
-18.9498
 11
0.573808
 21
-0.353076
 31
-18.9498
 12
1.06026
 22
-0.652399
 32
-18.5725
 13
0
 23
-0.753325
 33
-18.5725
  0
3DFACE
  8
0
 62
    50
 10
0
 20
0
 30
-19.0822
 11
0.573808
 21
-0.353076
 31
-18.9498
 12
0
 22
-0.407697
 32
-18.9498
 13
0
 23
-0.407697
 33
-18.9498
  0
3DFACE
  8
0
 62
    50
 10
0
 20
0
 30
-19.0822
 11
0.993864
 21
-0.203848
 31
-18.9498
 12
0.573808
 22
-0.353076
 32
-18.9498
 13
0.573808
 23
-0.353076
 33
-18.9498
  0
3DFACE
  8
0
 62
    50
 10
0.573808
 20
-0.353076
 30
-18.9498
 11
0.993864
 21
-0.203848
 31
-18.9498
 12
1.83642
 22
-0.376663
 32
-18.5725
 13
1.06026
 23
-0.652399
 33
-18.5725
  0
3DFACE
  8
0
 62
    50
 10
1.06026
 20
-0.652399
 30
-18.5725
 11
1.83642
 21
-0.376663
 31
-18.5725
 12
2.3994
 22
-0.492133
 32
-18.0079
 13
1.38529
 23
-0.8524
 33
-18.0079
  0
3DFACE
  8
0
 62
    50
 10
1.38529
 20
-0.8524
 30
-18.0079
 11
2.3994
 21
-0.492133
 31
-18.0079
 12
2.59709
 22
-0.532681
 32
-17.342
 13
1.49943
 23
-0.922631
 33
-17.342
  0
3DFACE
  8
0
 62
    50
 10
1.49943
 20
-0.922631
 30
-17.342
 11
2.59709
 21
-0.532681
 31
-17.342
 12
2.3994
 22
-0.492133
 32
-16.676
 13
1.38529
 23
-0.8524
 33
-16.676
  0
3DFACE
  8
0
 62
    50
 10
1.38529
 20
-0.8524
 30
-16.676
 11
2.3994
 21
-0.492133
 31
-16.676
 12
1.83642
 22
-0.376663
 32
-16.1114
 13
1.06026
 23
-0.652399
 33
-16.1114
  0
3DFACE
  8
0
 62
    50
 10
1.06026
 20
-0.652399
 30
-16.1114
 11
1.83642
 21
-0.376663
 31
-16.1114
 12
0.993864
 22
-0.203848
 32
-15.7342
 13
0.573807
 23
-0.353076
 33
-15.7342
  0
3DFACE
  8
0
 62
    50
 10
0.573807
 20
-0.353076
 30
-15.7342
 11
0.993864
 21
-0.203848
 31
-15.7342
 12
0
 22
0
 32
-15.6017
 13
0
 23
0
 33
-15.6017
  0
3DFACE
  8
0
 62
    50
 10
0.993864
 20
-0.203848
 30
-15.7342
 11
1.14761
 21
0
 31
-15.7342
 12
0
 22
0
 32
-15.6017
 13
0
 23
0
 33
-15.6017
  0
3DFACE
  8
0
 62
    50
 10
1.83642
 20
-0.376663
 30
-16.1114
 11
2.12052
 21
0
 31
-16.1114
 12
1.14761
 22
0
 32
-15.7342
 13
0.993864
 23
-0.203848
 33
-15.7342
  0
3DFACE
  8
0
 62
    50
 10
2.12052
 20
0
 30
-16.1114
 11
1.83642
 21
-0.376663
 31
-16.1114
 12
2.3994
 22
-0.492133
 32
-16.676
 13
2.77059
 23
0
 33
-16.676
  0
3DFACE
  8
0
 62
    50
 10
2.59709
 20
-0.532681
 30
-17.342
 11
2.99886
 21
0
 31
-17.342
 12
2.77059
 22
0
 32
-16.676
 13
2.3994
 23
-0.492133
 33
-16.676
  0
3DFACE
  8
0
 62
    50
 10
2.3994
 20
-0.492133
 30
-18.0079
 11
2.77059
 21
0
 31
-18.0079
 12
2.99886
 22
0
 32
-17.342
 13
2.59709
 23
-0.532681
 33
-17.342
  0
3DFACE
  8
0
 62
    50
 10
1.83642
 20
-0.376663
 30
-18.5725
 11
2.12052
 21
0
 31
-18.5725
 12
2.77059
 22
0
 32
-18.0079
 13
2.3994
 23
-0.492133
 33
-18.0079
  0
3DFACE
  8
0
 62
    50
 10
0.993864
 20
-0.203848
 30
-18.9498
 11
1.14761
 21
0
 31
-18.9498
 12
2.12052
 22
0
 32
-18.5725
 13
1.83642
 23
-0.376663
 33
-18.5725
  0
3DFACE
  8
0
 62
    50
 10
0
 20
0
 30
-19.0822
 11
1.14761
 21
0
 31
-18.9498
 12
0.993864
 22
-0.203848
 32
-18.9498
 13
0.993864
 23
-0.203848
 33
-18.9498
  0
ENDBLK
  8
0
  0
BLOCK
  8
Meshes
  2
BlueNote
 70
    64
 10
0
 20
0
 30
0
  3
BlueNote
  0
3DFACE
  8
0
 62
   170
 10
2.81089
 20
0.355072
 30
-17.4296
 11
2.8109
 21
0.355072
 31
2.62652
 12
2.87321
 22
0.279145
 32
2.62652
 13
2.87321
 23
0.279145
 33
-17.4296
  0
3DFACE
  8
0
 62
   170
 10
2.87321
 20
0.279145
 30
-17.4296
 11
2.87321
 21
0.279145
 31
2.62652
 12
2.91951
 22
0.19252
 32
2.62652
 13
2.91951
 23
0.192521
 33
-17.4296
  0
3DFACE
  8
0
 62
   170
 10
2.91951
 20
0.192521
 30
-17.4296
 11
2.91951
 21
0.19252
 31
2.62652
 12
2.94802
 22
0.098527
 32
2.62652
 13
2.94802
 23
0.098528
 33
-17.4296
  0
3DFACE
  8
0
 62
   170
 10
2.94802
 20
0.098528
 30
-17.4296
 11
2.94802
 21
0.098527
 31
2.62652
 12
2.95765
 22
0.000778
 32
2.62652
 13
2.95765
 23
0.000779
 33
-17.4296
  0
3DFACE
  8
0
 62
   170
 10
2.95765
 20
0.000779
 30
-17.4296
 11
2.95765
 21
0.000778
 31
2.62652
 12
2.94802
 22
-0.096971
 32
2.62652
 13
2.94802
 23
-0.09697
 33
-17.4296
  0
3DFACE
  8
0
 62
   170
 10
2.94802
 20
-0.09697
 30
-17.4296
 11
2.94802
 21
-0.096971
 31
2.62652
 12
2.91951
 22
-0.190963
 32
2.62652
 13
2.91951
 23
-0.190963
 33
-17.4296
  0
3DFACE
  8
0
 62
   170
 10
2.91951
 20
-0.190963
 30
-17.4296
 11
2.91951
 21
-0.190963
 31
2.62652
 12
2.87321
 22
-0.277587
 32
2.62652
 13
2.87321
 23
-0.277587
 33
-17.4296
  0
3DFACE
  8
0
 62
   170
 10
2.87321
 20
-0.277587
 30
-17.4296
 11
2.87321
 21
-0.277587
 31
2.62652
 12
2.81089
 22
-0.353514
 32
2.62652
 13
2.81089
 23
-0.353514
 33
-17.4296
  0
3DFACE
  8
0
 62
   170
 10
2.81089
 20
-0.353514
 30
-17.4296
 11
2.81089
 21
-0.353514
 31
2.62652
 12
2.73497
 22
-0.415825
 32
2.62652
 13
2.73497
 23
-0.415825
 33
-17.4296
  0
3DFACE
  8
0
 62
   170
 10
2.73497
 20
-0.415825
 30
-17.4296
 11
2.73497
 21
-0.415825
 31
2.62652
 12
2.64834
 22
-0.462127
 32
2.62652
 13
2.64834
 23
-0.462127
 33
-17.4296
  0
3DFACE
  8
0
 62
   170
 10
2.64834
 20
-0.462127
 30
-17.4296
 11
2.64834
 21
-0.462127
 31
2.62652
 12
2.55435
 22
-0.490639
 32
2.62652
 13
2.55435
 23
-0.490639
 33
-17.4296
  0
3DFACE
  8
0
 62
   170
 10
2.55435
 20
-0.490639
 30
-17.4296
 11
2.55435
 21
-0.490639
 31
2.62652
 12
2.4566
 22
-0.500267
 32
2.62652
 13
2.4566
 23
-0.500267
 33
-17.4296
  0
3DFACE
  8
0
 62
   170
 10
2.4566
 20
-0.500267
 30
-17.4296
 11
2.4566
 21
-0.500267
 31
2.62652
 12
2.35885
 22
-0.490639
 32
2.62652
 13
2.35885
 23
-0.490639
 33
-17.4296
  0
3DFACE
  8
0
 62
   170
 10
2.35885
 20
-0.490639
 30
-17.4296
 11
2.35885
 21
-0.490639
 31
2.62652
 12
2.26486
 22
-0.462127
 32
2.62652
 13
2.26486
 23
-0.462127
 33
-17.4296
  0
3DFACE
  8
0
 62
   170
 10
2.26486
 20
-0.462127
 30
-17.4296
 11
2.26486
 21
-0.462127
 31
2.62652
 12
2.17824
 22
-0.415826
 32
2.62652
 13
2.17824
 23
-0.415825
 33
-17.4296
  0
3DFACE
  8
0
 62
   170
 10
2.17824
 20
-0.415825
 30
-17.4296
 11
2.17824
 21
-0.415826
 31
2.62652
 12
2.10231
 22
-0.353515
 32
2.62652
 13
2.10231
 23
-0.353514
 33
-17.4296
  0
3DFACE
  8
0
 62
   170
 10
2.10231
 20
-0.353514
 30
-17.4296
 11
2.10231
 21
-0.353515
 31
2.62652
 12
2.04
 22
-0.277588
 32
2.62652
 13
2.04
 23
-0.277587
 33
-17.4296
  0
3DFACE
  8
0
 62
   170
 10
2.04
 20
-0.277587
 30
-17.4296
 11
2.04
 21
-0.277588
 31
2.62652
 12
1.9937
 22
-0.190964
 32
2.62652
 13
1.9937
 23
-0.190962
 33
-17.4296
  0
3DFACE
  8
0
 62
   170
 10
1.9937
 20
-0.190962
 30
-17.4296
 11
1.9937
 21
-0.190964
 31
2.62652
 12
1.96518
 22
-0.096972
 32
2.62652
 13
1.96518
 23
-0.09697
 33
-17.4296
  0
3DFACE
  8
0
 62
   170
 10
1.96518
 20
-0.09697
 30
-17.4296
 11
1.96518
 21
-0.096972
 31
2.62652
 12
1.95556
 22
0.000777
 32
2.62652
 13
1.95556
 23
0.00078
 33
-17.4296
  0
3DFACE
  8
0
 62
   170
 10
1.95556
 20
0.00078
 30
-17.4296
 11
1.95556
 21
0.000777
 31
2.62652
 12
1.96518
 22
0.098526
 32
2.62652
 13
1.96518
 23
0.098529
 33
-17.4296
  0
3DFACE
  8
0
 62
   170
 10
1.96518
 20
0.098529
 30
-17.4296
 11
1.96518
 21
0.098526
 31
2.62652
 12
1.9937
 22
0.192519
 32
2.62652
 13
1.9937
 23
0.192522
 33
-17.4296
  0
3DFACE
  8
0
 62
   170
 10
1.9937
 20
0.192522
 30
-17.4296
 11
1.9937
 21
0.192519
 31
2.62652
 12
2.04
 22
0.279143
 32
2.62652
 13
2.04
 23
0.279146
 33
-17.4296
  0
3DFACE
  8
0
 62
   170
 10
2.04
 20
0.279146
 30
-17.4296
 11
2.04
 21
0.279143
 31
2.62652
 12
2.10231
 22
0.35507
 32
2.62652
 13
2.10231
 23
0.355073
 33
-17.4296
  0
3DFACE
  8
0
 62
   170
 10
2.10231
 20
0.355073
 30
-17.4296
 11
2.10231
 21
0.35507
 31
2.62652
 12
2.17823
 22
0.417382
 32
2.62652
 13
2.17824
 23
0.417384
 33
-17.4296
  0
3DFACE
  8
0
 62
   170
 10
2.17824
 20
0.417384
 30
-17.4296
 11
2.17823
 21
0.417382
 31
2.62652
 12
2.26486
 22
0.463684
 32
2.62652
 13
2.26486
 23
0.463686
 33
-17.4296
  0
3DFACE
  8
0
 62
   170
 10
2.26486
 20
0.463686
 30
-17.4296
 11
2.26486
 21
0.463684
 31
2.62652
 12
2.35885
 22
0.492197
 32
2.62652
 13
2.35885
 23
0.492198
 33
-17.4296
  0
3DFACE
  8
0
 62
   170
 10
2.35885
 20
0.492198
 30
-17.4296
 11
2.35885
 21
0.492197
 31
2.62652
 12
2.4566
 22
0.501825
 32
2.62652
 13
2.4566
 23
0.501825
 33
-17.4296
  0
3DFACE
  8
0
 62
   170
 10
2.4566
 20
0.501825
 30
-17.4296
 11
2.4566
 21
0.501825
 31
2.62652
 12
2.55435
 22
0.492199
 32
2.62652
 13
2.55435
 23
0.492198
 33
-17.4296
  0
3DFACE
  8
0
 62
   170
 10
2.55435
 20
0.492198
 30
-17.4296
 11
2.55435
 21
0.492199
 31
2.62652
 12
2.64834
 22
0.463687
 32
2.62652
 13
2.64834
 23
0.463685
 33
-17.4296
  0
3DFACE
  8
0
 62
   170
 10
2.64834
 20
0.463685
 30
-17.4296
 11
2.64834
 21
0.463687
 31
2.62652
 12
2.73497
 22
0.417386
 32
2.62652
 13
2.73497
 23
0.417383
 33
-17.4296
  0
3DFACE
  8
0
 62
   170
 10
2.8109
 20
0.355072
 30
2.62652
 11
2.81089
 21
0.355072
 31
-17.4296
 12
2.73497
 22
0.417383
 32
-17.4296
 13
2.73497
 23
0.417386
 33
2.62652
  0
3DFACE
  8
0
 62
   170
 10
2.4566
 20
0.501825
 30
2.62652
 11
2.35885
 21
0.492197
 31
2.62652
 12
2.64834
 22
0.463687
 32
2.62652
 13
2.55435
 23
0.492199
 33
2.62652
  0
3DFACE
  8
0
 62
   170
 10
2.35885
 20
0.492197
 30
2.62652
 11
2.26486
 21
0.463684
 31
2.62652
 12
2.73497
 22
0.417386
 32
2.62652
 13
2.64834
 23
0.463687
 33
2.62652
  0
3DFACE
  8
0
 62
   170
 10
2.26486
 20
0.463684
 30
2.62652
 11
2.17823
 21
0.417382
 31
2.62652
 12
2.8109
 22
0.355072
 32
2.62652
 13
2.73497
 23
0.417386
 33
2.62652
  0
3DFACE
  8
0
 62
   170
 10
2.17823
 20
0.417382
 30
2.62652
 11
2.10231
 21
0.35507
 31
2.62652
 12
2.87321
 22
0.279145
 32
2.62652
 13
2.8109
 23
0.355072
 33
2.62652
  0
3DFACE
  8
0
 62
   170
 10
2.10231
 20
0.35507
 30
2.62652
 11
2.04
 21
0.279143
 31
2.62652
 12
2.91951
 22
0.19252
 32
2.62652
 13
2.87321
 23
0.279145
 33
2.62652
  0
3DFACE
  8
0
 62
   170
 10
2.04
 20
0.279143
 30
2.62652
 11
1.9937
 21
0.192519
 31
2.62652
 12
2.94802
 22
0.098527
 32
2.62652
 13
2.91951
 23
0.19252
 33
2.62652
  0
3DFACE
  8
0
 62
   170
 10
1.9937
 20
0.192519
 30
2.62652
 11
1.96518
 21
0.098526
 31
2.62652
 12
2.95765
 22
0.000778
 32
2.62652
 13
2.94802
 23
0.098527
 33
2.62652
  0
3DFACE
  8
0
 62
   170
 10
1.96518
 20
0.098526
 30
2.62652
 11
1.95556
 21
0.000777
 31
2.62652
 12
2.94802
 22
-0.096971
 32
2.62652
 13
2.95765
 23
0.000778
 33
2.62652
  0
3DFACE
  8
0
 62
   170
 10
1.95556
 20
0.000777
 30
2.62652
 11
1.96518
 21
-0.096972
 31
2.62652
 12
2.91951
 22
-0.190963
 32
2.62652
 13
2.94802
 23
-0.096971
 33
2.62652
  0
3DFACE
  8
0
 62
   170
 10
1.96518
 20
-0.096972
 30
2.62652
 11
1.9937
 21
-0.190964
 31
2.62652
 12
2.87321
 22
-0.277587
 32
2.62652
 13
2.91951
 23
-0.190963
 33
2.62652
  0
3DFACE
  8
0
 62
   170
 10
1.9937
 20
-0.190964
 30
2.62652
 11
2.04
 21
-0.277588
 31
2.62652
 12
2.81089
 22
-0.353514
 32
2.62652
 13
2.87321
 23
-0.277587
 33
2.62652
  0
3DFACE
  8
0
 62
   170
 10
2.04
 20
-0.277588
 30
2.62652
 11
2.10231
 21
-0.353515
 31
2.62652
 12
2.73497
 22
-0.415825
 32
2.62652
 13
2.81089
 23
-0.353514
 33
2.62652
  0
3DFACE
  8
0
 62
   170
 10
2.10231
 20
-0.353515
 30
2.62652
 11
2.17824
 21
-0.415826
 31
2.62652
 12
2.64834
 22
-0.462127
 32
2.62652
 13
2.73497
 23
-0.415825
 33
2.62652
  0
3DFACE
  8
0
 62
   170
 10
2.17824
 20
-0.415826
 30
2.62652
 11
2.26486
 21
-0.462127
 31
2.62652
 12
2.55435
 22
-0.490639
 32
2.62652
 13
2.64834
 23
-0.462127
 33
2.62652
  0
3DFACE
  8
0
 62
   170
 10
2.26486
 20
-0.462127
 30
2.62652
 11
2.35885
 21
-0.490639
 31
2.62652
 12
2.4566
 22
-0.500267
 32
2.62652
 13
2.55435
 23
-0.490639
 33
2.62652
  0
3DFACE
  8
0
 62
   170
 10
4.49325
 20
-0.29929
 30
1.99573
 11
4.94058
 21
-0.29929
 31
1.53377
 12
4.57986
 22
-0.29929
 32
1.07987
 13
4.20983
 23
-0.29929
 33
1.46199
  0
3DFACE
  8
0
 62
   170
 10
4.49325
 20
-0.29929
 30
1.99573
 11
3.98289
 21
-0.29929
 31
2.339
 12
3.78767
 22
-0.29929
 32
1.74594
 13
4.20983
 23
-0.29929
 33
1.46199
  0
3DFACE
  8
0
 62
   170
 10
3.98289
 20
-0.29929
 30
2.339
 11
3.42912
 21
-0.29929
 31
2.55038
 12
3.32959
 22
-0.29929
 32
1.92079
 13
3.78767
 23
-0.29929
 33
1.74594
  0
3DFACE
  8
0
 62
   170
 10
3.42912
 20
-0.29929
 30
2.55038
 11
2.85321
 21
-0.29929
 31
2.62176
 12
2.85321
 22
-0.29929
 32
1.97984
 13
3.32959
 23
-0.29929
 33
1.92079
  0
3DFACE
  8
0
 62
   170
 10
4.49324
 20
-0.29929
 30
-4.18143
 11
3.98288
 21
-0.29929
 31
-4.52469
 12
3.78766
 22
-0.29929
 32
-3.93163
 13
4.20983
 23
-0.29929
 33
-3.64769
  0
3DFACE
  8
0
 62
   170
 10
4.49324
 20
-0.29929
 30
-4.18143
 11
4.94058
 21
-0.29929
 31
-3.71947
 12
4.57986
 22
-0.29929
 32
-3.26556
 13
4.20983
 23
-0.29929
 33
-3.64769
  0
3DFACE
  8
0
 62
   170
 10
4.94058
 20
-0.29929
 30
-3.71947
 11
5.30769
 21
-0.29929
 31
-3.15657
 12
4.88353
 22
-0.29929
 32
-2.79994
 13
4.57986
 23
-0.29929
 33
-3.26556
  0
3DFACE
  8
0
 62
   170
 10
5.30769
 20
-0.29929
 30
-3.15657
 11
5.58048
 21
-0.29929
 31
-2.51436
 12
5.10918
 22
-0.29929
 32
-2.26871
 13
4.88353
 23
-0.29929
 33
-2.79994
  0
3DFACE
  8
0
 62
   170
 10
5.58048
 20
-0.29929
 30
-2.51436
 11
5.74847
 21
-0.29929
 31
-1.81753
 12
5.24814
 22
-0.29929
 32
-1.6923
 13
5.10918
 23
-0.29929
 33
-2.26871
  0
3DFACE
  8
0
 62
   170
 10
5.74847
 20
-0.29929
 30
-1.81753
 11
5.80519
 21
-0.29929
 31
-1.09285
 12
5.29506
 22
-0.29929
 32
-1.09285
 13
5.24814
 23
-0.29929
 33
-1.6923
  0
3DFACE
  8
0
 62
   170
 10
5.74847
 20
-0.29929
 30
-0.368163
 11
5.80519
 21
-0.29929
 31
-1.09285
 12
5.29506
 22
-0.29929
 32
-1.09285
 13
5.24814
 23
-0.29929
 33
-0.493396
  0
3DFACE
  8
0
 62
   170
 10
5.74847
 20
-0.29929
 30
-0.368163
 11
5.58048
 21
-0.29929
 31
0.328671
 12
5.10918
 22
-0.29929
 32
0.083018
 13
5.24814
 23
-0.29929
 33
-0.493396
  0
3DFACE
  8
0
 62
   170
 10
5.58048
 20
-0.29929
 30
0.328671
 11
5.30769
 21
-0.29929
 31
0.970877
 12
4.88353
 22
-0.29929
 32
0.614244
 13
5.10918
 23
-0.29929
 33
0.083018
  0
3DFACE
  8
0
 62
   170
 10
5.30769
 20
-0.29929
 30
0.970877
 11
4.94058
 21
-0.29929
 31
1.53377
 12
4.57986
 22
-0.29929
 32
1.07987
 13
4.88353
 23
-0.29929
 33
0.614244
  0
3DFACE
  8
0
 62
   170
 10
4.88353
 20
-0.29929
 30
0.614244
 11
4.57986
 21
-0.29929
 31
1.07987
 12
4.57986
 22
0.30223
 32
1.07987
 13
4.88353
 23
0.30223
 33
0.614244
  0
3DFACE
  8
0
 62
   170
 10
5.10918
 20
-0.29929
 30
0.083018
 11
4.88353
 21
-0.29929
 31
0.614244
 12
4.88353
 22
0.30223
 32
0.614244
 13
5.10918
 23
0.30223
 33
0.083018
  0
3DFACE
  8
0
 62
   170
 10
5.24814
 20
-0.29929
 30
-0.493396
 11
5.10918
 21
-0.29929
 31
0.083018
 12
5.10918
 22
0.30223
 32
0.083018
 13
5.24814
 23
0.30223
 33
-0.493396
  0
3DFACE
  8
0
 62
   170
 10
5.24814
 20
-0.29929
 30
-0.493396
 11
5.29506
 21
-0.29929
 31
-1.09285
 12
5.29506
 22
0.30223
 32
-1.09285
 13
5.24814
 23
0.30223
 33
-0.493396
  0
3DFACE
  8
0
 62
   170
 10
5.24814
 20
-0.29929
 30
-1.6923
 11
5.29506
 21
-0.29929
 31
-1.09285
 12
5.29506
 22
0.30223
 32
-1.09285
 13
5.24814
 23
0.30223
 33
-1.6923
  0
3DFACE
  8
0
 62
   170
 10
5.10918
 20
-0.29929
 30
-2.26871
 11
5.24814
 21
-0.29929
 31
-1.6923
 12
5.24814
 22
0.30223
 32
-1.6923
 13
5.10918
 23
0.30223
 33
-2.26871
  0
3DFACE
  8
0
 62
   170
 10
4.88353
 20
-0.29929
 30
-2.79994
 11
5.10918
 21
-0.29929
 31
-2.26871
 12
5.10918
 22
0.30223
 32
-2.26871
 13
4.88353
 23
0.30223
 33
-2.79994
  0
3DFACE
  8
0
 62
   170
 10
4.57986
 20
-0.29929
 30
-3.26556
 11
4.88353
 21
-0.29929
 31
-2.79994
 12
4.88353
 22
0.30223
 32
-2.79994
 13
4.57986
 23
0.30223
 33
-3.26556
  0
3DFACE
  8
0
 62
   170
 10
4.20983
 20
-0.29929
 30
-3.64769
 11
4.57986
 21
-0.29929
 31
-3.26556
 12
4.57986
 22
0.30223
 32
-3.26556
 13
4.20983
 23
0.30223
 33
-3.64769
  0
3DFACE
  8
0
 62
   170
 10
4.20983
 20
-0.29929
 30
-3.64769
 11
3.78766
 21
-0.29929
 31
-3.93163
 12
3.78766
 22
0.30223
 32
-3.93163
 13
4.20983
 23
0.30223
 33
-3.64769
  0
3DFACE
  8
0
 62
   170
 10
3.78766
 20
-0.29929
 30
-3.93163
 11
3.98288
 21
-0.29929
 31
-4.52469
 12
3.98288
 22
0.30223
 32
-4.52469
 13
3.78766
 23
0.30223
 33
-3.93163
  0
3DFACE
  8
0
 62
   170
 10
3.32959
 20
-0.29929
 30
1.92079
 11
2.85321
 21
-0.29929
 31
1.97984
 12
2.85321
 22
0.30223
 32
1.97984
 13
3.32959
 23
0.30223
 33
1.92079
  0
3DFACE
  8
0
 62
   170
 10
3.78767
 20
-0.29929
 30
1.74594
 11
3.32959
 21
-0.29929
 31
1.92079
 12
3.32959
 22
0.30223
 32
1.92079
 13
3.78767
 23
0.30223
 33
1.74594
  0
3DFACE
  8
0
 62
   170
 10
4.20983
 20
-0.29929
 30
1.46199
 11
3.78767
 21
-0.29929
 31
1.74594
 12
3.78767
 22
0.30223
 32
1.74594
 13
4.20983
 23
0.30223
 33
1.46199
  0
3DFACE
  8
0
 62
   170
 10
4.20983
 20
-0.29929
 30
1.46199
 11
4.57986
 21
-0.29929
 31
1.07987
 12
4.57986
 22
0.30223
 32
1.07987
 13
4.20983
 23
0.30223
 33
1.46199
  0
3DFACE
  8
0
 62
   170
 10
4.49325
 20
-0.29929
 30
1.99573
 11
4.94058
 21
-0.29929
 31
1.53377
 12
4.94058
 22
0.30223
 32
1.53377
 13
4.49325
 23
0.30223
 33
1.99573
  0
3DFACE
  8
0
 62
   170
 10
4.49325
 20
-0.29929
 30
1.99573
 11
3.98289
 21
-0.29929
 31
2.339
 12
3.98289
 22
0.30223
 32
2.339
 13
4.49325
 23
0.30223
 33
1.99573
  0
3DFACE
  8
0
 62
   170
 10
3.98289
 20
-0.29929
 30
2.339
 11
3.42912
 21
-0.29929
 31
2.55038
 12
3.42912
 22
0.30223
 32
2.55038
 13
3.98289
 23
0.30223
 33
2.339
  0
3DFACE
  8
0
 62
   170
 10
3.42912
 20
-0.29929
 30
2.55038
 11
2.85321
 21
-0.29929
 31
2.62176
 12
2.85321
 22
0.30223
 32
2.62176
 13
3.42912
 23
0.30223
 33
2.55038
  0
3DFACE
  8
0
 62
   170
 10
4.49324
 20
-0.29929
 30
-4.18143
 11
3.98288
 21
-0.29929
 31
-4.52469
 12
3.98288
 22
0.30223
 32
-4.52469
 13
4.49324
 23
0.30223
 33
-4.18143
  0
3DFACE
  8
0
 62
   170
 10
4.49324
 20
-0.29929
 30
-4.18143
 11
4.94058
 21
-0.29929
 31
-3.71947
 12
4.94058
 22
0.30223
 32
-3.71947
 13
4.49324
 23
0.30223
 33
-4.18143
  0
3DFACE
  8
0
 62
   170
 10
4.94058
 20
-0.29929
 30
-3.71947
 11
5.30769
 21
-0.29929
 31
-3.15657
 12
5.30769
 22
0.30223
 32
-3.15657
 13
4.94058
 23
0.30223
 33
-3.71947
  0
3DFACE
  8
0
 62
   170
 10
5.30769
 20
-0.29929
 30
-3.15657
 11
5.58048
 21
-0.29929
 31
-2.51436
 12
5.58048
 22
0.30223
 32
-2.51436
 13
5.30769
 23
0.30223
 33
-3.15657
  0
3DFACE
  8
0
 62
   170
 10
5.58048
 20
-0.29929
 30
-2.51436
 11
5.74847
 21
-0.29929
 31
-1.81753
 12
5.74847
 22
0.30223
 32
-1.81753
 13
5.58048
 23
0.30223
 33
-2.51436
  0
3DFACE
  8
0
 62
   170
 10
5.74847
 20
-0.29929
 30
-1.81753
 11
5.80519
 21
-0.29929
 31
-1.09285
 12
5.80519
 22
0.30223
 32
-1.09285
 13
5.74847
 23
0.30223
 33
-1.81753
  0
3DFACE
  8
0
 62
   170
 10
5.74847
 20
-0.29929
 30
-0.368163
 11
5.80519
 21
-0.29929
 31
-1.09285
 12
5.80519
 22
0.30223
 32
-1.09285
 13
5.74847
 23
0.30223
 33
-0.368163
  0
3DFACE
  8
0
 62
   170
 10
5.74847
 20
-0.29929
 30
-0.368163
 11
5.58048
 21
-0.29929
 31
0.328671
 12
5.58048
 22
0.30223
 32
0.328671
 13
5.74847
 23
0.30223
 33
-0.368163
  0
3DFACE
  8
0
 62
   170
 10
5.58048
 20
-0.29929
 30
0.328671
 11
5.30769
 21
-0.29929
 31
0.970877
 12
5.30769
 22
0.30223
 32
0.970877
 13
5.58048
 23
0.30223
 33
0.328671
  0
3DFACE
  8
0
 62
   170
 10
5.30769
 20
-0.29929
 30
0.970877
 11
4.94058
 21
-0.29929
 31
1.53377
 12
4.94058
 22
0.30223
 32
1.53377
 13
5.30769
 23
0.30223
 33
0.970877
  0
3DFACE
  8
0
 62
   170
 10
4.49325
 20
0.30223
 30
1.99573
 11
4.94058
 21
0.30223
 31
1.53377
 12
4.57986
 22
0.30223
 32
1.07987
 13
4.20983
 23
0.30223
 33
1.46199
  0
3DFACE
  8
0
 62
   170
 10
4.49325
 20
0.30223
 30
1.99573
 11
3.98289
 21
0.30223
 31
2.339
 12
3.78767
 22
0.30223
 32
1.74594
 13
4.20983
 23
0.30223
 33
1.46199
  0
3DFACE
  8
0
 62
   170
 10
3.98289
 20
0.30223
 30
2.339
 11
3.42912
 21
0.30223
 31
2.55038
 12
3.32959
 22
0.30223
 32
1.92079
 13
3.78767
 23
0.30223
 33
1.74594
  0
3DFACE
  8
0
 62
   170
 10
3.42912
 20
0.30223
 30
2.55038
 11
2.85321
 21
0.30223
 31
2.62176
 12
2.85321
 22
0.30223
 32
1.97984
 13
3.32959
 23
0.30223
 33
1.92079
  0
3DFACE
  8
0
 62
   170
 10
4.49324
 20
0.30223
 30
-4.18143
 11
3.98288
 21
0.30223
 31
-4.52469
 12
3.78766
 22
0.30223
 32
-3.93163
 13
4.20983
 23
0.30223
 33
-3.64769
  0
3DFACE
  8
0
 62
   170
 10
4.49324
 20
0.30223
 30
-4.18143
 11
4.94058
 21
0.30223
 31
-3.71947
 12
4.57986
 22
0.30223
 32
-3.26556
 13
4.20983
 23
0.30223
 33
-3.64769
  0
3DFACE
  8
0
 62
   170
 10
4.94058
 20
0.30223
 30
-3.71947
 11
5.30769
 21
0.30223
 31
-3.15657
 12
4.88353
 22
0.30223
 32
-2.79994
 13
4.57986
 23
0.30223
 33
-3.26556
  0
3DFACE
  8
0
 62
   170
 10
5.30769
 20
0.30223
 30
-3.15657
 11
5.58048
 21
0.30223
 31
-2.51436
 12
5.10918
 22
0.30223
 32
-2.26871
 13
4.88353
 23
0.30223
 33
-2.79994
  0
3DFACE
  8
0
 62
   170
 10
5.58048
 20
0.30223
 30
-2.51436
 11
5.74847
 21
0.30223
 31
-1.81753
 12
5.24814
 22
0.30223
 32
-1.6923
 13
5.10918
 23
0.30223
 33
-2.26871
  0
3DFACE
  8
0
 62
   170
 10
5.74847
 20
0.30223
 30
-1.81753
 11
5.80519
 21
0.30223
 31
-1.09285
 12
5.29506
 22
0.30223
 32
-1.09285
 13
5.24814
 23
0.30223
 33
-1.6923
  0
3DFACE
  8
0
 62
   170
 10
5.74847
 20
0.30223
 30
-0.368163
 11
5.80519
 21
0.30223
 31
-1.09285
 12
5.29506
 22
0.30223
 32
-1.09285
 13
5.24814
 23
0.30223
 33
-0.493396
  0
3DFACE
  8
0
 62
   170
 10
5.74847
 20
0.30223
 30
-0.368163
 11
5.58048
 21
0.30223
 31
0.328671
 12
5.10918
 22
0.30223
 32
0.083018
 13
5.24814
 23
0.30223
 33
-0.493396
  0
3DFACE
  8
0
 62
   170
 10
5.58048
 20
0.30223
 30
0.328671
 11
5.30769
 21
0.30223
 31
0.970877
 12
4.88353
 22
0.30223
 32
0.614244
 13
5.10918
 23
0.30223
 33
0.083018
  0
3DFACE
  8
0
 62
   170
 10
5.30769
 20
0.30223
 30
0.970877
 11
4.94058
 21
0.30223
 31
1.53377
 12
4.57986
 22
0.30223
 32
1.07987
 13
4.88353
 23
0.30223
 33
0.614244
  0
3DFACE
  8
0
 62
   170
 10
0
 20
0
 30
-19.0822
 11
0.993864
 21
0.203848
 31
-18.9498
 12
1.14761
 22
0
 32
-18.9498
 13
1.14761
 23
0
 33
-18.9498
  0
3DFACE
  8
0
 62
   170
 10
1.14761
 20
0
 30
-18.9498
 11
0.993864
 21
0.203848
 31
-18.9498
 12
1.83642
 22
0.376663
 32
-18.5725
 13
2.12052
 23
0
 33
-18.5725
  0
3DFACE
  8
0
 62
   170
 10
2.12052
 20
0
 30
-18.5725
 11
1.83642
 21
0.376663
 31
-18.5725
 12
2.3994
 22
0.492133
 32
-18.0079
 13
2.77059
 23
0
 33
-18.0079
  0
3DFACE
  8
0
 62
   170
 10
2.77059
 20
0
 30
-18.0079
 11
2.3994
 21
0.492133
 31
-18.0079
 12
2.59709
 22
0.532681
 32
-17.342
 13
2.99886
 23
0
 33
-17.342
  0
3DFACE
  8
0
 62
   170
 10
2.99886
 20
0
 30
-17.342
 11
2.59709
 21
0.532681
 31
-17.342
 12
2.3994
 22
0.492133
 32
-16.676
 13
2.77059
 23
0
 33
-16.676
  0
3DFACE
  8
0
 62
   170
 10
1.83642
 20
0.376663
 30
-16.1114
 11
2.12052
 21
0
 31
-16.1114
 12
2.77059
 22
0
 32
-16.676
 13
2.3994
 23
0.492133
 33
-16.676
  0
3DFACE
  8
0
 62
   170
 10
2.12052
 20
0
 30
-16.1114
 11
1.83642
 21
0.376663
 31
-16.1114
 12
0.993864
 22
0.203848
 32
-15.7342
 13
1.14761
 23
0
 33
-15.7342
  0
3DFACE
  8
0
 62
   170
 10
1.14761
 20
0
 30
-15.7342
 11
0.993864
 21
0.203848
 31
-15.7342
 12
0
 22
0
 32
-15.6017
 13
0
 23
0
 33
-15.6017
  0
3DFACE
  8
0
 62
   170
 10
0.993864
 20
0.203848
 30
-15.7342
 11
0.573807
 21
0.353076
 31
-15.7342
 12
0
 22
0
 32
-15.6017
 13
0
 23
0
 33
-15.6017
  0
3DFACE
  8
0
 62
   170
 10
1.83642
 20
0.376663
 30
-16.1114
 11
1.06026
 21
0.652399
 31
-16.1114
 12
0.573807
 22
0.353076
 32
-15.7342
 13
0.993864
 23
0.203848
 33
-15.7342
  0
3DFACE
  8
0
 62
   170
 10
2.3994
 20
0.492133
 30
-16.676
 11
1.38529
 21
0.8524
 31
-16.676
 12
1.06026
 22
0.652399
 32
-16.1114
 13
1.83642
 23
0.376663
 33
-16.1114
  0
3DFACE
  8
0
 62
   170
 10
2.59709
 20
0.532681
 30
-17.342
 11
1.49943
 21
0.922631
 31
-17.342
 12
1.38529
 22
0.8524
 32
-16.676
 13
2.3994
 23
0.492133
 33
-16.676
  0
3DFACE
  8
0
 62
   170
 10
2.3994
 20
0.492133
 30
-18.0079
 11
1.38529
 21
0.8524
 31
-18.0079
 12
1.49943
 22
0.922631
 32
-17.342
 13
2.59709
 23
0.532681
 33
-17.342
  0
3DFACE
  8
0
 62
   170
 10
1.83642
 20
0.376663
 30
-18.5725
 11
1.06026
 21
0.652399
 31
-18.5725
 12
1.38529
 22
0.8524
 32
-18.0079
 13
2.3994
 23
0.492133
 33
-18.0079
  0
3DFACE
  8
0
 62
   170
 10
0.993864
 20
0.203848
 30
-18.9498
 11
0.573808
 21
0.353076
 31
-18.9498
 12
1.06026
 22
0.652399
 32
-18.5725
 13
1.83642
 23
0.376663
 33
-18.5725
  0
3DFACE
  8
0
 62
   170
 10
0
 20
0
 30
-19.0822
 11
0.573808
 21
0.353076
 31
-18.9498
 12
0.993864
 22
0.203848
 32
-18.9498
 13
0.993864
 23
0.203848
 33
-18.9498
  0
3DFACE
  8
0
 62
   170
 10
0
 20
0
 30
-19.0822
 11
0
 21
0.407697
 31
-18.9498
 12
0.573808
 22
0.353076
 32
-18.9498
 13
0.573808
 23
0.353076
 33
-18.9498
  0
3DFACE
  8
0
 62
   170
 10
0.573808
 20
0.353076
 30
-18.9498
 11
0
 21
0.407697
 31
-18.9498
 12
0
 22
0.753325
 32
-18.5725
 13
1.06026
 23
0.652399
 33
-18.5725
  0
3DFACE
  8
0
 62
   170
 10
1.06026
 20
0.652399
 30
-18.5725
 11
0
 21
0.753325
 31
-18.5725
 12
0
 22
0.984267
 32
-18.0079
 13
1.38529
 23
0.8524
 33
-18.0079
  0
3DFACE
  8
0
 62
   170
 10
1.38529
 20
0.8524
 30
-18.0079
 11
0
 21
0.984267
 31
-18.0079
 12
0
 22
1.06536
 32
-17.342
 13
1.49943
 23
0.922631
 33
-17.342
  0
3DFACE
  8
0
 62
   170
 10
1.49943
 20
0.922631
 30
-17.342
 11
0
 21
1.06536
 31
-17.342
 12
0
 22
0.984267
 32
-16.676
 13
1.38529
 23
0.8524
 33
-16.676
  0
3DFACE
  8
0
 62
   170
 10
1.38529
 20
0.8524
 30
-16.676
 11
0
 21
0.984267
 31
-16.676
 12
0
 22
0.753325
 32
-16.1114
 13
1.06026
 23
0.652399
 33
-16.1114
  0
3DFACE
  8
0
 62
   170
 10
1.06026
 20
0.652399
 30
-16.1114
 11
0
 21
0.753325
 31
-16.1114
 12
0
 22
0.407697
 32
-15.7342
 13
0.573807
 23
0.353076
 33
-15.7342
  0
3DFACE
  8
0
 62
   170
 10
0.573807
 20
0.353076
 30
-15.7342
 11
0
 21
0.407697
 31
-15.7342
 12
0
 22
0
 32
-15.6017
 13
0
 23
0
 33
-15.6017
  0
3DFACE
  8
0
 62
   170
 10
0
 20
0.407697
 30
-15.7342
 11
-0.573808
 21
0.353076
 31
-15.7342
 12
0
 22
0
 32
-15.6017
 13
0
 23
0
 33
-15.6017
  0
3DFACE
  8
0
 62
   170
 10
0
 20
0.753325
 30
-16.1114
 11
-1.06026
 21
0.652399
 31
-16.1114
 12
-0.573808
 22
0.353076
 32
-15.7342
 13
0
 23
0.407697
 33
-15.7342
  0
3DFACE
  8
0
 62
   170
 10
0
 20
0.984267
 30
-16.676
 11
-1.38529
 21
0.8524
 31
-16.676
 12
-1.06026
 22
0.652399
 32
-16.1114
 13
0
 23
0.753325
 33
-16.1114
  0
3DFACE
  8
0
 62
   170
 10
0
 20
1.06536
 30
-17.342
 11
-1.49943
 21
0.922631
 31
-17.342
 12
-1.38529
 22
0.8524
 32
-16.676
 13
0
 23
0.984267
 33
-16.676
  0
3DFACE
  8
0
 62
   170
 10
0
 20
0.984267
 30
-18.0079
 11
-1.38529
 21
0.8524
 31
-18.0079
 12
-1.49943
 22
0.922631
 32
-17.342
 13
0
 23
1.06536
 33
-17.342
  0
3DFACE
  8
0
 62
   170
 10
0
 20
0.753325
 30
-18.5725
 11
-1.06026
 21
0.652399
 31
-18.5725
 12
-1.38529
 22
0.8524
 32
-18.0079
 13
0
 23
0.984267
 33
-18.0079
  0
3DFACE
  8
0
 62
   170
 10
0
 20
0.407697
 30
-18.9498
 11
-0.573808
 21
0.353076
 31
-18.9498
 12
-1.06026
 22
0.652399
 32
-18.5725
 13
0
 23
0.753325
 33
-18.5725
  0
3DFACE
  8
0
 62
   170
 10
0
 20
0
 30
-19.0822
 11
-0.573808
 21
0.353076
 31
-18.9498
 12
0
 22
0.407697
 32
-18.9498
 13
0
 23
0.407697
 33
-18.9498
  0
3DFACE
  8
0
 62
   170
 10
0
 20
0
 30
-19.0822
 11
-0.993864
 21
0.203848
 31
-18.9498
 12
-0.573808
 22
0.353076
 32
-18.9498
 13
-0.573808
 23
0.353076
 33
-18.9498
  0
3DFACE
  8
0
 62
   170
 10
-0.573808
 20
0.353076
 30
-18.9498
 11
-0.993864
 21
0.203848
 31
-18.9498
 12
-1.83642
 22
0.376663
 32
-18.5725
 13
-1.06026
 23
0.652399
 33
-18.5725
  0
3DFACE
  8
0
 62
   170
 10
-1.06026
 20
0.652399
 30
-18.5725
 11
-1.83642
 21
0.376663
 31
-18.5725
 12
-2.3994
 22
0.492133
 32
-18.0079
 13
-1.38529
 23
0.8524
 33
-18.0079
  0
3DFACE
  8
0
 62
   170
 10
-1.38529
 20
0.8524
 30
-18.0079
 11
-2.3994
 21
0.492133
 31
-18.0079
 12
-2.59709
 22
0.532681
 32
-17.342
 13
-1.49943
 23
0.922631
 33
-17.342
  0
3DFACE
  8
0
 62
   170
 10
-1.49943
 20
0.922631
 30
-17.342
 11
-2.59709
 21
0.532681
 31
-17.342
 12
-2.3994
 22
0.492133
 32
-16.676
 13
-1.38529
 23
0.8524
 33
-16.676
  0
3DFACE
  8
0
 62
   170
 10
-1.38529
 20
0.8524
 30
-16.676
 11
-2.3994
 21
0.492133
 31
-16.676
 12
-1.83642
 22
0.376663
 32
-16.1114
 13
-1.06026
 23
0.652399
 33
-16.1114
  0
3DFACE
  8
0
 62
   170
 10
-1.06026
 20
0.652399
 30
-16.1114
 11
-1.83642
 21
0.376663
 31
-16.1114
 12
-0.993864
 22
0.203848
 32
-15.7342
 13
-0.573808
 23
0.353076
 33
-15.7342
  0
3DFACE
  8
0
 62
   170
 10
-0.573808
 20
0.353076
 30
-15.7342
 11
-0.993864
 21
0.203848
 31
-15.7342
 12
0
 22
0
 32
-15.6017
 13
0
 23
0
 33
-15.6017
  0
3DFACE
  8
0
 62
   170
 10
-0.993864
 20
0.203848
 30
-15.7342
 11
-1.14761
 21
0
 31
-15.7342
 12
0
 22
0
 32
-15.6017
 13
0
 23
0
 33
-15.6017
  0
3DFACE
  8
0
 62
   170
 10
-1.83642
 20
0.376663
 30
-16.1114
 11
-2.12052
 21
0
 31
-16.1114
 12
-1.14761
 22
0
 32
-15.7342
 13
-0.993864
 23
0.203848
 33
-15.7342
  0
3DFACE
  8
0
 62
   170
 10
-2.3994
 20
0.492133
 30
-16.676
 11
-2.77059
 21
0
 31
-16.676
 12
-2.12052
 22
0
 32
-16.1114
 13
-1.83642
 23
0.376663
 33
-16.1114
  0
3DFACE
  8
0
 62
   170
 10
-2.59709
 20
0.532681
 30
-17.342
 11
-2.99886
 21
0
 31
-17.342
 12
-2.77059
 22
0
 32
-16.676
 13
-2.3994
 23
0.492133
 33
-16.676
  0
3DFACE
  8
0
 62
   170
 10
-2.3994
 20
0.492133
 30
-18.0079
 11
-2.77059
 21
0
 31
-18.0079
 12
-2.99886
 22
0
 32
-17.342
 13
-2.59709
 23
0.532681
 33
-17.342
  0
3DFACE
  8
0
 62
   170
 10
-1.83642
 20
0.376663
 30
-18.5725
 11
-2.12052
 21
0
 31
-18.5725
 12
-2.77059
 22
0
 32
-18.0079
 13
-2.3994
 23
0.492133
 33
-18.0079
  0
3DFACE
  8
0
 62
   170
 10
-0.993864
 20
0.203848
 30
-18.9498
 11
-1.14761
 21
0
 31
-18.9498
 12
-2.12052
 22
0
 32
-18.5725
 13
-1.83642
 23
0.376663
 33
-18.5725
  0
3DFACE
  8
0
 62
   170
 10
0
 20
0
 30
-19.0822
 11
-1.14761
 21
0
 31
-18.9498
 12
-0.993864
 22
0.203848
 32
-18.9498
 13
-0.993864
 23
0.203848
 33
-18.9498
  0
3DFACE
  8
0
 62
   170
 10
0
 20
0
 30
-19.0822
 11
-0.993864
 21
-0.203848
 31
-18.9498
 12
-1.14761
 22
0
 32
-18.9498
 13
-1.14761
 23
0
 33
-18.9498
  0
3DFACE
  8
0
 62
   170
 10
-1.14761
 20
0
 30
-18.9498
 11
-0.993864
 21
-0.203848
 31
-18.9498
 12
-1.83642
 22
-0.376663
 32
-18.5725
 13
-2.12052
 23
0
 33
-18.5725
  0
3DFACE
  8
0
 62
   170
 10
-2.12052
 20
0
 30
-18.5725
 11
-1.83642
 21
-0.376663
 31
-18.5725
 12
-2.3994
 22
-0.492133
 32
-18.0079
 13
-2.77059
 23
0
 33
-18.0079
  0
3DFACE
  8
0
 62
   170
 10
-2.77059
 20
0
 30
-18.0079
 11
-2.3994
 21
-0.492133
 31
-18.0079
 12
-2.59709
 22
-0.532681
 32
-17.342
 13
-2.99886
 23
0
 33
-17.342
  0
3DFACE
  8
0
 62
   170
 10
-2.99886
 20
0
 30
-17.342
 11
-2.59709
 21
-0.532681
 31
-17.342
 12
-2.3994
 22
-0.492133
 32
-16.676
 13
-2.77059
 23
0
 33
-16.676
  0
3DFACE
  8
0
 62
   170
 10
-2.77059
 20
0
 30
-16.676
 11
-2.3994
 21
-0.492133
 31
-16.676
 12
-1.83642
 22
-0.376663
 32
-16.1114
 13
-2.12052
 23
0
 33
-16.1114
  0
3DFACE
  8
0
 62
   170
 10
-2.12052
 20
0
 30
-16.1114
 11
-1.83642
 21
-0.376663
 31
-16.1114
 12
-0.993864
 22
-0.203848
 32
-15.7342
 13
-1.14761
 23
0
 33
-15.7342
  0
3DFACE
  8
0
 62
   170
 10
-1.14761
 20
0
 30
-15.7342
 11
-0.993864
 21
-0.203848
 31
-15.7342
 12
0
 22
0
 32
-15.6017
 13
0
 23
0
 33
-15.6017
  0
3DFACE
  8
0
 62
   170
 10
-0.993864
 20
-0.203848
 30
-15.7342
 11
-0.573807
 21
-0.353076
 31
-15.7342
 12
0
 22
0
 32
-15.6017
 13
0
 23
0
 33
-15.6017
  0
3DFACE
  8
0
 62
   170
 10
-1.83642
 20
-0.376663
 30
-16.1114
 11
-1.06026
 21
-0.652399
 31
-16.1114
 12
-0.573807
 22
-0.353076
 32
-15.7342
 13
-0.993864
 23
-0.203848
 33
-15.7342
  0
3DFACE
  8
0
 62
   170
 10
-2.3994
 20
-0.492133
 30
-16.676
 11
-1.38529
 21
-0.8524
 31
-16.676
 12
-1.06026
 22
-0.652399
 32
-16.1114
 13
-1.83642
 23
-0.376663
 33
-16.1114
  0
3DFACE
  8
0
 62
   170
 10
-2.59709
 20
-0.532681
 30
-17.342
 11
-1.49943
 21
-0.922631
 31
-17.342
 12
-1.38529
 22
-0.8524
 32
-16.676
 13
-2.3994
 23
-0.492133
 33
-16.676
  0
3DFACE
  8
0
 62
   170
 10
-2.3994
 20
-0.492133
 30
-18.0079
 11
-1.38529
 21
-0.8524
 31
-18.0079
 12
-1.49943
 22
-0.922631
 32
-17.342
 13
-2.59709
 23
-0.532681
 33
-17.342
  0
3DFACE
  8
0
 62
   170
 10
-1.83642
 20
-0.376663
 30
-18.5725
 11
-1.06026
 21
-0.652399
 31
-18.5725
 12
-1.38529
 22
-0.8524
 32
-18.0079
 13
-2.3994
 23
-0.492133
 33
-18.0079
  0
3DFACE
  8
0
 62
   170
 10
-0.993864
 20
-0.203848
 30
-18.9498
 11
-0.573807
 21
-0.353076
 31
-18.9498
 12
-1.06026
 22
-0.652399
 32
-18.5725
 13
-1.83642
 23
-0.376663
 33
-18.5725
  0
3DFACE
  8
0
 62
   170
 10
0
 20
0
 30
-19.0822
 11
-0.573807
 21
-0.353076
 31
-18.9498
 12
-0.993864
 22
-0.203848
 32
-18.9498
 13
-0.993864
 23
-0.203848
 33
-18.9498
  0
3DFACE
  8
0
 62
   170
 10
0
 20
0
 30
-19.0822
 11
0
 21
-0.407697
 31
-18.9498
 12
-0.573807
 22
-0.353076
 32
-18.9498
 13
-0.573807
 23
-0.353076
 33
-18.9498
  0
3DFACE
  8
0
 62
   170
 10
-0.573807
 20
-0.353076
 30
-18.9498
 11
0
 21
-0.407697
 31
-18.9498
 12
0
 22
-0.753325
 32
-18.5725
 13
-1.06026
 23
-0.652399
 33
-18.5725
  0
3DFACE
  8
0
 62
   170
 10
-1.06026
 20
-0.652399
 30
-18.5725
 11
0
 21
-0.753325
 31
-18.5725
 12
0
 22
-0.984267
 32
-18.0079
 13
-1.38529
 23
-0.8524
 33
-18.0079
  0
3DFACE
  8
0
 62
   170
 10
-1.38529
 20
-0.8524
 30
-18.0079
 11
0
 21
-0.984267
 31
-18.0079
 12
0
 22
-1.06536
 32
-17.342
 13
-1.49943
 23
-0.922631
 33
-17.342
  0
3DFACE
  8
0
 62
   170
 10
-1.49943
 20
-0.922631
 30
-17.342
 11
0
 21
-1.06536
 31
-17.342
 12
0
 22
-0.984267
 32
-16.676
 13
-1.38529
 23
-0.8524
 33
-16.676
  0
3DFACE
  8
0
 62
   170
 10
-1.38529
 20
-0.8524
 30
-16.676
 11
0
 21
-0.984267
 31
-16.676
 12
0
 22
-0.753325
 32
-16.1114
 13
-1.06026
 23
-0.652399
 33
-16.1114
  0
3DFACE
  8
0
 62
   170
 10
-1.06026
 20
-0.652399
 30
-16.1114
 11
0
 21
-0.753325
 31
-16.1114
 12
0
 22
-0.407697
 32
-15.7342
 13
-0.573807
 23
-0.353076
 33
-15.7342
  0
3DFACE
  8
0
 62
   170
 10
-0.573807
 20
-0.353076
 30
-15.7342
 11
0
 21
-0.407697
 31
-15.7342
 12
0
 22
0
 32
-15.6017
 13
0
 23
0
 33
-15.6017
  0
3DFACE
  8
0
 62
   170
 10
0
 20
-0.407697
 30
-15.7342
 11
0.573807
 21
-0.353076
 31
-15.7342
 12
0
 22
0
 32
-15.6017
 13
0
 23
0
 33
-15.6017
  0
3DFACE
  8
0
 62
   170
 10
0
 20
-0.753325
 30
-16.1114
 11
1.06026
 21
-0.652399
 31
-16.1114
 12
0.573807
 22
-0.353076
 32
-15.7342
 13
0
 23
-0.407697
 33
-15.7342
  0
3DFACE
  8
0
 62
   170
 10
0
 20
-0.984267
 30
-16.676
 11
1.38529
 21
-0.8524
 31
-16.676
 12
1.06026
 22
-0.652399
 32
-16.1114
 13
0
 23
-0.753325
 33
-16.1114
  0
3DFACE
  8
0
 62
   170
 10
0
 20
-1.06536
 30
-17.342
 11
1.49943
 21
-0.922631
 31
-17.342
 12
1.38529
 22
-0.8524
 32
-16.676
 13
0
 23
-0.984267
 33
-16.676
  0
3DFACE
  8
0
 62
   170
 10
0
 20
-0.984267
 30
-18.0079
 11
1.38529
 21
-0.8524
 31
-18.0079
 12
1.49943
 22
-0.922631
 32
-17.342
 13
0
 23
-1.06536
 33
-17.342
  0
3DFACE
  8
0
 62
   170
 10
0
 20
-0.753325
 30
-18.5725
 11
1.06026
 21
-0.652399
 31
-18.5725
 12
1.38529
 22
-0.8524
 32
-18.0079
 13
0
 23
-0.984267
 33
-18.0079
  0
3DFACE
  8
0
 62
   170
 10
0
 20
-0.407697
 30
-18.9498
 11
0.573808
 21
-0.353076
 31
-18.9498
 12
1.06026
 22
-0.652399
 32
-18.5725
 13
0
 23
-0.753325
 33
-18.5725
  0
3DFACE
  8
0
 62
   170
 10
0
 20
0
 30
-19.0822
 11
0.573808
 21
-0.353076
 31
-18.9498
 12
0
 22
-0.407697
 32
-18.9498
 13
0
 23
-0.407697
 33
-18.9498
  0
3DFACE
  8
0
 62
   170
 10
0
 20
0
 30
-19.0822
 11
0.993864
 21
-0.203848
 31
-18.9498
 12
0.573808
 22
-0.353076
 32
-18.9498
 13
0.573808
 23
-0.353076
 33
-18.9498
  0
3DFACE
  8
0
 62
   170
 10
0.573808
 20
-0.353076
 30
-18.9498
 11
0.993864
 21
-0.203848
 31
-18.9498
 12
1.83642
 22
-0.376663
 32
-18.5725
 13
1.06026
 23
-0.652399
 33
-18.5725
  0
3DFACE
  8
0
 62
   170
 10
1.06026
 20
-0.652399
 30
-18.5725
 11
1.83642
 21
-0.376663
 31
-18.5725
 12
2.3994
 22
-0.492133
 32
-18.0079
 13
1.38529
 23
-0.8524
 33
-18.0079
  0
3DFACE
  8
0
 62
   170
 10
1.38529
 20
-0.8524
 30
-18.0079
 11
2.3994
 21
-0.492133
 31
-18.0079
 12
2.59709
 22
-0.532681
 32
-17.342
 13
1.49943
 23
-0.922631
 33
-17.342
  0
3DFACE
  8
0
 62
   170
 10
1.49943
 20
-0.922631
 30
-17.342
 11
2.59709
 21
-0.532681
 31
-17.342
 12
2.3994
 22
-0.492133
 32
-16.676
 13
1.38529
 23
-0.8524
 33
-16.676
  0
3DFACE
  8
0
 62
   170
 10
1.38529
 20
-0.8524
 30
-16.676
 11
2.3994
 21
-0.492133
 31
-16.676
 12
1.83642
 22
-0.376663
 32
-16.1114
 13
1.06026
 23
-0.652399
 33
-16.1114
  0
3DFACE
  8
0
 62
   170
 10
1.06026
 20
-0.652399
 30
-16.1114
 11
1.83642
 21
-0.376663
 31
-16.1114
 12
0.993864
 22
-0.203848
 32
-15.7342
 13
0.573807
 23
-0.353076
 33
-15.7342
  0
3DFACE
  8
0
 62
   170
 10
0.573807
 20
-0.353076
 30
-15.7342
 11
0.993864
 21
-0.203848
 31
-15.7342
 12
0
 22
0
 32
-15.6017
 13
0
 23
0
 33
-15.6017
  0
3DFACE
  8
0
 62
   170
 10
0.993864
 20
-0.203848
 30
-15.7342
 11
1.14761
 21
0
 31
-15.7342
 12
0
 22
0
 32
-15.6017
 13
0
 23
0
 33
-15.6017
  0
3DFACE
  8
0
 62
   170
 10
1.83642
 20
-0.376663
 30
-16.1114
 11
2.12052
 21
0
 31
-16.1114
 12
1.14761
 22
0
 32
-15.7342
 13
0.993864
 23
-0.203848
 33
-15.7342
  0
3DFACE
  8
0
 62
   170
 10
2.12052
 20
0
 30
-16.1114
 11
1.83642
 21
-0.376663
 31
-16.1114
 12
2.3994
 22
-0.492133
 32
-16.676
 13
2.77059
 23
0
 33
-16.676
  0
3DFACE
  8
0
 62
   170
 10
2.59709
 20
-0.532681
 30
-17.342
 11
2.99886
 21
0
 31
-17.342
 12
2.77059
 22
0
 32
-16.676
 13
2.3994
 23
-0.492133
 33
-16.676
  0
3DFACE
  8
0
 62
   170
 10
2.3994
 20
-0.492133
 30
-18.0079
 11
2.77059
 21
0
 31
-18.0079
 12
2.99886
 22
0
 32
-17.342
 13
2.59709
 23
-0.532681
 33
-17.342
  0
3DFACE
  8
0
 62
   170
 10
1.83642
 20
-0.376663
 30
-18.5725
 11
2.12052
 21
0
 31
-18.5725
 12
2.77059
 22
0
 32
-18.0079
 13
2.3994
 23
-0.492133
 33
-18.0079
  0
3DFACE
  8
0
 62
   170
 10
0.993864
 20
-0.203848
 30
-18.9498
 11
1.14761
 21
0
 31
-18.9498
 12
2.12052
 22
0
 32
-18.5725
 13
1.83642
 23
-0.376663
 33
-18.5725
  0
3DFACE
  8
0
 62
   170
 10
0
 20
0
 30
-19.0822
 11
1.14761
 21
0
 31
-18.9498
 12
0.993864
 22
-0.203848
 32
-18.9498
 13
0.993864
 23
-0.203848
 33
-18.9498
  0
ENDBLK
  8
0
  0
ENDSEC
  0
SECTION
  2
ENTITIES
  0
INSERT
  8
2
  2
BlueNote
 10
-9.97199
 20
-0.000779
 30
11.3436
  0
INSERT
  8
4
  2
Noteline_007
 10
0.00258
 20
-0.010798
 30
-8.0356
  0
INSERT
  8
4
  2
Noteline_006
 10
0.00258
 20
-0.010798
 30
-4.03924
  0
INSERT
  8
4
  2
Noteline_005
 10
0.00258
 20
-0.010798
 30
7.99227
  0
INSERT
  8
4
  2
Noteline_004
 10
0.00258
 20
-0.010798
 30
3.98129
  0
INSERT
  8
4
  2
Noteline
 10
0.00258
 20
-0.010798
 30
-0.025567
  0
INSERT
  8
2
  2
YellowNote
 10
-0.048166
 20
-0.000778
 30
15.3238
  0
INSERT
  8
2
  2
GreenNote
 10
10.0578
 20
-0.000778
 30
23.3631
  0
ENDSEC
  0
EOF
