0
SECTION
2
HEADER
0
ENDSEC
0
SECTION
2
BLOCKS
0
BLOCK
2
Cylinder
8
Meshes
70
64
10
0.0
20
0.0
30
0.0
3
Cylinder
0
POLYLINE
66
1
8
Meshes
62
250
70
64
71
64
72
47
0
VERTEX
8
Meshes
10
0.354293
20
0.354293
30
-10.028073
70
192
0
VERTEX
8
Meshes
10
0.416605
20
0.278366
30
-10.028073
70
192
0
VERTEX
8
Meshes
10
0.462906
20
0.191742
30
-10.028073
70
192
0
VERTEX
8
Meshes
10
0.491419
20
0.097749
30
-10.028073
70
192
0
VERTEX
8
Meshes
10
0.501046
20
0.000000
30
-10.028073
70
192
0
VERTEX
8
Meshes
10
0.491419
20
-0.097749
30
-10.028073
70
192
0
VERTEX
8
Meshes
10
0.462906
20
-0.191742
30
-10.028073
70
192
0
VERTEX
8
Meshes
10
0.416605
20
-0.278366
30
-10.028073
70
192
0
VERTEX
8
Meshes
10
0.354293
20
-0.354293
30
-10.028073
70
192
0
VERTEX
8
Meshes
10
0.278366
20
-0.416605
30
-10.028073
70
192
0
VERTEX
8
Meshes
10
0.191742
20
-0.462906
30
-10.028073
70
192
0
VERTEX
8
Meshes
10
0.097749
20
-0.491419
30
-10.028073
70
192
0
VERTEX
8
Meshes
10
-0.000000
20
-0.501046
30
-10.028073
70
192
0
VERTEX
8
Meshes
10
-0.097749
20
-0.491418
30
-10.028073
70
192
0
VERTEX
8
Meshes
10
-0.191742
20
-0.462906
30
-10.028073
70
192
0
VERTEX
8
Meshes
10
-0.278366
20
-0.416604
30
-10.028073
70
192
0
VERTEX
8
Meshes
10
-0.354293
20
-0.354293
30
-10.028073
70
192
0
VERTEX
8
Meshes
10
-0.416605
20
-0.278366
30
-10.028073
70
192
0
VERTEX
8
Meshes
10
-0.462906
20
-0.191742
30
-10.028073
70
192
0
VERTEX
8
Meshes
10
-0.491419
20
-0.097749
30
-10.028073
70
192
0
VERTEX
8
Meshes
10
-0.501046
20
0.000000
30
-10.028073
70
192
0
VERTEX
8
Meshes
10
-0.491418
20
0.097750
30
-10.028073
70
192
0
VERTEX
8
Meshes
10
-0.462906
20
0.191743
30
-10.028073
70
192
0
VERTEX
8
Meshes
10
-0.416604
20
0.278367
30
-10.028073
70
192
0
VERTEX
8
Meshes
10
-0.354293
20
0.354293
30
-10.028073
70
192
0
VERTEX
8
Meshes
10
-0.278366
20
0.416605
30
-10.028073
70
192
0
VERTEX
8
Meshes
10
-0.191741
20
0.462906
30
-10.028073
70
192
0
VERTEX
8
Meshes
10
-0.097748
20
0.491419
30
-10.028073
70
192
0
VERTEX
8
Meshes
10
0.000001
20
0.501046
30
-10.028073
70
192
0
VERTEX
8
Meshes
10
0.097750
20
0.491418
30
-10.028073
70
192
0
VERTEX
8
Meshes
10
0.191743
20
0.462906
30
-10.028073
70
192
0
VERTEX
8
Meshes
10
0.278367
20
0.416604
30
-10.028073
70
192
0
VERTEX
8
Meshes
10
0.354294
20
0.354292
30
10.028073
70
192
0
VERTEX
8
Meshes
10
0.416605
20
0.278365
30
10.028073
70
192
0
VERTEX
8
Meshes
10
0.462907
20
0.191741
30
10.028073
70
192
0
VERTEX
8
Meshes
10
0.491419
20
0.097748
30
10.028073
70
192
0
VERTEX
8
Meshes
10
0.501046
20
-0.000001
30
10.028073
70
192
0
VERTEX
8
Meshes
10
0.491418
20
-0.097750
30
10.028073
70
192
0
VERTEX
8
Meshes
10
0.462906
20
-0.191743
30
10.028073
70
192
0
VERTEX
8
Meshes
10
0.416604
20
-0.278367
30
10.028073
70
192
0
VERTEX
8
Meshes
10
0.354293
20
-0.354293
30
10.028073
70
192
0
VERTEX
8
Meshes
10
0.278366
20
-0.416605
30
10.028073
70
192
0
VERTEX
8
Meshes
10
0.191742
20
-0.462906
30
10.028073
70
192
0
VERTEX
8
Meshes
10
0.097749
20
-0.491418
30
10.028073
70
192
0
VERTEX
8
Meshes
10
0.000000
20
-0.501046
30
10.028073
70
192
0
VERTEX
8
Meshes
10
-0.097749
20
-0.491419
30
10.028073
70
192
0
VERTEX
8
Meshes
10
-0.191741
20
-0.462906
30
10.028073
70
192
0
VERTEX
8
Meshes
10
-0.278365
20
-0.416605
30
10.028073
70
192
0
VERTEX
8
Meshes
10
-0.354292
20
-0.354294
30
10.028073
70
192
0
VERTEX
8
Meshes
10
-0.416604
20
-0.278367
30
10.028073
70
192
0
VERTEX
8
Meshes
10
-0.462905
20
-0.191744
30
10.028073
70
192
0
VERTEX
8
Meshes
10
-0.491418
20
-0.097751
30
10.028073
70
192
0
VERTEX
8
Meshes
10
-0.501046
20
-0.000002
30
10.028073
70
192
0
VERTEX
8
Meshes
10
-0.491419
20
0.097747
30
10.028073
70
192
0
VERTEX
8
Meshes
10
-0.462907
20
0.191740
30
10.028073
70
192
0
VERTEX
8
Meshes
10
-0.416606
20
0.278364
30
10.028073
70
192
0
VERTEX
8
Meshes
10
-0.354295
20
0.354291
30
10.028073
70
192
0
VERTEX
8
Meshes
10
-0.278369
20
0.416603
30
10.028073
70
192
0
VERTEX
8
Meshes
10
-0.191745
20
0.462905
30
10.028073
70
192
0
VERTEX
8
Meshes
10
-0.097753
20
0.491418
30
10.028073
70
192
0
VERTEX
8
Meshes
10
-0.000004
20
0.501046
30
10.028073
70
192
0
VERTEX
8
Meshes
10
0.097745
20
0.491419
30
10.028073
70
192
0
VERTEX
8
Meshes
10
0.191738
20
0.462908
30
10.028073
70
192
0
VERTEX
8
Meshes
10
0.278363
20
0.416607
30
10.028073
70
192
0
VERTEX
8
Meshes
62
250
10
0.0
20
0.0
30
0.0
70
128
71
1
72
33
73
34
74
2
0
VERTEX
8
Meshes
62
250
10
0.0
20
0.0
30
0.0
70
128
71
2
72
34
73
35
74
3
0
VERTEX
8
Meshes
62
250
10
0.0
20
0.0
30
0.0
70
128
71
3
72
35
73
36
74
4
0
VERTEX
8
Meshes
62
250
10
0.0
20
0.0
30
0.0
70
128
71
4
72
36
73
37
74
5
0
VERTEX
8
Meshes
62
250
10
0.0
20
0.0
30
0.0
70
128
71
5
72
37
73
38
74
6
0
VERTEX
8
Meshes
62
250
10
0.0
20
0.0
30
0.0
70
128
71
6
72
38
73
39
74
7
0
VERTEX
8
Meshes
62
250
10
0.0
20
0.0
30
0.0
70
128
71
7
72
39
73
40
74
8
0
VERTEX
8
Meshes
62
250
10
0.0
20
0.0
30
0.0
70
128
71
8
72
40
73
41
74
9
0
VERTEX
8
Meshes
62
250
10
0.0
20
0.0
30
0.0
70
128
71
9
72
41
73
42
74
10
0
VERTEX
8
Meshes
62
250
10
0.0
20
0.0
30
0.0
70
128
71
10
72
42
73
43
74
11
0
VERTEX
8
Meshes
62
250
10
0.0
20
0.0
30
0.0
70
128
71
11
72
43
73
44
74
12
0
VERTEX
8
Meshes
62
250
10
0.0
20
0.0
30
0.0
70
128
71
12
72
44
73
45
74
13
0
VERTEX
8
Meshes
62
250
10
0.0
20
0.0
30
0.0
70
128
71
13
72
45
73
46
74
14
0
VERTEX
8
Meshes
62
250
10
0.0
20
0.0
30
0.0
70
128
71
14
72
46
73
47
74
15
0
VERTEX
8
Meshes
62
250
10
0.0
20
0.0
30
0.0
70
128
71
15
72
47
73
48
74
16
0
VERTEX
8
Meshes
62
250
10
0.0
20
0.0
30
0.0
70
128
71
16
72
48
73
49
74
17
0
VERTEX
8
Meshes
62
250
10
0.0
20
0.0
30
0.0
70
128
71
17
72
49
73
50
74
18
0
VERTEX
8
Meshes
62
250
10
0.0
20
0.0
30
0.0
70
128
71
18
72
50
73
51
74
19
0
VERTEX
8
Meshes
62
250
10
0.0
20
0.0
30
0.0
70
128
71
19
72
51
73
52
74
20
0
VERTEX
8
Meshes
62
250
10
0.0
20
0.0
30
0.0
70
128
71
20
72
52
73
53
74
21
0
VERTEX
8
Meshes
62
250
10
0.0
20
0.0
30
0.0
70
128
71
21
72
53
73
54
74
22
0
VERTEX
8
Meshes
62
250
10
0.0
20
0.0
30
0.0
70
128
71
22
72
54
73
55
74
23
0
VERTEX
8
Meshes
62
250
10
0.0
20
0.0
30
0.0
70
128
71
23
72
55
73
56
74
24
0
VERTEX
8
Meshes
62
250
10
0.0
20
0.0
30
0.0
70
128
71
24
72
56
73
57
74
25
0
VERTEX
8
Meshes
62
250
10
0.0
20
0.0
30
0.0
70
128
71
25
72
57
73
58
74
26
0
VERTEX
8
Meshes
62
250
10
0.0
20
0.0
30
0.0
70
128
71
26
72
58
73
59
74
27
0
VERTEX
8
Meshes
62
250
10
0.0
20
0.0
30
0.0
70
128
71
27
72
59
73
60
74
28
0
VERTEX
8
Meshes
62
250
10
0.0
20
0.0
30
0.0
70
128
71
28
72
60
73
61
74
29
0
VERTEX
8
Meshes
62
250
10
0.0
20
0.0
30
0.0
70
128
71
29
72
61
73
62
74
30
0
VERTEX
8
Meshes
62
250
10
0.0
20
0.0
30
0.0
70
128
71
30
72
62
73
63
74
31
0
VERTEX
8
Meshes
62
250
10
0.0
20
0.0
30
0.0
70
128
71
31
72
63
73
64
74
32
0
VERTEX
8
Meshes
62
250
10
0.0
20
0.0
30
0.0
70
128
71
33
72
1
73
32
74
64
0
VERTEX
8
Meshes
62
250
10
0.0
20
0.0
30
0.0
70
128
71
61
72
60
73
63
74
62
0
VERTEX
8
Meshes
62
250
10
0.0
20
0.0
30
0.0
70
128
71
60
72
59
73
64
74
63
0
VERTEX
8
Meshes
62
250
10
0.0
20
0.0
30
0.0
70
128
71
59
72
58
73
33
74
64
0
VERTEX
8
Meshes
62
250
10
0.0
20
0.0
30
0.0
70
128
71
58
72
57
73
34
74
33
0
VERTEX
8
Meshes
62
250
10
0.0
20
0.0
30
0.0
70
128
71
57
72
56
73
35
74
34
0
VERTEX
8
Meshes
62
250
10
0.0
20
0.0
30
0.0
70
128
71
56
72
55
73
36
74
35
0
VERTEX
8
Meshes
62
250
10
0.0
20
0.0
30
0.0
70
128
71
55
72
54
73
37
74
36
0
VERTEX
8
Meshes
62
250
10
0.0
20
0.0
30
0.0
70
128
71
54
72
53
73
38
74
37
0
VERTEX
8
Meshes
62
250
10
0.0
20
0.0
30
0.0
70
128
71
53
72
52
73
39
74
38
0
VERTEX
8
Meshes
62
250
10
0.0
20
0.0
30
0.0
70
128
71
52
72
51
73
40
74
39
0
VERTEX
8
Meshes
62
250
10
0.0
20
0.0
30
0.0
70
128
71
51
72
50
73
41
74
40
0
VERTEX
8
Meshes
62
250
10
0.0
20
0.0
30
0.0
70
128
71
50
72
49
73
42
74
41
0
VERTEX
8
Meshes
62
250
10
0.0
20
0.0
30
0.0
70
128
71
49
72
48
73
43
74
42
0
VERTEX
8
Meshes
62
250
10
0.0
20
0.0
30
0.0
70
128
71
48
72
47
73
44
74
43
0
VERTEX
8
Meshes
62
250
10
0.0
20
0.0
30
0.0
70
128
71
47
72
46
73
45
74
44
0
SEQEND
0
ENDBLK
0
BLOCK
2
Circle
8
Meshes
70
64
10
0.0
20
0.0
30
0.0
3
Circle
0
POLYLINE
66
1
8
Meshes
62
250
70
64
71
60
72
57
0
VERTEX
8
Meshes
10
-5.659805
20
1.533775
30
0.328831
70
192
0
VERTEX
8
Meshes
10
-5.292688
20
0.970877
30
0.328831
70
192
0
VERTEX
8
Meshes
10
-5.019897
20
0.328671
30
0.328831
70
192
0
VERTEX
8
Meshes
10
-4.851912
20
-0.368163
30
0.328831
70
192
0
VERTEX
8
Meshes
10
-4.795190
20
-1.092846
30
0.328831
70
192
0
VERTEX
8
Meshes
10
-4.851912
20
-1.817529
30
0.328831
70
192
0
VERTEX
8
Meshes
10
-5.019896
20
-2.514364
30
0.328831
70
192
0
VERTEX
8
Meshes
10
-5.292688
20
-3.156570
30
0.328831
70
192
0
VERTEX
8
Meshes
10
-5.659805
20
-3.719469
30
0.328831
70
192
0
VERTEX
8
Meshes
10
-6.107139
20
-4.181427
30
0.328831
70
192
0
VERTEX
8
Meshes
10
-6.617498
20
-4.524693
30
0.328831
70
192
0
VERTEX
8
Meshes
10
-7.747168
20
2.621758
30
0.328831
70
192
0
VERTEX
8
Meshes
10
-7.171264
20
2.550381
30
0.328831
70
192
0
VERTEX
8
Meshes
10
-6.617493
20
2.338998
30
0.328831
70
192
0
VERTEX
8
Meshes
10
-6.107134
20
1.995730
30
0.328831
70
192
0
VERTEX
8
Meshes
10
-6.390550
20
1.461993
30
0.328831
70
192
0
VERTEX
8
Meshes
10
-6.812713
20
1.745940
30
0.328831
70
192
0
VERTEX
8
Meshes
10
-7.270787
20
1.920794
30
0.328831
70
192
0
VERTEX
8
Meshes
10
-7.747169
20
1.979836
30
0.328831
70
192
0
VERTEX
8
Meshes
10
-6.812717
20
-3.931635
30
0.328831
70
192
0
VERTEX
8
Meshes
10
-6.390553
20
-3.647689
30
0.328831
70
192
0
VERTEX
8
Meshes
10
-6.020524
20
-3.265561
30
0.328831
70
192
0
VERTEX
8
Meshes
10
-5.716848
20
-2.799937
30
0.328831
70
192
0
VERTEX
8
Meshes
10
-5.491197
20
-2.268711
30
0.328831
70
192
0
VERTEX
8
Meshes
10
-5.352242
20
-1.692297
30
0.328831
70
192
0
VERTEX
8
Meshes
10
-5.305323
20
-1.092846
30
0.328831
70
192
0
VERTEX
8
Meshes
10
-5.352242
20
-0.493396
30
0.328831
70
192
0
VERTEX
8
Meshes
10
-5.491198
20
0.083018
30
0.328831
70
192
0
VERTEX
8
Meshes
10
-5.716848
20
0.614244
30
0.328831
70
192
0
VERTEX
8
Meshes
10
-6.020524
20
1.079868
30
0.328831
70
192
0
VERTEX
8
Meshes
10
-6.020524
20
1.079868
30
-0.272689
70
192
0
VERTEX
8
Meshes
10
-5.716848
20
0.614244
30
-0.272689
70
192
0
VERTEX
8
Meshes
10
-5.491198
20
0.083018
30
-0.272689
70
192
0
VERTEX
8
Meshes
10
-5.352242
20
-0.493396
30
-0.272689
70
192
0
VERTEX
8
Meshes
10
-5.305323
20
-1.092846
30
-0.272689
70
192
0
VERTEX
8
Meshes
10
-5.352242
20
-1.692297
30
-0.272689
70
192
0
VERTEX
8
Meshes
10
-5.491197
20
-2.268711
30
-0.272689
70
192
0
VERTEX
8
Meshes
10
-5.716848
20
-2.799937
30
-0.272689
70
192
0
VERTEX
8
Meshes
10
-6.020524
20
-3.265561
30
-0.272689
70
192
0
VERTEX
8
Meshes
10
-6.390553
20
-3.647689
30
-0.272689
70
192
0
VERTEX
8
Meshes
10
-6.812717
20
-3.931635
30
-0.272689
70
192
0
VERTEX
8
Meshes
10
-7.747169
20
1.979836
30
-0.272689
70
192
0
VERTEX
8
Meshes
10
-7.270787
20
1.920794
30
-0.272689
70
192
0
VERTEX
8
Meshes
10
-6.812713
20
1.745940
30
-0.272689
70
192
0
VERTEX
8
Meshes
10
-6.390550
20
1.461993
30
-0.272689
70
192
0
VERTEX
8
Meshes
10
-6.107134
20
1.995730
30
-0.272689
70
192
0
VERTEX
8
Meshes
10
-6.617493
20
2.338998
30
-0.272689
70
192
0
VERTEX
8
Meshes
10
-7.171264
20
2.550381
30
-0.272689
70
192
0
VERTEX
8
Meshes
10
-7.747168
20
2.621758
30
-0.272689
70
192
0
VERTEX
8
Meshes
10
-6.617498
20
-4.524693
30
-0.272689
70
192
0
VERTEX
8
Meshes
10
-6.107139
20
-4.181427
30
-0.272689
70
192
0
VERTEX
8
Meshes
10
-5.659805
20
-3.719469
30
-0.272689
70
192
0
VERTEX
8
Meshes
10
-5.292688
20
-3.156570
30
-0.272689
70
192
0
VERTEX
8
Meshes
10
-5.019896
20
-2.514364
30
-0.272689
70
192
0
VERTEX
8
Meshes
10
-4.851912
20
-1.817529
30
-0.272689
70
192
0
VERTEX
8
Meshes
10
-4.795190
20
-1.092846
30
-0.272689
70
192
0
VERTEX
8
Meshes
10
-4.851912
20
-0.368163
30
-0.272689
70
192
0
VERTEX
8
Meshes
10
-5.019897
20
0.328671
30
-0.272689
70
192
0
VERTEX
8
Meshes
10
-5.292688
20
0.970877
30
-0.272689
70
192
0
VERTEX
8
Meshes
10
-5.659805
20
1.533775
30
-0.272689
70
192
0
VERTEX
8
Meshes
62
250
10
0.0
20
0.0
30
0.0
70
128
71
15
72
1
73
30
74
16
0
VERTEX
8
Meshes
62
250
10
0.0
20
0.0
30
0.0
70
128
71
15
72
14
73
17
74
16
0
VERTEX
8
Meshes
62
250
10
0.0
20
0.0
30
0.0
70
128
71
14
72
13
73
18
74
17
0
VERTEX
8
Meshes
62
250
10
0.0
20
0.0
30
0.0
70
128
71
13
72
12
73
19
74
18
0
VERTEX
8
Meshes
62
250
10
0.0
20
0.0
30
0.0
70
128
71
10
72
11
73
20
74
21
0
VERTEX
8
Meshes
62
250
10
0.0
20
0.0
30
0.0
70
128
71
10
72
9
73
22
74
21
0
VERTEX
8
Meshes
62
250
10
0.0
20
0.0
30
0.0
70
128
71
9
72
8
73
23
74
22
0
VERTEX
8
Meshes
62
250
10
0.0
20
0.0
30
0.0
70
128
71
8
72
7
73
24
74
23
0
VERTEX
8
Meshes
62
250
10
0.0
20
0.0
30
0.0
70
128
71
7
72
6
73
25
74
24
0
VERTEX
8
Meshes
62
250
10
0.0
20
0.0
30
0.0
70
128
71
6
72
5
73
26
74
25
0
VERTEX
8
Meshes
62
250
10
0.0
20
0.0
30
0.0
70
128
71
4
72
5
73
26
74
27
0
VERTEX
8
Meshes
62
250
10
0.0
20
0.0
30
0.0
70
128
71
4
72
3
73
28
74
27
0
VERTEX
8
Meshes
62
250
10
0.0
20
0.0
30
0.0
70
128
71
3
72
2
73
29
74
28
0
VERTEX
8
Meshes
62
250
10
0.0
20
0.0
30
0.0
70
128
71
2
72
1
73
30
74
29
0
VERTEX
8
Meshes
62
250
10
0.0
20
0.0
30
0.0
70
128
71
29
72
30
73
31
74
32
0
VERTEX
8
Meshes
62
250
10
0.0
20
0.0
30
0.0
70
128
71
28
72
29
73
32
74
33
0
VERTEX
8
Meshes
62
250
10
0.0
20
0.0
30
0.0
70
128
71
27
72
28
73
33
74
34
0
VERTEX
8
Meshes
62
250
10
0.0
20
0.0
30
0.0
70
128
71
27
72
26
73
35
74
34
0
VERTEX
8
Meshes
62
250
10
0.0
20
0.0
30
0.0
70
128
71
25
72
26
73
35
74
36
0
VERTEX
8
Meshes
62
250
10
0.0
20
0.0
30
0.0
70
128
71
24
72
25
73
36
74
37
0
VERTEX
8
Meshes
62
250
10
0.0
20
0.0
30
0.0
70
128
71
23
72
24
73
37
74
38
0
VERTEX
8
Meshes
62
250
10
0.0
20
0.0
30
0.0
70
128
71
22
72
23
73
38
74
39
0
VERTEX
8
Meshes
62
250
10
0.0
20
0.0
30
0.0
70
128
71
21
72
22
73
39
74
40
0
VERTEX
8
Meshes
62
250
10
0.0
20
0.0
30
0.0
70
128
71
21
72
20
73
41
74
40
0
VERTEX
8
Meshes
62
250
10
0.0
20
0.0
30
0.0
70
128
71
20
72
11
73
50
74
41
0
VERTEX
8
Meshes
62
250
10
0.0
20
0.0
30
0.0
70
128
71
18
72
19
73
42
74
43
0
VERTEX
8
Meshes
62
250
10
0.0
20
0.0
30
0.0
70
128
71
17
72
18
73
43
74
44
0
VERTEX
8
Meshes
62
250
10
0.0
20
0.0
30
0.0
70
128
71
16
72
17
73
44
74
45
0
VERTEX
8
Meshes
62
250
10
0.0
20
0.0
30
0.0
70
128
71
16
72
30
73
31
74
45
0
VERTEX
8
Meshes
62
250
10
0.0
20
0.0
30
0.0
70
128
71
15
72
1
73
60
74
46
0
VERTEX
8
Meshes
62
250
10
0.0
20
0.0
30
0.0
70
128
71
15
72
14
73
47
74
46
0
VERTEX
8
Meshes
62
250
10
0.0
20
0.0
30
0.0
70
128
71
14
72
13
73
48
74
47
0
VERTEX
8
Meshes
62
250
10
0.0
20
0.0
30
0.0
70
128
71
13
72
12
73
49
74
48
0
VERTEX
8
Meshes
62
250
10
0.0
20
0.0
30
0.0
70
128
71
10
72
11
73
50
74
51
0
VERTEX
8
Meshes
62
250
10
0.0
20
0.0
30
0.0
70
128
71
10
72
9
73
52
74
51
0
VERTEX
8
Meshes
62
250
10
0.0
20
0.0
30
0.0
70
128
71
9
72
8
73
53
74
52
0
VERTEX
8
Meshes
62
250
10
0.0
20
0.0
30
0.0
70
128
71
8
72
7
73
54
74
53
0
VERTEX
8
Meshes
62
250
10
0.0
20
0.0
30
0.0
70
128
71
7
72
6
73
55
74
54
0
VERTEX
8
Meshes
62
250
10
0.0
20
0.0
30
0.0
70
128
71
6
72
5
73
56
74
55
0
VERTEX
8
Meshes
62
250
10
0.0
20
0.0
30
0.0
70
128
71
4
72
5
73
56
74
57
0
VERTEX
8
Meshes
62
250
10
0.0
20
0.0
30
0.0
70
128
71
4
72
3
73
58
74
57
0
VERTEX
8
Meshes
62
250
10
0.0
20
0.0
30
0.0
70
128
71
3
72
2
73
59
74
58
0
VERTEX
8
Meshes
62
250
10
0.0
20
0.0
30
0.0
70
128
71
2
72
1
73
60
74
59
0
VERTEX
8
Meshes
62
250
10
0.0
20
0.0
30
0.0
70
128
71
46
72
60
73
31
74
45
0
VERTEX
8
Meshes
62
250
10
0.0
20
0.0
30
0.0
70
128
71
46
72
47
73
44
74
45
0
VERTEX
8
Meshes
62
250
10
0.0
20
0.0
30
0.0
70
128
71
47
72
48
73
43
74
44
0
VERTEX
8
Meshes
62
250
10
0.0
20
0.0
30
0.0
70
128
71
48
72
49
73
42
74
43
0
VERTEX
8
Meshes
62
250
10
0.0
20
0.0
30
0.0
70
128
71
51
72
50
73
41
74
40
0
VERTEX
8
Meshes
62
250
10
0.0
20
0.0
30
0.0
70
128
71
51
72
52
73
39
74
40
0
VERTEX
8
Meshes
62
250
10
0.0
20
0.0
30
0.0
70
128
71
52
72
53
73
38
74
39
0
VERTEX
8
Meshes
62
250
10
0.0
20
0.0
30
0.0
70
128
71
53
72
54
73
37
74
38
0
VERTEX
8
Meshes
62
250
10
0.0
20
0.0
30
0.0
70
128
71
54
72
55
73
36
74
37
0
VERTEX
8
Meshes
62
250
10
0.0
20
0.0
30
0.0
70
128
71
55
72
56
73
35
74
36
0
VERTEX
8
Meshes
62
250
10
0.0
20
0.0
30
0.0
70
128
71
57
72
56
73
35
74
34
0
VERTEX
8
Meshes
62
250
10
0.0
20
0.0
30
0.0
70
128
71
57
72
58
73
33
74
34
0
VERTEX
8
Meshes
62
250
10
0.0
20
0.0
30
0.0
70
128
71
58
72
59
73
32
74
33
0
VERTEX
8
Meshes
62
250
10
0.0
20
0.0
30
0.0
70
128
71
59
72
60
73
31
74
32
0
SEQEND
0
ENDBLK
0
BLOCK
2
Sphere_002
8
Meshes
70
64
10
0.0
20
0.0
30
0.0
3
Sphere_002
0
POLYLINE
66
1
8
Meshes
62
250
70
64
71
86
72
96
0
VERTEX
8
Meshes
10
2.120516
20
0.000000
30
-16.111420
70
192
0
VERTEX
8
Meshes
10
2.770588
20
0.000000
30
-16.676001
70
192
0
VERTEX
8
Meshes
10
2.998862
20
0.000000
30
-17.341972
70
192
0
VERTEX
8
Meshes
10
0.993864
20
0.203848
30
-18.949768
70
192
0
VERTEX
8
Meshes
10
1.836421
20
0.376663
30
-18.572525
70
192
0
VERTEX
8
Meshes
10
2.399399
20
0.492133
30
-18.007944
70
192
0
VERTEX
8
Meshes
10
2.597091
20
0.532681
30
-17.341972
70
192
0
VERTEX
8
Meshes
10
2.399399
20
0.492133
30
-16.676001
70
192
0
VERTEX
8
Meshes
10
1.836421
20
0.376663
30
-16.111420
70
192
0
VERTEX
8
Meshes
10
0.993864
20
0.203848
30
-15.734178
70
192
0
VERTEX
8
Meshes
10
0.573807
20
0.353076
30
-15.734178
70
192
0
VERTEX
8
Meshes
10
1.060258
20
0.652399
30
-16.111420
70
192
0
VERTEX
8
Meshes
10
1.385294
20
0.852400
30
-16.676001
70
192
0
VERTEX
8
Meshes
10
1.499431
20
0.922631
30
-17.341972
70
192
0
VERTEX
8
Meshes
10
1.385294
20
0.852400
30
-18.007944
70
192
0
VERTEX
8
Meshes
10
1.060258
20
0.652399
30
-18.572525
70
192
0
VERTEX
8
Meshes
10
0.573808
20
0.353076
30
-18.949768
70
192
0
VERTEX
8
Meshes
10
-0.000000
20
0.407697
30
-18.949768
70
192
0
VERTEX
8
Meshes
10
-0.000000
20
0.753325
30
-18.572525
70
192
0
VERTEX
8
Meshes
10
-0.000000
20
0.984267
30
-18.007944
70
192
0
VERTEX
8
Meshes
10
-0.000000
20
1.065363
30
-17.341972
70
192
0
VERTEX
8
Meshes
10
-0.000000
20
0.984267
30
-16.676001
70
192
0
VERTEX
8
Meshes
10
-0.000000
20
0.753325
30
-16.111420
70
192
0
VERTEX
8
Meshes
10
-0.000000
20
0.407697
30
-15.734178
70
192
0
VERTEX
8
Meshes
10
-0.573808
20
0.353076
30
-15.734178
70
192
0
VERTEX
8
Meshes
10
-1.060258
20
0.652399
30
-16.111420
70
192
0
VERTEX
8
Meshes
10
-1.385294
20
0.852400
30
-16.676001
70
192
0
VERTEX
8
Meshes
10
-1.499431
20
0.922631
30
-17.341972
70
192
0
VERTEX
8
Meshes
10
-1.385294
20
0.852400
30
-18.007944
70
192
0
VERTEX
8
Meshes
10
-1.060258
20
0.652399
30
-18.572525
70
192
0
VERTEX
8
Meshes
10
-0.573808
20
0.353076
30
-18.949768
70
192
0
VERTEX
8
Meshes
10
-0.993864
20
0.203848
30
-18.949768
70
192
0
VERTEX
8
Meshes
10
-1.836421
20
0.376663
30
-18.572525
70
192
0
VERTEX
8
Meshes
10
-2.399399
20
0.492133
30
-18.007944
70
192
0
VERTEX
8
Meshes
10
-2.597091
20
0.532681
30
-17.341972
70
192
0
VERTEX
8
Meshes
10
-2.399399
20
0.492133
30
-16.676001
70
192
0
VERTEX
8
Meshes
10
-1.836421
20
0.376663
30
-16.111420
70
192
0
VERTEX
8
Meshes
10
-0.993864
20
0.203848
30
-15.734178
70
192
0
VERTEX
8
Meshes
10
0.000000
20
0.000000
30
-15.601707
70
192
0
VERTEX
8
Meshes
10
-1.147615
20
-0.000000
30
-15.734178
70
192
0
VERTEX
8
Meshes
10
-2.120516
20
0.000000
30
-16.111420
70
192
0
VERTEX
8
Meshes
10
-2.770588
20
0.000000
30
-16.676001
70
192
0
VERTEX
8
Meshes
10
-2.998862
20
-0.000000
30
-17.341972
70
192
0
VERTEX
8
Meshes
10
-2.770588
20
0.000000
30
-18.007944
70
192
0
VERTEX
8
Meshes
10
-2.120516
20
0.000000
30
-18.572525
70
192
0
VERTEX
8
Meshes
10
-1.147615
20
-0.000000
30
-18.949768
70
192
0
VERTEX
8
Meshes
10
-0.000000
20
-0.000000
30
-19.082237
70
192
0
VERTEX
8
Meshes
10
-0.993864
20
-0.203848
30
-18.949768
70
192
0
VERTEX
8
Meshes
10
-1.836421
20
-0.376663
30
-18.572525
70
192
0
VERTEX
8
Meshes
10
-2.399399
20
-0.492133
30
-18.007944
70
192
0
VERTEX
8
Meshes
10
-2.597091
20
-0.532681
30
-17.341972
70
192
0
VERTEX
8
Meshes
10
-2.399399
20
-0.492133
30
-16.676001
70
192
0
VERTEX
8
Meshes
10
-1.836421
20
-0.376663
30
-16.111420
70
192
0
VERTEX
8
Meshes
10
-0.993864
20
-0.203848
30
-15.734178
70
192
0
VERTEX
8
Meshes
10
-0.573807
20
-0.353076
30
-15.734178
70
192
0
VERTEX
8
Meshes
10
-1.060258
20
-0.652399
30
-16.111420
70
192
0
VERTEX
8
Meshes
10
-1.385294
20
-0.852400
30
-16.676001
70
192
0
VERTEX
8
Meshes
10
-1.499431
20
-0.922631
30
-17.341972
70
192
0
VERTEX
8
Meshes
10
-1.385294
20
-0.852400
30
-18.007944
70
192
0
VERTEX
8
Meshes
10
-1.060258
20
-0.652399
30
-18.572525
70
192
0
VERTEX
8
Meshes
10
-0.573807
20
-0.353076
30
-18.949768
70
192
0
VERTEX
8
Meshes
10
0.000000
20
-0.407697
30
-18.949768
70
192
0
VERTEX
8
Meshes
10
0.000000
20
-0.753325
30
-18.572525
70
192
0
VERTEX
8
Meshes
10
0.000000
20
-0.984267
30
-18.007944
70
192
0
VERTEX
8
Meshes
10
0.000000
20
-1.065363
30
-17.341972
70
192
0
VERTEX
8
Meshes
10
0.000000
20
-0.984267
30
-16.676001
70
192
0
VERTEX
8
Meshes
10
0.000000
20
-0.753325
30
-16.111420
70
192
0
VERTEX
8
Meshes
10
0.000000
20
-0.407697
30
-15.734178
70
192
0
VERTEX
8
Meshes
10
0.573807
20
-0.353076
30
-15.734178
70
192
0
VERTEX
8
Meshes
10
1.060258
20
-0.652399
30
-16.111420
70
192
0
VERTEX
8
Meshes
10
1.385294
20
-0.852400
30
-16.676001
70
192
0
VERTEX
8
Meshes
10
1.499431
20
-0.922631
30
-17.341972
70
192
0
VERTEX
8
Meshes
10
1.385294
20
-0.852400
30
-18.007944
70
192
0
VERTEX
8
Meshes
10
1.060258
20
-0.652399
30
-18.572525
70
192
0
VERTEX
8
Meshes
10
0.573808
20
-0.353076
30
-18.949768
70
192
0
VERTEX
8
Meshes
10
0.993864
20
-0.203848
30
-18.949768
70
192
0
VERTEX
8
Meshes
10
1.836421
20
-0.376663
30
-18.572525
70
192
0
VERTEX
8
Meshes
10
2.399399
20
-0.492133
30
-18.007944
70
192
0
VERTEX
8
Meshes
10
2.597091
20
-0.532681
30
-17.341972
70
192
0
VERTEX
8
Meshes
10
2.399399
20
-0.492133
30
-16.676001
70
192
0
VERTEX
8
Meshes
10
1.836421
20
-0.376663
30
-16.111420
70
192
0
VERTEX
8
Meshes
10
0.993864
20
-0.203848
30
-15.734178
70
192
0
VERTEX
8
Meshes
10
1.147615
20
0.000000
30
-15.734178
70
192
0
VERTEX
8
Meshes
10
2.770588
20
0.000000
30
-18.007944
70
192
0
VERTEX
8
Meshes
10
2.120516
20
0.000000
30
-18.572525
70
192
0
VERTEX
8
Meshes
10
1.147615
20
0.000000
30
-18.949768
70
192
0
VERTEX
8
Meshes
62
250
10
0.0
20
0.0
30
0.0
70
128
71
47
72
4
73
86
0
VERTEX
8
Meshes
62
250
10
0.0
20
0.0
30
0.0
70
128
71
86
72
4
73
5
74
85
0
VERTEX
8
Meshes
62
250
10
0.0
20
0.0
30
0.0
70
128
71
85
72
5
73
6
74
84
0
VERTEX
8
Meshes
62
250
10
0.0
20
0.0
30
0.0
70
128
71
84
72
6
73
7
74
3
0
VERTEX
8
Meshes
62
250
10
0.0
20
0.0
30
0.0
70
128
71
3
72
7
73
8
74
2
0
VERTEX
8
Meshes
62
250
10
0.0
20
0.0
30
0.0
70
128
71
9
72
1
73
2
74
8
0
VERTEX
8
Meshes
62
250
10
0.0
20
0.0
30
0.0
70
128
71
1
72
9
73
10
74
83
0
VERTEX
8
Meshes
62
250
10
0.0
20
0.0
30
0.0
70
128
71
83
72
10
73
39
0
VERTEX
8
Meshes
62
250
10
0.0
20
0.0
30
0.0
70
128
71
10
72
11
73
39
0
VERTEX
8
Meshes
62
250
10
0.0
20
0.0
30
0.0
70
128
71
9
72
12
73
11
74
10
0
VERTEX
8
Meshes
62
250
10
0.0
20
0.0
30
0.0
70
128
71
8
72
13
73
12
74
9
0
VERTEX
8
Meshes
62
250
10
0.0
20
0.0
30
0.0
70
128
71
7
72
14
73
13
74
8
0
VERTEX
8
Meshes
62
250
10
0.0
20
0.0
30
0.0
70
128
71
6
72
15
73
14
74
7
0
VERTEX
8
Meshes
62
250
10
0.0
20
0.0
30
0.0
70
128
71
5
72
16
73
15
74
6
0
VERTEX
8
Meshes
62
250
10
0.0
20
0.0
30
0.0
70
128
71
4
72
17
73
16
74
5
0
VERTEX
8
Meshes
62
250
10
0.0
20
0.0
30
0.0
70
128
71
47
72
17
73
4
0
VERTEX
8
Meshes
62
250
10
0.0
20
0.0
30
0.0
70
128
71
47
72
18
73
17
0
VERTEX
8
Meshes
62
250
10
0.0
20
0.0
30
0.0
70
128
71
17
72
18
73
19
74
16
0
VERTEX
8
Meshes
62
250
10
0.0
20
0.0
30
0.0
70
128
71
16
72
19
73
20
74
15
0
VERTEX
8
Meshes
62
250
10
0.0
20
0.0
30
0.0
70
128
71
15
72
20
73
21
74
14
0
VERTEX
8
Meshes
62
250
10
0.0
20
0.0
30
0.0
70
128
71
14
72
21
73
22
74
13
0
VERTEX
8
Meshes
62
250
10
0.0
20
0.0
30
0.0
70
128
71
13
72
22
73
23
74
12
0
VERTEX
8
Meshes
62
250
10
0.0
20
0.0
30
0.0
70
128
71
12
72
23
73
24
74
11
0
VERTEX
8
Meshes
62
250
10
0.0
20
0.0
30
0.0
70
128
71
11
72
24
73
39
0
VERTEX
8
Meshes
62
250
10
0.0
20
0.0
30
0.0
70
128
71
24
72
25
73
39
0
VERTEX
8
Meshes
62
250
10
0.0
20
0.0
30
0.0
70
128
71
23
72
26
73
25
74
24
0
VERTEX
8
Meshes
62
250
10
0.0
20
0.0
30
0.0
70
128
71
22
72
27
73
26
74
23
0
VERTEX
8
Meshes
62
250
10
0.0
20
0.0
30
0.0
70
128
71
21
72
28
73
27
74
22
0
VERTEX
8
Meshes
62
250
10
0.0
20
0.0
30
0.0
70
128
71
20
72
29
73
28
74
21
0
VERTEX
8
Meshes
62
250
10
0.0
20
0.0
30
0.0
70
128
71
19
72
30
73
29
74
20
0
VERTEX
8
Meshes
62
250
10
0.0
20
0.0
30
0.0
70
128
71
18
72
31
73
30
74
19
0
VERTEX
8
Meshes
62
250
10
0.0
20
0.0
30
0.0
70
128
71
47
72
31
73
18
0
VERTEX
8
Meshes
62
250
10
0.0
20
0.0
30
0.0
70
128
71
47
72
32
73
31
0
VERTEX
8
Meshes
62
250
10
0.0
20
0.0
30
0.0
70
128
71
31
72
32
73
33
74
30
0
VERTEX
8
Meshes
62
250
10
0.0
20
0.0
30
0.0
70
128
71
30
72
33
73
34
74
29
0
VERTEX
8
Meshes
62
250
10
0.0
20
0.0
30
0.0
70
128
71
29
72
34
73
35
74
28
0
VERTEX
8
Meshes
62
250
10
0.0
20
0.0
30
0.0
70
128
71
28
72
35
73
36
74
27
0
VERTEX
8
Meshes
62
250
10
0.0
20
0.0
30
0.0
70
128
71
27
72
36
73
37
74
26
0
VERTEX
8
Meshes
62
250
10
0.0
20
0.0
30
0.0
70
128
71
26
72
37
73
38
74
25
0
VERTEX
8
Meshes
62
250
10
0.0
20
0.0
30
0.0
70
128
71
25
72
38
73
39
0
VERTEX
8
Meshes
62
250
10
0.0
20
0.0
30
0.0
70
128
71
38
72
40
73
39
0
VERTEX
8
Meshes
62
250
10
0.0
20
0.0
30
0.0
70
128
71
37
72
41
73
40
74
38
0
VERTEX
8
Meshes
62
250
10
0.0
20
0.0
30
0.0
70
128
71
36
72
42
73
41
74
37
0
VERTEX
8
Meshes
62
250
10
0.0
20
0.0
30
0.0
70
128
71
35
72
43
73
42
74
36
0
VERTEX
8
Meshes
62
250
10
0.0
20
0.0
30
0.0
70
128
71
34
72
44
73
43
74
35
0
VERTEX
8
Meshes
62
250
10
0.0
20
0.0
30
0.0
70
128
71
33
72
45
73
44
74
34
0
VERTEX
8
Meshes
62
250
10
0.0
20
0.0
30
0.0
70
128
71
32
72
46
73
45
74
33
0
VERTEX
8
Meshes
62
250
10
0.0
20
0.0
30
0.0
70
128
71
47
72
46
73
32
0
VERTEX
8
Meshes
62
250
10
0.0
20
0.0
30
0.0
70
128
71
47
72
48
73
46
0
VERTEX
8
Meshes
62
250
10
0.0
20
0.0
30
0.0
70
128
71
46
72
48
73
49
74
45
0
VERTEX
8
Meshes
62
250
10
0.0
20
0.0
30
0.0
70
128
71
45
72
49
73
50
74
44
0
VERTEX
8
Meshes
62
250
10
0.0
20
0.0
30
0.0
70
128
71
44
72
50
73
51
74
43
0
VERTEX
8
Meshes
62
250
10
0.0
20
0.0
30
0.0
70
128
71
43
72
51
73
52
74
42
0
VERTEX
8
Meshes
62
250
10
0.0
20
0.0
30
0.0
70
128
71
42
72
52
73
53
74
41
0
VERTEX
8
Meshes
62
250
10
0.0
20
0.0
30
0.0
70
128
71
41
72
53
73
54
74
40
0
VERTEX
8
Meshes
62
250
10
0.0
20
0.0
30
0.0
70
128
71
40
72
54
73
39
0
VERTEX
8
Meshes
62
250
10
0.0
20
0.0
30
0.0
70
128
71
54
72
55
73
39
0
VERTEX
8
Meshes
62
250
10
0.0
20
0.0
30
0.0
70
128
71
53
72
56
73
55
74
54
0
VERTEX
8
Meshes
62
250
10
0.0
20
0.0
30
0.0
70
128
71
52
72
57
73
56
74
53
0
VERTEX
8
Meshes
62
250
10
0.0
20
0.0
30
0.0
70
128
71
51
72
58
73
57
74
52
0
VERTEX
8
Meshes
62
250
10
0.0
20
0.0
30
0.0
70
128
71
50
72
59
73
58
74
51
0
VERTEX
8
Meshes
62
250
10
0.0
20
0.0
30
0.0
70
128
71
49
72
60
73
59
74
50
0
VERTEX
8
Meshes
62
250
10
0.0
20
0.0
30
0.0
70
128
71
48
72
61
73
60
74
49
0
VERTEX
8
Meshes
62
250
10
0.0
20
0.0
30
0.0
70
128
71
47
72
61
73
48
0
VERTEX
8
Meshes
62
250
10
0.0
20
0.0
30
0.0
70
128
71
47
72
62
73
61
0
VERTEX
8
Meshes
62
250
10
0.0
20
0.0
30
0.0
70
128
71
61
72
62
73
63
74
60
0
VERTEX
8
Meshes
62
250
10
0.0
20
0.0
30
0.0
70
128
71
60
72
63
73
64
74
59
0
VERTEX
8
Meshes
62
250
10
0.0
20
0.0
30
0.0
70
128
71
59
72
64
73
65
74
58
0
VERTEX
8
Meshes
62
250
10
0.0
20
0.0
30
0.0
70
128
71
58
72
65
73
66
74
57
0
VERTEX
8
Meshes
62
250
10
0.0
20
0.0
30
0.0
70
128
71
57
72
66
73
67
74
56
0
VERTEX
8
Meshes
62
250
10
0.0
20
0.0
30
0.0
70
128
71
56
72
67
73
68
74
55
0
VERTEX
8
Meshes
62
250
10
0.0
20
0.0
30
0.0
70
128
71
55
72
68
73
39
0
VERTEX
8
Meshes
62
250
10
0.0
20
0.0
30
0.0
70
128
71
68
72
69
73
39
0
VERTEX
8
Meshes
62
250
10
0.0
20
0.0
30
0.0
70
128
71
67
72
70
73
69
74
68
0
VERTEX
8
Meshes
62
250
10
0.0
20
0.0
30
0.0
70
128
71
66
72
71
73
70
74
67
0
VERTEX
8
Meshes
62
250
10
0.0
20
0.0
30
0.0
70
128
71
65
72
72
73
71
74
66
0
VERTEX
8
Meshes
62
250
10
0.0
20
0.0
30
0.0
70
128
71
64
72
73
73
72
74
65
0
VERTEX
8
Meshes
62
250
10
0.0
20
0.0
30
0.0
70
128
71
63
72
74
73
73
74
64
0
VERTEX
8
Meshes
62
250
10
0.0
20
0.0
30
0.0
70
128
71
62
72
75
73
74
74
63
0
VERTEX
8
Meshes
62
250
10
0.0
20
0.0
30
0.0
70
128
71
47
72
75
73
62
0
VERTEX
8
Meshes
62
250
10
0.0
20
0.0
30
0.0
70
128
71
47
72
76
73
75
0
VERTEX
8
Meshes
62
250
10
0.0
20
0.0
30
0.0
70
128
71
75
72
76
73
77
74
74
0
VERTEX
8
Meshes
62
250
10
0.0
20
0.0
30
0.0
70
128
71
74
72
77
73
78
74
73
0
VERTEX
8
Meshes
62
250
10
0.0
20
0.0
30
0.0
70
128
71
73
72
78
73
79
74
72
0
VERTEX
8
Meshes
62
250
10
0.0
20
0.0
30
0.0
70
128
71
72
72
79
73
80
74
71
0
VERTEX
8
Meshes
62
250
10
0.0
20
0.0
30
0.0
70
128
71
71
72
80
73
81
74
70
0
VERTEX
8
Meshes
62
250
10
0.0
20
0.0
30
0.0
70
128
71
70
72
81
73
82
74
69
0
VERTEX
8
Meshes
62
250
10
0.0
20
0.0
30
0.0
70
128
71
69
72
82
73
39
0
VERTEX
8
Meshes
62
250
10
0.0
20
0.0
30
0.0
70
128
71
82
72
83
73
39
0
VERTEX
8
Meshes
62
250
10
0.0
20
0.0
30
0.0
70
128
71
81
72
1
73
83
74
82
0
VERTEX
8
Meshes
62
250
10
0.0
20
0.0
30
0.0
70
128
71
1
72
81
73
80
74
2
0
VERTEX
8
Meshes
62
250
10
0.0
20
0.0
30
0.0
70
128
71
79
72
3
73
2
74
80
0
VERTEX
8
Meshes
62
250
10
0.0
20
0.0
30
0.0
70
128
71
78
72
84
73
3
74
79
0
VERTEX
8
Meshes
62
250
10
0.0
20
0.0
30
0.0
70
128
71
77
72
85
73
84
74
78
0
VERTEX
8
Meshes
62
250
10
0.0
20
0.0
30
0.0
70
128
71
76
72
86
73
85
74
77
0
VERTEX
8
Meshes
62
250
10
0.0
20
0.0
30
0.0
70
128
71
47
72
86
73
76
0
SEQEND
0
ENDBLK
0
ENDSEC
0
SECTION
2
ENTITIES
0
INSERT
8
2
2
Sphere_002
10
-2.456602
20
-0.000779
30
7.401551
41
1.000000
42
1.000000
43
1.000000
50
0.000000
0
INSERT
8
4
2
Circle
10
8.143778
20
0.028762
30
7.401551
41
1.000000
42
1.000000
43
1.000000
50
0.000000
0
INSERT
8
1
2
Cylinder
10
0.000000
20
0.000000
30
0.000000
41
1.000000
42
1.000000
43
1.000000
50
0.000000
0
ENDSEC
0
EOF
