  0
SECTION
  2
HEADER
  0
ENDSEC
  0
SECTION
  2
BLOCKS
  0
BLOCK
  8
Meshes
  2
Cylinder
 70
    64
 10
0
 20
0
 30
0
  3
Cylinder
  0
3DFACE
  8
0
 62
   250
 10
0.354293
 20
0.354293
 30
-10.0281
 11
0.354294
 21
0.354292
 31
10.0281
 12
0.416605
 22
0.278365
 32
10.0281
 13
0.416605
 23
0.278366
 33
-10.0281
  0
3DFACE
  8
0
 62
   250
 10
0.416605
 20
0.278366
 30
-10.0281
 11
0.416605
 21
0.278365
 31
10.0281
 12
0.462907
 22
0.191741
 32
10.0281
 13
0.462906
 23
0.191742
 33
-10.0281
  0
3DFACE
  8
0
 62
   250
 10
0.462906
 20
0.191742
 30
-10.0281
 11
0.462907
 21
0.191741
 31
10.0281
 12
0.491419
 22
0.097748
 32
10.0281
 13
0.491419
 23
0.097749
 33
-10.0281
  0
3DFACE
  8
0
 62
   250
 10
0.491419
 20
0.097749
 30
-10.0281
 11
0.491419
 21
0.097748
 31
10.0281
 12
0.501046
 22
-1e-006
 32
10.0281
 13
0.501046
 23
0
 33
-10.0281
  0
3DFACE
  8
0
 62
   250
 10
0.501046
 20
0
 30
-10.0281
 11
0.501046
 21
-1e-006
 31
10.0281
 12
0.491418
 22
-0.09775
 32
10.0281
 13
0.491419
 23
-0.097749
 33
-10.0281
  0
3DFACE
  8
0
 62
   250
 10
0.491419
 20
-0.097749
 30
-10.0281
 11
0.491418
 21
-0.09775
 31
10.0281
 12
0.462906
 22
-0.191743
 32
10.0281
 13
0.462906
 23
-0.191742
 33
-10.0281
  0
3DFACE
  8
0
 62
   250
 10
0.462906
 20
-0.191742
 30
-10.0281
 11
0.462906
 21
-0.191743
 31
10.0281
 12
0.416604
 22
-0.278367
 32
10.0281
 13
0.416605
 23
-0.278366
 33
-10.0281
  0
3DFACE
  8
0
 62
   250
 10
0.416605
 20
-0.278366
 30
-10.0281
 11
0.416604
 21
-0.278367
 31
10.0281
 12
0.354293
 22
-0.354293
 32
10.0281
 13
0.354293
 23
-0.354293
 33
-10.0281
  0
3DFACE
  8
0
 62
   250
 10
0.354293
 20
-0.354293
 30
-10.0281
 11
0.354293
 21
-0.354293
 31
10.0281
 12
0.278366
 22
-0.416605
 32
10.0281
 13
0.278366
 23
-0.416605
 33
-10.0281
  0
3DFACE
  8
0
 62
   250
 10
0.278366
 20
-0.416605
 30
-10.0281
 11
0.278366
 21
-0.416605
 31
10.0281
 12
0.191742
 22
-0.462906
 32
10.0281
 13
0.191742
 23
-0.462906
 33
-10.0281
  0
3DFACE
  8
0
 62
   250
 10
0.191742
 20
-0.462906
 30
-10.0281
 11
0.191742
 21
-0.462906
 31
10.0281
 12
0.097749
 22
-0.491418
 32
10.0281
 13
0.097749
 23
-0.491419
 33
-10.0281
  0
3DFACE
  8
0
 62
   250
 10
0.097749
 20
-0.491419
 30
-10.0281
 11
0.097749
 21
-0.491418
 31
10.0281
 12
0
 22
-0.501046
 32
10.0281
 13
0
 23
-0.501046
 33
-10.0281
  0
3DFACE
  8
0
 62
   250
 10
0
 20
-0.501046
 30
-10.0281
 11
0
 21
-0.501046
 31
10.0281
 12
-0.097749
 22
-0.491419
 32
10.0281
 13
-0.097749
 23
-0.491418
 33
-10.0281
  0
3DFACE
  8
0
 62
   250
 10
-0.097749
 20
-0.491418
 30
-10.0281
 11
-0.097749
 21
-0.491419
 31
10.0281
 12
-0.191741
 22
-0.462906
 32
10.0281
 13
-0.191742
 23
-0.462906
 33
-10.0281
  0
3DFACE
  8
0
 62
   250
 10
-0.191742
 20
-0.462906
 30
-10.0281
 11
-0.191741
 21
-0.462906
 31
10.0281
 12
-0.278365
 22
-0.416605
 32
10.0281
 13
-0.278366
 23
-0.416604
 33
-10.0281
  0
3DFACE
  8
0
 62
   250
 10
-0.278366
 20
-0.416604
 30
-10.0281
 11
-0.278365
 21
-0.416605
 31
10.0281
 12
-0.354292
 22
-0.354294
 32
10.0281
 13
-0.354293
 23
-0.354293
 33
-10.0281
  0
3DFACE
  8
0
 62
   250
 10
-0.354293
 20
-0.354293
 30
-10.0281
 11
-0.354292
 21
-0.354294
 31
10.0281
 12
-0.416604
 22
-0.278367
 32
10.0281
 13
-0.416605
 23
-0.278366
 33
-10.0281
  0
3DFACE
  8
0
 62
   250
 10
-0.416605
 20
-0.278366
 30
-10.0281
 11
-0.416604
 21
-0.278367
 31
10.0281
 12
-0.462905
 22
-0.191744
 32
10.0281
 13
-0.462906
 23
-0.191742
 33
-10.0281
  0
3DFACE
  8
0
 62
   250
 10
-0.462906
 20
-0.191742
 30
-10.0281
 11
-0.462905
 21
-0.191744
 31
10.0281
 12
-0.491418
 22
-0.097751
 32
10.0281
 13
-0.491419
 23
-0.097749
 33
-10.0281
  0
3DFACE
  8
0
 62
   250
 10
-0.491419
 20
-0.097749
 30
-10.0281
 11
-0.491418
 21
-0.097751
 31
10.0281
 12
-0.501046
 22
-2e-006
 32
10.0281
 13
-0.501046
 23
0
 33
-10.0281
  0
3DFACE
  8
0
 62
   250
 10
-0.501046
 20
0
 30
-10.0281
 11
-0.501046
 21
-2e-006
 31
10.0281
 12
-0.491419
 22
0.097747
 32
10.0281
 13
-0.491418
 23
0.09775
 33
-10.0281
  0
3DFACE
  8
0
 62
   250
 10
-0.491418
 20
0.09775
 30
-10.0281
 11
-0.491419
 21
0.097747
 31
10.0281
 12
-0.462907
 22
0.19174
 32
10.0281
 13
-0.462906
 23
0.191743
 33
-10.0281
  0
3DFACE
  8
0
 62
   250
 10
-0.462906
 20
0.191743
 30
-10.0281
 11
-0.462907
 21
0.19174
 31
10.0281
 12
-0.416606
 22
0.278364
 32
10.0281
 13
-0.416604
 23
0.278367
 33
-10.0281
  0
3DFACE
  8
0
 62
   250
 10
-0.416604
 20
0.278367
 30
-10.0281
 11
-0.416606
 21
0.278364
 31
10.0281
 12
-0.354295
 22
0.354291
 32
10.0281
 13
-0.354293
 23
0.354293
 33
-10.0281
  0
3DFACE
  8
0
 62
   250
 10
-0.354293
 20
0.354293
 30
-10.0281
 11
-0.354295
 21
0.354291
 31
10.0281
 12
-0.278369
 22
0.416603
 32
10.0281
 13
-0.278366
 23
0.416605
 33
-10.0281
  0
3DFACE
  8
0
 62
   250
 10
-0.278366
 20
0.416605
 30
-10.0281
 11
-0.278369
 21
0.416603
 31
10.0281
 12
-0.191745
 22
0.462905
 32
10.0281
 13
-0.191741
 23
0.462906
 33
-10.0281
  0
3DFACE
  8
0
 62
   250
 10
-0.191741
 20
0.462906
 30
-10.0281
 11
-0.191745
 21
0.462905
 31
10.0281
 12
-0.097753
 22
0.491418
 32
10.0281
 13
-0.097748
 23
0.491419
 33
-10.0281
  0
3DFACE
  8
0
 62
   250
 10
-0.097748
 20
0.491419
 30
-10.0281
 11
-0.097753
 21
0.491418
 31
10.0281
 12
-4e-006
 22
0.501046
 32
10.0281
 13
1e-006
 23
0.501046
 33
-10.0281
  0
3DFACE
  8
0
 62
   250
 10
1e-006
 20
0.501046
 30
-10.0281
 11
-4e-006
 21
0.501046
 31
10.0281
 12
0.097745
 22
0.491419
 32
10.0281
 13
0.09775
 23
0.491418
 33
-10.0281
  0
3DFACE
  8
0
 62
   250
 10
0.09775
 20
0.491418
 30
-10.0281
 11
0.097745
 21
0.491419
 31
10.0281
 12
0.191738
 22
0.462908
 32
10.0281
 13
0.191743
 23
0.462906
 33
-10.0281
  0
3DFACE
  8
0
 62
   250
 10
0.191743
 20
0.462906
 30
-10.0281
 11
0.191738
 21
0.462908
 31
10.0281
 12
0.278363
 22
0.416607
 32
10.0281
 13
0.278367
 23
0.416604
 33
-10.0281
  0
3DFACE
  8
0
 62
   250
 10
0.354294
 20
0.354292
 30
10.0281
 11
0.354293
 21
0.354293
 31
-10.0281
 12
0.278367
 22
0.416604
 32
-10.0281
 13
0.278363
 23
0.416607
 33
10.0281
  0
3DFACE
  8
0
 62
   250
 10
-4e-006
 20
0.501046
 30
10.0281
 11
-0.097753
 21
0.491418
 31
10.0281
 12
0.191738
 22
0.462908
 32
10.0281
 13
0.097745
 23
0.491419
 33
10.0281
  0
3DFACE
  8
0
 62
   250
 10
-0.097753
 20
0.491418
 30
10.0281
 11
-0.191745
 21
0.462905
 31
10.0281
 12
0.278363
 22
0.416607
 32
10.0281
 13
0.191738
 23
0.462908
 33
10.0281
  0
3DFACE
  8
0
 62
   250
 10
-0.191745
 20
0.462905
 30
10.0281
 11
-0.278369
 21
0.416603
 31
10.0281
 12
0.354294
 22
0.354292
 32
10.0281
 13
0.278363
 23
0.416607
 33
10.0281
  0
3DFACE
  8
0
 62
   250
 10
-0.278369
 20
0.416603
 30
10.0281
 11
-0.354295
 21
0.354291
 31
10.0281
 12
0.416605
 22
0.278365
 32
10.0281
 13
0.354294
 23
0.354292
 33
10.0281
  0
3DFACE
  8
0
 62
   250
 10
-0.354295
 20
0.354291
 30
10.0281
 11
-0.416606
 21
0.278364
 31
10.0281
 12
0.462907
 22
0.191741
 32
10.0281
 13
0.416605
 23
0.278365
 33
10.0281
  0
3DFACE
  8
0
 62
   250
 10
-0.416606
 20
0.278364
 30
10.0281
 11
-0.462907
 21
0.19174
 31
10.0281
 12
0.491419
 22
0.097748
 32
10.0281
 13
0.462907
 23
0.191741
 33
10.0281
  0
3DFACE
  8
0
 62
   250
 10
-0.462907
 20
0.19174
 30
10.0281
 11
-0.491419
 21
0.097747
 31
10.0281
 12
0.501046
 22
-1e-006
 32
10.0281
 13
0.491419
 23
0.097748
 33
10.0281
  0
3DFACE
  8
0
 62
   250
 10
-0.491419
 20
0.097747
 30
10.0281
 11
-0.501046
 21
-2e-006
 31
10.0281
 12
0.491418
 22
-0.09775
 32
10.0281
 13
0.501046
 23
-1e-006
 33
10.0281
  0
3DFACE
  8
0
 62
   250
 10
-0.501046
 20
-2e-006
 30
10.0281
 11
-0.491418
 21
-0.097751
 31
10.0281
 12
0.462906
 22
-0.191743
 32
10.0281
 13
0.491418
 23
-0.09775
 33
10.0281
  0
3DFACE
  8
0
 62
   250
 10
-0.491418
 20
-0.097751
 30
10.0281
 11
-0.462905
 21
-0.191744
 31
10.0281
 12
0.416604
 22
-0.278367
 32
10.0281
 13
0.462906
 23
-0.191743
 33
10.0281
  0
3DFACE
  8
0
 62
   250
 10
-0.462905
 20
-0.191744
 30
10.0281
 11
-0.416604
 21
-0.278367
 31
10.0281
 12
0.354293
 22
-0.354293
 32
10.0281
 13
0.416604
 23
-0.278367
 33
10.0281
  0
3DFACE
  8
0
 62
   250
 10
-0.416604
 20
-0.278367
 30
10.0281
 11
-0.354292
 21
-0.354294
 31
10.0281
 12
0.278366
 22
-0.416605
 32
10.0281
 13
0.354293
 23
-0.354293
 33
10.0281
  0
3DFACE
  8
0
 62
   250
 10
-0.354292
 20
-0.354294
 30
10.0281
 11
-0.278365
 21
-0.416605
 31
10.0281
 12
0.191742
 22
-0.462906
 32
10.0281
 13
0.278366
 23
-0.416605
 33
10.0281
  0
3DFACE
  8
0
 62
   250
 10
-0.278365
 20
-0.416605
 30
10.0281
 11
-0.191741
 21
-0.462906
 31
10.0281
 12
0.097749
 22
-0.491418
 32
10.0281
 13
0.191742
 23
-0.462906
 33
10.0281
  0
3DFACE
  8
0
 62
   250
 10
-0.191741
 20
-0.462906
 30
10.0281
 11
-0.097749
 21
-0.491419
 31
10.0281
 12
0
 22
-0.501046
 32
10.0281
 13
0.097749
 23
-0.491418
 33
10.0281
  0
ENDBLK
  8
0
  0
BLOCK
  8
Meshes
  2
Circle
 70
    64
 10
0
 20
0
 30
0
  3
Circle
  0
3DFACE
  8
0
 62
   250
 10
-6.10713
 20
1.99573
 30
0.328831
 11
-5.6598
 21
1.53377
 31
0.328831
 12
-6.02052
 22
1.07987
 32
0.328831
 13
-6.39055
 23
1.46199
 33
0.328831
  0
3DFACE
  8
0
 62
   250
 10
-6.10713
 20
1.99573
 30
0.328831
 11
-6.61749
 21
2.339
 31
0.328831
 12
-6.81271
 22
1.74594
 32
0.328831
 13
-6.39055
 23
1.46199
 33
0.328831
  0
3DFACE
  8
0
 62
   250
 10
-6.61749
 20
2.339
 30
0.328831
 11
-7.17126
 21
2.55038
 31
0.328831
 12
-7.27079
 22
1.92079
 32
0.328831
 13
-6.81271
 23
1.74594
 33
0.328831
  0
3DFACE
  8
0
 62
   250
 10
-7.17126
 20
2.55038
 30
0.328831
 11
-7.74717
 21
2.62176
 31
0.328831
 12
-7.74717
 22
1.97984
 32
0.328831
 13
-7.27079
 23
1.92079
 33
0.328831
  0
3DFACE
  8
0
 62
   250
 10
-6.10714
 20
-4.18143
 30
0.328831
 11
-6.6175
 21
-4.52469
 31
0.328831
 12
-6.81272
 22
-3.93163
 32
0.328831
 13
-6.39055
 23
-3.64769
 33
0.328831
  0
3DFACE
  8
0
 62
   250
 10
-6.10714
 20
-4.18143
 30
0.328831
 11
-5.6598
 21
-3.71947
 31
0.328831
 12
-6.02052
 22
-3.26556
 32
0.328831
 13
-6.39055
 23
-3.64769
 33
0.328831
  0
3DFACE
  8
0
 62
   250
 10
-5.6598
 20
-3.71947
 30
0.328831
 11
-5.29269
 21
-3.15657
 31
0.328831
 12
-5.71685
 22
-2.79994
 32
0.328831
 13
-6.02052
 23
-3.26556
 33
0.328831
  0
3DFACE
  8
0
 62
   250
 10
-5.29269
 20
-3.15657
 30
0.328831
 11
-5.0199
 21
-2.51436
 31
0.328831
 12
-5.4912
 22
-2.26871
 32
0.328831
 13
-5.71685
 23
-2.79994
 33
0.328831
  0
3DFACE
  8
0
 62
   250
 10
-5.0199
 20
-2.51436
 30
0.328831
 11
-4.85191
 21
-1.81753
 31
0.328831
 12
-5.35224
 22
-1.6923
 32
0.328831
 13
-5.4912
 23
-2.26871
 33
0.328831
  0
3DFACE
  8
0
 62
   250
 10
-4.85191
 20
-1.81753
 30
0.328831
 11
-4.79519
 21
-1.09285
 31
0.328831
 12
-5.30532
 22
-1.09285
 32
0.328831
 13
-5.35224
 23
-1.6923
 33
0.328831
  0
3DFACE
  8
0
 62
   250
 10
-4.85191
 20
-0.368163
 30
0.328831
 11
-4.79519
 21
-1.09285
 31
0.328831
 12
-5.30532
 22
-1.09285
 32
0.328831
 13
-5.35224
 23
-0.493396
 33
0.328831
  0
3DFACE
  8
0
 62
   250
 10
-4.85191
 20
-0.368163
 30
0.328831
 11
-5.0199
 21
0.328671
 31
0.328831
 12
-5.4912
 22
0.083018
 32
0.328831
 13
-5.35224
 23
-0.493396
 33
0.328831
  0
3DFACE
  8
0
 62
   250
 10
-5.0199
 20
0.328671
 30
0.328831
 11
-5.29269
 21
0.970877
 31
0.328831
 12
-5.71685
 22
0.614244
 32
0.328831
 13
-5.4912
 23
0.083018
 33
0.328831
  0
3DFACE
  8
0
 62
   250
 10
-5.29269
 20
0.970877
 30
0.328831
 11
-5.6598
 21
1.53377
 31
0.328831
 12
-6.02052
 22
1.07987
 32
0.328831
 13
-5.71685
 23
0.614244
 33
0.328831
  0
3DFACE
  8
0
 62
   250
 10
-5.71685
 20
0.614244
 30
0.328831
 11
-6.02052
 21
1.07987
 31
0.328831
 12
-6.02052
 22
1.07987
 32
-0.272689
 13
-5.71685
 23
0.614244
 33
-0.272689
  0
3DFACE
  8
0
 62
   250
 10
-5.4912
 20
0.083018
 30
0.328831
 11
-5.71685
 21
0.614244
 31
0.328831
 12
-5.71685
 22
0.614244
 32
-0.272689
 13
-5.4912
 23
0.083018
 33
-0.272689
  0
3DFACE
  8
0
 62
   250
 10
-5.35224
 20
-0.493396
 30
0.328831
 11
-5.4912
 21
0.083018
 31
0.328831
 12
-5.4912
 22
0.083018
 32
-0.272689
 13
-5.35224
 23
-0.493396
 33
-0.272689
  0
3DFACE
  8
0
 62
   250
 10
-5.35224
 20
-0.493396
 30
0.328831
 11
-5.30532
 21
-1.09285
 31
0.328831
 12
-5.30532
 22
-1.09285
 32
-0.272689
 13
-5.35224
 23
-0.493396
 33
-0.272689
  0
3DFACE
  8
0
 62
   250
 10
-5.35224
 20
-1.6923
 30
0.328831
 11
-5.30532
 21
-1.09285
 31
0.328831
 12
-5.30532
 22
-1.09285
 32
-0.272689
 13
-5.35224
 23
-1.6923
 33
-0.272689
  0
3DFACE
  8
0
 62
   250
 10
-5.4912
 20
-2.26871
 30
0.328831
 11
-5.35224
 21
-1.6923
 31
0.328831
 12
-5.35224
 22
-1.6923
 32
-0.272689
 13
-5.4912
 23
-2.26871
 33
-0.272689
  0
3DFACE
  8
0
 62
   250
 10
-5.71685
 20
-2.79994
 30
0.328831
 11
-5.4912
 21
-2.26871
 31
0.328831
 12
-5.4912
 22
-2.26871
 32
-0.272689
 13
-5.71685
 23
-2.79994
 33
-0.272689
  0
3DFACE
  8
0
 62
   250
 10
-6.02052
 20
-3.26556
 30
0.328831
 11
-5.71685
 21
-2.79994
 31
0.328831
 12
-5.71685
 22
-2.79994
 32
-0.272689
 13
-6.02052
 23
-3.26556
 33
-0.272689
  0
3DFACE
  8
0
 62
   250
 10
-6.39055
 20
-3.64769
 30
0.328831
 11
-6.02052
 21
-3.26556
 31
0.328831
 12
-6.02052
 22
-3.26556
 32
-0.272689
 13
-6.39055
 23
-3.64769
 33
-0.272689
  0
3DFACE
  8
0
 62
   250
 10
-6.39055
 20
-3.64769
 30
0.328831
 11
-6.81272
 21
-3.93163
 31
0.328831
 12
-6.81272
 22
-3.93163
 32
-0.272689
 13
-6.39055
 23
-3.64769
 33
-0.272689
  0
3DFACE
  8
0
 62
   250
 10
-6.81272
 20
-3.93163
 30
0.328831
 11
-6.6175
 21
-4.52469
 31
0.328831
 12
-6.6175
 22
-4.52469
 32
-0.272689
 13
-6.81272
 23
-3.93163
 33
-0.272689
  0
3DFACE
  8
0
 62
   250
 10
-7.27079
 20
1.92079
 30
0.328831
 11
-7.74717
 21
1.97984
 31
0.328831
 12
-7.74717
 22
1.97984
 32
-0.272689
 13
-7.27079
 23
1.92079
 33
-0.272689
  0
3DFACE
  8
0
 62
   250
 10
-6.81271
 20
1.74594
 30
0.328831
 11
-7.27079
 21
1.92079
 31
0.328831
 12
-7.27079
 22
1.92079
 32
-0.272689
 13
-6.81271
 23
1.74594
 33
-0.272689
  0
3DFACE
  8
0
 62
   250
 10
-6.39055
 20
1.46199
 30
0.328831
 11
-6.81271
 21
1.74594
 31
0.328831
 12
-6.81271
 22
1.74594
 32
-0.272689
 13
-6.39055
 23
1.46199
 33
-0.272689
  0
3DFACE
  8
0
 62
   250
 10
-6.39055
 20
1.46199
 30
0.328831
 11
-6.02052
 21
1.07987
 31
0.328831
 12
-6.02052
 22
1.07987
 32
-0.272689
 13
-6.39055
 23
1.46199
 33
-0.272689
  0
3DFACE
  8
0
 62
   250
 10
-6.10713
 20
1.99573
 30
0.328831
 11
-5.6598
 21
1.53377
 31
0.328831
 12
-5.6598
 22
1.53377
 32
-0.272689
 13
-6.10713
 23
1.99573
 33
-0.272689
  0
3DFACE
  8
0
 62
   250
 10
-6.10713
 20
1.99573
 30
0.328831
 11
-6.61749
 21
2.339
 31
0.328831
 12
-6.61749
 22
2.339
 32
-0.272689
 13
-6.10713
 23
1.99573
 33
-0.272689
  0
3DFACE
  8
0
 62
   250
 10
-6.61749
 20
2.339
 30
0.328831
 11
-7.17126
 21
2.55038
 31
0.328831
 12
-7.17126
 22
2.55038
 32
-0.272689
 13
-6.61749
 23
2.339
 33
-0.272689
  0
3DFACE
  8
0
 62
   250
 10
-7.17126
 20
2.55038
 30
0.328831
 11
-7.74717
 21
2.62176
 31
0.328831
 12
-7.74717
 22
2.62176
 32
-0.272689
 13
-7.17126
 23
2.55038
 33
-0.272689
  0
3DFACE
  8
0
 62
   250
 10
-6.10714
 20
-4.18143
 30
0.328831
 11
-6.6175
 21
-4.52469
 31
0.328831
 12
-6.6175
 22
-4.52469
 32
-0.272689
 13
-6.10714
 23
-4.18143
 33
-0.272689
  0
3DFACE
  8
0
 62
   250
 10
-6.10714
 20
-4.18143
 30
0.328831
 11
-5.6598
 21
-3.71947
 31
0.328831
 12
-5.6598
 22
-3.71947
 32
-0.272689
 13
-6.10714
 23
-4.18143
 33
-0.272689
  0
3DFACE
  8
0
 62
   250
 10
-5.6598
 20
-3.71947
 30
0.328831
 11
-5.29269
 21
-3.15657
 31
0.328831
 12
-5.29269
 22
-3.15657
 32
-0.272689
 13
-5.6598
 23
-3.71947
 33
-0.272689
  0
3DFACE
  8
0
 62
   250
 10
-5.29269
 20
-3.15657
 30
0.328831
 11
-5.0199
 21
-2.51436
 31
0.328831
 12
-5.0199
 22
-2.51436
 32
-0.272689
 13
-5.29269
 23
-3.15657
 33
-0.272689
  0
3DFACE
  8
0
 62
   250
 10
-5.0199
 20
-2.51436
 30
0.328831
 11
-4.85191
 21
-1.81753
 31
0.328831
 12
-4.85191
 22
-1.81753
 32
-0.272689
 13
-5.0199
 23
-2.51436
 33
-0.272689
  0
3DFACE
  8
0
 62
   250
 10
-4.85191
 20
-1.81753
 30
0.328831
 11
-4.79519
 21
-1.09285
 31
0.328831
 12
-4.79519
 22
-1.09285
 32
-0.272689
 13
-4.85191
 23
-1.81753
 33
-0.272689
  0
3DFACE
  8
0
 62
   250
 10
-4.85191
 20
-0.368163
 30
0.328831
 11
-4.79519
 21
-1.09285
 31
0.328831
 12
-4.79519
 22
-1.09285
 32
-0.272689
 13
-4.85191
 23
-0.368163
 33
-0.272689
  0
3DFACE
  8
0
 62
   250
 10
-4.85191
 20
-0.368163
 30
0.328831
 11
-5.0199
 21
0.328671
 31
0.328831
 12
-5.0199
 22
0.328671
 32
-0.272689
 13
-4.85191
 23
-0.368163
 33
-0.272689
  0
3DFACE
  8
0
 62
   250
 10
-5.0199
 20
0.328671
 30
0.328831
 11
-5.29269
 21
0.970877
 31
0.328831
 12
-5.29269
 22
0.970877
 32
-0.272689
 13
-5.0199
 23
0.328671
 33
-0.272689
  0
3DFACE
  8
0
 62
   250
 10
-5.29269
 20
0.970877
 30
0.328831
 11
-5.6598
 21
1.53377
 31
0.328831
 12
-5.6598
 22
1.53377
 32
-0.272689
 13
-5.29269
 23
0.970877
 33
-0.272689
  0
3DFACE
  8
0
 62
   250
 10
-6.10713
 20
1.99573
 30
-0.272689
 11
-5.6598
 21
1.53377
 31
-0.272689
 12
-6.02052
 22
1.07987
 32
-0.272689
 13
-6.39055
 23
1.46199
 33
-0.272689
  0
3DFACE
  8
0
 62
   250
 10
-6.10713
 20
1.99573
 30
-0.272689
 11
-6.61749
 21
2.339
 31
-0.272689
 12
-6.81271
 22
1.74594
 32
-0.272689
 13
-6.39055
 23
1.46199
 33
-0.272689
  0
3DFACE
  8
0
 62
   250
 10
-6.61749
 20
2.339
 30
-0.272689
 11
-7.17126
 21
2.55038
 31
-0.272689
 12
-7.27079
 22
1.92079
 32
-0.272689
 13
-6.81271
 23
1.74594
 33
-0.272689
  0
3DFACE
  8
0
 62
   250
 10
-7.17126
 20
2.55038
 30
-0.272689
 11
-7.74717
 21
2.62176
 31
-0.272689
 12
-7.74717
 22
1.97984
 32
-0.272689
 13
-7.27079
 23
1.92079
 33
-0.272689
  0
3DFACE
  8
0
 62
   250
 10
-6.10714
 20
-4.18143
 30
-0.272689
 11
-6.6175
 21
-4.52469
 31
-0.272689
 12
-6.81272
 22
-3.93163
 32
-0.272689
 13
-6.39055
 23
-3.64769
 33
-0.272689
  0
3DFACE
  8
0
 62
   250
 10
-6.10714
 20
-4.18143
 30
-0.272689
 11
-5.6598
 21
-3.71947
 31
-0.272689
 12
-6.02052
 22
-3.26556
 32
-0.272689
 13
-6.39055
 23
-3.64769
 33
-0.272689
  0
3DFACE
  8
0
 62
   250
 10
-5.6598
 20
-3.71947
 30
-0.272689
 11
-5.29269
 21
-3.15657
 31
-0.272689
 12
-5.71685
 22
-2.79994
 32
-0.272689
 13
-6.02052
 23
-3.26556
 33
-0.272689
  0
3DFACE
  8
0
 62
   250
 10
-5.29269
 20
-3.15657
 30
-0.272689
 11
-5.0199
 21
-2.51436
 31
-0.272689
 12
-5.4912
 22
-2.26871
 32
-0.272689
 13
-5.71685
 23
-2.79994
 33
-0.272689
  0
3DFACE
  8
0
 62
   250
 10
-5.0199
 20
-2.51436
 30
-0.272689
 11
-4.85191
 21
-1.81753
 31
-0.272689
 12
-5.35224
 22
-1.6923
 32
-0.272689
 13
-5.4912
 23
-2.26871
 33
-0.272689
  0
3DFACE
  8
0
 62
   250
 10
-4.85191
 20
-1.81753
 30
-0.272689
 11
-4.79519
 21
-1.09285
 31
-0.272689
 12
-5.30532
 22
-1.09285
 32
-0.272689
 13
-5.35224
 23
-1.6923
 33
-0.272689
  0
3DFACE
  8
0
 62
   250
 10
-4.85191
 20
-0.368163
 30
-0.272689
 11
-4.79519
 21
-1.09285
 31
-0.272689
 12
-5.30532
 22
-1.09285
 32
-0.272689
 13
-5.35224
 23
-0.493396
 33
-0.272689
  0
3DFACE
  8
0
 62
   250
 10
-4.85191
 20
-0.368163
 30
-0.272689
 11
-5.0199
 21
0.328671
 31
-0.272689
 12
-5.4912
 22
0.083018
 32
-0.272689
 13
-5.35224
 23
-0.493396
 33
-0.272689
  0
3DFACE
  8
0
 62
   250
 10
-5.0199
 20
0.328671
 30
-0.272689
 11
-5.29269
 21
0.970877
 31
-0.272689
 12
-5.71685
 22
0.614244
 32
-0.272689
 13
-5.4912
 23
0.083018
 33
-0.272689
  0
3DFACE
  8
0
 62
   250
 10
-5.29269
 20
0.970877
 30
-0.272689
 11
-5.6598
 21
1.53377
 31
-0.272689
 12
-6.02052
 22
1.07987
 32
-0.272689
 13
-5.71685
 23
0.614244
 33
-0.272689
  0
ENDBLK
  8
0
  0
BLOCK
  8
Meshes
  2
Sphere_002
 70
    64
 10
0
 20
0
 30
0
  3
Sphere_002
  0
3DFACE
  8
0
 62
   250
 10
0
 20
0
 30
-19.0822
 11
0.993864
 21
0.203848
 31
-18.9498
 12
1.14761
 22
0
 32
-18.9498
 13
1.14761
 23
0
 33
-18.9498
  0
3DFACE
  8
0
 62
   250
 10
1.14761
 20
0
 30
-18.9498
 11
0.993864
 21
0.203848
 31
-18.9498
 12
1.83642
 22
0.376663
 32
-18.5725
 13
2.12052
 23
0
 33
-18.5725
  0
3DFACE
  8
0
 62
   250
 10
2.12052
 20
0
 30
-18.5725
 11
1.83642
 21
0.376663
 31
-18.5725
 12
2.3994
 22
0.492133
 32
-18.0079
 13
2.77059
 23
0
 33
-18.0079
  0
3DFACE
  8
0
 62
   250
 10
2.77059
 20
0
 30
-18.0079
 11
2.3994
 21
0.492133
 31
-18.0079
 12
2.59709
 22
0.532681
 32
-17.342
 13
2.99886
 23
0
 33
-17.342
  0
3DFACE
  8
0
 62
   250
 10
2.99886
 20
0
 30
-17.342
 11
2.59709
 21
0.532681
 31
-17.342
 12
2.3994
 22
0.492133
 32
-16.676
 13
2.77059
 23
0
 33
-16.676
  0
3DFACE
  8
0
 62
   250
 10
1.83642
 20
0.376663
 30
-16.1114
 11
2.12052
 21
0
 31
-16.1114
 12
2.77059
 22
0
 32
-16.676
 13
2.3994
 23
0.492133
 33
-16.676
  0
3DFACE
  8
0
 62
   250
 10
2.12052
 20
0
 30
-16.1114
 11
1.83642
 21
0.376663
 31
-16.1114
 12
0.993864
 22
0.203848
 32
-15.7342
 13
1.14761
 23
0
 33
-15.7342
  0
3DFACE
  8
0
 62
   250
 10
1.14761
 20
0
 30
-15.7342
 11
0.993864
 21
0.203848
 31
-15.7342
 12
0
 22
0
 32
-15.6017
 13
0
 23
0
 33
-15.6017
  0
3DFACE
  8
0
 62
   250
 10
0.993864
 20
0.203848
 30
-15.7342
 11
0.573807
 21
0.353076
 31
-15.7342
 12
0
 22
0
 32
-15.6017
 13
0
 23
0
 33
-15.6017
  0
3DFACE
  8
0
 62
   250
 10
1.83642
 20
0.376663
 30
-16.1114
 11
1.06026
 21
0.652399
 31
-16.1114
 12
0.573807
 22
0.353076
 32
-15.7342
 13
0.993864
 23
0.203848
 33
-15.7342
  0
3DFACE
  8
0
 62
   250
 10
2.3994
 20
0.492133
 30
-16.676
 11
1.38529
 21
0.8524
 31
-16.676
 12
1.06026
 22
0.652399
 32
-16.1114
 13
1.83642
 23
0.376663
 33
-16.1114
  0
3DFACE
  8
0
 62
   250
 10
2.59709
 20
0.532681
 30
-17.342
 11
1.49943
 21
0.922631
 31
-17.342
 12
1.38529
 22
0.8524
 32
-16.676
 13
2.3994
 23
0.492133
 33
-16.676
  0
3DFACE
  8
0
 62
   250
 10
2.3994
 20
0.492133
 30
-18.0079
 11
1.38529
 21
0.8524
 31
-18.0079
 12
1.49943
 22
0.922631
 32
-17.342
 13
2.59709
 23
0.532681
 33
-17.342
  0
3DFACE
  8
0
 62
   250
 10
1.83642
 20
0.376663
 30
-18.5725
 11
1.06026
 21
0.652399
 31
-18.5725
 12
1.38529
 22
0.8524
 32
-18.0079
 13
2.3994
 23
0.492133
 33
-18.0079
  0
3DFACE
  8
0
 62
   250
 10
0.993864
 20
0.203848
 30
-18.9498
 11
0.573808
 21
0.353076
 31
-18.9498
 12
1.06026
 22
0.652399
 32
-18.5725
 13
1.83642
 23
0.376663
 33
-18.5725
  0
3DFACE
  8
0
 62
   250
 10
0
 20
0
 30
-19.0822
 11
0.573808
 21
0.353076
 31
-18.9498
 12
0.993864
 22
0.203848
 32
-18.9498
 13
0.993864
 23
0.203848
 33
-18.9498
  0
3DFACE
  8
0
 62
   250
 10
0
 20
0
 30
-19.0822
 11
0
 21
0.407697
 31
-18.9498
 12
0.573808
 22
0.353076
 32
-18.9498
 13
0.573808
 23
0.353076
 33
-18.9498
  0
3DFACE
  8
0
 62
   250
 10
0.573808
 20
0.353076
 30
-18.9498
 11
0
 21
0.407697
 31
-18.9498
 12
0
 22
0.753325
 32
-18.5725
 13
1.06026
 23
0.652399
 33
-18.5725
  0
3DFACE
  8
0
 62
   250
 10
1.06026
 20
0.652399
 30
-18.5725
 11
0
 21
0.753325
 31
-18.5725
 12
0
 22
0.984267
 32
-18.0079
 13
1.38529
 23
0.8524
 33
-18.0079
  0
3DFACE
  8
0
 62
   250
 10
1.38529
 20
0.8524
 30
-18.0079
 11
0
 21
0.984267
 31
-18.0079
 12
0
 22
1.06536
 32
-17.342
 13
1.49943
 23
0.922631
 33
-17.342
  0
3DFACE
  8
0
 62
   250
 10
1.49943
 20
0.922631
 30
-17.342
 11
0
 21
1.06536
 31
-17.342
 12
0
 22
0.984267
 32
-16.676
 13
1.38529
 23
0.8524
 33
-16.676
  0
3DFACE
  8
0
 62
   250
 10
1.38529
 20
0.8524
 30
-16.676
 11
0
 21
0.984267
 31
-16.676
 12
0
 22
0.753325
 32
-16.1114
 13
1.06026
 23
0.652399
 33
-16.1114
  0
3DFACE
  8
0
 62
   250
 10
1.06026
 20
0.652399
 30
-16.1114
 11
0
 21
0.753325
 31
-16.1114
 12
0
 22
0.407697
 32
-15.7342
 13
0.573807
 23
0.353076
 33
-15.7342
  0
3DFACE
  8
0
 62
   250
 10
0.573807
 20
0.353076
 30
-15.7342
 11
0
 21
0.407697
 31
-15.7342
 12
0
 22
0
 32
-15.6017
 13
0
 23
0
 33
-15.6017
  0
3DFACE
  8
0
 62
   250
 10
0
 20
0.407697
 30
-15.7342
 11
-0.573808
 21
0.353076
 31
-15.7342
 12
0
 22
0
 32
-15.6017
 13
0
 23
0
 33
-15.6017
  0
3DFACE
  8
0
 62
   250
 10
0
 20
0.753325
 30
-16.1114
 11
-1.06026
 21
0.652399
 31
-16.1114
 12
-0.573808
 22
0.353076
 32
-15.7342
 13
0
 23
0.407697
 33
-15.7342
  0
3DFACE
  8
0
 62
   250
 10
0
 20
0.984267
 30
-16.676
 11
-1.38529
 21
0.8524
 31
-16.676
 12
-1.06026
 22
0.652399
 32
-16.1114
 13
0
 23
0.753325
 33
-16.1114
  0
3DFACE
  8
0
 62
   250
 10
0
 20
1.06536
 30
-17.342
 11
-1.49943
 21
0.922631
 31
-17.342
 12
-1.38529
 22
0.8524
 32
-16.676
 13
0
 23
0.984267
 33
-16.676
  0
3DFACE
  8
0
 62
   250
 10
0
 20
0.984267
 30
-18.0079
 11
-1.38529
 21
0.8524
 31
-18.0079
 12
-1.49943
 22
0.922631
 32
-17.342
 13
0
 23
1.06536
 33
-17.342
  0
3DFACE
  8
0
 62
   250
 10
0
 20
0.753325
 30
-18.5725
 11
-1.06026
 21
0.652399
 31
-18.5725
 12
-1.38529
 22
0.8524
 32
-18.0079
 13
0
 23
0.984267
 33
-18.0079
  0
3DFACE
  8
0
 62
   250
 10
0
 20
0.407697
 30
-18.9498
 11
-0.573808
 21
0.353076
 31
-18.9498
 12
-1.06026
 22
0.652399
 32
-18.5725
 13
0
 23
0.753325
 33
-18.5725
  0
3DFACE
  8
0
 62
   250
 10
0
 20
0
 30
-19.0822
 11
-0.573808
 21
0.353076
 31
-18.9498
 12
0
 22
0.407697
 32
-18.9498
 13
0
 23
0.407697
 33
-18.9498
  0
3DFACE
  8
0
 62
   250
 10
0
 20
0
 30
-19.0822
 11
-0.993864
 21
0.203848
 31
-18.9498
 12
-0.573808
 22
0.353076
 32
-18.9498
 13
-0.573808
 23
0.353076
 33
-18.9498
  0
3DFACE
  8
0
 62
   250
 10
-0.573808
 20
0.353076
 30
-18.9498
 11
-0.993864
 21
0.203848
 31
-18.9498
 12
-1.83642
 22
0.376663
 32
-18.5725
 13
-1.06026
 23
0.652399
 33
-18.5725
  0
3DFACE
  8
0
 62
   250
 10
-1.06026
 20
0.652399
 30
-18.5725
 11
-1.83642
 21
0.376663
 31
-18.5725
 12
-2.3994
 22
0.492133
 32
-18.0079
 13
-1.38529
 23
0.8524
 33
-18.0079
  0
3DFACE
  8
0
 62
   250
 10
-1.38529
 20
0.8524
 30
-18.0079
 11
-2.3994
 21
0.492133
 31
-18.0079
 12
-2.59709
 22
0.532681
 32
-17.342
 13
-1.49943
 23
0.922631
 33
-17.342
  0
3DFACE
  8
0
 62
   250
 10
-1.49943
 20
0.922631
 30
-17.342
 11
-2.59709
 21
0.532681
 31
-17.342
 12
-2.3994
 22
0.492133
 32
-16.676
 13
-1.38529
 23
0.8524
 33
-16.676
  0
3DFACE
  8
0
 62
   250
 10
-1.38529
 20
0.8524
 30
-16.676
 11
-2.3994
 21
0.492133
 31
-16.676
 12
-1.83642
 22
0.376663
 32
-16.1114
 13
-1.06026
 23
0.652399
 33
-16.1114
  0
3DFACE
  8
0
 62
   250
 10
-1.06026
 20
0.652399
 30
-16.1114
 11
-1.83642
 21
0.376663
 31
-16.1114
 12
-0.993864
 22
0.203848
 32
-15.7342
 13
-0.573808
 23
0.353076
 33
-15.7342
  0
3DFACE
  8
0
 62
   250
 10
-0.573808
 20
0.353076
 30
-15.7342
 11
-0.993864
 21
0.203848
 31
-15.7342
 12
0
 22
0
 32
-15.6017
 13
0
 23
0
 33
-15.6017
  0
3DFACE
  8
0
 62
   250
 10
-0.993864
 20
0.203848
 30
-15.7342
 11
-1.14761
 21
0
 31
-15.7342
 12
0
 22
0
 32
-15.6017
 13
0
 23
0
 33
-15.6017
  0
3DFACE
  8
0
 62
   250
 10
-1.83642
 20
0.376663
 30
-16.1114
 11
-2.12052
 21
0
 31
-16.1114
 12
-1.14761
 22
0
 32
-15.7342
 13
-0.993864
 23
0.203848
 33
-15.7342
  0
3DFACE
  8
0
 62
   250
 10
-2.3994
 20
0.492133
 30
-16.676
 11
-2.77059
 21
0
 31
-16.676
 12
-2.12052
 22
0
 32
-16.1114
 13
-1.83642
 23
0.376663
 33
-16.1114
  0
3DFACE
  8
0
 62
   250
 10
-2.59709
 20
0.532681
 30
-17.342
 11
-2.99886
 21
0
 31
-17.342
 12
-2.77059
 22
0
 32
-16.676
 13
-2.3994
 23
0.492133
 33
-16.676
  0
3DFACE
  8
0
 62
   250
 10
-2.3994
 20
0.492133
 30
-18.0079
 11
-2.77059
 21
0
 31
-18.0079
 12
-2.99886
 22
0
 32
-17.342
 13
-2.59709
 23
0.532681
 33
-17.342
  0
3DFACE
  8
0
 62
   250
 10
-1.83642
 20
0.376663
 30
-18.5725
 11
-2.12052
 21
0
 31
-18.5725
 12
-2.77059
 22
0
 32
-18.0079
 13
-2.3994
 23
0.492133
 33
-18.0079
  0
3DFACE
  8
0
 62
   250
 10
-0.993864
 20
0.203848
 30
-18.9498
 11
-1.14761
 21
0
 31
-18.9498
 12
-2.12052
 22
0
 32
-18.5725
 13
-1.83642
 23
0.376663
 33
-18.5725
  0
3DFACE
  8
0
 62
   250
 10
0
 20
0
 30
-19.0822
 11
-1.14761
 21
0
 31
-18.9498
 12
-0.993864
 22
0.203848
 32
-18.9498
 13
-0.993864
 23
0.203848
 33
-18.9498
  0
3DFACE
  8
0
 62
   250
 10
0
 20
0
 30
-19.0822
 11
-0.993864
 21
-0.203848
 31
-18.9498
 12
-1.14761
 22
0
 32
-18.9498
 13
-1.14761
 23
0
 33
-18.9498
  0
3DFACE
  8
0
 62
   250
 10
-1.14761
 20
0
 30
-18.9498
 11
-0.993864
 21
-0.203848
 31
-18.9498
 12
-1.83642
 22
-0.376663
 32
-18.5725
 13
-2.12052
 23
0
 33
-18.5725
  0
3DFACE
  8
0
 62
   250
 10
-2.12052
 20
0
 30
-18.5725
 11
-1.83642
 21
-0.376663
 31
-18.5725
 12
-2.3994
 22
-0.492133
 32
-18.0079
 13
-2.77059
 23
0
 33
-18.0079
  0
3DFACE
  8
0
 62
   250
 10
-2.77059
 20
0
 30
-18.0079
 11
-2.3994
 21
-0.492133
 31
-18.0079
 12
-2.59709
 22
-0.532681
 32
-17.342
 13
-2.99886
 23
0
 33
-17.342
  0
3DFACE
  8
0
 62
   250
 10
-2.99886
 20
0
 30
-17.342
 11
-2.59709
 21
-0.532681
 31
-17.342
 12
-2.3994
 22
-0.492133
 32
-16.676
 13
-2.77059
 23
0
 33
-16.676
  0
3DFACE
  8
0
 62
   250
 10
-2.77059
 20
0
 30
-16.676
 11
-2.3994
 21
-0.492133
 31
-16.676
 12
-1.83642
 22
-0.376663
 32
-16.1114
 13
-2.12052
 23
0
 33
-16.1114
  0
3DFACE
  8
0
 62
   250
 10
-2.12052
 20
0
 30
-16.1114
 11
-1.83642
 21
-0.376663
 31
-16.1114
 12
-0.993864
 22
-0.203848
 32
-15.7342
 13
-1.14761
 23
0
 33
-15.7342
  0
3DFACE
  8
0
 62
   250
 10
-1.14761
 20
0
 30
-15.7342
 11
-0.993864
 21
-0.203848
 31
-15.7342
 12
0
 22
0
 32
-15.6017
 13
0
 23
0
 33
-15.6017
  0
3DFACE
  8
0
 62
   250
 10
-0.993864
 20
-0.203848
 30
-15.7342
 11
-0.573807
 21
-0.353076
 31
-15.7342
 12
0
 22
0
 32
-15.6017
 13
0
 23
0
 33
-15.6017
  0
3DFACE
  8
0
 62
   250
 10
-1.83642
 20
-0.376663
 30
-16.1114
 11
-1.06026
 21
-0.652399
 31
-16.1114
 12
-0.573807
 22
-0.353076
 32
-15.7342
 13
-0.993864
 23
-0.203848
 33
-15.7342
  0
3DFACE
  8
0
 62
   250
 10
-2.3994
 20
-0.492133
 30
-16.676
 11
-1.38529
 21
-0.8524
 31
-16.676
 12
-1.06026
 22
-0.652399
 32
-16.1114
 13
-1.83642
 23
-0.376663
 33
-16.1114
  0
3DFACE
  8
0
 62
   250
 10
-2.59709
 20
-0.532681
 30
-17.342
 11
-1.49943
 21
-0.922631
 31
-17.342
 12
-1.38529
 22
-0.8524
 32
-16.676
 13
-2.3994
 23
-0.492133
 33
-16.676
  0
3DFACE
  8
0
 62
   250
 10
-2.3994
 20
-0.492133
 30
-18.0079
 11
-1.38529
 21
-0.8524
 31
-18.0079
 12
-1.49943
 22
-0.922631
 32
-17.342
 13
-2.59709
 23
-0.532681
 33
-17.342
  0
3DFACE
  8
0
 62
   250
 10
-1.83642
 20
-0.376663
 30
-18.5725
 11
-1.06026
 21
-0.652399
 31
-18.5725
 12
-1.38529
 22
-0.8524
 32
-18.0079
 13
-2.3994
 23
-0.492133
 33
-18.0079
  0
3DFACE
  8
0
 62
   250
 10
-0.993864
 20
-0.203848
 30
-18.9498
 11
-0.573807
 21
-0.353076
 31
-18.9498
 12
-1.06026
 22
-0.652399
 32
-18.5725
 13
-1.83642
 23
-0.376663
 33
-18.5725
  0
3DFACE
  8
0
 62
   250
 10
0
 20
0
 30
-19.0822
 11
-0.573807
 21
-0.353076
 31
-18.9498
 12
-0.993864
 22
-0.203848
 32
-18.9498
 13
-0.993864
 23
-0.203848
 33
-18.9498
  0
3DFACE
  8
0
 62
   250
 10
0
 20
0
 30
-19.0822
 11
0
 21
-0.407697
 31
-18.9498
 12
-0.573807
 22
-0.353076
 32
-18.9498
 13
-0.573807
 23
-0.353076
 33
-18.9498
  0
3DFACE
  8
0
 62
   250
 10
-0.573807
 20
-0.353076
 30
-18.9498
 11
0
 21
-0.407697
 31
-18.9498
 12
0
 22
-0.753325
 32
-18.5725
 13
-1.06026
 23
-0.652399
 33
-18.5725
  0
3DFACE
  8
0
 62
   250
 10
-1.06026
 20
-0.652399
 30
-18.5725
 11
0
 21
-0.753325
 31
-18.5725
 12
0
 22
-0.984267
 32
-18.0079
 13
-1.38529
 23
-0.8524
 33
-18.0079
  0
3DFACE
  8
0
 62
   250
 10
-1.38529
 20
-0.8524
 30
-18.0079
 11
0
 21
-0.984267
 31
-18.0079
 12
0
 22
-1.06536
 32
-17.342
 13
-1.49943
 23
-0.922631
 33
-17.342
  0
3DFACE
  8
0
 62
   250
 10
-1.49943
 20
-0.922631
 30
-17.342
 11
0
 21
-1.06536
 31
-17.342
 12
0
 22
-0.984267
 32
-16.676
 13
-1.38529
 23
-0.8524
 33
-16.676
  0
3DFACE
  8
0
 62
   250
 10
-1.38529
 20
-0.8524
 30
-16.676
 11
0
 21
-0.984267
 31
-16.676
 12
0
 22
-0.753325
 32
-16.1114
 13
-1.06026
 23
-0.652399
 33
-16.1114
  0
3DFACE
  8
0
 62
   250
 10
-1.06026
 20
-0.652399
 30
-16.1114
 11
0
 21
-0.753325
 31
-16.1114
 12
0
 22
-0.407697
 32
-15.7342
 13
-0.573807
 23
-0.353076
 33
-15.7342
  0
3DFACE
  8
0
 62
   250
 10
-0.573807
 20
-0.353076
 30
-15.7342
 11
0
 21
-0.407697
 31
-15.7342
 12
0
 22
0
 32
-15.6017
 13
0
 23
0
 33
-15.6017
  0
3DFACE
  8
0
 62
   250
 10
0
 20
-0.407697
 30
-15.7342
 11
0.573807
 21
-0.353076
 31
-15.7342
 12
0
 22
0
 32
-15.6017
 13
0
 23
0
 33
-15.6017
  0
3DFACE
  8
0
 62
   250
 10
0
 20
-0.753325
 30
-16.1114
 11
1.06026
 21
-0.652399
 31
-16.1114
 12
0.573807
 22
-0.353076
 32
-15.7342
 13
0
 23
-0.407697
 33
-15.7342
  0
3DFACE
  8
0
 62
   250
 10
0
 20
-0.984267
 30
-16.676
 11
1.38529
 21
-0.8524
 31
-16.676
 12
1.06026
 22
-0.652399
 32
-16.1114
 13
0
 23
-0.753325
 33
-16.1114
  0
3DFACE
  8
0
 62
   250
 10
0
 20
-1.06536
 30
-17.342
 11
1.49943
 21
-0.922631
 31
-17.342
 12
1.38529
 22
-0.8524
 32
-16.676
 13
0
 23
-0.984267
 33
-16.676
  0
3DFACE
  8
0
 62
   250
 10
0
 20
-0.984267
 30
-18.0079
 11
1.38529
 21
-0.8524
 31
-18.0079
 12
1.49943
 22
-0.922631
 32
-17.342
 13
0
 23
-1.06536
 33
-17.342
  0
3DFACE
  8
0
 62
   250
 10
0
 20
-0.753325
 30
-18.5725
 11
1.06026
 21
-0.652399
 31
-18.5725
 12
1.38529
 22
-0.8524
 32
-18.0079
 13
0
 23
-0.984267
 33
-18.0079
  0
3DFACE
  8
0
 62
   250
 10
0
 20
-0.407697
 30
-18.9498
 11
0.573808
 21
-0.353076
 31
-18.9498
 12
1.06026
 22
-0.652399
 32
-18.5725
 13
0
 23
-0.753325
 33
-18.5725
  0
3DFACE
  8
0
 62
   250
 10
0
 20
0
 30
-19.0822
 11
0.573808
 21
-0.353076
 31
-18.9498
 12
0
 22
-0.407697
 32
-18.9498
 13
0
 23
-0.407697
 33
-18.9498
  0
3DFACE
  8
0
 62
   250
 10
0
 20
0
 30
-19.0822
 11
0.993864
 21
-0.203848
 31
-18.9498
 12
0.573808
 22
-0.353076
 32
-18.9498
 13
0.573808
 23
-0.353076
 33
-18.9498
  0
3DFACE
  8
0
 62
   250
 10
0.573808
 20
-0.353076
 30
-18.9498
 11
0.993864
 21
-0.203848
 31
-18.9498
 12
1.83642
 22
-0.376663
 32
-18.5725
 13
1.06026
 23
-0.652399
 33
-18.5725
  0
3DFACE
  8
0
 62
   250
 10
1.06026
 20
-0.652399
 30
-18.5725
 11
1.83642
 21
-0.376663
 31
-18.5725
 12
2.3994
 22
-0.492133
 32
-18.0079
 13
1.38529
 23
-0.8524
 33
-18.0079
  0
3DFACE
  8
0
 62
   250
 10
1.38529
 20
-0.8524
 30
-18.0079
 11
2.3994
 21
-0.492133
 31
-18.0079
 12
2.59709
 22
-0.532681
 32
-17.342
 13
1.49943
 23
-0.922631
 33
-17.342
  0
3DFACE
  8
0
 62
   250
 10
1.49943
 20
-0.922631
 30
-17.342
 11
2.59709
 21
-0.532681
 31
-17.342
 12
2.3994
 22
-0.492133
 32
-16.676
 13
1.38529
 23
-0.8524
 33
-16.676
  0
3DFACE
  8
0
 62
   250
 10
1.38529
 20
-0.8524
 30
-16.676
 11
2.3994
 21
-0.492133
 31
-16.676
 12
1.83642
 22
-0.376663
 32
-16.1114
 13
1.06026
 23
-0.652399
 33
-16.1114
  0
3DFACE
  8
0
 62
   250
 10
1.06026
 20
-0.652399
 30
-16.1114
 11
1.83642
 21
-0.376663
 31
-16.1114
 12
0.993864
 22
-0.203848
 32
-15.7342
 13
0.573807
 23
-0.353076
 33
-15.7342
  0
3DFACE
  8
0
 62
   250
 10
0.573807
 20
-0.353076
 30
-15.7342
 11
0.993864
 21
-0.203848
 31
-15.7342
 12
0
 22
0
 32
-15.6017
 13
0
 23
0
 33
-15.6017
  0
3DFACE
  8
0
 62
   250
 10
0.993864
 20
-0.203848
 30
-15.7342
 11
1.14761
 21
0
 31
-15.7342
 12
0
 22
0
 32
-15.6017
 13
0
 23
0
 33
-15.6017
  0
3DFACE
  8
0
 62
   250
 10
1.83642
 20
-0.376663
 30
-16.1114
 11
2.12052
 21
0
 31
-16.1114
 12
1.14761
 22
0
 32
-15.7342
 13
0.993864
 23
-0.203848
 33
-15.7342
  0
3DFACE
  8
0
 62
   250
 10
2.12052
 20
0
 30
-16.1114
 11
1.83642
 21
-0.376663
 31
-16.1114
 12
2.3994
 22
-0.492133
 32
-16.676
 13
2.77059
 23
0
 33
-16.676
  0
3DFACE
  8
0
 62
   250
 10
2.59709
 20
-0.532681
 30
-17.342
 11
2.99886
 21
0
 31
-17.342
 12
2.77059
 22
0
 32
-16.676
 13
2.3994
 23
-0.492133
 33
-16.676
  0
3DFACE
  8
0
 62
   250
 10
2.3994
 20
-0.492133
 30
-18.0079
 11
2.77059
 21
0
 31
-18.0079
 12
2.99886
 22
0
 32
-17.342
 13
2.59709
 23
-0.532681
 33
-17.342
  0
3DFACE
  8
0
 62
   250
 10
1.83642
 20
-0.376663
 30
-18.5725
 11
2.12052
 21
0
 31
-18.5725
 12
2.77059
 22
0
 32
-18.0079
 13
2.3994
 23
-0.492133
 33
-18.0079
  0
3DFACE
  8
0
 62
   250
 10
0.993864
 20
-0.203848
 30
-18.9498
 11
1.14761
 21
0
 31
-18.9498
 12
2.12052
 22
0
 32
-18.5725
 13
1.83642
 23
-0.376663
 33
-18.5725
  0
3DFACE
  8
0
 62
   250
 10
0
 20
0
 30
-19.0822
 11
1.14761
 21
0
 31
-18.9498
 12
0.993864
 22
-0.203848
 32
-18.9498
 13
0.993864
 23
-0.203848
 33
-18.9498
  0
ENDBLK
  8
0
  0
ENDSEC
  0
SECTION
  2
ENTITIES
  0
INSERT
  8
2
  2
Sphere_002
 10
-2.4566
 20
-0.000779
 30
7.40155
  0
INSERT
  8
4
  2
Circle
 10
8.14378
 20
0.028762
 30
7.40155
  0
INSERT
  8
1
  2
Cylinder
 10
0
 20
0
 30
0
  0
ENDSEC
  0
EOF
