  0
SECTION
  2
ENTITIES
  0
3DFACE
  8
0
 62
    50
 10
0.354293
 20
0.354293
 30
-10.0281
 11
0.354294
 21
0.354292
 31
10.0281
 12
0.416605
 22
0.278365
 32
10.0281
 13
0.416605
 23
0.278366
 33
-10.0281
  0
3DFACE
  8
0
 62
    50
 10
0.416605
 20
0.278366
 30
-10.0281
 11
0.416605
 21
0.278365
 31
10.0281
 12
0.462907
 22
0.191741
 32
10.0281
 13
0.462906
 23
0.191742
 33
-10.0281
  0
3DFACE
  8
0
 62
    50
 10
0.462906
 20
0.191742
 30
-10.0281
 11
0.462907
 21
0.191741
 31
10.0281
 12
0.491419
 22
0.097748
 32
10.0281
 13
0.491419
 23
0.097749
 33
-10.0281
  0
3DFACE
  8
0
 62
    50
 10
0.491419
 20
0.097749
 30
-10.0281
 11
0.491419
 21
0.097748
 31
10.0281
 12
0.501046
 22
-1e-006
 32
10.0281
 13
0.501046
 23
0
 33
-10.0281
  0
3DFACE
  8
0
 62
    50
 10
0.501046
 20
0
 30
-10.0281
 11
0.501046
 21
-1e-006
 31
10.0281
 12
0.491418
 22
-0.09775
 32
10.0281
 13
0.491419
 23
-0.097749
 33
-10.0281
  0
3DFACE
  8
0
 62
    50
 10
0.491419
 20
-0.097749
 30
-10.0281
 11
0.491418
 21
-0.09775
 31
10.0281
 12
0.462906
 22
-0.191743
 32
10.0281
 13
0.462906
 23
-0.191742
 33
-10.0281
  0
3DFACE
  8
0
 62
    50
 10
0.462906
 20
-0.191742
 30
-10.0281
 11
0.462906
 21
-0.191743
 31
10.0281
 12
0.416604
 22
-0.278367
 32
10.0281
 13
0.416605
 23
-0.278366
 33
-10.0281
  0
3DFACE
  8
0
 62
    50
 10
0.416605
 20
-0.278366
 30
-10.0281
 11
0.416604
 21
-0.278367
 31
10.0281
 12
0.354293
 22
-0.354293
 32
10.0281
 13
0.354293
 23
-0.354293
 33
-10.0281
  0
3DFACE
  8
0
 62
    50
 10
0.354293
 20
-0.354293
 30
-10.0281
 11
0.354293
 21
-0.354293
 31
10.0281
 12
0.278366
 22
-0.416605
 32
10.0281
 13
0.278366
 23
-0.416605
 33
-10.0281
  0
3DFACE
  8
0
 62
    50
 10
0.278366
 20
-0.416605
 30
-10.0281
 11
0.278366
 21
-0.416605
 31
10.0281
 12
0.191742
 22
-0.462906
 32
10.0281
 13
0.191742
 23
-0.462906
 33
-10.0281
  0
3DFACE
  8
0
 62
    50
 10
0.191742
 20
-0.462906
 30
-10.0281
 11
0.191742
 21
-0.462906
 31
10.0281
 12
0.097749
 22
-0.491418
 32
10.0281
 13
0.097749
 23
-0.491419
 33
-10.0281
  0
3DFACE
  8
0
 62
    50
 10
0.097749
 20
-0.491419
 30
-10.0281
 11
0.097749
 21
-0.491418
 31
10.0281
 12
0
 22
-0.501046
 32
10.0281
 13
0
 23
-0.501046
 33
-10.0281
  0
3DFACE
  8
0
 62
    50
 10
0
 20
-0.501046
 30
-10.0281
 11
0
 21
-0.501046
 31
10.0281
 12
-0.097749
 22
-0.491419
 32
10.0281
 13
-0.097749
 23
-0.491418
 33
-10.0281
  0
3DFACE
  8
0
 62
    50
 10
-0.097749
 20
-0.491418
 30
-10.0281
 11
-0.097749
 21
-0.491419
 31
10.0281
 12
-0.191741
 22
-0.462906
 32
10.0281
 13
-0.191742
 23
-0.462906
 33
-10.0281
  0
3DFACE
  8
0
 62
    50
 10
-0.191742
 20
-0.462906
 30
-10.0281
 11
-0.191741
 21
-0.462906
 31
10.0281
 12
-0.278365
 22
-0.416605
 32
10.0281
 13
-0.278366
 23
-0.416604
 33
-10.0281
  0
3DFACE
  8
0
 62
    50
 10
-0.278366
 20
-0.416604
 30
-10.0281
 11
-0.278365
 21
-0.416605
 31
10.0281
 12
-0.354292
 22
-0.354294
 32
10.0281
 13
-0.354293
 23
-0.354293
 33
-10.0281
  0
3DFACE
  8
0
 62
    50
 10
-0.354293
 20
-0.354293
 30
-10.0281
 11
-0.354292
 21
-0.354294
 31
10.0281
 12
-0.416604
 22
-0.278367
 32
10.0281
 13
-0.416605
 23
-0.278366
 33
-10.0281
  0
3DFACE
  8
0
 62
    50
 10
-0.416605
 20
-0.278366
 30
-10.0281
 11
-0.416604
 21
-0.278367
 31
10.0281
 12
-0.462905
 22
-0.191744
 32
10.0281
 13
-0.462906
 23
-0.191742
 33
-10.0281
  0
3DFACE
  8
0
 62
    50
 10
-0.462906
 20
-0.191742
 30
-10.0281
 11
-0.462905
 21
-0.191744
 31
10.0281
 12
-0.491418
 22
-0.097751
 32
10.0281
 13
-0.491419
 23
-0.097749
 33
-10.0281
  0
3DFACE
  8
0
 62
    50
 10
-0.491419
 20
-0.097749
 30
-10.0281
 11
-0.491418
 21
-0.097751
 31
10.0281
 12
-0.501046
 22
-2e-006
 32
10.0281
 13
-0.501046
 23
0
 33
-10.0281
  0
3DFACE
  8
0
 62
    50
 10
-0.501046
 20
0
 30
-10.0281
 11
-0.501046
 21
-2e-006
 31
10.0281
 12
-0.491419
 22
0.097747
 32
10.0281
 13
-0.491418
 23
0.09775
 33
-10.0281
  0
3DFACE
  8
0
 62
    50
 10
-0.491418
 20
0.09775
 30
-10.0281
 11
-0.491419
 21
0.097747
 31
10.0281
 12
-0.462907
 22
0.19174
 32
10.0281
 13
-0.462906
 23
0.191743
 33
-10.0281
  0
3DFACE
  8
0
 62
    50
 10
-0.462906
 20
0.191743
 30
-10.0281
 11
-0.462907
 21
0.19174
 31
10.0281
 12
-0.416606
 22
0.278364
 32
10.0281
 13
-0.416604
 23
0.278367
 33
-10.0281
  0
3DFACE
  8
0
 62
    50
 10
-0.416604
 20
0.278367
 30
-10.0281
 11
-0.416606
 21
0.278364
 31
10.0281
 12
-0.354295
 22
0.354291
 32
10.0281
 13
-0.354293
 23
0.354293
 33
-10.0281
  0
3DFACE
  8
0
 62
    50
 10
-0.354293
 20
0.354293
 30
-10.0281
 11
-0.354295
 21
0.354291
 31
10.0281
 12
-0.278369
 22
0.416603
 32
10.0281
 13
-0.278366
 23
0.416605
 33
-10.0281
  0
3DFACE
  8
0
 62
    50
 10
-0.278366
 20
0.416605
 30
-10.0281
 11
-0.278369
 21
0.416603
 31
10.0281
 12
-0.191745
 22
0.462905
 32
10.0281
 13
-0.191741
 23
0.462906
 33
-10.0281
  0
3DFACE
  8
0
 62
    50
 10
-0.191741
 20
0.462906
 30
-10.0281
 11
-0.191745
 21
0.462905
 31
10.0281
 12
-0.097753
 22
0.491418
 32
10.0281
 13
-0.097748
 23
0.491419
 33
-10.0281
  0
3DFACE
  8
0
 62
    50
 10
-0.097748
 20
0.491419
 30
-10.0281
 11
-0.097753
 21
0.491418
 31
10.0281
 12
-4e-006
 22
0.501046
 32
10.0281
 13
1e-006
 23
0.501046
 33
-10.0281
  0
3DFACE
  8
0
 62
    50
 10
1e-006
 20
0.501046
 30
-10.0281
 11
-4e-006
 21
0.501046
 31
10.0281
 12
0.097745
 22
0.491419
 32
10.0281
 13
0.09775
 23
0.491418
 33
-10.0281
  0
3DFACE
  8
0
 62
    50
 10
0.09775
 20
0.491418
 30
-10.0281
 11
0.097745
 21
0.491419
 31
10.0281
 12
0.191738
 22
0.462908
 32
10.0281
 13
0.191743
 23
0.462906
 33
-10.0281
  0
3DFACE
  8
0
 62
    50
 10
0.191743
 20
0.462906
 30
-10.0281
 11
0.191738
 21
0.462908
 31
10.0281
 12
0.278363
 22
0.416607
 32
10.0281
 13
0.278367
 23
0.416604
 33
-10.0281
  0
3DFACE
  8
0
 62
    50
 10
0.354294
 20
0.354292
 30
10.0281
 11
0.354293
 21
0.354293
 31
-10.0281
 12
0.278367
 22
0.416604
 32
-10.0281
 13
0.278363
 23
0.416607
 33
10.0281
  0
3DFACE
  8
0
 62
    50
 10
-4e-006
 20
0.501046
 30
10.0281
 11
-0.097753
 21
0.491418
 31
10.0281
 12
0.191738
 22
0.462908
 32
10.0281
 13
0.097745
 23
0.491419
 33
10.0281
  0
3DFACE
  8
0
 62
    50
 10
-0.097753
 20
0.491418
 30
10.0281
 11
-0.191745
 21
0.462905
 31
10.0281
 12
0.278363
 22
0.416607
 32
10.0281
 13
0.191738
 23
0.462908
 33
10.0281
  0
3DFACE
  8
0
 62
    50
 10
-0.191745
 20
0.462905
 30
10.0281
 11
-0.278369
 21
0.416603
 31
10.0281
 12
0.354294
 22
0.354292
 32
10.0281
 13
0.278363
 23
0.416607
 33
10.0281
  0
3DFACE
  8
0
 62
    50
 10
-0.278369
 20
0.416603
 30
10.0281
 11
-0.354295
 21
0.354291
 31
10.0281
 12
0.416605
 22
0.278365
 32
10.0281
 13
0.354294
 23
0.354292
 33
10.0281
  0
3DFACE
  8
0
 62
    50
 10
-0.354295
 20
0.354291
 30
10.0281
 11
-0.416606
 21
0.278364
 31
10.0281
 12
0.462907
 22
0.191741
 32
10.0281
 13
0.416605
 23
0.278365
 33
10.0281
  0
3DFACE
  8
0
 62
    50
 10
-0.416606
 20
0.278364
 30
10.0281
 11
-0.462907
 21
0.19174
 31
10.0281
 12
0.491419
 22
0.097748
 32
10.0281
 13
0.462907
 23
0.191741
 33
10.0281
  0
3DFACE
  8
0
 62
    50
 10
-0.462907
 20
0.19174
 30
10.0281
 11
-0.491419
 21
0.097747
 31
10.0281
 12
0.501046
 22
-1e-006
 32
10.0281
 13
0.491419
 23
0.097748
 33
10.0281
  0
3DFACE
  8
0
 62
    50
 10
-0.491419
 20
0.097747
 30
10.0281
 11
-0.501046
 21
-2e-006
 31
10.0281
 12
0.491418
 22
-0.09775
 32
10.0281
 13
0.501046
 23
-1e-006
 33
10.0281
  0
3DFACE
  8
0
 62
    50
 10
-0.501046
 20
-2e-006
 30
10.0281
 11
-0.491418
 21
-0.097751
 31
10.0281
 12
0.462906
 22
-0.191743
 32
10.0281
 13
0.491418
 23
-0.09775
 33
10.0281
  0
3DFACE
  8
0
 62
    50
 10
-0.491418
 20
-0.097751
 30
10.0281
 11
-0.462905
 21
-0.191744
 31
10.0281
 12
0.416604
 22
-0.278367
 32
10.0281
 13
0.462906
 23
-0.191743
 33
10.0281
  0
3DFACE
  8
0
 62
    50
 10
-0.462905
 20
-0.191744
 30
10.0281
 11
-0.416604
 21
-0.278367
 31
10.0281
 12
0.354293
 22
-0.354293
 32
10.0281
 13
0.416604
 23
-0.278367
 33
10.0281
  0
3DFACE
  8
0
 62
    50
 10
-0.416604
 20
-0.278367
 30
10.0281
 11
-0.354292
 21
-0.354294
 31
10.0281
 12
0.278366
 22
-0.416605
 32
10.0281
 13
0.354293
 23
-0.354293
 33
10.0281
  0
3DFACE
  8
0
 62
    50
 10
-0.354292
 20
-0.354294
 30
10.0281
 11
-0.278365
 21
-0.416605
 31
10.0281
 12
0.191742
 22
-0.462906
 32
10.0281
 13
0.278366
 23
-0.416605
 33
10.0281
  0
3DFACE
  8
0
 62
    50
 10
-0.278365
 20
-0.416605
 30
10.0281
 11
-0.191741
 21
-0.462906
 31
10.0281
 12
0.097749
 22
-0.491418
 32
10.0281
 13
0.191742
 23
-0.462906
 33
10.0281
  0
3DFACE
  8
0
 62
    50
 10
-0.191741
 20
-0.462906
 30
10.0281
 11
-0.097749
 21
-0.491419
 31
10.0281
 12
0
 22
-0.501046
 32
10.0281
 13
0.097749
 23
-0.491418
 33
10.0281
  0
3DFACE
  8
0
 62
    50
 10
2.03664
 20
2.02449
 30
7.73038
 11
2.48397
 21
1.56254
 31
7.73038
 12
2.12325
 22
1.10863
 32
7.73038
 13
1.75323
 23
1.49075
 33
7.73038
  0
3DFACE
  8
0
 62
    50
 10
2.03664
 20
2.02449
 30
7.73038
 11
1.52628
 21
2.36776
 31
7.73038
 12
1.33106
 22
1.7747
 32
7.73038
 13
1.75323
 23
1.49075
 33
7.73038
  0
3DFACE
  8
0
 62
    50
 10
1.52628
 20
2.36776
 30
7.73038
 11
0.972514
 21
2.57914
 31
7.73038
 12
0.872991
 22
1.94956
 32
7.73038
 13
1.33106
 23
1.7747
 33
7.73038
  0
3DFACE
  8
0
 62
    50
 10
0.972514
 20
2.57914
 30
7.73038
 11
0.39661
 21
2.65052
 31
7.73038
 12
0.396609
 22
2.0086
 32
7.73038
 13
0.872991
 23
1.94956
 33
7.73038
  0
3DFACE
  8
0
 62
    50
 10
2.03664
 20
-4.15267
 30
7.73038
 11
1.52628
 21
-4.49593
 31
7.73038
 12
1.33106
 22
-3.90287
 32
7.73038
 13
1.75322
 23
-3.61893
 33
7.73038
  0
3DFACE
  8
0
 62
    50
 10
2.03664
 20
-4.15267
 30
7.73038
 11
2.48397
 21
-3.69071
 31
7.73038
 12
2.12325
 22
-3.2368
 32
7.73038
 13
1.75322
 23
-3.61893
 33
7.73038
  0
3DFACE
  8
0
 62
    50
 10
2.48397
 20
-3.69071
 30
7.73038
 11
2.85109
 21
-3.12781
 31
7.73038
 12
2.42693
 22
-2.77117
 32
7.73038
 13
2.12325
 23
-3.2368
 33
7.73038
  0
3DFACE
  8
0
 62
    50
 10
2.85109
 20
-3.12781
 30
7.73038
 11
3.12388
 21
-2.4856
 31
7.73038
 12
2.65258
 22
-2.23995
 32
7.73038
 13
2.42693
 23
-2.77117
 33
7.73038
  0
3DFACE
  8
0
 62
    50
 10
3.12388
 20
-2.4856
 30
7.73038
 11
3.29187
 21
-1.78877
 31
7.73038
 12
2.79154
 22
-1.66353
 32
7.73038
 13
2.65258
 23
-2.23995
 33
7.73038
  0
3DFACE
  8
0
 62
    50
 10
3.29187
 20
-1.78877
 30
7.73038
 11
3.34859
 21
-1.06408
 31
7.73038
 12
2.83845
 22
-1.06408
 32
7.73038
 13
2.79154
 23
-1.66353
 33
7.73038
  0
3DFACE
  8
0
 62
    50
 10
3.29187
 20
-0.339401
 30
7.73038
 11
3.34859
 21
-1.06408
 31
7.73038
 12
2.83845
 22
-1.06408
 32
7.73038
 13
2.79154
 23
-0.464634
 33
7.73038
  0
3DFACE
  8
0
 62
    50
 10
3.29187
 20
-0.339401
 30
7.73038
 11
3.12388
 21
0.357433
 31
7.73038
 12
2.65258
 22
0.11178
 32
7.73038
 13
2.79154
 23
-0.464634
 33
7.73038
  0
3DFACE
  8
0
 62
    50
 10
3.12388
 20
0.357433
 30
7.73038
 11
2.85109
 21
0.999639
 31
7.73038
 12
2.42693
 22
0.643006
 32
7.73038
 13
2.65258
 23
0.11178
 33
7.73038
  0
3DFACE
  8
0
 62
    50
 10
2.85109
 20
0.999639
 30
7.73038
 11
2.48397
 21
1.56254
 31
7.73038
 12
2.12325
 22
1.10863
 32
7.73038
 13
2.42693
 23
0.643006
 33
7.73038
  0
3DFACE
  8
0
 62
    50
 10
2.42693
 20
0.643006
 30
7.73038
 11
2.12325
 21
1.10863
 31
7.73038
 12
2.12325
 22
1.10863
 32
7.12886
 13
2.42693
 23
0.643006
 33
7.12886
  0
3DFACE
  8
0
 62
    50
 10
2.65258
 20
0.11178
 30
7.73038
 11
2.42693
 21
0.643006
 31
7.73038
 12
2.42693
 22
0.643006
 32
7.12886
 13
2.65258
 23
0.11178
 33
7.12886
  0
3DFACE
  8
0
 62
    50
 10
2.79154
 20
-0.464634
 30
7.73038
 11
2.65258
 21
0.11178
 31
7.73038
 12
2.65258
 22
0.11178
 32
7.12886
 13
2.79154
 23
-0.464634
 33
7.12886
  0
3DFACE
  8
0
 62
    50
 10
2.79154
 20
-0.464634
 30
7.73038
 11
2.83845
 21
-1.06408
 31
7.73038
 12
2.83845
 22
-1.06408
 32
7.12886
 13
2.79154
 23
-0.464634
 33
7.12886
  0
3DFACE
  8
0
 62
    50
 10
2.79154
 20
-1.66353
 30
7.73038
 11
2.83845
 21
-1.06408
 31
7.73038
 12
2.83845
 22
-1.06408
 32
7.12886
 13
2.79154
 23
-1.66353
 33
7.12886
  0
3DFACE
  8
0
 62
    50
 10
2.65258
 20
-2.23995
 30
7.73038
 11
2.79154
 21
-1.66353
 31
7.73038
 12
2.79154
 22
-1.66353
 32
7.12886
 13
2.65258
 23
-2.23995
 33
7.12886
  0
3DFACE
  8
0
 62
    50
 10
2.42693
 20
-2.77117
 30
7.73038
 11
2.65258
 21
-2.23995
 31
7.73038
 12
2.65258
 22
-2.23995
 32
7.12886
 13
2.42693
 23
-2.77117
 33
7.12886
  0
3DFACE
  8
0
 62
    50
 10
2.12325
 20
-3.2368
 30
7.73038
 11
2.42693
 21
-2.77117
 31
7.73038
 12
2.42693
 22
-2.77117
 32
7.12886
 13
2.12325
 23
-3.2368
 33
7.12886
  0
3DFACE
  8
0
 62
    50
 10
1.75322
 20
-3.61893
 30
7.73038
 11
2.12325
 21
-3.2368
 31
7.73038
 12
2.12325
 22
-3.2368
 32
7.12886
 13
1.75322
 23
-3.61893
 33
7.12886
  0
3DFACE
  8
0
 62
    50
 10
1.75322
 20
-3.61893
 30
7.73038
 11
1.33106
 21
-3.90287
 31
7.73038
 12
1.33106
 22
-3.90287
 32
7.12886
 13
1.75322
 23
-3.61893
 33
7.12886
  0
3DFACE
  8
0
 62
    50
 10
1.33106
 20
-3.90287
 30
7.73038
 11
1.52628
 21
-4.49593
 31
7.73038
 12
1.52628
 22
-4.49593
 32
7.12886
 13
1.33106
 23
-3.90287
 33
7.12886
  0
3DFACE
  8
0
 62
    50
 10
0.872991
 20
1.94956
 30
7.73038
 11
0.396609
 21
2.0086
 31
7.73038
 12
0.396609
 22
2.0086
 32
7.12886
 13
0.872991
 23
1.94956
 33
7.12886
  0
3DFACE
  8
0
 62
    50
 10
1.33106
 20
1.7747
 30
7.73038
 11
0.872991
 21
1.94956
 31
7.73038
 12
0.872991
 22
1.94956
 32
7.12886
 13
1.33106
 23
1.7747
 33
7.12886
  0
3DFACE
  8
0
 62
    50
 10
1.75323
 20
1.49075
 30
7.73038
 11
1.33106
 21
1.7747
 31
7.73038
 12
1.33106
 22
1.7747
 32
7.12886
 13
1.75323
 23
1.49075
 33
7.12886
  0
3DFACE
  8
0
 62
    50
 10
1.75323
 20
1.49075
 30
7.73038
 11
2.12325
 21
1.10863
 31
7.73038
 12
2.12325
 22
1.10863
 32
7.12886
 13
1.75323
 23
1.49075
 33
7.12886
  0
3DFACE
  8
0
 62
    50
 10
2.03664
 20
2.02449
 30
7.73038
 11
2.48397
 21
1.56254
 31
7.73038
 12
2.48397
 22
1.56254
 32
7.12886
 13
2.03664
 23
2.02449
 33
7.12886
  0
3DFACE
  8
0
 62
    50
 10
2.03664
 20
2.02449
 30
7.73038
 11
1.52628
 21
2.36776
 31
7.73038
 12
1.52628
 22
2.36776
 32
7.12886
 13
2.03664
 23
2.02449
 33
7.12886
  0
3DFACE
  8
0
 62
    50
 10
1.52628
 20
2.36776
 30
7.73038
 11
0.972514
 21
2.57914
 31
7.73038
 12
0.972514
 22
2.57914
 32
7.12886
 13
1.52628
 23
2.36776
 33
7.12886
  0
3DFACE
  8
0
 62
    50
 10
0.972514
 20
2.57914
 30
7.73038
 11
0.39661
 21
2.65052
 31
7.73038
 12
0.39661
 22
2.65052
 32
7.12886
 13
0.972514
 23
2.57914
 33
7.12886
  0
3DFACE
  8
0
 62
    50
 10
2.03664
 20
-4.15267
 30
7.73038
 11
1.52628
 21
-4.49593
 31
7.73038
 12
1.52628
 22
-4.49593
 32
7.12886
 13
2.03664
 23
-4.15267
 33
7.12886
  0
3DFACE
  8
0
 62
    50
 10
2.03664
 20
-4.15267
 30
7.73038
 11
2.48397
 21
-3.69071
 31
7.73038
 12
2.48397
 22
-3.69071
 32
7.12886
 13
2.03664
 23
-4.15267
 33
7.12886
  0
3DFACE
  8
0
 62
    50
 10
2.48397
 20
-3.69071
 30
7.73038
 11
2.85109
 21
-3.12781
 31
7.73038
 12
2.85109
 22
-3.12781
 32
7.12886
 13
2.48397
 23
-3.69071
 33
7.12886
  0
3DFACE
  8
0
 62
    50
 10
2.85109
 20
-3.12781
 30
7.73038
 11
3.12388
 21
-2.4856
 31
7.73038
 12
3.12388
 22
-2.4856
 32
7.12886
 13
2.85109
 23
-3.12781
 33
7.12886
  0
3DFACE
  8
0
 62
    50
 10
3.12388
 20
-2.4856
 30
7.73038
 11
3.29187
 21
-1.78877
 31
7.73038
 12
3.29187
 22
-1.78877
 32
7.12886
 13
3.12388
 23
-2.4856
 33
7.12886
  0
3DFACE
  8
0
 62
    50
 10
3.29187
 20
-1.78877
 30
7.73038
 11
3.34859
 21
-1.06408
 31
7.73038
 12
3.34859
 22
-1.06408
 32
7.12886
 13
3.29187
 23
-1.78877
 33
7.12886
  0
3DFACE
  8
0
 62
    50
 10
3.29187
 20
-0.339401
 30
7.73038
 11
3.34859
 21
-1.06408
 31
7.73038
 12
3.34859
 22
-1.06408
 32
7.12886
 13
3.29187
 23
-0.339401
 33
7.12886
  0
3DFACE
  8
0
 62
    50
 10
3.29187
 20
-0.339401
 30
7.73038
 11
3.12388
 21
0.357433
 31
7.73038
 12
3.12388
 22
0.357433
 32
7.12886
 13
3.29187
 23
-0.339401
 33
7.12886
  0
3DFACE
  8
0
 62
    50
 10
3.12388
 20
0.357433
 30
7.73038
 11
2.85109
 21
0.999639
 31
7.73038
 12
2.85109
 22
0.999639
 32
7.12886
 13
3.12388
 23
0.357433
 33
7.12886
  0
3DFACE
  8
0
 62
    50
 10
2.85109
 20
0.999639
 30
7.73038
 11
2.48397
 21
1.56254
 31
7.73038
 12
2.48397
 22
1.56254
 32
7.12886
 13
2.85109
 23
0.999639
 33
7.12886
  0
3DFACE
  8
0
 62
    50
 10
2.03664
 20
2.02449
 30
7.12886
 11
2.48397
 21
1.56254
 31
7.12886
 12
2.12325
 22
1.10863
 32
7.12886
 13
1.75323
 23
1.49075
 33
7.12886
  0
3DFACE
  8
0
 62
    50
 10
2.03664
 20
2.02449
 30
7.12886
 11
1.52628
 21
2.36776
 31
7.12886
 12
1.33106
 22
1.7747
 32
7.12886
 13
1.75323
 23
1.49075
 33
7.12886
  0
3DFACE
  8
0
 62
    50
 10
1.52628
 20
2.36776
 30
7.12886
 11
0.972514
 21
2.57914
 31
7.12886
 12
0.872991
 22
1.94956
 32
7.12886
 13
1.33106
 23
1.7747
 33
7.12886
  0
3DFACE
  8
0
 62
    50
 10
0.972514
 20
2.57914
 30
7.12886
 11
0.39661
 21
2.65052
 31
7.12886
 12
0.396609
 22
2.0086
 32
7.12886
 13
0.872991
 23
1.94956
 33
7.12886
  0
3DFACE
  8
0
 62
    50
 10
2.03664
 20
-4.15267
 30
7.12886
 11
1.52628
 21
-4.49593
 31
7.12886
 12
1.33106
 22
-3.90287
 32
7.12886
 13
1.75322
 23
-3.61893
 33
7.12886
  0
3DFACE
  8
0
 62
    50
 10
2.03664
 20
-4.15267
 30
7.12886
 11
2.48397
 21
-3.69071
 31
7.12886
 12
2.12325
 22
-3.2368
 32
7.12886
 13
1.75322
 23
-3.61893
 33
7.12886
  0
3DFACE
  8
0
 62
    50
 10
2.48397
 20
-3.69071
 30
7.12886
 11
2.85109
 21
-3.12781
 31
7.12886
 12
2.42693
 22
-2.77117
 32
7.12886
 13
2.12325
 23
-3.2368
 33
7.12886
  0
3DFACE
  8
0
 62
    50
 10
2.85109
 20
-3.12781
 30
7.12886
 11
3.12388
 21
-2.4856
 31
7.12886
 12
2.65258
 22
-2.23995
 32
7.12886
 13
2.42693
 23
-2.77117
 33
7.12886
  0
3DFACE
  8
0
 62
    50
 10
3.12388
 20
-2.4856
 30
7.12886
 11
3.29187
 21
-1.78877
 31
7.12886
 12
2.79154
 22
-1.66353
 32
7.12886
 13
2.65258
 23
-2.23995
 33
7.12886
  0
3DFACE
  8
0
 62
    50
 10
3.29187
 20
-1.78877
 30
7.12886
 11
3.34859
 21
-1.06408
 31
7.12886
 12
2.83845
 22
-1.06408
 32
7.12886
 13
2.79154
 23
-1.66353
 33
7.12886
  0
3DFACE
  8
0
 62
    50
 10
3.29187
 20
-0.339401
 30
7.12886
 11
3.34859
 21
-1.06408
 31
7.12886
 12
2.83845
 22
-1.06408
 32
7.12886
 13
2.79154
 23
-0.464634
 33
7.12886
  0
3DFACE
  8
0
 62
    50
 10
3.29187
 20
-0.339401
 30
7.12886
 11
3.12388
 21
0.357433
 31
7.12886
 12
2.65258
 22
0.11178
 32
7.12886
 13
2.79154
 23
-0.464634
 33
7.12886
  0
3DFACE
  8
0
 62
    50
 10
3.12388
 20
0.357433
 30
7.12886
 11
2.85109
 21
0.999639
 31
7.12886
 12
2.42693
 22
0.643006
 32
7.12886
 13
2.65258
 23
0.11178
 33
7.12886
  0
3DFACE
  8
0
 62
    50
 10
2.85109
 20
0.999639
 30
7.12886
 11
2.48397
 21
1.56254
 31
7.12886
 12
2.12325
 22
1.10863
 32
7.12886
 13
2.42693
 23
0.643006
 33
7.12886
  0
3DFACE
  8
0
 62
    50
 10
-2.4566
 20
-0.000779
 30
-11.6807
 11
-1.46274
 21
0.203069
 31
-11.5482
 12
-1.30899
 22
-0.000779
 32
-11.5482
 13
-1.30899
 23
-0.000779
 33
-11.5482
  0
3DFACE
  8
0
 62
    50
 10
-1.30899
 20
-0.000779
 30
-11.5482
 11
-1.46274
 21
0.203069
 31
-11.5482
 12
-0.620181
 22
0.375884
 32
-11.171
 13
-0.336086
 23
-0.000779
 33
-11.171
  0
3DFACE
  8
0
 62
    50
 10
-0.336086
 20
-0.000779
 30
-11.171
 11
-0.620181
 21
0.375884
 31
-11.171
 12
-0.0572031
 22
0.491354
 32
-10.6064
 13
0.313986
 23
-0.000779
 33
-10.6064
  0
3DFACE
  8
0
 62
    50
 10
0.313986
 20
-0.000779
 30
-10.6064
 11
-0.0572031
 21
0.491354
 31
-10.6064
 12
0.140489
 22
0.531902
 32
-9.94042
 13
0.54226
 23
-0.000779
 33
-9.94042
  0
3DFACE
  8
0
 62
    50
 10
0.54226
 20
-0.000779
 30
-9.94042
 11
0.140489
 21
0.531902
 31
-9.94042
 12
-0.0572031
 22
0.491354
 32
-9.27445
 13
0.313986
 23
-0.000779
 33
-9.27445
  0
3DFACE
  8
0
 62
    50
 10
-0.620181
 20
0.375884
 30
-8.70987
 11
-0.336086
 21
-0.000779
 31
-8.70987
 12
0.313986
 22
-0.000779
 32
-9.27445
 13
-0.0572031
 23
0.491354
 33
-9.27445
  0
3DFACE
  8
0
 62
    50
 10
-0.336086
 20
-0.000779
 30
-8.70987
 11
-0.620181
 21
0.375884
 31
-8.70987
 12
-1.46274
 22
0.203069
 32
-8.33263
 13
-1.30899
 23
-0.000779
 33
-8.33263
  0
3DFACE
  8
0
 62
    50
 10
-1.30899
 20
-0.000779
 30
-8.33263
 11
-1.46274
 21
0.203069
 31
-8.33263
 12
-2.4566
 22
-0.000779
 32
-8.20016
 13
-2.4566
 23
-0.000779
 33
-8.20016
  0
3DFACE
  8
0
 62
    50
 10
-1.46274
 20
0.203069
 30
-8.33263
 11
-1.8828
 21
0.352297
 31
-8.33263
 12
-2.4566
 22
-0.000779
 32
-8.20016
 13
-2.4566
 23
-0.000779
 33
-8.20016
  0
3DFACE
  8
0
 62
    50
 10
-0.620181
 20
0.375884
 30
-8.70987
 11
-1.39634
 21
0.65162
 31
-8.70987
 12
-1.8828
 22
0.352297
 32
-8.33263
 13
-1.46274
 23
0.203069
 33
-8.33263
  0
3DFACE
  8
0
 62
    50
 10
-0.0572031
 20
0.491354
 30
-9.27445
 11
-1.07131
 21
0.851621
 31
-9.27445
 12
-1.39634
 22
0.65162
 32
-8.70987
 13
-0.620181
 23
0.375884
 33
-8.70987
  0
3DFACE
  8
0
 62
    50
 10
0.140489
 20
0.531902
 30
-9.94042
 11
-0.957171
 21
0.921852
 31
-9.94042
 12
-1.07131
 22
0.851621
 32
-9.27445
 13
-0.0572031
 23
0.491354
 33
-9.27445
  0
3DFACE
  8
0
 62
    50
 10
-0.0572031
 20
0.491354
 30
-10.6064
 11
-1.07131
 21
0.851621
 31
-10.6064
 12
-0.957171
 22
0.921852
 32
-9.94042
 13
0.140489
 23
0.531902
 33
-9.94042
  0
3DFACE
  8
0
 62
    50
 10
-0.620181
 20
0.375884
 30
-11.171
 11
-1.39634
 21
0.65162
 31
-11.171
 12
-1.07131
 22
0.851621
 32
-10.6064
 13
-0.0572031
 23
0.491354
 33
-10.6064
  0
3DFACE
  8
0
 62
    50
 10
-1.46274
 20
0.203069
 30
-11.5482
 11
-1.88279
 21
0.352297
 31
-11.5482
 12
-1.39634
 22
0.65162
 32
-11.171
 13
-0.620181
 23
0.375884
 33
-11.171
  0
3DFACE
  8
0
 62
    50
 10
-2.4566
 20
-0.000779
 30
-11.6807
 11
-1.88279
 21
0.352297
 31
-11.5482
 12
-1.46274
 22
0.203069
 32
-11.5482
 13
-1.46274
 23
0.203069
 33
-11.5482
  0
3DFACE
  8
0
 62
    50
 10
-2.4566
 20
-0.000779
 30
-11.6807
 11
-2.4566
 21
0.406918
 31
-11.5482
 12
-1.88279
 22
0.352297
 32
-11.5482
 13
-1.88279
 23
0.352297
 33
-11.5482
  0
3DFACE
  8
0
 62
    50
 10
-1.88279
 20
0.352297
 30
-11.5482
 11
-2.4566
 21
0.406918
 31
-11.5482
 12
-2.4566
 22
0.752546
 32
-11.171
 13
-1.39634
 23
0.65162
 33
-11.171
  0
3DFACE
  8
0
 62
    50
 10
-1.39634
 20
0.65162
 30
-11.171
 11
-2.4566
 21
0.752546
 31
-11.171
 12
-2.4566
 22
0.983488
 32
-10.6064
 13
-1.07131
 23
0.851621
 33
-10.6064
  0
3DFACE
  8
0
 62
    50
 10
-1.07131
 20
0.851621
 30
-10.6064
 11
-2.4566
 21
0.983488
 31
-10.6064
 12
-2.4566
 22
1.06458
 32
-9.94042
 13
-0.957171
 23
0.921852
 33
-9.94042
  0
3DFACE
  8
0
 62
    50
 10
-0.957171
 20
0.921852
 30
-9.94042
 11
-2.4566
 21
1.06458
 31
-9.94042
 12
-2.4566
 22
0.983488
 32
-9.27445
 13
-1.07131
 23
0.851621
 33
-9.27445
  0
3DFACE
  8
0
 62
    50
 10
-1.07131
 20
0.851621
 30
-9.27445
 11
-2.4566
 21
0.983488
 31
-9.27445
 12
-2.4566
 22
0.752546
 32
-8.70987
 13
-1.39634
 23
0.65162
 33
-8.70987
  0
3DFACE
  8
0
 62
    50
 10
-1.39634
 20
0.65162
 30
-8.70987
 11
-2.4566
 21
0.752546
 31
-8.70987
 12
-2.4566
 22
0.406918
 32
-8.33263
 13
-1.8828
 23
0.352297
 33
-8.33263
  0
3DFACE
  8
0
 62
    50
 10
-1.8828
 20
0.352297
 30
-8.33263
 11
-2.4566
 21
0.406918
 31
-8.33263
 12
-2.4566
 22
-0.000779
 32
-8.20016
 13
-2.4566
 23
-0.000779
 33
-8.20016
  0
3DFACE
  8
0
 62
    50
 10
-2.4566
 20
0.406918
 30
-8.33263
 11
-3.03041
 21
0.352297
 31
-8.33263
 12
-2.4566
 22
-0.000779
 32
-8.20016
 13
-2.4566
 23
-0.000779
 33
-8.20016
  0
3DFACE
  8
0
 62
    50
 10
-2.4566
 20
0.752546
 30
-8.70987
 11
-3.51686
 21
0.65162
 31
-8.70987
 12
-3.03041
 22
0.352297
 32
-8.33263
 13
-2.4566
 23
0.406918
 33
-8.33263
  0
3DFACE
  8
0
 62
    50
 10
-2.4566
 20
0.983488
 30
-9.27445
 11
-3.8419
 21
0.851621
 31
-9.27445
 12
-3.51686
 22
0.65162
 32
-8.70987
 13
-2.4566
 23
0.752546
 33
-8.70987
  0
3DFACE
  8
0
 62
    50
 10
-2.4566
 20
1.06458
 30
-9.94042
 11
-3.95603
 21
0.921852
 31
-9.94042
 12
-3.8419
 22
0.851621
 32
-9.27445
 13
-2.4566
 23
0.983488
 33
-9.27445
  0
3DFACE
  8
0
 62
    50
 10
-2.4566
 20
0.983488
 30
-10.6064
 11
-3.8419
 21
0.851621
 31
-10.6064
 12
-3.95603
 22
0.921852
 32
-9.94042
 13
-2.4566
 23
1.06458
 33
-9.94042
  0
3DFACE
  8
0
 62
    50
 10
-2.4566
 20
0.752546
 30
-11.171
 11
-3.51686
 21
0.65162
 31
-11.171
 12
-3.8419
 22
0.851621
 32
-10.6064
 13
-2.4566
 23
0.983488
 33
-10.6064
  0
3DFACE
  8
0
 62
    50
 10
-2.4566
 20
0.406918
 30
-11.5482
 11
-3.03041
 21
0.352297
 31
-11.5482
 12
-3.51686
 22
0.65162
 32
-11.171
 13
-2.4566
 23
0.752546
 33
-11.171
  0
3DFACE
  8
0
 62
    50
 10
-2.4566
 20
-0.000779
 30
-11.6807
 11
-3.03041
 21
0.352297
 31
-11.5482
 12
-2.4566
 22
0.406918
 32
-11.5482
 13
-2.4566
 23
0.406918
 33
-11.5482
  0
3DFACE
  8
0
 62
    50
 10
-2.4566
 20
-0.000779
 30
-11.6807
 11
-3.45047
 21
0.203069
 31
-11.5482
 12
-3.03041
 22
0.352297
 32
-11.5482
 13
-3.03041
 23
0.352297
 33
-11.5482
  0
3DFACE
  8
0
 62
    50
 10
-3.03041
 20
0.352297
 30
-11.5482
 11
-3.45047
 21
0.203069
 31
-11.5482
 12
-4.29302
 22
0.375884
 32
-11.171
 13
-3.51686
 23
0.65162
 33
-11.171
  0
3DFACE
  8
0
 62
    50
 10
-3.51686
 20
0.65162
 30
-11.171
 11
-4.29302
 21
0.375884
 31
-11.171
 12
-4.856
 22
0.491354
 32
-10.6064
 13
-3.8419
 23
0.851621
 33
-10.6064
  0
3DFACE
  8
0
 62
    50
 10
-3.8419
 20
0.851621
 30
-10.6064
 11
-4.856
 21
0.491354
 31
-10.6064
 12
-5.05369
 22
0.531902
 32
-9.94042
 13
-3.95603
 23
0.921852
 33
-9.94042
  0
3DFACE
  8
0
 62
    50
 10
-3.95603
 20
0.921852
 30
-9.94042
 11
-5.05369
 21
0.531902
 31
-9.94042
 12
-4.856
 22
0.491354
 32
-9.27445
 13
-3.8419
 23
0.851621
 33
-9.27445
  0
3DFACE
  8
0
 62
    50
 10
-3.8419
 20
0.851621
 30
-9.27445
 11
-4.856
 21
0.491354
 31
-9.27445
 12
-4.29302
 22
0.375884
 32
-8.70987
 13
-3.51686
 23
0.65162
 33
-8.70987
  0
3DFACE
  8
0
 62
    50
 10
-3.51686
 20
0.65162
 30
-8.70987
 11
-4.29302
 21
0.375884
 31
-8.70987
 12
-3.45047
 22
0.203069
 32
-8.33263
 13
-3.03041
 23
0.352297
 33
-8.33263
  0
3DFACE
  8
0
 62
    50
 10
-3.03041
 20
0.352297
 30
-8.33263
 11
-3.45047
 21
0.203069
 31
-8.33263
 12
-2.4566
 22
-0.000779
 32
-8.20016
 13
-2.4566
 23
-0.000779
 33
-8.20016
  0
3DFACE
  8
0
 62
    50
 10
-3.45047
 20
0.203069
 30
-8.33263
 11
-3.60422
 21
-0.000779
 31
-8.33263
 12
-2.4566
 22
-0.000779
 32
-8.20016
 13
-2.4566
 23
-0.000779
 33
-8.20016
  0
3DFACE
  8
0
 62
    50
 10
-4.29302
 20
0.375884
 30
-8.70987
 11
-4.57712
 21
-0.000779
 31
-8.70987
 12
-3.60422
 22
-0.000779
 32
-8.33263
 13
-3.45047
 23
0.203069
 33
-8.33263
  0
3DFACE
  8
0
 62
    50
 10
-4.856
 20
0.491354
 30
-9.27445
 11
-5.22719
 21
-0.000779
 31
-9.27445
 12
-4.57712
 22
-0.000779
 32
-8.70987
 13
-4.29302
 23
0.375884
 33
-8.70987
  0
3DFACE
  8
0
 62
    50
 10
-5.05369
 20
0.531902
 30
-9.94042
 11
-5.45546
 21
-0.000779
 31
-9.94042
 12
-5.22719
 22
-0.000779
 32
-9.27445
 13
-4.856
 23
0.491354
 33
-9.27445
  0
3DFACE
  8
0
 62
    50
 10
-4.856
 20
0.491354
 30
-10.6064
 11
-5.22719
 21
-0.000779
 31
-10.6064
 12
-5.45546
 22
-0.000779
 32
-9.94042
 13
-5.05369
 23
0.531902
 33
-9.94042
  0
3DFACE
  8
0
 62
    50
 10
-4.29302
 20
0.375884
 30
-11.171
 11
-4.57712
 21
-0.000779
 31
-11.171
 12
-5.22719
 22
-0.000779
 32
-10.6064
 13
-4.856
 23
0.491354
 33
-10.6064
  0
3DFACE
  8
0
 62
    50
 10
-3.45047
 20
0.203069
 30
-11.5482
 11
-3.60422
 21
-0.000779
 31
-11.5482
 12
-4.57712
 22
-0.000779
 32
-11.171
 13
-4.29302
 23
0.375884
 33
-11.171
  0
3DFACE
  8
0
 62
    50
 10
-2.4566
 20
-0.000779
 30
-11.6807
 11
-3.60422
 21
-0.000779
 31
-11.5482
 12
-3.45047
 22
0.203069
 32
-11.5482
 13
-3.45047
 23
0.203069
 33
-11.5482
  0
3DFACE
  8
0
 62
    50
 10
-2.4566
 20
-0.000779
 30
-11.6807
 11
-3.45047
 21
-0.204627
 31
-11.5482
 12
-3.60422
 22
-0.000779
 32
-11.5482
 13
-3.60422
 23
-0.000779
 33
-11.5482
  0
3DFACE
  8
0
 62
    50
 10
-3.60422
 20
-0.000779
 30
-11.5482
 11
-3.45047
 21
-0.204627
 31
-11.5482
 12
-4.29302
 22
-0.377442
 32
-11.171
 13
-4.57712
 23
-0.000779
 33
-11.171
  0
3DFACE
  8
0
 62
    50
 10
-4.57712
 20
-0.000779
 30
-11.171
 11
-4.29302
 21
-0.377442
 31
-11.171
 12
-4.856
 22
-0.492912
 32
-10.6064
 13
-5.22719
 23
-0.000779
 33
-10.6064
  0
3DFACE
  8
0
 62
    50
 10
-5.22719
 20
-0.000779
 30
-10.6064
 11
-4.856
 21
-0.492912
 31
-10.6064
 12
-5.05369
 22
-0.53346
 32
-9.94042
 13
-5.45546
 23
-0.000779
 33
-9.94042
  0
3DFACE
  8
0
 62
    50
 10
-5.45546
 20
-0.000779
 30
-9.94042
 11
-5.05369
 21
-0.53346
 31
-9.94042
 12
-4.856
 22
-0.492912
 32
-9.27445
 13
-5.22719
 23
-0.000779
 33
-9.27445
  0
3DFACE
  8
0
 62
    50
 10
-5.22719
 20
-0.000779
 30
-9.27445
 11
-4.856
 21
-0.492912
 31
-9.27445
 12
-4.29302
 22
-0.377442
 32
-8.70987
 13
-4.57712
 23
-0.000779
 33
-8.70987
  0
3DFACE
  8
0
 62
    50
 10
-4.57712
 20
-0.000779
 30
-8.70987
 11
-4.29302
 21
-0.377442
 31
-8.70987
 12
-3.45047
 22
-0.204627
 32
-8.33263
 13
-3.60422
 23
-0.000779
 33
-8.33263
  0
3DFACE
  8
0
 62
    50
 10
-3.60422
 20
-0.000779
 30
-8.33263
 11
-3.45047
 21
-0.204627
 31
-8.33263
 12
-2.4566
 22
-0.000779
 32
-8.20016
 13
-2.4566
 23
-0.000779
 33
-8.20016
  0
3DFACE
  8
0
 62
    50
 10
-3.45047
 20
-0.204627
 30
-8.33263
 11
-3.03041
 21
-0.353855
 31
-8.33263
 12
-2.4566
 22
-0.000779
 32
-8.20016
 13
-2.4566
 23
-0.000779
 33
-8.20016
  0
3DFACE
  8
0
 62
    50
 10
-4.29302
 20
-0.377442
 30
-8.70987
 11
-3.51686
 21
-0.653178
 31
-8.70987
 12
-3.03041
 22
-0.353855
 32
-8.33263
 13
-3.45047
 23
-0.204627
 33
-8.33263
  0
3DFACE
  8
0
 62
    50
 10
-4.856
 20
-0.492912
 30
-9.27445
 11
-3.8419
 21
-0.853179
 31
-9.27445
 12
-3.51686
 22
-0.653178
 32
-8.70987
 13
-4.29302
 23
-0.377442
 33
-8.70987
  0
3DFACE
  8
0
 62
    50
 10
-5.05369
 20
-0.53346
 30
-9.94042
 11
-3.95603
 21
-0.92341
 31
-9.94042
 12
-3.8419
 22
-0.853179
 32
-9.27445
 13
-4.856
 23
-0.492912
 33
-9.27445
  0
3DFACE
  8
0
 62
    50
 10
-4.856
 20
-0.492912
 30
-10.6064
 11
-3.8419
 21
-0.853179
 31
-10.6064
 12
-3.95603
 22
-0.92341
 32
-9.94042
 13
-5.05369
 23
-0.53346
 33
-9.94042
  0
3DFACE
  8
0
 62
    50
 10
-4.29302
 20
-0.377442
 30
-11.171
 11
-3.51686
 21
-0.653178
 31
-11.171
 12
-3.8419
 22
-0.853179
 32
-10.6064
 13
-4.856
 23
-0.492912
 33
-10.6064
  0
3DFACE
  8
0
 62
    50
 10
-3.45047
 20
-0.204627
 30
-11.5482
 11
-3.03041
 21
-0.353855
 31
-11.5482
 12
-3.51686
 22
-0.653178
 32
-11.171
 13
-4.29302
 23
-0.377442
 33
-11.171
  0
3DFACE
  8
0
 62
    50
 10
-2.4566
 20
-0.000779
 30
-11.6807
 11
-3.03041
 21
-0.353855
 31
-11.5482
 12
-3.45047
 22
-0.204627
 32
-11.5482
 13
-3.45047
 23
-0.204627
 33
-11.5482
  0
3DFACE
  8
0
 62
    50
 10
-2.4566
 20
-0.000779
 30
-11.6807
 11
-2.4566
 21
-0.408476
 31
-11.5482
 12
-3.03041
 22
-0.353855
 32
-11.5482
 13
-3.03041
 23
-0.353855
 33
-11.5482
  0
3DFACE
  8
0
 62
    50
 10
-3.03041
 20
-0.353855
 30
-11.5482
 11
-2.4566
 21
-0.408476
 31
-11.5482
 12
-2.4566
 22
-0.754104
 32
-11.171
 13
-3.51686
 23
-0.653178
 33
-11.171
  0
3DFACE
  8
0
 62
    50
 10
-3.51686
 20
-0.653178
 30
-11.171
 11
-2.4566
 21
-0.754104
 31
-11.171
 12
-2.4566
 22
-0.985046
 32
-10.6064
 13
-3.8419
 23
-0.853179
 33
-10.6064
  0
3DFACE
  8
0
 62
    50
 10
-3.8419
 20
-0.853179
 30
-10.6064
 11
-2.4566
 21
-0.985046
 31
-10.6064
 12
-2.4566
 22
-1.06614
 32
-9.94042
 13
-3.95603
 23
-0.92341
 33
-9.94042
  0
3DFACE
  8
0
 62
    50
 10
-3.95603
 20
-0.92341
 30
-9.94042
 11
-2.4566
 21
-1.06614
 31
-9.94042
 12
-2.4566
 22
-0.985046
 32
-9.27445
 13
-3.8419
 23
-0.853179
 33
-9.27445
  0
3DFACE
  8
0
 62
    50
 10
-3.8419
 20
-0.853179
 30
-9.27445
 11
-2.4566
 21
-0.985046
 31
-9.27445
 12
-2.4566
 22
-0.754104
 32
-8.70987
 13
-3.51686
 23
-0.653178
 33
-8.70987
  0
3DFACE
  8
0
 62
    50
 10
-3.51686
 20
-0.653178
 30
-8.70987
 11
-2.4566
 21
-0.754104
 31
-8.70987
 12
-2.4566
 22
-0.408476
 32
-8.33263
 13
-3.03041
 23
-0.353855
 33
-8.33263
  0
3DFACE
  8
0
 62
    50
 10
-3.03041
 20
-0.353855
 30
-8.33263
 11
-2.4566
 21
-0.408476
 31
-8.33263
 12
-2.4566
 22
-0.000779
 32
-8.20016
 13
-2.4566
 23
-0.000779
 33
-8.20016
  0
3DFACE
  8
0
 62
    50
 10
-2.4566
 20
-0.408476
 30
-8.33263
 11
-1.8828
 21
-0.353855
 31
-8.33263
 12
-2.4566
 22
-0.000779
 32
-8.20016
 13
-2.4566
 23
-0.000779
 33
-8.20016
  0
3DFACE
  8
0
 62
    50
 10
-2.4566
 20
-0.754104
 30
-8.70987
 11
-1.39634
 21
-0.653178
 31
-8.70987
 12
-1.8828
 22
-0.353855
 32
-8.33263
 13
-2.4566
 23
-0.408476
 33
-8.33263
  0
3DFACE
  8
0
 62
    50
 10
-2.4566
 20
-0.985046
 30
-9.27445
 11
-1.07131
 21
-0.853179
 31
-9.27445
 12
-1.39634
 22
-0.653178
 32
-8.70987
 13
-2.4566
 23
-0.754104
 33
-8.70987
  0
3DFACE
  8
0
 62
    50
 10
-2.4566
 20
-1.06614
 30
-9.94042
 11
-0.957171
 21
-0.92341
 31
-9.94042
 12
-1.07131
 22
-0.853179
 32
-9.27445
 13
-2.4566
 23
-0.985046
 33
-9.27445
  0
3DFACE
  8
0
 62
    50
 10
-2.4566
 20
-0.985046
 30
-10.6064
 11
-1.07131
 21
-0.853179
 31
-10.6064
 12
-0.957171
 22
-0.92341
 32
-9.94042
 13
-2.4566
 23
-1.06614
 33
-9.94042
  0
3DFACE
  8
0
 62
    50
 10
-2.4566
 20
-0.754104
 30
-11.171
 11
-1.39634
 21
-0.653178
 31
-11.171
 12
-1.07131
 22
-0.853179
 32
-10.6064
 13
-2.4566
 23
-0.985046
 33
-10.6064
  0
3DFACE
  8
0
 62
    50
 10
-2.4566
 20
-0.408476
 30
-11.5482
 11
-1.88279
 21
-0.353855
 31
-11.5482
 12
-1.39634
 22
-0.653178
 32
-11.171
 13
-2.4566
 23
-0.754104
 33
-11.171
  0
3DFACE
  8
0
 62
    50
 10
-2.4566
 20
-0.000779
 30
-11.6807
 11
-1.88279
 21
-0.353855
 31
-11.5482
 12
-2.4566
 22
-0.408476
 32
-11.5482
 13
-2.4566
 23
-0.408476
 33
-11.5482
  0
3DFACE
  8
0
 62
    50
 10
-2.4566
 20
-0.000779
 30
-11.6807
 11
-1.46274
 21
-0.204627
 31
-11.5482
 12
-1.88279
 22
-0.353855
 32
-11.5482
 13
-1.88279
 23
-0.353855
 33
-11.5482
  0
3DFACE
  8
0
 62
    50
 10
-1.88279
 20
-0.353855
 30
-11.5482
 11
-1.46274
 21
-0.204627
 31
-11.5482
 12
-0.620181
 22
-0.377442
 32
-11.171
 13
-1.39634
 23
-0.653178
 33
-11.171
  0
3DFACE
  8
0
 62
    50
 10
-1.39634
 20
-0.653178
 30
-11.171
 11
-0.620181
 21
-0.377442
 31
-11.171
 12
-0.0572031
 22
-0.492912
 32
-10.6064
 13
-1.07131
 23
-0.853179
 33
-10.6064
  0
3DFACE
  8
0
 62
    50
 10
-1.07131
 20
-0.853179
 30
-10.6064
 11
-0.0572031
 21
-0.492912
 31
-10.6064
 12
0.140489
 22
-0.53346
 32
-9.94042
 13
-0.957171
 23
-0.92341
 33
-9.94042
  0
3DFACE
  8
0
 62
    50
 10
-0.957171
 20
-0.92341
 30
-9.94042
 11
0.140489
 21
-0.53346
 31
-9.94042
 12
-0.0572031
 22
-0.492912
 32
-9.27445
 13
-1.07131
 23
-0.853179
 33
-9.27445
  0
3DFACE
  8
0
 62
    50
 10
-1.07131
 20
-0.853179
 30
-9.27445
 11
-0.0572031
 21
-0.492912
 31
-9.27445
 12
-0.620181
 22
-0.377442
 32
-8.70987
 13
-1.39634
 23
-0.653178
 33
-8.70987
  0
3DFACE
  8
0
 62
    50
 10
-1.39634
 20
-0.653178
 30
-8.70987
 11
-0.620181
 21
-0.377442
 31
-8.70987
 12
-1.46274
 22
-0.204627
 32
-8.33263
 13
-1.8828
 23
-0.353855
 33
-8.33263
  0
3DFACE
  8
0
 62
    50
 10
-1.8828
 20
-0.353855
 30
-8.33263
 11
-1.46274
 21
-0.204627
 31
-8.33263
 12
-2.4566
 22
-0.000779
 32
-8.20016
 13
-2.4566
 23
-0.000779
 33
-8.20016
  0
3DFACE
  8
0
 62
    50
 10
-1.46274
 20
-0.204627
 30
-8.33263
 11
-1.30899
 21
-0.000779
 31
-8.33263
 12
-2.4566
 22
-0.000779
 32
-8.20016
 13
-2.4566
 23
-0.000779
 33
-8.20016
  0
3DFACE
  8
0
 62
    50
 10
-0.620181
 20
-0.377442
 30
-8.70987
 11
-0.336086
 21
-0.000779
 31
-8.70987
 12
-1.30899
 22
-0.000779
 32
-8.33263
 13
-1.46274
 23
-0.204627
 33
-8.33263
  0
3DFACE
  8
0
 62
    50
 10
-0.336086
 20
-0.000779
 30
-8.70987
 11
-0.620181
 21
-0.377442
 31
-8.70987
 12
-0.0572031
 22
-0.492912
 32
-9.27445
 13
0.313986
 23
-0.000779
 33
-9.27445
  0
3DFACE
  8
0
 62
    50
 10
0.140489
 20
-0.53346
 30
-9.94042
 11
0.54226
 21
-0.000779
 31
-9.94042
 12
0.313986
 22
-0.000779
 32
-9.27445
 13
-0.0572031
 23
-0.492912
 33
-9.27445
  0
3DFACE
  8
0
 62
    50
 10
-0.0572031
 20
-0.492912
 30
-10.6064
 11
0.313986
 21
-0.000779
 31
-10.6064
 12
0.54226
 22
-0.000779
 32
-9.94042
 13
0.140489
 23
-0.53346
 33
-9.94042
  0
3DFACE
  8
0
 62
    50
 10
-0.620181
 20
-0.377442
 30
-11.171
 11
-0.336086
 21
-0.000779
 31
-11.171
 12
0.313986
 22
-0.000779
 32
-10.6064
 13
-0.0572031
 23
-0.492912
 33
-10.6064
  0
3DFACE
  8
0
 62
    50
 10
-1.46274
 20
-0.204627
 30
-11.5482
 11
-1.30899
 21
-0.000779
 31
-11.5482
 12
-0.336086
 22
-0.000779
 32
-11.171
 13
-0.620181
 23
-0.377442
 33
-11.171
  0
3DFACE
  8
0
 62
    50
 10
-2.4566
 20
-0.000779
 30
-11.6807
 11
-1.30899
 21
-0.000779
 31
-11.5482
 12
-1.46274
 22
-0.204627
 32
-11.5482
 13
-1.46274
 23
-0.204627
 33
-11.5482
  0
3DFACE
  8
0
 62
    90
 10
-2.4566
 20
-0.000779
 30
-11.6807
 11
-1.46274
 21
0.203069
 31
-11.5482
 12
-1.30899
 22
-0.000779
 32
-11.5482
 13
-1.30899
 23
-0.000779
 33
-11.5482
  0
3DFACE
  8
0
 62
    90
 10
-1.30899
 20
-0.000779
 30
-11.5482
 11
-1.46274
 21
0.203069
 31
-11.5482
 12
-0.620181
 22
0.375884
 32
-11.171
 13
-0.336086
 23
-0.000779
 33
-11.171
  0
3DFACE
  8
0
 62
    90
 10
-0.336086
 20
-0.000779
 30
-11.171
 11
-0.620181
 21
0.375884
 31
-11.171
 12
-0.0572031
 22
0.491354
 32
-10.6064
 13
0.313986
 23
-0.000779
 33
-10.6064
  0
3DFACE
  8
0
 62
    90
 10
0.313986
 20
-0.000779
 30
-10.6064
 11
-0.0572031
 21
0.491354
 31
-10.6064
 12
0.140489
 22
0.531902
 32
-9.94042
 13
0.54226
 23
-0.000779
 33
-9.94042
  0
3DFACE
  8
0
 62
    90
 10
0.54226
 20
-0.000779
 30
-9.94042
 11
0.140489
 21
0.531902
 31
-9.94042
 12
-0.0572031
 22
0.491354
 32
-9.27445
 13
0.313986
 23
-0.000779
 33
-9.27445
  0
3DFACE
  8
0
 62
    90
 10
-0.620181
 20
0.375884
 30
-8.70987
 11
-0.336086
 21
-0.000779
 31
-8.70987
 12
0.313986
 22
-0.000779
 32
-9.27445
 13
-0.0572031
 23
0.491354
 33
-9.27445
  0
3DFACE
  8
0
 62
    90
 10
-0.336086
 20
-0.000779
 30
-8.70987
 11
-0.620181
 21
0.375884
 31
-8.70987
 12
-1.46274
 22
0.203069
 32
-8.33263
 13
-1.30899
 23
-0.000779
 33
-8.33263
  0
3DFACE
  8
0
 62
    90
 10
-1.30899
 20
-0.000779
 30
-8.33263
 11
-1.46274
 21
0.203069
 31
-8.33263
 12
-2.4566
 22
-0.000779
 32
-8.20016
 13
-2.4566
 23
-0.000779
 33
-8.20016
  0
3DFACE
  8
0
 62
    90
 10
-1.46274
 20
0.203069
 30
-8.33263
 11
-1.8828
 21
0.352297
 31
-8.33263
 12
-2.4566
 22
-0.000779
 32
-8.20016
 13
-2.4566
 23
-0.000779
 33
-8.20016
  0
3DFACE
  8
0
 62
    90
 10
-0.620181
 20
0.375884
 30
-8.70987
 11
-1.39634
 21
0.65162
 31
-8.70987
 12
-1.8828
 22
0.352297
 32
-8.33263
 13
-1.46274
 23
0.203069
 33
-8.33263
  0
3DFACE
  8
0
 62
    90
 10
-0.0572031
 20
0.491354
 30
-9.27445
 11
-1.07131
 21
0.851621
 31
-9.27445
 12
-1.39634
 22
0.65162
 32
-8.70987
 13
-0.620181
 23
0.375884
 33
-8.70987
  0
3DFACE
  8
0
 62
    90
 10
0.140489
 20
0.531902
 30
-9.94042
 11
-0.957171
 21
0.921852
 31
-9.94042
 12
-1.07131
 22
0.851621
 32
-9.27445
 13
-0.0572031
 23
0.491354
 33
-9.27445
  0
3DFACE
  8
0
 62
    90
 10
-0.0572031
 20
0.491354
 30
-10.6064
 11
-1.07131
 21
0.851621
 31
-10.6064
 12
-0.957171
 22
0.921852
 32
-9.94042
 13
0.140489
 23
0.531902
 33
-9.94042
  0
3DFACE
  8
0
 62
    90
 10
-0.620181
 20
0.375884
 30
-11.171
 11
-1.39634
 21
0.65162
 31
-11.171
 12
-1.07131
 22
0.851621
 32
-10.6064
 13
-0.0572031
 23
0.491354
 33
-10.6064
  0
3DFACE
  8
0
 62
    90
 10
-1.46274
 20
0.203069
 30
-11.5482
 11
-1.88279
 21
0.352297
 31
-11.5482
 12
-1.39634
 22
0.65162
 32
-11.171
 13
-0.620181
 23
0.375884
 33
-11.171
  0
3DFACE
  8
0
 62
    90
 10
-2.4566
 20
-0.000779
 30
-11.6807
 11
-1.88279
 21
0.352297
 31
-11.5482
 12
-1.46274
 22
0.203069
 32
-11.5482
 13
-1.46274
 23
0.203069
 33
-11.5482
  0
3DFACE
  8
0
 62
    90
 10
-2.4566
 20
-0.000779
 30
-11.6807
 11
-2.4566
 21
0.406918
 31
-11.5482
 12
-1.88279
 22
0.352297
 32
-11.5482
 13
-1.88279
 23
0.352297
 33
-11.5482
  0
3DFACE
  8
0
 62
    90
 10
-1.88279
 20
0.352297
 30
-11.5482
 11
-2.4566
 21
0.406918
 31
-11.5482
 12
-2.4566
 22
0.752546
 32
-11.171
 13
-1.39634
 23
0.65162
 33
-11.171
  0
3DFACE
  8
0
 62
    90
 10
-1.39634
 20
0.65162
 30
-11.171
 11
-2.4566
 21
0.752546
 31
-11.171
 12
-2.4566
 22
0.983488
 32
-10.6064
 13
-1.07131
 23
0.851621
 33
-10.6064
  0
3DFACE
  8
0
 62
    90
 10
-1.07131
 20
0.851621
 30
-10.6064
 11
-2.4566
 21
0.983488
 31
-10.6064
 12
-2.4566
 22
1.06458
 32
-9.94042
 13
-0.957171
 23
0.921852
 33
-9.94042
  0
3DFACE
  8
0
 62
    90
 10
-0.957171
 20
0.921852
 30
-9.94042
 11
-2.4566
 21
1.06458
 31
-9.94042
 12
-2.4566
 22
0.983488
 32
-9.27445
 13
-1.07131
 23
0.851621
 33
-9.27445
  0
3DFACE
  8
0
 62
    90
 10
-1.07131
 20
0.851621
 30
-9.27445
 11
-2.4566
 21
0.983488
 31
-9.27445
 12
-2.4566
 22
0.752546
 32
-8.70987
 13
-1.39634
 23
0.65162
 33
-8.70987
  0
3DFACE
  8
0
 62
    90
 10
-1.39634
 20
0.65162
 30
-8.70987
 11
-2.4566
 21
0.752546
 31
-8.70987
 12
-2.4566
 22
0.406918
 32
-8.33263
 13
-1.8828
 23
0.352297
 33
-8.33263
  0
3DFACE
  8
0
 62
    90
 10
-1.8828
 20
0.352297
 30
-8.33263
 11
-2.4566
 21
0.406918
 31
-8.33263
 12
-2.4566
 22
-0.000779
 32
-8.20016
 13
-2.4566
 23
-0.000779
 33
-8.20016
  0
3DFACE
  8
0
 62
    90
 10
-2.4566
 20
0.406918
 30
-8.33263
 11
-3.03041
 21
0.352297
 31
-8.33263
 12
-2.4566
 22
-0.000779
 32
-8.20016
 13
-2.4566
 23
-0.000779
 33
-8.20016
  0
3DFACE
  8
0
 62
    90
 10
-2.4566
 20
0.752546
 30
-8.70987
 11
-3.51686
 21
0.65162
 31
-8.70987
 12
-3.03041
 22
0.352297
 32
-8.33263
 13
-2.4566
 23
0.406918
 33
-8.33263
  0
3DFACE
  8
0
 62
    90
 10
-2.4566
 20
0.983488
 30
-9.27445
 11
-3.8419
 21
0.851621
 31
-9.27445
 12
-3.51686
 22
0.65162
 32
-8.70987
 13
-2.4566
 23
0.752546
 33
-8.70987
  0
3DFACE
  8
0
 62
    90
 10
-2.4566
 20
1.06458
 30
-9.94042
 11
-3.95603
 21
0.921852
 31
-9.94042
 12
-3.8419
 22
0.851621
 32
-9.27445
 13
-2.4566
 23
0.983488
 33
-9.27445
  0
3DFACE
  8
0
 62
    90
 10
-2.4566
 20
0.983488
 30
-10.6064
 11
-3.8419
 21
0.851621
 31
-10.6064
 12
-3.95603
 22
0.921852
 32
-9.94042
 13
-2.4566
 23
1.06458
 33
-9.94042
  0
3DFACE
  8
0
 62
    90
 10
-2.4566
 20
0.752546
 30
-11.171
 11
-3.51686
 21
0.65162
 31
-11.171
 12
-3.8419
 22
0.851621
 32
-10.6064
 13
-2.4566
 23
0.983488
 33
-10.6064
  0
3DFACE
  8
0
 62
    90
 10
-2.4566
 20
0.406918
 30
-11.5482
 11
-3.03041
 21
0.352297
 31
-11.5482
 12
-3.51686
 22
0.65162
 32
-11.171
 13
-2.4566
 23
0.752546
 33
-11.171
  0
3DFACE
  8
0
 62
    90
 10
-2.4566
 20
-0.000779
 30
-11.6807
 11
-3.03041
 21
0.352297
 31
-11.5482
 12
-2.4566
 22
0.406918
 32
-11.5482
 13
-2.4566
 23
0.406918
 33
-11.5482
  0
3DFACE
  8
0
 62
    90
 10
-2.4566
 20
-0.000779
 30
-11.6807
 11
-3.45047
 21
0.203069
 31
-11.5482
 12
-3.03041
 22
0.352297
 32
-11.5482
 13
-3.03041
 23
0.352297
 33
-11.5482
  0
3DFACE
  8
0
 62
    90
 10
-3.03041
 20
0.352297
 30
-11.5482
 11
-3.45047
 21
0.203069
 31
-11.5482
 12
-4.29302
 22
0.375884
 32
-11.171
 13
-3.51686
 23
0.65162
 33
-11.171
  0
3DFACE
  8
0
 62
    90
 10
-3.51686
 20
0.65162
 30
-11.171
 11
-4.29302
 21
0.375884
 31
-11.171
 12
-4.856
 22
0.491354
 32
-10.6064
 13
-3.8419
 23
0.851621
 33
-10.6064
  0
3DFACE
  8
0
 62
    90
 10
-3.8419
 20
0.851621
 30
-10.6064
 11
-4.856
 21
0.491354
 31
-10.6064
 12
-5.05369
 22
0.531902
 32
-9.94042
 13
-3.95603
 23
0.921852
 33
-9.94042
  0
3DFACE
  8
0
 62
    90
 10
-3.95603
 20
0.921852
 30
-9.94042
 11
-5.05369
 21
0.531902
 31
-9.94042
 12
-4.856
 22
0.491354
 32
-9.27445
 13
-3.8419
 23
0.851621
 33
-9.27445
  0
3DFACE
  8
0
 62
    90
 10
-3.8419
 20
0.851621
 30
-9.27445
 11
-4.856
 21
0.491354
 31
-9.27445
 12
-4.29302
 22
0.375884
 32
-8.70987
 13
-3.51686
 23
0.65162
 33
-8.70987
  0
3DFACE
  8
0
 62
    90
 10
-3.51686
 20
0.65162
 30
-8.70987
 11
-4.29302
 21
0.375884
 31
-8.70987
 12
-3.45047
 22
0.203069
 32
-8.33263
 13
-3.03041
 23
0.352297
 33
-8.33263
  0
3DFACE
  8
0
 62
    90
 10
-3.03041
 20
0.352297
 30
-8.33263
 11
-3.45047
 21
0.203069
 31
-8.33263
 12
-2.4566
 22
-0.000779
 32
-8.20016
 13
-2.4566
 23
-0.000779
 33
-8.20016
  0
3DFACE
  8
0
 62
    90
 10
-3.45047
 20
0.203069
 30
-8.33263
 11
-3.60422
 21
-0.000779
 31
-8.33263
 12
-2.4566
 22
-0.000779
 32
-8.20016
 13
-2.4566
 23
-0.000779
 33
-8.20016
  0
3DFACE
  8
0
 62
    90
 10
-4.29302
 20
0.375884
 30
-8.70987
 11
-4.57712
 21
-0.000779
 31
-8.70987
 12
-3.60422
 22
-0.000779
 32
-8.33263
 13
-3.45047
 23
0.203069
 33
-8.33263
  0
3DFACE
  8
0
 62
    90
 10
-4.856
 20
0.491354
 30
-9.27445
 11
-5.22719
 21
-0.000779
 31
-9.27445
 12
-4.57712
 22
-0.000779
 32
-8.70987
 13
-4.29302
 23
0.375884
 33
-8.70987
  0
3DFACE
  8
0
 62
    90
 10
-5.05369
 20
0.531902
 30
-9.94042
 11
-5.45546
 21
-0.000779
 31
-9.94042
 12
-5.22719
 22
-0.000779
 32
-9.27445
 13
-4.856
 23
0.491354
 33
-9.27445
  0
3DFACE
  8
0
 62
    90
 10
-4.856
 20
0.491354
 30
-10.6064
 11
-5.22719
 21
-0.000779
 31
-10.6064
 12
-5.45546
 22
-0.000779
 32
-9.94042
 13
-5.05369
 23
0.531902
 33
-9.94042
  0
3DFACE
  8
0
 62
    90
 10
-4.29302
 20
0.375884
 30
-11.171
 11
-4.57712
 21
-0.000779
 31
-11.171
 12
-5.22719
 22
-0.000779
 32
-10.6064
 13
-4.856
 23
0.491354
 33
-10.6064
  0
3DFACE
  8
0
 62
    90
 10
-3.45047
 20
0.203069
 30
-11.5482
 11
-3.60422
 21
-0.000779
 31
-11.5482
 12
-4.57712
 22
-0.000779
 32
-11.171
 13
-4.29302
 23
0.375884
 33
-11.171
  0
3DFACE
  8
0
 62
    90
 10
-2.4566
 20
-0.000779
 30
-11.6807
 11
-3.60422
 21
-0.000779
 31
-11.5482
 12
-3.45047
 22
0.203069
 32
-11.5482
 13
-3.45047
 23
0.203069
 33
-11.5482
  0
3DFACE
  8
0
 62
    90
 10
-2.4566
 20
-0.000779
 30
-11.6807
 11
-3.45047
 21
-0.204627
 31
-11.5482
 12
-3.60422
 22
-0.000779
 32
-11.5482
 13
-3.60422
 23
-0.000779
 33
-11.5482
  0
3DFACE
  8
0
 62
    90
 10
-3.60422
 20
-0.000779
 30
-11.5482
 11
-3.45047
 21
-0.204627
 31
-11.5482
 12
-4.29302
 22
-0.377442
 32
-11.171
 13
-4.57712
 23
-0.000779
 33
-11.171
  0
3DFACE
  8
0
 62
    90
 10
-4.57712
 20
-0.000779
 30
-11.171
 11
-4.29302
 21
-0.377442
 31
-11.171
 12
-4.856
 22
-0.492912
 32
-10.6064
 13
-5.22719
 23
-0.000779
 33
-10.6064
  0
3DFACE
  8
0
 62
    90
 10
-5.22719
 20
-0.000779
 30
-10.6064
 11
-4.856
 21
-0.492912
 31
-10.6064
 12
-5.05369
 22
-0.53346
 32
-9.94042
 13
-5.45546
 23
-0.000779
 33
-9.94042
  0
3DFACE
  8
0
 62
    90
 10
-5.45546
 20
-0.000779
 30
-9.94042
 11
-5.05369
 21
-0.53346
 31
-9.94042
 12
-4.856
 22
-0.492912
 32
-9.27445
 13
-5.22719
 23
-0.000779
 33
-9.27445
  0
3DFACE
  8
0
 62
    90
 10
-5.22719
 20
-0.000779
 30
-9.27445
 11
-4.856
 21
-0.492912
 31
-9.27445
 12
-4.29302
 22
-0.377442
 32
-8.70987
 13
-4.57712
 23
-0.000779
 33
-8.70987
  0
3DFACE
  8
0
 62
    90
 10
-4.57712
 20
-0.000779
 30
-8.70987
 11
-4.29302
 21
-0.377442
 31
-8.70987
 12
-3.45047
 22
-0.204627
 32
-8.33263
 13
-3.60422
 23
-0.000779
 33
-8.33263
  0
3DFACE
  8
0
 62
    90
 10
-3.60422
 20
-0.000779
 30
-8.33263
 11
-3.45047
 21
-0.204627
 31
-8.33263
 12
-2.4566
 22
-0.000779
 32
-8.20016
 13
-2.4566
 23
-0.000779
 33
-8.20016
  0
3DFACE
  8
0
 62
    90
 10
-3.45047
 20
-0.204627
 30
-8.33263
 11
-3.03041
 21
-0.353855
 31
-8.33263
 12
-2.4566
 22
-0.000779
 32
-8.20016
 13
-2.4566
 23
-0.000779
 33
-8.20016
  0
3DFACE
  8
0
 62
    90
 10
-4.29302
 20
-0.377442
 30
-8.70987
 11
-3.51686
 21
-0.653178
 31
-8.70987
 12
-3.03041
 22
-0.353855
 32
-8.33263
 13
-3.45047
 23
-0.204627
 33
-8.33263
  0
3DFACE
  8
0
 62
    90
 10
-4.856
 20
-0.492912
 30
-9.27445
 11
-3.8419
 21
-0.853179
 31
-9.27445
 12
-3.51686
 22
-0.653178
 32
-8.70987
 13
-4.29302
 23
-0.377442
 33
-8.70987
  0
3DFACE
  8
0
 62
    90
 10
-5.05369
 20
-0.53346
 30
-9.94042
 11
-3.95603
 21
-0.92341
 31
-9.94042
 12
-3.8419
 22
-0.853179
 32
-9.27445
 13
-4.856
 23
-0.492912
 33
-9.27445
  0
3DFACE
  8
0
 62
    90
 10
-4.856
 20
-0.492912
 30
-10.6064
 11
-3.8419
 21
-0.853179
 31
-10.6064
 12
-3.95603
 22
-0.92341
 32
-9.94042
 13
-5.05369
 23
-0.53346
 33
-9.94042
  0
3DFACE
  8
0
 62
    90
 10
-4.29302
 20
-0.377442
 30
-11.171
 11
-3.51686
 21
-0.653178
 31
-11.171
 12
-3.8419
 22
-0.853179
 32
-10.6064
 13
-4.856
 23
-0.492912
 33
-10.6064
  0
3DFACE
  8
0
 62
    90
 10
-3.45047
 20
-0.204627
 30
-11.5482
 11
-3.03041
 21
-0.353855
 31
-11.5482
 12
-3.51686
 22
-0.653178
 32
-11.171
 13
-4.29302
 23
-0.377442
 33
-11.171
  0
3DFACE
  8
0
 62
    90
 10
-2.4566
 20
-0.000779
 30
-11.6807
 11
-3.03041
 21
-0.353855
 31
-11.5482
 12
-3.45047
 22
-0.204627
 32
-11.5482
 13
-3.45047
 23
-0.204627
 33
-11.5482
  0
3DFACE
  8
0
 62
    90
 10
-2.4566
 20
-0.000779
 30
-11.6807
 11
-2.4566
 21
-0.408476
 31
-11.5482
 12
-3.03041
 22
-0.353855
 32
-11.5482
 13
-3.03041
 23
-0.353855
 33
-11.5482
  0
3DFACE
  8
0
 62
    90
 10
-3.03041
 20
-0.353855
 30
-11.5482
 11
-2.4566
 21
-0.408476
 31
-11.5482
 12
-2.4566
 22
-0.754104
 32
-11.171
 13
-3.51686
 23
-0.653178
 33
-11.171
  0
3DFACE
  8
0
 62
    90
 10
-3.51686
 20
-0.653178
 30
-11.171
 11
-2.4566
 21
-0.754104
 31
-11.171
 12
-2.4566
 22
-0.985046
 32
-10.6064
 13
-3.8419
 23
-0.853179
 33
-10.6064
  0
3DFACE
  8
0
 62
    90
 10
-3.8419
 20
-0.853179
 30
-10.6064
 11
-2.4566
 21
-0.985046
 31
-10.6064
 12
-2.4566
 22
-1.06614
 32
-9.94042
 13
-3.95603
 23
-0.92341
 33
-9.94042
  0
3DFACE
  8
0
 62
    90
 10
-3.95603
 20
-0.92341
 30
-9.94042
 11
-2.4566
 21
-1.06614
 31
-9.94042
 12
-2.4566
 22
-0.985046
 32
-9.27445
 13
-3.8419
 23
-0.853179
 33
-9.27445
  0
3DFACE
  8
0
 62
    90
 10
-3.8419
 20
-0.853179
 30
-9.27445
 11
-2.4566
 21
-0.985046
 31
-9.27445
 12
-2.4566
 22
-0.754104
 32
-8.70987
 13
-3.51686
 23
-0.653178
 33
-8.70987
  0
3DFACE
  8
0
 62
    90
 10
-3.51686
 20
-0.653178
 30
-8.70987
 11
-2.4566
 21
-0.754104
 31
-8.70987
 12
-2.4566
 22
-0.408476
 32
-8.33263
 13
-3.03041
 23
-0.353855
 33
-8.33263
  0
3DFACE
  8
0
 62
    90
 10
-3.03041
 20
-0.353855
 30
-8.33263
 11
-2.4566
 21
-0.408476
 31
-8.33263
 12
-2.4566
 22
-0.000779
 32
-8.20016
 13
-2.4566
 23
-0.000779
 33
-8.20016
  0
3DFACE
  8
0
 62
    90
 10
-2.4566
 20
-0.408476
 30
-8.33263
 11
-1.8828
 21
-0.353855
 31
-8.33263
 12
-2.4566
 22
-0.000779
 32
-8.20016
 13
-2.4566
 23
-0.000779
 33
-8.20016
  0
3DFACE
  8
0
 62
    90
 10
-2.4566
 20
-0.754104
 30
-8.70987
 11
-1.39634
 21
-0.653178
 31
-8.70987
 12
-1.8828
 22
-0.353855
 32
-8.33263
 13
-2.4566
 23
-0.408476
 33
-8.33263
  0
3DFACE
  8
0
 62
    90
 10
-2.4566
 20
-0.985046
 30
-9.27445
 11
-1.07131
 21
-0.853179
 31
-9.27445
 12
-1.39634
 22
-0.653178
 32
-8.70987
 13
-2.4566
 23
-0.754104
 33
-8.70987
  0
3DFACE
  8
0
 62
    90
 10
-2.4566
 20
-1.06614
 30
-9.94042
 11
-0.957171
 21
-0.92341
 31
-9.94042
 12
-1.07131
 22
-0.853179
 32
-9.27445
 13
-2.4566
 23
-0.985046
 33
-9.27445
  0
3DFACE
  8
0
 62
    90
 10
-2.4566
 20
-0.985046
 30
-10.6064
 11
-1.07131
 21
-0.853179
 31
-10.6064
 12
-0.957171
 22
-0.92341
 32
-9.94042
 13
-2.4566
 23
-1.06614
 33
-9.94042
  0
3DFACE
  8
0
 62
    90
 10
-2.4566
 20
-0.754104
 30
-11.171
 11
-1.39634
 21
-0.653178
 31
-11.171
 12
-1.07131
 22
-0.853179
 32
-10.6064
 13
-2.4566
 23
-0.985046
 33
-10.6064
  0
3DFACE
  8
0
 62
    90
 10
-2.4566
 20
-0.408476
 30
-11.5482
 11
-1.88279
 21
-0.353855
 31
-11.5482
 12
-1.39634
 22
-0.653178
 32
-11.171
 13
-2.4566
 23
-0.754104
 33
-11.171
  0
3DFACE
  8
0
 62
    90
 10
-2.4566
 20
-0.000779
 30
-11.6807
 11
-1.88279
 21
-0.353855
 31
-11.5482
 12
-2.4566
 22
-0.408476
 32
-11.5482
 13
-2.4566
 23
-0.408476
 33
-11.5482
  0
3DFACE
  8
0
 62
    90
 10
-2.4566
 20
-0.000779
 30
-11.6807
 11
-1.46274
 21
-0.204627
 31
-11.5482
 12
-1.88279
 22
-0.353855
 32
-11.5482
 13
-1.88279
 23
-0.353855
 33
-11.5482
  0
3DFACE
  8
0
 62
    90
 10
-1.88279
 20
-0.353855
 30
-11.5482
 11
-1.46274
 21
-0.204627
 31
-11.5482
 12
-0.620181
 22
-0.377442
 32
-11.171
 13
-1.39634
 23
-0.653178
 33
-11.171
  0
3DFACE
  8
0
 62
    90
 10
-1.39634
 20
-0.653178
 30
-11.171
 11
-0.620181
 21
-0.377442
 31
-11.171
 12
-0.0572031
 22
-0.492912
 32
-10.6064
 13
-1.07131
 23
-0.853179
 33
-10.6064
  0
3DFACE
  8
0
 62
    90
 10
-1.07131
 20
-0.853179
 30
-10.6064
 11
-0.0572031
 21
-0.492912
 31
-10.6064
 12
0.140489
 22
-0.53346
 32
-9.94042
 13
-0.957171
 23
-0.92341
 33
-9.94042
  0
3DFACE
  8
0
 62
    90
 10
-0.957171
 20
-0.92341
 30
-9.94042
 11
0.140489
 21
-0.53346
 31
-9.94042
 12
-0.0572031
 22
-0.492912
 32
-9.27445
 13
-1.07131
 23
-0.853179
 33
-9.27445
  0
3DFACE
  8
0
 62
    90
 10
-1.07131
 20
-0.853179
 30
-9.27445
 11
-0.0572031
 21
-0.492912
 31
-9.27445
 12
-0.620181
 22
-0.377442
 32
-8.70987
 13
-1.39634
 23
-0.653178
 33
-8.70987
  0
3DFACE
  8
0
 62
    90
 10
-1.39634
 20
-0.653178
 30
-8.70987
 11
-0.620181
 21
-0.377442
 31
-8.70987
 12
-1.46274
 22
-0.204627
 32
-8.33263
 13
-1.8828
 23
-0.353855
 33
-8.33263
  0
3DFACE
  8
0
 62
    90
 10
-1.8828
 20
-0.353855
 30
-8.33263
 11
-1.46274
 21
-0.204627
 31
-8.33263
 12
-2.4566
 22
-0.000779
 32
-8.20016
 13
-2.4566
 23
-0.000779
 33
-8.20016
  0
3DFACE
  8
0
 62
    90
 10
-1.46274
 20
-0.204627
 30
-8.33263
 11
-1.30899
 21
-0.000779
 31
-8.33263
 12
-2.4566
 22
-0.000779
 32
-8.20016
 13
-2.4566
 23
-0.000779
 33
-8.20016
  0
3DFACE
  8
0
 62
    90
 10
-0.620181
 20
-0.377442
 30
-8.70987
 11
-0.336086
 21
-0.000779
 31
-8.70987
 12
-1.30899
 22
-0.000779
 32
-8.33263
 13
-1.46274
 23
-0.204627
 33
-8.33263
  0
3DFACE
  8
0
 62
    90
 10
-0.336086
 20
-0.000779
 30
-8.70987
 11
-0.620181
 21
-0.377442
 31
-8.70987
 12
-0.0572031
 22
-0.492912
 32
-9.27445
 13
0.313986
 23
-0.000779
 33
-9.27445
  0
3DFACE
  8
0
 62
    90
 10
0.140489
 20
-0.53346
 30
-9.94042
 11
0.54226
 21
-0.000779
 31
-9.94042
 12
0.313986
 22
-0.000779
 32
-9.27445
 13
-0.0572031
 23
-0.492912
 33
-9.27445
  0
3DFACE
  8
0
 62
    90
 10
-0.0572031
 20
-0.492912
 30
-10.6064
 11
0.313986
 21
-0.000779
 31
-10.6064
 12
0.54226
 22
-0.000779
 32
-9.94042
 13
0.140489
 23
-0.53346
 33
-9.94042
  0
3DFACE
  8
0
 62
    90
 10
-0.620181
 20
-0.377442
 30
-11.171
 11
-0.336086
 21
-0.000779
 31
-11.171
 12
0.313986
 22
-0.000779
 32
-10.6064
 13
-0.0572031
 23
-0.492912
 33
-10.6064
  0
3DFACE
  8
0
 62
    90
 10
-1.46274
 20
-0.204627
 30
-11.5482
 11
-1.30899
 21
-0.000779
 31
-11.5482
 12
-0.336086
 22
-0.000779
 32
-11.171
 13
-0.620181
 23
-0.377442
 33
-11.171
  0
3DFACE
  8
0
 62
    90
 10
-2.4566
 20
-0.000779
 30
-11.6807
 11
-1.30899
 21
-0.000779
 31
-11.5482
 12
-1.46274
 22
-0.204627
 32
-11.5482
 13
-1.46274
 23
-0.204627
 33
-11.5482
  0
3DFACE
  8
0
 62
    90
 10
2.03664
 20
2.02449
 30
7.73038
 11
2.48397
 21
1.56254
 31
7.73038
 12
2.12325
 22
1.10863
 32
7.73038
 13
1.75323
 23
1.49075
 33
7.73038
  0
3DFACE
  8
0
 62
    90
 10
2.03664
 20
2.02449
 30
7.73038
 11
1.52628
 21
2.36776
 31
7.73038
 12
1.33106
 22
1.7747
 32
7.73038
 13
1.75323
 23
1.49075
 33
7.73038
  0
3DFACE
  8
0
 62
    90
 10
1.52628
 20
2.36776
 30
7.73038
 11
0.972514
 21
2.57914
 31
7.73038
 12
0.872991
 22
1.94956
 32
7.73038
 13
1.33106
 23
1.7747
 33
7.73038
  0
3DFACE
  8
0
 62
    90
 10
0.972514
 20
2.57914
 30
7.73038
 11
0.39661
 21
2.65052
 31
7.73038
 12
0.396609
 22
2.0086
 32
7.73038
 13
0.872991
 23
1.94956
 33
7.73038
  0
3DFACE
  8
0
 62
    90
 10
2.03664
 20
-4.15267
 30
7.73038
 11
1.52628
 21
-4.49593
 31
7.73038
 12
1.33106
 22
-3.90287
 32
7.73038
 13
1.75322
 23
-3.61893
 33
7.73038
  0
3DFACE
  8
0
 62
    90
 10
2.03664
 20
-4.15267
 30
7.73038
 11
2.48397
 21
-3.69071
 31
7.73038
 12
2.12325
 22
-3.2368
 32
7.73038
 13
1.75322
 23
-3.61893
 33
7.73038
  0
3DFACE
  8
0
 62
    90
 10
2.48397
 20
-3.69071
 30
7.73038
 11
2.85109
 21
-3.12781
 31
7.73038
 12
2.42693
 22
-2.77117
 32
7.73038
 13
2.12325
 23
-3.2368
 33
7.73038
  0
3DFACE
  8
0
 62
    90
 10
2.85109
 20
-3.12781
 30
7.73038
 11
3.12388
 21
-2.4856
 31
7.73038
 12
2.65258
 22
-2.23995
 32
7.73038
 13
2.42693
 23
-2.77117
 33
7.73038
  0
3DFACE
  8
0
 62
    90
 10
3.12388
 20
-2.4856
 30
7.73038
 11
3.29187
 21
-1.78877
 31
7.73038
 12
2.79154
 22
-1.66353
 32
7.73038
 13
2.65258
 23
-2.23995
 33
7.73038
  0
3DFACE
  8
0
 62
    90
 10
3.29187
 20
-1.78877
 30
7.73038
 11
3.34859
 21
-1.06408
 31
7.73038
 12
2.83845
 22
-1.06408
 32
7.73038
 13
2.79154
 23
-1.66353
 33
7.73038
  0
3DFACE
  8
0
 62
    90
 10
3.29187
 20
-0.339401
 30
7.73038
 11
3.34859
 21
-1.06408
 31
7.73038
 12
2.83845
 22
-1.06408
 32
7.73038
 13
2.79154
 23
-0.464634
 33
7.73038
  0
3DFACE
  8
0
 62
    90
 10
3.29187
 20
-0.339401
 30
7.73038
 11
3.12388
 21
0.357433
 31
7.73038
 12
2.65258
 22
0.11178
 32
7.73038
 13
2.79154
 23
-0.464634
 33
7.73038
  0
3DFACE
  8
0
 62
    90
 10
3.12388
 20
0.357433
 30
7.73038
 11
2.85109
 21
0.999639
 31
7.73038
 12
2.42693
 22
0.643006
 32
7.73038
 13
2.65258
 23
0.11178
 33
7.73038
  0
3DFACE
  8
0
 62
    90
 10
2.85109
 20
0.999639
 30
7.73038
 11
2.48397
 21
1.56254
 31
7.73038
 12
2.12325
 22
1.10863
 32
7.73038
 13
2.42693
 23
0.643006
 33
7.73038
  0
3DFACE
  8
0
 62
    90
 10
2.42693
 20
0.643006
 30
7.73038
 11
2.12325
 21
1.10863
 31
7.73038
 12
2.12325
 22
1.10863
 32
7.12886
 13
2.42693
 23
0.643006
 33
7.12886
  0
3DFACE
  8
0
 62
    90
 10
2.65258
 20
0.11178
 30
7.73038
 11
2.42693
 21
0.643006
 31
7.73038
 12
2.42693
 22
0.643006
 32
7.12886
 13
2.65258
 23
0.11178
 33
7.12886
  0
3DFACE
  8
0
 62
    90
 10
2.79154
 20
-0.464634
 30
7.73038
 11
2.65258
 21
0.11178
 31
7.73038
 12
2.65258
 22
0.11178
 32
7.12886
 13
2.79154
 23
-0.464634
 33
7.12886
  0
3DFACE
  8
0
 62
    90
 10
2.79154
 20
-0.464634
 30
7.73038
 11
2.83845
 21
-1.06408
 31
7.73038
 12
2.83845
 22
-1.06408
 32
7.12886
 13
2.79154
 23
-0.464634
 33
7.12886
  0
3DFACE
  8
0
 62
    90
 10
2.79154
 20
-1.66353
 30
7.73038
 11
2.83845
 21
-1.06408
 31
7.73038
 12
2.83845
 22
-1.06408
 32
7.12886
 13
2.79154
 23
-1.66353
 33
7.12886
  0
3DFACE
  8
0
 62
    90
 10
2.65258
 20
-2.23995
 30
7.73038
 11
2.79154
 21
-1.66353
 31
7.73038
 12
2.79154
 22
-1.66353
 32
7.12886
 13
2.65258
 23
-2.23995
 33
7.12886
  0
3DFACE
  8
0
 62
    90
 10
2.42693
 20
-2.77117
 30
7.73038
 11
2.65258
 21
-2.23995
 31
7.73038
 12
2.65258
 22
-2.23995
 32
7.12886
 13
2.42693
 23
-2.77117
 33
7.12886
  0
3DFACE
  8
0
 62
    90
 10
2.12325
 20
-3.2368
 30
7.73038
 11
2.42693
 21
-2.77117
 31
7.73038
 12
2.42693
 22
-2.77117
 32
7.12886
 13
2.12325
 23
-3.2368
 33
7.12886
  0
3DFACE
  8
0
 62
    90
 10
1.75322
 20
-3.61893
 30
7.73038
 11
2.12325
 21
-3.2368
 31
7.73038
 12
2.12325
 22
-3.2368
 32
7.12886
 13
1.75322
 23
-3.61893
 33
7.12886
  0
3DFACE
  8
0
 62
    90
 10
1.75322
 20
-3.61893
 30
7.73038
 11
1.33106
 21
-3.90287
 31
7.73038
 12
1.33106
 22
-3.90287
 32
7.12886
 13
1.75322
 23
-3.61893
 33
7.12886
  0
3DFACE
  8
0
 62
    90
 10
1.33106
 20
-3.90287
 30
7.73038
 11
1.52628
 21
-4.49593
 31
7.73038
 12
1.52628
 22
-4.49593
 32
7.12886
 13
1.33106
 23
-3.90287
 33
7.12886
  0
3DFACE
  8
0
 62
    90
 10
0.872991
 20
1.94956
 30
7.73038
 11
0.396609
 21
2.0086
 31
7.73038
 12
0.396609
 22
2.0086
 32
7.12886
 13
0.872991
 23
1.94956
 33
7.12886
  0
3DFACE
  8
0
 62
    90
 10
1.33106
 20
1.7747
 30
7.73038
 11
0.872991
 21
1.94956
 31
7.73038
 12
0.872991
 22
1.94956
 32
7.12886
 13
1.33106
 23
1.7747
 33
7.12886
  0
3DFACE
  8
0
 62
    90
 10
1.75323
 20
1.49075
 30
7.73038
 11
1.33106
 21
1.7747
 31
7.73038
 12
1.33106
 22
1.7747
 32
7.12886
 13
1.75323
 23
1.49075
 33
7.12886
  0
3DFACE
  8
0
 62
    90
 10
1.75323
 20
1.49075
 30
7.73038
 11
2.12325
 21
1.10863
 31
7.73038
 12
2.12325
 22
1.10863
 32
7.12886
 13
1.75323
 23
1.49075
 33
7.12886
  0
3DFACE
  8
0
 62
    90
 10
2.03664
 20
2.02449
 30
7.73038
 11
2.48397
 21
1.56254
 31
7.73038
 12
2.48397
 22
1.56254
 32
7.12886
 13
2.03664
 23
2.02449
 33
7.12886
  0
3DFACE
  8
0
 62
    90
 10
2.03664
 20
2.02449
 30
7.73038
 11
1.52628
 21
2.36776
 31
7.73038
 12
1.52628
 22
2.36776
 32
7.12886
 13
2.03664
 23
2.02449
 33
7.12886
  0
3DFACE
  8
0
 62
    90
 10
1.52628
 20
2.36776
 30
7.73038
 11
0.972514
 21
2.57914
 31
7.73038
 12
0.972514
 22
2.57914
 32
7.12886
 13
1.52628
 23
2.36776
 33
7.12886
  0
3DFACE
  8
0
 62
    90
 10
0.972514
 20
2.57914
 30
7.73038
 11
0.39661
 21
2.65052
 31
7.73038
 12
0.39661
 22
2.65052
 32
7.12886
 13
0.972514
 23
2.57914
 33
7.12886
  0
3DFACE
  8
0
 62
    90
 10
2.03664
 20
-4.15267
 30
7.73038
 11
1.52628
 21
-4.49593
 31
7.73038
 12
1.52628
 22
-4.49593
 32
7.12886
 13
2.03664
 23
-4.15267
 33
7.12886
  0
3DFACE
  8
0
 62
    90
 10
2.03664
 20
-4.15267
 30
7.73038
 11
2.48397
 21
-3.69071
 31
7.73038
 12
2.48397
 22
-3.69071
 32
7.12886
 13
2.03664
 23
-4.15267
 33
7.12886
  0
3DFACE
  8
0
 62
    90
 10
2.48397
 20
-3.69071
 30
7.73038
 11
2.85109
 21
-3.12781
 31
7.73038
 12
2.85109
 22
-3.12781
 32
7.12886
 13
2.48397
 23
-3.69071
 33
7.12886
  0
3DFACE
  8
0
 62
    90
 10
2.85109
 20
-3.12781
 30
7.73038
 11
3.12388
 21
-2.4856
 31
7.73038
 12
3.12388
 22
-2.4856
 32
7.12886
 13
2.85109
 23
-3.12781
 33
7.12886
  0
3DFACE
  8
0
 62
    90
 10
3.12388
 20
-2.4856
 30
7.73038
 11
3.29187
 21
-1.78877
 31
7.73038
 12
3.29187
 22
-1.78877
 32
7.12886
 13
3.12388
 23
-2.4856
 33
7.12886
  0
3DFACE
  8
0
 62
    90
 10
3.29187
 20
-1.78877
 30
7.73038
 11
3.34859
 21
-1.06408
 31
7.73038
 12
3.34859
 22
-1.06408
 32
7.12886
 13
3.29187
 23
-1.78877
 33
7.12886
  0
3DFACE
  8
0
 62
    90
 10
3.29187
 20
-0.339401
 30
7.73038
 11
3.34859
 21
-1.06408
 31
7.73038
 12
3.34859
 22
-1.06408
 32
7.12886
 13
3.29187
 23
-0.339401
 33
7.12886
  0
3DFACE
  8
0
 62
    90
 10
3.29187
 20
-0.339401
 30
7.73038
 11
3.12388
 21
0.357433
 31
7.73038
 12
3.12388
 22
0.357433
 32
7.12886
 13
3.29187
 23
-0.339401
 33
7.12886
  0
3DFACE
  8
0
 62
    90
 10
3.12388
 20
0.357433
 30
7.73038
 11
2.85109
 21
0.999639
 31
7.73038
 12
2.85109
 22
0.999639
 32
7.12886
 13
3.12388
 23
0.357433
 33
7.12886
  0
3DFACE
  8
0
 62
    90
 10
2.85109
 20
0.999639
 30
7.73038
 11
2.48397
 21
1.56254
 31
7.73038
 12
2.48397
 22
1.56254
 32
7.12886
 13
2.85109
 23
0.999639
 33
7.12886
  0
3DFACE
  8
0
 62
    90
 10
2.03664
 20
2.02449
 30
7.12886
 11
2.48397
 21
1.56254
 31
7.12886
 12
2.12325
 22
1.10863
 32
7.12886
 13
1.75323
 23
1.49075
 33
7.12886
  0
3DFACE
  8
0
 62
    90
 10
2.03664
 20
2.02449
 30
7.12886
 11
1.52628
 21
2.36776
 31
7.12886
 12
1.33106
 22
1.7747
 32
7.12886
 13
1.75323
 23
1.49075
 33
7.12886
  0
3DFACE
  8
0
 62
    90
 10
1.52628
 20
2.36776
 30
7.12886
 11
0.972514
 21
2.57914
 31
7.12886
 12
0.872991
 22
1.94956
 32
7.12886
 13
1.33106
 23
1.7747
 33
7.12886
  0
3DFACE
  8
0
 62
    90
 10
0.972514
 20
2.57914
 30
7.12886
 11
0.39661
 21
2.65052
 31
7.12886
 12
0.396609
 22
2.0086
 32
7.12886
 13
0.872991
 23
1.94956
 33
7.12886
  0
3DFACE
  8
0
 62
    90
 10
2.03664
 20
-4.15267
 30
7.12886
 11
1.52628
 21
-4.49593
 31
7.12886
 12
1.33106
 22
-3.90287
 32
7.12886
 13
1.75322
 23
-3.61893
 33
7.12886
  0
3DFACE
  8
0
 62
    90
 10
2.03664
 20
-4.15267
 30
7.12886
 11
2.48397
 21
-3.69071
 31
7.12886
 12
2.12325
 22
-3.2368
 32
7.12886
 13
1.75322
 23
-3.61893
 33
7.12886
  0
3DFACE
  8
0
 62
    90
 10
2.48397
 20
-3.69071
 30
7.12886
 11
2.85109
 21
-3.12781
 31
7.12886
 12
2.42693
 22
-2.77117
 32
7.12886
 13
2.12325
 23
-3.2368
 33
7.12886
  0
3DFACE
  8
0
 62
    90
 10
2.85109
 20
-3.12781
 30
7.12886
 11
3.12388
 21
-2.4856
 31
7.12886
 12
2.65258
 22
-2.23995
 32
7.12886
 13
2.42693
 23
-2.77117
 33
7.12886
  0
3DFACE
  8
0
 62
    90
 10
3.12388
 20
-2.4856
 30
7.12886
 11
3.29187
 21
-1.78877
 31
7.12886
 12
2.79154
 22
-1.66353
 32
7.12886
 13
2.65258
 23
-2.23995
 33
7.12886
  0
3DFACE
  8
0
 62
    90
 10
3.29187
 20
-1.78877
 30
7.12886
 11
3.34859
 21
-1.06408
 31
7.12886
 12
2.83845
 22
-1.06408
 32
7.12886
 13
2.79154
 23
-1.66353
 33
7.12886
  0
3DFACE
  8
0
 62
    90
 10
3.29187
 20
-0.339401
 30
7.12886
 11
3.34859
 21
-1.06408
 31
7.12886
 12
2.83845
 22
-1.06408
 32
7.12886
 13
2.79154
 23
-0.464634
 33
7.12886
  0
3DFACE
  8
0
 62
    90
 10
3.29187
 20
-0.339401
 30
7.12886
 11
3.12388
 21
0.357433
 31
7.12886
 12
2.65258
 22
0.11178
 32
7.12886
 13
2.79154
 23
-0.464634
 33
7.12886
  0
3DFACE
  8
0
 62
    90
 10
3.12388
 20
0.357433
 30
7.12886
 11
2.85109
 21
0.999639
 31
7.12886
 12
2.42693
 22
0.643006
 32
7.12886
 13
2.65258
 23
0.11178
 33
7.12886
  0
3DFACE
  8
0
 62
    90
 10
2.85109
 20
0.999639
 30
7.12886
 11
2.48397
 21
1.56254
 31
7.12886
 12
2.12325
 22
1.10863
 32
7.12886
 13
2.42693
 23
0.643006
 33
7.12886
  0
3DFACE
  8
0
 62
    90
 10
0.354293
 20
0.354293
 30
-10.0281
 11
0.354294
 21
0.354292
 31
10.0281
 12
0.416605
 22
0.278365
 32
10.0281
 13
0.416605
 23
0.278366
 33
-10.0281
  0
3DFACE
  8
0
 62
    90
 10
0.416605
 20
0.278366
 30
-10.0281
 11
0.416605
 21
0.278365
 31
10.0281
 12
0.462907
 22
0.191741
 32
10.0281
 13
0.462906
 23
0.191742
 33
-10.0281
  0
3DFACE
  8
0
 62
    90
 10
0.462906
 20
0.191742
 30
-10.0281
 11
0.462907
 21
0.191741
 31
10.0281
 12
0.491419
 22
0.097748
 32
10.0281
 13
0.491419
 23
0.097749
 33
-10.0281
  0
3DFACE
  8
0
 62
    90
 10
0.491419
 20
0.097749
 30
-10.0281
 11
0.491419
 21
0.097748
 31
10.0281
 12
0.501046
 22
-1e-006
 32
10.0281
 13
0.501046
 23
0
 33
-10.0281
  0
3DFACE
  8
0
 62
    90
 10
0.501046
 20
0
 30
-10.0281
 11
0.501046
 21
-1e-006
 31
10.0281
 12
0.491418
 22
-0.09775
 32
10.0281
 13
0.491419
 23
-0.097749
 33
-10.0281
  0
3DFACE
  8
0
 62
    90
 10
0.491419
 20
-0.097749
 30
-10.0281
 11
0.491418
 21
-0.09775
 31
10.0281
 12
0.462906
 22
-0.191743
 32
10.0281
 13
0.462906
 23
-0.191742
 33
-10.0281
  0
3DFACE
  8
0
 62
    90
 10
0.462906
 20
-0.191742
 30
-10.0281
 11
0.462906
 21
-0.191743
 31
10.0281
 12
0.416604
 22
-0.278367
 32
10.0281
 13
0.416605
 23
-0.278366
 33
-10.0281
  0
3DFACE
  8
0
 62
    90
 10
0.416605
 20
-0.278366
 30
-10.0281
 11
0.416604
 21
-0.278367
 31
10.0281
 12
0.354293
 22
-0.354293
 32
10.0281
 13
0.354293
 23
-0.354293
 33
-10.0281
  0
3DFACE
  8
0
 62
    90
 10
0.354293
 20
-0.354293
 30
-10.0281
 11
0.354293
 21
-0.354293
 31
10.0281
 12
0.278366
 22
-0.416605
 32
10.0281
 13
0.278366
 23
-0.416605
 33
-10.0281
  0
3DFACE
  8
0
 62
    90
 10
0.278366
 20
-0.416605
 30
-10.0281
 11
0.278366
 21
-0.416605
 31
10.0281
 12
0.191742
 22
-0.462906
 32
10.0281
 13
0.191742
 23
-0.462906
 33
-10.0281
  0
3DFACE
  8
0
 62
    90
 10
0.191742
 20
-0.462906
 30
-10.0281
 11
0.191742
 21
-0.462906
 31
10.0281
 12
0.097749
 22
-0.491418
 32
10.0281
 13
0.097749
 23
-0.491419
 33
-10.0281
  0
3DFACE
  8
0
 62
    90
 10
0.097749
 20
-0.491419
 30
-10.0281
 11
0.097749
 21
-0.491418
 31
10.0281
 12
0
 22
-0.501046
 32
10.0281
 13
0
 23
-0.501046
 33
-10.0281
  0
3DFACE
  8
0
 62
    90
 10
0
 20
-0.501046
 30
-10.0281
 11
0
 21
-0.501046
 31
10.0281
 12
-0.097749
 22
-0.491419
 32
10.0281
 13
-0.097749
 23
-0.491418
 33
-10.0281
  0
3DFACE
  8
0
 62
    90
 10
-0.097749
 20
-0.491418
 30
-10.0281
 11
-0.097749
 21
-0.491419
 31
10.0281
 12
-0.191741
 22
-0.462906
 32
10.0281
 13
-0.191742
 23
-0.462906
 33
-10.0281
  0
3DFACE
  8
0
 62
    90
 10
-0.191742
 20
-0.462906
 30
-10.0281
 11
-0.191741
 21
-0.462906
 31
10.0281
 12
-0.278365
 22
-0.416605
 32
10.0281
 13
-0.278366
 23
-0.416604
 33
-10.0281
  0
3DFACE
  8
0
 62
    90
 10
-0.278366
 20
-0.416604
 30
-10.0281
 11
-0.278365
 21
-0.416605
 31
10.0281
 12
-0.354292
 22
-0.354294
 32
10.0281
 13
-0.354293
 23
-0.354293
 33
-10.0281
  0
3DFACE
  8
0
 62
    90
 10
-0.354293
 20
-0.354293
 30
-10.0281
 11
-0.354292
 21
-0.354294
 31
10.0281
 12
-0.416604
 22
-0.278367
 32
10.0281
 13
-0.416605
 23
-0.278366
 33
-10.0281
  0
3DFACE
  8
0
 62
    90
 10
-0.416605
 20
-0.278366
 30
-10.0281
 11
-0.416604
 21
-0.278367
 31
10.0281
 12
-0.462905
 22
-0.191744
 32
10.0281
 13
-0.462906
 23
-0.191742
 33
-10.0281
  0
3DFACE
  8
0
 62
    90
 10
-0.462906
 20
-0.191742
 30
-10.0281
 11
-0.462905
 21
-0.191744
 31
10.0281
 12
-0.491418
 22
-0.097751
 32
10.0281
 13
-0.491419
 23
-0.097749
 33
-10.0281
  0
3DFACE
  8
0
 62
    90
 10
-0.491419
 20
-0.097749
 30
-10.0281
 11
-0.491418
 21
-0.097751
 31
10.0281
 12
-0.501046
 22
-2e-006
 32
10.0281
 13
-0.501046
 23
0
 33
-10.0281
  0
3DFACE
  8
0
 62
    90
 10
-0.501046
 20
0
 30
-10.0281
 11
-0.501046
 21
-2e-006
 31
10.0281
 12
-0.491419
 22
0.097747
 32
10.0281
 13
-0.491418
 23
0.09775
 33
-10.0281
  0
3DFACE
  8
0
 62
    90
 10
-0.491418
 20
0.09775
 30
-10.0281
 11
-0.491419
 21
0.097747
 31
10.0281
 12
-0.462907
 22
0.19174
 32
10.0281
 13
-0.462906
 23
0.191743
 33
-10.0281
  0
3DFACE
  8
0
 62
    90
 10
-0.462906
 20
0.191743
 30
-10.0281
 11
-0.462907
 21
0.19174
 31
10.0281
 12
-0.416606
 22
0.278364
 32
10.0281
 13
-0.416604
 23
0.278367
 33
-10.0281
  0
3DFACE
  8
0
 62
    90
 10
-0.416604
 20
0.278367
 30
-10.0281
 11
-0.416606
 21
0.278364
 31
10.0281
 12
-0.354295
 22
0.354291
 32
10.0281
 13
-0.354293
 23
0.354293
 33
-10.0281
  0
3DFACE
  8
0
 62
    90
 10
-0.354293
 20
0.354293
 30
-10.0281
 11
-0.354295
 21
0.354291
 31
10.0281
 12
-0.278369
 22
0.416603
 32
10.0281
 13
-0.278366
 23
0.416605
 33
-10.0281
  0
3DFACE
  8
0
 62
    90
 10
-0.278366
 20
0.416605
 30
-10.0281
 11
-0.278369
 21
0.416603
 31
10.0281
 12
-0.191745
 22
0.462905
 32
10.0281
 13
-0.191741
 23
0.462906
 33
-10.0281
  0
3DFACE
  8
0
 62
    90
 10
-0.191741
 20
0.462906
 30
-10.0281
 11
-0.191745
 21
0.462905
 31
10.0281
 12
-0.097753
 22
0.491418
 32
10.0281
 13
-0.097748
 23
0.491419
 33
-10.0281
  0
3DFACE
  8
0
 62
    90
 10
-0.097748
 20
0.491419
 30
-10.0281
 11
-0.097753
 21
0.491418
 31
10.0281
 12
-4e-006
 22
0.501046
 32
10.0281
 13
1e-006
 23
0.501046
 33
-10.0281
  0
3DFACE
  8
0
 62
    90
 10
1e-006
 20
0.501046
 30
-10.0281
 11
-4e-006
 21
0.501046
 31
10.0281
 12
0.097745
 22
0.491419
 32
10.0281
 13
0.09775
 23
0.491418
 33
-10.0281
  0
3DFACE
  8
0
 62
    90
 10
0.09775
 20
0.491418
 30
-10.0281
 11
0.097745
 21
0.491419
 31
10.0281
 12
0.191738
 22
0.462908
 32
10.0281
 13
0.191743
 23
0.462906
 33
-10.0281
  0
3DFACE
  8
0
 62
    90
 10
0.191743
 20
0.462906
 30
-10.0281
 11
0.191738
 21
0.462908
 31
10.0281
 12
0.278363
 22
0.416607
 32
10.0281
 13
0.278367
 23
0.416604
 33
-10.0281
  0
3DFACE
  8
0
 62
    90
 10
0.354294
 20
0.354292
 30
10.0281
 11
0.354293
 21
0.354293
 31
-10.0281
 12
0.278367
 22
0.416604
 32
-10.0281
 13
0.278363
 23
0.416607
 33
10.0281
  0
3DFACE
  8
0
 62
    90
 10
-4e-006
 20
0.501046
 30
10.0281
 11
-0.097753
 21
0.491418
 31
10.0281
 12
0.191738
 22
0.462908
 32
10.0281
 13
0.097745
 23
0.491419
 33
10.0281
  0
3DFACE
  8
0
 62
    90
 10
-0.097753
 20
0.491418
 30
10.0281
 11
-0.191745
 21
0.462905
 31
10.0281
 12
0.278363
 22
0.416607
 32
10.0281
 13
0.191738
 23
0.462908
 33
10.0281
  0
3DFACE
  8
0
 62
    90
 10
-0.191745
 20
0.462905
 30
10.0281
 11
-0.278369
 21
0.416603
 31
10.0281
 12
0.354294
 22
0.354292
 32
10.0281
 13
0.278363
 23
0.416607
 33
10.0281
  0
3DFACE
  8
0
 62
    90
 10
-0.278369
 20
0.416603
 30
10.0281
 11
-0.354295
 21
0.354291
 31
10.0281
 12
0.416605
 22
0.278365
 32
10.0281
 13
0.354294
 23
0.354292
 33
10.0281
  0
3DFACE
  8
0
 62
    90
 10
-0.354295
 20
0.354291
 30
10.0281
 11
-0.416606
 21
0.278364
 31
10.0281
 12
0.462907
 22
0.191741
 32
10.0281
 13
0.416605
 23
0.278365
 33
10.0281
  0
3DFACE
  8
0
 62
    90
 10
-0.416606
 20
0.278364
 30
10.0281
 11
-0.462907
 21
0.19174
 31
10.0281
 12
0.491419
 22
0.097748
 32
10.0281
 13
0.462907
 23
0.191741
 33
10.0281
  0
3DFACE
  8
0
 62
    90
 10
-0.462907
 20
0.19174
 30
10.0281
 11
-0.491419
 21
0.097747
 31
10.0281
 12
0.501046
 22
-1e-006
 32
10.0281
 13
0.491419
 23
0.097748
 33
10.0281
  0
3DFACE
  8
0
 62
    90
 10
-0.491419
 20
0.097747
 30
10.0281
 11
-0.501046
 21
-2e-006
 31
10.0281
 12
0.491418
 22
-0.09775
 32
10.0281
 13
0.501046
 23
-1e-006
 33
10.0281
  0
3DFACE
  8
0
 62
    90
 10
-0.501046
 20
-2e-006
 30
10.0281
 11
-0.491418
 21
-0.097751
 31
10.0281
 12
0.462906
 22
-0.191743
 32
10.0281
 13
0.491418
 23
-0.09775
 33
10.0281
  0
3DFACE
  8
0
 62
    90
 10
-0.491418
 20
-0.097751
 30
10.0281
 11
-0.462905
 21
-0.191744
 31
10.0281
 12
0.416604
 22
-0.278367
 32
10.0281
 13
0.462906
 23
-0.191743
 33
10.0281
  0
3DFACE
  8
0
 62
    90
 10
-0.462905
 20
-0.191744
 30
10.0281
 11
-0.416604
 21
-0.278367
 31
10.0281
 12
0.354293
 22
-0.354293
 32
10.0281
 13
0.416604
 23
-0.278367
 33
10.0281
  0
3DFACE
  8
0
 62
    90
 10
-0.416604
 20
-0.278367
 30
10.0281
 11
-0.354292
 21
-0.354294
 31
10.0281
 12
0.278366
 22
-0.416605
 32
10.0281
 13
0.354293
 23
-0.354293
 33
10.0281
  0
3DFACE
  8
0
 62
    90
 10
-0.354292
 20
-0.354294
 30
10.0281
 11
-0.278365
 21
-0.416605
 31
10.0281
 12
0.191742
 22
-0.462906
 32
10.0281
 13
0.278366
 23
-0.416605
 33
10.0281
  0
3DFACE
  8
0
 62
    90
 10
-0.278365
 20
-0.416605
 30
10.0281
 11
-0.191741
 21
-0.462906
 31
10.0281
 12
0.097749
 22
-0.491418
 32
10.0281
 13
0.191742
 23
-0.462906
 33
10.0281
  0
3DFACE
  8
0
 62
    90
 10
-0.191741
 20
-0.462906
 30
10.0281
 11
-0.097749
 21
-0.491419
 31
10.0281
 12
0
 22
-0.501046
 32
10.0281
 13
0.097749
 23
-0.491418
 33
10.0281
  0
3DFACE
  8
0
 62
   170
 10
0.354293
 20
0.354293
 30
-10.0281
 11
0.354294
 21
0.354292
 31
10.0281
 12
0.416605
 22
0.278365
 32
10.0281
 13
0.416605
 23
0.278366
 33
-10.0281
  0
3DFACE
  8
0
 62
   170
 10
0.416605
 20
0.278366
 30
-10.0281
 11
0.416605
 21
0.278365
 31
10.0281
 12
0.462907
 22
0.191741
 32
10.0281
 13
0.462906
 23
0.191742
 33
-10.0281
  0
3DFACE
  8
0
 62
   170
 10
0.462906
 20
0.191742
 30
-10.0281
 11
0.462907
 21
0.191741
 31
10.0281
 12
0.491419
 22
0.097748
 32
10.0281
 13
0.491419
 23
0.097749
 33
-10.0281
  0
3DFACE
  8
0
 62
   170
 10
0.491419
 20
0.097749
 30
-10.0281
 11
0.491419
 21
0.097748
 31
10.0281
 12
0.501046
 22
-1e-006
 32
10.0281
 13
0.501046
 23
0
 33
-10.0281
  0
3DFACE
  8
0
 62
   170
 10
0.501046
 20
0
 30
-10.0281
 11
0.501046
 21
-1e-006
 31
10.0281
 12
0.491418
 22
-0.09775
 32
10.0281
 13
0.491419
 23
-0.097749
 33
-10.0281
  0
3DFACE
  8
0
 62
   170
 10
0.491419
 20
-0.097749
 30
-10.0281
 11
0.491418
 21
-0.09775
 31
10.0281
 12
0.462906
 22
-0.191743
 32
10.0281
 13
0.462906
 23
-0.191742
 33
-10.0281
  0
3DFACE
  8
0
 62
   170
 10
0.462906
 20
-0.191742
 30
-10.0281
 11
0.462906
 21
-0.191743
 31
10.0281
 12
0.416604
 22
-0.278367
 32
10.0281
 13
0.416605
 23
-0.278366
 33
-10.0281
  0
3DFACE
  8
0
 62
   170
 10
0.416605
 20
-0.278366
 30
-10.0281
 11
0.416604
 21
-0.278367
 31
10.0281
 12
0.354293
 22
-0.354293
 32
10.0281
 13
0.354293
 23
-0.354293
 33
-10.0281
  0
3DFACE
  8
0
 62
   170
 10
0.354293
 20
-0.354293
 30
-10.0281
 11
0.354293
 21
-0.354293
 31
10.0281
 12
0.278366
 22
-0.416605
 32
10.0281
 13
0.278366
 23
-0.416605
 33
-10.0281
  0
3DFACE
  8
0
 62
   170
 10
0.278366
 20
-0.416605
 30
-10.0281
 11
0.278366
 21
-0.416605
 31
10.0281
 12
0.191742
 22
-0.462906
 32
10.0281
 13
0.191742
 23
-0.462906
 33
-10.0281
  0
3DFACE
  8
0
 62
   170
 10
0.191742
 20
-0.462906
 30
-10.0281
 11
0.191742
 21
-0.462906
 31
10.0281
 12
0.097749
 22
-0.491418
 32
10.0281
 13
0.097749
 23
-0.491419
 33
-10.0281
  0
3DFACE
  8
0
 62
   170
 10
0.097749
 20
-0.491419
 30
-10.0281
 11
0.097749
 21
-0.491418
 31
10.0281
 12
0
 22
-0.501046
 32
10.0281
 13
0
 23
-0.501046
 33
-10.0281
  0
3DFACE
  8
0
 62
   170
 10
0
 20
-0.501046
 30
-10.0281
 11
0
 21
-0.501046
 31
10.0281
 12
-0.097749
 22
-0.491419
 32
10.0281
 13
-0.097749
 23
-0.491418
 33
-10.0281
  0
3DFACE
  8
0
 62
   170
 10
-0.097749
 20
-0.491418
 30
-10.0281
 11
-0.097749
 21
-0.491419
 31
10.0281
 12
-0.191741
 22
-0.462906
 32
10.0281
 13
-0.191742
 23
-0.462906
 33
-10.0281
  0
3DFACE
  8
0
 62
   170
 10
-0.191742
 20
-0.462906
 30
-10.0281
 11
-0.191741
 21
-0.462906
 31
10.0281
 12
-0.278365
 22
-0.416605
 32
10.0281
 13
-0.278366
 23
-0.416604
 33
-10.0281
  0
3DFACE
  8
0
 62
   170
 10
-0.278366
 20
-0.416604
 30
-10.0281
 11
-0.278365
 21
-0.416605
 31
10.0281
 12
-0.354292
 22
-0.354294
 32
10.0281
 13
-0.354293
 23
-0.354293
 33
-10.0281
  0
3DFACE
  8
0
 62
   170
 10
-0.354293
 20
-0.354293
 30
-10.0281
 11
-0.354292
 21
-0.354294
 31
10.0281
 12
-0.416604
 22
-0.278367
 32
10.0281
 13
-0.416605
 23
-0.278366
 33
-10.0281
  0
3DFACE
  8
0
 62
   170
 10
-0.416605
 20
-0.278366
 30
-10.0281
 11
-0.416604
 21
-0.278367
 31
10.0281
 12
-0.462905
 22
-0.191744
 32
10.0281
 13
-0.462906
 23
-0.191742
 33
-10.0281
  0
3DFACE
  8
0
 62
   170
 10
-0.462906
 20
-0.191742
 30
-10.0281
 11
-0.462905
 21
-0.191744
 31
10.0281
 12
-0.491418
 22
-0.097751
 32
10.0281
 13
-0.491419
 23
-0.097749
 33
-10.0281
  0
3DFACE
  8
0
 62
   170
 10
-0.491419
 20
-0.097749
 30
-10.0281
 11
-0.491418
 21
-0.097751
 31
10.0281
 12
-0.501046
 22
-2e-006
 32
10.0281
 13
-0.501046
 23
0
 33
-10.0281
  0
3DFACE
  8
0
 62
   170
 10
-0.501046
 20
0
 30
-10.0281
 11
-0.501046
 21
-2e-006
 31
10.0281
 12
-0.491419
 22
0.097747
 32
10.0281
 13
-0.491418
 23
0.09775
 33
-10.0281
  0
3DFACE
  8
0
 62
   170
 10
-0.491418
 20
0.09775
 30
-10.0281
 11
-0.491419
 21
0.097747
 31
10.0281
 12
-0.462907
 22
0.19174
 32
10.0281
 13
-0.462906
 23
0.191743
 33
-10.0281
  0
3DFACE
  8
0
 62
   170
 10
-0.462906
 20
0.191743
 30
-10.0281
 11
-0.462907
 21
0.19174
 31
10.0281
 12
-0.416606
 22
0.278364
 32
10.0281
 13
-0.416604
 23
0.278367
 33
-10.0281
  0
3DFACE
  8
0
 62
   170
 10
-0.416604
 20
0.278367
 30
-10.0281
 11
-0.416606
 21
0.278364
 31
10.0281
 12
-0.354295
 22
0.354291
 32
10.0281
 13
-0.354293
 23
0.354293
 33
-10.0281
  0
3DFACE
  8
0
 62
   170
 10
-0.354293
 20
0.354293
 30
-10.0281
 11
-0.354295
 21
0.354291
 31
10.0281
 12
-0.278369
 22
0.416603
 32
10.0281
 13
-0.278366
 23
0.416605
 33
-10.0281
  0
3DFACE
  8
0
 62
   170
 10
-0.278366
 20
0.416605
 30
-10.0281
 11
-0.278369
 21
0.416603
 31
10.0281
 12
-0.191745
 22
0.462905
 32
10.0281
 13
-0.191741
 23
0.462906
 33
-10.0281
  0
3DFACE
  8
0
 62
   170
 10
-0.191741
 20
0.462906
 30
-10.0281
 11
-0.191745
 21
0.462905
 31
10.0281
 12
-0.097753
 22
0.491418
 32
10.0281
 13
-0.097748
 23
0.491419
 33
-10.0281
  0
3DFACE
  8
0
 62
   170
 10
-0.097748
 20
0.491419
 30
-10.0281
 11
-0.097753
 21
0.491418
 31
10.0281
 12
-4e-006
 22
0.501046
 32
10.0281
 13
1e-006
 23
0.501046
 33
-10.0281
  0
3DFACE
  8
0
 62
   170
 10
1e-006
 20
0.501046
 30
-10.0281
 11
-4e-006
 21
0.501046
 31
10.0281
 12
0.097745
 22
0.491419
 32
10.0281
 13
0.09775
 23
0.491418
 33
-10.0281
  0
3DFACE
  8
0
 62
   170
 10
0.09775
 20
0.491418
 30
-10.0281
 11
0.097745
 21
0.491419
 31
10.0281
 12
0.191738
 22
0.462908
 32
10.0281
 13
0.191743
 23
0.462906
 33
-10.0281
  0
3DFACE
  8
0
 62
   170
 10
0.191743
 20
0.462906
 30
-10.0281
 11
0.191738
 21
0.462908
 31
10.0281
 12
0.278363
 22
0.416607
 32
10.0281
 13
0.278367
 23
0.416604
 33
-10.0281
  0
3DFACE
  8
0
 62
   170
 10
0.354294
 20
0.354292
 30
10.0281
 11
0.354293
 21
0.354293
 31
-10.0281
 12
0.278367
 22
0.416604
 32
-10.0281
 13
0.278363
 23
0.416607
 33
10.0281
  0
3DFACE
  8
0
 62
   170
 10
-4e-006
 20
0.501046
 30
10.0281
 11
-0.097753
 21
0.491418
 31
10.0281
 12
0.191738
 22
0.462908
 32
10.0281
 13
0.097745
 23
0.491419
 33
10.0281
  0
3DFACE
  8
0
 62
   170
 10
-0.097753
 20
0.491418
 30
10.0281
 11
-0.191745
 21
0.462905
 31
10.0281
 12
0.278363
 22
0.416607
 32
10.0281
 13
0.191738
 23
0.462908
 33
10.0281
  0
3DFACE
  8
0
 62
   170
 10
-0.191745
 20
0.462905
 30
10.0281
 11
-0.278369
 21
0.416603
 31
10.0281
 12
0.354294
 22
0.354292
 32
10.0281
 13
0.278363
 23
0.416607
 33
10.0281
  0
3DFACE
  8
0
 62
   170
 10
-0.278369
 20
0.416603
 30
10.0281
 11
-0.354295
 21
0.354291
 31
10.0281
 12
0.416605
 22
0.278365
 32
10.0281
 13
0.354294
 23
0.354292
 33
10.0281
  0
3DFACE
  8
0
 62
   170
 10
-0.354295
 20
0.354291
 30
10.0281
 11
-0.416606
 21
0.278364
 31
10.0281
 12
0.462907
 22
0.191741
 32
10.0281
 13
0.416605
 23
0.278365
 33
10.0281
  0
3DFACE
  8
0
 62
   170
 10
-0.416606
 20
0.278364
 30
10.0281
 11
-0.462907
 21
0.19174
 31
10.0281
 12
0.491419
 22
0.097748
 32
10.0281
 13
0.462907
 23
0.191741
 33
10.0281
  0
3DFACE
  8
0
 62
   170
 10
-0.462907
 20
0.19174
 30
10.0281
 11
-0.491419
 21
0.097747
 31
10.0281
 12
0.501046
 22
-1e-006
 32
10.0281
 13
0.491419
 23
0.097748
 33
10.0281
  0
3DFACE
  8
0
 62
   170
 10
-0.491419
 20
0.097747
 30
10.0281
 11
-0.501046
 21
-2e-006
 31
10.0281
 12
0.491418
 22
-0.09775
 32
10.0281
 13
0.501046
 23
-1e-006
 33
10.0281
  0
3DFACE
  8
0
 62
   170
 10
-0.501046
 20
-2e-006
 30
10.0281
 11
-0.491418
 21
-0.097751
 31
10.0281
 12
0.462906
 22
-0.191743
 32
10.0281
 13
0.491418
 23
-0.09775
 33
10.0281
  0
3DFACE
  8
0
 62
   170
 10
-0.491418
 20
-0.097751
 30
10.0281
 11
-0.462905
 21
-0.191744
 31
10.0281
 12
0.416604
 22
-0.278367
 32
10.0281
 13
0.462906
 23
-0.191743
 33
10.0281
  0
3DFACE
  8
0
 62
   170
 10
-0.462905
 20
-0.191744
 30
10.0281
 11
-0.416604
 21
-0.278367
 31
10.0281
 12
0.354293
 22
-0.354293
 32
10.0281
 13
0.416604
 23
-0.278367
 33
10.0281
  0
3DFACE
  8
0
 62
   170
 10
-0.416604
 20
-0.278367
 30
10.0281
 11
-0.354292
 21
-0.354294
 31
10.0281
 12
0.278366
 22
-0.416605
 32
10.0281
 13
0.354293
 23
-0.354293
 33
10.0281
  0
3DFACE
  8
0
 62
   170
 10
-0.354292
 20
-0.354294
 30
10.0281
 11
-0.278365
 21
-0.416605
 31
10.0281
 12
0.191742
 22
-0.462906
 32
10.0281
 13
0.278366
 23
-0.416605
 33
10.0281
  0
3DFACE
  8
0
 62
   170
 10
-0.278365
 20
-0.416605
 30
10.0281
 11
-0.191741
 21
-0.462906
 31
10.0281
 12
0.097749
 22
-0.491418
 32
10.0281
 13
0.191742
 23
-0.462906
 33
10.0281
  0
3DFACE
  8
0
 62
   170
 10
-0.191741
 20
-0.462906
 30
10.0281
 11
-0.097749
 21
-0.491419
 31
10.0281
 12
0
 22
-0.501046
 32
10.0281
 13
0.097749
 23
-0.491418
 33
10.0281
  0
3DFACE
  8
0
 62
   170
 10
2.03664
 20
2.02449
 30
7.73038
 11
2.48397
 21
1.56254
 31
7.73038
 12
2.12325
 22
1.10863
 32
7.73038
 13
1.75323
 23
1.49075
 33
7.73038
  0
3DFACE
  8
0
 62
   170
 10
2.03664
 20
2.02449
 30
7.73038
 11
1.52628
 21
2.36776
 31
7.73038
 12
1.33106
 22
1.7747
 32
7.73038
 13
1.75323
 23
1.49075
 33
7.73038
  0
3DFACE
  8
0
 62
   170
 10
1.52628
 20
2.36776
 30
7.73038
 11
0.972514
 21
2.57914
 31
7.73038
 12
0.872991
 22
1.94956
 32
7.73038
 13
1.33106
 23
1.7747
 33
7.73038
  0
3DFACE
  8
0
 62
   170
 10
0.972514
 20
2.57914
 30
7.73038
 11
0.39661
 21
2.65052
 31
7.73038
 12
0.396609
 22
2.0086
 32
7.73038
 13
0.872991
 23
1.94956
 33
7.73038
  0
3DFACE
  8
0
 62
   170
 10
2.03664
 20
-4.15267
 30
7.73038
 11
1.52628
 21
-4.49593
 31
7.73038
 12
1.33106
 22
-3.90287
 32
7.73038
 13
1.75322
 23
-3.61893
 33
7.73038
  0
3DFACE
  8
0
 62
   170
 10
2.03664
 20
-4.15267
 30
7.73038
 11
2.48397
 21
-3.69071
 31
7.73038
 12
2.12325
 22
-3.2368
 32
7.73038
 13
1.75322
 23
-3.61893
 33
7.73038
  0
3DFACE
  8
0
 62
   170
 10
2.48397
 20
-3.69071
 30
7.73038
 11
2.85109
 21
-3.12781
 31
7.73038
 12
2.42693
 22
-2.77117
 32
7.73038
 13
2.12325
 23
-3.2368
 33
7.73038
  0
3DFACE
  8
0
 62
   170
 10
2.85109
 20
-3.12781
 30
7.73038
 11
3.12388
 21
-2.4856
 31
7.73038
 12
2.65258
 22
-2.23995
 32
7.73038
 13
2.42693
 23
-2.77117
 33
7.73038
  0
3DFACE
  8
0
 62
   170
 10
3.12388
 20
-2.4856
 30
7.73038
 11
3.29187
 21
-1.78877
 31
7.73038
 12
2.79154
 22
-1.66353
 32
7.73038
 13
2.65258
 23
-2.23995
 33
7.73038
  0
3DFACE
  8
0
 62
   170
 10
3.29187
 20
-1.78877
 30
7.73038
 11
3.34859
 21
-1.06408
 31
7.73038
 12
2.83845
 22
-1.06408
 32
7.73038
 13
2.79154
 23
-1.66353
 33
7.73038
  0
3DFACE
  8
0
 62
   170
 10
3.29187
 20
-0.339401
 30
7.73038
 11
3.34859
 21
-1.06408
 31
7.73038
 12
2.83845
 22
-1.06408
 32
7.73038
 13
2.79154
 23
-0.464634
 33
7.73038
  0
3DFACE
  8
0
 62
   170
 10
3.29187
 20
-0.339401
 30
7.73038
 11
3.12388
 21
0.357433
 31
7.73038
 12
2.65258
 22
0.11178
 32
7.73038
 13
2.79154
 23
-0.464634
 33
7.73038
  0
3DFACE
  8
0
 62
   170
 10
3.12388
 20
0.357433
 30
7.73038
 11
2.85109
 21
0.999639
 31
7.73038
 12
2.42693
 22
0.643006
 32
7.73038
 13
2.65258
 23
0.11178
 33
7.73038
  0
3DFACE
  8
0
 62
   170
 10
2.85109
 20
0.999639
 30
7.73038
 11
2.48397
 21
1.56254
 31
7.73038
 12
2.12325
 22
1.10863
 32
7.73038
 13
2.42693
 23
0.643006
 33
7.73038
  0
3DFACE
  8
0
 62
   170
 10
2.42693
 20
0.643006
 30
7.73038
 11
2.12325
 21
1.10863
 31
7.73038
 12
2.12325
 22
1.10863
 32
7.12886
 13
2.42693
 23
0.643006
 33
7.12886
  0
3DFACE
  8
0
 62
   170
 10
2.65258
 20
0.11178
 30
7.73038
 11
2.42693
 21
0.643006
 31
7.73038
 12
2.42693
 22
0.643006
 32
7.12886
 13
2.65258
 23
0.11178
 33
7.12886
  0
3DFACE
  8
0
 62
   170
 10
2.79154
 20
-0.464634
 30
7.73038
 11
2.65258
 21
0.11178
 31
7.73038
 12
2.65258
 22
0.11178
 32
7.12886
 13
2.79154
 23
-0.464634
 33
7.12886
  0
3DFACE
  8
0
 62
   170
 10
2.79154
 20
-0.464634
 30
7.73038
 11
2.83845
 21
-1.06408
 31
7.73038
 12
2.83845
 22
-1.06408
 32
7.12886
 13
2.79154
 23
-0.464634
 33
7.12886
  0
3DFACE
  8
0
 62
   170
 10
2.79154
 20
-1.66353
 30
7.73038
 11
2.83845
 21
-1.06408
 31
7.73038
 12
2.83845
 22
-1.06408
 32
7.12886
 13
2.79154
 23
-1.66353
 33
7.12886
  0
3DFACE
  8
0
 62
   170
 10
2.65258
 20
-2.23995
 30
7.73038
 11
2.79154
 21
-1.66353
 31
7.73038
 12
2.79154
 22
-1.66353
 32
7.12886
 13
2.65258
 23
-2.23995
 33
7.12886
  0
3DFACE
  8
0
 62
   170
 10
2.42693
 20
-2.77117
 30
7.73038
 11
2.65258
 21
-2.23995
 31
7.73038
 12
2.65258
 22
-2.23995
 32
7.12886
 13
2.42693
 23
-2.77117
 33
7.12886
  0
3DFACE
  8
0
 62
   170
 10
2.12325
 20
-3.2368
 30
7.73038
 11
2.42693
 21
-2.77117
 31
7.73038
 12
2.42693
 22
-2.77117
 32
7.12886
 13
2.12325
 23
-3.2368
 33
7.12886
  0
3DFACE
  8
0
 62
   170
 10
1.75322
 20
-3.61893
 30
7.73038
 11
2.12325
 21
-3.2368
 31
7.73038
 12
2.12325
 22
-3.2368
 32
7.12886
 13
1.75322
 23
-3.61893
 33
7.12886
  0
3DFACE
  8
0
 62
   170
 10
1.75322
 20
-3.61893
 30
7.73038
 11
1.33106
 21
-3.90287
 31
7.73038
 12
1.33106
 22
-3.90287
 32
7.12886
 13
1.75322
 23
-3.61893
 33
7.12886
  0
3DFACE
  8
0
 62
   170
 10
1.33106
 20
-3.90287
 30
7.73038
 11
1.52628
 21
-4.49593
 31
7.73038
 12
1.52628
 22
-4.49593
 32
7.12886
 13
1.33106
 23
-3.90287
 33
7.12886
  0
3DFACE
  8
0
 62
   170
 10
0.872991
 20
1.94956
 30
7.73038
 11
0.396609
 21
2.0086
 31
7.73038
 12
0.396609
 22
2.0086
 32
7.12886
 13
0.872991
 23
1.94956
 33
7.12886
  0
3DFACE
  8
0
 62
   170
 10
1.33106
 20
1.7747
 30
7.73038
 11
0.872991
 21
1.94956
 31
7.73038
 12
0.872991
 22
1.94956
 32
7.12886
 13
1.33106
 23
1.7747
 33
7.12886
  0
3DFACE
  8
0
 62
   170
 10
1.75323
 20
1.49075
 30
7.73038
 11
1.33106
 21
1.7747
 31
7.73038
 12
1.33106
 22
1.7747
 32
7.12886
 13
1.75323
 23
1.49075
 33
7.12886
  0
3DFACE
  8
0
 62
   170
 10
1.75323
 20
1.49075
 30
7.73038
 11
2.12325
 21
1.10863
 31
7.73038
 12
2.12325
 22
1.10863
 32
7.12886
 13
1.75323
 23
1.49075
 33
7.12886
  0
3DFACE
  8
0
 62
   170
 10
2.03664
 20
2.02449
 30
7.73038
 11
2.48397
 21
1.56254
 31
7.73038
 12
2.48397
 22
1.56254
 32
7.12886
 13
2.03664
 23
2.02449
 33
7.12886
  0
3DFACE
  8
0
 62
   170
 10
2.03664
 20
2.02449
 30
7.73038
 11
1.52628
 21
2.36776
 31
7.73038
 12
1.52628
 22
2.36776
 32
7.12886
 13
2.03664
 23
2.02449
 33
7.12886
  0
3DFACE
  8
0
 62
   170
 10
1.52628
 20
2.36776
 30
7.73038
 11
0.972514
 21
2.57914
 31
7.73038
 12
0.972514
 22
2.57914
 32
7.12886
 13
1.52628
 23
2.36776
 33
7.12886
  0
3DFACE
  8
0
 62
   170
 10
0.972514
 20
2.57914
 30
7.73038
 11
0.39661
 21
2.65052
 31
7.73038
 12
0.39661
 22
2.65052
 32
7.12886
 13
0.972514
 23
2.57914
 33
7.12886
  0
3DFACE
  8
0
 62
   170
 10
2.03664
 20
-4.15267
 30
7.73038
 11
1.52628
 21
-4.49593
 31
7.73038
 12
1.52628
 22
-4.49593
 32
7.12886
 13
2.03664
 23
-4.15267
 33
7.12886
  0
3DFACE
  8
0
 62
   170
 10
2.03664
 20
-4.15267
 30
7.73038
 11
2.48397
 21
-3.69071
 31
7.73038
 12
2.48397
 22
-3.69071
 32
7.12886
 13
2.03664
 23
-4.15267
 33
7.12886
  0
3DFACE
  8
0
 62
   170
 10
2.48397
 20
-3.69071
 30
7.73038
 11
2.85109
 21
-3.12781
 31
7.73038
 12
2.85109
 22
-3.12781
 32
7.12886
 13
2.48397
 23
-3.69071
 33
7.12886
  0
3DFACE
  8
0
 62
   170
 10
2.85109
 20
-3.12781
 30
7.73038
 11
3.12388
 21
-2.4856
 31
7.73038
 12
3.12388
 22
-2.4856
 32
7.12886
 13
2.85109
 23
-3.12781
 33
7.12886
  0
3DFACE
  8
0
 62
   170
 10
3.12388
 20
-2.4856
 30
7.73038
 11
3.29187
 21
-1.78877
 31
7.73038
 12
3.29187
 22
-1.78877
 32
7.12886
 13
3.12388
 23
-2.4856
 33
7.12886
  0
3DFACE
  8
0
 62
   170
 10
3.29187
 20
-1.78877
 30
7.73038
 11
3.34859
 21
-1.06408
 31
7.73038
 12
3.34859
 22
-1.06408
 32
7.12886
 13
3.29187
 23
-1.78877
 33
7.12886
  0
3DFACE
  8
0
 62
   170
 10
3.29187
 20
-0.339401
 30
7.73038
 11
3.34859
 21
-1.06408
 31
7.73038
 12
3.34859
 22
-1.06408
 32
7.12886
 13
3.29187
 23
-0.339401
 33
7.12886
  0
3DFACE
  8
0
 62
   170
 10
3.29187
 20
-0.339401
 30
7.73038
 11
3.12388
 21
0.357433
 31
7.73038
 12
3.12388
 22
0.357433
 32
7.12886
 13
3.29187
 23
-0.339401
 33
7.12886
  0
3DFACE
  8
0
 62
   170
 10
3.12388
 20
0.357433
 30
7.73038
 11
2.85109
 21
0.999639
 31
7.73038
 12
2.85109
 22
0.999639
 32
7.12886
 13
3.12388
 23
0.357433
 33
7.12886
  0
3DFACE
  8
0
 62
   170
 10
2.85109
 20
0.999639
 30
7.73038
 11
2.48397
 21
1.56254
 31
7.73038
 12
2.48397
 22
1.56254
 32
7.12886
 13
2.85109
 23
0.999639
 33
7.12886
  0
3DFACE
  8
0
 62
   170
 10
2.03664
 20
2.02449
 30
7.12886
 11
2.48397
 21
1.56254
 31
7.12886
 12
2.12325
 22
1.10863
 32
7.12886
 13
1.75323
 23
1.49075
 33
7.12886
  0
3DFACE
  8
0
 62
   170
 10
2.03664
 20
2.02449
 30
7.12886
 11
1.52628
 21
2.36776
 31
7.12886
 12
1.33106
 22
1.7747
 32
7.12886
 13
1.75323
 23
1.49075
 33
7.12886
  0
3DFACE
  8
0
 62
   170
 10
1.52628
 20
2.36776
 30
7.12886
 11
0.972514
 21
2.57914
 31
7.12886
 12
0.872991
 22
1.94956
 32
7.12886
 13
1.33106
 23
1.7747
 33
7.12886
  0
3DFACE
  8
0
 62
   170
 10
0.972514
 20
2.57914
 30
7.12886
 11
0.39661
 21
2.65052
 31
7.12886
 12
0.396609
 22
2.0086
 32
7.12886
 13
0.872991
 23
1.94956
 33
7.12886
  0
3DFACE
  8
0
 62
   170
 10
2.03664
 20
-4.15267
 30
7.12886
 11
1.52628
 21
-4.49593
 31
7.12886
 12
1.33106
 22
-3.90287
 32
7.12886
 13
1.75322
 23
-3.61893
 33
7.12886
  0
3DFACE
  8
0
 62
   170
 10
2.03664
 20
-4.15267
 30
7.12886
 11
2.48397
 21
-3.69071
 31
7.12886
 12
2.12325
 22
-3.2368
 32
7.12886
 13
1.75322
 23
-3.61893
 33
7.12886
  0
3DFACE
  8
0
 62
   170
 10
2.48397
 20
-3.69071
 30
7.12886
 11
2.85109
 21
-3.12781
 31
7.12886
 12
2.42693
 22
-2.77117
 32
7.12886
 13
2.12325
 23
-3.2368
 33
7.12886
  0
3DFACE
  8
0
 62
   170
 10
2.85109
 20
-3.12781
 30
7.12886
 11
3.12388
 21
-2.4856
 31
7.12886
 12
2.65258
 22
-2.23995
 32
7.12886
 13
2.42693
 23
-2.77117
 33
7.12886
  0
3DFACE
  8
0
 62
   170
 10
3.12388
 20
-2.4856
 30
7.12886
 11
3.29187
 21
-1.78877
 31
7.12886
 12
2.79154
 22
-1.66353
 32
7.12886
 13
2.65258
 23
-2.23995
 33
7.12886
  0
3DFACE
  8
0
 62
   170
 10
3.29187
 20
-1.78877
 30
7.12886
 11
3.34859
 21
-1.06408
 31
7.12886
 12
2.83845
 22
-1.06408
 32
7.12886
 13
2.79154
 23
-1.66353
 33
7.12886
  0
3DFACE
  8
0
 62
   170
 10
3.29187
 20
-0.339401
 30
7.12886
 11
3.34859
 21
-1.06408
 31
7.12886
 12
2.83845
 22
-1.06408
 32
7.12886
 13
2.79154
 23
-0.464634
 33
7.12886
  0
3DFACE
  8
0
 62
   170
 10
3.29187
 20
-0.339401
 30
7.12886
 11
3.12388
 21
0.357433
 31
7.12886
 12
2.65258
 22
0.11178
 32
7.12886
 13
2.79154
 23
-0.464634
 33
7.12886
  0
3DFACE
  8
0
 62
   170
 10
3.12388
 20
0.357433
 30
7.12886
 11
2.85109
 21
0.999639
 31
7.12886
 12
2.42693
 22
0.643006
 32
7.12886
 13
2.65258
 23
0.11178
 33
7.12886
  0
3DFACE
  8
0
 62
   170
 10
2.85109
 20
0.999639
 30
7.12886
 11
2.48397
 21
1.56254
 31
7.12886
 12
2.12325
 22
1.10863
 32
7.12886
 13
2.42693
 23
0.643006
 33
7.12886
  0
3DFACE
  8
0
 62
   170
 10
-2.4566
 20
-0.000779
 30
-11.6807
 11
-1.46274
 21
0.203069
 31
-11.5482
 12
-1.30899
 22
-0.000779
 32
-11.5482
 13
-1.30899
 23
-0.000779
 33
-11.5482
  0
3DFACE
  8
0
 62
   170
 10
-1.30899
 20
-0.000779
 30
-11.5482
 11
-1.46274
 21
0.203069
 31
-11.5482
 12
-0.620181
 22
0.375884
 32
-11.171
 13
-0.336086
 23
-0.000779
 33
-11.171
  0
3DFACE
  8
0
 62
   170
 10
-0.336086
 20
-0.000779
 30
-11.171
 11
-0.620181
 21
0.375884
 31
-11.171
 12
-0.0572031
 22
0.491354
 32
-10.6064
 13
0.313986
 23
-0.000779
 33
-10.6064
  0
3DFACE
  8
0
 62
   170
 10
0.313986
 20
-0.000779
 30
-10.6064
 11
-0.0572031
 21
0.491354
 31
-10.6064
 12
0.140489
 22
0.531902
 32
-9.94042
 13
0.54226
 23
-0.000779
 33
-9.94042
  0
3DFACE
  8
0
 62
   170
 10
0.54226
 20
-0.000779
 30
-9.94042
 11
0.140489
 21
0.531902
 31
-9.94042
 12
-0.0572031
 22
0.491354
 32
-9.27445
 13
0.313986
 23
-0.000779
 33
-9.27445
  0
3DFACE
  8
0
 62
   170
 10
-0.620181
 20
0.375884
 30
-8.70987
 11
-0.336086
 21
-0.000779
 31
-8.70987
 12
0.313986
 22
-0.000779
 32
-9.27445
 13
-0.0572031
 23
0.491354
 33
-9.27445
  0
3DFACE
  8
0
 62
   170
 10
-0.336086
 20
-0.000779
 30
-8.70987
 11
-0.620181
 21
0.375884
 31
-8.70987
 12
-1.46274
 22
0.203069
 32
-8.33263
 13
-1.30899
 23
-0.000779
 33
-8.33263
  0
3DFACE
  8
0
 62
   170
 10
-1.30899
 20
-0.000779
 30
-8.33263
 11
-1.46274
 21
0.203069
 31
-8.33263
 12
-2.4566
 22
-0.000779
 32
-8.20016
 13
-2.4566
 23
-0.000779
 33
-8.20016
  0
3DFACE
  8
0
 62
   170
 10
-1.46274
 20
0.203069
 30
-8.33263
 11
-1.8828
 21
0.352297
 31
-8.33263
 12
-2.4566
 22
-0.000779
 32
-8.20016
 13
-2.4566
 23
-0.000779
 33
-8.20016
  0
3DFACE
  8
0
 62
   170
 10
-0.620181
 20
0.375884
 30
-8.70987
 11
-1.39634
 21
0.65162
 31
-8.70987
 12
-1.8828
 22
0.352297
 32
-8.33263
 13
-1.46274
 23
0.203069
 33
-8.33263
  0
3DFACE
  8
0
 62
   170
 10
-0.0572031
 20
0.491354
 30
-9.27445
 11
-1.07131
 21
0.851621
 31
-9.27445
 12
-1.39634
 22
0.65162
 32
-8.70987
 13
-0.620181
 23
0.375884
 33
-8.70987
  0
3DFACE
  8
0
 62
   170
 10
0.140489
 20
0.531902
 30
-9.94042
 11
-0.957171
 21
0.921852
 31
-9.94042
 12
-1.07131
 22
0.851621
 32
-9.27445
 13
-0.0572031
 23
0.491354
 33
-9.27445
  0
3DFACE
  8
0
 62
   170
 10
-0.0572031
 20
0.491354
 30
-10.6064
 11
-1.07131
 21
0.851621
 31
-10.6064
 12
-0.957171
 22
0.921852
 32
-9.94042
 13
0.140489
 23
0.531902
 33
-9.94042
  0
3DFACE
  8
0
 62
   170
 10
-0.620181
 20
0.375884
 30
-11.171
 11
-1.39634
 21
0.65162
 31
-11.171
 12
-1.07131
 22
0.851621
 32
-10.6064
 13
-0.0572031
 23
0.491354
 33
-10.6064
  0
3DFACE
  8
0
 62
   170
 10
-1.46274
 20
0.203069
 30
-11.5482
 11
-1.88279
 21
0.352297
 31
-11.5482
 12
-1.39634
 22
0.65162
 32
-11.171
 13
-0.620181
 23
0.375884
 33
-11.171
  0
3DFACE
  8
0
 62
   170
 10
-2.4566
 20
-0.000779
 30
-11.6807
 11
-1.88279
 21
0.352297
 31
-11.5482
 12
-1.46274
 22
0.203069
 32
-11.5482
 13
-1.46274
 23
0.203069
 33
-11.5482
  0
3DFACE
  8
0
 62
   170
 10
-2.4566
 20
-0.000779
 30
-11.6807
 11
-2.4566
 21
0.406918
 31
-11.5482
 12
-1.88279
 22
0.352297
 32
-11.5482
 13
-1.88279
 23
0.352297
 33
-11.5482
  0
3DFACE
  8
0
 62
   170
 10
-1.88279
 20
0.352297
 30
-11.5482
 11
-2.4566
 21
0.406918
 31
-11.5482
 12
-2.4566
 22
0.752546
 32
-11.171
 13
-1.39634
 23
0.65162
 33
-11.171
  0
3DFACE
  8
0
 62
   170
 10
-1.39634
 20
0.65162
 30
-11.171
 11
-2.4566
 21
0.752546
 31
-11.171
 12
-2.4566
 22
0.983488
 32
-10.6064
 13
-1.07131
 23
0.851621
 33
-10.6064
  0
3DFACE
  8
0
 62
   170
 10
-1.07131
 20
0.851621
 30
-10.6064
 11
-2.4566
 21
0.983488
 31
-10.6064
 12
-2.4566
 22
1.06458
 32
-9.94042
 13
-0.957171
 23
0.921852
 33
-9.94042
  0
3DFACE
  8
0
 62
   170
 10
-0.957171
 20
0.921852
 30
-9.94042
 11
-2.4566
 21
1.06458
 31
-9.94042
 12
-2.4566
 22
0.983488
 32
-9.27445
 13
-1.07131
 23
0.851621
 33
-9.27445
  0
3DFACE
  8
0
 62
   170
 10
-1.07131
 20
0.851621
 30
-9.27445
 11
-2.4566
 21
0.983488
 31
-9.27445
 12
-2.4566
 22
0.752546
 32
-8.70987
 13
-1.39634
 23
0.65162
 33
-8.70987
  0
3DFACE
  8
0
 62
   170
 10
-1.39634
 20
0.65162
 30
-8.70987
 11
-2.4566
 21
0.752546
 31
-8.70987
 12
-2.4566
 22
0.406918
 32
-8.33263
 13
-1.8828
 23
0.352297
 33
-8.33263
  0
3DFACE
  8
0
 62
   170
 10
-1.8828
 20
0.352297
 30
-8.33263
 11
-2.4566
 21
0.406918
 31
-8.33263
 12
-2.4566
 22
-0.000779
 32
-8.20016
 13
-2.4566
 23
-0.000779
 33
-8.20016
  0
3DFACE
  8
0
 62
   170
 10
-2.4566
 20
0.406918
 30
-8.33263
 11
-3.03041
 21
0.352297
 31
-8.33263
 12
-2.4566
 22
-0.000779
 32
-8.20016
 13
-2.4566
 23
-0.000779
 33
-8.20016
  0
3DFACE
  8
0
 62
   170
 10
-2.4566
 20
0.752546
 30
-8.70987
 11
-3.51686
 21
0.65162
 31
-8.70987
 12
-3.03041
 22
0.352297
 32
-8.33263
 13
-2.4566
 23
0.406918
 33
-8.33263
  0
3DFACE
  8
0
 62
   170
 10
-2.4566
 20
0.983488
 30
-9.27445
 11
-3.8419
 21
0.851621
 31
-9.27445
 12
-3.51686
 22
0.65162
 32
-8.70987
 13
-2.4566
 23
0.752546
 33
-8.70987
  0
3DFACE
  8
0
 62
   170
 10
-2.4566
 20
1.06458
 30
-9.94042
 11
-3.95603
 21
0.921852
 31
-9.94042
 12
-3.8419
 22
0.851621
 32
-9.27445
 13
-2.4566
 23
0.983488
 33
-9.27445
  0
3DFACE
  8
0
 62
   170
 10
-2.4566
 20
0.983488
 30
-10.6064
 11
-3.8419
 21
0.851621
 31
-10.6064
 12
-3.95603
 22
0.921852
 32
-9.94042
 13
-2.4566
 23
1.06458
 33
-9.94042
  0
3DFACE
  8
0
 62
   170
 10
-2.4566
 20
0.752546
 30
-11.171
 11
-3.51686
 21
0.65162
 31
-11.171
 12
-3.8419
 22
0.851621
 32
-10.6064
 13
-2.4566
 23
0.983488
 33
-10.6064
  0
3DFACE
  8
0
 62
   170
 10
-2.4566
 20
0.406918
 30
-11.5482
 11
-3.03041
 21
0.352297
 31
-11.5482
 12
-3.51686
 22
0.65162
 32
-11.171
 13
-2.4566
 23
0.752546
 33
-11.171
  0
3DFACE
  8
0
 62
   170
 10
-2.4566
 20
-0.000779
 30
-11.6807
 11
-3.03041
 21
0.352297
 31
-11.5482
 12
-2.4566
 22
0.406918
 32
-11.5482
 13
-2.4566
 23
0.406918
 33
-11.5482
  0
3DFACE
  8
0
 62
   170
 10
-2.4566
 20
-0.000779
 30
-11.6807
 11
-3.45047
 21
0.203069
 31
-11.5482
 12
-3.03041
 22
0.352297
 32
-11.5482
 13
-3.03041
 23
0.352297
 33
-11.5482
  0
3DFACE
  8
0
 62
   170
 10
-3.03041
 20
0.352297
 30
-11.5482
 11
-3.45047
 21
0.203069
 31
-11.5482
 12
-4.29302
 22
0.375884
 32
-11.171
 13
-3.51686
 23
0.65162
 33
-11.171
  0
3DFACE
  8
0
 62
   170
 10
-3.51686
 20
0.65162
 30
-11.171
 11
-4.29302
 21
0.375884
 31
-11.171
 12
-4.856
 22
0.491354
 32
-10.6064
 13
-3.8419
 23
0.851621
 33
-10.6064
  0
3DFACE
  8
0
 62
   170
 10
-3.8419
 20
0.851621
 30
-10.6064
 11
-4.856
 21
0.491354
 31
-10.6064
 12
-5.05369
 22
0.531902
 32
-9.94042
 13
-3.95603
 23
0.921852
 33
-9.94042
  0
3DFACE
  8
0
 62
   170
 10
-3.95603
 20
0.921852
 30
-9.94042
 11
-5.05369
 21
0.531902
 31
-9.94042
 12
-4.856
 22
0.491354
 32
-9.27445
 13
-3.8419
 23
0.851621
 33
-9.27445
  0
3DFACE
  8
0
 62
   170
 10
-3.8419
 20
0.851621
 30
-9.27445
 11
-4.856
 21
0.491354
 31
-9.27445
 12
-4.29302
 22
0.375884
 32
-8.70987
 13
-3.51686
 23
0.65162
 33
-8.70987
  0
3DFACE
  8
0
 62
   170
 10
-3.51686
 20
0.65162
 30
-8.70987
 11
-4.29302
 21
0.375884
 31
-8.70987
 12
-3.45047
 22
0.203069
 32
-8.33263
 13
-3.03041
 23
0.352297
 33
-8.33263
  0
3DFACE
  8
0
 62
   170
 10
-3.03041
 20
0.352297
 30
-8.33263
 11
-3.45047
 21
0.203069
 31
-8.33263
 12
-2.4566
 22
-0.000779
 32
-8.20016
 13
-2.4566
 23
-0.000779
 33
-8.20016
  0
3DFACE
  8
0
 62
   170
 10
-3.45047
 20
0.203069
 30
-8.33263
 11
-3.60422
 21
-0.000779
 31
-8.33263
 12
-2.4566
 22
-0.000779
 32
-8.20016
 13
-2.4566
 23
-0.000779
 33
-8.20016
  0
3DFACE
  8
0
 62
   170
 10
-4.29302
 20
0.375884
 30
-8.70987
 11
-4.57712
 21
-0.000779
 31
-8.70987
 12
-3.60422
 22
-0.000779
 32
-8.33263
 13
-3.45047
 23
0.203069
 33
-8.33263
  0
3DFACE
  8
0
 62
   170
 10
-4.856
 20
0.491354
 30
-9.27445
 11
-5.22719
 21
-0.000779
 31
-9.27445
 12
-4.57712
 22
-0.000779
 32
-8.70987
 13
-4.29302
 23
0.375884
 33
-8.70987
  0
3DFACE
  8
0
 62
   170
 10
-5.05369
 20
0.531902
 30
-9.94042
 11
-5.45546
 21
-0.000779
 31
-9.94042
 12
-5.22719
 22
-0.000779
 32
-9.27445
 13
-4.856
 23
0.491354
 33
-9.27445
  0
3DFACE
  8
0
 62
   170
 10
-4.856
 20
0.491354
 30
-10.6064
 11
-5.22719
 21
-0.000779
 31
-10.6064
 12
-5.45546
 22
-0.000779
 32
-9.94042
 13
-5.05369
 23
0.531902
 33
-9.94042
  0
3DFACE
  8
0
 62
   170
 10
-4.29302
 20
0.375884
 30
-11.171
 11
-4.57712
 21
-0.000779
 31
-11.171
 12
-5.22719
 22
-0.000779
 32
-10.6064
 13
-4.856
 23
0.491354
 33
-10.6064
  0
3DFACE
  8
0
 62
   170
 10
-3.45047
 20
0.203069
 30
-11.5482
 11
-3.60422
 21
-0.000779
 31
-11.5482
 12
-4.57712
 22
-0.000779
 32
-11.171
 13
-4.29302
 23
0.375884
 33
-11.171
  0
3DFACE
  8
0
 62
   170
 10
-2.4566
 20
-0.000779
 30
-11.6807
 11
-3.60422
 21
-0.000779
 31
-11.5482
 12
-3.45047
 22
0.203069
 32
-11.5482
 13
-3.45047
 23
0.203069
 33
-11.5482
  0
3DFACE
  8
0
 62
   170
 10
-2.4566
 20
-0.000779
 30
-11.6807
 11
-3.45047
 21
-0.204627
 31
-11.5482
 12
-3.60422
 22
-0.000779
 32
-11.5482
 13
-3.60422
 23
-0.000779
 33
-11.5482
  0
3DFACE
  8
0
 62
   170
 10
-3.60422
 20
-0.000779
 30
-11.5482
 11
-3.45047
 21
-0.204627
 31
-11.5482
 12
-4.29302
 22
-0.377442
 32
-11.171
 13
-4.57712
 23
-0.000779
 33
-11.171
  0
3DFACE
  8
0
 62
   170
 10
-4.57712
 20
-0.000779
 30
-11.171
 11
-4.29302
 21
-0.377442
 31
-11.171
 12
-4.856
 22
-0.492912
 32
-10.6064
 13
-5.22719
 23
-0.000779
 33
-10.6064
  0
3DFACE
  8
0
 62
   170
 10
-5.22719
 20
-0.000779
 30
-10.6064
 11
-4.856
 21
-0.492912
 31
-10.6064
 12
-5.05369
 22
-0.53346
 32
-9.94042
 13
-5.45546
 23
-0.000779
 33
-9.94042
  0
3DFACE
  8
0
 62
   170
 10
-5.45546
 20
-0.000779
 30
-9.94042
 11
-5.05369
 21
-0.53346
 31
-9.94042
 12
-4.856
 22
-0.492912
 32
-9.27445
 13
-5.22719
 23
-0.000779
 33
-9.27445
  0
3DFACE
  8
0
 62
   170
 10
-5.22719
 20
-0.000779
 30
-9.27445
 11
-4.856
 21
-0.492912
 31
-9.27445
 12
-4.29302
 22
-0.377442
 32
-8.70987
 13
-4.57712
 23
-0.000779
 33
-8.70987
  0
3DFACE
  8
0
 62
   170
 10
-4.57712
 20
-0.000779
 30
-8.70987
 11
-4.29302
 21
-0.377442
 31
-8.70987
 12
-3.45047
 22
-0.204627
 32
-8.33263
 13
-3.60422
 23
-0.000779
 33
-8.33263
  0
3DFACE
  8
0
 62
   170
 10
-3.60422
 20
-0.000779
 30
-8.33263
 11
-3.45047
 21
-0.204627
 31
-8.33263
 12
-2.4566
 22
-0.000779
 32
-8.20016
 13
-2.4566
 23
-0.000779
 33
-8.20016
  0
3DFACE
  8
0
 62
   170
 10
-3.45047
 20
-0.204627
 30
-8.33263
 11
-3.03041
 21
-0.353855
 31
-8.33263
 12
-2.4566
 22
-0.000779
 32
-8.20016
 13
-2.4566
 23
-0.000779
 33
-8.20016
  0
3DFACE
  8
0
 62
   170
 10
-4.29302
 20
-0.377442
 30
-8.70987
 11
-3.51686
 21
-0.653178
 31
-8.70987
 12
-3.03041
 22
-0.353855
 32
-8.33263
 13
-3.45047
 23
-0.204627
 33
-8.33263
  0
3DFACE
  8
0
 62
   170
 10
-4.856
 20
-0.492912
 30
-9.27445
 11
-3.8419
 21
-0.853179
 31
-9.27445
 12
-3.51686
 22
-0.653178
 32
-8.70987
 13
-4.29302
 23
-0.377442
 33
-8.70987
  0
3DFACE
  8
0
 62
   170
 10
-5.05369
 20
-0.53346
 30
-9.94042
 11
-3.95603
 21
-0.92341
 31
-9.94042
 12
-3.8419
 22
-0.853179
 32
-9.27445
 13
-4.856
 23
-0.492912
 33
-9.27445
  0
3DFACE
  8
0
 62
   170
 10
-4.856
 20
-0.492912
 30
-10.6064
 11
-3.8419
 21
-0.853179
 31
-10.6064
 12
-3.95603
 22
-0.92341
 32
-9.94042
 13
-5.05369
 23
-0.53346
 33
-9.94042
  0
3DFACE
  8
0
 62
   170
 10
-4.29302
 20
-0.377442
 30
-11.171
 11
-3.51686
 21
-0.653178
 31
-11.171
 12
-3.8419
 22
-0.853179
 32
-10.6064
 13
-4.856
 23
-0.492912
 33
-10.6064
  0
3DFACE
  8
0
 62
   170
 10
-3.45047
 20
-0.204627
 30
-11.5482
 11
-3.03041
 21
-0.353855
 31
-11.5482
 12
-3.51686
 22
-0.653178
 32
-11.171
 13
-4.29302
 23
-0.377442
 33
-11.171
  0
3DFACE
  8
0
 62
   170
 10
-2.4566
 20
-0.000779
 30
-11.6807
 11
-3.03041
 21
-0.353855
 31
-11.5482
 12
-3.45047
 22
-0.204627
 32
-11.5482
 13
-3.45047
 23
-0.204627
 33
-11.5482
  0
3DFACE
  8
0
 62
   170
 10
-2.4566
 20
-0.000779
 30
-11.6807
 11
-2.4566
 21
-0.408476
 31
-11.5482
 12
-3.03041
 22
-0.353855
 32
-11.5482
 13
-3.03041
 23
-0.353855
 33
-11.5482
  0
3DFACE
  8
0
 62
   170
 10
-3.03041
 20
-0.353855
 30
-11.5482
 11
-2.4566
 21
-0.408476
 31
-11.5482
 12
-2.4566
 22
-0.754104
 32
-11.171
 13
-3.51686
 23
-0.653178
 33
-11.171
  0
3DFACE
  8
0
 62
   170
 10
-3.51686
 20
-0.653178
 30
-11.171
 11
-2.4566
 21
-0.754104
 31
-11.171
 12
-2.4566
 22
-0.985046
 32
-10.6064
 13
-3.8419
 23
-0.853179
 33
-10.6064
  0
3DFACE
  8
0
 62
   170
 10
-3.8419
 20
-0.853179
 30
-10.6064
 11
-2.4566
 21
-0.985046
 31
-10.6064
 12
-2.4566
 22
-1.06614
 32
-9.94042
 13
-3.95603
 23
-0.92341
 33
-9.94042
  0
3DFACE
  8
0
 62
   170
 10
-3.95603
 20
-0.92341
 30
-9.94042
 11
-2.4566
 21
-1.06614
 31
-9.94042
 12
-2.4566
 22
-0.985046
 32
-9.27445
 13
-3.8419
 23
-0.853179
 33
-9.27445
  0
3DFACE
  8
0
 62
   170
 10
-3.8419
 20
-0.853179
 30
-9.27445
 11
-2.4566
 21
-0.985046
 31
-9.27445
 12
-2.4566
 22
-0.754104
 32
-8.70987
 13
-3.51686
 23
-0.653178
 33
-8.70987
  0
3DFACE
  8
0
 62
   170
 10
-3.51686
 20
-0.653178
 30
-8.70987
 11
-2.4566
 21
-0.754104
 31
-8.70987
 12
-2.4566
 22
-0.408476
 32
-8.33263
 13
-3.03041
 23
-0.353855
 33
-8.33263
  0
3DFACE
  8
0
 62
   170
 10
-3.03041
 20
-0.353855
 30
-8.33263
 11
-2.4566
 21
-0.408476
 31
-8.33263
 12
-2.4566
 22
-0.000779
 32
-8.20016
 13
-2.4566
 23
-0.000779
 33
-8.20016
  0
3DFACE
  8
0
 62
   170
 10
-2.4566
 20
-0.408476
 30
-8.33263
 11
-1.8828
 21
-0.353855
 31
-8.33263
 12
-2.4566
 22
-0.000779
 32
-8.20016
 13
-2.4566
 23
-0.000779
 33
-8.20016
  0
3DFACE
  8
0
 62
   170
 10
-2.4566
 20
-0.754104
 30
-8.70987
 11
-1.39634
 21
-0.653178
 31
-8.70987
 12
-1.8828
 22
-0.353855
 32
-8.33263
 13
-2.4566
 23
-0.408476
 33
-8.33263
  0
3DFACE
  8
0
 62
   170
 10
-2.4566
 20
-0.985046
 30
-9.27445
 11
-1.07131
 21
-0.853179
 31
-9.27445
 12
-1.39634
 22
-0.653178
 32
-8.70987
 13
-2.4566
 23
-0.754104
 33
-8.70987
  0
3DFACE
  8
0
 62
   170
 10
-2.4566
 20
-1.06614
 30
-9.94042
 11
-0.957171
 21
-0.92341
 31
-9.94042
 12
-1.07131
 22
-0.853179
 32
-9.27445
 13
-2.4566
 23
-0.985046
 33
-9.27445
  0
3DFACE
  8
0
 62
   170
 10
-2.4566
 20
-0.985046
 30
-10.6064
 11
-1.07131
 21
-0.853179
 31
-10.6064
 12
-0.957171
 22
-0.92341
 32
-9.94042
 13
-2.4566
 23
-1.06614
 33
-9.94042
  0
3DFACE
  8
0
 62
   170
 10
-2.4566
 20
-0.754104
 30
-11.171
 11
-1.39634
 21
-0.653178
 31
-11.171
 12
-1.07131
 22
-0.853179
 32
-10.6064
 13
-2.4566
 23
-0.985046
 33
-10.6064
  0
3DFACE
  8
0
 62
   170
 10
-2.4566
 20
-0.408476
 30
-11.5482
 11
-1.88279
 21
-0.353855
 31
-11.5482
 12
-1.39634
 22
-0.653178
 32
-11.171
 13
-2.4566
 23
-0.754104
 33
-11.171
  0
3DFACE
  8
0
 62
   170
 10
-2.4566
 20
-0.000779
 30
-11.6807
 11
-1.88279
 21
-0.353855
 31
-11.5482
 12
-2.4566
 22
-0.408476
 32
-11.5482
 13
-2.4566
 23
-0.408476
 33
-11.5482
  0
3DFACE
  8
0
 62
   170
 10
-2.4566
 20
-0.000779
 30
-11.6807
 11
-1.46274
 21
-0.204627
 31
-11.5482
 12
-1.88279
 22
-0.353855
 32
-11.5482
 13
-1.88279
 23
-0.353855
 33
-11.5482
  0
3DFACE
  8
0
 62
   170
 10
-1.88279
 20
-0.353855
 30
-11.5482
 11
-1.46274
 21
-0.204627
 31
-11.5482
 12
-0.620181
 22
-0.377442
 32
-11.171
 13
-1.39634
 23
-0.653178
 33
-11.171
  0
3DFACE
  8
0
 62
   170
 10
-1.39634
 20
-0.653178
 30
-11.171
 11
-0.620181
 21
-0.377442
 31
-11.171
 12
-0.0572031
 22
-0.492912
 32
-10.6064
 13
-1.07131
 23
-0.853179
 33
-10.6064
  0
3DFACE
  8
0
 62
   170
 10
-1.07131
 20
-0.853179
 30
-10.6064
 11
-0.0572031
 21
-0.492912
 31
-10.6064
 12
0.140489
 22
-0.53346
 32
-9.94042
 13
-0.957171
 23
-0.92341
 33
-9.94042
  0
3DFACE
  8
0
 62
   170
 10
-0.957171
 20
-0.92341
 30
-9.94042
 11
0.140489
 21
-0.53346
 31
-9.94042
 12
-0.0572031
 22
-0.492912
 32
-9.27445
 13
-1.07131
 23
-0.853179
 33
-9.27445
  0
3DFACE
  8
0
 62
   170
 10
-1.07131
 20
-0.853179
 30
-9.27445
 11
-0.0572031
 21
-0.492912
 31
-9.27445
 12
-0.620181
 22
-0.377442
 32
-8.70987
 13
-1.39634
 23
-0.653178
 33
-8.70987
  0
3DFACE
  8
0
 62
   170
 10
-1.39634
 20
-0.653178
 30
-8.70987
 11
-0.620181
 21
-0.377442
 31
-8.70987
 12
-1.46274
 22
-0.204627
 32
-8.33263
 13
-1.8828
 23
-0.353855
 33
-8.33263
  0
3DFACE
  8
0
 62
   170
 10
-1.8828
 20
-0.353855
 30
-8.33263
 11
-1.46274
 21
-0.204627
 31
-8.33263
 12
-2.4566
 22
-0.000779
 32
-8.20016
 13
-2.4566
 23
-0.000779
 33
-8.20016
  0
3DFACE
  8
0
 62
   170
 10
-1.46274
 20
-0.204627
 30
-8.33263
 11
-1.30899
 21
-0.000779
 31
-8.33263
 12
-2.4566
 22
-0.000779
 32
-8.20016
 13
-2.4566
 23
-0.000779
 33
-8.20016
  0
3DFACE
  8
0
 62
   170
 10
-0.620181
 20
-0.377442
 30
-8.70987
 11
-0.336086
 21
-0.000779
 31
-8.70987
 12
-1.30899
 22
-0.000779
 32
-8.33263
 13
-1.46274
 23
-0.204627
 33
-8.33263
  0
3DFACE
  8
0
 62
   170
 10
-0.336086
 20
-0.000779
 30
-8.70987
 11
-0.620181
 21
-0.377442
 31
-8.70987
 12
-0.0572031
 22
-0.492912
 32
-9.27445
 13
0.313986
 23
-0.000779
 33
-9.27445
  0
3DFACE
  8
0
 62
   170
 10
0.140489
 20
-0.53346
 30
-9.94042
 11
0.54226
 21
-0.000779
 31
-9.94042
 12
0.313986
 22
-0.000779
 32
-9.27445
 13
-0.0572031
 23
-0.492912
 33
-9.27445
  0
3DFACE
  8
0
 62
   170
 10
-0.0572031
 20
-0.492912
 30
-10.6064
 11
0.313986
 21
-0.000779
 31
-10.6064
 12
0.54226
 22
-0.000779
 32
-9.94042
 13
0.140489
 23
-0.53346
 33
-9.94042
  0
3DFACE
  8
0
 62
   170
 10
-0.620181
 20
-0.377442
 30
-11.171
 11
-0.336086
 21
-0.000779
 31
-11.171
 12
0.313986
 22
-0.000779
 32
-10.6064
 13
-0.0572031
 23
-0.492912
 33
-10.6064
  0
3DFACE
  8
0
 62
   170
 10
-1.46274
 20
-0.204627
 30
-11.5482
 11
-1.30899
 21
-0.000779
 31
-11.5482
 12
-0.336086
 22
-0.000779
 32
-11.171
 13
-0.620181
 23
-0.377442
 33
-11.171
  0
3DFACE
  8
0
 62
   170
 10
-2.4566
 20
-0.000779
 30
-11.6807
 11
-1.30899
 21
-0.000779
 31
-11.5482
 12
-1.46274
 22
-0.204627
 32
-11.5482
 13
-1.46274
 23
-0.204627
 33
-11.5482
  0
3DFACE
  8
0
 62
   250
 10
25.033
 20
0.48886
 30
-8.20492
 11
25.033
 21
-0.510457
 31
-8.20492
 12
-25.0159
 22
-0.510456
 32
-8.20492
 13
-25.0158
 23
0.488861
 33
-8.20492
  0
3DFACE
  8
0
 62
   250
 10
25.033
 20
0.48886
 30
-7.81621
 11
-25.0158
 21
0.48886
 31
-7.81621
 12
-25.0159
 22
-0.510456
 32
-7.81621
 13
25.033
 23
-0.510457
 33
-7.81621
  0
3DFACE
  8
0
 62
   250
 10
25.033
 20
0.48886
 30
-8.20492
 11
25.033
 21
0.48886
 31
-7.81621
 12
25.033
 22
-0.510457
 32
-7.81621
 13
25.033
 23
-0.510457
 33
-8.20492
  0
3DFACE
  8
0
 62
   250
 10
25.033
 20
-0.510457
 30
-8.20492
 11
25.033
 21
-0.510457
 31
-7.81621
 12
-25.0159
 22
-0.510456
 32
-7.81621
 13
-25.0159
 23
-0.510456
 33
-8.20492
  0
3DFACE
  8
0
 62
   250
 10
-25.0159
 20
-0.510456
 30
-8.20492
 11
-25.0159
 21
-0.510456
 31
-7.81621
 12
-25.0158
 22
0.48886
 32
-7.81621
 13
-25.0158
 23
0.488861
 33
-8.20492
  0
3DFACE
  8
0
 62
   250
 10
25.033
 20
0.48886
 30
-7.81621
 11
25.033
 21
0.48886
 31
-8.20492
 12
-25.0158
 22
0.488861
 32
-8.20492
 13
-25.0158
 23
0.48886
 33
-7.81621
  0
3DFACE
  8
0
 62
   250
 10
25.033
 20
0.48886
 30
-4.20855
 11
25.033
 21
-0.510457
 31
-4.20855
 12
-25.0159
 22
-0.510456
 32
-4.20855
 13
-25.0158
 23
0.488861
 33
-4.20855
  0
3DFACE
  8
0
 62
   250
 10
25.033
 20
0.48886
 30
-3.81984
 11
-25.0158
 21
0.48886
 31
-3.81984
 12
-25.0159
 22
-0.510456
 32
-3.81984
 13
25.033
 23
-0.510457
 33
-3.81984
  0
3DFACE
  8
0
 62
   250
 10
25.033
 20
0.48886
 30
-4.20855
 11
25.033
 21
0.48886
 31
-3.81984
 12
25.033
 22
-0.510457
 32
-3.81984
 13
25.033
 23
-0.510457
 33
-4.20855
  0
3DFACE
  8
0
 62
   250
 10
25.033
 20
-0.510457
 30
-4.20855
 11
25.033
 21
-0.510457
 31
-3.81984
 12
-25.0159
 22
-0.510456
 32
-3.81984
 13
-25.0159
 23
-0.510456
 33
-4.20855
  0
3DFACE
  8
0
 62
   250
 10
-25.0159
 20
-0.510456
 30
-4.20855
 11
-25.0159
 21
-0.510456
 31
-3.81984
 12
-25.0158
 22
0.48886
 32
-3.81984
 13
-25.0158
 23
0.488861
 33
-4.20855
  0
3DFACE
  8
0
 62
   250
 10
25.033
 20
0.48886
 30
-3.81984
 11
25.033
 21
0.48886
 31
-4.20855
 12
-25.0158
 22
0.488861
 32
-4.20855
 13
-25.0158
 23
0.48886
 33
-3.81984
  0
3DFACE
  8
0
 62
   250
 10
25.033
 20
0.48886
 30
7.82296
 11
25.033
 21
-0.510457
 31
7.82296
 12
-25.0159
 22
-0.510456
 32
7.82296
 13
-25.0158
 23
0.488861
 33
7.82296
  0
3DFACE
  8
0
 62
   250
 10
25.033
 20
0.48886
 30
8.21167
 11
-25.0158
 21
0.48886
 31
8.21167
 12
-25.0159
 22
-0.510456
 32
8.21167
 13
25.033
 23
-0.510457
 33
8.21167
  0
3DFACE
  8
0
 62
   250
 10
25.033
 20
0.48886
 30
7.82296
 11
25.033
 21
0.48886
 31
8.21167
 12
25.033
 22
-0.510457
 32
8.21167
 13
25.033
 23
-0.510457
 33
7.82296
  0
3DFACE
  8
0
 62
   250
 10
25.033
 20
-0.510457
 30
7.82296
 11
25.033
 21
-0.510457
 31
8.21167
 12
-25.0159
 22
-0.510456
 32
8.21167
 13
-25.0159
 23
-0.510456
 33
7.82296
  0
3DFACE
  8
0
 62
   250
 10
-25.0159
 20
-0.510456
 30
7.82296
 11
-25.0159
 21
-0.510456
 31
8.21167
 12
-25.0158
 22
0.48886
 32
8.21167
 13
-25.0158
 23
0.488861
 33
7.82296
  0
3DFACE
  8
0
 62
   250
 10
25.033
 20
0.48886
 30
8.21167
 11
25.033
 21
0.48886
 31
7.82296
 12
-25.0158
 22
0.488861
 32
7.82296
 13
-25.0158
 23
0.48886
 33
8.21167
  0
3DFACE
  8
0
 62
   250
 10
25.033
 20
0.48886
 30
3.81198
 11
25.033
 21
-0.510457
 31
3.81198
 12
-25.0159
 22
-0.510456
 32
3.81198
 13
-25.0158
 23
0.488861
 33
3.81198
  0
3DFACE
  8
0
 62
   250
 10
25.033
 20
0.48886
 30
4.20069
 11
-25.0158
 21
0.48886
 31
4.20069
 12
-25.0159
 22
-0.510456
 32
4.20069
 13
25.033
 23
-0.510457
 33
4.20069
  0
3DFACE
  8
0
 62
   250
 10
25.033
 20
0.48886
 30
3.81198
 11
25.033
 21
0.48886
 31
4.20069
 12
25.033
 22
-0.510457
 32
4.20069
 13
25.033
 23
-0.510457
 33
3.81198
  0
3DFACE
  8
0
 62
   250
 10
25.033
 20
-0.510457
 30
3.81198
 11
25.033
 21
-0.510457
 31
4.20069
 12
-25.0159
 22
-0.510456
 32
4.20069
 13
-25.0159
 23
-0.510456
 33
3.81198
  0
3DFACE
  8
0
 62
   250
 10
-25.0159
 20
-0.510456
 30
3.81198
 11
-25.0159
 21
-0.510456
 31
4.20069
 12
-25.0158
 22
0.48886
 32
4.20069
 13
-25.0158
 23
0.488861
 33
3.81198
  0
3DFACE
  8
0
 62
   250
 10
25.033
 20
0.48886
 30
4.20069
 11
25.033
 21
0.48886
 31
3.81198
 12
-25.0158
 22
0.488861
 32
3.81198
 13
-25.0158
 23
0.48886
 33
4.20069
  0
3DFACE
  8
0
 62
   250
 10
25.033
 20
0.48886
 30
-0.194883
 11
25.033
 21
-0.510457
 31
-0.194883
 12
-25.0159
 22
-0.510456
 32
-0.194883
 13
-25.0158
 23
0.488861
 33
-0.194883
  0
3DFACE
  8
0
 62
   250
 10
25.033
 20
0.48886
 30
0.193826
 11
-25.0158
 21
0.48886
 31
0.193826
 12
-25.0159
 22
-0.510456
 32
0.193826
 13
25.033
 23
-0.510457
 33
0.193826
  0
3DFACE
  8
0
 62
   250
 10
25.033
 20
0.48886
 30
-0.194883
 11
25.033
 21
0.48886
 31
0.193826
 12
25.033
 22
-0.510457
 32
0.193826
 13
25.033
 23
-0.510457
 33
-0.194883
  0
3DFACE
  8
0
 62
   250
 10
25.033
 20
-0.510457
 30
-0.194883
 11
25.033
 21
-0.510457
 31
0.193826
 12
-25.0159
 22
-0.510456
 32
0.193826
 13
-25.0159
 23
-0.510456
 33
-0.194883
  0
3DFACE
  8
0
 62
   250
 10
-25.0159
 20
-0.510456
 30
-0.194883
 11
-25.0159
 21
-0.510456
 31
0.193826
 12
-25.0158
 22
0.48886
 32
0.193826
 13
-25.0158
 23
0.488861
 33
-0.194883
  0
3DFACE
  8
0
 62
   250
 10
25.033
 20
0.48886
 30
0.193826
 11
25.033
 21
0.48886
 31
-0.194883
 12
-25.0158
 22
0.488861
 32
-0.194883
 13
-25.0158
 23
0.48886
 33
0.193826
  0
ENDSEC
  0
EOF
