0
SECTION
2
HEADER
0
ENDSEC
0
SECTION
2
BLOCKS
0
BLOCK
2
GreenNote
8
Meshes
70
64
10
0.0
20
0.0
30
0.0
3
GreenNote
0
POLYLINE
66
1
8
Meshes
62
90
70
64
71
210
72
200
0
VERTEX
8
Meshes
10
2.120516
20
0.000000
30
-16.111420
70
192
0
VERTEX
8
Meshes
10
2.770588
20
0.000000
30
-16.676001
70
192
0
VERTEX
8
Meshes
10
2.998862
20
0.000000
30
-17.341972
70
192
0
VERTEX
8
Meshes
10
0.993864
20
0.203848
30
-18.949768
70
192
0
VERTEX
8
Meshes
10
1.836421
20
0.376663
30
-18.572525
70
192
0
VERTEX
8
Meshes
10
2.399399
20
0.492133
30
-18.007944
70
192
0
VERTEX
8
Meshes
10
2.597091
20
0.532681
30
-17.341972
70
192
0
VERTEX
8
Meshes
10
2.399399
20
0.492133
30
-16.676001
70
192
0
VERTEX
8
Meshes
10
1.836421
20
0.376663
30
-16.111420
70
192
0
VERTEX
8
Meshes
10
0.993864
20
0.203848
30
-15.734178
70
192
0
VERTEX
8
Meshes
10
0.573807
20
0.353076
30
-15.734178
70
192
0
VERTEX
8
Meshes
10
1.060258
20
0.652399
30
-16.111420
70
192
0
VERTEX
8
Meshes
10
1.385294
20
0.852400
30
-16.676001
70
192
0
VERTEX
8
Meshes
10
1.499431
20
0.922631
30
-17.341972
70
192
0
VERTEX
8
Meshes
10
1.385294
20
0.852400
30
-18.007944
70
192
0
VERTEX
8
Meshes
10
1.060258
20
0.652399
30
-18.572525
70
192
0
VERTEX
8
Meshes
10
0.573808
20
0.353076
30
-18.949768
70
192
0
VERTEX
8
Meshes
10
-0.000000
20
0.407697
30
-18.949768
70
192
0
VERTEX
8
Meshes
10
-0.000000
20
0.753325
30
-18.572525
70
192
0
VERTEX
8
Meshes
10
-0.000000
20
0.984267
30
-18.007944
70
192
0
VERTEX
8
Meshes
10
-0.000000
20
1.065363
30
-17.341972
70
192
0
VERTEX
8
Meshes
10
-0.000000
20
0.984267
30
-16.676001
70
192
0
VERTEX
8
Meshes
10
-0.000000
20
0.753325
30
-16.111420
70
192
0
VERTEX
8
Meshes
10
-0.000000
20
0.407697
30
-15.734178
70
192
0
VERTEX
8
Meshes
10
-0.573808
20
0.353076
30
-15.734178
70
192
0
VERTEX
8
Meshes
10
-1.060258
20
0.652399
30
-16.111420
70
192
0
VERTEX
8
Meshes
10
-1.385294
20
0.852400
30
-16.676001
70
192
0
VERTEX
8
Meshes
10
-1.499431
20
0.922631
30
-17.341972
70
192
0
VERTEX
8
Meshes
10
-1.385294
20
0.852400
30
-18.007944
70
192
0
VERTEX
8
Meshes
10
-1.060258
20
0.652399
30
-18.572525
70
192
0
VERTEX
8
Meshes
10
-0.573808
20
0.353076
30
-18.949768
70
192
0
VERTEX
8
Meshes
10
-0.993864
20
0.203848
30
-18.949768
70
192
0
VERTEX
8
Meshes
10
-1.836421
20
0.376663
30
-18.572525
70
192
0
VERTEX
8
Meshes
10
-2.399399
20
0.492133
30
-18.007944
70
192
0
VERTEX
8
Meshes
10
-2.597091
20
0.532681
30
-17.341972
70
192
0
VERTEX
8
Meshes
10
-2.399399
20
0.492133
30
-16.676001
70
192
0
VERTEX
8
Meshes
10
-1.836421
20
0.376663
30
-16.111420
70
192
0
VERTEX
8
Meshes
10
-0.993864
20
0.203848
30
-15.734178
70
192
0
VERTEX
8
Meshes
10
0.000000
20
0.000000
30
-15.601707
70
192
0
VERTEX
8
Meshes
10
-1.147615
20
-0.000000
30
-15.734178
70
192
0
VERTEX
8
Meshes
10
-2.120516
20
0.000000
30
-16.111420
70
192
0
VERTEX
8
Meshes
10
-2.770588
20
0.000000
30
-16.676001
70
192
0
VERTEX
8
Meshes
10
-2.998862
20
-0.000000
30
-17.341972
70
192
0
VERTEX
8
Meshes
10
-2.770588
20
0.000000
30
-18.007944
70
192
0
VERTEX
8
Meshes
10
-2.120516
20
0.000000
30
-18.572525
70
192
0
VERTEX
8
Meshes
10
-1.147615
20
-0.000000
30
-18.949768
70
192
0
VERTEX
8
Meshes
10
-0.000000
20
-0.000000
30
-19.082237
70
192
0
VERTEX
8
Meshes
10
-0.993864
20
-0.203848
30
-18.949768
70
192
0
VERTEX
8
Meshes
10
-1.836421
20
-0.376663
30
-18.572525
70
192
0
VERTEX
8
Meshes
10
-2.399399
20
-0.492133
30
-18.007944
70
192
0
VERTEX
8
Meshes
10
-2.597091
20
-0.532681
30
-17.341972
70
192
0
VERTEX
8
Meshes
10
-2.399399
20
-0.492133
30
-16.676001
70
192
0
VERTEX
8
Meshes
10
-1.836421
20
-0.376663
30
-16.111420
70
192
0
VERTEX
8
Meshes
10
-0.993864
20
-0.203848
30
-15.734178
70
192
0
VERTEX
8
Meshes
10
-0.573807
20
-0.353076
30
-15.734178
70
192
0
VERTEX
8
Meshes
10
-1.060258
20
-0.652399
30
-16.111420
70
192
0
VERTEX
8
Meshes
10
-1.385294
20
-0.852400
30
-16.676001
70
192
0
VERTEX
8
Meshes
10
-1.499431
20
-0.922631
30
-17.341972
70
192
0
VERTEX
8
Meshes
10
-1.385294
20
-0.852400
30
-18.007944
70
192
0
VERTEX
8
Meshes
10
-1.060258
20
-0.652399
30
-18.572525
70
192
0
VERTEX
8
Meshes
10
-0.573807
20
-0.353076
30
-18.949768
70
192
0
VERTEX
8
Meshes
10
0.000000
20
-0.407697
30
-18.949768
70
192
0
VERTEX
8
Meshes
10
0.000000
20
-0.753325
30
-18.572525
70
192
0
VERTEX
8
Meshes
10
0.000000
20
-0.984267
30
-18.007944
70
192
0
VERTEX
8
Meshes
10
0.000000
20
-1.065363
30
-17.341972
70
192
0
VERTEX
8
Meshes
10
0.000000
20
-0.984267
30
-16.676001
70
192
0
VERTEX
8
Meshes
10
0.000000
20
-0.753325
30
-16.111420
70
192
0
VERTEX
8
Meshes
10
0.000000
20
-0.407697
30
-15.734178
70
192
0
VERTEX
8
Meshes
10
0.573807
20
-0.353076
30
-15.734178
70
192
0
VERTEX
8
Meshes
10
1.060258
20
-0.652399
30
-16.111420
70
192
0
VERTEX
8
Meshes
10
1.385294
20
-0.852400
30
-16.676001
70
192
0
VERTEX
8
Meshes
10
1.499431
20
-0.922631
30
-17.341972
70
192
0
VERTEX
8
Meshes
10
1.385294
20
-0.852400
30
-18.007944
70
192
0
VERTEX
8
Meshes
10
1.060258
20
-0.652399
30
-18.572525
70
192
0
VERTEX
8
Meshes
10
0.573808
20
-0.353076
30
-18.949768
70
192
0
VERTEX
8
Meshes
10
0.993864
20
-0.203848
30
-18.949768
70
192
0
VERTEX
8
Meshes
10
1.836421
20
-0.376663
30
-18.572525
70
192
0
VERTEX
8
Meshes
10
2.399399
20
-0.492133
30
-18.007944
70
192
0
VERTEX
8
Meshes
10
2.597091
20
-0.532681
30
-17.341972
70
192
0
VERTEX
8
Meshes
10
2.399399
20
-0.492133
30
-16.676001
70
192
0
VERTEX
8
Meshes
10
1.836421
20
-0.376663
30
-16.111420
70
192
0
VERTEX
8
Meshes
10
0.993864
20
-0.203848
30
-15.734178
70
192
0
VERTEX
8
Meshes
10
1.147615
20
0.000000
30
-15.734178
70
192
0
VERTEX
8
Meshes
10
2.770588
20
0.000000
30
-18.007944
70
192
0
VERTEX
8
Meshes
10
2.120516
20
0.000000
30
-18.572525
70
192
0
VERTEX
8
Meshes
10
1.147615
20
0.000000
30
-18.949768
70
192
0
VERTEX
8
Meshes
10
4.940575
20
-0.299290
30
1.533775
70
192
0
VERTEX
8
Meshes
10
5.307692
20
-0.299290
30
0.970877
70
192
0
VERTEX
8
Meshes
10
5.580483
20
-0.299290
30
0.328671
70
192
0
VERTEX
8
Meshes
10
5.748468
20
-0.299290
30
-0.368163
70
192
0
VERTEX
8
Meshes
10
5.805190
20
-0.299290
30
-1.092846
70
192
0
VERTEX
8
Meshes
10
5.748468
20
-0.299290
30
-1.817529
70
192
0
VERTEX
8
Meshes
10
5.580484
20
-0.299290
30
-2.514364
70
192
0
VERTEX
8
Meshes
10
5.307692
20
-0.299290
30
-3.156570
70
192
0
VERTEX
8
Meshes
10
4.940575
20
-0.299290
30
-3.719469
70
192
0
VERTEX
8
Meshes
10
4.493241
20
-0.299290
30
-4.181427
70
192
0
VERTEX
8
Meshes
10
3.982882
20
-0.299290
30
-4.524693
70
192
0
VERTEX
8
Meshes
10
2.853212
20
-0.299290
30
2.621758
70
192
0
VERTEX
8
Meshes
10
3.429116
20
-0.299290
30
2.550381
70
192
0
VERTEX
8
Meshes
10
3.982887
20
-0.299290
30
2.338998
70
192
0
VERTEX
8
Meshes
10
4.493246
20
-0.299290
30
1.995730
70
192
0
VERTEX
8
Meshes
10
4.209830
20
-0.299290
30
1.461993
70
192
0
VERTEX
8
Meshes
10
3.787667
20
-0.299290
30
1.745940
70
192
0
VERTEX
8
Meshes
10
3.329593
20
-0.299290
30
1.920794
70
192
0
VERTEX
8
Meshes
10
2.853211
20
-0.299290
30
1.979836
70
192
0
VERTEX
8
Meshes
10
3.787663
20
-0.299290
30
-3.931635
70
192
0
VERTEX
8
Meshes
10
4.209826
20
-0.299290
30
-3.647689
70
192
0
VERTEX
8
Meshes
10
4.579856
20
-0.299290
30
-3.265561
70
192
0
VERTEX
8
Meshes
10
4.883532
20
-0.299290
30
-2.799937
70
192
0
VERTEX
8
Meshes
10
5.109183
20
-0.299290
30
-2.268711
70
192
0
VERTEX
8
Meshes
10
5.248138
20
-0.299290
30
-1.692297
70
192
0
VERTEX
8
Meshes
10
5.295057
20
-0.299290
30
-1.092846
70
192
0
VERTEX
8
Meshes
10
5.248138
20
-0.299290
30
-0.493396
70
192
0
VERTEX
8
Meshes
10
5.109182
20
-0.299290
30
0.083018
70
192
0
VERTEX
8
Meshes
10
4.883532
20
-0.299290
30
0.614244
70
192
0
VERTEX
8
Meshes
10
4.579856
20
-0.299290
30
1.079868
70
192
0
VERTEX
8
Meshes
10
4.579856
20
0.302230
30
1.079868
70
192
0
VERTEX
8
Meshes
10
4.883532
20
0.302230
30
0.614244
70
192
0
VERTEX
8
Meshes
10
5.109182
20
0.302230
30
0.083018
70
192
0
VERTEX
8
Meshes
10
5.248138
20
0.302230
30
-0.493396
70
192
0
VERTEX
8
Meshes
10
5.295057
20
0.302230
30
-1.092846
70
192
0
VERTEX
8
Meshes
10
5.248138
20
0.302230
30
-1.692297
70
192
0
VERTEX
8
Meshes
10
5.109183
20
0.302230
30
-2.268711
70
192
0
VERTEX
8
Meshes
10
4.883532
20
0.302230
30
-2.799937
70
192
0
VERTEX
8
Meshes
10
4.579856
20
0.302230
30
-3.265561
70
192
0
VERTEX
8
Meshes
10
4.209826
20
0.302230
30
-3.647689
70
192
0
VERTEX
8
Meshes
10
3.787663
20
0.302230
30
-3.931635
70
192
0
VERTEX
8
Meshes
10
2.853211
20
0.302230
30
1.979836
70
192
0
VERTEX
8
Meshes
10
3.329593
20
0.302230
30
1.920794
70
192
0
VERTEX
8
Meshes
10
3.787667
20
0.302230
30
1.745940
70
192
0
VERTEX
8
Meshes
10
4.209830
20
0.302230
30
1.461993
70
192
0
VERTEX
8
Meshes
10
4.493246
20
0.302230
30
1.995730
70
192
0
VERTEX
8
Meshes
10
3.982887
20
0.302230
30
2.338998
70
192
0
VERTEX
8
Meshes
10
3.429116
20
0.302230
30
2.550381
70
192
0
VERTEX
8
Meshes
10
2.853212
20
0.302230
30
2.621758
70
192
0
VERTEX
8
Meshes
10
3.982882
20
0.302230
30
-4.524693
70
192
0
VERTEX
8
Meshes
10
4.493241
20
0.302230
30
-4.181427
70
192
0
VERTEX
8
Meshes
10
4.940575
20
0.302230
30
-3.719469
70
192
0
VERTEX
8
Meshes
10
5.307692
20
0.302230
30
-3.156570
70
192
0
VERTEX
8
Meshes
10
5.580484
20
0.302230
30
-2.514364
70
192
0
VERTEX
8
Meshes
10
5.748468
20
0.302230
30
-1.817529
70
192
0
VERTEX
8
Meshes
10
5.805190
20
0.302230
30
-1.092846
70
192
0
VERTEX
8
Meshes
10
5.748468
20
0.302230
30
-0.368163
70
192
0
VERTEX
8
Meshes
10
5.580483
20
0.302230
30
0.328671
70
192
0
VERTEX
8
Meshes
10
5.307692
20
0.302230
30
0.970877
70
192
0
VERTEX
8
Meshes
10
4.940575
20
0.302230
30
1.533775
70
192
0
VERTEX
8
Meshes
10
2.810895
20
0.355072
30
-17.429625
70
192
0
VERTEX
8
Meshes
10
2.873207
20
0.279145
30
-17.429625
70
192
0
VERTEX
8
Meshes
10
2.919508
20
0.192521
30
-17.429625
70
192
0
VERTEX
8
Meshes
10
2.948021
20
0.098528
30
-17.429625
70
192
0
VERTEX
8
Meshes
10
2.957648
20
0.000779
30
-17.429625
70
192
0
VERTEX
8
Meshes
10
2.948021
20
-0.096970
30
-17.429625
70
192
0
VERTEX
8
Meshes
10
2.919508
20
-0.190963
30
-17.429625
70
192
0
VERTEX
8
Meshes
10
2.873207
20
-0.277587
30
-17.429625
70
192
0
VERTEX
8
Meshes
10
2.810895
20
-0.353514
30
-17.429625
70
192
0
VERTEX
8
Meshes
10
2.734968
20
-0.415825
30
-17.429625
70
192
0
VERTEX
8
Meshes
10
2.648344
20
-0.462127
30
-17.429625
70
192
0
VERTEX
8
Meshes
10
2.554351
20
-0.490639
30
-17.429625
70
192
0
VERTEX
8
Meshes
10
2.456602
20
-0.500267
30
-17.429625
70
192
0
VERTEX
8
Meshes
10
2.358853
20
-0.490639
30
-17.429625
70
192
0
VERTEX
8
Meshes
10
2.264860
20
-0.462127
30
-17.429625
70
192
0
VERTEX
8
Meshes
10
2.178236
20
-0.415825
30
-17.429625
70
192
0
VERTEX
8
Meshes
10
2.102309
20
-0.353514
30
-17.429625
70
192
0
VERTEX
8
Meshes
10
2.039997
20
-0.277587
30
-17.429625
70
192
0
VERTEX
8
Meshes
10
1.993696
20
-0.190962
30
-17.429625
70
192
0
VERTEX
8
Meshes
10
1.965183
20
-0.096970
30
-17.429625
70
192
0
VERTEX
8
Meshes
10
1.955556
20
0.000780
30
-17.429625
70
192
0
VERTEX
8
Meshes
10
1.965184
20
0.098529
30
-17.429625
70
192
0
VERTEX
8
Meshes
10
1.993696
20
0.192522
30
-17.429625
70
192
0
VERTEX
8
Meshes
10
2.039998
20
0.279146
30
-17.429625
70
192
0
VERTEX
8
Meshes
10
2.102309
20
0.355073
30
-17.429625
70
192
0
VERTEX
8
Meshes
10
2.178236
20
0.417384
30
-17.429625
70
192
0
VERTEX
8
Meshes
10
2.264861
20
0.463686
30
-17.429625
70
192
0
VERTEX
8
Meshes
10
2.358854
20
0.492198
30
-17.429625
70
192
0
VERTEX
8
Meshes
10
2.456603
20
0.501825
30
-17.429625
70
192
0
VERTEX
8
Meshes
10
2.554352
20
0.492198
30
-17.429625
70
192
0
VERTEX
8
Meshes
10
2.648345
20
0.463685
30
-17.429625
70
192
0
VERTEX
8
Meshes
10
2.734969
20
0.417383
30
-17.429625
70
192
0
VERTEX
8
Meshes
10
2.810896
20
0.355072
30
2.626522
70
192
0
VERTEX
8
Meshes
10
2.873207
20
0.279145
30
2.626522
70
192
0
VERTEX
8
Meshes
10
2.919509
20
0.192520
30
2.626522
70
192
0
VERTEX
8
Meshes
10
2.948021
20
0.098527
30
2.626522
70
192
0
VERTEX
8
Meshes
10
2.957648
20
0.000778
30
2.626522
70
192
0
VERTEX
8
Meshes
10
2.948020
20
-0.096971
30
2.626522
70
192
0
VERTEX
8
Meshes
10
2.919508
20
-0.190963
30
2.626522
70
192
0
VERTEX
8
Meshes
10
2.873206
20
-0.277587
30
2.626522
70
192
0
VERTEX
8
Meshes
10
2.810895
20
-0.353514
30
2.626522
70
192
0
VERTEX
8
Meshes
10
2.734968
20
-0.415825
30
2.626522
70
192
0
VERTEX
8
Meshes
10
2.648344
20
-0.462127
30
2.626522
70
192
0
VERTEX
8
Meshes
10
2.554352
20
-0.490639
30
2.626522
70
192
0
VERTEX
8
Meshes
10
2.456603
20
-0.500267
30
2.626522
70
192
0
VERTEX
8
Meshes
10
2.358854
20
-0.490639
30
2.626522
70
192
0
VERTEX
8
Meshes
10
2.264861
20
-0.462127
30
2.626522
70
192
0
VERTEX
8
Meshes
10
2.178237
20
-0.415826
30
2.626522
70
192
0
VERTEX
8
Meshes
10
2.102310
20
-0.353515
30
2.626522
70
192
0
VERTEX
8
Meshes
10
2.039999
20
-0.277588
30
2.626522
70
192
0
VERTEX
8
Meshes
10
1.993697
20
-0.190964
30
2.626522
70
192
0
VERTEX
8
Meshes
10
1.965184
20
-0.096972
30
2.626522
70
192
0
VERTEX
8
Meshes
10
1.955556
20
0.000777
30
2.626522
70
192
0
VERTEX
8
Meshes
10
1.965183
20
0.098526
30
2.626522
70
192
0
VERTEX
8
Meshes
10
1.993695
20
0.192519
30
2.626522
70
192
0
VERTEX
8
Meshes
10
2.039996
20
0.279143
30
2.626522
70
192
0
VERTEX
8
Meshes
10
2.102307
20
0.355070
30
2.626522
70
192
0
VERTEX
8
Meshes
10
2.178233
20
0.417382
30
2.626522
70
192
0
VERTEX
8
Meshes
10
2.264857
20
0.463684
30
2.626522
70
192
0
VERTEX
8
Meshes
10
2.358850
20
0.492197
30
2.626522
70
192
0
VERTEX
8
Meshes
10
2.456599
20
0.501825
30
2.626522
70
192
0
VERTEX
8
Meshes
10
2.554348
20
0.492199
30
2.626522
70
192
0
VERTEX
8
Meshes
10
2.648340
20
0.463687
30
2.626522
70
192
0
VERTEX
8
Meshes
10
2.734965
20
0.417386
30
2.626522
70
192
0
VERTEX
8
Meshes
62
90
10
0.0
20
0.0
30
0.0
70
128
71
47
72
4
73
86
0
VERTEX
8
Meshes
62
90
10
0.0
20
0.0
30
0.0
70
128
71
86
72
4
73
5
74
85
0
VERTEX
8
Meshes
62
90
10
0.0
20
0.0
30
0.0
70
128
71
85
72
5
73
6
74
84
0
VERTEX
8
Meshes
62
90
10
0.0
20
0.0
30
0.0
70
128
71
84
72
6
73
7
74
3
0
VERTEX
8
Meshes
62
90
10
0.0
20
0.0
30
0.0
70
128
71
3
72
7
73
8
74
2
0
VERTEX
8
Meshes
62
90
10
0.0
20
0.0
30
0.0
70
128
71
9
72
1
73
2
74
8
0
VERTEX
8
Meshes
62
90
10
0.0
20
0.0
30
0.0
70
128
71
1
72
9
73
10
74
83
0
VERTEX
8
Meshes
62
90
10
0.0
20
0.0
30
0.0
70
128
71
83
72
10
73
39
0
VERTEX
8
Meshes
62
90
10
0.0
20
0.0
30
0.0
70
128
71
10
72
11
73
39
0
VERTEX
8
Meshes
62
90
10
0.0
20
0.0
30
0.0
70
128
71
9
72
12
73
11
74
10
0
VERTEX
8
Meshes
62
90
10
0.0
20
0.0
30
0.0
70
128
71
8
72
13
73
12
74
9
0
VERTEX
8
Meshes
62
90
10
0.0
20
0.0
30
0.0
70
128
71
7
72
14
73
13
74
8
0
VERTEX
8
Meshes
62
90
10
0.0
20
0.0
30
0.0
70
128
71
6
72
15
73
14
74
7
0
VERTEX
8
Meshes
62
90
10
0.0
20
0.0
30
0.0
70
128
71
5
72
16
73
15
74
6
0
VERTEX
8
Meshes
62
90
10
0.0
20
0.0
30
0.0
70
128
71
4
72
17
73
16
74
5
0
VERTEX
8
Meshes
62
90
10
0.0
20
0.0
30
0.0
70
128
71
47
72
17
73
4
0
VERTEX
8
Meshes
62
90
10
0.0
20
0.0
30
0.0
70
128
71
47
72
18
73
17
0
VERTEX
8
Meshes
62
90
10
0.0
20
0.0
30
0.0
70
128
71
17
72
18
73
19
74
16
0
VERTEX
8
Meshes
62
90
10
0.0
20
0.0
30
0.0
70
128
71
16
72
19
73
20
74
15
0
VERTEX
8
Meshes
62
90
10
0.0
20
0.0
30
0.0
70
128
71
15
72
20
73
21
74
14
0
VERTEX
8
Meshes
62
90
10
0.0
20
0.0
30
0.0
70
128
71
14
72
21
73
22
74
13
0
VERTEX
8
Meshes
62
90
10
0.0
20
0.0
30
0.0
70
128
71
13
72
22
73
23
74
12
0
VERTEX
8
Meshes
62
90
10
0.0
20
0.0
30
0.0
70
128
71
12
72
23
73
24
74
11
0
VERTEX
8
Meshes
62
90
10
0.0
20
0.0
30
0.0
70
128
71
11
72
24
73
39
0
VERTEX
8
Meshes
62
90
10
0.0
20
0.0
30
0.0
70
128
71
24
72
25
73
39
0
VERTEX
8
Meshes
62
90
10
0.0
20
0.0
30
0.0
70
128
71
23
72
26
73
25
74
24
0
VERTEX
8
Meshes
62
90
10
0.0
20
0.0
30
0.0
70
128
71
22
72
27
73
26
74
23
0
VERTEX
8
Meshes
62
90
10
0.0
20
0.0
30
0.0
70
128
71
21
72
28
73
27
74
22
0
VERTEX
8
Meshes
62
90
10
0.0
20
0.0
30
0.0
70
128
71
20
72
29
73
28
74
21
0
VERTEX
8
Meshes
62
90
10
0.0
20
0.0
30
0.0
70
128
71
19
72
30
73
29
74
20
0
VERTEX
8
Meshes
62
90
10
0.0
20
0.0
30
0.0
70
128
71
18
72
31
73
30
74
19
0
VERTEX
8
Meshes
62
90
10
0.0
20
0.0
30
0.0
70
128
71
47
72
31
73
18
0
VERTEX
8
Meshes
62
90
10
0.0
20
0.0
30
0.0
70
128
71
47
72
32
73
31
0
VERTEX
8
Meshes
62
90
10
0.0
20
0.0
30
0.0
70
128
71
31
72
32
73
33
74
30
0
VERTEX
8
Meshes
62
90
10
0.0
20
0.0
30
0.0
70
128
71
30
72
33
73
34
74
29
0
VERTEX
8
Meshes
62
90
10
0.0
20
0.0
30
0.0
70
128
71
29
72
34
73
35
74
28
0
VERTEX
8
Meshes
62
90
10
0.0
20
0.0
30
0.0
70
128
71
28
72
35
73
36
74
27
0
VERTEX
8
Meshes
62
90
10
0.0
20
0.0
30
0.0
70
128
71
27
72
36
73
37
74
26
0
VERTEX
8
Meshes
62
90
10
0.0
20
0.0
30
0.0
70
128
71
26
72
37
73
38
74
25
0
VERTEX
8
Meshes
62
90
10
0.0
20
0.0
30
0.0
70
128
71
25
72
38
73
39
0
VERTEX
8
Meshes
62
90
10
0.0
20
0.0
30
0.0
70
128
71
38
72
40
73
39
0
VERTEX
8
Meshes
62
90
10
0.0
20
0.0
30
0.0
70
128
71
37
72
41
73
40
74
38
0
VERTEX
8
Meshes
62
90
10
0.0
20
0.0
30
0.0
70
128
71
36
72
42
73
41
74
37
0
VERTEX
8
Meshes
62
90
10
0.0
20
0.0
30
0.0
70
128
71
35
72
43
73
42
74
36
0
VERTEX
8
Meshes
62
90
10
0.0
20
0.0
30
0.0
70
128
71
34
72
44
73
43
74
35
0
VERTEX
8
Meshes
62
90
10
0.0
20
0.0
30
0.0
70
128
71
33
72
45
73
44
74
34
0
VERTEX
8
Meshes
62
90
10
0.0
20
0.0
30
0.0
70
128
71
32
72
46
73
45
74
33
0
VERTEX
8
Meshes
62
90
10
0.0
20
0.0
30
0.0
70
128
71
47
72
46
73
32
0
VERTEX
8
Meshes
62
90
10
0.0
20
0.0
30
0.0
70
128
71
47
72
48
73
46
0
VERTEX
8
Meshes
62
90
10
0.0
20
0.0
30
0.0
70
128
71
46
72
48
73
49
74
45
0
VERTEX
8
Meshes
62
90
10
0.0
20
0.0
30
0.0
70
128
71
45
72
49
73
50
74
44
0
VERTEX
8
Meshes
62
90
10
0.0
20
0.0
30
0.0
70
128
71
44
72
50
73
51
74
43
0
VERTEX
8
Meshes
62
90
10
0.0
20
0.0
30
0.0
70
128
71
43
72
51
73
52
74
42
0
VERTEX
8
Meshes
62
90
10
0.0
20
0.0
30
0.0
70
128
71
42
72
52
73
53
74
41
0
VERTEX
8
Meshes
62
90
10
0.0
20
0.0
30
0.0
70
128
71
41
72
53
73
54
74
40
0
VERTEX
8
Meshes
62
90
10
0.0
20
0.0
30
0.0
70
128
71
40
72
54
73
39
0
VERTEX
8
Meshes
62
90
10
0.0
20
0.0
30
0.0
70
128
71
54
72
55
73
39
0
VERTEX
8
Meshes
62
90
10
0.0
20
0.0
30
0.0
70
128
71
53
72
56
73
55
74
54
0
VERTEX
8
Meshes
62
90
10
0.0
20
0.0
30
0.0
70
128
71
52
72
57
73
56
74
53
0
VERTEX
8
Meshes
62
90
10
0.0
20
0.0
30
0.0
70
128
71
51
72
58
73
57
74
52
0
VERTEX
8
Meshes
62
90
10
0.0
20
0.0
30
0.0
70
128
71
50
72
59
73
58
74
51
0
VERTEX
8
Meshes
62
90
10
0.0
20
0.0
30
0.0
70
128
71
49
72
60
73
59
74
50
0
VERTEX
8
Meshes
62
90
10
0.0
20
0.0
30
0.0
70
128
71
48
72
61
73
60
74
49
0
VERTEX
8
Meshes
62
90
10
0.0
20
0.0
30
0.0
70
128
71
47
72
61
73
48
0
VERTEX
8
Meshes
62
90
10
0.0
20
0.0
30
0.0
70
128
71
47
72
62
73
61
0
VERTEX
8
Meshes
62
90
10
0.0
20
0.0
30
0.0
70
128
71
61
72
62
73
63
74
60
0
VERTEX
8
Meshes
62
90
10
0.0
20
0.0
30
0.0
70
128
71
60
72
63
73
64
74
59
0
VERTEX
8
Meshes
62
90
10
0.0
20
0.0
30
0.0
70
128
71
59
72
64
73
65
74
58
0
VERTEX
8
Meshes
62
90
10
0.0
20
0.0
30
0.0
70
128
71
58
72
65
73
66
74
57
0
VERTEX
8
Meshes
62
90
10
0.0
20
0.0
30
0.0
70
128
71
57
72
66
73
67
74
56
0
VERTEX
8
Meshes
62
90
10
0.0
20
0.0
30
0.0
70
128
71
56
72
67
73
68
74
55
0
VERTEX
8
Meshes
62
90
10
0.0
20
0.0
30
0.0
70
128
71
55
72
68
73
39
0
VERTEX
8
Meshes
62
90
10
0.0
20
0.0
30
0.0
70
128
71
68
72
69
73
39
0
VERTEX
8
Meshes
62
90
10
0.0
20
0.0
30
0.0
70
128
71
67
72
70
73
69
74
68
0
VERTEX
8
Meshes
62
90
10
0.0
20
0.0
30
0.0
70
128
71
66
72
71
73
70
74
67
0
VERTEX
8
Meshes
62
90
10
0.0
20
0.0
30
0.0
70
128
71
65
72
72
73
71
74
66
0
VERTEX
8
Meshes
62
90
10
0.0
20
0.0
30
0.0
70
128
71
64
72
73
73
72
74
65
0
VERTEX
8
Meshes
62
90
10
0.0
20
0.0
30
0.0
70
128
71
63
72
74
73
73
74
64
0
VERTEX
8
Meshes
62
90
10
0.0
20
0.0
30
0.0
70
128
71
62
72
75
73
74
74
63
0
VERTEX
8
Meshes
62
90
10
0.0
20
0.0
30
0.0
70
128
71
47
72
75
73
62
0
VERTEX
8
Meshes
62
90
10
0.0
20
0.0
30
0.0
70
128
71
47
72
76
73
75
0
VERTEX
8
Meshes
62
90
10
0.0
20
0.0
30
0.0
70
128
71
75
72
76
73
77
74
74
0
VERTEX
8
Meshes
62
90
10
0.0
20
0.0
30
0.0
70
128
71
74
72
77
73
78
74
73
0
VERTEX
8
Meshes
62
90
10
0.0
20
0.0
30
0.0
70
128
71
73
72
78
73
79
74
72
0
VERTEX
8
Meshes
62
90
10
0.0
20
0.0
30
0.0
70
128
71
72
72
79
73
80
74
71
0
VERTEX
8
Meshes
62
90
10
0.0
20
0.0
30
0.0
70
128
71
71
72
80
73
81
74
70
0
VERTEX
8
Meshes
62
90
10
0.0
20
0.0
30
0.0
70
128
71
70
72
81
73
82
74
69
0
VERTEX
8
Meshes
62
90
10
0.0
20
0.0
30
0.0
70
128
71
69
72
82
73
39
0
VERTEX
8
Meshes
62
90
10
0.0
20
0.0
30
0.0
70
128
71
82
72
83
73
39
0
VERTEX
8
Meshes
62
90
10
0.0
20
0.0
30
0.0
70
128
71
81
72
1
73
83
74
82
0
VERTEX
8
Meshes
62
90
10
0.0
20
0.0
30
0.0
70
128
71
1
72
81
73
80
74
2
0
VERTEX
8
Meshes
62
90
10
0.0
20
0.0
30
0.0
70
128
71
79
72
3
73
2
74
80
0
VERTEX
8
Meshes
62
90
10
0.0
20
0.0
30
0.0
70
128
71
78
72
84
73
3
74
79
0
VERTEX
8
Meshes
62
90
10
0.0
20
0.0
30
0.0
70
128
71
77
72
85
73
84
74
78
0
VERTEX
8
Meshes
62
90
10
0.0
20
0.0
30
0.0
70
128
71
76
72
86
73
85
74
77
0
VERTEX
8
Meshes
62
90
10
0.0
20
0.0
30
0.0
70
128
71
47
72
86
73
76
0
VERTEX
8
Meshes
62
90
10
0.0
20
0.0
30
0.0
70
128
71
101
72
87
73
116
74
102
0
VERTEX
8
Meshes
62
90
10
0.0
20
0.0
30
0.0
70
128
71
101
72
100
73
103
74
102
0
VERTEX
8
Meshes
62
90
10
0.0
20
0.0
30
0.0
70
128
71
100
72
99
73
104
74
103
0
VERTEX
8
Meshes
62
90
10
0.0
20
0.0
30
0.0
70
128
71
99
72
98
73
105
74
104
0
VERTEX
8
Meshes
62
90
10
0.0
20
0.0
30
0.0
70
128
71
96
72
97
73
106
74
107
0
VERTEX
8
Meshes
62
90
10
0.0
20
0.0
30
0.0
70
128
71
96
72
95
73
108
74
107
0
VERTEX
8
Meshes
62
90
10
0.0
20
0.0
30
0.0
70
128
71
95
72
94
73
109
74
108
0
VERTEX
8
Meshes
62
90
10
0.0
20
0.0
30
0.0
70
128
71
94
72
93
73
110
74
109
0
VERTEX
8
Meshes
62
90
10
0.0
20
0.0
30
0.0
70
128
71
93
72
92
73
111
74
110
0
VERTEX
8
Meshes
62
90
10
0.0
20
0.0
30
0.0
70
128
71
92
72
91
73
112
74
111
0
VERTEX
8
Meshes
62
90
10
0.0
20
0.0
30
0.0
70
128
71
90
72
91
73
112
74
113
0
VERTEX
8
Meshes
62
90
10
0.0
20
0.0
30
0.0
70
128
71
90
72
89
73
114
74
113
0
VERTEX
8
Meshes
62
90
10
0.0
20
0.0
30
0.0
70
128
71
89
72
88
73
115
74
114
0
VERTEX
8
Meshes
62
90
10
0.0
20
0.0
30
0.0
70
128
71
88
72
87
73
116
74
115
0
VERTEX
8
Meshes
62
90
10
0.0
20
0.0
30
0.0
70
128
71
115
72
116
73
117
74
118
0
VERTEX
8
Meshes
62
90
10
0.0
20
0.0
30
0.0
70
128
71
114
72
115
73
118
74
119
0
VERTEX
8
Meshes
62
90
10
0.0
20
0.0
30
0.0
70
128
71
113
72
114
73
119
74
120
0
VERTEX
8
Meshes
62
90
10
0.0
20
0.0
30
0.0
70
128
71
113
72
112
73
121
74
120
0
VERTEX
8
Meshes
62
90
10
0.0
20
0.0
30
0.0
70
128
71
111
72
112
73
121
74
122
0
VERTEX
8
Meshes
62
90
10
0.0
20
0.0
30
0.0
70
128
71
110
72
111
73
122
74
123
0
VERTEX
8
Meshes
62
90
10
0.0
20
0.0
30
0.0
70
128
71
109
72
110
73
123
74
124
0
VERTEX
8
Meshes
62
90
10
0.0
20
0.0
30
0.0
70
128
71
108
72
109
73
124
74
125
0
VERTEX
8
Meshes
62
90
10
0.0
20
0.0
30
0.0
70
128
71
107
72
108
73
125
74
126
0
VERTEX
8
Meshes
62
90
10
0.0
20
0.0
30
0.0
70
128
71
107
72
106
73
127
74
126
0
VERTEX
8
Meshes
62
90
10
0.0
20
0.0
30
0.0
70
128
71
106
72
97
73
136
74
127
0
VERTEX
8
Meshes
62
90
10
0.0
20
0.0
30
0.0
70
128
71
104
72
105
73
128
74
129
0
VERTEX
8
Meshes
62
90
10
0.0
20
0.0
30
0.0
70
128
71
103
72
104
73
129
74
130
0
VERTEX
8
Meshes
62
90
10
0.0
20
0.0
30
0.0
70
128
71
102
72
103
73
130
74
131
0
VERTEX
8
Meshes
62
90
10
0.0
20
0.0
30
0.0
70
128
71
102
72
116
73
117
74
131
0
VERTEX
8
Meshes
62
90
10
0.0
20
0.0
30
0.0
70
128
71
101
72
87
73
146
74
132
0
VERTEX
8
Meshes
62
90
10
0.0
20
0.0
30
0.0
70
128
71
101
72
100
73
133
74
132
0
VERTEX
8
Meshes
62
90
10
0.0
20
0.0
30
0.0
70
128
71
100
72
99
73
134
74
133
0
VERTEX
8
Meshes
62
90
10
0.0
20
0.0
30
0.0
70
128
71
99
72
98
73
135
74
134
0
VERTEX
8
Meshes
62
90
10
0.0
20
0.0
30
0.0
70
128
71
96
72
97
73
136
74
137
0
VERTEX
8
Meshes
62
90
10
0.0
20
0.0
30
0.0
70
128
71
96
72
95
73
138
74
137
0
VERTEX
8
Meshes
62
90
10
0.0
20
0.0
30
0.0
70
128
71
95
72
94
73
139
74
138
0
VERTEX
8
Meshes
62
90
10
0.0
20
0.0
30
0.0
70
128
71
94
72
93
73
140
74
139
0
VERTEX
8
Meshes
62
90
10
0.0
20
0.0
30
0.0
70
128
71
93
72
92
73
141
74
140
0
VERTEX
8
Meshes
62
90
10
0.0
20
0.0
30
0.0
70
128
71
92
72
91
73
142
74
141
0
VERTEX
8
Meshes
62
90
10
0.0
20
0.0
30
0.0
70
128
71
90
72
91
73
142
74
143
0
VERTEX
8
Meshes
62
90
10
0.0
20
0.0
30
0.0
70
128
71
90
72
89
73
144
74
143
0
VERTEX
8
Meshes
62
90
10
0.0
20
0.0
30
0.0
70
128
71
89
72
88
73
145
74
144
0
VERTEX
8
Meshes
62
90
10
0.0
20
0.0
30
0.0
70
128
71
88
72
87
73
146
74
145
0
VERTEX
8
Meshes
62
90
10
0.0
20
0.0
30
0.0
70
128
71
132
72
146
73
117
74
131
0
VERTEX
8
Meshes
62
90
10
0.0
20
0.0
30
0.0
70
128
71
132
72
133
73
130
74
131
0
VERTEX
8
Meshes
62
90
10
0.0
20
0.0
30
0.0
70
128
71
133
72
134
73
129
74
130
0
VERTEX
8
Meshes
62
90
10
0.0
20
0.0
30
0.0
70
128
71
134
72
135
73
128
74
129
0
VERTEX
8
Meshes
62
90
10
0.0
20
0.0
30
0.0
70
128
71
137
72
136
73
127
74
126
0
VERTEX
8
Meshes
62
90
10
0.0
20
0.0
30
0.0
70
128
71
137
72
138
73
125
74
126
0
VERTEX
8
Meshes
62
90
10
0.0
20
0.0
30
0.0
70
128
71
138
72
139
73
124
74
125
0
VERTEX
8
Meshes
62
90
10
0.0
20
0.0
30
0.0
70
128
71
139
72
140
73
123
74
124
0
VERTEX
8
Meshes
62
90
10
0.0
20
0.0
30
0.0
70
128
71
140
72
141
73
122
74
123
0
VERTEX
8
Meshes
62
90
10
0.0
20
0.0
30
0.0
70
128
71
141
72
142
73
121
74
122
0
VERTEX
8
Meshes
62
90
10
0.0
20
0.0
30
0.0
70
128
71
143
72
142
73
121
74
120
0
VERTEX
8
Meshes
62
90
10
0.0
20
0.0
30
0.0
70
128
71
143
72
144
73
119
74
120
0
VERTEX
8
Meshes
62
90
10
0.0
20
0.0
30
0.0
70
128
71
144
72
145
73
118
74
119
0
VERTEX
8
Meshes
62
90
10
0.0
20
0.0
30
0.0
70
128
71
145
72
146
73
117
74
118
0
VERTEX
8
Meshes
62
90
10
0.0
20
0.0
30
0.0
70
128
71
147
72
179
73
180
74
148
0
VERTEX
8
Meshes
62
90
10
0.0
20
0.0
30
0.0
70
128
71
148
72
180
73
181
74
149
0
VERTEX
8
Meshes
62
90
10
0.0
20
0.0
30
0.0
70
128
71
149
72
181
73
182
74
150
0
VERTEX
8
Meshes
62
90
10
0.0
20
0.0
30
0.0
70
128
71
150
72
182
73
183
74
151
0
VERTEX
8
Meshes
62
90
10
0.0
20
0.0
30
0.0
70
128
71
151
72
183
73
184
74
152
0
VERTEX
8
Meshes
62
90
10
0.0
20
0.0
30
0.0
70
128
71
152
72
184
73
185
74
153
0
VERTEX
8
Meshes
62
90
10
0.0
20
0.0
30
0.0
70
128
71
153
72
185
73
186
74
154
0
VERTEX
8
Meshes
62
90
10
0.0
20
0.0
30
0.0
70
128
71
154
72
186
73
187
74
155
0
VERTEX
8
Meshes
62
90
10
0.0
20
0.0
30
0.0
70
128
71
155
72
187
73
188
74
156
0
VERTEX
8
Meshes
62
90
10
0.0
20
0.0
30
0.0
70
128
71
156
72
188
73
189
74
157
0
VERTEX
8
Meshes
62
90
10
0.0
20
0.0
30
0.0
70
128
71
157
72
189
73
190
74
158
0
VERTEX
8
Meshes
62
90
10
0.0
20
0.0
30
0.0
70
128
71
158
72
190
73
191
74
159
0
VERTEX
8
Meshes
62
90
10
0.0
20
0.0
30
0.0
70
128
71
159
72
191
73
192
74
160
0
VERTEX
8
Meshes
62
90
10
0.0
20
0.0
30
0.0
70
128
71
160
72
192
73
193
74
161
0
VERTEX
8
Meshes
62
90
10
0.0
20
0.0
30
0.0
70
128
71
161
72
193
73
194
74
162
0
VERTEX
8
Meshes
62
90
10
0.0
20
0.0
30
0.0
70
128
71
162
72
194
73
195
74
163
0
VERTEX
8
Meshes
62
90
10
0.0
20
0.0
30
0.0
70
128
71
163
72
195
73
196
74
164
0
VERTEX
8
Meshes
62
90
10
0.0
20
0.0
30
0.0
70
128
71
164
72
196
73
197
74
165
0
VERTEX
8
Meshes
62
90
10
0.0
20
0.0
30
0.0
70
128
71
165
72
197
73
198
74
166
0
VERTEX
8
Meshes
62
90
10
0.0
20
0.0
30
0.0
70
128
71
166
72
198
73
199
74
167
0
VERTEX
8
Meshes
62
90
10
0.0
20
0.0
30
0.0
70
128
71
167
72
199
73
200
74
168
0
VERTEX
8
Meshes
62
90
10
0.0
20
0.0
30
0.0
70
128
71
168
72
200
73
201
74
169
0
VERTEX
8
Meshes
62
90
10
0.0
20
0.0
30
0.0
70
128
71
169
72
201
73
202
74
170
0
VERTEX
8
Meshes
62
90
10
0.0
20
0.0
30
0.0
70
128
71
170
72
202
73
203
74
171
0
VERTEX
8
Meshes
62
90
10
0.0
20
0.0
30
0.0
70
128
71
171
72
203
73
204
74
172
0
VERTEX
8
Meshes
62
90
10
0.0
20
0.0
30
0.0
70
128
71
172
72
204
73
205
74
173
0
VERTEX
8
Meshes
62
90
10
0.0
20
0.0
30
0.0
70
128
71
173
72
205
73
206
74
174
0
VERTEX
8
Meshes
62
90
10
0.0
20
0.0
30
0.0
70
128
71
174
72
206
73
207
74
175
0
VERTEX
8
Meshes
62
90
10
0.0
20
0.0
30
0.0
70
128
71
175
72
207
73
208
74
176
0
VERTEX
8
Meshes
62
90
10
0.0
20
0.0
30
0.0
70
128
71
176
72
208
73
209
74
177
0
VERTEX
8
Meshes
62
90
10
0.0
20
0.0
30
0.0
70
128
71
177
72
209
73
210
74
178
0
VERTEX
8
Meshes
62
90
10
0.0
20
0.0
30
0.0
70
128
71
179
72
147
73
178
74
210
0
VERTEX
8
Meshes
62
90
10
0.0
20
0.0
30
0.0
70
128
71
207
72
206
73
209
74
208
0
VERTEX
8
Meshes
62
90
10
0.0
20
0.0
30
0.0
70
128
71
206
72
205
73
210
74
209
0
VERTEX
8
Meshes
62
90
10
0.0
20
0.0
30
0.0
70
128
71
205
72
204
73
179
74
210
0
VERTEX
8
Meshes
62
90
10
0.0
20
0.0
30
0.0
70
128
71
204
72
203
73
180
74
179
0
VERTEX
8
Meshes
62
90
10
0.0
20
0.0
30
0.0
70
128
71
203
72
202
73
181
74
180
0
VERTEX
8
Meshes
62
90
10
0.0
20
0.0
30
0.0
70
128
71
202
72
201
73
182
74
181
0
VERTEX
8
Meshes
62
90
10
0.0
20
0.0
30
0.0
70
128
71
201
72
200
73
183
74
182
0
VERTEX
8
Meshes
62
90
10
0.0
20
0.0
30
0.0
70
128
71
200
72
199
73
184
74
183
0
VERTEX
8
Meshes
62
90
10
0.0
20
0.0
30
0.0
70
128
71
199
72
198
73
185
74
184
0
VERTEX
8
Meshes
62
90
10
0.0
20
0.0
30
0.0
70
128
71
198
72
197
73
186
74
185
0
VERTEX
8
Meshes
62
90
10
0.0
20
0.0
30
0.0
70
128
71
197
72
196
73
187
74
186
0
VERTEX
8
Meshes
62
90
10
0.0
20
0.0
30
0.0
70
128
71
196
72
195
73
188
74
187
0
VERTEX
8
Meshes
62
90
10
0.0
20
0.0
30
0.0
70
128
71
195
72
194
73
189
74
188
0
VERTEX
8
Meshes
62
90
10
0.0
20
0.0
30
0.0
70
128
71
194
72
193
73
190
74
189
0
VERTEX
8
Meshes
62
90
10
0.0
20
0.0
30
0.0
70
128
71
193
72
192
73
191
74
190
0
SEQEND
0
ENDBLK
0
BLOCK
2
Noteline
8
Meshes
70
64
10
0.0
20
0.0
30
0.0
3
Noteline
0
POLYLINE
66
1
8
Meshes
62
250
70
64
71
8
72
6
0
VERTEX
8
Meshes
10
25.030409
20
0.499658
30
-0.169316
70
192
0
VERTEX
8
Meshes
10
25.030409
20
-0.499659
30
-0.169316
70
192
0
VERTEX
8
Meshes
10
-25.018436
20
-0.499658
30
-0.169316
70
192
0
VERTEX
8
Meshes
10
-25.018421
20
0.499659
30
-0.169316
70
192
0
VERTEX
8
Meshes
10
25.030422
20
0.499658
30
0.219393
70
192
0
VERTEX
8
Meshes
10
25.030392
20
-0.499659
30
0.219393
70
192
0
VERTEX
8
Meshes
10
-25.018440
20
-0.499658
30
0.219393
70
192
0
VERTEX
8
Meshes
10
-25.018429
20
0.499658
30
0.219393
70
192
0
VERTEX
8
Meshes
62
250
10
0.0
20
0.0
30
0.0
70
128
71
1
72
2
73
3
74
4
0
VERTEX
8
Meshes
62
250
10
0.0
20
0.0
30
0.0
70
128
71
5
72
8
73
7
74
6
0
VERTEX
8
Meshes
62
250
10
0.0
20
0.0
30
0.0
70
128
71
1
72
5
73
6
74
2
0
VERTEX
8
Meshes
62
250
10
0.0
20
0.0
30
0.0
70
128
71
2
72
6
73
7
74
3
0
VERTEX
8
Meshes
62
250
10
0.0
20
0.0
30
0.0
70
128
71
3
72
7
73
8
74
4
0
VERTEX
8
Meshes
62
250
10
0.0
20
0.0
30
0.0
70
128
71
5
72
1
73
4
74
8
0
SEQEND
0
ENDBLK
0
BLOCK
2
Noteline_004
8
Meshes
70
64
10
0.0
20
0.0
30
0.0
3
Noteline_004
0
POLYLINE
66
1
8
Meshes
62
250
70
64
71
8
72
6
0
VERTEX
8
Meshes
10
25.030409
20
0.499658
30
-0.169316
70
192
0
VERTEX
8
Meshes
10
25.030409
20
-0.499659
30
-0.169316
70
192
0
VERTEX
8
Meshes
10
-25.018436
20
-0.499658
30
-0.169316
70
192
0
VERTEX
8
Meshes
10
-25.018421
20
0.499659
30
-0.169316
70
192
0
VERTEX
8
Meshes
10
25.030422
20
0.499658
30
0.219393
70
192
0
VERTEX
8
Meshes
10
25.030392
20
-0.499659
30
0.219393
70
192
0
VERTEX
8
Meshes
10
-25.018440
20
-0.499658
30
0.219393
70
192
0
VERTEX
8
Meshes
10
-25.018429
20
0.499658
30
0.219393
70
192
0
VERTEX
8
Meshes
62
250
10
0.0
20
0.0
30
0.0
70
128
71
1
72
2
73
3
74
4
0
VERTEX
8
Meshes
62
250
10
0.0
20
0.0
30
0.0
70
128
71
5
72
8
73
7
74
6
0
VERTEX
8
Meshes
62
250
10
0.0
20
0.0
30
0.0
70
128
71
1
72
5
73
6
74
2
0
VERTEX
8
Meshes
62
250
10
0.0
20
0.0
30
0.0
70
128
71
2
72
6
73
7
74
3
0
VERTEX
8
Meshes
62
250
10
0.0
20
0.0
30
0.0
70
128
71
3
72
7
73
8
74
4
0
VERTEX
8
Meshes
62
250
10
0.0
20
0.0
30
0.0
70
128
71
5
72
1
73
4
74
8
0
SEQEND
0
ENDBLK
0
BLOCK
2
Noteline_005
8
Meshes
70
64
10
0.0
20
0.0
30
0.0
3
Noteline_005
0
POLYLINE
66
1
8
Meshes
62
250
70
64
71
8
72
6
0
VERTEX
8
Meshes
10
25.030409
20
0.499658
30
-0.169316
70
192
0
VERTEX
8
Meshes
10
25.030409
20
-0.499659
30
-0.169316
70
192
0
VERTEX
8
Meshes
10
-25.018436
20
-0.499658
30
-0.169316
70
192
0
VERTEX
8
Meshes
10
-25.018421
20
0.499659
30
-0.169316
70
192
0
VERTEX
8
Meshes
10
25.030422
20
0.499658
30
0.219393
70
192
0
VERTEX
8
Meshes
10
25.030392
20
-0.499659
30
0.219393
70
192
0
VERTEX
8
Meshes
10
-25.018440
20
-0.499658
30
0.219393
70
192
0
VERTEX
8
Meshes
10
-25.018429
20
0.499658
30
0.219393
70
192
0
VERTEX
8
Meshes
62
250
10
0.0
20
0.0
30
0.0
70
128
71
1
72
2
73
3
74
4
0
VERTEX
8
Meshes
62
250
10
0.0
20
0.0
30
0.0
70
128
71
5
72
8
73
7
74
6
0
VERTEX
8
Meshes
62
250
10
0.0
20
0.0
30
0.0
70
128
71
1
72
5
73
6
74
2
0
VERTEX
8
Meshes
62
250
10
0.0
20
0.0
30
0.0
70
128
71
2
72
6
73
7
74
3
0
VERTEX
8
Meshes
62
250
10
0.0
20
0.0
30
0.0
70
128
71
3
72
7
73
8
74
4
0
VERTEX
8
Meshes
62
250
10
0.0
20
0.0
30
0.0
70
128
71
5
72
1
73
4
74
8
0
SEQEND
0
ENDBLK
0
BLOCK
2
Noteline_006
8
Meshes
70
64
10
0.0
20
0.0
30
0.0
3
Noteline_006
0
POLYLINE
66
1
8
Meshes
62
250
70
64
71
8
72
6
0
VERTEX
8
Meshes
10
25.030409
20
0.499658
30
-0.169316
70
192
0
VERTEX
8
Meshes
10
25.030409
20
-0.499659
30
-0.169316
70
192
0
VERTEX
8
Meshes
10
-25.018436
20
-0.499658
30
-0.169316
70
192
0
VERTEX
8
Meshes
10
-25.018421
20
0.499659
30
-0.169316
70
192
0
VERTEX
8
Meshes
10
25.030422
20
0.499658
30
0.219393
70
192
0
VERTEX
8
Meshes
10
25.030392
20
-0.499659
30
0.219393
70
192
0
VERTEX
8
Meshes
10
-25.018440
20
-0.499658
30
0.219393
70
192
0
VERTEX
8
Meshes
10
-25.018429
20
0.499658
30
0.219393
70
192
0
VERTEX
8
Meshes
62
250
10
0.0
20
0.0
30
0.0
70
128
71
1
72
2
73
3
74
4
0
VERTEX
8
Meshes
62
250
10
0.0
20
0.0
30
0.0
70
128
71
5
72
8
73
7
74
6
0
VERTEX
8
Meshes
62
250
10
0.0
20
0.0
30
0.0
70
128
71
1
72
5
73
6
74
2
0
VERTEX
8
Meshes
62
250
10
0.0
20
0.0
30
0.0
70
128
71
2
72
6
73
7
74
3
0
VERTEX
8
Meshes
62
250
10
0.0
20
0.0
30
0.0
70
128
71
3
72
7
73
8
74
4
0
VERTEX
8
Meshes
62
250
10
0.0
20
0.0
30
0.0
70
128
71
5
72
1
73
4
74
8
0
SEQEND
0
ENDBLK
0
BLOCK
2
Noteline_007
8
Meshes
70
64
10
0.0
20
0.0
30
0.0
3
Noteline_007
0
POLYLINE
66
1
8
Meshes
62
250
70
64
71
8
72
6
0
VERTEX
8
Meshes
10
25.030409
20
0.499658
30
-0.169316
70
192
0
VERTEX
8
Meshes
10
25.030409
20
-0.499659
30
-0.169316
70
192
0
VERTEX
8
Meshes
10
-25.018436
20
-0.499658
30
-0.169316
70
192
0
VERTEX
8
Meshes
10
-25.018421
20
0.499659
30
-0.169316
70
192
0
VERTEX
8
Meshes
10
25.030422
20
0.499658
30
0.219393
70
192
0
VERTEX
8
Meshes
10
25.030392
20
-0.499659
30
0.219393
70
192
0
VERTEX
8
Meshes
10
-25.018440
20
-0.499658
30
0.219393
70
192
0
VERTEX
8
Meshes
10
-25.018429
20
0.499658
30
0.219393
70
192
0
VERTEX
8
Meshes
62
250
10
0.0
20
0.0
30
0.0
70
128
71
1
72
2
73
3
74
4
0
VERTEX
8
Meshes
62
250
10
0.0
20
0.0
30
0.0
70
128
71
5
72
8
73
7
74
6
0
VERTEX
8
Meshes
62
250
10
0.0
20
0.0
30
0.0
70
128
71
1
72
5
73
6
74
2
0
VERTEX
8
Meshes
62
250
10
0.0
20
0.0
30
0.0
70
128
71
2
72
6
73
7
74
3
0
VERTEX
8
Meshes
62
250
10
0.0
20
0.0
30
0.0
70
128
71
3
72
7
73
8
74
4
0
VERTEX
8
Meshes
62
250
10
0.0
20
0.0
30
0.0
70
128
71
5
72
1
73
4
74
8
0
SEQEND
0
ENDBLK
0
BLOCK
2
YellowNote
8
Meshes
70
64
10
0.0
20
0.0
30
0.0
3
YellowNote
0
POLYLINE
66
1
8
Meshes
62
50
70
64
71
210
72
200
0
VERTEX
8
Meshes
10
2.810895
20
0.355072
30
-17.429625
70
192
0
VERTEX
8
Meshes
10
2.873207
20
0.279145
30
-17.429625
70
192
0
VERTEX
8
Meshes
10
2.919508
20
0.192521
30
-17.429625
70
192
0
VERTEX
8
Meshes
10
2.948021
20
0.098528
30
-17.429625
70
192
0
VERTEX
8
Meshes
10
2.957648
20
0.000779
30
-17.429625
70
192
0
VERTEX
8
Meshes
10
2.948021
20
-0.096970
30
-17.429625
70
192
0
VERTEX
8
Meshes
10
2.919508
20
-0.190963
30
-17.429625
70
192
0
VERTEX
8
Meshes
10
2.873207
20
-0.277587
30
-17.429625
70
192
0
VERTEX
8
Meshes
10
2.810895
20
-0.353514
30
-17.429625
70
192
0
VERTEX
8
Meshes
10
2.734968
20
-0.415825
30
-17.429625
70
192
0
VERTEX
8
Meshes
10
2.648344
20
-0.462127
30
-17.429625
70
192
0
VERTEX
8
Meshes
10
2.554351
20
-0.490639
30
-17.429625
70
192
0
VERTEX
8
Meshes
10
2.456602
20
-0.500267
30
-17.429625
70
192
0
VERTEX
8
Meshes
10
2.358853
20
-0.490639
30
-17.429625
70
192
0
VERTEX
8
Meshes
10
2.264860
20
-0.462127
30
-17.429625
70
192
0
VERTEX
8
Meshes
10
2.178236
20
-0.415825
30
-17.429625
70
192
0
VERTEX
8
Meshes
10
2.102309
20
-0.353514
30
-17.429625
70
192
0
VERTEX
8
Meshes
10
2.039997
20
-0.277587
30
-17.429625
70
192
0
VERTEX
8
Meshes
10
1.993696
20
-0.190962
30
-17.429625
70
192
0
VERTEX
8
Meshes
10
1.965183
20
-0.096970
30
-17.429625
70
192
0
VERTEX
8
Meshes
10
1.955556
20
0.000780
30
-17.429625
70
192
0
VERTEX
8
Meshes
10
1.965184
20
0.098529
30
-17.429625
70
192
0
VERTEX
8
Meshes
10
1.993696
20
0.192522
30
-17.429625
70
192
0
VERTEX
8
Meshes
10
2.039998
20
0.279146
30
-17.429625
70
192
0
VERTEX
8
Meshes
10
2.102309
20
0.355073
30
-17.429625
70
192
0
VERTEX
8
Meshes
10
2.178236
20
0.417384
30
-17.429625
70
192
0
VERTEX
8
Meshes
10
2.264861
20
0.463686
30
-17.429625
70
192
0
VERTEX
8
Meshes
10
2.358854
20
0.492198
30
-17.429625
70
192
0
VERTEX
8
Meshes
10
2.456603
20
0.501825
30
-17.429625
70
192
0
VERTEX
8
Meshes
10
2.554352
20
0.492198
30
-17.429625
70
192
0
VERTEX
8
Meshes
10
2.648345
20
0.463685
30
-17.429625
70
192
0
VERTEX
8
Meshes
10
2.734969
20
0.417383
30
-17.429625
70
192
0
VERTEX
8
Meshes
10
2.810896
20
0.355072
30
2.626522
70
192
0
VERTEX
8
Meshes
10
2.873207
20
0.279145
30
2.626522
70
192
0
VERTEX
8
Meshes
10
2.919509
20
0.192520
30
2.626522
70
192
0
VERTEX
8
Meshes
10
2.948021
20
0.098527
30
2.626522
70
192
0
VERTEX
8
Meshes
10
2.957648
20
0.000778
30
2.626522
70
192
0
VERTEX
8
Meshes
10
2.948020
20
-0.096971
30
2.626522
70
192
0
VERTEX
8
Meshes
10
2.919508
20
-0.190963
30
2.626522
70
192
0
VERTEX
8
Meshes
10
2.873206
20
-0.277587
30
2.626522
70
192
0
VERTEX
8
Meshes
10
2.810895
20
-0.353514
30
2.626522
70
192
0
VERTEX
8
Meshes
10
2.734968
20
-0.415825
30
2.626522
70
192
0
VERTEX
8
Meshes
10
2.648344
20
-0.462127
30
2.626522
70
192
0
VERTEX
8
Meshes
10
2.554352
20
-0.490639
30
2.626522
70
192
0
VERTEX
8
Meshes
10
2.456603
20
-0.500267
30
2.626522
70
192
0
VERTEX
8
Meshes
10
2.358854
20
-0.490639
30
2.626522
70
192
0
VERTEX
8
Meshes
10
2.264861
20
-0.462127
30
2.626522
70
192
0
VERTEX
8
Meshes
10
2.178237
20
-0.415826
30
2.626522
70
192
0
VERTEX
8
Meshes
10
2.102310
20
-0.353515
30
2.626522
70
192
0
VERTEX
8
Meshes
10
2.039999
20
-0.277588
30
2.626522
70
192
0
VERTEX
8
Meshes
10
1.993697
20
-0.190964
30
2.626522
70
192
0
VERTEX
8
Meshes
10
1.965184
20
-0.096972
30
2.626522
70
192
0
VERTEX
8
Meshes
10
1.955556
20
0.000777
30
2.626522
70
192
0
VERTEX
8
Meshes
10
1.965183
20
0.098526
30
2.626522
70
192
0
VERTEX
8
Meshes
10
1.993695
20
0.192519
30
2.626522
70
192
0
VERTEX
8
Meshes
10
2.039996
20
0.279143
30
2.626522
70
192
0
VERTEX
8
Meshes
10
2.102307
20
0.355070
30
2.626522
70
192
0
VERTEX
8
Meshes
10
2.178233
20
0.417382
30
2.626522
70
192
0
VERTEX
8
Meshes
10
2.264857
20
0.463684
30
2.626522
70
192
0
VERTEX
8
Meshes
10
2.358850
20
0.492197
30
2.626522
70
192
0
VERTEX
8
Meshes
10
2.456599
20
0.501825
30
2.626522
70
192
0
VERTEX
8
Meshes
10
2.554348
20
0.492199
30
2.626522
70
192
0
VERTEX
8
Meshes
10
2.648340
20
0.463687
30
2.626522
70
192
0
VERTEX
8
Meshes
10
2.734965
20
0.417386
30
2.626522
70
192
0
VERTEX
8
Meshes
10
4.940575
20
-0.299290
30
1.533775
70
192
0
VERTEX
8
Meshes
10
5.307692
20
-0.299290
30
0.970877
70
192
0
VERTEX
8
Meshes
10
5.580483
20
-0.299290
30
0.328671
70
192
0
VERTEX
8
Meshes
10
5.748468
20
-0.299290
30
-0.368163
70
192
0
VERTEX
8
Meshes
10
5.805190
20
-0.299290
30
-1.092846
70
192
0
VERTEX
8
Meshes
10
5.748468
20
-0.299290
30
-1.817529
70
192
0
VERTEX
8
Meshes
10
5.580484
20
-0.299290
30
-2.514364
70
192
0
VERTEX
8
Meshes
10
5.307692
20
-0.299290
30
-3.156570
70
192
0
VERTEX
8
Meshes
10
4.940575
20
-0.299290
30
-3.719469
70
192
0
VERTEX
8
Meshes
10
4.493241
20
-0.299290
30
-4.181427
70
192
0
VERTEX
8
Meshes
10
3.982882
20
-0.299290
30
-4.524693
70
192
0
VERTEX
8
Meshes
10
2.853212
20
-0.299290
30
2.621758
70
192
0
VERTEX
8
Meshes
10
3.429116
20
-0.299290
30
2.550381
70
192
0
VERTEX
8
Meshes
10
3.982887
20
-0.299290
30
2.338998
70
192
0
VERTEX
8
Meshes
10
4.493246
20
-0.299290
30
1.995730
70
192
0
VERTEX
8
Meshes
10
4.209830
20
-0.299290
30
1.461993
70
192
0
VERTEX
8
Meshes
10
3.787667
20
-0.299290
30
1.745940
70
192
0
VERTEX
8
Meshes
10
3.329593
20
-0.299290
30
1.920794
70
192
0
VERTEX
8
Meshes
10
2.853211
20
-0.299290
30
1.979836
70
192
0
VERTEX
8
Meshes
10
3.787663
20
-0.299290
30
-3.931635
70
192
0
VERTEX
8
Meshes
10
4.209826
20
-0.299290
30
-3.647689
70
192
0
VERTEX
8
Meshes
10
4.579856
20
-0.299290
30
-3.265561
70
192
0
VERTEX
8
Meshes
10
4.883532
20
-0.299290
30
-2.799937
70
192
0
VERTEX
8
Meshes
10
5.109183
20
-0.299290
30
-2.268711
70
192
0
VERTEX
8
Meshes
10
5.248138
20
-0.299290
30
-1.692297
70
192
0
VERTEX
8
Meshes
10
5.295057
20
-0.299290
30
-1.092846
70
192
0
VERTEX
8
Meshes
10
5.248138
20
-0.299290
30
-0.493396
70
192
0
VERTEX
8
Meshes
10
5.109182
20
-0.299290
30
0.083018
70
192
0
VERTEX
8
Meshes
10
4.883532
20
-0.299290
30
0.614244
70
192
0
VERTEX
8
Meshes
10
4.579856
20
-0.299290
30
1.079868
70
192
0
VERTEX
8
Meshes
10
4.579856
20
0.302230
30
1.079868
70
192
0
VERTEX
8
Meshes
10
4.883532
20
0.302230
30
0.614244
70
192
0
VERTEX
8
Meshes
10
5.109182
20
0.302230
30
0.083018
70
192
0
VERTEX
8
Meshes
10
5.248138
20
0.302230
30
-0.493396
70
192
0
VERTEX
8
Meshes
10
5.295057
20
0.302230
30
-1.092846
70
192
0
VERTEX
8
Meshes
10
5.248138
20
0.302230
30
-1.692297
70
192
0
VERTEX
8
Meshes
10
5.109183
20
0.302230
30
-2.268711
70
192
0
VERTEX
8
Meshes
10
4.883532
20
0.302230
30
-2.799937
70
192
0
VERTEX
8
Meshes
10
4.579856
20
0.302230
30
-3.265561
70
192
0
VERTEX
8
Meshes
10
4.209826
20
0.302230
30
-3.647689
70
192
0
VERTEX
8
Meshes
10
3.787663
20
0.302230
30
-3.931635
70
192
0
VERTEX
8
Meshes
10
2.853211
20
0.302230
30
1.979836
70
192
0
VERTEX
8
Meshes
10
3.329593
20
0.302230
30
1.920794
70
192
0
VERTEX
8
Meshes
10
3.787667
20
0.302230
30
1.745940
70
192
0
VERTEX
8
Meshes
10
4.209830
20
0.302230
30
1.461993
70
192
0
VERTEX
8
Meshes
10
4.493246
20
0.302230
30
1.995730
70
192
0
VERTEX
8
Meshes
10
3.982887
20
0.302230
30
2.338998
70
192
0
VERTEX
8
Meshes
10
3.429116
20
0.302230
30
2.550381
70
192
0
VERTEX
8
Meshes
10
2.853212
20
0.302230
30
2.621758
70
192
0
VERTEX
8
Meshes
10
3.982882
20
0.302230
30
-4.524693
70
192
0
VERTEX
8
Meshes
10
4.493241
20
0.302230
30
-4.181427
70
192
0
VERTEX
8
Meshes
10
4.940575
20
0.302230
30
-3.719469
70
192
0
VERTEX
8
Meshes
10
5.307692
20
0.302230
30
-3.156570
70
192
0
VERTEX
8
Meshes
10
5.580484
20
0.302230
30
-2.514364
70
192
0
VERTEX
8
Meshes
10
5.748468
20
0.302230
30
-1.817529
70
192
0
VERTEX
8
Meshes
10
5.805190
20
0.302230
30
-1.092846
70
192
0
VERTEX
8
Meshes
10
5.748468
20
0.302230
30
-0.368163
70
192
0
VERTEX
8
Meshes
10
5.580483
20
0.302230
30
0.328671
70
192
0
VERTEX
8
Meshes
10
5.307692
20
0.302230
30
0.970877
70
192
0
VERTEX
8
Meshes
10
4.940575
20
0.302230
30
1.533775
70
192
0
VERTEX
8
Meshes
10
2.120516
20
0.000000
30
-16.111420
70
192
0
VERTEX
8
Meshes
10
2.770588
20
0.000000
30
-16.676001
70
192
0
VERTEX
8
Meshes
10
2.998862
20
0.000000
30
-17.341972
70
192
0
VERTEX
8
Meshes
10
0.993864
20
0.203848
30
-18.949768
70
192
0
VERTEX
8
Meshes
10
1.836421
20
0.376663
30
-18.572525
70
192
0
VERTEX
8
Meshes
10
2.399399
20
0.492133
30
-18.007944
70
192
0
VERTEX
8
Meshes
10
2.597091
20
0.532681
30
-17.341972
70
192
0
VERTEX
8
Meshes
10
2.399399
20
0.492133
30
-16.676001
70
192
0
VERTEX
8
Meshes
10
1.836421
20
0.376663
30
-16.111420
70
192
0
VERTEX
8
Meshes
10
0.993864
20
0.203848
30
-15.734178
70
192
0
VERTEX
8
Meshes
10
0.573807
20
0.353076
30
-15.734178
70
192
0
VERTEX
8
Meshes
10
1.060258
20
0.652399
30
-16.111420
70
192
0
VERTEX
8
Meshes
10
1.385294
20
0.852400
30
-16.676001
70
192
0
VERTEX
8
Meshes
10
1.499431
20
0.922631
30
-17.341972
70
192
0
VERTEX
8
Meshes
10
1.385294
20
0.852400
30
-18.007944
70
192
0
VERTEX
8
Meshes
10
1.060258
20
0.652399
30
-18.572525
70
192
0
VERTEX
8
Meshes
10
0.573808
20
0.353076
30
-18.949768
70
192
0
VERTEX
8
Meshes
10
-0.000000
20
0.407697
30
-18.949768
70
192
0
VERTEX
8
Meshes
10
-0.000000
20
0.753325
30
-18.572525
70
192
0
VERTEX
8
Meshes
10
-0.000000
20
0.984267
30
-18.007944
70
192
0
VERTEX
8
Meshes
10
-0.000000
20
1.065363
30
-17.341972
70
192
0
VERTEX
8
Meshes
10
-0.000000
20
0.984267
30
-16.676001
70
192
0
VERTEX
8
Meshes
10
-0.000000
20
0.753325
30
-16.111420
70
192
0
VERTEX
8
Meshes
10
-0.000000
20
0.407697
30
-15.734178
70
192
0
VERTEX
8
Meshes
10
-0.573808
20
0.353076
30
-15.734178
70
192
0
VERTEX
8
Meshes
10
-1.060258
20
0.652399
30
-16.111420
70
192
0
VERTEX
8
Meshes
10
-1.385294
20
0.852400
30
-16.676001
70
192
0
VERTEX
8
Meshes
10
-1.499431
20
0.922631
30
-17.341972
70
192
0
VERTEX
8
Meshes
10
-1.385294
20
0.852400
30
-18.007944
70
192
0
VERTEX
8
Meshes
10
-1.060258
20
0.652399
30
-18.572525
70
192
0
VERTEX
8
Meshes
10
-0.573808
20
0.353076
30
-18.949768
70
192
0
VERTEX
8
Meshes
10
-0.993864
20
0.203848
30
-18.949768
70
192
0
VERTEX
8
Meshes
10
-1.836421
20
0.376663
30
-18.572525
70
192
0
VERTEX
8
Meshes
10
-2.399399
20
0.492133
30
-18.007944
70
192
0
VERTEX
8
Meshes
10
-2.597091
20
0.532681
30
-17.341972
70
192
0
VERTEX
8
Meshes
10
-2.399399
20
0.492133
30
-16.676001
70
192
0
VERTEX
8
Meshes
10
-1.836421
20
0.376663
30
-16.111420
70
192
0
VERTEX
8
Meshes
10
-0.993864
20
0.203848
30
-15.734178
70
192
0
VERTEX
8
Meshes
10
0.000000
20
0.000000
30
-15.601707
70
192
0
VERTEX
8
Meshes
10
-1.147615
20
-0.000000
30
-15.734178
70
192
0
VERTEX
8
Meshes
10
-2.120516
20
0.000000
30
-16.111420
70
192
0
VERTEX
8
Meshes
10
-2.770588
20
0.000000
30
-16.676001
70
192
0
VERTEX
8
Meshes
10
-2.998862
20
-0.000000
30
-17.341972
70
192
0
VERTEX
8
Meshes
10
-2.770588
20
0.000000
30
-18.007944
70
192
0
VERTEX
8
Meshes
10
-2.120516
20
0.000000
30
-18.572525
70
192
0
VERTEX
8
Meshes
10
-1.147615
20
-0.000000
30
-18.949768
70
192
0
VERTEX
8
Meshes
10
-0.000000
20
-0.000000
30
-19.082237
70
192
0
VERTEX
8
Meshes
10
-0.993864
20
-0.203848
30
-18.949768
70
192
0
VERTEX
8
Meshes
10
-1.836421
20
-0.376663
30
-18.572525
70
192
0
VERTEX
8
Meshes
10
-2.399399
20
-0.492133
30
-18.007944
70
192
0
VERTEX
8
Meshes
10
-2.597091
20
-0.532681
30
-17.341972
70
192
0
VERTEX
8
Meshes
10
-2.399399
20
-0.492133
30
-16.676001
70
192
0
VERTEX
8
Meshes
10
-1.836421
20
-0.376663
30
-16.111420
70
192
0
VERTEX
8
Meshes
10
-0.993864
20
-0.203848
30
-15.734178
70
192
0
VERTEX
8
Meshes
10
-0.573807
20
-0.353076
30
-15.734178
70
192
0
VERTEX
8
Meshes
10
-1.060258
20
-0.652399
30
-16.111420
70
192
0
VERTEX
8
Meshes
10
-1.385294
20
-0.852400
30
-16.676001
70
192
0
VERTEX
8
Meshes
10
-1.499431
20
-0.922631
30
-17.341972
70
192
0
VERTEX
8
Meshes
10
-1.385294
20
-0.852400
30
-18.007944
70
192
0
VERTEX
8
Meshes
10
-1.060258
20
-0.652399
30
-18.572525
70
192
0
VERTEX
8
Meshes
10
-0.573807
20
-0.353076
30
-18.949768
70
192
0
VERTEX
8
Meshes
10
0.000000
20
-0.407697
30
-18.949768
70
192
0
VERTEX
8
Meshes
10
0.000000
20
-0.753325
30
-18.572525
70
192
0
VERTEX
8
Meshes
10
0.000000
20
-0.984267
30
-18.007944
70
192
0
VERTEX
8
Meshes
10
0.000000
20
-1.065363
30
-17.341972
70
192
0
VERTEX
8
Meshes
10
0.000000
20
-0.984267
30
-16.676001
70
192
0
VERTEX
8
Meshes
10
0.000000
20
-0.753325
30
-16.111420
70
192
0
VERTEX
8
Meshes
10
0.000000
20
-0.407697
30
-15.734178
70
192
0
VERTEX
8
Meshes
10
0.573807
20
-0.353076
30
-15.734178
70
192
0
VERTEX
8
Meshes
10
1.060258
20
-0.652399
30
-16.111420
70
192
0
VERTEX
8
Meshes
10
1.385294
20
-0.852400
30
-16.676001
70
192
0
VERTEX
8
Meshes
10
1.499431
20
-0.922631
30
-17.341972
70
192
0
VERTEX
8
Meshes
10
1.385294
20
-0.852400
30
-18.007944
70
192
0
VERTEX
8
Meshes
10
1.060258
20
-0.652399
30
-18.572525
70
192
0
VERTEX
8
Meshes
10
0.573808
20
-0.353076
30
-18.949768
70
192
0
VERTEX
8
Meshes
10
0.993864
20
-0.203848
30
-18.949768
70
192
0
VERTEX
8
Meshes
10
1.836421
20
-0.376663
30
-18.572525
70
192
0
VERTEX
8
Meshes
10
2.399399
20
-0.492133
30
-18.007944
70
192
0
VERTEX
8
Meshes
10
2.597091
20
-0.532681
30
-17.341972
70
192
0
VERTEX
8
Meshes
10
2.399399
20
-0.492133
30
-16.676001
70
192
0
VERTEX
8
Meshes
10
1.836421
20
-0.376663
30
-16.111420
70
192
0
VERTEX
8
Meshes
10
0.993864
20
-0.203848
30
-15.734178
70
192
0
VERTEX
8
Meshes
10
1.147615
20
0.000000
30
-15.734178
70
192
0
VERTEX
8
Meshes
10
2.770588
20
0.000000
30
-18.007944
70
192
0
VERTEX
8
Meshes
10
2.120516
20
0.000000
30
-18.572525
70
192
0
VERTEX
8
Meshes
10
1.147615
20
0.000000
30
-18.949768
70
192
0
VERTEX
8
Meshes
62
50
10
0.0
20
0.0
30
0.0
70
128
71
1
72
33
73
34
74
2
0
VERTEX
8
Meshes
62
50
10
0.0
20
0.0
30
0.0
70
128
71
2
72
34
73
35
74
3
0
VERTEX
8
Meshes
62
50
10
0.0
20
0.0
30
0.0
70
128
71
3
72
35
73
36
74
4
0
VERTEX
8
Meshes
62
50
10
0.0
20
0.0
30
0.0
70
128
71
4
72
36
73
37
74
5
0
VERTEX
8
Meshes
62
50
10
0.0
20
0.0
30
0.0
70
128
71
5
72
37
73
38
74
6
0
VERTEX
8
Meshes
62
50
10
0.0
20
0.0
30
0.0
70
128
71
6
72
38
73
39
74
7
0
VERTEX
8
Meshes
62
50
10
0.0
20
0.0
30
0.0
70
128
71
7
72
39
73
40
74
8
0
VERTEX
8
Meshes
62
50
10
0.0
20
0.0
30
0.0
70
128
71
8
72
40
73
41
74
9
0
VERTEX
8
Meshes
62
50
10
0.0
20
0.0
30
0.0
70
128
71
9
72
41
73
42
74
10
0
VERTEX
8
Meshes
62
50
10
0.0
20
0.0
30
0.0
70
128
71
10
72
42
73
43
74
11
0
VERTEX
8
Meshes
62
50
10
0.0
20
0.0
30
0.0
70
128
71
11
72
43
73
44
74
12
0
VERTEX
8
Meshes
62
50
10
0.0
20
0.0
30
0.0
70
128
71
12
72
44
73
45
74
13
0
VERTEX
8
Meshes
62
50
10
0.0
20
0.0
30
0.0
70
128
71
13
72
45
73
46
74
14
0
VERTEX
8
Meshes
62
50
10
0.0
20
0.0
30
0.0
70
128
71
14
72
46
73
47
74
15
0
VERTEX
8
Meshes
62
50
10
0.0
20
0.0
30
0.0
70
128
71
15
72
47
73
48
74
16
0
VERTEX
8
Meshes
62
50
10
0.0
20
0.0
30
0.0
70
128
71
16
72
48
73
49
74
17
0
VERTEX
8
Meshes
62
50
10
0.0
20
0.0
30
0.0
70
128
71
17
72
49
73
50
74
18
0
VERTEX
8
Meshes
62
50
10
0.0
20
0.0
30
0.0
70
128
71
18
72
50
73
51
74
19
0
VERTEX
8
Meshes
62
50
10
0.0
20
0.0
30
0.0
70
128
71
19
72
51
73
52
74
20
0
VERTEX
8
Meshes
62
50
10
0.0
20
0.0
30
0.0
70
128
71
20
72
52
73
53
74
21
0
VERTEX
8
Meshes
62
50
10
0.0
20
0.0
30
0.0
70
128
71
21
72
53
73
54
74
22
0
VERTEX
8
Meshes
62
50
10
0.0
20
0.0
30
0.0
70
128
71
22
72
54
73
55
74
23
0
VERTEX
8
Meshes
62
50
10
0.0
20
0.0
30
0.0
70
128
71
23
72
55
73
56
74
24
0
VERTEX
8
Meshes
62
50
10
0.0
20
0.0
30
0.0
70
128
71
24
72
56
73
57
74
25
0
VERTEX
8
Meshes
62
50
10
0.0
20
0.0
30
0.0
70
128
71
25
72
57
73
58
74
26
0
VERTEX
8
Meshes
62
50
10
0.0
20
0.0
30
0.0
70
128
71
26
72
58
73
59
74
27
0
VERTEX
8
Meshes
62
50
10
0.0
20
0.0
30
0.0
70
128
71
27
72
59
73
60
74
28
0
VERTEX
8
Meshes
62
50
10
0.0
20
0.0
30
0.0
70
128
71
28
72
60
73
61
74
29
0
VERTEX
8
Meshes
62
50
10
0.0
20
0.0
30
0.0
70
128
71
29
72
61
73
62
74
30
0
VERTEX
8
Meshes
62
50
10
0.0
20
0.0
30
0.0
70
128
71
30
72
62
73
63
74
31
0
VERTEX
8
Meshes
62
50
10
0.0
20
0.0
30
0.0
70
128
71
31
72
63
73
64
74
32
0
VERTEX
8
Meshes
62
50
10
0.0
20
0.0
30
0.0
70
128
71
33
72
1
73
32
74
64
0
VERTEX
8
Meshes
62
50
10
0.0
20
0.0
30
0.0
70
128
71
61
72
60
73
63
74
62
0
VERTEX
8
Meshes
62
50
10
0.0
20
0.0
30
0.0
70
128
71
60
72
59
73
64
74
63
0
VERTEX
8
Meshes
62
50
10
0.0
20
0.0
30
0.0
70
128
71
59
72
58
73
33
74
64
0
VERTEX
8
Meshes
62
50
10
0.0
20
0.0
30
0.0
70
128
71
58
72
57
73
34
74
33
0
VERTEX
8
Meshes
62
50
10
0.0
20
0.0
30
0.0
70
128
71
57
72
56
73
35
74
34
0
VERTEX
8
Meshes
62
50
10
0.0
20
0.0
30
0.0
70
128
71
56
72
55
73
36
74
35
0
VERTEX
8
Meshes
62
50
10
0.0
20
0.0
30
0.0
70
128
71
55
72
54
73
37
74
36
0
VERTEX
8
Meshes
62
50
10
0.0
20
0.0
30
0.0
70
128
71
54
72
53
73
38
74
37
0
VERTEX
8
Meshes
62
50
10
0.0
20
0.0
30
0.0
70
128
71
53
72
52
73
39
74
38
0
VERTEX
8
Meshes
62
50
10
0.0
20
0.0
30
0.0
70
128
71
52
72
51
73
40
74
39
0
VERTEX
8
Meshes
62
50
10
0.0
20
0.0
30
0.0
70
128
71
51
72
50
73
41
74
40
0
VERTEX
8
Meshes
62
50
10
0.0
20
0.0
30
0.0
70
128
71
50
72
49
73
42
74
41
0
VERTEX
8
Meshes
62
50
10
0.0
20
0.0
30
0.0
70
128
71
49
72
48
73
43
74
42
0
VERTEX
8
Meshes
62
50
10
0.0
20
0.0
30
0.0
70
128
71
48
72
47
73
44
74
43
0
VERTEX
8
Meshes
62
50
10
0.0
20
0.0
30
0.0
70
128
71
47
72
46
73
45
74
44
0
VERTEX
8
Meshes
62
50
10
0.0
20
0.0
30
0.0
70
128
71
79
72
65
73
94
74
80
0
VERTEX
8
Meshes
62
50
10
0.0
20
0.0
30
0.0
70
128
71
79
72
78
73
81
74
80
0
VERTEX
8
Meshes
62
50
10
0.0
20
0.0
30
0.0
70
128
71
78
72
77
73
82
74
81
0
VERTEX
8
Meshes
62
50
10
0.0
20
0.0
30
0.0
70
128
71
77
72
76
73
83
74
82
0
VERTEX
8
Meshes
62
50
10
0.0
20
0.0
30
0.0
70
128
71
74
72
75
73
84
74
85
0
VERTEX
8
Meshes
62
50
10
0.0
20
0.0
30
0.0
70
128
71
74
72
73
73
86
74
85
0
VERTEX
8
Meshes
62
50
10
0.0
20
0.0
30
0.0
70
128
71
73
72
72
73
87
74
86
0
VERTEX
8
Meshes
62
50
10
0.0
20
0.0
30
0.0
70
128
71
72
72
71
73
88
74
87
0
VERTEX
8
Meshes
62
50
10
0.0
20
0.0
30
0.0
70
128
71
71
72
70
73
89
74
88
0
VERTEX
8
Meshes
62
50
10
0.0
20
0.0
30
0.0
70
128
71
70
72
69
73
90
74
89
0
VERTEX
8
Meshes
62
50
10
0.0
20
0.0
30
0.0
70
128
71
68
72
69
73
90
74
91
0
VERTEX
8
Meshes
62
50
10
0.0
20
0.0
30
0.0
70
128
71
68
72
67
73
92
74
91
0
VERTEX
8
Meshes
62
50
10
0.0
20
0.0
30
0.0
70
128
71
67
72
66
73
93
74
92
0
VERTEX
8
Meshes
62
50
10
0.0
20
0.0
30
0.0
70
128
71
66
72
65
73
94
74
93
0
VERTEX
8
Meshes
62
50
10
0.0
20
0.0
30
0.0
70
128
71
93
72
94
73
95
74
96
0
VERTEX
8
Meshes
62
50
10
0.0
20
0.0
30
0.0
70
128
71
92
72
93
73
96
74
97
0
VERTEX
8
Meshes
62
50
10
0.0
20
0.0
30
0.0
70
128
71
91
72
92
73
97
74
98
0
VERTEX
8
Meshes
62
50
10
0.0
20
0.0
30
0.0
70
128
71
91
72
90
73
99
74
98
0
VERTEX
8
Meshes
62
50
10
0.0
20
0.0
30
0.0
70
128
71
89
72
90
73
99
74
100
0
VERTEX
8
Meshes
62
50
10
0.0
20
0.0
30
0.0
70
128
71
88
72
89
73
100
74
101
0
VERTEX
8
Meshes
62
50
10
0.0
20
0.0
30
0.0
70
128
71
87
72
88
73
101
74
102
0
VERTEX
8
Meshes
62
50
10
0.0
20
0.0
30
0.0
70
128
71
86
72
87
73
102
74
103
0
VERTEX
8
Meshes
62
50
10
0.0
20
0.0
30
0.0
70
128
71
85
72
86
73
103
74
104
0
VERTEX
8
Meshes
62
50
10
0.0
20
0.0
30
0.0
70
128
71
85
72
84
73
105
74
104
0
VERTEX
8
Meshes
62
50
10
0.0
20
0.0
30
0.0
70
128
71
84
72
75
73
114
74
105
0
VERTEX
8
Meshes
62
50
10
0.0
20
0.0
30
0.0
70
128
71
82
72
83
73
106
74
107
0
VERTEX
8
Meshes
62
50
10
0.0
20
0.0
30
0.0
70
128
71
81
72
82
73
107
74
108
0
VERTEX
8
Meshes
62
50
10
0.0
20
0.0
30
0.0
70
128
71
80
72
81
73
108
74
109
0
VERTEX
8
Meshes
62
50
10
0.0
20
0.0
30
0.0
70
128
71
80
72
94
73
95
74
109
0
VERTEX
8
Meshes
62
50
10
0.0
20
0.0
30
0.0
70
128
71
79
72
65
73
124
74
110
0
VERTEX
8
Meshes
62
50
10
0.0
20
0.0
30
0.0
70
128
71
79
72
78
73
111
74
110
0
VERTEX
8
Meshes
62
50
10
0.0
20
0.0
30
0.0
70
128
71
78
72
77
73
112
74
111
0
VERTEX
8
Meshes
62
50
10
0.0
20
0.0
30
0.0
70
128
71
77
72
76
73
113
74
112
0
VERTEX
8
Meshes
62
50
10
0.0
20
0.0
30
0.0
70
128
71
74
72
75
73
114
74
115
0
VERTEX
8
Meshes
62
50
10
0.0
20
0.0
30
0.0
70
128
71
74
72
73
73
116
74
115
0
VERTEX
8
Meshes
62
50
10
0.0
20
0.0
30
0.0
70
128
71
73
72
72
73
117
74
116
0
VERTEX
8
Meshes
62
50
10
0.0
20
0.0
30
0.0
70
128
71
72
72
71
73
118
74
117
0
VERTEX
8
Meshes
62
50
10
0.0
20
0.0
30
0.0
70
128
71
71
72
70
73
119
74
118
0
VERTEX
8
Meshes
62
50
10
0.0
20
0.0
30
0.0
70
128
71
70
72
69
73
120
74
119
0
VERTEX
8
Meshes
62
50
10
0.0
20
0.0
30
0.0
70
128
71
68
72
69
73
120
74
121
0
VERTEX
8
Meshes
62
50
10
0.0
20
0.0
30
0.0
70
128
71
68
72
67
73
122
74
121
0
VERTEX
8
Meshes
62
50
10
0.0
20
0.0
30
0.0
70
128
71
67
72
66
73
123
74
122
0
VERTEX
8
Meshes
62
50
10
0.0
20
0.0
30
0.0
70
128
71
66
72
65
73
124
74
123
0
VERTEX
8
Meshes
62
50
10
0.0
20
0.0
30
0.0
70
128
71
110
72
124
73
95
74
109
0
VERTEX
8
Meshes
62
50
10
0.0
20
0.0
30
0.0
70
128
71
110
72
111
73
108
74
109
0
VERTEX
8
Meshes
62
50
10
0.0
20
0.0
30
0.0
70
128
71
111
72
112
73
107
74
108
0
VERTEX
8
Meshes
62
50
10
0.0
20
0.0
30
0.0
70
128
71
112
72
113
73
106
74
107
0
VERTEX
8
Meshes
62
50
10
0.0
20
0.0
30
0.0
70
128
71
115
72
114
73
105
74
104
0
VERTEX
8
Meshes
62
50
10
0.0
20
0.0
30
0.0
70
128
71
115
72
116
73
103
74
104
0
VERTEX
8
Meshes
62
50
10
0.0
20
0.0
30
0.0
70
128
71
116
72
117
73
102
74
103
0
VERTEX
8
Meshes
62
50
10
0.0
20
0.0
30
0.0
70
128
71
117
72
118
73
101
74
102
0
VERTEX
8
Meshes
62
50
10
0.0
20
0.0
30
0.0
70
128
71
118
72
119
73
100
74
101
0
VERTEX
8
Meshes
62
50
10
0.0
20
0.0
30
0.0
70
128
71
119
72
120
73
99
74
100
0
VERTEX
8
Meshes
62
50
10
0.0
20
0.0
30
0.0
70
128
71
121
72
120
73
99
74
98
0
VERTEX
8
Meshes
62
50
10
0.0
20
0.0
30
0.0
70
128
71
121
72
122
73
97
74
98
0
VERTEX
8
Meshes
62
50
10
0.0
20
0.0
30
0.0
70
128
71
122
72
123
73
96
74
97
0
VERTEX
8
Meshes
62
50
10
0.0
20
0.0
30
0.0
70
128
71
123
72
124
73
95
74
96
0
VERTEX
8
Meshes
62
50
10
0.0
20
0.0
30
0.0
70
128
71
171
72
128
73
210
0
VERTEX
8
Meshes
62
50
10
0.0
20
0.0
30
0.0
70
128
71
210
72
128
73
129
74
209
0
VERTEX
8
Meshes
62
50
10
0.0
20
0.0
30
0.0
70
128
71
209
72
129
73
130
74
208
0
VERTEX
8
Meshes
62
50
10
0.0
20
0.0
30
0.0
70
128
71
208
72
130
73
131
74
127
0
VERTEX
8
Meshes
62
50
10
0.0
20
0.0
30
0.0
70
128
71
127
72
131
73
132
74
126
0
VERTEX
8
Meshes
62
50
10
0.0
20
0.0
30
0.0
70
128
71
133
72
125
73
126
74
132
0
VERTEX
8
Meshes
62
50
10
0.0
20
0.0
30
0.0
70
128
71
125
72
133
73
134
74
207
0
VERTEX
8
Meshes
62
50
10
0.0
20
0.0
30
0.0
70
128
71
207
72
134
73
163
0
VERTEX
8
Meshes
62
50
10
0.0
20
0.0
30
0.0
70
128
71
134
72
135
73
163
0
VERTEX
8
Meshes
62
50
10
0.0
20
0.0
30
0.0
70
128
71
133
72
136
73
135
74
134
0
VERTEX
8
Meshes
62
50
10
0.0
20
0.0
30
0.0
70
128
71
132
72
137
73
136
74
133
0
VERTEX
8
Meshes
62
50
10
0.0
20
0.0
30
0.0
70
128
71
131
72
138
73
137
74
132
0
VERTEX
8
Meshes
62
50
10
0.0
20
0.0
30
0.0
70
128
71
130
72
139
73
138
74
131
0
VERTEX
8
Meshes
62
50
10
0.0
20
0.0
30
0.0
70
128
71
129
72
140
73
139
74
130
0
VERTEX
8
Meshes
62
50
10
0.0
20
0.0
30
0.0
70
128
71
128
72
141
73
140
74
129
0
VERTEX
8
Meshes
62
50
10
0.0
20
0.0
30
0.0
70
128
71
171
72
141
73
128
0
VERTEX
8
Meshes
62
50
10
0.0
20
0.0
30
0.0
70
128
71
171
72
142
73
141
0
VERTEX
8
Meshes
62
50
10
0.0
20
0.0
30
0.0
70
128
71
141
72
142
73
143
74
140
0
VERTEX
8
Meshes
62
50
10
0.0
20
0.0
30
0.0
70
128
71
140
72
143
73
144
74
139
0
VERTEX
8
Meshes
62
50
10
0.0
20
0.0
30
0.0
70
128
71
139
72
144
73
145
74
138
0
VERTEX
8
Meshes
62
50
10
0.0
20
0.0
30
0.0
70
128
71
138
72
145
73
146
74
137
0
VERTEX
8
Meshes
62
50
10
0.0
20
0.0
30
0.0
70
128
71
137
72
146
73
147
74
136
0
VERTEX
8
Meshes
62
50
10
0.0
20
0.0
30
0.0
70
128
71
136
72
147
73
148
74
135
0
VERTEX
8
Meshes
62
50
10
0.0
20
0.0
30
0.0
70
128
71
135
72
148
73
163
0
VERTEX
8
Meshes
62
50
10
0.0
20
0.0
30
0.0
70
128
71
148
72
149
73
163
0
VERTEX
8
Meshes
62
50
10
0.0
20
0.0
30
0.0
70
128
71
147
72
150
73
149
74
148
0
VERTEX
8
Meshes
62
50
10
0.0
20
0.0
30
0.0
70
128
71
146
72
151
73
150
74
147
0
VERTEX
8
Meshes
62
50
10
0.0
20
0.0
30
0.0
70
128
71
145
72
152
73
151
74
146
0
VERTEX
8
Meshes
62
50
10
0.0
20
0.0
30
0.0
70
128
71
144
72
153
73
152
74
145
0
VERTEX
8
Meshes
62
50
10
0.0
20
0.0
30
0.0
70
128
71
143
72
154
73
153
74
144
0
VERTEX
8
Meshes
62
50
10
0.0
20
0.0
30
0.0
70
128
71
142
72
155
73
154
74
143
0
VERTEX
8
Meshes
62
50
10
0.0
20
0.0
30
0.0
70
128
71
171
72
155
73
142
0
VERTEX
8
Meshes
62
50
10
0.0
20
0.0
30
0.0
70
128
71
171
72
156
73
155
0
VERTEX
8
Meshes
62
50
10
0.0
20
0.0
30
0.0
70
128
71
155
72
156
73
157
74
154
0
VERTEX
8
Meshes
62
50
10
0.0
20
0.0
30
0.0
70
128
71
154
72
157
73
158
74
153
0
VERTEX
8
Meshes
62
50
10
0.0
20
0.0
30
0.0
70
128
71
153
72
158
73
159
74
152
0
VERTEX
8
Meshes
62
50
10
0.0
20
0.0
30
0.0
70
128
71
152
72
159
73
160
74
151
0
VERTEX
8
Meshes
62
50
10
0.0
20
0.0
30
0.0
70
128
71
151
72
160
73
161
74
150
0
VERTEX
8
Meshes
62
50
10
0.0
20
0.0
30
0.0
70
128
71
150
72
161
73
162
74
149
0
VERTEX
8
Meshes
62
50
10
0.0
20
0.0
30
0.0
70
128
71
149
72
162
73
163
0
VERTEX
8
Meshes
62
50
10
0.0
20
0.0
30
0.0
70
128
71
162
72
164
73
163
0
VERTEX
8
Meshes
62
50
10
0.0
20
0.0
30
0.0
70
128
71
161
72
165
73
164
74
162
0
VERTEX
8
Meshes
62
50
10
0.0
20
0.0
30
0.0
70
128
71
160
72
166
73
165
74
161
0
VERTEX
8
Meshes
62
50
10
0.0
20
0.0
30
0.0
70
128
71
159
72
167
73
166
74
160
0
VERTEX
8
Meshes
62
50
10
0.0
20
0.0
30
0.0
70
128
71
158
72
168
73
167
74
159
0
VERTEX
8
Meshes
62
50
10
0.0
20
0.0
30
0.0
70
128
71
157
72
169
73
168
74
158
0
VERTEX
8
Meshes
62
50
10
0.0
20
0.0
30
0.0
70
128
71
156
72
170
73
169
74
157
0
VERTEX
8
Meshes
62
50
10
0.0
20
0.0
30
0.0
70
128
71
171
72
170
73
156
0
VERTEX
8
Meshes
62
50
10
0.0
20
0.0
30
0.0
70
128
71
171
72
172
73
170
0
VERTEX
8
Meshes
62
50
10
0.0
20
0.0
30
0.0
70
128
71
170
72
172
73
173
74
169
0
VERTEX
8
Meshes
62
50
10
0.0
20
0.0
30
0.0
70
128
71
169
72
173
73
174
74
168
0
VERTEX
8
Meshes
62
50
10
0.0
20
0.0
30
0.0
70
128
71
168
72
174
73
175
74
167
0
VERTEX
8
Meshes
62
50
10
0.0
20
0.0
30
0.0
70
128
71
167
72
175
73
176
74
166
0
VERTEX
8
Meshes
62
50
10
0.0
20
0.0
30
0.0
70
128
71
166
72
176
73
177
74
165
0
VERTEX
8
Meshes
62
50
10
0.0
20
0.0
30
0.0
70
128
71
165
72
177
73
178
74
164
0
VERTEX
8
Meshes
62
50
10
0.0
20
0.0
30
0.0
70
128
71
164
72
178
73
163
0
VERTEX
8
Meshes
62
50
10
0.0
20
0.0
30
0.0
70
128
71
178
72
179
73
163
0
VERTEX
8
Meshes
62
50
10
0.0
20
0.0
30
0.0
70
128
71
177
72
180
73
179
74
178
0
VERTEX
8
Meshes
62
50
10
0.0
20
0.0
30
0.0
70
128
71
176
72
181
73
180
74
177
0
VERTEX
8
Meshes
62
50
10
0.0
20
0.0
30
0.0
70
128
71
175
72
182
73
181
74
176
0
VERTEX
8
Meshes
62
50
10
0.0
20
0.0
30
0.0
70
128
71
174
72
183
73
182
74
175
0
VERTEX
8
Meshes
62
50
10
0.0
20
0.0
30
0.0
70
128
71
173
72
184
73
183
74
174
0
VERTEX
8
Meshes
62
50
10
0.0
20
0.0
30
0.0
70
128
71
172
72
185
73
184
74
173
0
VERTEX
8
Meshes
62
50
10
0.0
20
0.0
30
0.0
70
128
71
171
72
185
73
172
0
VERTEX
8
Meshes
62
50
10
0.0
20
0.0
30
0.0
70
128
71
171
72
186
73
185
0
VERTEX
8
Meshes
62
50
10
0.0
20
0.0
30
0.0
70
128
71
185
72
186
73
187
74
184
0
VERTEX
8
Meshes
62
50
10
0.0
20
0.0
30
0.0
70
128
71
184
72
187
73
188
74
183
0
VERTEX
8
Meshes
62
50
10
0.0
20
0.0
30
0.0
70
128
71
183
72
188
73
189
74
182
0
VERTEX
8
Meshes
62
50
10
0.0
20
0.0
30
0.0
70
128
71
182
72
189
73
190
74
181
0
VERTEX
8
Meshes
62
50
10
0.0
20
0.0
30
0.0
70
128
71
181
72
190
73
191
74
180
0
VERTEX
8
Meshes
62
50
10
0.0
20
0.0
30
0.0
70
128
71
180
72
191
73
192
74
179
0
VERTEX
8
Meshes
62
50
10
0.0
20
0.0
30
0.0
70
128
71
179
72
192
73
163
0
VERTEX
8
Meshes
62
50
10
0.0
20
0.0
30
0.0
70
128
71
192
72
193
73
163
0
VERTEX
8
Meshes
62
50
10
0.0
20
0.0
30
0.0
70
128
71
191
72
194
73
193
74
192
0
VERTEX
8
Meshes
62
50
10
0.0
20
0.0
30
0.0
70
128
71
190
72
195
73
194
74
191
0
VERTEX
8
Meshes
62
50
10
0.0
20
0.0
30
0.0
70
128
71
189
72
196
73
195
74
190
0
VERTEX
8
Meshes
62
50
10
0.0
20
0.0
30
0.0
70
128
71
188
72
197
73
196
74
189
0
VERTEX
8
Meshes
62
50
10
0.0
20
0.0
30
0.0
70
128
71
187
72
198
73
197
74
188
0
VERTEX
8
Meshes
62
50
10
0.0
20
0.0
30
0.0
70
128
71
186
72
199
73
198
74
187
0
VERTEX
8
Meshes
62
50
10
0.0
20
0.0
30
0.0
70
128
71
171
72
199
73
186
0
VERTEX
8
Meshes
62
50
10
0.0
20
0.0
30
0.0
70
128
71
171
72
200
73
199
0
VERTEX
8
Meshes
62
50
10
0.0
20
0.0
30
0.0
70
128
71
199
72
200
73
201
74
198
0
VERTEX
8
Meshes
62
50
10
0.0
20
0.0
30
0.0
70
128
71
198
72
201
73
202
74
197
0
VERTEX
8
Meshes
62
50
10
0.0
20
0.0
30
0.0
70
128
71
197
72
202
73
203
74
196
0
VERTEX
8
Meshes
62
50
10
0.0
20
0.0
30
0.0
70
128
71
196
72
203
73
204
74
195
0
VERTEX
8
Meshes
62
50
10
0.0
20
0.0
30
0.0
70
128
71
195
72
204
73
205
74
194
0
VERTEX
8
Meshes
62
50
10
0.0
20
0.0
30
0.0
70
128
71
194
72
205
73
206
74
193
0
VERTEX
8
Meshes
62
50
10
0.0
20
0.0
30
0.0
70
128
71
193
72
206
73
163
0
VERTEX
8
Meshes
62
50
10
0.0
20
0.0
30
0.0
70
128
71
206
72
207
73
163
0
VERTEX
8
Meshes
62
50
10
0.0
20
0.0
30
0.0
70
128
71
205
72
125
73
207
74
206
0
VERTEX
8
Meshes
62
50
10
0.0
20
0.0
30
0.0
70
128
71
125
72
205
73
204
74
126
0
VERTEX
8
Meshes
62
50
10
0.0
20
0.0
30
0.0
70
128
71
203
72
127
73
126
74
204
0
VERTEX
8
Meshes
62
50
10
0.0
20
0.0
30
0.0
70
128
71
202
72
208
73
127
74
203
0
VERTEX
8
Meshes
62
50
10
0.0
20
0.0
30
0.0
70
128
71
201
72
209
73
208
74
202
0
VERTEX
8
Meshes
62
50
10
0.0
20
0.0
30
0.0
70
128
71
200
72
210
73
209
74
201
0
VERTEX
8
Meshes
62
50
10
0.0
20
0.0
30
0.0
70
128
71
171
72
210
73
200
0
SEQEND
0
ENDBLK
0
BLOCK
2
BlueNote
8
Meshes
70
64
10
0.0
20
0.0
30
0.0
3
BlueNote
0
POLYLINE
66
1
8
Meshes
62
170
70
64
71
210
72
200
0
VERTEX
8
Meshes
10
2.810895
20
0.355072
30
-17.429625
70
192
0
VERTEX
8
Meshes
10
2.873207
20
0.279145
30
-17.429625
70
192
0
VERTEX
8
Meshes
10
2.919508
20
0.192521
30
-17.429625
70
192
0
VERTEX
8
Meshes
10
2.948021
20
0.098528
30
-17.429625
70
192
0
VERTEX
8
Meshes
10
2.957648
20
0.000779
30
-17.429625
70
192
0
VERTEX
8
Meshes
10
2.948021
20
-0.096970
30
-17.429625
70
192
0
VERTEX
8
Meshes
10
2.919508
20
-0.190963
30
-17.429625
70
192
0
VERTEX
8
Meshes
10
2.873207
20
-0.277587
30
-17.429625
70
192
0
VERTEX
8
Meshes
10
2.810895
20
-0.353514
30
-17.429625
70
192
0
VERTEX
8
Meshes
10
2.734968
20
-0.415825
30
-17.429625
70
192
0
VERTEX
8
Meshes
10
2.648344
20
-0.462127
30
-17.429625
70
192
0
VERTEX
8
Meshes
10
2.554351
20
-0.490639
30
-17.429625
70
192
0
VERTEX
8
Meshes
10
2.456602
20
-0.500267
30
-17.429625
70
192
0
VERTEX
8
Meshes
10
2.358853
20
-0.490639
30
-17.429625
70
192
0
VERTEX
8
Meshes
10
2.264860
20
-0.462127
30
-17.429625
70
192
0
VERTEX
8
Meshes
10
2.178236
20
-0.415825
30
-17.429625
70
192
0
VERTEX
8
Meshes
10
2.102309
20
-0.353514
30
-17.429625
70
192
0
VERTEX
8
Meshes
10
2.039997
20
-0.277587
30
-17.429625
70
192
0
VERTEX
8
Meshes
10
1.993696
20
-0.190962
30
-17.429625
70
192
0
VERTEX
8
Meshes
10
1.965183
20
-0.096970
30
-17.429625
70
192
0
VERTEX
8
Meshes
10
1.955556
20
0.000780
30
-17.429625
70
192
0
VERTEX
8
Meshes
10
1.965184
20
0.098529
30
-17.429625
70
192
0
VERTEX
8
Meshes
10
1.993696
20
0.192522
30
-17.429625
70
192
0
VERTEX
8
Meshes
10
2.039998
20
0.279146
30
-17.429625
70
192
0
VERTEX
8
Meshes
10
2.102309
20
0.355073
30
-17.429625
70
192
0
VERTEX
8
Meshes
10
2.178236
20
0.417384
30
-17.429625
70
192
0
VERTEX
8
Meshes
10
2.264861
20
0.463686
30
-17.429625
70
192
0
VERTEX
8
Meshes
10
2.358854
20
0.492198
30
-17.429625
70
192
0
VERTEX
8
Meshes
10
2.456603
20
0.501825
30
-17.429625
70
192
0
VERTEX
8
Meshes
10
2.554352
20
0.492198
30
-17.429625
70
192
0
VERTEX
8
Meshes
10
2.648345
20
0.463685
30
-17.429625
70
192
0
VERTEX
8
Meshes
10
2.734969
20
0.417383
30
-17.429625
70
192
0
VERTEX
8
Meshes
10
2.810896
20
0.355072
30
2.626522
70
192
0
VERTEX
8
Meshes
10
2.873207
20
0.279145
30
2.626522
70
192
0
VERTEX
8
Meshes
10
2.919509
20
0.192520
30
2.626522
70
192
0
VERTEX
8
Meshes
10
2.948021
20
0.098527
30
2.626522
70
192
0
VERTEX
8
Meshes
10
2.957648
20
0.000778
30
2.626522
70
192
0
VERTEX
8
Meshes
10
2.948020
20
-0.096971
30
2.626522
70
192
0
VERTEX
8
Meshes
10
2.919508
20
-0.190963
30
2.626522
70
192
0
VERTEX
8
Meshes
10
2.873206
20
-0.277587
30
2.626522
70
192
0
VERTEX
8
Meshes
10
2.810895
20
-0.353514
30
2.626522
70
192
0
VERTEX
8
Meshes
10
2.734968
20
-0.415825
30
2.626522
70
192
0
VERTEX
8
Meshes
10
2.648344
20
-0.462127
30
2.626522
70
192
0
VERTEX
8
Meshes
10
2.554352
20
-0.490639
30
2.626522
70
192
0
VERTEX
8
Meshes
10
2.456603
20
-0.500267
30
2.626522
70
192
0
VERTEX
8
Meshes
10
2.358854
20
-0.490639
30
2.626522
70
192
0
VERTEX
8
Meshes
10
2.264861
20
-0.462127
30
2.626522
70
192
0
VERTEX
8
Meshes
10
2.178237
20
-0.415826
30
2.626522
70
192
0
VERTEX
8
Meshes
10
2.102310
20
-0.353515
30
2.626522
70
192
0
VERTEX
8
Meshes
10
2.039999
20
-0.277588
30
2.626522
70
192
0
VERTEX
8
Meshes
10
1.993697
20
-0.190964
30
2.626522
70
192
0
VERTEX
8
Meshes
10
1.965184
20
-0.096972
30
2.626522
70
192
0
VERTEX
8
Meshes
10
1.955556
20
0.000777
30
2.626522
70
192
0
VERTEX
8
Meshes
10
1.965183
20
0.098526
30
2.626522
70
192
0
VERTEX
8
Meshes
10
1.993695
20
0.192519
30
2.626522
70
192
0
VERTEX
8
Meshes
10
2.039996
20
0.279143
30
2.626522
70
192
0
VERTEX
8
Meshes
10
2.102307
20
0.355070
30
2.626522
70
192
0
VERTEX
8
Meshes
10
2.178233
20
0.417382
30
2.626522
70
192
0
VERTEX
8
Meshes
10
2.264857
20
0.463684
30
2.626522
70
192
0
VERTEX
8
Meshes
10
2.358850
20
0.492197
30
2.626522
70
192
0
VERTEX
8
Meshes
10
2.456599
20
0.501825
30
2.626522
70
192
0
VERTEX
8
Meshes
10
2.554348
20
0.492199
30
2.626522
70
192
0
VERTEX
8
Meshes
10
2.648340
20
0.463687
30
2.626522
70
192
0
VERTEX
8
Meshes
10
2.734965
20
0.417386
30
2.626522
70
192
0
VERTEX
8
Meshes
10
4.940575
20
-0.299290
30
1.533775
70
192
0
VERTEX
8
Meshes
10
5.307692
20
-0.299290
30
0.970877
70
192
0
VERTEX
8
Meshes
10
5.580483
20
-0.299290
30
0.328671
70
192
0
VERTEX
8
Meshes
10
5.748468
20
-0.299290
30
-0.368163
70
192
0
VERTEX
8
Meshes
10
5.805190
20
-0.299290
30
-1.092846
70
192
0
VERTEX
8
Meshes
10
5.748468
20
-0.299290
30
-1.817529
70
192
0
VERTEX
8
Meshes
10
5.580484
20
-0.299290
30
-2.514364
70
192
0
VERTEX
8
Meshes
10
5.307692
20
-0.299290
30
-3.156570
70
192
0
VERTEX
8
Meshes
10
4.940575
20
-0.299290
30
-3.719469
70
192
0
VERTEX
8
Meshes
10
4.493241
20
-0.299290
30
-4.181427
70
192
0
VERTEX
8
Meshes
10
3.982882
20
-0.299290
30
-4.524693
70
192
0
VERTEX
8
Meshes
10
2.853212
20
-0.299290
30
2.621758
70
192
0
VERTEX
8
Meshes
10
3.429116
20
-0.299290
30
2.550381
70
192
0
VERTEX
8
Meshes
10
3.982887
20
-0.299290
30
2.338998
70
192
0
VERTEX
8
Meshes
10
4.493246
20
-0.299290
30
1.995730
70
192
0
VERTEX
8
Meshes
10
4.209830
20
-0.299290
30
1.461993
70
192
0
VERTEX
8
Meshes
10
3.787667
20
-0.299290
30
1.745940
70
192
0
VERTEX
8
Meshes
10
3.329593
20
-0.299290
30
1.920794
70
192
0
VERTEX
8
Meshes
10
2.853211
20
-0.299290
30
1.979836
70
192
0
VERTEX
8
Meshes
10
3.787663
20
-0.299290
30
-3.931635
70
192
0
VERTEX
8
Meshes
10
4.209826
20
-0.299290
30
-3.647689
70
192
0
VERTEX
8
Meshes
10
4.579856
20
-0.299290
30
-3.265561
70
192
0
VERTEX
8
Meshes
10
4.883532
20
-0.299290
30
-2.799937
70
192
0
VERTEX
8
Meshes
10
5.109183
20
-0.299290
30
-2.268711
70
192
0
VERTEX
8
Meshes
10
5.248138
20
-0.299290
30
-1.692297
70
192
0
VERTEX
8
Meshes
10
5.295057
20
-0.299290
30
-1.092846
70
192
0
VERTEX
8
Meshes
10
5.248138
20
-0.299290
30
-0.493396
70
192
0
VERTEX
8
Meshes
10
5.109182
20
-0.299290
30
0.083018
70
192
0
VERTEX
8
Meshes
10
4.883532
20
-0.299290
30
0.614244
70
192
0
VERTEX
8
Meshes
10
4.579856
20
-0.299290
30
1.079868
70
192
0
VERTEX
8
Meshes
10
4.579856
20
0.302230
30
1.079868
70
192
0
VERTEX
8
Meshes
10
4.883532
20
0.302230
30
0.614244
70
192
0
VERTEX
8
Meshes
10
5.109182
20
0.302230
30
0.083018
70
192
0
VERTEX
8
Meshes
10
5.248138
20
0.302230
30
-0.493396
70
192
0
VERTEX
8
Meshes
10
5.295057
20
0.302230
30
-1.092846
70
192
0
VERTEX
8
Meshes
10
5.248138
20
0.302230
30
-1.692297
70
192
0
VERTEX
8
Meshes
10
5.109183
20
0.302230
30
-2.268711
70
192
0
VERTEX
8
Meshes
10
4.883532
20
0.302230
30
-2.799937
70
192
0
VERTEX
8
Meshes
10
4.579856
20
0.302230
30
-3.265561
70
192
0
VERTEX
8
Meshes
10
4.209826
20
0.302230
30
-3.647689
70
192
0
VERTEX
8
Meshes
10
3.787663
20
0.302230
30
-3.931635
70
192
0
VERTEX
8
Meshes
10
2.853211
20
0.302230
30
1.979836
70
192
0
VERTEX
8
Meshes
10
3.329593
20
0.302230
30
1.920794
70
192
0
VERTEX
8
Meshes
10
3.787667
20
0.302230
30
1.745940
70
192
0
VERTEX
8
Meshes
10
4.209830
20
0.302230
30
1.461993
70
192
0
VERTEX
8
Meshes
10
4.493246
20
0.302230
30
1.995730
70
192
0
VERTEX
8
Meshes
10
3.982887
20
0.302230
30
2.338998
70
192
0
VERTEX
8
Meshes
10
3.429116
20
0.302230
30
2.550381
70
192
0
VERTEX
8
Meshes
10
2.853212
20
0.302230
30
2.621758
70
192
0
VERTEX
8
Meshes
10
3.982882
20
0.302230
30
-4.524693
70
192
0
VERTEX
8
Meshes
10
4.493241
20
0.302230
30
-4.181427
70
192
0
VERTEX
8
Meshes
10
4.940575
20
0.302230
30
-3.719469
70
192
0
VERTEX
8
Meshes
10
5.307692
20
0.302230
30
-3.156570
70
192
0
VERTEX
8
Meshes
10
5.580484
20
0.302230
30
-2.514364
70
192
0
VERTEX
8
Meshes
10
5.748468
20
0.302230
30
-1.817529
70
192
0
VERTEX
8
Meshes
10
5.805190
20
0.302230
30
-1.092846
70
192
0
VERTEX
8
Meshes
10
5.748468
20
0.302230
30
-0.368163
70
192
0
VERTEX
8
Meshes
10
5.580483
20
0.302230
30
0.328671
70
192
0
VERTEX
8
Meshes
10
5.307692
20
0.302230
30
0.970877
70
192
0
VERTEX
8
Meshes
10
4.940575
20
0.302230
30
1.533775
70
192
0
VERTEX
8
Meshes
10
2.120516
20
0.000000
30
-16.111420
70
192
0
VERTEX
8
Meshes
10
2.770588
20
0.000000
30
-16.676001
70
192
0
VERTEX
8
Meshes
10
2.998862
20
0.000000
30
-17.341972
70
192
0
VERTEX
8
Meshes
10
0.993864
20
0.203848
30
-18.949768
70
192
0
VERTEX
8
Meshes
10
1.836421
20
0.376663
30
-18.572525
70
192
0
VERTEX
8
Meshes
10
2.399399
20
0.492133
30
-18.007944
70
192
0
VERTEX
8
Meshes
10
2.597091
20
0.532681
30
-17.341972
70
192
0
VERTEX
8
Meshes
10
2.399399
20
0.492133
30
-16.676001
70
192
0
VERTEX
8
Meshes
10
1.836421
20
0.376663
30
-16.111420
70
192
0
VERTEX
8
Meshes
10
0.993864
20
0.203848
30
-15.734178
70
192
0
VERTEX
8
Meshes
10
0.573807
20
0.353076
30
-15.734178
70
192
0
VERTEX
8
Meshes
10
1.060258
20
0.652399
30
-16.111420
70
192
0
VERTEX
8
Meshes
10
1.385294
20
0.852400
30
-16.676001
70
192
0
VERTEX
8
Meshes
10
1.499431
20
0.922631
30
-17.341972
70
192
0
VERTEX
8
Meshes
10
1.385294
20
0.852400
30
-18.007944
70
192
0
VERTEX
8
Meshes
10
1.060258
20
0.652399
30
-18.572525
70
192
0
VERTEX
8
Meshes
10
0.573808
20
0.353076
30
-18.949768
70
192
0
VERTEX
8
Meshes
10
-0.000000
20
0.407697
30
-18.949768
70
192
0
VERTEX
8
Meshes
10
-0.000000
20
0.753325
30
-18.572525
70
192
0
VERTEX
8
Meshes
10
-0.000000
20
0.984267
30
-18.007944
70
192
0
VERTEX
8
Meshes
10
-0.000000
20
1.065363
30
-17.341972
70
192
0
VERTEX
8
Meshes
10
-0.000000
20
0.984267
30
-16.676001
70
192
0
VERTEX
8
Meshes
10
-0.000000
20
0.753325
30
-16.111420
70
192
0
VERTEX
8
Meshes
10
-0.000000
20
0.407697
30
-15.734178
70
192
0
VERTEX
8
Meshes
10
-0.573808
20
0.353076
30
-15.734178
70
192
0
VERTEX
8
Meshes
10
-1.060258
20
0.652399
30
-16.111420
70
192
0
VERTEX
8
Meshes
10
-1.385294
20
0.852400
30
-16.676001
70
192
0
VERTEX
8
Meshes
10
-1.499431
20
0.922631
30
-17.341972
70
192
0
VERTEX
8
Meshes
10
-1.385294
20
0.852400
30
-18.007944
70
192
0
VERTEX
8
Meshes
10
-1.060258
20
0.652399
30
-18.572525
70
192
0
VERTEX
8
Meshes
10
-0.573808
20
0.353076
30
-18.949768
70
192
0
VERTEX
8
Meshes
10
-0.993864
20
0.203848
30
-18.949768
70
192
0
VERTEX
8
Meshes
10
-1.836421
20
0.376663
30
-18.572525
70
192
0
VERTEX
8
Meshes
10
-2.399399
20
0.492133
30
-18.007944
70
192
0
VERTEX
8
Meshes
10
-2.597091
20
0.532681
30
-17.341972
70
192
0
VERTEX
8
Meshes
10
-2.399399
20
0.492133
30
-16.676001
70
192
0
VERTEX
8
Meshes
10
-1.836421
20
0.376663
30
-16.111420
70
192
0
VERTEX
8
Meshes
10
-0.993864
20
0.203848
30
-15.734178
70
192
0
VERTEX
8
Meshes
10
0.000000
20
0.000000
30
-15.601707
70
192
0
VERTEX
8
Meshes
10
-1.147615
20
-0.000000
30
-15.734178
70
192
0
VERTEX
8
Meshes
10
-2.120516
20
0.000000
30
-16.111420
70
192
0
VERTEX
8
Meshes
10
-2.770588
20
0.000000
30
-16.676001
70
192
0
VERTEX
8
Meshes
10
-2.998862
20
-0.000000
30
-17.341972
70
192
0
VERTEX
8
Meshes
10
-2.770588
20
0.000000
30
-18.007944
70
192
0
VERTEX
8
Meshes
10
-2.120516
20
0.000000
30
-18.572525
70
192
0
VERTEX
8
Meshes
10
-1.147615
20
-0.000000
30
-18.949768
70
192
0
VERTEX
8
Meshes
10
-0.000000
20
-0.000000
30
-19.082237
70
192
0
VERTEX
8
Meshes
10
-0.993864
20
-0.203848
30
-18.949768
70
192
0
VERTEX
8
Meshes
10
-1.836421
20
-0.376663
30
-18.572525
70
192
0
VERTEX
8
Meshes
10
-2.399399
20
-0.492133
30
-18.007944
70
192
0
VERTEX
8
Meshes
10
-2.597091
20
-0.532681
30
-17.341972
70
192
0
VERTEX
8
Meshes
10
-2.399399
20
-0.492133
30
-16.676001
70
192
0
VERTEX
8
Meshes
10
-1.836421
20
-0.376663
30
-16.111420
70
192
0
VERTEX
8
Meshes
10
-0.993864
20
-0.203848
30
-15.734178
70
192
0
VERTEX
8
Meshes
10
-0.573807
20
-0.353076
30
-15.734178
70
192
0
VERTEX
8
Meshes
10
-1.060258
20
-0.652399
30
-16.111420
70
192
0
VERTEX
8
Meshes
10
-1.385294
20
-0.852400
30
-16.676001
70
192
0
VERTEX
8
Meshes
10
-1.499431
20
-0.922631
30
-17.341972
70
192
0
VERTEX
8
Meshes
10
-1.385294
20
-0.852400
30
-18.007944
70
192
0
VERTEX
8
Meshes
10
-1.060258
20
-0.652399
30
-18.572525
70
192
0
VERTEX
8
Meshes
10
-0.573807
20
-0.353076
30
-18.949768
70
192
0
VERTEX
8
Meshes
10
0.000000
20
-0.407697
30
-18.949768
70
192
0
VERTEX
8
Meshes
10
0.000000
20
-0.753325
30
-18.572525
70
192
0
VERTEX
8
Meshes
10
0.000000
20
-0.984267
30
-18.007944
70
192
0
VERTEX
8
Meshes
10
0.000000
20
-1.065363
30
-17.341972
70
192
0
VERTEX
8
Meshes
10
0.000000
20
-0.984267
30
-16.676001
70
192
0
VERTEX
8
Meshes
10
0.000000
20
-0.753325
30
-16.111420
70
192
0
VERTEX
8
Meshes
10
0.000000
20
-0.407697
30
-15.734178
70
192
0
VERTEX
8
Meshes
10
0.573807
20
-0.353076
30
-15.734178
70
192
0
VERTEX
8
Meshes
10
1.060258
20
-0.652399
30
-16.111420
70
192
0
VERTEX
8
Meshes
10
1.385294
20
-0.852400
30
-16.676001
70
192
0
VERTEX
8
Meshes
10
1.499431
20
-0.922631
30
-17.341972
70
192
0
VERTEX
8
Meshes
10
1.385294
20
-0.852400
30
-18.007944
70
192
0
VERTEX
8
Meshes
10
1.060258
20
-0.652399
30
-18.572525
70
192
0
VERTEX
8
Meshes
10
0.573808
20
-0.353076
30
-18.949768
70
192
0
VERTEX
8
Meshes
10
0.993864
20
-0.203848
30
-18.949768
70
192
0
VERTEX
8
Meshes
10
1.836421
20
-0.376663
30
-18.572525
70
192
0
VERTEX
8
Meshes
10
2.399399
20
-0.492133
30
-18.007944
70
192
0
VERTEX
8
Meshes
10
2.597091
20
-0.532681
30
-17.341972
70
192
0
VERTEX
8
Meshes
10
2.399399
20
-0.492133
30
-16.676001
70
192
0
VERTEX
8
Meshes
10
1.836421
20
-0.376663
30
-16.111420
70
192
0
VERTEX
8
Meshes
10
0.993864
20
-0.203848
30
-15.734178
70
192
0
VERTEX
8
Meshes
10
1.147615
20
0.000000
30
-15.734178
70
192
0
VERTEX
8
Meshes
10
2.770588
20
0.000000
30
-18.007944
70
192
0
VERTEX
8
Meshes
10
2.120516
20
0.000000
30
-18.572525
70
192
0
VERTEX
8
Meshes
10
1.147615
20
0.000000
30
-18.949768
70
192
0
VERTEX
8
Meshes
62
170
10
0.0
20
0.0
30
0.0
70
128
71
1
72
33
73
34
74
2
0
VERTEX
8
Meshes
62
170
10
0.0
20
0.0
30
0.0
70
128
71
2
72
34
73
35
74
3
0
VERTEX
8
Meshes
62
170
10
0.0
20
0.0
30
0.0
70
128
71
3
72
35
73
36
74
4
0
VERTEX
8
Meshes
62
170
10
0.0
20
0.0
30
0.0
70
128
71
4
72
36
73
37
74
5
0
VERTEX
8
Meshes
62
170
10
0.0
20
0.0
30
0.0
70
128
71
5
72
37
73
38
74
6
0
VERTEX
8
Meshes
62
170
10
0.0
20
0.0
30
0.0
70
128
71
6
72
38
73
39
74
7
0
VERTEX
8
Meshes
62
170
10
0.0
20
0.0
30
0.0
70
128
71
7
72
39
73
40
74
8
0
VERTEX
8
Meshes
62
170
10
0.0
20
0.0
30
0.0
70
128
71
8
72
40
73
41
74
9
0
VERTEX
8
Meshes
62
170
10
0.0
20
0.0
30
0.0
70
128
71
9
72
41
73
42
74
10
0
VERTEX
8
Meshes
62
170
10
0.0
20
0.0
30
0.0
70
128
71
10
72
42
73
43
74
11
0
VERTEX
8
Meshes
62
170
10
0.0
20
0.0
30
0.0
70
128
71
11
72
43
73
44
74
12
0
VERTEX
8
Meshes
62
170
10
0.0
20
0.0
30
0.0
70
128
71
12
72
44
73
45
74
13
0
VERTEX
8
Meshes
62
170
10
0.0
20
0.0
30
0.0
70
128
71
13
72
45
73
46
74
14
0
VERTEX
8
Meshes
62
170
10
0.0
20
0.0
30
0.0
70
128
71
14
72
46
73
47
74
15
0
VERTEX
8
Meshes
62
170
10
0.0
20
0.0
30
0.0
70
128
71
15
72
47
73
48
74
16
0
VERTEX
8
Meshes
62
170
10
0.0
20
0.0
30
0.0
70
128
71
16
72
48
73
49
74
17
0
VERTEX
8
Meshes
62
170
10
0.0
20
0.0
30
0.0
70
128
71
17
72
49
73
50
74
18
0
VERTEX
8
Meshes
62
170
10
0.0
20
0.0
30
0.0
70
128
71
18
72
50
73
51
74
19
0
VERTEX
8
Meshes
62
170
10
0.0
20
0.0
30
0.0
70
128
71
19
72
51
73
52
74
20
0
VERTEX
8
Meshes
62
170
10
0.0
20
0.0
30
0.0
70
128
71
20
72
52
73
53
74
21
0
VERTEX
8
Meshes
62
170
10
0.0
20
0.0
30
0.0
70
128
71
21
72
53
73
54
74
22
0
VERTEX
8
Meshes
62
170
10
0.0
20
0.0
30
0.0
70
128
71
22
72
54
73
55
74
23
0
VERTEX
8
Meshes
62
170
10
0.0
20
0.0
30
0.0
70
128
71
23
72
55
73
56
74
24
0
VERTEX
8
Meshes
62
170
10
0.0
20
0.0
30
0.0
70
128
71
24
72
56
73
57
74
25
0
VERTEX
8
Meshes
62
170
10
0.0
20
0.0
30
0.0
70
128
71
25
72
57
73
58
74
26
0
VERTEX
8
Meshes
62
170
10
0.0
20
0.0
30
0.0
70
128
71
26
72
58
73
59
74
27
0
VERTEX
8
Meshes
62
170
10
0.0
20
0.0
30
0.0
70
128
71
27
72
59
73
60
74
28
0
VERTEX
8
Meshes
62
170
10
0.0
20
0.0
30
0.0
70
128
71
28
72
60
73
61
74
29
0
VERTEX
8
Meshes
62
170
10
0.0
20
0.0
30
0.0
70
128
71
29
72
61
73
62
74
30
0
VERTEX
8
Meshes
62
170
10
0.0
20
0.0
30
0.0
70
128
71
30
72
62
73
63
74
31
0
VERTEX
8
Meshes
62
170
10
0.0
20
0.0
30
0.0
70
128
71
31
72
63
73
64
74
32
0
VERTEX
8
Meshes
62
170
10
0.0
20
0.0
30
0.0
70
128
71
33
72
1
73
32
74
64
0
VERTEX
8
Meshes
62
170
10
0.0
20
0.0
30
0.0
70
128
71
61
72
60
73
63
74
62
0
VERTEX
8
Meshes
62
170
10
0.0
20
0.0
30
0.0
70
128
71
60
72
59
73
64
74
63
0
VERTEX
8
Meshes
62
170
10
0.0
20
0.0
30
0.0
70
128
71
59
72
58
73
33
74
64
0
VERTEX
8
Meshes
62
170
10
0.0
20
0.0
30
0.0
70
128
71
58
72
57
73
34
74
33
0
VERTEX
8
Meshes
62
170
10
0.0
20
0.0
30
0.0
70
128
71
57
72
56
73
35
74
34
0
VERTEX
8
Meshes
62
170
10
0.0
20
0.0
30
0.0
70
128
71
56
72
55
73
36
74
35
0
VERTEX
8
Meshes
62
170
10
0.0
20
0.0
30
0.0
70
128
71
55
72
54
73
37
74
36
0
VERTEX
8
Meshes
62
170
10
0.0
20
0.0
30
0.0
70
128
71
54
72
53
73
38
74
37
0
VERTEX
8
Meshes
62
170
10
0.0
20
0.0
30
0.0
70
128
71
53
72
52
73
39
74
38
0
VERTEX
8
Meshes
62
170
10
0.0
20
0.0
30
0.0
70
128
71
52
72
51
73
40
74
39
0
VERTEX
8
Meshes
62
170
10
0.0
20
0.0
30
0.0
70
128
71
51
72
50
73
41
74
40
0
VERTEX
8
Meshes
62
170
10
0.0
20
0.0
30
0.0
70
128
71
50
72
49
73
42
74
41
0
VERTEX
8
Meshes
62
170
10
0.0
20
0.0
30
0.0
70
128
71
49
72
48
73
43
74
42
0
VERTEX
8
Meshes
62
170
10
0.0
20
0.0
30
0.0
70
128
71
48
72
47
73
44
74
43
0
VERTEX
8
Meshes
62
170
10
0.0
20
0.0
30
0.0
70
128
71
47
72
46
73
45
74
44
0
VERTEX
8
Meshes
62
170
10
0.0
20
0.0
30
0.0
70
128
71
79
72
65
73
94
74
80
0
VERTEX
8
Meshes
62
170
10
0.0
20
0.0
30
0.0
70
128
71
79
72
78
73
81
74
80
0
VERTEX
8
Meshes
62
170
10
0.0
20
0.0
30
0.0
70
128
71
78
72
77
73
82
74
81
0
VERTEX
8
Meshes
62
170
10
0.0
20
0.0
30
0.0
70
128
71
77
72
76
73
83
74
82
0
VERTEX
8
Meshes
62
170
10
0.0
20
0.0
30
0.0
70
128
71
74
72
75
73
84
74
85
0
VERTEX
8
Meshes
62
170
10
0.0
20
0.0
30
0.0
70
128
71
74
72
73
73
86
74
85
0
VERTEX
8
Meshes
62
170
10
0.0
20
0.0
30
0.0
70
128
71
73
72
72
73
87
74
86
0
VERTEX
8
Meshes
62
170
10
0.0
20
0.0
30
0.0
70
128
71
72
72
71
73
88
74
87
0
VERTEX
8
Meshes
62
170
10
0.0
20
0.0
30
0.0
70
128
71
71
72
70
73
89
74
88
0
VERTEX
8
Meshes
62
170
10
0.0
20
0.0
30
0.0
70
128
71
70
72
69
73
90
74
89
0
VERTEX
8
Meshes
62
170
10
0.0
20
0.0
30
0.0
70
128
71
68
72
69
73
90
74
91
0
VERTEX
8
Meshes
62
170
10
0.0
20
0.0
30
0.0
70
128
71
68
72
67
73
92
74
91
0
VERTEX
8
Meshes
62
170
10
0.0
20
0.0
30
0.0
70
128
71
67
72
66
73
93
74
92
0
VERTEX
8
Meshes
62
170
10
0.0
20
0.0
30
0.0
70
128
71
66
72
65
73
94
74
93
0
VERTEX
8
Meshes
62
170
10
0.0
20
0.0
30
0.0
70
128
71
93
72
94
73
95
74
96
0
VERTEX
8
Meshes
62
170
10
0.0
20
0.0
30
0.0
70
128
71
92
72
93
73
96
74
97
0
VERTEX
8
Meshes
62
170
10
0.0
20
0.0
30
0.0
70
128
71
91
72
92
73
97
74
98
0
VERTEX
8
Meshes
62
170
10
0.0
20
0.0
30
0.0
70
128
71
91
72
90
73
99
74
98
0
VERTEX
8
Meshes
62
170
10
0.0
20
0.0
30
0.0
70
128
71
89
72
90
73
99
74
100
0
VERTEX
8
Meshes
62
170
10
0.0
20
0.0
30
0.0
70
128
71
88
72
89
73
100
74
101
0
VERTEX
8
Meshes
62
170
10
0.0
20
0.0
30
0.0
70
128
71
87
72
88
73
101
74
102
0
VERTEX
8
Meshes
62
170
10
0.0
20
0.0
30
0.0
70
128
71
86
72
87
73
102
74
103
0
VERTEX
8
Meshes
62
170
10
0.0
20
0.0
30
0.0
70
128
71
85
72
86
73
103
74
104
0
VERTEX
8
Meshes
62
170
10
0.0
20
0.0
30
0.0
70
128
71
85
72
84
73
105
74
104
0
VERTEX
8
Meshes
62
170
10
0.0
20
0.0
30
0.0
70
128
71
84
72
75
73
114
74
105
0
VERTEX
8
Meshes
62
170
10
0.0
20
0.0
30
0.0
70
128
71
82
72
83
73
106
74
107
0
VERTEX
8
Meshes
62
170
10
0.0
20
0.0
30
0.0
70
128
71
81
72
82
73
107
74
108
0
VERTEX
8
Meshes
62
170
10
0.0
20
0.0
30
0.0
70
128
71
80
72
81
73
108
74
109
0
VERTEX
8
Meshes
62
170
10
0.0
20
0.0
30
0.0
70
128
71
80
72
94
73
95
74
109
0
VERTEX
8
Meshes
62
170
10
0.0
20
0.0
30
0.0
70
128
71
79
72
65
73
124
74
110
0
VERTEX
8
Meshes
62
170
10
0.0
20
0.0
30
0.0
70
128
71
79
72
78
73
111
74
110
0
VERTEX
8
Meshes
62
170
10
0.0
20
0.0
30
0.0
70
128
71
78
72
77
73
112
74
111
0
VERTEX
8
Meshes
62
170
10
0.0
20
0.0
30
0.0
70
128
71
77
72
76
73
113
74
112
0
VERTEX
8
Meshes
62
170
10
0.0
20
0.0
30
0.0
70
128
71
74
72
75
73
114
74
115
0
VERTEX
8
Meshes
62
170
10
0.0
20
0.0
30
0.0
70
128
71
74
72
73
73
116
74
115
0
VERTEX
8
Meshes
62
170
10
0.0
20
0.0
30
0.0
70
128
71
73
72
72
73
117
74
116
0
VERTEX
8
Meshes
62
170
10
0.0
20
0.0
30
0.0
70
128
71
72
72
71
73
118
74
117
0
VERTEX
8
Meshes
62
170
10
0.0
20
0.0
30
0.0
70
128
71
71
72
70
73
119
74
118
0
VERTEX
8
Meshes
62
170
10
0.0
20
0.0
30
0.0
70
128
71
70
72
69
73
120
74
119
0
VERTEX
8
Meshes
62
170
10
0.0
20
0.0
30
0.0
70
128
71
68
72
69
73
120
74
121
0
VERTEX
8
Meshes
62
170
10
0.0
20
0.0
30
0.0
70
128
71
68
72
67
73
122
74
121
0
VERTEX
8
Meshes
62
170
10
0.0
20
0.0
30
0.0
70
128
71
67
72
66
73
123
74
122
0
VERTEX
8
Meshes
62
170
10
0.0
20
0.0
30
0.0
70
128
71
66
72
65
73
124
74
123
0
VERTEX
8
Meshes
62
170
10
0.0
20
0.0
30
0.0
70
128
71
110
72
124
73
95
74
109
0
VERTEX
8
Meshes
62
170
10
0.0
20
0.0
30
0.0
70
128
71
110
72
111
73
108
74
109
0
VERTEX
8
Meshes
62
170
10
0.0
20
0.0
30
0.0
70
128
71
111
72
112
73
107
74
108
0
VERTEX
8
Meshes
62
170
10
0.0
20
0.0
30
0.0
70
128
71
112
72
113
73
106
74
107
0
VERTEX
8
Meshes
62
170
10
0.0
20
0.0
30
0.0
70
128
71
115
72
114
73
105
74
104
0
VERTEX
8
Meshes
62
170
10
0.0
20
0.0
30
0.0
70
128
71
115
72
116
73
103
74
104
0
VERTEX
8
Meshes
62
170
10
0.0
20
0.0
30
0.0
70
128
71
116
72
117
73
102
74
103
0
VERTEX
8
Meshes
62
170
10
0.0
20
0.0
30
0.0
70
128
71
117
72
118
73
101
74
102
0
VERTEX
8
Meshes
62
170
10
0.0
20
0.0
30
0.0
70
128
71
118
72
119
73
100
74
101
0
VERTEX
8
Meshes
62
170
10
0.0
20
0.0
30
0.0
70
128
71
119
72
120
73
99
74
100
0
VERTEX
8
Meshes
62
170
10
0.0
20
0.0
30
0.0
70
128
71
121
72
120
73
99
74
98
0
VERTEX
8
Meshes
62
170
10
0.0
20
0.0
30
0.0
70
128
71
121
72
122
73
97
74
98
0
VERTEX
8
Meshes
62
170
10
0.0
20
0.0
30
0.0
70
128
71
122
72
123
73
96
74
97
0
VERTEX
8
Meshes
62
170
10
0.0
20
0.0
30
0.0
70
128
71
123
72
124
73
95
74
96
0
VERTEX
8
Meshes
62
170
10
0.0
20
0.0
30
0.0
70
128
71
171
72
128
73
210
0
VERTEX
8
Meshes
62
170
10
0.0
20
0.0
30
0.0
70
128
71
210
72
128
73
129
74
209
0
VERTEX
8
Meshes
62
170
10
0.0
20
0.0
30
0.0
70
128
71
209
72
129
73
130
74
208
0
VERTEX
8
Meshes
62
170
10
0.0
20
0.0
30
0.0
70
128
71
208
72
130
73
131
74
127
0
VERTEX
8
Meshes
62
170
10
0.0
20
0.0
30
0.0
70
128
71
127
72
131
73
132
74
126
0
VERTEX
8
Meshes
62
170
10
0.0
20
0.0
30
0.0
70
128
71
133
72
125
73
126
74
132
0
VERTEX
8
Meshes
62
170
10
0.0
20
0.0
30
0.0
70
128
71
125
72
133
73
134
74
207
0
VERTEX
8
Meshes
62
170
10
0.0
20
0.0
30
0.0
70
128
71
207
72
134
73
163
0
VERTEX
8
Meshes
62
170
10
0.0
20
0.0
30
0.0
70
128
71
134
72
135
73
163
0
VERTEX
8
Meshes
62
170
10
0.0
20
0.0
30
0.0
70
128
71
133
72
136
73
135
74
134
0
VERTEX
8
Meshes
62
170
10
0.0
20
0.0
30
0.0
70
128
71
132
72
137
73
136
74
133
0
VERTEX
8
Meshes
62
170
10
0.0
20
0.0
30
0.0
70
128
71
131
72
138
73
137
74
132
0
VERTEX
8
Meshes
62
170
10
0.0
20
0.0
30
0.0
70
128
71
130
72
139
73
138
74
131
0
VERTEX
8
Meshes
62
170
10
0.0
20
0.0
30
0.0
70
128
71
129
72
140
73
139
74
130
0
VERTEX
8
Meshes
62
170
10
0.0
20
0.0
30
0.0
70
128
71
128
72
141
73
140
74
129
0
VERTEX
8
Meshes
62
170
10
0.0
20
0.0
30
0.0
70
128
71
171
72
141
73
128
0
VERTEX
8
Meshes
62
170
10
0.0
20
0.0
30
0.0
70
128
71
171
72
142
73
141
0
VERTEX
8
Meshes
62
170
10
0.0
20
0.0
30
0.0
70
128
71
141
72
142
73
143
74
140
0
VERTEX
8
Meshes
62
170
10
0.0
20
0.0
30
0.0
70
128
71
140
72
143
73
144
74
139
0
VERTEX
8
Meshes
62
170
10
0.0
20
0.0
30
0.0
70
128
71
139
72
144
73
145
74
138
0
VERTEX
8
Meshes
62
170
10
0.0
20
0.0
30
0.0
70
128
71
138
72
145
73
146
74
137
0
VERTEX
8
Meshes
62
170
10
0.0
20
0.0
30
0.0
70
128
71
137
72
146
73
147
74
136
0
VERTEX
8
Meshes
62
170
10
0.0
20
0.0
30
0.0
70
128
71
136
72
147
73
148
74
135
0
VERTEX
8
Meshes
62
170
10
0.0
20
0.0
30
0.0
70
128
71
135
72
148
73
163
0
VERTEX
8
Meshes
62
170
10
0.0
20
0.0
30
0.0
70
128
71
148
72
149
73
163
0
VERTEX
8
Meshes
62
170
10
0.0
20
0.0
30
0.0
70
128
71
147
72
150
73
149
74
148
0
VERTEX
8
Meshes
62
170
10
0.0
20
0.0
30
0.0
70
128
71
146
72
151
73
150
74
147
0
VERTEX
8
Meshes
62
170
10
0.0
20
0.0
30
0.0
70
128
71
145
72
152
73
151
74
146
0
VERTEX
8
Meshes
62
170
10
0.0
20
0.0
30
0.0
70
128
71
144
72
153
73
152
74
145
0
VERTEX
8
Meshes
62
170
10
0.0
20
0.0
30
0.0
70
128
71
143
72
154
73
153
74
144
0
VERTEX
8
Meshes
62
170
10
0.0
20
0.0
30
0.0
70
128
71
142
72
155
73
154
74
143
0
VERTEX
8
Meshes
62
170
10
0.0
20
0.0
30
0.0
70
128
71
171
72
155
73
142
0
VERTEX
8
Meshes
62
170
10
0.0
20
0.0
30
0.0
70
128
71
171
72
156
73
155
0
VERTEX
8
Meshes
62
170
10
0.0
20
0.0
30
0.0
70
128
71
155
72
156
73
157
74
154
0
VERTEX
8
Meshes
62
170
10
0.0
20
0.0
30
0.0
70
128
71
154
72
157
73
158
74
153
0
VERTEX
8
Meshes
62
170
10
0.0
20
0.0
30
0.0
70
128
71
153
72
158
73
159
74
152
0
VERTEX
8
Meshes
62
170
10
0.0
20
0.0
30
0.0
70
128
71
152
72
159
73
160
74
151
0
VERTEX
8
Meshes
62
170
10
0.0
20
0.0
30
0.0
70
128
71
151
72
160
73
161
74
150
0
VERTEX
8
Meshes
62
170
10
0.0
20
0.0
30
0.0
70
128
71
150
72
161
73
162
74
149
0
VERTEX
8
Meshes
62
170
10
0.0
20
0.0
30
0.0
70
128
71
149
72
162
73
163
0
VERTEX
8
Meshes
62
170
10
0.0
20
0.0
30
0.0
70
128
71
162
72
164
73
163
0
VERTEX
8
Meshes
62
170
10
0.0
20
0.0
30
0.0
70
128
71
161
72
165
73
164
74
162
0
VERTEX
8
Meshes
62
170
10
0.0
20
0.0
30
0.0
70
128
71
160
72
166
73
165
74
161
0
VERTEX
8
Meshes
62
170
10
0.0
20
0.0
30
0.0
70
128
71
159
72
167
73
166
74
160
0
VERTEX
8
Meshes
62
170
10
0.0
20
0.0
30
0.0
70
128
71
158
72
168
73
167
74
159
0
VERTEX
8
Meshes
62
170
10
0.0
20
0.0
30
0.0
70
128
71
157
72
169
73
168
74
158
0
VERTEX
8
Meshes
62
170
10
0.0
20
0.0
30
0.0
70
128
71
156
72
170
73
169
74
157
0
VERTEX
8
Meshes
62
170
10
0.0
20
0.0
30
0.0
70
128
71
171
72
170
73
156
0
VERTEX
8
Meshes
62
170
10
0.0
20
0.0
30
0.0
70
128
71
171
72
172
73
170
0
VERTEX
8
Meshes
62
170
10
0.0
20
0.0
30
0.0
70
128
71
170
72
172
73
173
74
169
0
VERTEX
8
Meshes
62
170
10
0.0
20
0.0
30
0.0
70
128
71
169
72
173
73
174
74
168
0
VERTEX
8
Meshes
62
170
10
0.0
20
0.0
30
0.0
70
128
71
168
72
174
73
175
74
167
0
VERTEX
8
Meshes
62
170
10
0.0
20
0.0
30
0.0
70
128
71
167
72
175
73
176
74
166
0
VERTEX
8
Meshes
62
170
10
0.0
20
0.0
30
0.0
70
128
71
166
72
176
73
177
74
165
0
VERTEX
8
Meshes
62
170
10
0.0
20
0.0
30
0.0
70
128
71
165
72
177
73
178
74
164
0
VERTEX
8
Meshes
62
170
10
0.0
20
0.0
30
0.0
70
128
71
164
72
178
73
163
0
VERTEX
8
Meshes
62
170
10
0.0
20
0.0
30
0.0
70
128
71
178
72
179
73
163
0
VERTEX
8
Meshes
62
170
10
0.0
20
0.0
30
0.0
70
128
71
177
72
180
73
179
74
178
0
VERTEX
8
Meshes
62
170
10
0.0
20
0.0
30
0.0
70
128
71
176
72
181
73
180
74
177
0
VERTEX
8
Meshes
62
170
10
0.0
20
0.0
30
0.0
70
128
71
175
72
182
73
181
74
176
0
VERTEX
8
Meshes
62
170
10
0.0
20
0.0
30
0.0
70
128
71
174
72
183
73
182
74
175
0
VERTEX
8
Meshes
62
170
10
0.0
20
0.0
30
0.0
70
128
71
173
72
184
73
183
74
174
0
VERTEX
8
Meshes
62
170
10
0.0
20
0.0
30
0.0
70
128
71
172
72
185
73
184
74
173
0
VERTEX
8
Meshes
62
170
10
0.0
20
0.0
30
0.0
70
128
71
171
72
185
73
172
0
VERTEX
8
Meshes
62
170
10
0.0
20
0.0
30
0.0
70
128
71
171
72
186
73
185
0
VERTEX
8
Meshes
62
170
10
0.0
20
0.0
30
0.0
70
128
71
185
72
186
73
187
74
184
0
VERTEX
8
Meshes
62
170
10
0.0
20
0.0
30
0.0
70
128
71
184
72
187
73
188
74
183
0
VERTEX
8
Meshes
62
170
10
0.0
20
0.0
30
0.0
70
128
71
183
72
188
73
189
74
182
0
VERTEX
8
Meshes
62
170
10
0.0
20
0.0
30
0.0
70
128
71
182
72
189
73
190
74
181
0
VERTEX
8
Meshes
62
170
10
0.0
20
0.0
30
0.0
70
128
71
181
72
190
73
191
74
180
0
VERTEX
8
Meshes
62
170
10
0.0
20
0.0
30
0.0
70
128
71
180
72
191
73
192
74
179
0
VERTEX
8
Meshes
62
170
10
0.0
20
0.0
30
0.0
70
128
71
179
72
192
73
163
0
VERTEX
8
Meshes
62
170
10
0.0
20
0.0
30
0.0
70
128
71
192
72
193
73
163
0
VERTEX
8
Meshes
62
170
10
0.0
20
0.0
30
0.0
70
128
71
191
72
194
73
193
74
192
0
VERTEX
8
Meshes
62
170
10
0.0
20
0.0
30
0.0
70
128
71
190
72
195
73
194
74
191
0
VERTEX
8
Meshes
62
170
10
0.0
20
0.0
30
0.0
70
128
71
189
72
196
73
195
74
190
0
VERTEX
8
Meshes
62
170
10
0.0
20
0.0
30
0.0
70
128
71
188
72
197
73
196
74
189
0
VERTEX
8
Meshes
62
170
10
0.0
20
0.0
30
0.0
70
128
71
187
72
198
73
197
74
188
0
VERTEX
8
Meshes
62
170
10
0.0
20
0.0
30
0.0
70
128
71
186
72
199
73
198
74
187
0
VERTEX
8
Meshes
62
170
10
0.0
20
0.0
30
0.0
70
128
71
171
72
199
73
186
0
VERTEX
8
Meshes
62
170
10
0.0
20
0.0
30
0.0
70
128
71
171
72
200
73
199
0
VERTEX
8
Meshes
62
170
10
0.0
20
0.0
30
0.0
70
128
71
199
72
200
73
201
74
198
0
VERTEX
8
Meshes
62
170
10
0.0
20
0.0
30
0.0
70
128
71
198
72
201
73
202
74
197
0
VERTEX
8
Meshes
62
170
10
0.0
20
0.0
30
0.0
70
128
71
197
72
202
73
203
74
196
0
VERTEX
8
Meshes
62
170
10
0.0
20
0.0
30
0.0
70
128
71
196
72
203
73
204
74
195
0
VERTEX
8
Meshes
62
170
10
0.0
20
0.0
30
0.0
70
128
71
195
72
204
73
205
74
194
0
VERTEX
8
Meshes
62
170
10
0.0
20
0.0
30
0.0
70
128
71
194
72
205
73
206
74
193
0
VERTEX
8
Meshes
62
170
10
0.0
20
0.0
30
0.0
70
128
71
193
72
206
73
163
0
VERTEX
8
Meshes
62
170
10
0.0
20
0.0
30
0.0
70
128
71
206
72
207
73
163
0
VERTEX
8
Meshes
62
170
10
0.0
20
0.0
30
0.0
70
128
71
205
72
125
73
207
74
206
0
VERTEX
8
Meshes
62
170
10
0.0
20
0.0
30
0.0
70
128
71
125
72
205
73
204
74
126
0
VERTEX
8
Meshes
62
170
10
0.0
20
0.0
30
0.0
70
128
71
203
72
127
73
126
74
204
0
VERTEX
8
Meshes
62
170
10
0.0
20
0.0
30
0.0
70
128
71
202
72
208
73
127
74
203
0
VERTEX
8
Meshes
62
170
10
0.0
20
0.0
30
0.0
70
128
71
201
72
209
73
208
74
202
0
VERTEX
8
Meshes
62
170
10
0.0
20
0.0
30
0.0
70
128
71
200
72
210
73
209
74
201
0
VERTEX
8
Meshes
62
170
10
0.0
20
0.0
30
0.0
70
128
71
171
72
210
73
200
0
SEQEND
0
ENDBLK
0
ENDSEC
0
SECTION
2
ENTITIES
0
INSERT
8
2
2
BlueNote
10
-9.971991
20
-0.000779
30
11.343571
41
1.000000
42
1.000000
43
1.000000
50
0.000000
0
INSERT
8
4
2
Noteline_007
10
0.002580
20
-0.010798
30
-8.035604
41
1.000000
42
1.000000
43
1.000000
50
0.000000
0
INSERT
8
4
2
Noteline_006
10
0.002580
20
-0.010798
30
-4.039236
41
1.000000
42
1.000000
43
1.000000
50
0.000000
0
INSERT
8
4
2
Noteline_005
10
0.002580
20
-0.010798
30
7.992274
41
1.000000
42
1.000000
43
1.000000
50
0.000000
0
INSERT
8
4
2
Noteline_004
10
0.002580
20
-0.010798
30
3.981293
41
1.000000
42
1.000000
43
1.000000
50
0.000000
0
INSERT
8
4
2
Noteline
10
0.002580
20
-0.010798
30
-0.025567
41
1.000000
42
1.000000
43
1.000000
50
0.000000
0
INSERT
8
2
2
YellowNote
10
-0.048166
20
-0.000778
30
15.323782
41
1.000000
42
1.000000
43
1.000000
50
0.000000
0
INSERT
8
2
2
GreenNote
10
10.057770
20
-0.000778
30
23.363136
41
1.000000
42
1.000000
43
1.000000
50
0.000000
0
ENDSEC
0
EOF
