0
SECTION
2
HEADER
0
ENDSEC
0
SECTION
2
BLOCKS
0
BLOCK
2
Notes
8
Meshes
70
64
10
0.0
20
0.0
30
0.0
3
Notes
0
POLYLINE
66
1
8
Meshes
62
250
70
64
71
670
72
630
0
VERTEX
8
Meshes
10
25.030409
20
0.499658
30
-16.197193
70
192
0
VERTEX
8
Meshes
10
25.030409
20
-0.499659
30
-16.197193
70
192
0
VERTEX
8
Meshes
10
-25.018436
20
-0.499658
30
-16.197193
70
192
0
VERTEX
8
Meshes
10
-25.018421
20
0.499659
30
-16.197193
70
192
0
VERTEX
8
Meshes
10
25.030422
20
0.499658
30
-15.808485
70
192
0
VERTEX
8
Meshes
10
25.030392
20
-0.499659
30
-15.808485
70
192
0
VERTEX
8
Meshes
10
-25.018440
20
-0.499658
30
-15.808485
70
192
0
VERTEX
8
Meshes
10
-25.018429
20
0.499658
30
-15.808485
70
192
0
VERTEX
8
Meshes
10
25.030409
20
0.499658
30
-12.200826
70
192
0
VERTEX
8
Meshes
10
25.030409
20
-0.499659
30
-12.200826
70
192
0
VERTEX
8
Meshes
10
-25.018436
20
-0.499658
30
-12.200826
70
192
0
VERTEX
8
Meshes
10
-25.018421
20
0.499659
30
-12.200826
70
192
0
VERTEX
8
Meshes
10
25.030422
20
0.499658
30
-11.812117
70
192
0
VERTEX
8
Meshes
10
25.030392
20
-0.499659
30
-11.812117
70
192
0
VERTEX
8
Meshes
10
-25.018440
20
-0.499658
30
-11.812117
70
192
0
VERTEX
8
Meshes
10
-25.018429
20
0.499658
30
-11.812117
70
192
0
VERTEX
8
Meshes
10
25.030409
20
0.499658
30
-0.169316
70
192
0
VERTEX
8
Meshes
10
25.030409
20
-0.499659
30
-0.169316
70
192
0
VERTEX
8
Meshes
10
-25.018436
20
-0.499658
30
-0.169316
70
192
0
VERTEX
8
Meshes
10
-25.018421
20
0.499659
30
-0.169316
70
192
0
VERTEX
8
Meshes
10
25.030422
20
0.499658
30
0.219393
70
192
0
VERTEX
8
Meshes
10
25.030392
20
-0.499659
30
0.219393
70
192
0
VERTEX
8
Meshes
10
-25.018440
20
-0.499658
30
0.219393
70
192
0
VERTEX
8
Meshes
10
-25.018429
20
0.499658
30
0.219393
70
192
0
VERTEX
8
Meshes
10
25.030409
20
0.499658
30
-4.180297
70
192
0
VERTEX
8
Meshes
10
25.030409
20
-0.499659
30
-4.180297
70
192
0
VERTEX
8
Meshes
10
-25.018436
20
-0.499658
30
-4.180297
70
192
0
VERTEX
8
Meshes
10
-25.018421
20
0.499659
30
-4.180297
70
192
0
VERTEX
8
Meshes
10
25.030422
20
0.499658
30
-3.791588
70
192
0
VERTEX
8
Meshes
10
25.030392
20
-0.499659
30
-3.791588
70
192
0
VERTEX
8
Meshes
10
-25.018440
20
-0.499658
30
-3.791588
70
192
0
VERTEX
8
Meshes
10
-25.018429
20
0.499658
30
-3.791588
70
192
0
VERTEX
8
Meshes
10
25.030409
20
0.499658
30
-8.187158
70
192
0
VERTEX
8
Meshes
10
25.030409
20
-0.499659
30
-8.187158
70
192
0
VERTEX
8
Meshes
10
-25.018436
20
-0.499658
30
-8.187158
70
192
0
VERTEX
8
Meshes
10
-25.018421
20
0.499659
30
-8.187158
70
192
0
VERTEX
8
Meshes
10
25.030422
20
0.499658
30
-7.798449
70
192
0
VERTEX
8
Meshes
10
25.030392
20
-0.499659
30
-7.798449
70
192
0
VERTEX
8
Meshes
10
-25.018440
20
-0.499658
30
-7.798449
70
192
0
VERTEX
8
Meshes
10
-25.018429
20
0.499658
30
-7.798449
70
192
0
VERTEX
8
Meshes
10
2.760150
20
0.365092
30
-10.098118
70
192
0
VERTEX
8
Meshes
10
2.822461
20
0.289165
30
-10.098118
70
192
0
VERTEX
8
Meshes
10
2.868763
20
0.202541
30
-10.098118
70
192
0
VERTEX
8
Meshes
10
2.897275
20
0.108548
30
-10.098118
70
192
0
VERTEX
8
Meshes
10
2.906903
20
0.010799
30
-10.098118
70
192
0
VERTEX
8
Meshes
10
2.897275
20
-0.086950
30
-10.098118
70
192
0
VERTEX
8
Meshes
10
2.868763
20
-0.180943
30
-10.098118
70
192
0
VERTEX
8
Meshes
10
2.822461
20
-0.267567
30
-10.098118
70
192
0
VERTEX
8
Meshes
10
2.760150
20
-0.343494
30
-10.098118
70
192
0
VERTEX
8
Meshes
10
2.684223
20
-0.405806
30
-10.098118
70
192
0
VERTEX
8
Meshes
10
2.597599
20
-0.452107
30
-10.098118
70
192
0
VERTEX
8
Meshes
10
2.503606
20
-0.480620
30
-10.098118
70
192
0
VERTEX
8
Meshes
10
2.405856
20
-0.490247
30
-10.098118
70
192
0
VERTEX
8
Meshes
10
2.308107
20
-0.480620
30
-10.098118
70
192
0
VERTEX
8
Meshes
10
2.214114
20
-0.452107
30
-10.098118
70
192
0
VERTEX
8
Meshes
10
2.127490
20
-0.405806
30
-10.098118
70
192
0
VERTEX
8
Meshes
10
2.051563
20
-0.343494
30
-10.098118
70
192
0
VERTEX
8
Meshes
10
1.989252
20
-0.267567
30
-10.098118
70
192
0
VERTEX
8
Meshes
10
1.942950
20
-0.180943
30
-10.098118
70
192
0
VERTEX
8
Meshes
10
1.914438
20
-0.086950
30
-10.098118
70
192
0
VERTEX
8
Meshes
10
1.904811
20
0.010799
30
-10.098118
70
192
0
VERTEX
8
Meshes
10
1.914438
20
0.108548
30
-10.098118
70
192
0
VERTEX
8
Meshes
10
1.942951
20
0.202541
30
-10.098118
70
192
0
VERTEX
8
Meshes
10
1.989252
20
0.289165
30
-10.098118
70
192
0
VERTEX
8
Meshes
10
2.051564
20
0.365092
30
-10.098118
70
192
0
VERTEX
8
Meshes
10
2.127491
20
0.427404
30
-10.098118
70
192
0
VERTEX
8
Meshes
10
2.214115
20
0.473705
30
-10.098118
70
192
0
VERTEX
8
Meshes
10
2.308108
20
0.502217
30
-10.098118
70
192
0
VERTEX
8
Meshes
10
2.405857
20
0.511845
30
-10.098118
70
192
0
VERTEX
8
Meshes
10
2.503607
20
0.502217
30
-10.098118
70
192
0
VERTEX
8
Meshes
10
2.597600
20
0.473704
30
-10.098118
70
192
0
VERTEX
8
Meshes
10
2.684224
20
0.427403
30
-10.098118
70
192
0
VERTEX
8
Meshes
10
2.760150
20
0.365091
30
9.958029
70
192
0
VERTEX
8
Meshes
10
2.822462
20
0.289164
30
9.958029
70
192
0
VERTEX
8
Meshes
10
2.868763
20
0.202540
30
9.958029
70
192
0
VERTEX
8
Meshes
10
2.897275
20
0.108547
30
9.958029
70
192
0
VERTEX
8
Meshes
10
2.906903
20
0.010798
30
9.958029
70
192
0
VERTEX
8
Meshes
10
2.897275
20
-0.086951
30
9.958029
70
192
0
VERTEX
8
Meshes
10
2.868762
20
-0.180944
30
9.958029
70
192
0
VERTEX
8
Meshes
10
2.822461
20
-0.267568
30
9.958029
70
192
0
VERTEX
8
Meshes
10
2.760149
20
-0.343495
30
9.958029
70
192
0
VERTEX
8
Meshes
10
2.684223
20
-0.405806
30
9.958029
70
192
0
VERTEX
8
Meshes
10
2.597599
20
-0.452107
30
9.958029
70
192
0
VERTEX
8
Meshes
10
2.503606
20
-0.480620
30
9.958029
70
192
0
VERTEX
8
Meshes
10
2.405857
20
-0.490247
30
9.958029
70
192
0
VERTEX
8
Meshes
10
2.308108
20
-0.480620
30
9.958029
70
192
0
VERTEX
8
Meshes
10
2.214115
20
-0.452108
30
9.958029
70
192
0
VERTEX
8
Meshes
10
2.127491
20
-0.405806
30
9.958029
70
192
0
VERTEX
8
Meshes
10
2.051564
20
-0.343495
30
9.958029
70
192
0
VERTEX
8
Meshes
10
1.989253
20
-0.267569
30
9.958029
70
192
0
VERTEX
8
Meshes
10
1.942951
20
-0.180945
30
9.958029
70
192
0
VERTEX
8
Meshes
10
1.914438
20
-0.086952
30
9.958029
70
192
0
VERTEX
8
Meshes
10
1.904811
20
0.010797
30
9.958029
70
192
0
VERTEX
8
Meshes
10
1.914438
20
0.108546
30
9.958029
70
192
0
VERTEX
8
Meshes
10
1.942950
20
0.202538
30
9.958029
70
192
0
VERTEX
8
Meshes
10
1.989251
20
0.289163
30
9.958029
70
192
0
VERTEX
8
Meshes
10
2.051562
20
0.365090
30
9.958029
70
192
0
VERTEX
8
Meshes
10
2.127488
20
0.427402
30
9.958029
70
192
0
VERTEX
8
Meshes
10
2.214112
20
0.473704
30
9.958029
70
192
0
VERTEX
8
Meshes
10
2.308104
20
0.502217
30
9.958029
70
192
0
VERTEX
8
Meshes
10
2.405853
20
0.511845
30
9.958029
70
192
0
VERTEX
8
Meshes
10
2.503602
20
0.502218
30
9.958029
70
192
0
VERTEX
8
Meshes
10
2.597595
20
0.473706
30
9.958029
70
192
0
VERTEX
8
Meshes
10
2.684219
20
0.427406
30
9.958029
70
192
0
VERTEX
8
Meshes
10
4.889829
20
-0.289270
30
8.865283
70
192
0
VERTEX
8
Meshes
10
5.256946
20
-0.289270
30
8.302384
70
192
0
VERTEX
8
Meshes
10
5.529737
20
-0.289270
30
7.660179
70
192
0
VERTEX
8
Meshes
10
5.697722
20
-0.289270
30
6.963345
70
192
0
VERTEX
8
Meshes
10
5.754444
20
-0.289270
30
6.238661
70
192
0
VERTEX
8
Meshes
10
5.697722
20
-0.289270
30
5.513978
70
192
0
VERTEX
8
Meshes
10
5.529738
20
-0.289270
30
4.817144
70
192
0
VERTEX
8
Meshes
10
5.256946
20
-0.289270
30
4.174938
70
192
0
VERTEX
8
Meshes
10
4.889829
20
-0.289271
30
3.612039
70
192
0
VERTEX
8
Meshes
10
4.442495
20
-0.289271
30
3.150080
70
192
0
VERTEX
8
Meshes
10
3.932136
20
-0.289271
30
2.806814
70
192
0
VERTEX
8
Meshes
10
2.802466
20
-0.289270
30
9.953266
70
192
0
VERTEX
8
Meshes
10
3.378370
20
-0.289270
30
9.881889
70
192
0
VERTEX
8
Meshes
10
3.932141
20
-0.289270
30
9.670506
70
192
0
VERTEX
8
Meshes
10
4.442500
20
-0.289270
30
9.327238
70
192
0
VERTEX
8
Meshes
10
4.159084
20
-0.289270
30
8.793501
70
192
0
VERTEX
8
Meshes
10
3.736921
20
-0.289270
30
9.077448
70
192
0
VERTEX
8
Meshes
10
3.278847
20
-0.289270
30
9.252302
70
192
0
VERTEX
8
Meshes
10
2.802465
20
-0.289270
30
9.311344
70
192
0
VERTEX
8
Meshes
10
3.736917
20
-0.289271
30
3.399873
70
192
0
VERTEX
8
Meshes
10
4.159081
20
-0.289271
30
3.683819
70
192
0
VERTEX
8
Meshes
10
4.529110
20
-0.289270
30
4.065947
70
192
0
VERTEX
8
Meshes
10
4.832786
20
-0.289270
30
4.531570
70
192
0
VERTEX
8
Meshes
10
5.058437
20
-0.289270
30
5.062797
70
192
0
VERTEX
8
Meshes
10
5.197392
20
-0.289270
30
5.639211
70
192
0
VERTEX
8
Meshes
10
5.244311
20
-0.289270
30
6.238661
70
192
0
VERTEX
8
Meshes
10
5.197392
20
-0.289270
30
6.838112
70
192
0
VERTEX
8
Meshes
10
5.058436
20
-0.289270
30
7.414526
70
192
0
VERTEX
8
Meshes
10
4.832786
20
-0.289270
30
7.945752
70
192
0
VERTEX
8
Meshes
10
4.529110
20
-0.289270
30
8.411376
70
192
0
VERTEX
8
Meshes
10
4.529110
20
0.312249
30
8.411376
70
192
0
VERTEX
8
Meshes
10
4.832786
20
0.312249
30
7.945752
70
192
0
VERTEX
8
Meshes
10
5.058436
20
0.312249
30
7.414526
70
192
0
VERTEX
8
Meshes
10
5.197392
20
0.312249
30
6.838112
70
192
0
VERTEX
8
Meshes
10
5.244311
20
0.312249
30
6.238661
70
192
0
VERTEX
8
Meshes
10
5.197392
20
0.312249
30
5.639211
70
192
0
VERTEX
8
Meshes
10
5.058437
20
0.312249
30
5.062797
70
192
0
VERTEX
8
Meshes
10
4.832786
20
0.312249
30
4.531570
70
192
0
VERTEX
8
Meshes
10
4.529110
20
0.312249
30
4.065946
70
192
0
VERTEX
8
Meshes
10
4.159081
20
0.312249
30
3.683819
70
192
0
VERTEX
8
Meshes
10
3.736917
20
0.312249
30
3.399873
70
192
0
VERTEX
8
Meshes
10
2.802465
20
0.312249
30
9.311344
70
192
0
VERTEX
8
Meshes
10
3.278847
20
0.312249
30
9.252301
70
192
0
VERTEX
8
Meshes
10
3.736921
20
0.312249
30
9.077448
70
192
0
VERTEX
8
Meshes
10
4.159084
20
0.312249
30
8.793500
70
192
0
VERTEX
8
Meshes
10
4.442500
20
0.312249
30
9.327238
70
192
0
VERTEX
8
Meshes
10
3.932141
20
0.312249
30
9.670506
70
192
0
VERTEX
8
Meshes
10
3.378370
20
0.312249
30
9.881888
70
192
0
VERTEX
8
Meshes
10
2.802466
20
0.312249
30
9.953265
70
192
0
VERTEX
8
Meshes
10
3.932136
20
0.312249
30
2.806814
70
192
0
VERTEX
8
Meshes
10
4.442495
20
0.312249
30
3.150080
70
192
0
VERTEX
8
Meshes
10
4.889829
20
0.312249
30
3.612039
70
192
0
VERTEX
8
Meshes
10
5.256946
20
0.312249
30
4.174938
70
192
0
VERTEX
8
Meshes
10
5.529738
20
0.312249
30
4.817144
70
192
0
VERTEX
8
Meshes
10
5.697722
20
0.312249
30
5.513978
70
192
0
VERTEX
8
Meshes
10
5.754444
20
0.312249
30
6.238661
70
192
0
VERTEX
8
Meshes
10
5.697722
20
0.312249
30
6.963345
70
192
0
VERTEX
8
Meshes
10
5.529737
20
0.312249
30
7.660179
70
192
0
VERTEX
8
Meshes
10
5.256946
20
0.312249
30
8.302384
70
192
0
VERTEX
8
Meshes
10
4.889829
20
0.312249
30
8.865283
70
192
0
VERTEX
8
Meshes
10
2.069771
20
0.010019
30
-8.779912
70
192
0
VERTEX
8
Meshes
10
2.719842
20
0.010019
30
-9.344493
70
192
0
VERTEX
8
Meshes
10
2.948117
20
0.010019
30
-10.010465
70
192
0
VERTEX
8
Meshes
10
0.943119
20
0.213868
30
-11.618260
70
192
0
VERTEX
8
Meshes
10
1.785675
20
0.386682
30
-11.241017
70
192
0
VERTEX
8
Meshes
10
2.348654
20
0.502153
30
-10.676436
70
192
0
VERTEX
8
Meshes
10
2.546346
20
0.542701
30
-10.010465
70
192
0
VERTEX
8
Meshes
10
2.348654
20
0.502153
30
-9.344493
70
192
0
VERTEX
8
Meshes
10
1.785675
20
0.386682
30
-8.779912
70
192
0
VERTEX
8
Meshes
10
0.943118
20
0.213868
30
-8.402670
70
192
0
VERTEX
8
Meshes
10
0.523062
20
0.363095
30
-8.402670
70
192
0
VERTEX
8
Meshes
10
1.009513
20
0.662418
30
-8.779912
70
192
0
VERTEX
8
Meshes
10
1.334548
20
0.862420
30
-9.344493
70
192
0
VERTEX
8
Meshes
10
1.448686
20
0.932651
30
-10.010465
70
192
0
VERTEX
8
Meshes
10
1.334548
20
0.862420
30
-10.676436
70
192
0
VERTEX
8
Meshes
10
1.009513
20
0.662418
30
-11.241017
70
192
0
VERTEX
8
Meshes
10
0.523062
20
0.363095
30
-11.618260
70
192
0
VERTEX
8
Meshes
10
-0.050745
20
0.417716
30
-11.618260
70
192
0
VERTEX
8
Meshes
10
-0.050745
20
0.763345
30
-11.241017
70
192
0
VERTEX
8
Meshes
10
-0.050745
20
0.994286
30
-10.676436
70
192
0
VERTEX
8
Meshes
10
-0.050745
20
1.075382
30
-10.010465
70
192
0
VERTEX
8
Meshes
10
-0.050745
20
0.994286
30
-9.344493
70
192
0
VERTEX
8
Meshes
10
-0.050745
20
0.763345
30
-8.779912
70
192
0
VERTEX
8
Meshes
10
-0.050745
20
0.417716
30
-8.402670
70
192
0
VERTEX
8
Meshes
10
-0.624553
20
0.363095
30
-8.402670
70
192
0
VERTEX
8
Meshes
10
-1.111003
20
0.662418
30
-8.779912
70
192
0
VERTEX
8
Meshes
10
-1.436039
20
0.862420
30
-9.344493
70
192
0
VERTEX
8
Meshes
10
-1.550177
20
0.932651
30
-10.010465
70
192
0
VERTEX
8
Meshes
10
-1.436039
20
0.862420
30
-10.676436
70
192
0
VERTEX
8
Meshes
10
-1.111003
20
0.662418
30
-11.241017
70
192
0
VERTEX
8
Meshes
10
-0.624553
20
0.363095
30
-11.618260
70
192
0
VERTEX
8
Meshes
10
-1.044609
20
0.213868
30
-11.618260
70
192
0
VERTEX
8
Meshes
10
-1.887166
20
0.386682
30
-11.241017
70
192
0
VERTEX
8
Meshes
10
-2.450145
20
0.502153
30
-10.676436
70
192
0
VERTEX
8
Meshes
10
-2.647836
20
0.542701
30
-10.010465
70
192
0
VERTEX
8
Meshes
10
-2.450145
20
0.502153
30
-9.344493
70
192
0
VERTEX
8
Meshes
10
-1.887166
20
0.386682
30
-8.779912
70
192
0
VERTEX
8
Meshes
10
-1.044609
20
0.213868
30
-8.402670
70
192
0
VERTEX
8
Meshes
10
-0.050745
20
0.010019
30
-8.270200
70
192
0
VERTEX
8
Meshes
10
-1.198360
20
0.010019
30
-8.402670
70
192
0
VERTEX
8
Meshes
10
-2.171261
20
0.010019
30
-8.779912
70
192
0
VERTEX
8
Meshes
10
-2.821333
20
0.010019
30
-9.344493
70
192
0
VERTEX
8
Meshes
10
-3.049608
20
0.010019
30
-10.010465
70
192
0
VERTEX
8
Meshes
10
-2.821333
20
0.010019
30
-10.676436
70
192
0
VERTEX
8
Meshes
10
-2.171261
20
0.010019
30
-11.241017
70
192
0
VERTEX
8
Meshes
10
-1.198360
20
0.010019
30
-11.618260
70
192
0
VERTEX
8
Meshes
10
-0.050746
20
0.010019
30
-11.750730
70
192
0
VERTEX
8
Meshes
10
-1.044609
20
-0.193829
30
-11.618260
70
192
0
VERTEX
8
Meshes
10
-1.887166
20
-0.366643
30
-11.241017
70
192
0
VERTEX
8
Meshes
10
-2.450145
20
-0.482114
30
-10.676436
70
192
0
VERTEX
8
Meshes
10
-2.647836
20
-0.522662
30
-10.010465
70
192
0
VERTEX
8
Meshes
10
-2.450145
20
-0.482114
30
-9.344493
70
192
0
VERTEX
8
Meshes
10
-1.887166
20
-0.366643
30
-8.779912
70
192
0
VERTEX
8
Meshes
10
-1.044609
20
-0.193829
30
-8.402670
70
192
0
VERTEX
8
Meshes
10
-0.624553
20
-0.343056
30
-8.402670
70
192
0
VERTEX
8
Meshes
10
-1.111003
20
-0.642379
30
-8.779912
70
192
0
VERTEX
8
Meshes
10
-1.436039
20
-0.842381
30
-9.344493
70
192
0
VERTEX
8
Meshes
10
-1.550176
20
-0.912612
30
-10.010465
70
192
0
VERTEX
8
Meshes
10
-1.436039
20
-0.842381
30
-10.676436
70
192
0
VERTEX
8
Meshes
10
-1.111003
20
-0.642379
30
-11.241017
70
192
0
VERTEX
8
Meshes
10
-0.624553
20
-0.343056
30
-11.618260
70
192
0
VERTEX
8
Meshes
10
-0.050745
20
-0.397677
30
-11.618260
70
192
0
VERTEX
8
Meshes
10
-0.050745
20
-0.743306
30
-11.241017
70
192
0
VERTEX
8
Meshes
10
-0.050745
20
-0.974247
30
-10.676436
70
192
0
VERTEX
8
Meshes
10
-0.050745
20
-1.055343
30
-10.010465
70
192
0
VERTEX
8
Meshes
10
-0.050745
20
-0.974247
30
-9.344493
70
192
0
VERTEX
8
Meshes
10
-0.050745
20
-0.743306
30
-8.779912
70
192
0
VERTEX
8
Meshes
10
-0.050745
20
-0.397677
30
-8.402670
70
192
0
VERTEX
8
Meshes
10
0.523062
20
-0.343056
30
-8.402670
70
192
0
VERTEX
8
Meshes
10
1.009513
20
-0.642379
30
-8.779912
70
192
0
VERTEX
8
Meshes
10
1.334548
20
-0.842381
30
-9.344493
70
192
0
VERTEX
8
Meshes
10
1.448686
20
-0.912612
30
-10.010465
70
192
0
VERTEX
8
Meshes
10
1.334548
20
-0.842381
30
-10.676436
70
192
0
VERTEX
8
Meshes
10
1.009513
20
-0.642379
30
-11.241017
70
192
0
VERTEX
8
Meshes
10
0.523062
20
-0.343056
30
-11.618260
70
192
0
VERTEX
8
Meshes
10
0.943119
20
-0.193829
30
-11.618260
70
192
0
VERTEX
8
Meshes
10
1.785675
20
-0.366643
30
-11.241017
70
192
0
VERTEX
8
Meshes
10
2.348654
20
-0.482114
30
-10.676436
70
192
0
VERTEX
8
Meshes
10
2.546346
20
-0.522662
30
-10.010465
70
192
0
VERTEX
8
Meshes
10
2.348654
20
-0.482114
30
-9.344493
70
192
0
VERTEX
8
Meshes
10
1.785675
20
-0.366643
30
-8.779912
70
192
0
VERTEX
8
Meshes
10
0.943118
20
-0.193829
30
-8.402670
70
192
0
VERTEX
8
Meshes
10
1.096869
20
0.010020
30
-8.402670
70
192
0
VERTEX
8
Meshes
10
2.719842
20
0.010019
30
-10.676436
70
192
0
VERTEX
8
Meshes
10
2.069771
20
0.010019
30
-11.241017
70
192
0
VERTEX
8
Meshes
10
1.096870
20
0.010020
30
-11.618260
70
192
0
VERTEX
8
Meshes
10
-7.265435
20
0.365091
30
-14.090263
70
192
0
VERTEX
8
Meshes
10
-7.203123
20
0.289165
30
-14.090263
70
192
0
VERTEX
8
Meshes
10
-7.156821
20
0.202540
30
-14.090263
70
192
0
VERTEX
8
Meshes
10
-7.128309
20
0.108548
30
-14.090263
70
192
0
VERTEX
8
Meshes
10
-7.118681
20
0.010799
30
-14.090263
70
192
0
VERTEX
8
Meshes
10
-7.128309
20
-0.086951
30
-14.090263
70
192
0
VERTEX
8
Meshes
10
-7.156821
20
-0.180943
30
-14.090263
70
192
0
VERTEX
8
Meshes
10
-7.203123
20
-0.267568
30
-14.090263
70
192
0
VERTEX
8
Meshes
10
-7.265435
20
-0.343495
30
-14.090263
70
192
0
VERTEX
8
Meshes
10
-7.341362
20
-0.405806
30
-14.090263
70
192
0
VERTEX
8
Meshes
10
-7.427986
20
-0.452108
30
-14.090263
70
192
0
VERTEX
8
Meshes
10
-7.521978
20
-0.480620
30
-14.090263
70
192
0
VERTEX
8
Meshes
10
-7.619728
20
-0.490248
30
-14.090263
70
192
0
VERTEX
8
Meshes
10
-7.717477
20
-0.480620
30
-14.090263
70
192
0
VERTEX
8
Meshes
10
-7.811470
20
-0.452108
30
-14.090263
70
192
0
VERTEX
8
Meshes
10
-7.898094
20
-0.405806
30
-14.090263
70
192
0
VERTEX
8
Meshes
10
-7.974021
20
-0.343494
30
-14.090263
70
192
0
VERTEX
8
Meshes
10
-8.036332
20
-0.267567
30
-14.090263
70
192
0
VERTEX
8
Meshes
10
-8.082634
20
-0.180943
30
-14.090263
70
192
0
VERTEX
8
Meshes
10
-8.111146
20
-0.086950
30
-14.090263
70
192
0
VERTEX
8
Meshes
10
-8.120773
20
0.010799
30
-14.090263
70
192
0
VERTEX
8
Meshes
10
-8.111146
20
0.108548
30
-14.090263
70
192
0
VERTEX
8
Meshes
10
-8.082634
20
0.202541
30
-14.090263
70
192
0
VERTEX
8
Meshes
10
-8.036332
20
0.289165
30
-14.090263
70
192
0
VERTEX
8
Meshes
10
-7.974020
20
0.365092
30
-14.090263
70
192
0
VERTEX
8
Meshes
10
-7.898093
20
0.427403
30
-14.090263
70
192
0
VERTEX
8
Meshes
10
-7.811469
20
0.473705
30
-14.090263
70
192
0
VERTEX
8
Meshes
10
-7.717476
20
0.502217
30
-14.090263
70
192
0
VERTEX
8
Meshes
10
-7.619727
20
0.511844
30
-14.090263
70
192
0
VERTEX
8
Meshes
10
-7.521977
20
0.502217
30
-14.090263
70
192
0
VERTEX
8
Meshes
10
-7.427985
20
0.473704
30
-14.090263
70
192
0
VERTEX
8
Meshes
10
-7.341361
20
0.427402
30
-14.090263
70
192
0
VERTEX
8
Meshes
10
-7.265434
20
0.365091
30
5.965883
70
192
0
VERTEX
8
Meshes
10
-7.203123
20
0.289164
30
5.965883
70
192
0
VERTEX
8
Meshes
10
-7.156821
20
0.202540
30
5.965883
70
192
0
VERTEX
8
Meshes
10
-7.128309
20
0.108547
30
5.965883
70
192
0
VERTEX
8
Meshes
10
-7.118681
20
0.010797
30
5.965883
70
192
0
VERTEX
8
Meshes
10
-7.128309
20
-0.086952
30
5.965883
70
192
0
VERTEX
8
Meshes
10
-7.156822
20
-0.180944
30
5.965883
70
192
0
VERTEX
8
Meshes
10
-7.203124
20
-0.267568
30
5.965883
70
192
0
VERTEX
8
Meshes
10
-7.265435
20
-0.343495
30
5.965883
70
192
0
VERTEX
8
Meshes
10
-7.341362
20
-0.405806
30
5.965883
70
192
0
VERTEX
8
Meshes
10
-7.427986
20
-0.452108
30
5.965883
70
192
0
VERTEX
8
Meshes
10
-7.521978
20
-0.480620
30
5.965883
70
192
0
VERTEX
8
Meshes
10
-7.619727
20
-0.490248
30
5.965883
70
192
0
VERTEX
8
Meshes
10
-7.717476
20
-0.480620
30
5.965883
70
192
0
VERTEX
8
Meshes
10
-7.811469
20
-0.452108
30
5.965883
70
192
0
VERTEX
8
Meshes
10
-7.898093
20
-0.405807
30
5.965883
70
192
0
VERTEX
8
Meshes
10
-7.974020
20
-0.343495
30
5.965883
70
192
0
VERTEX
8
Meshes
10
-8.036331
20
-0.267569
30
5.965883
70
192
0
VERTEX
8
Meshes
10
-8.082633
20
-0.180945
30
5.965883
70
192
0
VERTEX
8
Meshes
10
-8.111146
20
-0.086953
30
5.965883
70
192
0
VERTEX
8
Meshes
10
-8.120773
20
0.010796
30
5.965883
70
192
0
VERTEX
8
Meshes
10
-8.111147
20
0.108545
30
5.965883
70
192
0
VERTEX
8
Meshes
10
-8.082635
20
0.202538
30
5.965883
70
192
0
VERTEX
8
Meshes
10
-8.036334
20
0.289162
30
5.965883
70
192
0
VERTEX
8
Meshes
10
-7.974023
20
0.365089
30
5.965883
70
192
0
VERTEX
8
Meshes
10
-7.898097
20
0.427401
30
5.965883
70
192
0
VERTEX
8
Meshes
10
-7.811472
20
0.473703
30
5.965883
70
192
0
VERTEX
8
Meshes
10
-7.717480
20
0.502216
30
5.965883
70
192
0
VERTEX
8
Meshes
10
-7.619731
20
0.511844
30
5.965883
70
192
0
VERTEX
8
Meshes
10
-7.521982
20
0.502218
30
5.965883
70
192
0
VERTEX
8
Meshes
10
-7.427989
20
0.473706
30
5.965883
70
192
0
VERTEX
8
Meshes
10
-7.341365
20
0.427405
30
5.965883
70
192
0
VERTEX
8
Meshes
10
-5.135755
20
-0.289271
30
4.873137
70
192
0
VERTEX
8
Meshes
10
-4.768638
20
-0.289271
30
4.310238
70
192
0
VERTEX
8
Meshes
10
-4.495846
20
-0.289271
30
3.668032
70
192
0
VERTEX
8
Meshes
10
-4.327861
20
-0.289271
30
2.971198
70
192
0
VERTEX
8
Meshes
10
-4.271140
20
-0.289271
30
2.246515
70
192
0
VERTEX
8
Meshes
10
-4.327861
20
-0.289271
30
1.521832
70
192
0
VERTEX
8
Meshes
10
-4.495846
20
-0.289271
30
0.824998
70
192
0
VERTEX
8
Meshes
10
-4.768638
20
-0.289271
30
0.182791
70
192
0
VERTEX
8
Meshes
10
-5.135755
20
-0.289271
30
-0.380107
70
192
0
VERTEX
8
Meshes
10
-5.583088
20
-0.289271
30
-0.842066
70
192
0
VERTEX
8
Meshes
10
-6.093448
20
-0.289271
30
-1.185332
70
192
0
VERTEX
8
Meshes
10
-7.223117
20
-0.289271
30
5.961119
70
192
0
VERTEX
8
Meshes
10
-6.647214
20
-0.289271
30
5.889742
70
192
0
VERTEX
8
Meshes
10
-6.093442
20
-0.289271
30
5.678359
70
192
0
VERTEX
8
Meshes
10
-5.583084
20
-0.289271
30
5.335092
70
192
0
VERTEX
8
Meshes
10
-5.866499
20
-0.289271
30
4.801354
70
192
0
VERTEX
8
Meshes
10
-6.288662
20
-0.289271
30
5.085301
70
192
0
VERTEX
8
Meshes
10
-6.746737
20
-0.289271
30
5.260155
70
192
0
VERTEX
8
Meshes
10
-7.223118
20
-0.289271
30
5.319198
70
192
0
VERTEX
8
Meshes
10
-6.288667
20
-0.289271
30
-0.592274
70
192
0
VERTEX
8
Meshes
10
-5.866503
20
-0.289271
30
-0.308328
70
192
0
VERTEX
8
Meshes
10
-5.496473
20
-0.289271
30
0.073800
70
192
0
VERTEX
8
Meshes
10
-5.192798
20
-0.289271
30
0.539424
70
192
0
VERTEX
8
Meshes
10
-4.967147
20
-0.289271
30
1.070651
70
192
0
VERTEX
8
Meshes
10
-4.828191
20
-0.289271
30
1.647064
70
192
0
VERTEX
8
Meshes
10
-4.781272
20
-0.289271
30
2.246515
70
192
0
VERTEX
8
Meshes
10
-4.828191
20
-0.289271
30
2.845965
70
192
0
VERTEX
8
Meshes
10
-4.967147
20
-0.289271
30
3.422379
70
192
0
VERTEX
8
Meshes
10
-5.192798
20
-0.289271
30
3.953606
70
192
0
VERTEX
8
Meshes
10
-5.496473
20
-0.289271
30
4.419230
70
192
0
VERTEX
8
Meshes
10
-5.496473
20
0.312249
30
4.419229
70
192
0
VERTEX
8
Meshes
10
-5.192798
20
0.312249
30
3.953605
70
192
0
VERTEX
8
Meshes
10
-4.967147
20
0.312249
30
3.422379
70
192
0
VERTEX
8
Meshes
10
-4.828191
20
0.312249
30
2.845965
70
192
0
VERTEX
8
Meshes
10
-4.781272
20
0.312249
30
2.246515
70
192
0
VERTEX
8
Meshes
10
-4.828191
20
0.312249
30
1.647064
70
192
0
VERTEX
8
Meshes
10
-4.967147
20
0.312249
30
1.070651
70
192
0
VERTEX
8
Meshes
10
-5.192798
20
0.312249
30
0.539424
70
192
0
VERTEX
8
Meshes
10
-5.496473
20
0.312249
30
0.073800
70
192
0
VERTEX
8
Meshes
10
-5.866503
20
0.312249
30
-0.308328
70
192
0
VERTEX
8
Meshes
10
-6.288667
20
0.312249
30
-0.592274
70
192
0
VERTEX
8
Meshes
10
-7.223118
20
0.312249
30
5.319197
70
192
0
VERTEX
8
Meshes
10
-6.746737
20
0.312249
30
5.260155
70
192
0
VERTEX
8
Meshes
10
-6.288662
20
0.312249
30
5.085301
70
192
0
VERTEX
8
Meshes
10
-5.866499
20
0.312249
30
4.801354
70
192
0
VERTEX
8
Meshes
10
-5.583084
20
0.312249
30
5.335092
70
192
0
VERTEX
8
Meshes
10
-6.093442
20
0.312249
30
5.678359
70
192
0
VERTEX
8
Meshes
10
-6.647214
20
0.312249
30
5.889742
70
192
0
VERTEX
8
Meshes
10
-7.223117
20
0.312249
30
5.961119
70
192
0
VERTEX
8
Meshes
10
-6.093448
20
0.312249
30
-1.185332
70
192
0
VERTEX
8
Meshes
10
-5.583088
20
0.312249
30
-0.842066
70
192
0
VERTEX
8
Meshes
10
-5.135755
20
0.312249
30
-0.380107
70
192
0
VERTEX
8
Meshes
10
-4.768638
20
0.312249
30
0.182791
70
192
0
VERTEX
8
Meshes
10
-4.495846
20
0.312249
30
0.824998
70
192
0
VERTEX
8
Meshes
10
-4.327861
20
0.312249
30
1.521832
70
192
0
VERTEX
8
Meshes
10
-4.271140
20
0.312249
30
2.246515
70
192
0
VERTEX
8
Meshes
10
-4.327861
20
0.312249
30
2.971198
70
192
0
VERTEX
8
Meshes
10
-4.495846
20
0.312249
30
3.668032
70
192
0
VERTEX
8
Meshes
10
-4.768638
20
0.312249
30
4.310238
70
192
0
VERTEX
8
Meshes
10
-5.135755
20
0.312249
30
4.873137
70
192
0
VERTEX
8
Meshes
10
-7.955813
20
0.010019
30
-12.772058
70
192
0
VERTEX
8
Meshes
10
-7.305741
20
0.010019
30
-13.336639
70
192
0
VERTEX
8
Meshes
10
-7.077467
20
0.010019
30
-14.002611
70
192
0
VERTEX
8
Meshes
10
-9.082465
20
0.213868
30
-15.610407
70
192
0
VERTEX
8
Meshes
10
-8.239908
20
0.386682
30
-15.233164
70
192
0
VERTEX
8
Meshes
10
-7.676930
20
0.502153
30
-14.668583
70
192
0
VERTEX
8
Meshes
10
-7.479239
20
0.542701
30
-14.002611
70
192
0
VERTEX
8
Meshes
10
-7.676930
20
0.502153
30
-13.336639
70
192
0
VERTEX
8
Meshes
10
-8.239908
20
0.386682
30
-12.772058
70
192
0
VERTEX
8
Meshes
10
-9.082465
20
0.213868
30
-12.394816
70
192
0
VERTEX
8
Meshes
10
-9.502522
20
0.363095
30
-12.394816
70
192
0
VERTEX
8
Meshes
10
-9.016071
20
0.662418
30
-12.772058
70
192
0
VERTEX
8
Meshes
10
-8.691035
20
0.862419
30
-13.336639
70
192
0
VERTEX
8
Meshes
10
-8.576899
20
0.932651
30
-14.002611
70
192
0
VERTEX
8
Meshes
10
-8.691035
20
0.862419
30
-14.668583
70
192
0
VERTEX
8
Meshes
10
-9.016071
20
0.662418
30
-15.233164
70
192
0
VERTEX
8
Meshes
10
-9.502522
20
0.363095
30
-15.610407
70
192
0
VERTEX
8
Meshes
10
-10.076329
20
0.417716
30
-15.610407
70
192
0
VERTEX
8
Meshes
10
-10.076329
20
0.763345
30
-15.233164
70
192
0
VERTEX
8
Meshes
10
-10.076329
20
0.994286
30
-14.668583
70
192
0
VERTEX
8
Meshes
10
-10.076329
20
1.075382
30
-14.002611
70
192
0
VERTEX
8
Meshes
10
-10.076329
20
0.994286
30
-13.336639
70
192
0
VERTEX
8
Meshes
10
-10.076329
20
0.763345
30
-12.772058
70
192
0
VERTEX
8
Meshes
10
-10.076329
20
0.417716
30
-12.394816
70
192
0
VERTEX
8
Meshes
10
-10.650137
20
0.363095
30
-12.394816
70
192
0
VERTEX
8
Meshes
10
-11.136587
20
0.662418
30
-12.772058
70
192
0
VERTEX
8
Meshes
10
-11.461623
20
0.862419
30
-13.336639
70
192
0
VERTEX
8
Meshes
10
-11.575761
20
0.932650
30
-14.002611
70
192
0
VERTEX
8
Meshes
10
-11.461623
20
0.862419
30
-14.668583
70
192
0
VERTEX
8
Meshes
10
-11.136587
20
0.662418
30
-15.233164
70
192
0
VERTEX
8
Meshes
10
-10.650137
20
0.363095
30
-15.610407
70
192
0
VERTEX
8
Meshes
10
-11.070193
20
0.213868
30
-15.610407
70
192
0
VERTEX
8
Meshes
10
-11.912750
20
0.386682
30
-15.233164
70
192
0
VERTEX
8
Meshes
10
-12.475729
20
0.502153
30
-14.668583
70
192
0
VERTEX
8
Meshes
10
-12.673420
20
0.542701
30
-14.002611
70
192
0
VERTEX
8
Meshes
10
-12.475729
20
0.502153
30
-13.336639
70
192
0
VERTEX
8
Meshes
10
-11.912750
20
0.386682
30
-12.772058
70
192
0
VERTEX
8
Meshes
10
-11.070193
20
0.213868
30
-12.394816
70
192
0
VERTEX
8
Meshes
10
-10.076329
20
0.010019
30
-12.262346
70
192
0
VERTEX
8
Meshes
10
-11.223944
20
0.010019
30
-12.394816
70
192
0
VERTEX
8
Meshes
10
-12.196845
20
0.010019
30
-12.772058
70
192
0
VERTEX
8
Meshes
10
-12.846917
20
0.010019
30
-13.336639
70
192
0
VERTEX
8
Meshes
10
-13.075191
20
0.010019
30
-14.002611
70
192
0
VERTEX
8
Meshes
10
-12.846917
20
0.010019
30
-14.668583
70
192
0
VERTEX
8
Meshes
10
-12.196845
20
0.010019
30
-15.233164
70
192
0
VERTEX
8
Meshes
10
-11.223945
20
0.010019
30
-15.610407
70
192
0
VERTEX
8
Meshes
10
-10.076329
20
0.010019
30
-15.742876
70
192
0
VERTEX
8
Meshes
10
-11.070193
20
-0.193829
30
-15.610407
70
192
0
VERTEX
8
Meshes
10
-11.912750
20
-0.366643
30
-15.233164
70
192
0
VERTEX
8
Meshes
10
-12.475729
20
-0.482114
30
-14.668583
70
192
0
VERTEX
8
Meshes
10
-12.673420
20
-0.522662
30
-14.002611
70
192
0
VERTEX
8
Meshes
10
-12.475729
20
-0.482114
30
-13.336639
70
192
0
VERTEX
8
Meshes
10
-11.912750
20
-0.366643
30
-12.772058
70
192
0
VERTEX
8
Meshes
10
-11.070193
20
-0.193829
30
-12.394816
70
192
0
VERTEX
8
Meshes
10
-10.650137
20
-0.343056
30
-12.394816
70
192
0
VERTEX
8
Meshes
10
-11.136587
20
-0.642380
30
-12.772058
70
192
0
VERTEX
8
Meshes
10
-11.461623
20
-0.842381
30
-13.336639
70
192
0
VERTEX
8
Meshes
10
-11.575760
20
-0.912612
30
-14.002611
70
192
0
VERTEX
8
Meshes
10
-11.461623
20
-0.842381
30
-14.668583
70
192
0
VERTEX
8
Meshes
10
-11.136587
20
-0.642380
30
-15.233164
70
192
0
VERTEX
8
Meshes
10
-10.650137
20
-0.343057
30
-15.610407
70
192
0
VERTEX
8
Meshes
10
-10.076329
20
-0.397678
30
-15.610407
70
192
0
VERTEX
8
Meshes
10
-10.076329
20
-0.743306
30
-15.233164
70
192
0
VERTEX
8
Meshes
10
-10.076329
20
-0.974248
30
-14.668583
70
192
0
VERTEX
8
Meshes
10
-10.076329
20
-1.055344
30
-14.002611
70
192
0
VERTEX
8
Meshes
10
-10.076329
20
-0.974248
30
-13.336639
70
192
0
VERTEX
8
Meshes
10
-10.076329
20
-0.743306
30
-12.772058
70
192
0
VERTEX
8
Meshes
10
-10.076329
20
-0.397677
30
-12.394816
70
192
0
VERTEX
8
Meshes
10
-9.502522
20
-0.343056
30
-12.394816
70
192
0
VERTEX
8
Meshes
10
-9.016071
20
-0.642380
30
-12.772058
70
192
0
VERTEX
8
Meshes
10
-8.691035
20
-0.842381
30
-13.336639
70
192
0
VERTEX
8
Meshes
10
-8.576898
20
-0.912612
30
-14.002611
70
192
0
VERTEX
8
Meshes
10
-8.691035
20
-0.842381
30
-14.668583
70
192
0
VERTEX
8
Meshes
10
-9.016071
20
-0.642380
30
-15.233164
70
192
0
VERTEX
8
Meshes
10
-9.502522
20
-0.343056
30
-15.610407
70
192
0
VERTEX
8
Meshes
10
-9.082465
20
-0.193829
30
-15.610407
70
192
0
VERTEX
8
Meshes
10
-8.239908
20
-0.366643
30
-15.233164
70
192
0
VERTEX
8
Meshes
10
-7.676930
20
-0.482114
30
-14.668583
70
192
0
VERTEX
8
Meshes
10
-7.479239
20
-0.522662
30
-14.002611
70
192
0
VERTEX
8
Meshes
10
-7.676930
20
-0.482114
30
-13.336639
70
192
0
VERTEX
8
Meshes
10
-8.239908
20
-0.366643
30
-12.772058
70
192
0
VERTEX
8
Meshes
10
-9.082466
20
-0.193829
30
-12.394816
70
192
0
VERTEX
8
Meshes
10
-8.928715
20
0.010019
30
-12.394816
70
192
0
VERTEX
8
Meshes
10
-7.305741
20
0.010019
30
-14.668583
70
192
0
VERTEX
8
Meshes
10
-7.955813
20
0.010019
30
-15.233164
70
192
0
VERTEX
8
Meshes
10
-8.928715
20
0.010019
30
-15.610407
70
192
0
VERTEX
8
Meshes
10
12.175706
20
0.010020
30
-0.740558
70
192
0
VERTEX
8
Meshes
10
12.825778
20
0.010020
30
-1.305139
70
192
0
VERTEX
8
Meshes
10
13.054052
20
0.010020
30
-1.971110
70
192
0
VERTEX
8
Meshes
10
11.049054
20
0.213868
30
-3.578906
70
192
0
VERTEX
8
Meshes
10
11.891611
20
0.386683
30
-3.201663
70
192
0
VERTEX
8
Meshes
10
12.454590
20
0.502153
30
-2.637082
70
192
0
VERTEX
8
Meshes
10
12.652281
20
0.542701
30
-1.971110
70
192
0
VERTEX
8
Meshes
10
12.454590
20
0.502153
30
-1.305139
70
192
0
VERTEX
8
Meshes
10
11.891611
20
0.386683
30
-0.740558
70
192
0
VERTEX
8
Meshes
10
11.049054
20
0.213868
30
-0.363316
70
192
0
VERTEX
8
Meshes
10
10.628998
20
0.363096
30
-0.363316
70
192
0
VERTEX
8
Meshes
10
11.115448
20
0.662419
30
-0.740558
70
192
0
VERTEX
8
Meshes
10
11.440484
20
0.862420
30
-1.305139
70
192
0
VERTEX
8
Meshes
10
11.554621
20
0.932651
30
-1.971110
70
192
0
VERTEX
8
Meshes
10
11.440484
20
0.862420
30
-2.637082
70
192
0
VERTEX
8
Meshes
10
11.115448
20
0.662419
30
-3.201663
70
192
0
VERTEX
8
Meshes
10
10.628998
20
0.363096
30
-3.578906
70
192
0
VERTEX
8
Meshes
10
10.055190
20
0.417717
30
-3.578906
70
192
0
VERTEX
8
Meshes
10
10.055190
20
0.763345
30
-3.201663
70
192
0
VERTEX
8
Meshes
10
10.055190
20
0.994287
30
-2.637082
70
192
0
VERTEX
8
Meshes
10
10.055190
20
1.075383
30
-1.971110
70
192
0
VERTEX
8
Meshes
10
10.055190
20
0.994287
30
-1.305139
70
192
0
VERTEX
8
Meshes
10
10.055190
20
0.763345
30
-0.740558
70
192
0
VERTEX
8
Meshes
10
10.055190
20
0.417717
30
-0.363316
70
192
0
VERTEX
8
Meshes
10
9.481382
20
0.363096
30
-0.363316
70
192
0
VERTEX
8
Meshes
10
8.994932
20
0.662419
30
-0.740558
70
192
0
VERTEX
8
Meshes
10
8.669896
20
0.862420
30
-1.305139
70
192
0
VERTEX
8
Meshes
10
8.555758
20
0.932651
30
-1.971110
70
192
0
VERTEX
8
Meshes
10
8.669896
20
0.862420
30
-2.637082
70
192
0
VERTEX
8
Meshes
10
8.994932
20
0.662419
30
-3.201663
70
192
0
VERTEX
8
Meshes
10
9.481382
20
0.363096
30
-3.578906
70
192
0
VERTEX
8
Meshes
10
9.061326
20
0.213868
30
-3.578906
70
192
0
VERTEX
8
Meshes
10
8.218769
20
0.386683
30
-3.201663
70
192
0
VERTEX
8
Meshes
10
7.655791
20
0.502153
30
-2.637082
70
192
0
VERTEX
8
Meshes
10
7.458099
20
0.542701
30
-1.971110
70
192
0
VERTEX
8
Meshes
10
7.655791
20
0.502153
30
-1.305139
70
192
0
VERTEX
8
Meshes
10
8.218769
20
0.386683
30
-0.740558
70
192
0
VERTEX
8
Meshes
10
9.061326
20
0.213868
30
-0.363316
70
192
0
VERTEX
8
Meshes
10
10.055190
20
0.010020
30
-0.230845
70
192
0
VERTEX
8
Meshes
10
8.907576
20
0.010020
30
-0.363316
70
192
0
VERTEX
8
Meshes
10
7.934674
20
0.010020
30
-0.740558
70
192
0
VERTEX
8
Meshes
10
7.284602
20
0.010020
30
-1.305139
70
192
0
VERTEX
8
Meshes
10
7.056328
20
0.010020
30
-1.971110
70
192
0
VERTEX
8
Meshes
10
7.284602
20
0.010020
30
-2.637082
70
192
0
VERTEX
8
Meshes
10
7.934674
20
0.010020
30
-3.201663
70
192
0
VERTEX
8
Meshes
10
8.907575
20
0.010020
30
-3.578906
70
192
0
VERTEX
8
Meshes
10
10.055190
20
0.010020
30
-3.711375
70
192
0
VERTEX
8
Meshes
10
9.061326
20
-0.193829
30
-3.578906
70
192
0
VERTEX
8
Meshes
10
8.218769
20
-0.366643
30
-3.201663
70
192
0
VERTEX
8
Meshes
10
7.655791
20
-0.482114
30
-2.637082
70
192
0
VERTEX
8
Meshes
10
7.458099
20
-0.522662
30
-1.971110
70
192
0
VERTEX
8
Meshes
10
7.655791
20
-0.482114
30
-1.305139
70
192
0
VERTEX
8
Meshes
10
8.218769
20
-0.366643
30
-0.740558
70
192
0
VERTEX
8
Meshes
10
9.061326
20
-0.193829
30
-0.363316
70
192
0
VERTEX
8
Meshes
10
9.481382
20
-0.343056
30
-0.363316
70
192
0
VERTEX
8
Meshes
10
8.994932
20
-0.642379
30
-0.740558
70
192
0
VERTEX
8
Meshes
10
8.669896
20
-0.842380
30
-1.305139
70
192
0
VERTEX
8
Meshes
10
8.555759
20
-0.912611
30
-1.971110
70
192
0
VERTEX
8
Meshes
10
8.669896
20
-0.842380
30
-2.637082
70
192
0
VERTEX
8
Meshes
10
8.994932
20
-0.642379
30
-3.201663
70
192
0
VERTEX
8
Meshes
10
9.481382
20
-0.343056
30
-3.578906
70
192
0
VERTEX
8
Meshes
10
10.055190
20
-0.397677
30
-3.578906
70
192
0
VERTEX
8
Meshes
10
10.055190
20
-0.743306
30
-3.201663
70
192
0
VERTEX
8
Meshes
10
10.055190
20
-0.974247
30
-2.637082
70
192
0
VERTEX
8
Meshes
10
10.055190
20
-1.055343
30
-1.971110
70
192
0
VERTEX
8
Meshes
10
10.055190
20
-0.974247
30
-1.305139
70
192
0
VERTEX
8
Meshes
10
10.055190
20
-0.743306
30
-0.740558
70
192
0
VERTEX
8
Meshes
10
10.055190
20
-0.397677
30
-0.363316
70
192
0
VERTEX
8
Meshes
10
10.628998
20
-0.343056
30
-0.363316
70
192
0
VERTEX
8
Meshes
10
11.115448
20
-0.642379
30
-0.740558
70
192
0
VERTEX
8
Meshes
10
11.440484
20
-0.842380
30
-1.305139
70
192
0
VERTEX
8
Meshes
10
11.554622
20
-0.912611
30
-1.971110
70
192
0
VERTEX
8
Meshes
10
11.440484
20
-0.842380
30
-2.637082
70
192
0
VERTEX
8
Meshes
10
11.115448
20
-0.642379
30
-3.201663
70
192
0
VERTEX
8
Meshes
10
10.628998
20
-0.343056
30
-3.578906
70
192
0
VERTEX
8
Meshes
10
11.049054
20
-0.193828
30
-3.578906
70
192
0
VERTEX
8
Meshes
10
11.891611
20
-0.366643
30
-3.201663
70
192
0
VERTEX
8
Meshes
10
12.454590
20
-0.482114
30
-2.637082
70
192
0
VERTEX
8
Meshes
10
12.652281
20
-0.522661
30
-1.971110
70
192
0
VERTEX
8
Meshes
10
12.454590
20
-0.482114
30
-1.305139
70
192
0
VERTEX
8
Meshes
10
11.891611
20
-0.366643
30
-0.740558
70
192
0
VERTEX
8
Meshes
10
11.049053
20
-0.193828
30
-0.363316
70
192
0
VERTEX
8
Meshes
10
11.202805
20
0.010020
30
-0.363316
70
192
0
VERTEX
8
Meshes
10
12.825778
20
0.010020
30
-2.637082
70
192
0
VERTEX
8
Meshes
10
12.175706
20
0.010020
30
-3.201663
70
192
0
VERTEX
8
Meshes
10
11.202805
20
0.010020
30
-3.578906
70
192
0
VERTEX
8
Meshes
10
14.995766
20
-0.289270
30
16.904638
70
192
0
VERTEX
8
Meshes
10
15.362883
20
-0.289270
30
16.341740
70
192
0
VERTEX
8
Meshes
10
15.635674
20
-0.289270
30
15.699533
70
192
0
VERTEX
8
Meshes
10
15.803659
20
-0.289270
30
15.002699
70
192
0
VERTEX
8
Meshes
10
15.860381
20
-0.289270
30
14.278016
70
192
0
VERTEX
8
Meshes
10
15.803659
20
-0.289270
30
13.553332
70
192
0
VERTEX
8
Meshes
10
15.635675
20
-0.289270
30
12.856499
70
192
0
VERTEX
8
Meshes
10
15.362883
20
-0.289270
30
12.214293
70
192
0
VERTEX
8
Meshes
10
14.995766
20
-0.289270
30
11.651394
70
192
0
VERTEX
8
Meshes
10
14.548432
20
-0.289270
30
11.189435
70
192
0
VERTEX
8
Meshes
10
14.038073
20
-0.289270
30
10.846169
70
192
0
VERTEX
8
Meshes
10
12.908403
20
-0.289270
30
17.992620
70
192
0
VERTEX
8
Meshes
10
13.484306
20
-0.289270
30
17.921244
70
192
0
VERTEX
8
Meshes
10
14.038078
20
-0.289270
30
17.709860
70
192
0
VERTEX
8
Meshes
10
14.548437
20
-0.289270
30
17.366592
70
192
0
VERTEX
8
Meshes
10
14.265021
20
-0.289270
30
16.832855
70
192
0
VERTEX
8
Meshes
10
13.842858
20
-0.289270
30
17.116802
70
192
0
VERTEX
8
Meshes
10
13.384784
20
-0.289270
30
17.291656
70
192
0
VERTEX
8
Meshes
10
12.908402
20
-0.289270
30
17.350698
70
192
0
VERTEX
8
Meshes
10
13.842854
20
-0.289270
30
11.439227
70
192
0
VERTEX
8
Meshes
10
14.265018
20
-0.289270
30
11.723173
70
192
0
VERTEX
8
Meshes
10
14.635048
20
-0.289270
30
12.105301
70
192
0
VERTEX
8
Meshes
10
14.938723
20
-0.289270
30
12.570925
70
192
0
VERTEX
8
Meshes
10
15.164373
20
-0.289270
30
13.102152
70
192
0
VERTEX
8
Meshes
10
15.303329
20
-0.289270
30
13.678565
70
192
0
VERTEX
8
Meshes
10
15.350248
20
-0.289270
30
14.278016
70
192
0
VERTEX
8
Meshes
10
15.303329
20
-0.289270
30
14.877466
70
192
0
VERTEX
8
Meshes
10
15.164373
20
-0.289270
30
15.453880
70
192
0
VERTEX
8
Meshes
10
14.938723
20
-0.289270
30
15.985106
70
192
0
VERTEX
8
Meshes
10
14.635048
20
-0.289270
30
16.450729
70
192
0
VERTEX
8
Meshes
10
14.635048
20
0.312250
30
16.450729
70
192
0
VERTEX
8
Meshes
10
14.938723
20
0.312250
30
15.985106
70
192
0
VERTEX
8
Meshes
10
15.164373
20
0.312250
30
15.453880
70
192
0
VERTEX
8
Meshes
10
15.303329
20
0.312250
30
14.877466
70
192
0
VERTEX
8
Meshes
10
15.350248
20
0.312250
30
14.278016
70
192
0
VERTEX
8
Meshes
10
15.303329
20
0.312250
30
13.678565
70
192
0
VERTEX
8
Meshes
10
15.164373
20
0.312250
30
13.102151
70
192
0
VERTEX
8
Meshes
10
14.938723
20
0.312250
30
12.570925
70
192
0
VERTEX
8
Meshes
10
14.635048
20
0.312250
30
12.105301
70
192
0
VERTEX
8
Meshes
10
14.265018
20
0.312250
30
11.723173
70
192
0
VERTEX
8
Meshes
10
13.842854
20
0.312250
30
11.439227
70
192
0
VERTEX
8
Meshes
10
12.908402
20
0.312250
30
17.350698
70
192
0
VERTEX
8
Meshes
10
13.384784
20
0.312250
30
17.291656
70
192
0
VERTEX
8
Meshes
10
13.842858
20
0.312250
30
17.116802
70
192
0
VERTEX
8
Meshes
10
14.265021
20
0.312250
30
16.832855
70
192
0
VERTEX
8
Meshes
10
14.548437
20
0.312250
30
17.366592
70
192
0
VERTEX
8
Meshes
10
14.038078
20
0.312250
30
17.709860
70
192
0
VERTEX
8
Meshes
10
13.484306
20
0.312250
30
17.921244
70
192
0
VERTEX
8
Meshes
10
12.908403
20
0.312250
30
17.992620
70
192
0
VERTEX
8
Meshes
10
14.038073
20
0.312250
30
10.846169
70
192
0
VERTEX
8
Meshes
10
14.548432
20
0.312250
30
11.189434
70
192
0
VERTEX
8
Meshes
10
14.995766
20
0.312250
30
11.651393
70
192
0
VERTEX
8
Meshes
10
15.362883
20
0.312250
30
12.214292
70
192
0
VERTEX
8
Meshes
10
15.635675
20
0.312250
30
12.856499
70
192
0
VERTEX
8
Meshes
10
15.803659
20
0.312250
30
13.553332
70
192
0
VERTEX
8
Meshes
10
15.860381
20
0.312250
30
14.278016
70
192
0
VERTEX
8
Meshes
10
15.803659
20
0.312250
30
15.002699
70
192
0
VERTEX
8
Meshes
10
15.635674
20
0.312250
30
15.699533
70
192
0
VERTEX
8
Meshes
10
15.362883
20
0.312250
30
16.341740
70
192
0
VERTEX
8
Meshes
10
14.995766
20
0.312250
30
16.904636
70
192
0
VERTEX
8
Meshes
10
12.866085
20
0.365092
30
-2.058763
70
192
0
VERTEX
8
Meshes
10
12.928396
20
0.289165
30
-2.058763
70
192
0
VERTEX
8
Meshes
10
12.974698
20
0.202541
30
-2.058763
70
192
0
VERTEX
8
Meshes
10
13.003211
20
0.108548
30
-2.058763
70
192
0
VERTEX
8
Meshes
10
13.012838
20
0.010799
30
-2.058763
70
192
0
VERTEX
8
Meshes
10
13.003211
20
-0.086950
30
-2.058763
70
192
0
VERTEX
8
Meshes
10
12.974698
20
-0.180943
30
-2.058763
70
192
0
VERTEX
8
Meshes
10
12.928396
20
-0.267567
30
-2.058763
70
192
0
VERTEX
8
Meshes
10
12.866085
20
-0.343494
30
-2.058763
70
192
0
VERTEX
8
Meshes
10
12.790158
20
-0.405805
30
-2.058763
70
192
0
VERTEX
8
Meshes
10
12.703534
20
-0.452107
30
-2.058763
70
192
0
VERTEX
8
Meshes
10
12.609541
20
-0.480619
30
-2.058763
70
192
0
VERTEX
8
Meshes
10
12.511792
20
-0.490247
30
-2.058763
70
192
0
VERTEX
8
Meshes
10
12.414042
20
-0.480619
30
-2.058763
70
192
0
VERTEX
8
Meshes
10
12.320050
20
-0.452107
30
-2.058763
70
192
0
VERTEX
8
Meshes
10
12.233426
20
-0.405805
30
-2.058763
70
192
0
VERTEX
8
Meshes
10
12.157499
20
-0.343494
30
-2.058763
70
192
0
VERTEX
8
Meshes
10
12.095187
20
-0.267567
30
-2.058763
70
192
0
VERTEX
8
Meshes
10
12.048886
20
-0.180943
30
-2.058763
70
192
0
VERTEX
8
Meshes
10
12.020373
20
-0.086950
30
-2.058763
70
192
0
VERTEX
8
Meshes
10
12.010746
20
0.010800
30
-2.058763
70
192
0
VERTEX
8
Meshes
10
12.020373
20
0.108549
30
-2.058763
70
192
0
VERTEX
8
Meshes
10
12.048886
20
0.202542
30
-2.058763
70
192
0
VERTEX
8
Meshes
10
12.095188
20
0.289166
30
-2.058763
70
192
0
VERTEX
8
Meshes
10
12.157499
20
0.365093
30
-2.058763
70
192
0
VERTEX
8
Meshes
10
12.233426
20
0.427404
30
-2.058763
70
192
0
VERTEX
8
Meshes
10
12.320051
20
0.473706
30
-2.058763
70
192
0
VERTEX
8
Meshes
10
12.414043
20
0.502218
30
-2.058763
70
192
0
VERTEX
8
Meshes
10
12.511793
20
0.511845
30
-2.058763
70
192
0
VERTEX
8
Meshes
10
12.609542
20
0.502217
30
-2.058763
70
192
0
VERTEX
8
Meshes
10
12.703535
20
0.473705
30
-2.058763
70
192
0
VERTEX
8
Meshes
10
12.790159
20
0.427403
30
-2.058763
70
192
0
VERTEX
8
Meshes
10
12.866086
20
0.365091
30
17.997383
70
192
0
VERTEX
8
Meshes
10
12.928397
20
0.289164
30
17.997383
70
192
0
VERTEX
8
Meshes
10
12.974699
20
0.202540
30
17.997383
70
192
0
VERTEX
8
Meshes
10
13.003211
20
0.108547
30
17.997383
70
192
0
VERTEX
8
Meshes
10
13.012838
20
0.010798
30
17.997383
70
192
0
VERTEX
8
Meshes
10
13.003210
20
-0.086951
30
17.997383
70
192
0
VERTEX
8
Meshes
10
12.974698
20
-0.180944
30
17.997383
70
192
0
VERTEX
8
Meshes
10
12.928396
20
-0.267568
30
17.997383
70
192
0
VERTEX
8
Meshes
10
12.866085
20
-0.343494
30
17.997383
70
192
0
VERTEX
8
Meshes
10
12.790158
20
-0.405805
30
17.997383
70
192
0
VERTEX
8
Meshes
10
12.703534
20
-0.452107
30
17.997383
70
192
0
VERTEX
8
Meshes
10
12.609542
20
-0.480619
30
17.997383
70
192
0
VERTEX
8
Meshes
10
12.511792
20
-0.490247
30
17.997383
70
192
0
VERTEX
8
Meshes
10
12.414043
20
-0.480620
30
17.997383
70
192
0
VERTEX
8
Meshes
10
12.320051
20
-0.452107
30
17.997383
70
192
0
VERTEX
8
Meshes
10
12.233427
20
-0.405806
30
17.997383
70
192
0
VERTEX
8
Meshes
10
12.157500
20
-0.343495
30
17.997383
70
192
0
VERTEX
8
Meshes
10
12.095188
20
-0.267568
30
17.997383
70
192
0
VERTEX
8
Meshes
10
12.048886
20
-0.180944
30
17.997383
70
192
0
VERTEX
8
Meshes
10
12.020374
20
-0.086952
30
17.997383
70
192
0
VERTEX
8
Meshes
10
12.010746
20
0.010797
30
17.997383
70
192
0
VERTEX
8
Meshes
10
12.020373
20
0.108546
30
17.997383
70
192
0
VERTEX
8
Meshes
10
12.048885
20
0.202539
30
17.997383
70
192
0
VERTEX
8
Meshes
10
12.095186
20
0.289163
30
17.997383
70
192
0
VERTEX
8
Meshes
10
12.157497
20
0.365090
30
17.997383
70
192
0
VERTEX
8
Meshes
10
12.233423
20
0.427402
30
17.997383
70
192
0
VERTEX
8
Meshes
10
12.320047
20
0.473704
30
17.997383
70
192
0
VERTEX
8
Meshes
10
12.414040
20
0.502217
30
17.997383
70
192
0
VERTEX
8
Meshes
10
12.511788
20
0.511845
30
17.997383
70
192
0
VERTEX
8
Meshes
10
12.609538
20
0.502218
30
17.997383
70
192
0
VERTEX
8
Meshes
10
12.703530
20
0.473707
30
17.997383
70
192
0
VERTEX
8
Meshes
10
12.790154
20
0.427406
30
17.997383
70
192
0
VERTEX
8
Meshes
62
250
10
0.0
20
0.0
30
0.0
70
128
71
1
72
2
73
3
74
4
0
VERTEX
8
Meshes
62
250
10
0.0
20
0.0
30
0.0
70
128
71
5
72
8
73
7
74
6
0
VERTEX
8
Meshes
62
250
10
0.0
20
0.0
30
0.0
70
128
71
1
72
5
73
6
74
2
0
VERTEX
8
Meshes
62
250
10
0.0
20
0.0
30
0.0
70
128
71
2
72
6
73
7
74
3
0
VERTEX
8
Meshes
62
250
10
0.0
20
0.0
30
0.0
70
128
71
3
72
7
73
8
74
4
0
VERTEX
8
Meshes
62
250
10
0.0
20
0.0
30
0.0
70
128
71
5
72
1
73
4
74
8
0
VERTEX
8
Meshes
62
250
10
0.0
20
0.0
30
0.0
70
128
71
9
72
10
73
11
74
12
0
VERTEX
8
Meshes
62
250
10
0.0
20
0.0
30
0.0
70
128
71
13
72
16
73
15
74
14
0
VERTEX
8
Meshes
62
250
10
0.0
20
0.0
30
0.0
70
128
71
9
72
13
73
14
74
10
0
VERTEX
8
Meshes
62
250
10
0.0
20
0.0
30
0.0
70
128
71
10
72
14
73
15
74
11
0
VERTEX
8
Meshes
62
250
10
0.0
20
0.0
30
0.0
70
128
71
11
72
15
73
16
74
12
0
VERTEX
8
Meshes
62
250
10
0.0
20
0.0
30
0.0
70
128
71
13
72
9
73
12
74
16
0
VERTEX
8
Meshes
62
250
10
0.0
20
0.0
30
0.0
70
128
71
17
72
18
73
19
74
20
0
VERTEX
8
Meshes
62
250
10
0.0
20
0.0
30
0.0
70
128
71
21
72
24
73
23
74
22
0
VERTEX
8
Meshes
62
250
10
0.0
20
0.0
30
0.0
70
128
71
17
72
21
73
22
74
18
0
VERTEX
8
Meshes
62
250
10
0.0
20
0.0
30
0.0
70
128
71
18
72
22
73
23
74
19
0
VERTEX
8
Meshes
62
250
10
0.0
20
0.0
30
0.0
70
128
71
19
72
23
73
24
74
20
0
VERTEX
8
Meshes
62
250
10
0.0
20
0.0
30
0.0
70
128
71
21
72
17
73
20
74
24
0
VERTEX
8
Meshes
62
250
10
0.0
20
0.0
30
0.0
70
128
71
25
72
26
73
27
74
28
0
VERTEX
8
Meshes
62
250
10
0.0
20
0.0
30
0.0
70
128
71
29
72
32
73
31
74
30
0
VERTEX
8
Meshes
62
250
10
0.0
20
0.0
30
0.0
70
128
71
25
72
29
73
30
74
26
0
VERTEX
8
Meshes
62
250
10
0.0
20
0.0
30
0.0
70
128
71
26
72
30
73
31
74
27
0
VERTEX
8
Meshes
62
250
10
0.0
20
0.0
30
0.0
70
128
71
27
72
31
73
32
74
28
0
VERTEX
8
Meshes
62
250
10
0.0
20
0.0
30
0.0
70
128
71
29
72
25
73
28
74
32
0
VERTEX
8
Meshes
62
250
10
0.0
20
0.0
30
0.0
70
128
71
33
72
34
73
35
74
36
0
VERTEX
8
Meshes
62
250
10
0.0
20
0.0
30
0.0
70
128
71
37
72
40
73
39
74
38
0
VERTEX
8
Meshes
62
250
10
0.0
20
0.0
30
0.0
70
128
71
33
72
37
73
38
74
34
0
VERTEX
8
Meshes
62
250
10
0.0
20
0.0
30
0.0
70
128
71
34
72
38
73
39
74
35
0
VERTEX
8
Meshes
62
250
10
0.0
20
0.0
30
0.0
70
128
71
35
72
39
73
40
74
36
0
VERTEX
8
Meshes
62
250
10
0.0
20
0.0
30
0.0
70
128
71
37
72
33
73
36
74
40
0
VERTEX
8
Meshes
62
50
10
0.0
20
0.0
30
0.0
70
128
71
41
72
73
73
74
74
42
0
VERTEX
8
Meshes
62
50
10
0.0
20
0.0
30
0.0
70
128
71
42
72
74
73
75
74
43
0
VERTEX
8
Meshes
62
50
10
0.0
20
0.0
30
0.0
70
128
71
43
72
75
73
76
74
44
0
VERTEX
8
Meshes
62
50
10
0.0
20
0.0
30
0.0
70
128
71
44
72
76
73
77
74
45
0
VERTEX
8
Meshes
62
50
10
0.0
20
0.0
30
0.0
70
128
71
45
72
77
73
78
74
46
0
VERTEX
8
Meshes
62
50
10
0.0
20
0.0
30
0.0
70
128
71
46
72
78
73
79
74
47
0
VERTEX
8
Meshes
62
50
10
0.0
20
0.0
30
0.0
70
128
71
47
72
79
73
80
74
48
0
VERTEX
8
Meshes
62
50
10
0.0
20
0.0
30
0.0
70
128
71
48
72
80
73
81
74
49
0
VERTEX
8
Meshes
62
50
10
0.0
20
0.0
30
0.0
70
128
71
49
72
81
73
82
74
50
0
VERTEX
8
Meshes
62
50
10
0.0
20
0.0
30
0.0
70
128
71
50
72
82
73
83
74
51
0
VERTEX
8
Meshes
62
50
10
0.0
20
0.0
30
0.0
70
128
71
51
72
83
73
84
74
52
0
VERTEX
8
Meshes
62
50
10
0.0
20
0.0
30
0.0
70
128
71
52
72
84
73
85
74
53
0
VERTEX
8
Meshes
62
50
10
0.0
20
0.0
30
0.0
70
128
71
53
72
85
73
86
74
54
0
VERTEX
8
Meshes
62
50
10
0.0
20
0.0
30
0.0
70
128
71
54
72
86
73
87
74
55
0
VERTEX
8
Meshes
62
50
10
0.0
20
0.0
30
0.0
70
128
71
55
72
87
73
88
74
56
0
VERTEX
8
Meshes
62
50
10
0.0
20
0.0
30
0.0
70
128
71
56
72
88
73
89
74
57
0
VERTEX
8
Meshes
62
50
10
0.0
20
0.0
30
0.0
70
128
71
57
72
89
73
90
74
58
0
VERTEX
8
Meshes
62
50
10
0.0
20
0.0
30
0.0
70
128
71
58
72
90
73
91
74
59
0
VERTEX
8
Meshes
62
50
10
0.0
20
0.0
30
0.0
70
128
71
59
72
91
73
92
74
60
0
VERTEX
8
Meshes
62
50
10
0.0
20
0.0
30
0.0
70
128
71
60
72
92
73
93
74
61
0
VERTEX
8
Meshes
62
50
10
0.0
20
0.0
30
0.0
70
128
71
61
72
93
73
94
74
62
0
VERTEX
8
Meshes
62
50
10
0.0
20
0.0
30
0.0
70
128
71
62
72
94
73
95
74
63
0
VERTEX
8
Meshes
62
50
10
0.0
20
0.0
30
0.0
70
128
71
63
72
95
73
96
74
64
0
VERTEX
8
Meshes
62
50
10
0.0
20
0.0
30
0.0
70
128
71
64
72
96
73
97
74
65
0
VERTEX
8
Meshes
62
50
10
0.0
20
0.0
30
0.0
70
128
71
65
72
97
73
98
74
66
0
VERTEX
8
Meshes
62
50
10
0.0
20
0.0
30
0.0
70
128
71
66
72
98
73
99
74
67
0
VERTEX
8
Meshes
62
50
10
0.0
20
0.0
30
0.0
70
128
71
67
72
99
73
100
74
68
0
VERTEX
8
Meshes
62
50
10
0.0
20
0.0
30
0.0
70
128
71
68
72
100
73
101
74
69
0
VERTEX
8
Meshes
62
50
10
0.0
20
0.0
30
0.0
70
128
71
69
72
101
73
102
74
70
0
VERTEX
8
Meshes
62
50
10
0.0
20
0.0
30
0.0
70
128
71
70
72
102
73
103
74
71
0
VERTEX
8
Meshes
62
50
10
0.0
20
0.0
30
0.0
70
128
71
71
72
103
73
104
74
72
0
VERTEX
8
Meshes
62
50
10
0.0
20
0.0
30
0.0
70
128
71
73
72
41
73
72
74
104
0
VERTEX
8
Meshes
62
50
10
0.0
20
0.0
30
0.0
70
128
71
101
72
100
73
103
74
102
0
VERTEX
8
Meshes
62
50
10
0.0
20
0.0
30
0.0
70
128
71
100
72
99
73
104
74
103
0
VERTEX
8
Meshes
62
50
10
0.0
20
0.0
30
0.0
70
128
71
99
72
98
73
73
74
104
0
VERTEX
8
Meshes
62
50
10
0.0
20
0.0
30
0.0
70
128
71
98
72
97
73
74
74
73
0
VERTEX
8
Meshes
62
50
10
0.0
20
0.0
30
0.0
70
128
71
97
72
96
73
75
74
74
0
VERTEX
8
Meshes
62
50
10
0.0
20
0.0
30
0.0
70
128
71
96
72
95
73
76
74
75
0
VERTEX
8
Meshes
62
50
10
0.0
20
0.0
30
0.0
70
128
71
95
72
94
73
77
74
76
0
VERTEX
8
Meshes
62
50
10
0.0
20
0.0
30
0.0
70
128
71
94
72
93
73
78
74
77
0
VERTEX
8
Meshes
62
50
10
0.0
20
0.0
30
0.0
70
128
71
93
72
92
73
79
74
78
0
VERTEX
8
Meshes
62
50
10
0.0
20
0.0
30
0.0
70
128
71
92
72
91
73
80
74
79
0
VERTEX
8
Meshes
62
50
10
0.0
20
0.0
30
0.0
70
128
71
91
72
90
73
81
74
80
0
VERTEX
8
Meshes
62
50
10
0.0
20
0.0
30
0.0
70
128
71
90
72
89
73
82
74
81
0
VERTEX
8
Meshes
62
50
10
0.0
20
0.0
30
0.0
70
128
71
89
72
88
73
83
74
82
0
VERTEX
8
Meshes
62
50
10
0.0
20
0.0
30
0.0
70
128
71
88
72
87
73
84
74
83
0
VERTEX
8
Meshes
62
50
10
0.0
20
0.0
30
0.0
70
128
71
87
72
86
73
85
74
84
0
VERTEX
8
Meshes
62
50
10
0.0
20
0.0
30
0.0
70
128
71
119
72
105
73
134
74
120
0
VERTEX
8
Meshes
62
50
10
0.0
20
0.0
30
0.0
70
128
71
119
72
118
73
121
74
120
0
VERTEX
8
Meshes
62
50
10
0.0
20
0.0
30
0.0
70
128
71
118
72
117
73
122
74
121
0
VERTEX
8
Meshes
62
50
10
0.0
20
0.0
30
0.0
70
128
71
117
72
116
73
123
74
122
0
VERTEX
8
Meshes
62
50
10
0.0
20
0.0
30
0.0
70
128
71
114
72
115
73
124
74
125
0
VERTEX
8
Meshes
62
50
10
0.0
20
0.0
30
0.0
70
128
71
114
72
113
73
126
74
125
0
VERTEX
8
Meshes
62
50
10
0.0
20
0.0
30
0.0
70
128
71
113
72
112
73
127
74
126
0
VERTEX
8
Meshes
62
50
10
0.0
20
0.0
30
0.0
70
128
71
112
72
111
73
128
74
127
0
VERTEX
8
Meshes
62
50
10
0.0
20
0.0
30
0.0
70
128
71
111
72
110
73
129
74
128
0
VERTEX
8
Meshes
62
50
10
0.0
20
0.0
30
0.0
70
128
71
110
72
109
73
130
74
129
0
VERTEX
8
Meshes
62
50
10
0.0
20
0.0
30
0.0
70
128
71
108
72
109
73
130
74
131
0
VERTEX
8
Meshes
62
50
10
0.0
20
0.0
30
0.0
70
128
71
108
72
107
73
132
74
131
0
VERTEX
8
Meshes
62
50
10
0.0
20
0.0
30
0.0
70
128
71
107
72
106
73
133
74
132
0
VERTEX
8
Meshes
62
50
10
0.0
20
0.0
30
0.0
70
128
71
106
72
105
73
134
74
133
0
VERTEX
8
Meshes
62
50
10
0.0
20
0.0
30
0.0
70
128
71
133
72
134
73
135
74
136
0
VERTEX
8
Meshes
62
50
10
0.0
20
0.0
30
0.0
70
128
71
132
72
133
73
136
74
137
0
VERTEX
8
Meshes
62
50
10
0.0
20
0.0
30
0.0
70
128
71
131
72
132
73
137
74
138
0
VERTEX
8
Meshes
62
50
10
0.0
20
0.0
30
0.0
70
128
71
131
72
130
73
139
74
138
0
VERTEX
8
Meshes
62
50
10
0.0
20
0.0
30
0.0
70
128
71
129
72
130
73
139
74
140
0
VERTEX
8
Meshes
62
50
10
0.0
20
0.0
30
0.0
70
128
71
128
72
129
73
140
74
141
0
VERTEX
8
Meshes
62
50
10
0.0
20
0.0
30
0.0
70
128
71
127
72
128
73
141
74
142
0
VERTEX
8
Meshes
62
50
10
0.0
20
0.0
30
0.0
70
128
71
126
72
127
73
142
74
143
0
VERTEX
8
Meshes
62
50
10
0.0
20
0.0
30
0.0
70
128
71
125
72
126
73
143
74
144
0
VERTEX
8
Meshes
62
50
10
0.0
20
0.0
30
0.0
70
128
71
125
72
124
73
145
74
144
0
VERTEX
8
Meshes
62
50
10
0.0
20
0.0
30
0.0
70
128
71
124
72
115
73
154
74
145
0
VERTEX
8
Meshes
62
50
10
0.0
20
0.0
30
0.0
70
128
71
122
72
123
73
146
74
147
0
VERTEX
8
Meshes
62
50
10
0.0
20
0.0
30
0.0
70
128
71
121
72
122
73
147
74
148
0
VERTEX
8
Meshes
62
50
10
0.0
20
0.0
30
0.0
70
128
71
120
72
121
73
148
74
149
0
VERTEX
8
Meshes
62
50
10
0.0
20
0.0
30
0.0
70
128
71
120
72
134
73
135
74
149
0
VERTEX
8
Meshes
62
50
10
0.0
20
0.0
30
0.0
70
128
71
119
72
105
73
164
74
150
0
VERTEX
8
Meshes
62
50
10
0.0
20
0.0
30
0.0
70
128
71
119
72
118
73
151
74
150
0
VERTEX
8
Meshes
62
50
10
0.0
20
0.0
30
0.0
70
128
71
118
72
117
73
152
74
151
0
VERTEX
8
Meshes
62
50
10
0.0
20
0.0
30
0.0
70
128
71
117
72
116
73
153
74
152
0
VERTEX
8
Meshes
62
50
10
0.0
20
0.0
30
0.0
70
128
71
114
72
115
73
154
74
155
0
VERTEX
8
Meshes
62
50
10
0.0
20
0.0
30
0.0
70
128
71
114
72
113
73
156
74
155
0
VERTEX
8
Meshes
62
50
10
0.0
20
0.0
30
0.0
70
128
71
113
72
112
73
157
74
156
0
VERTEX
8
Meshes
62
50
10
0.0
20
0.0
30
0.0
70
128
71
112
72
111
73
158
74
157
0
VERTEX
8
Meshes
62
50
10
0.0
20
0.0
30
0.0
70
128
71
111
72
110
73
159
74
158
0
VERTEX
8
Meshes
62
50
10
0.0
20
0.0
30
0.0
70
128
71
110
72
109
73
160
74
159
0
VERTEX
8
Meshes
62
50
10
0.0
20
0.0
30
0.0
70
128
71
108
72
109
73
160
74
161
0
VERTEX
8
Meshes
62
50
10
0.0
20
0.0
30
0.0
70
128
71
108
72
107
73
162
74
161
0
VERTEX
8
Meshes
62
50
10
0.0
20
0.0
30
0.0
70
128
71
107
72
106
73
163
74
162
0
VERTEX
8
Meshes
62
50
10
0.0
20
0.0
30
0.0
70
128
71
106
72
105
73
164
74
163
0
VERTEX
8
Meshes
62
50
10
0.0
20
0.0
30
0.0
70
128
71
150
72
164
73
135
74
149
0
VERTEX
8
Meshes
62
50
10
0.0
20
0.0
30
0.0
70
128
71
150
72
151
73
148
74
149
0
VERTEX
8
Meshes
62
50
10
0.0
20
0.0
30
0.0
70
128
71
151
72
152
73
147
74
148
0
VERTEX
8
Meshes
62
50
10
0.0
20
0.0
30
0.0
70
128
71
152
72
153
73
146
74
147
0
VERTEX
8
Meshes
62
50
10
0.0
20
0.0
30
0.0
70
128
71
155
72
154
73
145
74
144
0
VERTEX
8
Meshes
62
50
10
0.0
20
0.0
30
0.0
70
128
71
155
72
156
73
143
74
144
0
VERTEX
8
Meshes
62
50
10
0.0
20
0.0
30
0.0
70
128
71
156
72
157
73
142
74
143
0
VERTEX
8
Meshes
62
50
10
0.0
20
0.0
30
0.0
70
128
71
157
72
158
73
141
74
142
0
VERTEX
8
Meshes
62
50
10
0.0
20
0.0
30
0.0
70
128
71
158
72
159
73
140
74
141
0
VERTEX
8
Meshes
62
50
10
0.0
20
0.0
30
0.0
70
128
71
159
72
160
73
139
74
140
0
VERTEX
8
Meshes
62
50
10
0.0
20
0.0
30
0.0
70
128
71
161
72
160
73
139
74
138
0
VERTEX
8
Meshes
62
50
10
0.0
20
0.0
30
0.0
70
128
71
161
72
162
73
137
74
138
0
VERTEX
8
Meshes
62
50
10
0.0
20
0.0
30
0.0
70
128
71
162
72
163
73
136
74
137
0
VERTEX
8
Meshes
62
50
10
0.0
20
0.0
30
0.0
70
128
71
163
72
164
73
135
74
136
0
VERTEX
8
Meshes
62
50
10
0.0
20
0.0
30
0.0
70
128
71
211
72
168
73
250
0
VERTEX
8
Meshes
62
50
10
0.0
20
0.0
30
0.0
70
128
71
250
72
168
73
169
74
249
0
VERTEX
8
Meshes
62
50
10
0.0
20
0.0
30
0.0
70
128
71
249
72
169
73
170
74
248
0
VERTEX
8
Meshes
62
50
10
0.0
20
0.0
30
0.0
70
128
71
248
72
170
73
171
74
167
0
VERTEX
8
Meshes
62
50
10
0.0
20
0.0
30
0.0
70
128
71
167
72
171
73
172
74
166
0
VERTEX
8
Meshes
62
50
10
0.0
20
0.0
30
0.0
70
128
71
173
72
165
73
166
74
172
0
VERTEX
8
Meshes
62
50
10
0.0
20
0.0
30
0.0
70
128
71
165
72
173
73
174
74
247
0
VERTEX
8
Meshes
62
50
10
0.0
20
0.0
30
0.0
70
128
71
247
72
174
73
203
0
VERTEX
8
Meshes
62
50
10
0.0
20
0.0
30
0.0
70
128
71
174
72
175
73
203
0
VERTEX
8
Meshes
62
50
10
0.0
20
0.0
30
0.0
70
128
71
173
72
176
73
175
74
174
0
VERTEX
8
Meshes
62
50
10
0.0
20
0.0
30
0.0
70
128
71
172
72
177
73
176
74
173
0
VERTEX
8
Meshes
62
50
10
0.0
20
0.0
30
0.0
70
128
71
171
72
178
73
177
74
172
0
VERTEX
8
Meshes
62
50
10
0.0
20
0.0
30
0.0
70
128
71
170
72
179
73
178
74
171
0
VERTEX
8
Meshes
62
50
10
0.0
20
0.0
30
0.0
70
128
71
169
72
180
73
179
74
170
0
VERTEX
8
Meshes
62
50
10
0.0
20
0.0
30
0.0
70
128
71
168
72
181
73
180
74
169
0
VERTEX
8
Meshes
62
50
10
0.0
20
0.0
30
0.0
70
128
71
211
72
181
73
168
0
VERTEX
8
Meshes
62
50
10
0.0
20
0.0
30
0.0
70
128
71
211
72
182
73
181
0
VERTEX
8
Meshes
62
50
10
0.0
20
0.0
30
0.0
70
128
71
181
72
182
73
183
74
180
0
VERTEX
8
Meshes
62
50
10
0.0
20
0.0
30
0.0
70
128
71
180
72
183
73
184
74
179
0
VERTEX
8
Meshes
62
50
10
0.0
20
0.0
30
0.0
70
128
71
179
72
184
73
185
74
178
0
VERTEX
8
Meshes
62
50
10
0.0
20
0.0
30
0.0
70
128
71
178
72
185
73
186
74
177
0
VERTEX
8
Meshes
62
50
10
0.0
20
0.0
30
0.0
70
128
71
177
72
186
73
187
74
176
0
VERTEX
8
Meshes
62
50
10
0.0
20
0.0
30
0.0
70
128
71
176
72
187
73
188
74
175
0
VERTEX
8
Meshes
62
50
10
0.0
20
0.0
30
0.0
70
128
71
175
72
188
73
203
0
VERTEX
8
Meshes
62
50
10
0.0
20
0.0
30
0.0
70
128
71
188
72
189
73
203
0
VERTEX
8
Meshes
62
50
10
0.0
20
0.0
30
0.0
70
128
71
187
72
190
73
189
74
188
0
VERTEX
8
Meshes
62
50
10
0.0
20
0.0
30
0.0
70
128
71
186
72
191
73
190
74
187
0
VERTEX
8
Meshes
62
50
10
0.0
20
0.0
30
0.0
70
128
71
185
72
192
73
191
74
186
0
VERTEX
8
Meshes
62
50
10
0.0
20
0.0
30
0.0
70
128
71
184
72
193
73
192
74
185
0
VERTEX
8
Meshes
62
50
10
0.0
20
0.0
30
0.0
70
128
71
183
72
194
73
193
74
184
0
VERTEX
8
Meshes
62
50
10
0.0
20
0.0
30
0.0
70
128
71
182
72
195
73
194
74
183
0
VERTEX
8
Meshes
62
50
10
0.0
20
0.0
30
0.0
70
128
71
211
72
195
73
182
0
VERTEX
8
Meshes
62
50
10
0.0
20
0.0
30
0.0
70
128
71
211
72
196
73
195
0
VERTEX
8
Meshes
62
50
10
0.0
20
0.0
30
0.0
70
128
71
195
72
196
73
197
74
194
0
VERTEX
8
Meshes
62
50
10
0.0
20
0.0
30
0.0
70
128
71
194
72
197
73
198
74
193
0
VERTEX
8
Meshes
62
50
10
0.0
20
0.0
30
0.0
70
128
71
193
72
198
73
199
74
192
0
VERTEX
8
Meshes
62
50
10
0.0
20
0.0
30
0.0
70
128
71
192
72
199
73
200
74
191
0
VERTEX
8
Meshes
62
50
10
0.0
20
0.0
30
0.0
70
128
71
191
72
200
73
201
74
190
0
VERTEX
8
Meshes
62
50
10
0.0
20
0.0
30
0.0
70
128
71
190
72
201
73
202
74
189
0
VERTEX
8
Meshes
62
50
10
0.0
20
0.0
30
0.0
70
128
71
189
72
202
73
203
0
VERTEX
8
Meshes
62
50
10
0.0
20
0.0
30
0.0
70
128
71
202
72
204
73
203
0
VERTEX
8
Meshes
62
50
10
0.0
20
0.0
30
0.0
70
128
71
201
72
205
73
204
74
202
0
VERTEX
8
Meshes
62
50
10
0.0
20
0.0
30
0.0
70
128
71
200
72
206
73
205
74
201
0
VERTEX
8
Meshes
62
50
10
0.0
20
0.0
30
0.0
70
128
71
199
72
207
73
206
74
200
0
VERTEX
8
Meshes
62
50
10
0.0
20
0.0
30
0.0
70
128
71
198
72
208
73
207
74
199
0
VERTEX
8
Meshes
62
50
10
0.0
20
0.0
30
0.0
70
128
71
197
72
209
73
208
74
198
0
VERTEX
8
Meshes
62
50
10
0.0
20
0.0
30
0.0
70
128
71
196
72
210
73
209
74
197
0
VERTEX
8
Meshes
62
50
10
0.0
20
0.0
30
0.0
70
128
71
211
72
210
73
196
0
VERTEX
8
Meshes
62
50
10
0.0
20
0.0
30
0.0
70
128
71
211
72
212
73
210
0
VERTEX
8
Meshes
62
50
10
0.0
20
0.0
30
0.0
70
128
71
210
72
212
73
213
74
209
0
VERTEX
8
Meshes
62
50
10
0.0
20
0.0
30
0.0
70
128
71
209
72
213
73
214
74
208
0
VERTEX
8
Meshes
62
50
10
0.0
20
0.0
30
0.0
70
128
71
208
72
214
73
215
74
207
0
VERTEX
8
Meshes
62
50
10
0.0
20
0.0
30
0.0
70
128
71
207
72
215
73
216
74
206
0
VERTEX
8
Meshes
62
50
10
0.0
20
0.0
30
0.0
70
128
71
206
72
216
73
217
74
205
0
VERTEX
8
Meshes
62
50
10
0.0
20
0.0
30
0.0
70
128
71
205
72
217
73
218
74
204
0
VERTEX
8
Meshes
62
50
10
0.0
20
0.0
30
0.0
70
128
71
204
72
218
73
203
0
VERTEX
8
Meshes
62
50
10
0.0
20
0.0
30
0.0
70
128
71
218
72
219
73
203
0
VERTEX
8
Meshes
62
50
10
0.0
20
0.0
30
0.0
70
128
71
217
72
220
73
219
74
218
0
VERTEX
8
Meshes
62
50
10
0.0
20
0.0
30
0.0
70
128
71
216
72
221
73
220
74
217
0
VERTEX
8
Meshes
62
50
10
0.0
20
0.0
30
0.0
70
128
71
215
72
222
73
221
74
216
0
VERTEX
8
Meshes
62
50
10
0.0
20
0.0
30
0.0
70
128
71
214
72
223
73
222
74
215
0
VERTEX
8
Meshes
62
50
10
0.0
20
0.0
30
0.0
70
128
71
213
72
224
73
223
74
214
0
VERTEX
8
Meshes
62
50
10
0.0
20
0.0
30
0.0
70
128
71
212
72
225
73
224
74
213
0
VERTEX
8
Meshes
62
50
10
0.0
20
0.0
30
0.0
70
128
71
211
72
225
73
212
0
VERTEX
8
Meshes
62
50
10
0.0
20
0.0
30
0.0
70
128
71
211
72
226
73
225
0
VERTEX
8
Meshes
62
50
10
0.0
20
0.0
30
0.0
70
128
71
225
72
226
73
227
74
224
0
VERTEX
8
Meshes
62
50
10
0.0
20
0.0
30
0.0
70
128
71
224
72
227
73
228
74
223
0
VERTEX
8
Meshes
62
50
10
0.0
20
0.0
30
0.0
70
128
71
223
72
228
73
229
74
222
0
VERTEX
8
Meshes
62
50
10
0.0
20
0.0
30
0.0
70
128
71
222
72
229
73
230
74
221
0
VERTEX
8
Meshes
62
50
10
0.0
20
0.0
30
0.0
70
128
71
221
72
230
73
231
74
220
0
VERTEX
8
Meshes
62
50
10
0.0
20
0.0
30
0.0
70
128
71
220
72
231
73
232
74
219
0
VERTEX
8
Meshes
62
50
10
0.0
20
0.0
30
0.0
70
128
71
219
72
232
73
203
0
VERTEX
8
Meshes
62
50
10
0.0
20
0.0
30
0.0
70
128
71
232
72
233
73
203
0
VERTEX
8
Meshes
62
50
10
0.0
20
0.0
30
0.0
70
128
71
231
72
234
73
233
74
232
0
VERTEX
8
Meshes
62
50
10
0.0
20
0.0
30
0.0
70
128
71
230
72
235
73
234
74
231
0
VERTEX
8
Meshes
62
50
10
0.0
20
0.0
30
0.0
70
128
71
229
72
236
73
235
74
230
0
VERTEX
8
Meshes
62
50
10
0.0
20
0.0
30
0.0
70
128
71
228
72
237
73
236
74
229
0
VERTEX
8
Meshes
62
50
10
0.0
20
0.0
30
0.0
70
128
71
227
72
238
73
237
74
228
0
VERTEX
8
Meshes
62
50
10
0.0
20
0.0
30
0.0
70
128
71
226
72
239
73
238
74
227
0
VERTEX
8
Meshes
62
50
10
0.0
20
0.0
30
0.0
70
128
71
211
72
239
73
226
0
VERTEX
8
Meshes
62
50
10
0.0
20
0.0
30
0.0
70
128
71
211
72
240
73
239
0
VERTEX
8
Meshes
62
50
10
0.0
20
0.0
30
0.0
70
128
71
239
72
240
73
241
74
238
0
VERTEX
8
Meshes
62
50
10
0.0
20
0.0
30
0.0
70
128
71
238
72
241
73
242
74
237
0
VERTEX
8
Meshes
62
50
10
0.0
20
0.0
30
0.0
70
128
71
237
72
242
73
243
74
236
0
VERTEX
8
Meshes
62
50
10
0.0
20
0.0
30
0.0
70
128
71
236
72
243
73
244
74
235
0
VERTEX
8
Meshes
62
50
10
0.0
20
0.0
30
0.0
70
128
71
235
72
244
73
245
74
234
0
VERTEX
8
Meshes
62
50
10
0.0
20
0.0
30
0.0
70
128
71
234
72
245
73
246
74
233
0
VERTEX
8
Meshes
62
50
10
0.0
20
0.0
30
0.0
70
128
71
233
72
246
73
203
0
VERTEX
8
Meshes
62
50
10
0.0
20
0.0
30
0.0
70
128
71
246
72
247
73
203
0
VERTEX
8
Meshes
62
50
10
0.0
20
0.0
30
0.0
70
128
71
245
72
165
73
247
74
246
0
VERTEX
8
Meshes
62
50
10
0.0
20
0.0
30
0.0
70
128
71
165
72
245
73
244
74
166
0
VERTEX
8
Meshes
62
50
10
0.0
20
0.0
30
0.0
70
128
71
243
72
167
73
166
74
244
0
VERTEX
8
Meshes
62
50
10
0.0
20
0.0
30
0.0
70
128
71
242
72
248
73
167
74
243
0
VERTEX
8
Meshes
62
50
10
0.0
20
0.0
30
0.0
70
128
71
241
72
249
73
248
74
242
0
VERTEX
8
Meshes
62
50
10
0.0
20
0.0
30
0.0
70
128
71
240
72
250
73
249
74
241
0
VERTEX
8
Meshes
62
50
10
0.0
20
0.0
30
0.0
70
128
71
211
72
250
73
240
0
VERTEX
8
Meshes
62
170
10
0.0
20
0.0
30
0.0
70
128
71
251
72
283
73
284
74
252
0
VERTEX
8
Meshes
62
170
10
0.0
20
0.0
30
0.0
70
128
71
252
72
284
73
285
74
253
0
VERTEX
8
Meshes
62
170
10
0.0
20
0.0
30
0.0
70
128
71
253
72
285
73
286
74
254
0
VERTEX
8
Meshes
62
170
10
0.0
20
0.0
30
0.0
70
128
71
254
72
286
73
287
74
255
0
VERTEX
8
Meshes
62
170
10
0.0
20
0.0
30
0.0
70
128
71
255
72
287
73
288
74
256
0
VERTEX
8
Meshes
62
170
10
0.0
20
0.0
30
0.0
70
128
71
256
72
288
73
289
74
257
0
VERTEX
8
Meshes
62
170
10
0.0
20
0.0
30
0.0
70
128
71
257
72
289
73
290
74
258
0
VERTEX
8
Meshes
62
170
10
0.0
20
0.0
30
0.0
70
128
71
258
72
290
73
291
74
259
0
VERTEX
8
Meshes
62
170
10
0.0
20
0.0
30
0.0
70
128
71
259
72
291
73
292
74
260
0
VERTEX
8
Meshes
62
170
10
0.0
20
0.0
30
0.0
70
128
71
260
72
292
73
293
74
261
0
VERTEX
8
Meshes
62
170
10
0.0
20
0.0
30
0.0
70
128
71
261
72
293
73
294
74
262
0
VERTEX
8
Meshes
62
170
10
0.0
20
0.0
30
0.0
70
128
71
262
72
294
73
295
74
263
0
VERTEX
8
Meshes
62
170
10
0.0
20
0.0
30
0.0
70
128
71
263
72
295
73
296
74
264
0
VERTEX
8
Meshes
62
170
10
0.0
20
0.0
30
0.0
70
128
71
264
72
296
73
297
74
265
0
VERTEX
8
Meshes
62
170
10
0.0
20
0.0
30
0.0
70
128
71
265
72
297
73
298
74
266
0
VERTEX
8
Meshes
62
170
10
0.0
20
0.0
30
0.0
70
128
71
266
72
298
73
299
74
267
0
VERTEX
8
Meshes
62
170
10
0.0
20
0.0
30
0.0
70
128
71
267
72
299
73
300
74
268
0
VERTEX
8
Meshes
62
170
10
0.0
20
0.0
30
0.0
70
128
71
268
72
300
73
301
74
269
0
VERTEX
8
Meshes
62
170
10
0.0
20
0.0
30
0.0
70
128
71
269
72
301
73
302
74
270
0
VERTEX
8
Meshes
62
170
10
0.0
20
0.0
30
0.0
70
128
71
270
72
302
73
303
74
271
0
VERTEX
8
Meshes
62
170
10
0.0
20
0.0
30
0.0
70
128
71
271
72
303
73
304
74
272
0
VERTEX
8
Meshes
62
170
10
0.0
20
0.0
30
0.0
70
128
71
272
72
304
73
305
74
273
0
VERTEX
8
Meshes
62
170
10
0.0
20
0.0
30
0.0
70
128
71
273
72
305
73
306
74
274
0
VERTEX
8
Meshes
62
170
10
0.0
20
0.0
30
0.0
70
128
71
274
72
306
73
307
74
275
0
VERTEX
8
Meshes
62
170
10
0.0
20
0.0
30
0.0
70
128
71
275
72
307
73
308
74
276
0
VERTEX
8
Meshes
62
170
10
0.0
20
0.0
30
0.0
70
128
71
276
72
308
73
309
74
277
0
VERTEX
8
Meshes
62
170
10
0.0
20
0.0
30
0.0
70
128
71
277
72
309
73
310
74
278
0
VERTEX
8
Meshes
62
170
10
0.0
20
0.0
30
0.0
70
128
71
278
72
310
73
311
74
279
0
VERTEX
8
Meshes
62
170
10
0.0
20
0.0
30
0.0
70
128
71
279
72
311
73
312
74
280
0
VERTEX
8
Meshes
62
170
10
0.0
20
0.0
30
0.0
70
128
71
280
72
312
73
313
74
281
0
VERTEX
8
Meshes
62
170
10
0.0
20
0.0
30
0.0
70
128
71
281
72
313
73
314
74
282
0
VERTEX
8
Meshes
62
170
10
0.0
20
0.0
30
0.0
70
128
71
283
72
251
73
282
74
314
0
VERTEX
8
Meshes
62
170
10
0.0
20
0.0
30
0.0
70
128
71
311
72
310
73
313
74
312
0
VERTEX
8
Meshes
62
170
10
0.0
20
0.0
30
0.0
70
128
71
310
72
309
73
314
74
313
0
VERTEX
8
Meshes
62
170
10
0.0
20
0.0
30
0.0
70
128
71
309
72
308
73
283
74
314
0
VERTEX
8
Meshes
62
170
10
0.0
20
0.0
30
0.0
70
128
71
308
72
307
73
284
74
283
0
VERTEX
8
Meshes
62
170
10
0.0
20
0.0
30
0.0
70
128
71
307
72
306
73
285
74
284
0
VERTEX
8
Meshes
62
170
10
0.0
20
0.0
30
0.0
70
128
71
306
72
305
73
286
74
285
0
VERTEX
8
Meshes
62
170
10
0.0
20
0.0
30
0.0
70
128
71
305
72
304
73
287
74
286
0
VERTEX
8
Meshes
62
170
10
0.0
20
0.0
30
0.0
70
128
71
304
72
303
73
288
74
287
0
VERTEX
8
Meshes
62
170
10
0.0
20
0.0
30
0.0
70
128
71
303
72
302
73
289
74
288
0
VERTEX
8
Meshes
62
170
10
0.0
20
0.0
30
0.0
70
128
71
302
72
301
73
290
74
289
0
VERTEX
8
Meshes
62
170
10
0.0
20
0.0
30
0.0
70
128
71
301
72
300
73
291
74
290
0
VERTEX
8
Meshes
62
170
10
0.0
20
0.0
30
0.0
70
128
71
300
72
299
73
292
74
291
0
VERTEX
8
Meshes
62
170
10
0.0
20
0.0
30
0.0
70
128
71
299
72
298
73
293
74
292
0
VERTEX
8
Meshes
62
170
10
0.0
20
0.0
30
0.0
70
128
71
298
72
297
73
294
74
293
0
VERTEX
8
Meshes
62
170
10
0.0
20
0.0
30
0.0
70
128
71
297
72
296
73
295
74
294
0
VERTEX
8
Meshes
62
170
10
0.0
20
0.0
30
0.0
70
128
71
329
72
315
73
344
74
330
0
VERTEX
8
Meshes
62
170
10
0.0
20
0.0
30
0.0
70
128
71
329
72
328
73
331
74
330
0
VERTEX
8
Meshes
62
170
10
0.0
20
0.0
30
0.0
70
128
71
328
72
327
73
332
74
331
0
VERTEX
8
Meshes
62
170
10
0.0
20
0.0
30
0.0
70
128
71
327
72
326
73
333
74
332
0
VERTEX
8
Meshes
62
170
10
0.0
20
0.0
30
0.0
70
128
71
324
72
325
73
334
74
335
0
VERTEX
8
Meshes
62
170
10
0.0
20
0.0
30
0.0
70
128
71
324
72
323
73
336
74
335
0
VERTEX
8
Meshes
62
170
10
0.0
20
0.0
30
0.0
70
128
71
323
72
322
73
337
74
336
0
VERTEX
8
Meshes
62
170
10
0.0
20
0.0
30
0.0
70
128
71
322
72
321
73
338
74
337
0
VERTEX
8
Meshes
62
170
10
0.0
20
0.0
30
0.0
70
128
71
321
72
320
73
339
74
338
0
VERTEX
8
Meshes
62
170
10
0.0
20
0.0
30
0.0
70
128
71
320
72
319
73
340
74
339
0
VERTEX
8
Meshes
62
170
10
0.0
20
0.0
30
0.0
70
128
71
318
72
319
73
340
74
341
0
VERTEX
8
Meshes
62
170
10
0.0
20
0.0
30
0.0
70
128
71
318
72
317
73
342
74
341
0
VERTEX
8
Meshes
62
170
10
0.0
20
0.0
30
0.0
70
128
71
317
72
316
73
343
74
342
0
VERTEX
8
Meshes
62
170
10
0.0
20
0.0
30
0.0
70
128
71
316
72
315
73
344
74
343
0
VERTEX
8
Meshes
62
170
10
0.0
20
0.0
30
0.0
70
128
71
343
72
344
73
345
74
346
0
VERTEX
8
Meshes
62
170
10
0.0
20
0.0
30
0.0
70
128
71
342
72
343
73
346
74
347
0
VERTEX
8
Meshes
62
170
10
0.0
20
0.0
30
0.0
70
128
71
341
72
342
73
347
74
348
0
VERTEX
8
Meshes
62
170
10
0.0
20
0.0
30
0.0
70
128
71
341
72
340
73
349
74
348
0
VERTEX
8
Meshes
62
170
10
0.0
20
0.0
30
0.0
70
128
71
339
72
340
73
349
74
350
0
VERTEX
8
Meshes
62
170
10
0.0
20
0.0
30
0.0
70
128
71
338
72
339
73
350
74
351
0
VERTEX
8
Meshes
62
170
10
0.0
20
0.0
30
0.0
70
128
71
337
72
338
73
351
74
352
0
VERTEX
8
Meshes
62
170
10
0.0
20
0.0
30
0.0
70
128
71
336
72
337
73
352
74
353
0
VERTEX
8
Meshes
62
170
10
0.0
20
0.0
30
0.0
70
128
71
335
72
336
73
353
74
354
0
VERTEX
8
Meshes
62
170
10
0.0
20
0.0
30
0.0
70
128
71
335
72
334
73
355
74
354
0
VERTEX
8
Meshes
62
170
10
0.0
20
0.0
30
0.0
70
128
71
334
72
325
73
364
74
355
0
VERTEX
8
Meshes
62
170
10
0.0
20
0.0
30
0.0
70
128
71
332
72
333
73
356
74
357
0
VERTEX
8
Meshes
62
170
10
0.0
20
0.0
30
0.0
70
128
71
331
72
332
73
357
74
358
0
VERTEX
8
Meshes
62
170
10
0.0
20
0.0
30
0.0
70
128
71
330
72
331
73
358
74
359
0
VERTEX
8
Meshes
62
170
10
0.0
20
0.0
30
0.0
70
128
71
330
72
344
73
345
74
359
0
VERTEX
8
Meshes
62
170
10
0.0
20
0.0
30
0.0
70
128
71
329
72
315
73
374
74
360
0
VERTEX
8
Meshes
62
170
10
0.0
20
0.0
30
0.0
70
128
71
329
72
328
73
361
74
360
0
VERTEX
8
Meshes
62
170
10
0.0
20
0.0
30
0.0
70
128
71
328
72
327
73
362
74
361
0
VERTEX
8
Meshes
62
170
10
0.0
20
0.0
30
0.0
70
128
71
327
72
326
73
363
74
362
0
VERTEX
8
Meshes
62
170
10
0.0
20
0.0
30
0.0
70
128
71
324
72
325
73
364
74
365
0
VERTEX
8
Meshes
62
170
10
0.0
20
0.0
30
0.0
70
128
71
324
72
323
73
366
74
365
0
VERTEX
8
Meshes
62
170
10
0.0
20
0.0
30
0.0
70
128
71
323
72
322
73
367
74
366
0
VERTEX
8
Meshes
62
170
10
0.0
20
0.0
30
0.0
70
128
71
322
72
321
73
368
74
367
0
VERTEX
8
Meshes
62
170
10
0.0
20
0.0
30
0.0
70
128
71
321
72
320
73
369
74
368
0
VERTEX
8
Meshes
62
170
10
0.0
20
0.0
30
0.0
70
128
71
320
72
319
73
370
74
369
0
VERTEX
8
Meshes
62
170
10
0.0
20
0.0
30
0.0
70
128
71
318
72
319
73
370
74
371
0
VERTEX
8
Meshes
62
170
10
0.0
20
0.0
30
0.0
70
128
71
318
72
317
73
372
74
371
0
VERTEX
8
Meshes
62
170
10
0.0
20
0.0
30
0.0
70
128
71
317
72
316
73
373
74
372
0
VERTEX
8
Meshes
62
170
10
0.0
20
0.0
30
0.0
70
128
71
316
72
315
73
374
74
373
0
VERTEX
8
Meshes
62
170
10
0.0
20
0.0
30
0.0
70
128
71
360
72
374
73
345
74
359
0
VERTEX
8
Meshes
62
170
10
0.0
20
0.0
30
0.0
70
128
71
360
72
361
73
358
74
359
0
VERTEX
8
Meshes
62
170
10
0.0
20
0.0
30
0.0
70
128
71
361
72
362
73
357
74
358
0
VERTEX
8
Meshes
62
170
10
0.0
20
0.0
30
0.0
70
128
71
362
72
363
73
356
74
357
0
VERTEX
8
Meshes
62
170
10
0.0
20
0.0
30
0.0
70
128
71
365
72
364
73
355
74
354
0
VERTEX
8
Meshes
62
170
10
0.0
20
0.0
30
0.0
70
128
71
365
72
366
73
353
74
354
0
VERTEX
8
Meshes
62
170
10
0.0
20
0.0
30
0.0
70
128
71
366
72
367
73
352
74
353
0
VERTEX
8
Meshes
62
170
10
0.0
20
0.0
30
0.0
70
128
71
367
72
368
73
351
74
352
0
VERTEX
8
Meshes
62
170
10
0.0
20
0.0
30
0.0
70
128
71
368
72
369
73
350
74
351
0
VERTEX
8
Meshes
62
170
10
0.0
20
0.0
30
0.0
70
128
71
369
72
370
73
349
74
350
0
VERTEX
8
Meshes
62
170
10
0.0
20
0.0
30
0.0
70
128
71
371
72
370
73
349
74
348
0
VERTEX
8
Meshes
62
170
10
0.0
20
0.0
30
0.0
70
128
71
371
72
372
73
347
74
348
0
VERTEX
8
Meshes
62
170
10
0.0
20
0.0
30
0.0
70
128
71
372
72
373
73
346
74
347
0
VERTEX
8
Meshes
62
170
10
0.0
20
0.0
30
0.0
70
128
71
373
72
374
73
345
74
346
0
VERTEX
8
Meshes
62
170
10
0.0
20
0.0
30
0.0
70
128
71
421
72
378
73
460
0
VERTEX
8
Meshes
62
170
10
0.0
20
0.0
30
0.0
70
128
71
460
72
378
73
379
74
459
0
VERTEX
8
Meshes
62
170
10
0.0
20
0.0
30
0.0
70
128
71
459
72
379
73
380
74
458
0
VERTEX
8
Meshes
62
170
10
0.0
20
0.0
30
0.0
70
128
71
458
72
380
73
381
74
377
0
VERTEX
8
Meshes
62
170
10
0.0
20
0.0
30
0.0
70
128
71
377
72
381
73
382
74
376
0
VERTEX
8
Meshes
62
170
10
0.0
20
0.0
30
0.0
70
128
71
383
72
375
73
376
74
382
0
VERTEX
8
Meshes
62
170
10
0.0
20
0.0
30
0.0
70
128
71
375
72
383
73
384
74
457
0
VERTEX
8
Meshes
62
170
10
0.0
20
0.0
30
0.0
70
128
71
457
72
384
73
413
0
VERTEX
8
Meshes
62
170
10
0.0
20
0.0
30
0.0
70
128
71
384
72
385
73
413
0
VERTEX
8
Meshes
62
170
10
0.0
20
0.0
30
0.0
70
128
71
383
72
386
73
385
74
384
0
VERTEX
8
Meshes
62
170
10
0.0
20
0.0
30
0.0
70
128
71
382
72
387
73
386
74
383
0
VERTEX
8
Meshes
62
170
10
0.0
20
0.0
30
0.0
70
128
71
381
72
388
73
387
74
382
0
VERTEX
8
Meshes
62
170
10
0.0
20
0.0
30
0.0
70
128
71
380
72
389
73
388
74
381
0
VERTEX
8
Meshes
62
170
10
0.0
20
0.0
30
0.0
70
128
71
379
72
390
73
389
74
380
0
VERTEX
8
Meshes
62
170
10
0.0
20
0.0
30
0.0
70
128
71
378
72
391
73
390
74
379
0
VERTEX
8
Meshes
62
170
10
0.0
20
0.0
30
0.0
70
128
71
421
72
391
73
378
0
VERTEX
8
Meshes
62
170
10
0.0
20
0.0
30
0.0
70
128
71
421
72
392
73
391
0
VERTEX
8
Meshes
62
170
10
0.0
20
0.0
30
0.0
70
128
71
391
72
392
73
393
74
390
0
VERTEX
8
Meshes
62
170
10
0.0
20
0.0
30
0.0
70
128
71
390
72
393
73
394
74
389
0
VERTEX
8
Meshes
62
170
10
0.0
20
0.0
30
0.0
70
128
71
389
72
394
73
395
74
388
0
VERTEX
8
Meshes
62
170
10
0.0
20
0.0
30
0.0
70
128
71
388
72
395
73
396
74
387
0
VERTEX
8
Meshes
62
170
10
0.0
20
0.0
30
0.0
70
128
71
387
72
396
73
397
74
386
0
VERTEX
8
Meshes
62
170
10
0.0
20
0.0
30
0.0
70
128
71
386
72
397
73
398
74
385
0
VERTEX
8
Meshes
62
170
10
0.0
20
0.0
30
0.0
70
128
71
385
72
398
73
413
0
VERTEX
8
Meshes
62
170
10
0.0
20
0.0
30
0.0
70
128
71
398
72
399
73
413
0
VERTEX
8
Meshes
62
170
10
0.0
20
0.0
30
0.0
70
128
71
397
72
400
73
399
74
398
0
VERTEX
8
Meshes
62
170
10
0.0
20
0.0
30
0.0
70
128
71
396
72
401
73
400
74
397
0
VERTEX
8
Meshes
62
170
10
0.0
20
0.0
30
0.0
70
128
71
395
72
402
73
401
74
396
0
VERTEX
8
Meshes
62
170
10
0.0
20
0.0
30
0.0
70
128
71
394
72
403
73
402
74
395
0
VERTEX
8
Meshes
62
170
10
0.0
20
0.0
30
0.0
70
128
71
393
72
404
73
403
74
394
0
VERTEX
8
Meshes
62
170
10
0.0
20
0.0
30
0.0
70
128
71
392
72
405
73
404
74
393
0
VERTEX
8
Meshes
62
170
10
0.0
20
0.0
30
0.0
70
128
71
421
72
405
73
392
0
VERTEX
8
Meshes
62
170
10
0.0
20
0.0
30
0.0
70
128
71
421
72
406
73
405
0
VERTEX
8
Meshes
62
170
10
0.0
20
0.0
30
0.0
70
128
71
405
72
406
73
407
74
404
0
VERTEX
8
Meshes
62
170
10
0.0
20
0.0
30
0.0
70
128
71
404
72
407
73
408
74
403
0
VERTEX
8
Meshes
62
170
10
0.0
20
0.0
30
0.0
70
128
71
403
72
408
73
409
74
402
0
VERTEX
8
Meshes
62
170
10
0.0
20
0.0
30
0.0
70
128
71
402
72
409
73
410
74
401
0
VERTEX
8
Meshes
62
170
10
0.0
20
0.0
30
0.0
70
128
71
401
72
410
73
411
74
400
0
VERTEX
8
Meshes
62
170
10
0.0
20
0.0
30
0.0
70
128
71
400
72
411
73
412
74
399
0
VERTEX
8
Meshes
62
170
10
0.0
20
0.0
30
0.0
70
128
71
399
72
412
73
413
0
VERTEX
8
Meshes
62
170
10
0.0
20
0.0
30
0.0
70
128
71
412
72
414
73
413
0
VERTEX
8
Meshes
62
170
10
0.0
20
0.0
30
0.0
70
128
71
411
72
415
73
414
74
412
0
VERTEX
8
Meshes
62
170
10
0.0
20
0.0
30
0.0
70
128
71
410
72
416
73
415
74
411
0
VERTEX
8
Meshes
62
170
10
0.0
20
0.0
30
0.0
70
128
71
409
72
417
73
416
74
410
0
VERTEX
8
Meshes
62
170
10
0.0
20
0.0
30
0.0
70
128
71
408
72
418
73
417
74
409
0
VERTEX
8
Meshes
62
170
10
0.0
20
0.0
30
0.0
70
128
71
407
72
419
73
418
74
408
0
VERTEX
8
Meshes
62
170
10
0.0
20
0.0
30
0.0
70
128
71
406
72
420
73
419
74
407
0
VERTEX
8
Meshes
62
170
10
0.0
20
0.0
30
0.0
70
128
71
421
72
420
73
406
0
VERTEX
8
Meshes
62
170
10
0.0
20
0.0
30
0.0
70
128
71
421
72
422
73
420
0
VERTEX
8
Meshes
62
170
10
0.0
20
0.0
30
0.0
70
128
71
420
72
422
73
423
74
419
0
VERTEX
8
Meshes
62
170
10
0.0
20
0.0
30
0.0
70
128
71
419
72
423
73
424
74
418
0
VERTEX
8
Meshes
62
170
10
0.0
20
0.0
30
0.0
70
128
71
418
72
424
73
425
74
417
0
VERTEX
8
Meshes
62
170
10
0.0
20
0.0
30
0.0
70
128
71
417
72
425
73
426
74
416
0
VERTEX
8
Meshes
62
170
10
0.0
20
0.0
30
0.0
70
128
71
416
72
426
73
427
74
415
0
VERTEX
8
Meshes
62
170
10
0.0
20
0.0
30
0.0
70
128
71
415
72
427
73
428
74
414
0
VERTEX
8
Meshes
62
170
10
0.0
20
0.0
30
0.0
70
128
71
414
72
428
73
413
0
VERTEX
8
Meshes
62
170
10
0.0
20
0.0
30
0.0
70
128
71
428
72
429
73
413
0
VERTEX
8
Meshes
62
170
10
0.0
20
0.0
30
0.0
70
128
71
427
72
430
73
429
74
428
0
VERTEX
8
Meshes
62
170
10
0.0
20
0.0
30
0.0
70
128
71
426
72
431
73
430
74
427
0
VERTEX
8
Meshes
62
170
10
0.0
20
0.0
30
0.0
70
128
71
425
72
432
73
431
74
426
0
VERTEX
8
Meshes
62
170
10
0.0
20
0.0
30
0.0
70
128
71
424
72
433
73
432
74
425
0
VERTEX
8
Meshes
62
170
10
0.0
20
0.0
30
0.0
70
128
71
423
72
434
73
433
74
424
0
VERTEX
8
Meshes
62
170
10
0.0
20
0.0
30
0.0
70
128
71
422
72
435
73
434
74
423
0
VERTEX
8
Meshes
62
170
10
0.0
20
0.0
30
0.0
70
128
71
421
72
435
73
422
0
VERTEX
8
Meshes
62
170
10
0.0
20
0.0
30
0.0
70
128
71
421
72
436
73
435
0
VERTEX
8
Meshes
62
170
10
0.0
20
0.0
30
0.0
70
128
71
435
72
436
73
437
74
434
0
VERTEX
8
Meshes
62
170
10
0.0
20
0.0
30
0.0
70
128
71
434
72
437
73
438
74
433
0
VERTEX
8
Meshes
62
170
10
0.0
20
0.0
30
0.0
70
128
71
433
72
438
73
439
74
432
0
VERTEX
8
Meshes
62
170
10
0.0
20
0.0
30
0.0
70
128
71
432
72
439
73
440
74
431
0
VERTEX
8
Meshes
62
170
10
0.0
20
0.0
30
0.0
70
128
71
431
72
440
73
441
74
430
0
VERTEX
8
Meshes
62
170
10
0.0
20
0.0
30
0.0
70
128
71
430
72
441
73
442
74
429
0
VERTEX
8
Meshes
62
170
10
0.0
20
0.0
30
0.0
70
128
71
429
72
442
73
413
0
VERTEX
8
Meshes
62
170
10
0.0
20
0.0
30
0.0
70
128
71
442
72
443
73
413
0
VERTEX
8
Meshes
62
170
10
0.0
20
0.0
30
0.0
70
128
71
441
72
444
73
443
74
442
0
VERTEX
8
Meshes
62
170
10
0.0
20
0.0
30
0.0
70
128
71
440
72
445
73
444
74
441
0
VERTEX
8
Meshes
62
170
10
0.0
20
0.0
30
0.0
70
128
71
439
72
446
73
445
74
440
0
VERTEX
8
Meshes
62
170
10
0.0
20
0.0
30
0.0
70
128
71
438
72
447
73
446
74
439
0
VERTEX
8
Meshes
62
170
10
0.0
20
0.0
30
0.0
70
128
71
437
72
448
73
447
74
438
0
VERTEX
8
Meshes
62
170
10
0.0
20
0.0
30
0.0
70
128
71
436
72
449
73
448
74
437
0
VERTEX
8
Meshes
62
170
10
0.0
20
0.0
30
0.0
70
128
71
421
72
449
73
436
0
VERTEX
8
Meshes
62
170
10
0.0
20
0.0
30
0.0
70
128
71
421
72
450
73
449
0
VERTEX
8
Meshes
62
170
10
0.0
20
0.0
30
0.0
70
128
71
449
72
450
73
451
74
448
0
VERTEX
8
Meshes
62
170
10
0.0
20
0.0
30
0.0
70
128
71
448
72
451
73
452
74
447
0
VERTEX
8
Meshes
62
170
10
0.0
20
0.0
30
0.0
70
128
71
447
72
452
73
453
74
446
0
VERTEX
8
Meshes
62
170
10
0.0
20
0.0
30
0.0
70
128
71
446
72
453
73
454
74
445
0
VERTEX
8
Meshes
62
170
10
0.0
20
0.0
30
0.0
70
128
71
445
72
454
73
455
74
444
0
VERTEX
8
Meshes
62
170
10
0.0
20
0.0
30
0.0
70
128
71
444
72
455
73
456
74
443
0
VERTEX
8
Meshes
62
170
10
0.0
20
0.0
30
0.0
70
128
71
443
72
456
73
413
0
VERTEX
8
Meshes
62
170
10
0.0
20
0.0
30
0.0
70
128
71
456
72
457
73
413
0
VERTEX
8
Meshes
62
170
10
0.0
20
0.0
30
0.0
70
128
71
455
72
375
73
457
74
456
0
VERTEX
8
Meshes
62
170
10
0.0
20
0.0
30
0.0
70
128
71
375
72
455
73
454
74
376
0
VERTEX
8
Meshes
62
170
10
0.0
20
0.0
30
0.0
70
128
71
453
72
377
73
376
74
454
0
VERTEX
8
Meshes
62
170
10
0.0
20
0.0
30
0.0
70
128
71
452
72
458
73
377
74
453
0
VERTEX
8
Meshes
62
170
10
0.0
20
0.0
30
0.0
70
128
71
451
72
459
73
458
74
452
0
VERTEX
8
Meshes
62
170
10
0.0
20
0.0
30
0.0
70
128
71
450
72
460
73
459
74
451
0
VERTEX
8
Meshes
62
170
10
0.0
20
0.0
30
0.0
70
128
71
421
72
460
73
450
0
VERTEX
8
Meshes
62
90
10
0.0
20
0.0
30
0.0
70
128
71
507
72
464
73
546
0
VERTEX
8
Meshes
62
90
10
0.0
20
0.0
30
0.0
70
128
71
546
72
464
73
465
74
545
0
VERTEX
8
Meshes
62
90
10
0.0
20
0.0
30
0.0
70
128
71
545
72
465
73
466
74
544
0
VERTEX
8
Meshes
62
90
10
0.0
20
0.0
30
0.0
70
128
71
544
72
466
73
467
74
463
0
VERTEX
8
Meshes
62
90
10
0.0
20
0.0
30
0.0
70
128
71
463
72
467
73
468
74
462
0
VERTEX
8
Meshes
62
90
10
0.0
20
0.0
30
0.0
70
128
71
469
72
461
73
462
74
468
0
VERTEX
8
Meshes
62
90
10
0.0
20
0.0
30
0.0
70
128
71
461
72
469
73
470
74
543
0
VERTEX
8
Meshes
62
90
10
0.0
20
0.0
30
0.0
70
128
71
543
72
470
73
499
0
VERTEX
8
Meshes
62
90
10
0.0
20
0.0
30
0.0
70
128
71
470
72
471
73
499
0
VERTEX
8
Meshes
62
90
10
0.0
20
0.0
30
0.0
70
128
71
469
72
472
73
471
74
470
0
VERTEX
8
Meshes
62
90
10
0.0
20
0.0
30
0.0
70
128
71
468
72
473
73
472
74
469
0
VERTEX
8
Meshes
62
90
10
0.0
20
0.0
30
0.0
70
128
71
467
72
474
73
473
74
468
0
VERTEX
8
Meshes
62
90
10
0.0
20
0.0
30
0.0
70
128
71
466
72
475
73
474
74
467
0
VERTEX
8
Meshes
62
90
10
0.0
20
0.0
30
0.0
70
128
71
465
72
476
73
475
74
466
0
VERTEX
8
Meshes
62
90
10
0.0
20
0.0
30
0.0
70
128
71
464
72
477
73
476
74
465
0
VERTEX
8
Meshes
62
90
10
0.0
20
0.0
30
0.0
70
128
71
507
72
477
73
464
0
VERTEX
8
Meshes
62
90
10
0.0
20
0.0
30
0.0
70
128
71
507
72
478
73
477
0
VERTEX
8
Meshes
62
90
10
0.0
20
0.0
30
0.0
70
128
71
477
72
478
73
479
74
476
0
VERTEX
8
Meshes
62
90
10
0.0
20
0.0
30
0.0
70
128
71
476
72
479
73
480
74
475
0
VERTEX
8
Meshes
62
90
10
0.0
20
0.0
30
0.0
70
128
71
475
72
480
73
481
74
474
0
VERTEX
8
Meshes
62
90
10
0.0
20
0.0
30
0.0
70
128
71
474
72
481
73
482
74
473
0
VERTEX
8
Meshes
62
90
10
0.0
20
0.0
30
0.0
70
128
71
473
72
482
73
483
74
472
0
VERTEX
8
Meshes
62
90
10
0.0
20
0.0
30
0.0
70
128
71
472
72
483
73
484
74
471
0
VERTEX
8
Meshes
62
90
10
0.0
20
0.0
30
0.0
70
128
71
471
72
484
73
499
0
VERTEX
8
Meshes
62
90
10
0.0
20
0.0
30
0.0
70
128
71
484
72
485
73
499
0
VERTEX
8
Meshes
62
90
10
0.0
20
0.0
30
0.0
70
128
71
483
72
486
73
485
74
484
0
VERTEX
8
Meshes
62
90
10
0.0
20
0.0
30
0.0
70
128
71
482
72
487
73
486
74
483
0
VERTEX
8
Meshes
62
90
10
0.0
20
0.0
30
0.0
70
128
71
481
72
488
73
487
74
482
0
VERTEX
8
Meshes
62
90
10
0.0
20
0.0
30
0.0
70
128
71
480
72
489
73
488
74
481
0
VERTEX
8
Meshes
62
90
10
0.0
20
0.0
30
0.0
70
128
71
479
72
490
73
489
74
480
0
VERTEX
8
Meshes
62
90
10
0.0
20
0.0
30
0.0
70
128
71
478
72
491
73
490
74
479
0
VERTEX
8
Meshes
62
90
10
0.0
20
0.0
30
0.0
70
128
71
507
72
491
73
478
0
VERTEX
8
Meshes
62
90
10
0.0
20
0.0
30
0.0
70
128
71
507
72
492
73
491
0
VERTEX
8
Meshes
62
90
10
0.0
20
0.0
30
0.0
70
128
71
491
72
492
73
493
74
490
0
VERTEX
8
Meshes
62
90
10
0.0
20
0.0
30
0.0
70
128
71
490
72
493
73
494
74
489
0
VERTEX
8
Meshes
62
90
10
0.0
20
0.0
30
0.0
70
128
71
489
72
494
73
495
74
488
0
VERTEX
8
Meshes
62
90
10
0.0
20
0.0
30
0.0
70
128
71
488
72
495
73
496
74
487
0
VERTEX
8
Meshes
62
90
10
0.0
20
0.0
30
0.0
70
128
71
487
72
496
73
497
74
486
0
VERTEX
8
Meshes
62
90
10
0.0
20
0.0
30
0.0
70
128
71
486
72
497
73
498
74
485
0
VERTEX
8
Meshes
62
90
10
0.0
20
0.0
30
0.0
70
128
71
485
72
498
73
499
0
VERTEX
8
Meshes
62
90
10
0.0
20
0.0
30
0.0
70
128
71
498
72
500
73
499
0
VERTEX
8
Meshes
62
90
10
0.0
20
0.0
30
0.0
70
128
71
497
72
501
73
500
74
498
0
VERTEX
8
Meshes
62
90
10
0.0
20
0.0
30
0.0
70
128
71
496
72
502
73
501
74
497
0
VERTEX
8
Meshes
62
90
10
0.0
20
0.0
30
0.0
70
128
71
495
72
503
73
502
74
496
0
VERTEX
8
Meshes
62
90
10
0.0
20
0.0
30
0.0
70
128
71
494
72
504
73
503
74
495
0
VERTEX
8
Meshes
62
90
10
0.0
20
0.0
30
0.0
70
128
71
493
72
505
73
504
74
494
0
VERTEX
8
Meshes
62
90
10
0.0
20
0.0
30
0.0
70
128
71
492
72
506
73
505
74
493
0
VERTEX
8
Meshes
62
90
10
0.0
20
0.0
30
0.0
70
128
71
507
72
506
73
492
0
VERTEX
8
Meshes
62
90
10
0.0
20
0.0
30
0.0
70
128
71
507
72
508
73
506
0
VERTEX
8
Meshes
62
90
10
0.0
20
0.0
30
0.0
70
128
71
506
72
508
73
509
74
505
0
VERTEX
8
Meshes
62
90
10
0.0
20
0.0
30
0.0
70
128
71
505
72
509
73
510
74
504
0
VERTEX
8
Meshes
62
90
10
0.0
20
0.0
30
0.0
70
128
71
504
72
510
73
511
74
503
0
VERTEX
8
Meshes
62
90
10
0.0
20
0.0
30
0.0
70
128
71
503
72
511
73
512
74
502
0
VERTEX
8
Meshes
62
90
10
0.0
20
0.0
30
0.0
70
128
71
502
72
512
73
513
74
501
0
VERTEX
8
Meshes
62
90
10
0.0
20
0.0
30
0.0
70
128
71
501
72
513
73
514
74
500
0
VERTEX
8
Meshes
62
90
10
0.0
20
0.0
30
0.0
70
128
71
500
72
514
73
499
0
VERTEX
8
Meshes
62
90
10
0.0
20
0.0
30
0.0
70
128
71
514
72
515
73
499
0
VERTEX
8
Meshes
62
90
10
0.0
20
0.0
30
0.0
70
128
71
513
72
516
73
515
74
514
0
VERTEX
8
Meshes
62
90
10
0.0
20
0.0
30
0.0
70
128
71
512
72
517
73
516
74
513
0
VERTEX
8
Meshes
62
90
10
0.0
20
0.0
30
0.0
70
128
71
511
72
518
73
517
74
512
0
VERTEX
8
Meshes
62
90
10
0.0
20
0.0
30
0.0
70
128
71
510
72
519
73
518
74
511
0
VERTEX
8
Meshes
62
90
10
0.0
20
0.0
30
0.0
70
128
71
509
72
520
73
519
74
510
0
VERTEX
8
Meshes
62
90
10
0.0
20
0.0
30
0.0
70
128
71
508
72
521
73
520
74
509
0
VERTEX
8
Meshes
62
90
10
0.0
20
0.0
30
0.0
70
128
71
507
72
521
73
508
0
VERTEX
8
Meshes
62
90
10
0.0
20
0.0
30
0.0
70
128
71
507
72
522
73
521
0
VERTEX
8
Meshes
62
90
10
0.0
20
0.0
30
0.0
70
128
71
521
72
522
73
523
74
520
0
VERTEX
8
Meshes
62
90
10
0.0
20
0.0
30
0.0
70
128
71
520
72
523
73
524
74
519
0
VERTEX
8
Meshes
62
90
10
0.0
20
0.0
30
0.0
70
128
71
519
72
524
73
525
74
518
0
VERTEX
8
Meshes
62
90
10
0.0
20
0.0
30
0.0
70
128
71
518
72
525
73
526
74
517
0
VERTEX
8
Meshes
62
90
10
0.0
20
0.0
30
0.0
70
128
71
517
72
526
73
527
74
516
0
VERTEX
8
Meshes
62
90
10
0.0
20
0.0
30
0.0
70
128
71
516
72
527
73
528
74
515
0
VERTEX
8
Meshes
62
90
10
0.0
20
0.0
30
0.0
70
128
71
515
72
528
73
499
0
VERTEX
8
Meshes
62
90
10
0.0
20
0.0
30
0.0
70
128
71
528
72
529
73
499
0
VERTEX
8
Meshes
62
90
10
0.0
20
0.0
30
0.0
70
128
71
527
72
530
73
529
74
528
0
VERTEX
8
Meshes
62
90
10
0.0
20
0.0
30
0.0
70
128
71
526
72
531
73
530
74
527
0
VERTEX
8
Meshes
62
90
10
0.0
20
0.0
30
0.0
70
128
71
525
72
532
73
531
74
526
0
VERTEX
8
Meshes
62
90
10
0.0
20
0.0
30
0.0
70
128
71
524
72
533
73
532
74
525
0
VERTEX
8
Meshes
62
90
10
0.0
20
0.0
30
0.0
70
128
71
523
72
534
73
533
74
524
0
VERTEX
8
Meshes
62
90
10
0.0
20
0.0
30
0.0
70
128
71
522
72
535
73
534
74
523
0
VERTEX
8
Meshes
62
90
10
0.0
20
0.0
30
0.0
70
128
71
507
72
535
73
522
0
VERTEX
8
Meshes
62
90
10
0.0
20
0.0
30
0.0
70
128
71
507
72
536
73
535
0
VERTEX
8
Meshes
62
90
10
0.0
20
0.0
30
0.0
70
128
71
535
72
536
73
537
74
534
0
VERTEX
8
Meshes
62
90
10
0.0
20
0.0
30
0.0
70
128
71
534
72
537
73
538
74
533
0
VERTEX
8
Meshes
62
90
10
0.0
20
0.0
30
0.0
70
128
71
533
72
538
73
539
74
532
0
VERTEX
8
Meshes
62
90
10
0.0
20
0.0
30
0.0
70
128
71
532
72
539
73
540
74
531
0
VERTEX
8
Meshes
62
90
10
0.0
20
0.0
30
0.0
70
128
71
531
72
540
73
541
74
530
0
VERTEX
8
Meshes
62
90
10
0.0
20
0.0
30
0.0
70
128
71
530
72
541
73
542
74
529
0
VERTEX
8
Meshes
62
90
10
0.0
20
0.0
30
0.0
70
128
71
529
72
542
73
499
0
VERTEX
8
Meshes
62
90
10
0.0
20
0.0
30
0.0
70
128
71
542
72
543
73
499
0
VERTEX
8
Meshes
62
90
10
0.0
20
0.0
30
0.0
70
128
71
541
72
461
73
543
74
542
0
VERTEX
8
Meshes
62
90
10
0.0
20
0.0
30
0.0
70
128
71
461
72
541
73
540
74
462
0
VERTEX
8
Meshes
62
90
10
0.0
20
0.0
30
0.0
70
128
71
539
72
463
73
462
74
540
0
VERTEX
8
Meshes
62
90
10
0.0
20
0.0
30
0.0
70
128
71
538
72
544
73
463
74
539
0
VERTEX
8
Meshes
62
90
10
0.0
20
0.0
30
0.0
70
128
71
537
72
545
73
544
74
538
0
VERTEX
8
Meshes
62
90
10
0.0
20
0.0
30
0.0
70
128
71
536
72
546
73
545
74
537
0
VERTEX
8
Meshes
62
90
10
0.0
20
0.0
30
0.0
70
128
71
507
72
546
73
536
0
VERTEX
8
Meshes
62
90
10
0.0
20
0.0
30
0.0
70
128
71
561
72
547
73
576
74
562
0
VERTEX
8
Meshes
62
90
10
0.0
20
0.0
30
0.0
70
128
71
561
72
560
73
563
74
562
0
VERTEX
8
Meshes
62
90
10
0.0
20
0.0
30
0.0
70
128
71
560
72
559
73
564
74
563
0
VERTEX
8
Meshes
62
90
10
0.0
20
0.0
30
0.0
70
128
71
559
72
558
73
565
74
564
0
VERTEX
8
Meshes
62
90
10
0.0
20
0.0
30
0.0
70
128
71
556
72
557
73
566
74
567
0
VERTEX
8
Meshes
62
90
10
0.0
20
0.0
30
0.0
70
128
71
556
72
555
73
568
74
567
0
VERTEX
8
Meshes
62
90
10
0.0
20
0.0
30
0.0
70
128
71
555
72
554
73
569
74
568
0
VERTEX
8
Meshes
62
90
10
0.0
20
0.0
30
0.0
70
128
71
554
72
553
73
570
74
569
0
VERTEX
8
Meshes
62
90
10
0.0
20
0.0
30
0.0
70
128
71
553
72
552
73
571
74
570
0
VERTEX
8
Meshes
62
90
10
0.0
20
0.0
30
0.0
70
128
71
552
72
551
73
572
74
571
0
VERTEX
8
Meshes
62
90
10
0.0
20
0.0
30
0.0
70
128
71
550
72
551
73
572
74
573
0
VERTEX
8
Meshes
62
90
10
0.0
20
0.0
30
0.0
70
128
71
550
72
549
73
574
74
573
0
VERTEX
8
Meshes
62
90
10
0.0
20
0.0
30
0.0
70
128
71
549
72
548
73
575
74
574
0
VERTEX
8
Meshes
62
90
10
0.0
20
0.0
30
0.0
70
128
71
548
72
547
73
576
74
575
0
VERTEX
8
Meshes
62
90
10
0.0
20
0.0
30
0.0
70
128
71
575
72
576
73
577
74
578
0
VERTEX
8
Meshes
62
90
10
0.0
20
0.0
30
0.0
70
128
71
574
72
575
73
578
74
579
0
VERTEX
8
Meshes
62
90
10
0.0
20
0.0
30
0.0
70
128
71
573
72
574
73
579
74
580
0
VERTEX
8
Meshes
62
90
10
0.0
20
0.0
30
0.0
70
128
71
573
72
572
73
581
74
580
0
VERTEX
8
Meshes
62
90
10
0.0
20
0.0
30
0.0
70
128
71
571
72
572
73
581
74
582
0
VERTEX
8
Meshes
62
90
10
0.0
20
0.0
30
0.0
70
128
71
570
72
571
73
582
74
583
0
VERTEX
8
Meshes
62
90
10
0.0
20
0.0
30
0.0
70
128
71
569
72
570
73
583
74
584
0
VERTEX
8
Meshes
62
90
10
0.0
20
0.0
30
0.0
70
128
71
568
72
569
73
584
74
585
0
VERTEX
8
Meshes
62
90
10
0.0
20
0.0
30
0.0
70
128
71
567
72
568
73
585
74
586
0
VERTEX
8
Meshes
62
90
10
0.0
20
0.0
30
0.0
70
128
71
567
72
566
73
587
74
586
0
VERTEX
8
Meshes
62
90
10
0.0
20
0.0
30
0.0
70
128
71
566
72
557
73
596
74
587
0
VERTEX
8
Meshes
62
90
10
0.0
20
0.0
30
0.0
70
128
71
564
72
565
73
588
74
589
0
VERTEX
8
Meshes
62
90
10
0.0
20
0.0
30
0.0
70
128
71
563
72
564
73
589
74
590
0
VERTEX
8
Meshes
62
90
10
0.0
20
0.0
30
0.0
70
128
71
562
72
563
73
590
74
591
0
VERTEX
8
Meshes
62
90
10
0.0
20
0.0
30
0.0
70
128
71
562
72
576
73
577
74
591
0
VERTEX
8
Meshes
62
90
10
0.0
20
0.0
30
0.0
70
128
71
561
72
547
73
606
74
592
0
VERTEX
8
Meshes
62
90
10
0.0
20
0.0
30
0.0
70
128
71
561
72
560
73
593
74
592
0
VERTEX
8
Meshes
62
90
10
0.0
20
0.0
30
0.0
70
128
71
560
72
559
73
594
74
593
0
VERTEX
8
Meshes
62
90
10
0.0
20
0.0
30
0.0
70
128
71
559
72
558
73
595
74
594
0
VERTEX
8
Meshes
62
90
10
0.0
20
0.0
30
0.0
70
128
71
556
72
557
73
596
74
597
0
VERTEX
8
Meshes
62
90
10
0.0
20
0.0
30
0.0
70
128
71
556
72
555
73
598
74
597
0
VERTEX
8
Meshes
62
90
10
0.0
20
0.0
30
0.0
70
128
71
555
72
554
73
599
74
598
0
VERTEX
8
Meshes
62
90
10
0.0
20
0.0
30
0.0
70
128
71
554
72
553
73
600
74
599
0
VERTEX
8
Meshes
62
90
10
0.0
20
0.0
30
0.0
70
128
71
553
72
552
73
601
74
600
0
VERTEX
8
Meshes
62
90
10
0.0
20
0.0
30
0.0
70
128
71
552
72
551
73
602
74
601
0
VERTEX
8
Meshes
62
90
10
0.0
20
0.0
30
0.0
70
128
71
550
72
551
73
602
74
603
0
VERTEX
8
Meshes
62
90
10
0.0
20
0.0
30
0.0
70
128
71
550
72
549
73
604
74
603
0
VERTEX
8
Meshes
62
90
10
0.0
20
0.0
30
0.0
70
128
71
549
72
548
73
605
74
604
0
VERTEX
8
Meshes
62
90
10
0.0
20
0.0
30
0.0
70
128
71
548
72
547
73
606
74
605
0
VERTEX
8
Meshes
62
90
10
0.0
20
0.0
30
0.0
70
128
71
592
72
606
73
577
74
591
0
VERTEX
8
Meshes
62
90
10
0.0
20
0.0
30
0.0
70
128
71
592
72
593
73
590
74
591
0
VERTEX
8
Meshes
62
90
10
0.0
20
0.0
30
0.0
70
128
71
593
72
594
73
589
74
590
0
VERTEX
8
Meshes
62
90
10
0.0
20
0.0
30
0.0
70
128
71
594
72
595
73
588
74
589
0
VERTEX
8
Meshes
62
90
10
0.0
20
0.0
30
0.0
70
128
71
597
72
596
73
587
74
586
0
VERTEX
8
Meshes
62
90
10
0.0
20
0.0
30
0.0
70
128
71
597
72
598
73
585
74
586
0
VERTEX
8
Meshes
62
90
10
0.0
20
0.0
30
0.0
70
128
71
598
72
599
73
584
74
585
0
VERTEX
8
Meshes
62
90
10
0.0
20
0.0
30
0.0
70
128
71
599
72
600
73
583
74
584
0
VERTEX
8
Meshes
62
90
10
0.0
20
0.0
30
0.0
70
128
71
600
72
601
73
582
74
583
0
VERTEX
8
Meshes
62
90
10
0.0
20
0.0
30
0.0
70
128
71
601
72
602
73
581
74
582
0
VERTEX
8
Meshes
62
90
10
0.0
20
0.0
30
0.0
70
128
71
603
72
602
73
581
74
580
0
VERTEX
8
Meshes
62
90
10
0.0
20
0.0
30
0.0
70
128
71
603
72
604
73
579
74
580
0
VERTEX
8
Meshes
62
90
10
0.0
20
0.0
30
0.0
70
128
71
604
72
605
73
578
74
579
0
VERTEX
8
Meshes
62
90
10
0.0
20
0.0
30
0.0
70
128
71
605
72
606
73
577
74
578
0
VERTEX
8
Meshes
62
90
10
0.0
20
0.0
30
0.0
70
128
71
607
72
639
73
640
74
608
0
VERTEX
8
Meshes
62
90
10
0.0
20
0.0
30
0.0
70
128
71
608
72
640
73
641
74
609
0
VERTEX
8
Meshes
62
90
10
0.0
20
0.0
30
0.0
70
128
71
609
72
641
73
642
74
610
0
VERTEX
8
Meshes
62
90
10
0.0
20
0.0
30
0.0
70
128
71
610
72
642
73
643
74
611
0
VERTEX
8
Meshes
62
90
10
0.0
20
0.0
30
0.0
70
128
71
611
72
643
73
644
74
612
0
VERTEX
8
Meshes
62
90
10
0.0
20
0.0
30
0.0
70
128
71
612
72
644
73
645
74
613
0
VERTEX
8
Meshes
62
90
10
0.0
20
0.0
30
0.0
70
128
71
613
72
645
73
646
74
614
0
VERTEX
8
Meshes
62
90
10
0.0
20
0.0
30
0.0
70
128
71
614
72
646
73
647
74
615
0
VERTEX
8
Meshes
62
90
10
0.0
20
0.0
30
0.0
70
128
71
615
72
647
73
648
74
616
0
VERTEX
8
Meshes
62
90
10
0.0
20
0.0
30
0.0
70
128
71
616
72
648
73
649
74
617
0
VERTEX
8
Meshes
62
90
10
0.0
20
0.0
30
0.0
70
128
71
617
72
649
73
650
74
618
0
VERTEX
8
Meshes
62
90
10
0.0
20
0.0
30
0.0
70
128
71
618
72
650
73
651
74
619
0
VERTEX
8
Meshes
62
90
10
0.0
20
0.0
30
0.0
70
128
71
619
72
651
73
652
74
620
0
VERTEX
8
Meshes
62
90
10
0.0
20
0.0
30
0.0
70
128
71
620
72
652
73
653
74
621
0
VERTEX
8
Meshes
62
90
10
0.0
20
0.0
30
0.0
70
128
71
621
72
653
73
654
74
622
0
VERTEX
8
Meshes
62
90
10
0.0
20
0.0
30
0.0
70
128
71
622
72
654
73
655
74
623
0
VERTEX
8
Meshes
62
90
10
0.0
20
0.0
30
0.0
70
128
71
623
72
655
73
656
74
624
0
VERTEX
8
Meshes
62
90
10
0.0
20
0.0
30
0.0
70
128
71
624
72
656
73
657
74
625
0
VERTEX
8
Meshes
62
90
10
0.0
20
0.0
30
0.0
70
128
71
625
72
657
73
658
74
626
0
VERTEX
8
Meshes
62
90
10
0.0
20
0.0
30
0.0
70
128
71
626
72
658
73
659
74
627
0
VERTEX
8
Meshes
62
90
10
0.0
20
0.0
30
0.0
70
128
71
627
72
659
73
660
74
628
0
VERTEX
8
Meshes
62
90
10
0.0
20
0.0
30
0.0
70
128
71
628
72
660
73
661
74
629
0
VERTEX
8
Meshes
62
90
10
0.0
20
0.0
30
0.0
70
128
71
629
72
661
73
662
74
630
0
VERTEX
8
Meshes
62
90
10
0.0
20
0.0
30
0.0
70
128
71
630
72
662
73
663
74
631
0
VERTEX
8
Meshes
62
90
10
0.0
20
0.0
30
0.0
70
128
71
631
72
663
73
664
74
632
0
VERTEX
8
Meshes
62
90
10
0.0
20
0.0
30
0.0
70
128
71
632
72
664
73
665
74
633
0
VERTEX
8
Meshes
62
90
10
0.0
20
0.0
30
0.0
70
128
71
633
72
665
73
666
74
634
0
VERTEX
8
Meshes
62
90
10
0.0
20
0.0
30
0.0
70
128
71
634
72
666
73
667
74
635
0
VERTEX
8
Meshes
62
90
10
0.0
20
0.0
30
0.0
70
128
71
635
72
667
73
668
74
636
0
VERTEX
8
Meshes
62
90
10
0.0
20
0.0
30
0.0
70
128
71
636
72
668
73
669
74
637
0
VERTEX
8
Meshes
62
90
10
0.0
20
0.0
30
0.0
70
128
71
637
72
669
73
670
74
638
0
VERTEX
8
Meshes
62
90
10
0.0
20
0.0
30
0.0
70
128
71
639
72
607
73
638
74
670
0
VERTEX
8
Meshes
62
90
10
0.0
20
0.0
30
0.0
70
128
71
667
72
666
73
669
74
668
0
VERTEX
8
Meshes
62
90
10
0.0
20
0.0
30
0.0
70
128
71
666
72
665
73
670
74
669
0
VERTEX
8
Meshes
62
90
10
0.0
20
0.0
30
0.0
70
128
71
665
72
664
73
639
74
670
0
VERTEX
8
Meshes
62
90
10
0.0
20
0.0
30
0.0
70
128
71
664
72
663
73
640
74
639
0
VERTEX
8
Meshes
62
90
10
0.0
20
0.0
30
0.0
70
128
71
663
72
662
73
641
74
640
0
VERTEX
8
Meshes
62
90
10
0.0
20
0.0
30
0.0
70
128
71
662
72
661
73
642
74
641
0
VERTEX
8
Meshes
62
90
10
0.0
20
0.0
30
0.0
70
128
71
661
72
660
73
643
74
642
0
VERTEX
8
Meshes
62
90
10
0.0
20
0.0
30
0.0
70
128
71
660
72
659
73
644
74
643
0
VERTEX
8
Meshes
62
90
10
0.0
20
0.0
30
0.0
70
128
71
659
72
658
73
645
74
644
0
VERTEX
8
Meshes
62
90
10
0.0
20
0.0
30
0.0
70
128
71
658
72
657
73
646
74
645
0
VERTEX
8
Meshes
62
90
10
0.0
20
0.0
30
0.0
70
128
71
657
72
656
73
647
74
646
0
VERTEX
8
Meshes
62
90
10
0.0
20
0.0
30
0.0
70
128
71
656
72
655
73
648
74
647
0
VERTEX
8
Meshes
62
90
10
0.0
20
0.0
30
0.0
70
128
71
655
72
654
73
649
74
648
0
VERTEX
8
Meshes
62
90
10
0.0
20
0.0
30
0.0
70
128
71
654
72
653
73
650
74
649
0
VERTEX
8
Meshes
62
90
10
0.0
20
0.0
30
0.0
70
128
71
653
72
652
73
651
74
650
0
SEQEND
0
ENDBLK
0
ENDSEC
0
SECTION
2
ENTITIES
0
INSERT
8
32
2
Notes
10
0.002580
20
-0.010798
30
7.992274
41
1.000000
42
1.000000
43
1.000000
50
0.000000
0
ENDSEC
0
EOF
