  0
SECTION
  2
ENTITIES
  0
3DFACE
  8
0
 62
    50
 10
2.76273
 20
0.354294
 30
-2.10584
 11
2.76273
 21
0.354294
 31
17.9503
 12
2.82504
 22
0.278367
 32
17.9503
 13
2.82504
 23
0.278367
 33
-2.10584
  0
3DFACE
  8
0
 62
    50
 10
2.82504
 20
0.278367
 30
-2.10584
 11
2.82504
 21
0.278367
 31
17.9503
 12
2.87134
 22
0.191742
 32
17.9503
 13
2.87134
 23
0.191743
 33
-2.10584
  0
3DFACE
  8
0
 62
    50
 10
2.87134
 20
0.191743
 30
-2.10584
 11
2.87134
 21
0.191742
 31
17.9503
 12
2.89985
 22
0.097749
 32
17.9503
 13
2.89985
 23
0.09775
 33
-2.10584
  0
3DFACE
  8
0
 62
    50
 10
2.89985
 20
0.09775
 30
-2.10584
 11
2.89985
 21
0.097749
 31
17.9503
 12
2.90948
 22
0
 32
17.9503
 13
2.90948
 23
1.00001e-006
 33
-2.10584
  0
3DFACE
  8
0
 62
    50
 10
2.90948
 20
1.00001e-006
 30
-2.10584
 11
2.90948
 21
0
 31
17.9503
 12
2.89985
 22
-0.097749
 32
17.9503
 13
2.89985
 23
-0.097748
 33
-2.10584
  0
3DFACE
  8
0
 62
    50
 10
2.89985
 20
-0.097748
 30
-2.10584
 11
2.89985
 21
-0.097749
 31
17.9503
 12
2.87134
 22
-0.191741
 32
17.9503
 13
2.87134
 23
-0.191741
 33
-2.10584
  0
3DFACE
  8
0
 62
    50
 10
2.87134
 20
-0.191741
 30
-2.10584
 11
2.87134
 21
-0.191741
 31
17.9503
 12
2.82504
 22
-0.278365
 32
17.9503
 13
2.82504
 23
-0.278365
 33
-2.10584
  0
3DFACE
  8
0
 62
    50
 10
2.82504
 20
-0.278365
 30
-2.10584
 11
2.82504
 21
-0.278365
 31
17.9503
 12
2.76273
 22
-0.354292
 32
17.9503
 13
2.76273
 23
-0.354292
 33
-2.10584
  0
3DFACE
  8
0
 62
    50
 10
2.76273
 20
-0.354292
 30
-2.10584
 11
2.76273
 21
-0.354292
 31
17.9503
 12
2.6868
 22
-0.416603
 32
17.9503
 13
2.6868
 23
-0.416603
 33
-2.10584
  0
3DFACE
  8
0
 62
    50
 10
2.6868
 20
-0.416603
 30
-2.10584
 11
2.6868
 21
-0.416603
 31
17.9503
 12
2.60018
 22
-0.462905
 32
17.9503
 13
2.60018
 23
-0.462905
 33
-2.10584
  0
3DFACE
  8
0
 62
    50
 10
2.60018
 20
-0.462905
 30
-2.10584
 11
2.60018
 21
-0.462905
 31
17.9503
 12
2.50619
 22
-0.491417
 32
17.9503
 13
2.50619
 23
-0.491417
 33
-2.10584
  0
3DFACE
  8
0
 62
    50
 10
2.50619
 20
-0.491417
 30
-2.10584
 11
2.50619
 21
-0.491417
 31
17.9503
 12
2.40844
 22
-0.501045
 32
17.9503
 13
2.40844
 23
-0.501045
 33
-2.10584
  0
3DFACE
  8
0
 62
    50
 10
2.40844
 20
-0.501045
 30
-2.10584
 11
2.40844
 21
-0.501045
 31
17.9503
 12
2.31069
 22
-0.491417
 32
17.9503
 13
2.31069
 23
-0.491417
 33
-2.10584
  0
3DFACE
  8
0
 62
    50
 10
2.31069
 20
-0.491417
 30
-2.10584
 11
2.31069
 21
-0.491417
 31
17.9503
 12
2.2167
 22
-0.462905
 32
17.9503
 13
2.21669
 23
-0.462905
 33
-2.10584
  0
3DFACE
  8
0
 62
    50
 10
2.21669
 20
-0.462905
 30
-2.10584
 11
2.2167
 21
-0.462905
 31
17.9503
 12
2.13007
 22
-0.416604
 32
17.9503
 13
2.13007
 23
-0.416603
 33
-2.10584
  0
3DFACE
  8
0
 62
    50
 10
2.13007
 20
-0.416603
 30
-2.10584
 11
2.13007
 21
-0.416604
 31
17.9503
 12
2.05414
 22
-0.354293
 32
17.9503
 13
2.05414
 23
-0.354292
 33
-2.10584
  0
3DFACE
  8
0
 62
    50
 10
2.05414
 20
-0.354292
 30
-2.10584
 11
2.05414
 21
-0.354293
 31
17.9503
 12
1.99183
 22
-0.278366
 32
17.9503
 13
1.99183
 23
-0.278365
 33
-2.10584
  0
3DFACE
  8
0
 62
    50
 10
1.99183
 20
-0.278365
 30
-2.10584
 11
1.99183
 21
-0.278366
 31
17.9503
 12
1.94553
 22
-0.191742
 32
17.9503
 13
1.94553
 23
-0.19174
 33
-2.10584
  0
3DFACE
  8
0
 62
    50
 10
1.94553
 20
-0.19174
 30
-2.10584
 11
1.94553
 21
-0.191742
 31
17.9503
 12
1.91702
 22
-0.09775
 32
17.9503
 13
1.91702
 23
-0.097748
 33
-2.10584
  0
3DFACE
  8
0
 62
    50
 10
1.91702
 20
-0.097748
 30
-2.10584
 11
1.91702
 21
-0.09775
 31
17.9503
 12
1.90739
 22
-1.00001e-006
 32
17.9503
 13
1.90739
 23
2.00002e-006
 33
-2.10584
  0
3DFACE
  8
0
 62
    50
 10
1.90739
 20
2.00002e-006
 30
-2.10584
 11
1.90739
 21
-1.00001e-006
 31
17.9503
 12
1.91702
 22
0.097748
 32
17.9503
 13
1.91702
 23
0.097751
 33
-2.10584
  0
3DFACE
  8
0
 62
    50
 10
1.91702
 20
0.097751
 30
-2.10584
 11
1.91702
 21
0.097748
 31
17.9503
 12
1.94553
 22
0.191741
 32
17.9503
 13
1.94553
 23
0.191744
 33
-2.10584
  0
3DFACE
  8
0
 62
    50
 10
1.94553
 20
0.191744
 30
-2.10584
 11
1.94553
 21
0.191741
 31
17.9503
 12
1.99183
 22
0.278365
 32
17.9503
 13
1.99183
 23
0.278368
 33
-2.10584
  0
3DFACE
  8
0
 62
    50
 10
1.99183
 20
0.278368
 30
-2.10584
 11
1.99183
 21
0.278365
 31
17.9503
 12
2.05414
 22
0.354292
 32
17.9503
 13
2.05414
 23
0.354295
 33
-2.10584
  0
3DFACE
  8
0
 62
    50
 10
2.05414
 20
0.354295
 30
-2.10584
 11
2.05414
 21
0.354292
 31
17.9503
 12
2.13007
 22
0.416604
 32
17.9503
 13
2.13007
 23
0.416606
 33
-2.10584
  0
3DFACE
  8
0
 62
    50
 10
2.13007
 20
0.416606
 30
-2.10584
 11
2.13007
 21
0.416604
 31
17.9503
 12
2.21669
 22
0.462906
 32
17.9503
 13
2.2167
 23
0.462908
 33
-2.10584
  0
3DFACE
  8
0
 62
    50
 10
2.2167
 20
0.462908
 30
-2.10584
 11
2.21669
 21
0.462906
 31
17.9503
 12
2.31068
 22
0.491419
 32
17.9503
 13
2.31069
 23
0.49142
 33
-2.10584
  0
3DFACE
  8
0
 62
    50
 10
2.31069
 20
0.49142
 30
-2.10584
 11
2.31068
 21
0.491419
 31
17.9503
 12
2.40843
 22
0.501047
 32
17.9503
 13
2.40844
 23
0.501047
 33
-2.10584
  0
3DFACE
  8
0
 62
    50
 10
2.40844
 20
0.501047
 30
-2.10584
 11
2.40843
 21
0.501047
 31
17.9503
 12
2.50618
 22
0.491421
 32
17.9503
 13
2.50619
 23
0.49142
 33
-2.10584
  0
3DFACE
  8
0
 62
    50
 10
2.50619
 20
0.49142
 30
-2.10584
 11
2.50618
 21
0.491421
 31
17.9503
 12
2.60017
 22
0.462909
 32
17.9503
 13
2.60018
 23
0.462907
 33
-2.10584
  0
3DFACE
  8
0
 62
    50
 10
2.60018
 20
0.462907
 30
-2.10584
 11
2.60017
 21
0.462909
 31
17.9503
 12
2.6868
 22
0.416608
 32
17.9503
 13
2.6868
 23
0.416605
 33
-2.10584
  0
3DFACE
  8
0
 62
    50
 10
2.76273
 20
0.354294
 30
17.9503
 11
2.76273
 21
0.354294
 31
-2.10584
 12
2.6868
 22
0.416605
 32
-2.10584
 13
2.6868
 23
0.416608
 33
17.9503
  0
3DFACE
  8
0
 62
    50
 10
2.40843
 20
0.501047
 30
17.9503
 11
2.31068
 21
0.491419
 31
17.9503
 12
2.60017
 22
0.462909
 32
17.9503
 13
2.50618
 23
0.491421
 33
17.9503
  0
3DFACE
  8
0
 62
    50
 10
2.31068
 20
0.491419
 30
17.9503
 11
2.21669
 21
0.462906
 31
17.9503
 12
2.6868
 22
0.416608
 32
17.9503
 13
2.60017
 23
0.462909
 33
17.9503
  0
3DFACE
  8
0
 62
    50
 10
2.21669
 20
0.462906
 30
17.9503
 11
2.13007
 21
0.416604
 31
17.9503
 12
2.76273
 22
0.354294
 32
17.9503
 13
2.6868
 23
0.416608
 33
17.9503
  0
3DFACE
  8
0
 62
    50
 10
2.13007
 20
0.416604
 30
17.9503
 11
2.05414
 21
0.354292
 31
17.9503
 12
2.82504
 22
0.278367
 32
17.9503
 13
2.76273
 23
0.354294
 33
17.9503
  0
3DFACE
  8
0
 62
    50
 10
2.05414
 20
0.354292
 30
17.9503
 11
1.99183
 21
0.278365
 31
17.9503
 12
2.87134
 22
0.191742
 32
17.9503
 13
2.82504
 23
0.278367
 33
17.9503
  0
3DFACE
  8
0
 62
    50
 10
1.99183
 20
0.278365
 30
17.9503
 11
1.94553
 21
0.191741
 31
17.9503
 12
2.89985
 22
0.097749
 32
17.9503
 13
2.87134
 23
0.191742
 33
17.9503
  0
3DFACE
  8
0
 62
    50
 10
1.94553
 20
0.191741
 30
17.9503
 11
1.91702
 21
0.097748
 31
17.9503
 12
2.90948
 22
0
 32
17.9503
 13
2.89985
 23
0.097749
 33
17.9503
  0
3DFACE
  8
0
 62
    50
 10
1.91702
 20
0.097748
 30
17.9503
 11
1.90739
 21
-1.00001e-006
 31
17.9503
 12
2.89985
 22
-0.097749
 32
17.9503
 13
2.90948
 23
0
 33
17.9503
  0
3DFACE
  8
0
 62
    50
 10
1.90739
 20
-1.00001e-006
 30
17.9503
 11
1.91702
 21
-0.09775
 31
17.9503
 12
2.87134
 22
-0.191741
 32
17.9503
 13
2.89985
 23
-0.097749
 33
17.9503
  0
3DFACE
  8
0
 62
    50
 10
1.91702
 20
-0.09775
 30
17.9503
 11
1.94553
 21
-0.191742
 31
17.9503
 12
2.82504
 22
-0.278365
 32
17.9503
 13
2.87134
 23
-0.191741
 33
17.9503
  0
3DFACE
  8
0
 62
    50
 10
1.94553
 20
-0.191742
 30
17.9503
 11
1.99183
 21
-0.278366
 31
17.9503
 12
2.76273
 22
-0.354292
 32
17.9503
 13
2.82504
 23
-0.278365
 33
17.9503
  0
3DFACE
  8
0
 62
    50
 10
1.99183
 20
-0.278366
 30
17.9503
 11
2.05414
 21
-0.354293
 31
17.9503
 12
2.6868
 22
-0.416603
 32
17.9503
 13
2.76273
 23
-0.354292
 33
17.9503
  0
3DFACE
  8
0
 62
    50
 10
2.05414
 20
-0.354293
 30
17.9503
 11
2.13007
 21
-0.416604
 31
17.9503
 12
2.60018
 22
-0.462905
 32
17.9503
 13
2.6868
 23
-0.416603
 33
17.9503
  0
3DFACE
  8
0
 62
    50
 10
2.13007
 20
-0.416604
 30
17.9503
 11
2.2167
 21
-0.462905
 31
17.9503
 12
2.50619
 22
-0.491417
 32
17.9503
 13
2.60018
 23
-0.462905
 33
17.9503
  0
3DFACE
  8
0
 62
    50
 10
2.2167
 20
-0.462905
 30
17.9503
 11
2.31069
 21
-0.491417
 31
17.9503
 12
2.40844
 22
-0.501045
 32
17.9503
 13
2.50619
 23
-0.491417
 33
17.9503
  0
3DFACE
  8
0
 62
    50
 10
4.44508
 20
-0.300068
 30
17.3195
 11
4.89241
 21
-0.300068
 31
16.8576
 12
4.53169
 22
-0.300068
 32
16.4037
 13
4.16166
 23
-0.300068
 33
16.7858
  0
3DFACE
  8
0
 62
    50
 10
4.44508
 20
-0.300068
 30
17.3195
 11
3.93472
 21
-0.300068
 31
17.6628
 12
3.7395
 22
-0.300068
 32
17.0697
 13
4.16166
 23
-0.300068
 33
16.7858
  0
3DFACE
  8
0
 62
    50
 10
3.93472
 20
-0.300068
 30
17.6628
 11
3.38095
 21
-0.300068
 31
17.8742
 12
3.28143
 22
-0.300068
 32
17.2446
 13
3.7395
 23
-0.300068
 33
17.0697
  0
3DFACE
  8
0
 62
    50
 10
3.38095
 20
-0.300068
 30
17.8742
 11
2.80505
 21
-0.300068
 31
17.9455
 12
2.80504
 22
-0.300068
 32
17.3036
 13
3.28143
 23
-0.300068
 33
17.2446
  0
3DFACE
  8
0
 62
    50
 10
4.44508
 20
-0.300068
 30
11.1424
 11
3.93472
 21
-0.300068
 31
10.7991
 12
3.7395
 22
-0.300068
 32
11.3921
 13
4.16166
 23
-0.300068
 33
11.6761
  0
3DFACE
  8
0
 62
    50
 10
4.44508
 20
-0.300068
 30
11.1424
 11
4.89241
 21
-0.300068
 31
11.6043
 12
4.53169
 22
-0.300068
 32
12.0582
 13
4.16166
 23
-0.300068
 33
11.6761
  0
3DFACE
  8
0
 62
    50
 10
4.89241
 20
-0.300068
 30
11.6043
 11
5.25953
 21
-0.300068
 31
12.1672
 12
4.83537
 22
-0.300068
 32
12.5238
 13
4.53169
 23
-0.300068
 33
12.0582
  0
3DFACE
  8
0
 62
    50
 10
5.25953
 20
-0.300068
 30
12.1672
 11
5.53232
 21
-0.300068
 31
12.8094
 12
5.06102
 22
-0.300068
 32
13.0551
 13
4.83537
 23
-0.300068
 33
12.5238
  0
3DFACE
  8
0
 62
    50
 10
5.53232
 20
-0.300068
 30
12.8094
 11
5.7003
 21
-0.300068
 31
13.5063
 12
5.19997
 22
-0.300068
 32
13.6315
 13
5.06102
 23
-0.300068
 33
13.0551
  0
3DFACE
  8
0
 62
    50
 10
5.7003
 20
-0.300068
 30
13.5063
 11
5.75702
 21
-0.300068
 31
14.2309
 12
5.24689
 22
-0.300068
 32
14.2309
 13
5.19997
 23
-0.300068
 33
13.6315
  0
3DFACE
  8
0
 62
    50
 10
5.7003
 20
-0.300068
 30
14.9556
 11
5.75702
 21
-0.300068
 31
14.2309
 12
5.24689
 22
-0.300068
 32
14.2309
 13
5.19997
 23
-0.300068
 33
14.8304
  0
3DFACE
  8
0
 62
    50
 10
5.7003
 20
-0.300068
 30
14.9556
 11
5.53232
 21
-0.300068
 31
15.6525
 12
5.06102
 22
-0.300068
 32
15.4068
 13
5.19997
 23
-0.300068
 33
14.8304
  0
3DFACE
  8
0
 62
    50
 10
5.53232
 20
-0.300068
 30
15.6525
 11
5.25953
 21
-0.300068
 31
16.2947
 12
4.83537
 22
-0.300068
 32
15.938
 13
5.06102
 23
-0.300068
 33
15.4068
  0
3DFACE
  8
0
 62
    50
 10
5.25953
 20
-0.300068
 30
16.2947
 11
4.89241
 21
-0.300068
 31
16.8576
 12
4.53169
 22
-0.300068
 32
16.4037
 13
4.83537
 23
-0.300068
 33
15.938
  0
3DFACE
  8
0
 62
    50
 10
4.83537
 20
-0.300068
 30
15.938
 11
4.53169
 21
-0.300068
 31
16.4037
 12
4.53169
 22
0.301452
 32
16.4037
 13
4.83537
 23
0.301452
 33
15.938
  0
3DFACE
  8
0
 62
    50
 10
5.06102
 20
-0.300068
 30
15.4068
 11
4.83537
 21
-0.300068
 31
15.938
 12
4.83537
 22
0.301452
 32
15.938
 13
5.06102
 23
0.301452
 33
15.4068
  0
3DFACE
  8
0
 62
    50
 10
5.19997
 20
-0.300068
 30
14.8304
 11
5.06102
 21
-0.300068
 31
15.4068
 12
5.06102
 22
0.301452
 32
15.4068
 13
5.19997
 23
0.301452
 33
14.8304
  0
3DFACE
  8
0
 62
    50
 10
5.19997
 20
-0.300068
 30
14.8304
 11
5.24689
 21
-0.300068
 31
14.2309
 12
5.24689
 22
0.301452
 32
14.2309
 13
5.19997
 23
0.301452
 33
14.8304
  0
3DFACE
  8
0
 62
    50
 10
5.19997
 20
-0.300068
 30
13.6315
 11
5.24689
 21
-0.300068
 31
14.2309
 12
5.24689
 22
0.301452
 32
14.2309
 13
5.19997
 23
0.301452
 33
13.6315
  0
3DFACE
  8
0
 62
    50
 10
5.06102
 20
-0.300068
 30
13.0551
 11
5.19997
 21
-0.300068
 31
13.6315
 12
5.19997
 22
0.301452
 32
13.6315
 13
5.06102
 23
0.301452
 33
13.0551
  0
3DFACE
  8
0
 62
    50
 10
4.83537
 20
-0.300068
 30
12.5238
 11
5.06102
 21
-0.300068
 31
13.0551
 12
5.06102
 22
0.301452
 32
13.0551
 13
4.83537
 23
0.301452
 33
12.5238
  0
3DFACE
  8
0
 62
    50
 10
4.53169
 20
-0.300068
 30
12.0582
 11
4.83537
 21
-0.300068
 31
12.5238
 12
4.83537
 22
0.301452
 32
12.5238
 13
4.53169
 23
0.301452
 33
12.0582
  0
3DFACE
  8
0
 62
    50
 10
4.16166
 20
-0.300068
 30
11.6761
 11
4.53169
 21
-0.300068
 31
12.0582
 12
4.53169
 22
0.301452
 32
12.0582
 13
4.16166
 23
0.301452
 33
11.6761
  0
3DFACE
  8
0
 62
    50
 10
4.16166
 20
-0.300068
 30
11.6761
 11
3.7395
 21
-0.300068
 31
11.3921
 12
3.7395
 22
0.301452
 32
11.3921
 13
4.16166
 23
0.301452
 33
11.6761
  0
3DFACE
  8
0
 62
    50
 10
3.7395
 20
-0.300068
 30
11.3921
 11
3.93472
 21
-0.300068
 31
10.7991
 12
3.93472
 22
0.301452
 32
10.7991
 13
3.7395
 23
0.301452
 33
11.3921
  0
3DFACE
  8
0
 62
    50
 10
3.28143
 20
-0.300068
 30
17.2446
 11
2.80504
 21
-0.300068
 31
17.3036
 12
2.80504
 22
0.301452
 32
17.3036
 13
3.28143
 23
0.301452
 33
17.2446
  0
3DFACE
  8
0
 62
    50
 10
3.7395
 20
-0.300068
 30
17.0697
 11
3.28143
 21
-0.300068
 31
17.2446
 12
3.28143
 22
0.301452
 32
17.2446
 13
3.7395
 23
0.301452
 33
17.0697
  0
3DFACE
  8
0
 62
    50
 10
4.16166
 20
-0.300068
 30
16.7858
 11
3.7395
 21
-0.300068
 31
17.0697
 12
3.7395
 22
0.301452
 32
17.0697
 13
4.16166
 23
0.301452
 33
16.7858
  0
3DFACE
  8
0
 62
    50
 10
4.16166
 20
-0.300068
 30
16.7858
 11
4.53169
 21
-0.300068
 31
16.4037
 12
4.53169
 22
0.301452
 32
16.4037
 13
4.16166
 23
0.301452
 33
16.7858
  0
3DFACE
  8
0
 62
    50
 10
4.44508
 20
-0.300068
 30
17.3195
 11
4.89241
 21
-0.300068
 31
16.8576
 12
4.89241
 22
0.301452
 32
16.8576
 13
4.44508
 23
0.301452
 33
17.3195
  0
3DFACE
  8
0
 62
    50
 10
4.44508
 20
-0.300068
 30
17.3195
 11
3.93472
 21
-0.300068
 31
17.6628
 12
3.93472
 22
0.301452
 32
17.6628
 13
4.44508
 23
0.301452
 33
17.3195
  0
3DFACE
  8
0
 62
    50
 10
3.93472
 20
-0.300068
 30
17.6628
 11
3.38095
 21
-0.300068
 31
17.8742
 12
3.38095
 22
0.301452
 32
17.8742
 13
3.93472
 23
0.301452
 33
17.6628
  0
3DFACE
  8
0
 62
    50
 10
3.38095
 20
-0.300068
 30
17.8742
 11
2.80505
 21
-0.300068
 31
17.9455
 12
2.80505
 22
0.301452
 32
17.9455
 13
3.38095
 23
0.301452
 33
17.8742
  0
3DFACE
  8
0
 62
    50
 10
4.44508
 20
-0.300068
 30
11.1424
 11
3.93472
 21
-0.300068
 31
10.7991
 12
3.93472
 22
0.301452
 32
10.7991
 13
4.44508
 23
0.301452
 33
11.1424
  0
3DFACE
  8
0
 62
    50
 10
4.44508
 20
-0.300068
 30
11.1424
 11
4.89241
 21
-0.300068
 31
11.6043
 12
4.89241
 22
0.301452
 32
11.6043
 13
4.44508
 23
0.301452
 33
11.1424
  0
3DFACE
  8
0
 62
    50
 10
4.89241
 20
-0.300068
 30
11.6043
 11
5.25953
 21
-0.300068
 31
12.1672
 12
5.25953
 22
0.301452
 32
12.1672
 13
4.89241
 23
0.301452
 33
11.6043
  0
3DFACE
  8
0
 62
    50
 10
5.25953
 20
-0.300068
 30
12.1672
 11
5.53232
 21
-0.300068
 31
12.8094
 12
5.53232
 22
0.301452
 32
12.8094
 13
5.25953
 23
0.301452
 33
12.1672
  0
3DFACE
  8
0
 62
    50
 10
5.53232
 20
-0.300068
 30
12.8094
 11
5.7003
 21
-0.300068
 31
13.5063
 12
5.7003
 22
0.301452
 32
13.5063
 13
5.53232
 23
0.301452
 33
12.8094
  0
3DFACE
  8
0
 62
    50
 10
5.7003
 20
-0.300068
 30
13.5063
 11
5.75702
 21
-0.300068
 31
14.2309
 12
5.75702
 22
0.301452
 32
14.2309
 13
5.7003
 23
0.301452
 33
13.5063
  0
3DFACE
  8
0
 62
    50
 10
5.7003
 20
-0.300068
 30
14.9556
 11
5.75702
 21
-0.300068
 31
14.2309
 12
5.75702
 22
0.301452
 32
14.2309
 13
5.7003
 23
0.301452
 33
14.9556
  0
3DFACE
  8
0
 62
    50
 10
5.7003
 20
-0.300068
 30
14.9556
 11
5.53232
 21
-0.300068
 31
15.6525
 12
5.53232
 22
0.301452
 32
15.6525
 13
5.7003
 23
0.301452
 33
14.9556
  0
3DFACE
  8
0
 62
    50
 10
5.53232
 20
-0.300068
 30
15.6525
 11
5.25953
 21
-0.300068
 31
16.2947
 12
5.25953
 22
0.301452
 32
16.2947
 13
5.53232
 23
0.301452
 33
15.6525
  0
3DFACE
  8
0
 62
    50
 10
5.25953
 20
-0.300068
 30
16.2947
 11
4.89241
 21
-0.300068
 31
16.8576
 12
4.89241
 22
0.301452
 32
16.8576
 13
5.25953
 23
0.301452
 33
16.2947
  0
3DFACE
  8
0
 62
    50
 10
4.44508
 20
0.301452
 30
17.3195
 11
4.89241
 21
0.301452
 31
16.8576
 12
4.53169
 22
0.301452
 32
16.4037
 13
4.16166
 23
0.301452
 33
16.7858
  0
3DFACE
  8
0
 62
    50
 10
4.44508
 20
0.301452
 30
17.3195
 11
3.93472
 21
0.301452
 31
17.6628
 12
3.7395
 22
0.301452
 32
17.0697
 13
4.16166
 23
0.301452
 33
16.7858
  0
3DFACE
  8
0
 62
    50
 10
3.93472
 20
0.301452
 30
17.6628
 11
3.38095
 21
0.301452
 31
17.8742
 12
3.28143
 22
0.301452
 32
17.2446
 13
3.7395
 23
0.301452
 33
17.0697
  0
3DFACE
  8
0
 62
    50
 10
3.38095
 20
0.301452
 30
17.8742
 11
2.80505
 21
0.301452
 31
17.9455
 12
2.80504
 22
0.301452
 32
17.3036
 13
3.28143
 23
0.301452
 33
17.2446
  0
3DFACE
  8
0
 62
    50
 10
4.44508
 20
0.301452
 30
11.1424
 11
3.93472
 21
0.301452
 31
10.7991
 12
3.7395
 22
0.301452
 32
11.3921
 13
4.16166
 23
0.301452
 33
11.6761
  0
3DFACE
  8
0
 62
    50
 10
4.44508
 20
0.301452
 30
11.1424
 11
4.89241
 21
0.301452
 31
11.6043
 12
4.53169
 22
0.301452
 32
12.0582
 13
4.16166
 23
0.301452
 33
11.6761
  0
3DFACE
  8
0
 62
    50
 10
4.89241
 20
0.301452
 30
11.6043
 11
5.25953
 21
0.301452
 31
12.1672
 12
4.83537
 22
0.301452
 32
12.5238
 13
4.53169
 23
0.301452
 33
12.0582
  0
3DFACE
  8
0
 62
    50
 10
5.25953
 20
0.301452
 30
12.1672
 11
5.53232
 21
0.301452
 31
12.8094
 12
5.06102
 22
0.301452
 32
13.0551
 13
4.83537
 23
0.301452
 33
12.5238
  0
3DFACE
  8
0
 62
    50
 10
5.53232
 20
0.301452
 30
12.8094
 11
5.7003
 21
0.301452
 31
13.5063
 12
5.19997
 22
0.301452
 32
13.6315
 13
5.06102
 23
0.301452
 33
13.0551
  0
3DFACE
  8
0
 62
    50
 10
5.7003
 20
0.301452
 30
13.5063
 11
5.75702
 21
0.301452
 31
14.2309
 12
5.24689
 22
0.301452
 32
14.2309
 13
5.19997
 23
0.301452
 33
13.6315
  0
3DFACE
  8
0
 62
    50
 10
5.7003
 20
0.301452
 30
14.9556
 11
5.75702
 21
0.301452
 31
14.2309
 12
5.24689
 22
0.301452
 32
14.2309
 13
5.19997
 23
0.301452
 33
14.8304
  0
3DFACE
  8
0
 62
    50
 10
5.7003
 20
0.301452
 30
14.9556
 11
5.53232
 21
0.301452
 31
15.6525
 12
5.06102
 22
0.301452
 32
15.4068
 13
5.19997
 23
0.301452
 33
14.8304
  0
3DFACE
  8
0
 62
    50
 10
5.53232
 20
0.301452
 30
15.6525
 11
5.25953
 21
0.301452
 31
16.2947
 12
4.83537
 22
0.301452
 32
15.938
 13
5.06102
 23
0.301452
 33
15.4068
  0
3DFACE
  8
0
 62
    50
 10
5.25953
 20
0.301452
 30
16.2947
 11
4.89241
 21
0.301452
 31
16.8576
 12
4.53169
 22
0.301452
 32
16.4037
 13
4.83537
 23
0.301452
 33
15.938
  0
3DFACE
  8
0
 62
    50
 10
-0.048166
 20
-0.000778
 30
-3.75846
 11
0.945698
 21
0.20307
 31
-3.62599
 12
1.09945
 22
-0.000778
 32
-3.62599
 13
1.09945
 23
-0.000778
 33
-3.62599
  0
3DFACE
  8
0
 62
    50
 10
1.09945
 20
-0.000778
 30
-3.62599
 11
0.945698
 21
0.20307
 31
-3.62599
 12
1.78825
 22
0.375885
 32
-3.24874
 13
2.07235
 23
-0.000778
 33
-3.24874
  0
3DFACE
  8
0
 62
    50
 10
2.07235
 20
-0.000778
 30
-3.24874
 11
1.78825
 21
0.375885
 31
-3.24874
 12
2.35123
 22
0.491355
 32
-2.68416
 13
2.72242
 23
-0.000778
 33
-2.68416
  0
3DFACE
  8
0
 62
    50
 10
2.72242
 20
-0.000778
 30
-2.68416
 11
2.35123
 21
0.491355
 31
-2.68416
 12
2.54892
 22
0.531903
 32
-2.01819
 13
2.9507
 23
-0.000778
 33
-2.01819
  0
3DFACE
  8
0
 62
    50
 10
2.9507
 20
-0.000778
 30
-2.01819
 11
2.54892
 21
0.531903
 31
-2.01819
 12
2.35123
 22
0.491355
 32
-1.35222
 13
2.72242
 23
-0.000778
 33
-1.35222
  0
3DFACE
  8
0
 62
    50
 10
1.78825
 20
0.375885
 30
-0.787638
 11
2.07235
 21
-0.000778
 31
-0.787638
 12
2.72242
 22
-0.000778
 32
-1.35222
 13
2.35123
 23
0.491355
 33
-1.35222
  0
3DFACE
  8
0
 62
    50
 10
2.07235
 20
-0.000778
 30
-0.787638
 11
1.78825
 21
0.375885
 31
-0.787638
 12
0.945698
 22
0.20307
 32
-0.410396
 13
1.09945
 23
-0.000778
 33
-0.410396
  0
3DFACE
  8
0
 62
    50
 10
1.09945
 20
-0.000778
 30
-0.410396
 11
0.945698
 21
0.20307
 31
-0.410396
 12
-0.048166
 22
-0.000778
 32
-0.277925
 13
-0.048166
 23
-0.000778
 33
-0.277925
  0
3DFACE
  8
0
 62
    50
 10
0.945698
 20
0.20307
 30
-0.410396
 11
0.525641
 21
0.352298
 31
-0.410396
 12
-0.048166
 22
-0.000778
 32
-0.277925
 13
-0.048166
 23
-0.000778
 33
-0.277925
  0
3DFACE
  8
0
 62
    50
 10
1.78825
 20
0.375885
 30
-0.787638
 11
1.01209
 21
0.651621
 31
-0.787638
 12
0.525641
 22
0.352298
 32
-0.410396
 13
0.945698
 23
0.20307
 33
-0.410396
  0
3DFACE
  8
0
 62
    50
 10
2.35123
 20
0.491355
 30
-1.35222
 11
1.33713
 21
0.851622
 31
-1.35222
 12
1.01209
 22
0.651621
 32
-0.787638
 13
1.78825
 23
0.375885
 33
-0.787638
  0
3DFACE
  8
0
 62
    50
 10
2.54892
 20
0.531903
 30
-2.01819
 11
1.45126
 21
0.921853
 31
-2.01819
 12
1.33713
 22
0.851622
 32
-1.35222
 13
2.35123
 23
0.491355
 33
-1.35222
  0
3DFACE
  8
0
 62
    50
 10
2.35123
 20
0.491355
 30
-2.68416
 11
1.33713
 21
0.851622
 31
-2.68416
 12
1.45126
 22
0.921853
 32
-2.01819
 13
2.54892
 23
0.531903
 33
-2.01819
  0
3DFACE
  8
0
 62
    50
 10
1.78825
 20
0.375885
 30
-3.24874
 11
1.01209
 21
0.651621
 31
-3.24874
 12
1.33713
 22
0.851622
 32
-2.68416
 13
2.35123
 23
0.491355
 33
-2.68416
  0
3DFACE
  8
0
 62
    50
 10
0.945698
 20
0.20307
 30
-3.62599
 11
0.525642
 21
0.352298
 31
-3.62599
 12
1.01209
 22
0.651621
 32
-3.24874
 13
1.78825
 23
0.375885
 33
-3.24874
  0
3DFACE
  8
0
 62
    50
 10
-0.048166
 20
-0.000778
 30
-3.75846
 11
0.525642
 21
0.352298
 31
-3.62599
 12
0.945698
 22
0.20307
 32
-3.62599
 13
0.945698
 23
0.20307
 33
-3.62599
  0
3DFACE
  8
0
 62
    50
 10
-0.048166
 20
-0.000778
 30
-3.75846
 11
-0.048166
 21
0.406919
 31
-3.62599
 12
0.525642
 22
0.352298
 32
-3.62599
 13
0.525642
 23
0.352298
 33
-3.62599
  0
3DFACE
  8
0
 62
    50
 10
0.525642
 20
0.352298
 30
-3.62599
 11
-0.048166
 21
0.406919
 31
-3.62599
 12
-0.048166
 22
0.752547
 32
-3.24874
 13
1.01209
 23
0.651621
 33
-3.24874
  0
3DFACE
  8
0
 62
    50
 10
1.01209
 20
0.651621
 30
-3.24874
 11
-0.048166
 21
0.752547
 31
-3.24874
 12
-0.048166
 22
0.983489
 32
-2.68416
 13
1.33713
 23
0.851622
 33
-2.68416
  0
3DFACE
  8
0
 62
    50
 10
1.33713
 20
0.851622
 30
-2.68416
 11
-0.048166
 21
0.983489
 31
-2.68416
 12
-0.048166
 22
1.06459
 32
-2.01819
 13
1.45126
 23
0.921853
 33
-2.01819
  0
3DFACE
  8
0
 62
    50
 10
1.45126
 20
0.921853
 30
-2.01819
 11
-0.048166
 21
1.06459
 31
-2.01819
 12
-0.048166
 22
0.983489
 32
-1.35222
 13
1.33713
 23
0.851622
 33
-1.35222
  0
3DFACE
  8
0
 62
    50
 10
1.33713
 20
0.851622
 30
-1.35222
 11
-0.048166
 21
0.983489
 31
-1.35222
 12
-0.048166
 22
0.752547
 32
-0.787638
 13
1.01209
 23
0.651621
 33
-0.787638
  0
3DFACE
  8
0
 62
    50
 10
1.01209
 20
0.651621
 30
-0.787638
 11
-0.048166
 21
0.752547
 31
-0.787638
 12
-0.048166
 22
0.406919
 32
-0.410396
 13
0.525641
 23
0.352298
 33
-0.410396
  0
3DFACE
  8
0
 62
    50
 10
0.525641
 20
0.352298
 30
-0.410396
 11
-0.048166
 21
0.406919
 31
-0.410396
 12
-0.048166
 22
-0.000778
 32
-0.277925
 13
-0.048166
 23
-0.000778
 33
-0.277925
  0
3DFACE
  8
0
 62
    50
 10
-0.048166
 20
0.406919
 30
-0.410396
 11
-0.621974
 21
0.352298
 31
-0.410396
 12
-0.048166
 22
-0.000778
 32
-0.277925
 13
-0.048166
 23
-0.000778
 33
-0.277925
  0
3DFACE
  8
0
 62
    50
 10
-0.048166
 20
0.752547
 30
-0.787638
 11
-1.10842
 21
0.651621
 31
-0.787638
 12
-0.621974
 22
0.352298
 32
-0.410396
 13
-0.048166
 23
0.406919
 33
-0.410396
  0
3DFACE
  8
0
 62
    50
 10
-0.048166
 20
0.983489
 30
-1.35222
 11
-1.43346
 21
0.851622
 31
-1.35222
 12
-1.10842
 22
0.651621
 32
-0.787638
 13
-0.048166
 23
0.752547
 33
-0.787638
  0
3DFACE
  8
0
 62
    50
 10
-0.048166
 20
1.06459
 30
-2.01819
 11
-1.5476
 21
0.921853
 31
-2.01819
 12
-1.43346
 22
0.851622
 32
-1.35222
 13
-0.048166
 23
0.983489
 33
-1.35222
  0
3DFACE
  8
0
 62
    50
 10
-0.048166
 20
0.983489
 30
-2.68416
 11
-1.43346
 21
0.851622
 31
-2.68416
 12
-1.5476
 22
0.921853
 32
-2.01819
 13
-0.048166
 23
1.06459
 33
-2.01819
  0
3DFACE
  8
0
 62
    50
 10
-0.048166
 20
0.752547
 30
-3.24874
 11
-1.10842
 21
0.651621
 31
-3.24874
 12
-1.43346
 22
0.851622
 32
-2.68416
 13
-0.048166
 23
0.983489
 33
-2.68416
  0
3DFACE
  8
0
 62
    50
 10
-0.048166
 20
0.406919
 30
-3.62599
 11
-0.621974
 21
0.352298
 31
-3.62599
 12
-1.10842
 22
0.651621
 32
-3.24874
 13
-0.048166
 23
0.752547
 33
-3.24874
  0
3DFACE
  8
0
 62
    50
 10
-0.048166
 20
-0.000778
 30
-3.75846
 11
-0.621974
 21
0.352298
 31
-3.62599
 12
-0.048166
 22
0.406919
 32
-3.62599
 13
-0.048166
 23
0.406919
 33
-3.62599
  0
3DFACE
  8
0
 62
    50
 10
-0.048166
 20
-0.000778
 30
-3.75846
 11
-1.04203
 21
0.20307
 31
-3.62599
 12
-0.621974
 22
0.352298
 32
-3.62599
 13
-0.621974
 23
0.352298
 33
-3.62599
  0
3DFACE
  8
0
 62
    50
 10
-0.621974
 20
0.352298
 30
-3.62599
 11
-1.04203
 21
0.20307
 31
-3.62599
 12
-1.88459
 22
0.375885
 32
-3.24874
 13
-1.10842
 23
0.651621
 33
-3.24874
  0
3DFACE
  8
0
 62
    50
 10
-1.10842
 20
0.651621
 30
-3.24874
 11
-1.88459
 21
0.375885
 31
-3.24874
 12
-2.44757
 22
0.491355
 32
-2.68416
 13
-1.43346
 23
0.851622
 33
-2.68416
  0
3DFACE
  8
0
 62
    50
 10
-1.43346
 20
0.851622
 30
-2.68416
 11
-2.44757
 21
0.491355
 31
-2.68416
 12
-2.64526
 22
0.531903
 32
-2.01819
 13
-1.5476
 23
0.921853
 33
-2.01819
  0
3DFACE
  8
0
 62
    50
 10
-1.5476
 20
0.921853
 30
-2.01819
 11
-2.64526
 21
0.531903
 31
-2.01819
 12
-2.44757
 22
0.491355
 32
-1.35222
 13
-1.43346
 23
0.851622
 33
-1.35222
  0
3DFACE
  8
0
 62
    50
 10
-1.43346
 20
0.851622
 30
-1.35222
 11
-2.44757
 21
0.491355
 31
-1.35222
 12
-1.88459
 22
0.375885
 32
-0.787638
 13
-1.10842
 23
0.651621
 33
-0.787638
  0
3DFACE
  8
0
 62
    50
 10
-1.10842
 20
0.651621
 30
-0.787638
 11
-1.88459
 21
0.375885
 31
-0.787638
 12
-1.04203
 22
0.20307
 32
-0.410396
 13
-0.621974
 23
0.352298
 33
-0.410396
  0
3DFACE
  8
0
 62
    50
 10
-0.621974
 20
0.352298
 30
-0.410396
 11
-1.04203
 21
0.20307
 31
-0.410396
 12
-0.048166
 22
-0.000778
 32
-0.277925
 13
-0.048166
 23
-0.000778
 33
-0.277925
  0
3DFACE
  8
0
 62
    50
 10
-1.04203
 20
0.20307
 30
-0.410396
 11
-1.19578
 21
-0.000778
 31
-0.410396
 12
-0.048166
 22
-0.000778
 32
-0.277925
 13
-0.048166
 23
-0.000778
 33
-0.277925
  0
3DFACE
  8
0
 62
    50
 10
-1.88459
 20
0.375885
 30
-0.787638
 11
-2.16868
 21
-0.000778
 31
-0.787638
 12
-1.19578
 22
-0.000778
 32
-0.410396
 13
-1.04203
 23
0.20307
 33
-0.410396
  0
3DFACE
  8
0
 62
    50
 10
-2.44757
 20
0.491355
 30
-1.35222
 11
-2.81875
 21
-0.000778
 31
-1.35222
 12
-2.16868
 22
-0.000778
 32
-0.787638
 13
-1.88459
 23
0.375885
 33
-0.787638
  0
3DFACE
  8
0
 62
    50
 10
-2.64526
 20
0.531903
 30
-2.01819
 11
-3.04703
 21
-0.000778
 31
-2.01819
 12
-2.81875
 22
-0.000778
 32
-1.35222
 13
-2.44757
 23
0.491355
 33
-1.35222
  0
3DFACE
  8
0
 62
    50
 10
-2.44757
 20
0.491355
 30
-2.68416
 11
-2.81875
 21
-0.000778
 31
-2.68416
 12
-3.04703
 22
-0.000778
 32
-2.01819
 13
-2.64526
 23
0.531903
 33
-2.01819
  0
3DFACE
  8
0
 62
    50
 10
-1.88459
 20
0.375885
 30
-3.24874
 11
-2.16868
 21
-0.000778
 31
-3.24874
 12
-2.81875
 22
-0.000778
 32
-2.68416
 13
-2.44757
 23
0.491355
 33
-2.68416
  0
3DFACE
  8
0
 62
    50
 10
-1.04203
 20
0.20307
 30
-3.62599
 11
-1.19578
 21
-0.000778
 31
-3.62599
 12
-2.16868
 22
-0.000778
 32
-3.24874
 13
-1.88459
 23
0.375885
 33
-3.24874
  0
3DFACE
  8
0
 62
    50
 10
-0.048166
 20
-0.000778
 30
-3.75846
 11
-1.19578
 21
-0.000778
 31
-3.62599
 12
-1.04203
 22
0.20307
 32
-3.62599
 13
-1.04203
 23
0.20307
 33
-3.62599
  0
3DFACE
  8
0
 62
    50
 10
-0.048166
 20
-0.000778
 30
-3.75846
 11
-1.04203
 21
-0.204626
 31
-3.62599
 12
-1.19578
 22
-0.000778
 32
-3.62599
 13
-1.19578
 23
-0.000778
 33
-3.62599
  0
3DFACE
  8
0
 62
    50
 10
-1.19578
 20
-0.000778
 30
-3.62599
 11
-1.04203
 21
-0.204626
 31
-3.62599
 12
-1.88459
 22
-0.377441
 32
-3.24874
 13
-2.16868
 23
-0.000778
 33
-3.24874
  0
3DFACE
  8
0
 62
    50
 10
-2.16868
 20
-0.000778
 30
-3.24874
 11
-1.88459
 21
-0.377441
 31
-3.24874
 12
-2.44757
 22
-0.492911
 32
-2.68416
 13
-2.81875
 23
-0.000778
 33
-2.68416
  0
3DFACE
  8
0
 62
    50
 10
-2.81875
 20
-0.000778
 30
-2.68416
 11
-2.44757
 21
-0.492911
 31
-2.68416
 12
-2.64526
 22
-0.533459
 32
-2.01819
 13
-3.04703
 23
-0.000778
 33
-2.01819
  0
3DFACE
  8
0
 62
    50
 10
-3.04703
 20
-0.000778
 30
-2.01819
 11
-2.64526
 21
-0.533459
 31
-2.01819
 12
-2.44757
 22
-0.492911
 32
-1.35222
 13
-2.81875
 23
-0.000778
 33
-1.35222
  0
3DFACE
  8
0
 62
    50
 10
-2.81875
 20
-0.000778
 30
-1.35222
 11
-2.44757
 21
-0.492911
 31
-1.35222
 12
-1.88459
 22
-0.377441
 32
-0.787638
 13
-2.16868
 23
-0.000778
 33
-0.787638
  0
3DFACE
  8
0
 62
    50
 10
-2.16868
 20
-0.000778
 30
-0.787638
 11
-1.88459
 21
-0.377441
 31
-0.787638
 12
-1.04203
 22
-0.204626
 32
-0.410396
 13
-1.19578
 23
-0.000778
 33
-0.410396
  0
3DFACE
  8
0
 62
    50
 10
-1.19578
 20
-0.000778
 30
-0.410396
 11
-1.04203
 21
-0.204626
 31
-0.410396
 12
-0.048166
 22
-0.000778
 32
-0.277925
 13
-0.048166
 23
-0.000778
 33
-0.277925
  0
3DFACE
  8
0
 62
    50
 10
-1.04203
 20
-0.204626
 30
-0.410396
 11
-0.621973
 21
-0.353854
 31
-0.410396
 12
-0.048166
 22
-0.000778
 32
-0.277925
 13
-0.048166
 23
-0.000778
 33
-0.277925
  0
3DFACE
  8
0
 62
    50
 10
-1.88459
 20
-0.377441
 30
-0.787638
 11
-1.10842
 21
-0.653177
 31
-0.787638
 12
-0.621973
 22
-0.353854
 32
-0.410396
 13
-1.04203
 23
-0.204626
 33
-0.410396
  0
3DFACE
  8
0
 62
    50
 10
-2.44757
 20
-0.492911
 30
-1.35222
 11
-1.43346
 21
-0.853178
 31
-1.35222
 12
-1.10842
 22
-0.653177
 32
-0.787638
 13
-1.88459
 23
-0.377441
 33
-0.787638
  0
3DFACE
  8
0
 62
    50
 10
-2.64526
 20
-0.533459
 30
-2.01819
 11
-1.5476
 21
-0.923409
 31
-2.01819
 12
-1.43346
 22
-0.853178
 32
-1.35222
 13
-2.44757
 23
-0.492911
 33
-1.35222
  0
3DFACE
  8
0
 62
    50
 10
-2.44757
 20
-0.492911
 30
-2.68416
 11
-1.43346
 21
-0.853178
 31
-2.68416
 12
-1.5476
 22
-0.923409
 32
-2.01819
 13
-2.64526
 23
-0.533459
 33
-2.01819
  0
3DFACE
  8
0
 62
    50
 10
-1.88459
 20
-0.377441
 30
-3.24874
 11
-1.10842
 21
-0.653177
 31
-3.24874
 12
-1.43346
 22
-0.853178
 32
-2.68416
 13
-2.44757
 23
-0.492911
 33
-2.68416
  0
3DFACE
  8
0
 62
    50
 10
-1.04203
 20
-0.204626
 30
-3.62599
 11
-0.621973
 21
-0.353854
 31
-3.62599
 12
-1.10842
 22
-0.653177
 32
-3.24874
 13
-1.88459
 23
-0.377441
 33
-3.24874
  0
3DFACE
  8
0
 62
    50
 10
-0.048166
 20
-0.000778
 30
-3.75846
 11
-0.621973
 21
-0.353854
 31
-3.62599
 12
-1.04203
 22
-0.204626
 32
-3.62599
 13
-1.04203
 23
-0.204626
 33
-3.62599
  0
3DFACE
  8
0
 62
    50
 10
-0.048166
 20
-0.000778
 30
-3.75846
 11
-0.048166
 21
-0.408475
 31
-3.62599
 12
-0.621973
 22
-0.353854
 32
-3.62599
 13
-0.621973
 23
-0.353854
 33
-3.62599
  0
3DFACE
  8
0
 62
    50
 10
-0.621973
 20
-0.353854
 30
-3.62599
 11
-0.048166
 21
-0.408475
 31
-3.62599
 12
-0.048166
 22
-0.754103
 32
-3.24874
 13
-1.10842
 23
-0.653177
 33
-3.24874
  0
3DFACE
  8
0
 62
    50
 10
-1.10842
 20
-0.653177
 30
-3.24874
 11
-0.048166
 21
-0.754103
 31
-3.24874
 12
-0.048166
 22
-0.985045
 32
-2.68416
 13
-1.43346
 23
-0.853178
 33
-2.68416
  0
3DFACE
  8
0
 62
    50
 10
-1.43346
 20
-0.853178
 30
-2.68416
 11
-0.048166
 21
-0.985045
 31
-2.68416
 12
-0.048166
 22
-1.06614
 32
-2.01819
 13
-1.5476
 23
-0.923409
 33
-2.01819
  0
3DFACE
  8
0
 62
    50
 10
-1.5476
 20
-0.923409
 30
-2.01819
 11
-0.048166
 21
-1.06614
 31
-2.01819
 12
-0.048166
 22
-0.985045
 32
-1.35222
 13
-1.43346
 23
-0.853178
 33
-1.35222
  0
3DFACE
  8
0
 62
    50
 10
-1.43346
 20
-0.853178
 30
-1.35222
 11
-0.048166
 21
-0.985045
 31
-1.35222
 12
-0.048166
 22
-0.754103
 32
-0.787638
 13
-1.10842
 23
-0.653177
 33
-0.787638
  0
3DFACE
  8
0
 62
    50
 10
-1.10842
 20
-0.653177
 30
-0.787638
 11
-0.048166
 21
-0.754103
 31
-0.787638
 12
-0.048166
 22
-0.408475
 32
-0.410396
 13
-0.621973
 23
-0.353854
 33
-0.410396
  0
3DFACE
  8
0
 62
    50
 10
-0.621973
 20
-0.353854
 30
-0.410396
 11
-0.048166
 21
-0.408475
 31
-0.410396
 12
-0.048166
 22
-0.000778
 32
-0.277925
 13
-0.048166
 23
-0.000778
 33
-0.277925
  0
3DFACE
  8
0
 62
    50
 10
-0.048166
 20
-0.408475
 30
-0.410396
 11
0.525641
 21
-0.353854
 31
-0.410396
 12
-0.048166
 22
-0.000778
 32
-0.277925
 13
-0.048166
 23
-0.000778
 33
-0.277925
  0
3DFACE
  8
0
 62
    50
 10
-0.048166
 20
-0.754103
 30
-0.787638
 11
1.01209
 21
-0.653177
 31
-0.787638
 12
0.525641
 22
-0.353854
 32
-0.410396
 13
-0.048166
 23
-0.408475
 33
-0.410396
  0
3DFACE
  8
0
 62
    50
 10
-0.048166
 20
-0.985045
 30
-1.35222
 11
1.33713
 21
-0.853178
 31
-1.35222
 12
1.01209
 22
-0.653177
 32
-0.787638
 13
-0.048166
 23
-0.754103
 33
-0.787638
  0
3DFACE
  8
0
 62
    50
 10
-0.048166
 20
-1.06614
 30
-2.01819
 11
1.45126
 21
-0.923409
 31
-2.01819
 12
1.33713
 22
-0.853178
 32
-1.35222
 13
-0.048166
 23
-0.985045
 33
-1.35222
  0
3DFACE
  8
0
 62
    50
 10
-0.048166
 20
-0.985045
 30
-2.68416
 11
1.33713
 21
-0.853178
 31
-2.68416
 12
1.45126
 22
-0.923409
 32
-2.01819
 13
-0.048166
 23
-1.06614
 33
-2.01819
  0
3DFACE
  8
0
 62
    50
 10
-0.048166
 20
-0.754103
 30
-3.24874
 11
1.01209
 21
-0.653177
 31
-3.24874
 12
1.33713
 22
-0.853178
 32
-2.68416
 13
-0.048166
 23
-0.985045
 33
-2.68416
  0
3DFACE
  8
0
 62
    50
 10
-0.048166
 20
-0.408475
 30
-3.62599
 11
0.525642
 21
-0.353854
 31
-3.62599
 12
1.01209
 22
-0.653177
 32
-3.24874
 13
-0.048166
 23
-0.754103
 33
-3.24874
  0
3DFACE
  8
0
 62
    50
 10
-0.048166
 20
-0.000778
 30
-3.75846
 11
0.525642
 21
-0.353854
 31
-3.62599
 12
-0.048166
 22
-0.408475
 32
-3.62599
 13
-0.048166
 23
-0.408475
 33
-3.62599
  0
3DFACE
  8
0
 62
    50
 10
-0.048166
 20
-0.000778
 30
-3.75846
 11
0.945698
 21
-0.204626
 31
-3.62599
 12
0.525642
 22
-0.353854
 32
-3.62599
 13
0.525642
 23
-0.353854
 33
-3.62599
  0
3DFACE
  8
0
 62
    50
 10
0.525642
 20
-0.353854
 30
-3.62599
 11
0.945698
 21
-0.204626
 31
-3.62599
 12
1.78825
 22
-0.377441
 32
-3.24874
 13
1.01209
 23
-0.653177
 33
-3.24874
  0
3DFACE
  8
0
 62
    50
 10
1.01209
 20
-0.653177
 30
-3.24874
 11
1.78825
 21
-0.377441
 31
-3.24874
 12
2.35123
 22
-0.492911
 32
-2.68416
 13
1.33713
 23
-0.853178
 33
-2.68416
  0
3DFACE
  8
0
 62
    50
 10
1.33713
 20
-0.853178
 30
-2.68416
 11
2.35123
 21
-0.492911
 31
-2.68416
 12
2.54892
 22
-0.533459
 32
-2.01819
 13
1.45126
 23
-0.923409
 33
-2.01819
  0
3DFACE
  8
0
 62
    50
 10
1.45126
 20
-0.923409
 30
-2.01819
 11
2.54892
 21
-0.533459
 31
-2.01819
 12
2.35123
 22
-0.492911
 32
-1.35222
 13
1.33713
 23
-0.853178
 33
-1.35222
  0
3DFACE
  8
0
 62
    50
 10
1.33713
 20
-0.853178
 30
-1.35222
 11
2.35123
 21
-0.492911
 31
-1.35222
 12
1.78825
 22
-0.377441
 32
-0.787638
 13
1.01209
 23
-0.653177
 33
-0.787638
  0
3DFACE
  8
0
 62
    50
 10
1.01209
 20
-0.653177
 30
-0.787638
 11
1.78825
 21
-0.377441
 31
-0.787638
 12
0.945698
 22
-0.204626
 32
-0.410396
 13
0.525641
 23
-0.353854
 33
-0.410396
  0
3DFACE
  8
0
 62
    50
 10
0.525641
 20
-0.353854
 30
-0.410396
 11
0.945698
 21
-0.204626
 31
-0.410396
 12
-0.048166
 22
-0.000778
 32
-0.277925
 13
-0.048166
 23
-0.000778
 33
-0.277925
  0
3DFACE
  8
0
 62
    50
 10
0.945698
 20
-0.204626
 30
-0.410396
 11
1.09945
 21
-0.000778
 31
-0.410396
 12
-0.048166
 22
-0.000778
 32
-0.277925
 13
-0.048166
 23
-0.000778
 33
-0.277925
  0
3DFACE
  8
0
 62
    50
 10
1.78825
 20
-0.377441
 30
-0.787638
 11
2.07235
 21
-0.000778
 31
-0.787638
 12
1.09945
 22
-0.000778
 32
-0.410396
 13
0.945698
 23
-0.204626
 33
-0.410396
  0
3DFACE
  8
0
 62
    50
 10
2.07235
 20
-0.000778
 30
-0.787638
 11
1.78825
 21
-0.377441
 31
-0.787638
 12
2.35123
 22
-0.492911
 32
-1.35222
 13
2.72242
 23
-0.000778
 33
-1.35222
  0
3DFACE
  8
0
 62
    50
 10
2.54892
 20
-0.533459
 30
-2.01819
 11
2.9507
 21
-0.000778
 31
-2.01819
 12
2.72242
 22
-0.000778
 32
-1.35222
 13
2.35123
 23
-0.492911
 33
-1.35222
  0
3DFACE
  8
0
 62
    50
 10
2.35123
 20
-0.492911
 30
-2.68416
 11
2.72242
 21
-0.000778
 31
-2.68416
 12
2.9507
 22
-0.000778
 32
-2.01819
 13
2.54892
 23
-0.533459
 33
-2.01819
  0
3DFACE
  8
0
 62
    50
 10
1.78825
 20
-0.377441
 30
-3.24874
 11
2.07235
 21
-0.000778
 31
-3.24874
 12
2.72242
 22
-0.000778
 32
-2.68416
 13
2.35123
 23
-0.492911
 33
-2.68416
  0
3DFACE
  8
0
 62
    50
 10
0.945698
 20
-0.204626
 30
-3.62599
 11
1.09945
 21
-0.000778
 31
-3.62599
 12
2.07235
 22
-0.000778
 32
-3.24874
 13
1.78825
 23
-0.377441
 33
-3.24874
  0
3DFACE
  8
0
 62
    50
 10
-0.048166
 20
-0.000778
 30
-3.75846
 11
1.09945
 21
-0.000778
 31
-3.62599
 12
0.945698
 22
-0.204626
 32
-3.62599
 13
0.945698
 23
-0.204626
 33
-3.62599
  0
3DFACE
  8
0
 62
    90
 10
10.0578
 20
-0.000778
 30
4.2809
 11
11.0516
 21
0.20307
 31
4.41337
 12
11.2054
 22
-0.000778
 32
4.41337
 13
11.2054
 23
-0.000778
 33
4.41337
  0
3DFACE
  8
0
 62
    90
 10
11.2054
 20
-0.000778
 30
4.41337
 11
11.0516
 21
0.20307
 31
4.41337
 12
11.8942
 22
0.375885
 32
4.79061
 13
12.1783
 23
-0.000778
 33
4.79061
  0
3DFACE
  8
0
 62
    90
 10
12.1783
 20
-0.000778
 30
4.79061
 11
11.8942
 21
0.375885
 31
4.79061
 12
12.4572
 22
0.491355
 32
5.35519
 13
12.8284
 23
-0.000778
 33
5.35519
  0
3DFACE
  8
0
 62
    90
 10
12.8284
 20
-0.000778
 30
5.35519
 11
12.4572
 21
0.491355
 31
5.35519
 12
12.6549
 22
0.531903
 32
6.02116
 13
13.0566
 23
-0.000778
 33
6.02116
  0
3DFACE
  8
0
 62
    90
 10
13.0566
 20
-0.000778
 30
6.02116
 11
12.6549
 21
0.531903
 31
6.02116
 12
12.4572
 22
0.491355
 32
6.68714
 13
12.8284
 23
-0.000778
 33
6.68714
  0
3DFACE
  8
0
 62
    90
 10
11.8942
 20
0.375885
 30
7.25172
 11
12.1783
 21
-0.000778
 31
7.25172
 12
12.8284
 22
-0.000778
 32
6.68714
 13
12.4572
 23
0.491355
 33
6.68714
  0
3DFACE
  8
0
 62
    90
 10
12.1783
 20
-0.000778
 30
7.25172
 11
11.8942
 21
0.375885
 31
7.25172
 12
11.0516
 22
0.20307
 32
7.62896
 13
11.2054
 23
-0.000778
 33
7.62896
  0
3DFACE
  8
0
 62
    90
 10
11.2054
 20
-0.000778
 30
7.62896
 11
11.0516
 21
0.20307
 31
7.62896
 12
10.0578
 22
-0.000778
 32
7.76143
 13
10.0578
 23
-0.000778
 33
7.76143
  0
3DFACE
  8
0
 62
    90
 10
11.0516
 20
0.20307
 30
7.62896
 11
10.6316
 21
0.352298
 31
7.62896
 12
10.0578
 22
-0.000778
 32
7.76143
 13
10.0578
 23
-0.000778
 33
7.76143
  0
3DFACE
  8
0
 62
    90
 10
11.8942
 20
0.375885
 30
7.25172
 11
11.118
 21
0.651621
 31
7.25172
 12
10.6316
 22
0.352298
 32
7.62896
 13
11.0516
 23
0.20307
 33
7.62896
  0
3DFACE
  8
0
 62
    90
 10
12.4572
 20
0.491355
 30
6.68714
 11
11.4431
 21
0.851622
 31
6.68714
 12
11.118
 22
0.651621
 32
7.25172
 13
11.8942
 23
0.375885
 33
7.25172
  0
3DFACE
  8
0
 62
    90
 10
12.6549
 20
0.531903
 30
6.02116
 11
11.5572
 21
0.921853
 31
6.02116
 12
11.4431
 22
0.851622
 32
6.68714
 13
12.4572
 23
0.491355
 33
6.68714
  0
3DFACE
  8
0
 62
    90
 10
12.4572
 20
0.491355
 30
5.35519
 11
11.4431
 21
0.851622
 31
5.35519
 12
11.5572
 22
0.921853
 32
6.02116
 13
12.6549
 23
0.531903
 33
6.02116
  0
3DFACE
  8
0
 62
    90
 10
11.8942
 20
0.375885
 30
4.79061
 11
11.118
 21
0.651621
 31
4.79061
 12
11.4431
 22
0.851622
 32
5.35519
 13
12.4572
 23
0.491355
 33
5.35519
  0
3DFACE
  8
0
 62
    90
 10
11.0516
 20
0.20307
 30
4.41337
 11
10.6316
 21
0.352298
 31
4.41337
 12
11.118
 22
0.651621
 32
4.79061
 13
11.8942
 23
0.375885
 33
4.79061
  0
3DFACE
  8
0
 62
    90
 10
10.0578
 20
-0.000778
 30
4.2809
 11
10.6316
 21
0.352298
 31
4.41337
 12
11.0516
 22
0.20307
 32
4.41337
 13
11.0516
 23
0.20307
 33
4.41337
  0
3DFACE
  8
0
 62
    90
 10
10.0578
 20
-0.000778
 30
4.2809
 11
10.0578
 21
0.406919
 31
4.41337
 12
10.6316
 22
0.352298
 32
4.41337
 13
10.6316
 23
0.352298
 33
4.41337
  0
3DFACE
  8
0
 62
    90
 10
10.6316
 20
0.352298
 30
4.41337
 11
10.0578
 21
0.406919
 31
4.41337
 12
10.0578
 22
0.752547
 32
4.79061
 13
11.118
 23
0.651621
 33
4.79061
  0
3DFACE
  8
0
 62
    90
 10
11.118
 20
0.651621
 30
4.79061
 11
10.0578
 21
0.752547
 31
4.79061
 12
10.0578
 22
0.983489
 32
5.35519
 13
11.4431
 23
0.851622
 33
5.35519
  0
3DFACE
  8
0
 62
    90
 10
11.4431
 20
0.851622
 30
5.35519
 11
10.0578
 21
0.983489
 31
5.35519
 12
10.0578
 22
1.06459
 32
6.02116
 13
11.5572
 23
0.921853
 33
6.02116
  0
3DFACE
  8
0
 62
    90
 10
11.5572
 20
0.921853
 30
6.02116
 11
10.0578
 21
1.06459
 31
6.02116
 12
10.0578
 22
0.983489
 32
6.68714
 13
11.4431
 23
0.851622
 33
6.68714
  0
3DFACE
  8
0
 62
    90
 10
11.4431
 20
0.851622
 30
6.68714
 11
10.0578
 21
0.983489
 31
6.68714
 12
10.0578
 22
0.752547
 32
7.25172
 13
11.118
 23
0.651621
 33
7.25172
  0
3DFACE
  8
0
 62
    90
 10
11.118
 20
0.651621
 30
7.25172
 11
10.0578
 21
0.752547
 31
7.25172
 12
10.0578
 22
0.406919
 32
7.62896
 13
10.6316
 23
0.352298
 33
7.62896
  0
3DFACE
  8
0
 62
    90
 10
10.6316
 20
0.352298
 30
7.62896
 11
10.0578
 21
0.406919
 31
7.62896
 12
10.0578
 22
-0.000778
 32
7.76143
 13
10.0578
 23
-0.000778
 33
7.76143
  0
3DFACE
  8
0
 62
    90
 10
10.0578
 20
0.406919
 30
7.62896
 11
9.48396
 21
0.352298
 31
7.62896
 12
10.0578
 22
-0.000778
 32
7.76143
 13
10.0578
 23
-0.000778
 33
7.76143
  0
3DFACE
  8
0
 62
    90
 10
10.0578
 20
0.752547
 30
7.25172
 11
8.99751
 21
0.651621
 31
7.25172
 12
9.48396
 22
0.352298
 32
7.62896
 13
10.0578
 23
0.406919
 33
7.62896
  0
3DFACE
  8
0
 62
    90
 10
10.0578
 20
0.983489
 30
6.68714
 11
8.67248
 21
0.851622
 31
6.68714
 12
8.99751
 22
0.651621
 32
7.25172
 13
10.0578
 23
0.752547
 33
7.25172
  0
3DFACE
  8
0
 62
    90
 10
10.0578
 20
1.06459
 30
6.02116
 11
8.55834
 21
0.921853
 31
6.02116
 12
8.67248
 22
0.851622
 32
6.68714
 13
10.0578
 23
0.983489
 33
6.68714
  0
3DFACE
  8
0
 62
    90
 10
10.0578
 20
0.983489
 30
5.35519
 11
8.67248
 21
0.851622
 31
5.35519
 12
8.55834
 22
0.921853
 32
6.02116
 13
10.0578
 23
1.06459
 33
6.02116
  0
3DFACE
  8
0
 62
    90
 10
10.0578
 20
0.752547
 30
4.79061
 11
8.99751
 21
0.651621
 31
4.79061
 12
8.67248
 22
0.851622
 32
5.35519
 13
10.0578
 23
0.983489
 33
5.35519
  0
3DFACE
  8
0
 62
    90
 10
10.0578
 20
0.406919
 30
4.41337
 11
9.48396
 21
0.352298
 31
4.41337
 12
8.99751
 22
0.651621
 32
4.79061
 13
10.0578
 23
0.752547
 33
4.79061
  0
3DFACE
  8
0
 62
    90
 10
10.0578
 20
-0.000778
 30
4.2809
 11
9.48396
 21
0.352298
 31
4.41337
 12
10.0578
 22
0.406919
 32
4.41337
 13
10.0578
 23
0.406919
 33
4.41337
  0
3DFACE
  8
0
 62
    90
 10
10.0578
 20
-0.000778
 30
4.2809
 11
9.06391
 21
0.20307
 31
4.41337
 12
9.48396
 22
0.352298
 32
4.41337
 13
9.48396
 23
0.352298
 33
4.41337
  0
3DFACE
  8
0
 62
    90
 10
9.48396
 20
0.352298
 30
4.41337
 11
9.06391
 21
0.20307
 31
4.41337
 12
8.22135
 22
0.375885
 32
4.79061
 13
8.99751
 23
0.651621
 33
4.79061
  0
3DFACE
  8
0
 62
    90
 10
8.99751
 20
0.651621
 30
4.79061
 11
8.22135
 21
0.375885
 31
4.79061
 12
7.65837
 22
0.491355
 32
5.35519
 13
8.67248
 23
0.851622
 33
5.35519
  0
3DFACE
  8
0
 62
    90
 10
8.67248
 20
0.851622
 30
5.35519
 11
7.65837
 21
0.491355
 31
5.35519
 12
7.46068
 22
0.531903
 32
6.02116
 13
8.55834
 23
0.921853
 33
6.02116
  0
3DFACE
  8
0
 62
    90
 10
8.55834
 20
0.921853
 30
6.02116
 11
7.46068
 21
0.531903
 31
6.02116
 12
7.65837
 22
0.491355
 32
6.68714
 13
8.67248
 23
0.851622
 33
6.68714
  0
3DFACE
  8
0
 62
    90
 10
8.67248
 20
0.851622
 30
6.68714
 11
7.65837
 21
0.491355
 31
6.68714
 12
8.22135
 22
0.375885
 32
7.25172
 13
8.99751
 23
0.651621
 33
7.25172
  0
3DFACE
  8
0
 62
    90
 10
8.99751
 20
0.651621
 30
7.25172
 11
8.22135
 21
0.375885
 31
7.25172
 12
9.06391
 22
0.20307
 32
7.62896
 13
9.48396
 23
0.352298
 33
7.62896
  0
3DFACE
  8
0
 62
    90
 10
9.48396
 20
0.352298
 30
7.62896
 11
9.06391
 21
0.20307
 31
7.62896
 12
10.0578
 22
-0.000778
 32
7.76143
 13
10.0578
 23
-0.000778
 33
7.76143
  0
3DFACE
  8
0
 62
    90
 10
9.06391
 20
0.20307
 30
7.62896
 11
8.91015
 21
-0.000778
 31
7.62896
 12
10.0578
 22
-0.000778
 32
7.76143
 13
10.0578
 23
-0.000778
 33
7.76143
  0
3DFACE
  8
0
 62
    90
 10
8.22135
 20
0.375885
 30
7.25172
 11
7.93725
 21
-0.000778
 31
7.25172
 12
8.91015
 22
-0.000778
 32
7.62896
 13
9.06391
 23
0.20307
 33
7.62896
  0
3DFACE
  8
0
 62
    90
 10
7.65837
 20
0.491355
 30
6.68714
 11
7.28718
 21
-0.000778
 31
6.68714
 12
7.93725
 22
-0.000778
 32
7.25172
 13
8.22135
 23
0.375885
 33
7.25172
  0
3DFACE
  8
0
 62
    90
 10
7.46068
 20
0.531903
 30
6.02116
 11
7.05891
 21
-0.000778
 31
6.02116
 12
7.28718
 22
-0.000778
 32
6.68714
 13
7.65837
 23
0.491355
 33
6.68714
  0
3DFACE
  8
0
 62
    90
 10
7.65837
 20
0.491355
 30
5.35519
 11
7.28718
 21
-0.000778
 31
5.35519
 12
7.05891
 22
-0.000778
 32
6.02116
 13
7.46068
 23
0.531903
 33
6.02116
  0
3DFACE
  8
0
 62
    90
 10
8.22135
 20
0.375885
 30
4.79061
 11
7.93725
 21
-0.000778
 31
4.79061
 12
7.28718
 22
-0.000778
 32
5.35519
 13
7.65837
 23
0.491355
 33
5.35519
  0
3DFACE
  8
0
 62
    90
 10
9.06391
 20
0.20307
 30
4.41337
 11
8.91015
 21
-0.000778
 31
4.41337
 12
7.93725
 22
-0.000778
 32
4.79061
 13
8.22135
 23
0.375885
 33
4.79061
  0
3DFACE
  8
0
 62
    90
 10
10.0578
 20
-0.000778
 30
4.2809
 11
8.91015
 21
-0.000778
 31
4.41337
 12
9.06391
 22
0.20307
 32
4.41337
 13
9.06391
 23
0.20307
 33
4.41337
  0
3DFACE
  8
0
 62
    90
 10
10.0578
 20
-0.000778
 30
4.2809
 11
9.06391
 21
-0.204626
 31
4.41337
 12
8.91015
 22
-0.000778
 32
4.41337
 13
8.91015
 23
-0.000778
 33
4.41337
  0
3DFACE
  8
0
 62
    90
 10
8.91015
 20
-0.000778
 30
4.41337
 11
9.06391
 21
-0.204626
 31
4.41337
 12
8.22135
 22
-0.377441
 32
4.79061
 13
7.93725
 23
-0.000778
 33
4.79061
  0
3DFACE
  8
0
 62
    90
 10
7.93725
 20
-0.000778
 30
4.79061
 11
8.22135
 21
-0.377441
 31
4.79061
 12
7.65837
 22
-0.492911
 32
5.35519
 13
7.28718
 23
-0.000778
 33
5.35519
  0
3DFACE
  8
0
 62
    90
 10
7.28718
 20
-0.000778
 30
5.35519
 11
7.65837
 21
-0.492911
 31
5.35519
 12
7.46068
 22
-0.533459
 32
6.02116
 13
7.05891
 23
-0.000778
 33
6.02116
  0
3DFACE
  8
0
 62
    90
 10
7.05891
 20
-0.000778
 30
6.02116
 11
7.46068
 21
-0.533459
 31
6.02116
 12
7.65837
 22
-0.492911
 32
6.68714
 13
7.28718
 23
-0.000778
 33
6.68714
  0
3DFACE
  8
0
 62
    90
 10
7.28718
 20
-0.000778
 30
6.68714
 11
7.65837
 21
-0.492911
 31
6.68714
 12
8.22135
 22
-0.377441
 32
7.25172
 13
7.93725
 23
-0.000778
 33
7.25172
  0
3DFACE
  8
0
 62
    90
 10
7.93725
 20
-0.000778
 30
7.25172
 11
8.22135
 21
-0.377441
 31
7.25172
 12
9.06391
 22
-0.204626
 32
7.62896
 13
8.91015
 23
-0.000778
 33
7.62896
  0
3DFACE
  8
0
 62
    90
 10
8.91015
 20
-0.000778
 30
7.62896
 11
9.06391
 21
-0.204626
 31
7.62896
 12
10.0578
 22
-0.000778
 32
7.76143
 13
10.0578
 23
-0.000778
 33
7.76143
  0
3DFACE
  8
0
 62
    90
 10
9.06391
 20
-0.204626
 30
7.62896
 11
9.48396
 21
-0.353854
 31
7.62896
 12
10.0578
 22
-0.000778
 32
7.76143
 13
10.0578
 23
-0.000778
 33
7.76143
  0
3DFACE
  8
0
 62
    90
 10
8.22135
 20
-0.377441
 30
7.25172
 11
8.99751
 21
-0.653177
 31
7.25172
 12
9.48396
 22
-0.353854
 32
7.62896
 13
9.06391
 23
-0.204626
 33
7.62896
  0
3DFACE
  8
0
 62
    90
 10
7.65837
 20
-0.492911
 30
6.68714
 11
8.67248
 21
-0.853178
 31
6.68714
 12
8.99751
 22
-0.653177
 32
7.25172
 13
8.22135
 23
-0.377441
 33
7.25172
  0
3DFACE
  8
0
 62
    90
 10
7.46068
 20
-0.533459
 30
6.02116
 11
8.55834
 21
-0.923409
 31
6.02116
 12
8.67248
 22
-0.853178
 32
6.68714
 13
7.65837
 23
-0.492911
 33
6.68714
  0
3DFACE
  8
0
 62
    90
 10
7.65837
 20
-0.492911
 30
5.35519
 11
8.67248
 21
-0.853178
 31
5.35519
 12
8.55834
 22
-0.923409
 32
6.02116
 13
7.46068
 23
-0.533459
 33
6.02116
  0
3DFACE
  8
0
 62
    90
 10
8.22135
 20
-0.377441
 30
4.79061
 11
8.99751
 21
-0.653177
 31
4.79061
 12
8.67248
 22
-0.853178
 32
5.35519
 13
7.65837
 23
-0.492911
 33
5.35519
  0
3DFACE
  8
0
 62
    90
 10
9.06391
 20
-0.204626
 30
4.41337
 11
9.48396
 21
-0.353854
 31
4.41337
 12
8.99751
 22
-0.653177
 32
4.79061
 13
8.22135
 23
-0.377441
 33
4.79061
  0
3DFACE
  8
0
 62
    90
 10
10.0578
 20
-0.000778
 30
4.2809
 11
9.48396
 21
-0.353854
 31
4.41337
 12
9.06391
 22
-0.204626
 32
4.41337
 13
9.06391
 23
-0.204626
 33
4.41337
  0
3DFACE
  8
0
 62
    90
 10
10.0578
 20
-0.000778
 30
4.2809
 11
10.0578
 21
-0.408475
 31
4.41337
 12
9.48396
 22
-0.353854
 32
4.41337
 13
9.48396
 23
-0.353854
 33
4.41337
  0
3DFACE
  8
0
 62
    90
 10
9.48396
 20
-0.353854
 30
4.41337
 11
10.0578
 21
-0.408475
 31
4.41337
 12
10.0578
 22
-0.754103
 32
4.79061
 13
8.99751
 23
-0.653177
 33
4.79061
  0
3DFACE
  8
0
 62
    90
 10
8.99751
 20
-0.653177
 30
4.79061
 11
10.0578
 21
-0.754103
 31
4.79061
 12
10.0578
 22
-0.985045
 32
5.35519
 13
8.67248
 23
-0.853178
 33
5.35519
  0
3DFACE
  8
0
 62
    90
 10
8.67248
 20
-0.853178
 30
5.35519
 11
10.0578
 21
-0.985045
 31
5.35519
 12
10.0578
 22
-1.06614
 32
6.02116
 13
8.55834
 23
-0.923409
 33
6.02116
  0
3DFACE
  8
0
 62
    90
 10
8.55834
 20
-0.923409
 30
6.02116
 11
10.0578
 21
-1.06614
 31
6.02116
 12
10.0578
 22
-0.985045
 32
6.68714
 13
8.67248
 23
-0.853178
 33
6.68714
  0
3DFACE
  8
0
 62
    90
 10
8.67248
 20
-0.853178
 30
6.68714
 11
10.0578
 21
-0.985045
 31
6.68714
 12
10.0578
 22
-0.754103
 32
7.25172
 13
8.99751
 23
-0.653177
 33
7.25172
  0
3DFACE
  8
0
 62
    90
 10
8.99751
 20
-0.653177
 30
7.25172
 11
10.0578
 21
-0.754103
 31
7.25172
 12
10.0578
 22
-0.408475
 32
7.62896
 13
9.48396
 23
-0.353854
 33
7.62896
  0
3DFACE
  8
0
 62
    90
 10
9.48396
 20
-0.353854
 30
7.62896
 11
10.0578
 21
-0.408475
 31
7.62896
 12
10.0578
 22
-0.000778
 32
7.76143
 13
10.0578
 23
-0.000778
 33
7.76143
  0
3DFACE
  8
0
 62
    90
 10
10.0578
 20
-0.408475
 30
7.62896
 11
10.6316
 21
-0.353854
 31
7.62896
 12
10.0578
 22
-0.000778
 32
7.76143
 13
10.0578
 23
-0.000778
 33
7.76143
  0
3DFACE
  8
0
 62
    90
 10
10.0578
 20
-0.754103
 30
7.25172
 11
11.118
 21
-0.653177
 31
7.25172
 12
10.6316
 22
-0.353854
 32
7.62896
 13
10.0578
 23
-0.408475
 33
7.62896
  0
3DFACE
  8
0
 62
    90
 10
10.0578
 20
-0.985045
 30
6.68714
 11
11.4431
 21
-0.853178
 31
6.68714
 12
11.118
 22
-0.653177
 32
7.25172
 13
10.0578
 23
-0.754103
 33
7.25172
  0
3DFACE
  8
0
 62
    90
 10
10.0578
 20
-1.06614
 30
6.02116
 11
11.5572
 21
-0.923409
 31
6.02116
 12
11.4431
 22
-0.853178
 32
6.68714
 13
10.0578
 23
-0.985045
 33
6.68714
  0
3DFACE
  8
0
 62
    90
 10
10.0578
 20
-0.985045
 30
5.35519
 11
11.4431
 21
-0.853178
 31
5.35519
 12
11.5572
 22
-0.923409
 32
6.02116
 13
10.0578
 23
-1.06614
 33
6.02116
  0
3DFACE
  8
0
 62
    90
 10
10.0578
 20
-0.754103
 30
4.79061
 11
11.118
 21
-0.653177
 31
4.79061
 12
11.4431
 22
-0.853178
 32
5.35519
 13
10.0578
 23
-0.985045
 33
5.35519
  0
3DFACE
  8
0
 62
    90
 10
10.0578
 20
-0.408475
 30
4.41337
 11
10.6316
 21
-0.353854
 31
4.41337
 12
11.118
 22
-0.653177
 32
4.79061
 13
10.0578
 23
-0.754103
 33
4.79061
  0
3DFACE
  8
0
 62
    90
 10
10.0578
 20
-0.000778
 30
4.2809
 11
10.6316
 21
-0.353854
 31
4.41337
 12
10.0578
 22
-0.408475
 32
4.41337
 13
10.0578
 23
-0.408475
 33
4.41337
  0
3DFACE
  8
0
 62
    90
 10
10.0578
 20
-0.000778
 30
4.2809
 11
11.0516
 21
-0.204626
 31
4.41337
 12
10.6316
 22
-0.353854
 32
4.41337
 13
10.6316
 23
-0.353854
 33
4.41337
  0
3DFACE
  8
0
 62
    90
 10
10.6316
 20
-0.353854
 30
4.41337
 11
11.0516
 21
-0.204626
 31
4.41337
 12
11.8942
 22
-0.377441
 32
4.79061
 13
11.118
 23
-0.653177
 33
4.79061
  0
3DFACE
  8
0
 62
    90
 10
11.118
 20
-0.653177
 30
4.79061
 11
11.8942
 21
-0.377441
 31
4.79061
 12
12.4572
 22
-0.492911
 32
5.35519
 13
11.4431
 23
-0.853178
 33
5.35519
  0
3DFACE
  8
0
 62
    90
 10
11.4431
 20
-0.853178
 30
5.35519
 11
12.4572
 21
-0.492911
 31
5.35519
 12
12.6549
 22
-0.533459
 32
6.02116
 13
11.5572
 23
-0.923409
 33
6.02116
  0
3DFACE
  8
0
 62
    90
 10
11.5572
 20
-0.923409
 30
6.02116
 11
12.6549
 21
-0.533459
 31
6.02116
 12
12.4572
 22
-0.492911
 32
6.68714
 13
11.4431
 23
-0.853178
 33
6.68714
  0
3DFACE
  8
0
 62
    90
 10
11.4431
 20
-0.853178
 30
6.68714
 11
12.4572
 21
-0.492911
 31
6.68714
 12
11.8942
 22
-0.377441
 32
7.25172
 13
11.118
 23
-0.653177
 33
7.25172
  0
3DFACE
  8
0
 62
    90
 10
11.118
 20
-0.653177
 30
7.25172
 11
11.8942
 21
-0.377441
 31
7.25172
 12
11.0516
 22
-0.204626
 32
7.62896
 13
10.6316
 23
-0.353854
 33
7.62896
  0
3DFACE
  8
0
 62
    90
 10
10.6316
 20
-0.353854
 30
7.62896
 11
11.0516
 21
-0.204626
 31
7.62896
 12
10.0578
 22
-0.000778
 32
7.76143
 13
10.0578
 23
-0.000778
 33
7.76143
  0
3DFACE
  8
0
 62
    90
 10
11.0516
 20
-0.204626
 30
7.62896
 11
11.2054
 21
-0.000778
 31
7.62896
 12
10.0578
 22
-0.000778
 32
7.76143
 13
10.0578
 23
-0.000778
 33
7.76143
  0
3DFACE
  8
0
 62
    90
 10
11.8942
 20
-0.377441
 30
7.25172
 11
12.1783
 21
-0.000778
 31
7.25172
 12
11.2054
 22
-0.000778
 32
7.62896
 13
11.0516
 23
-0.204626
 33
7.62896
  0
3DFACE
  8
0
 62
    90
 10
12.1783
 20
-0.000778
 30
7.25172
 11
11.8942
 21
-0.377441
 31
7.25172
 12
12.4572
 22
-0.492911
 32
6.68714
 13
12.8284
 23
-0.000778
 33
6.68714
  0
3DFACE
  8
0
 62
    90
 10
12.6549
 20
-0.533459
 30
6.02116
 11
13.0566
 21
-0.000778
 31
6.02116
 12
12.8284
 22
-0.000778
 32
6.68714
 13
12.4572
 23
-0.492911
 33
6.68714
  0
3DFACE
  8
0
 62
    90
 10
12.4572
 20
-0.492911
 30
5.35519
 11
12.8284
 21
-0.000778
 31
5.35519
 12
13.0566
 22
-0.000778
 32
6.02116
 13
12.6549
 23
-0.533459
 33
6.02116
  0
3DFACE
  8
0
 62
    90
 10
11.8942
 20
-0.377441
 30
4.79061
 11
12.1783
 21
-0.000778
 31
4.79061
 12
12.8284
 22
-0.000778
 32
5.35519
 13
12.4572
 23
-0.492911
 33
5.35519
  0
3DFACE
  8
0
 62
    90
 10
11.0516
 20
-0.204626
 30
4.41337
 11
11.2054
 21
-0.000778
 31
4.41337
 12
12.1783
 22
-0.000778
 32
4.79061
 13
11.8942
 23
-0.377441
 33
4.79061
  0
3DFACE
  8
0
 62
    90
 10
10.0578
 20
-0.000778
 30
4.2809
 11
11.2054
 21
-0.000778
 31
4.41337
 12
11.0516
 22
-0.204626
 32
4.41337
 13
11.0516
 23
-0.204626
 33
4.41337
  0
3DFACE
  8
0
 62
    90
 10
14.551
 20
-0.300068
 30
25.3589
 11
14.9983
 21
-0.300068
 31
24.8969
 12
14.6376
 22
-0.300068
 32
24.443
 13
14.2676
 23
-0.300068
 33
24.8251
  0
3DFACE
  8
0
 62
    90
 10
14.551
 20
-0.300068
 30
25.3589
 11
14.0407
 21
-0.300068
 31
25.7021
 12
13.8454
 22
-0.300068
 32
25.1091
 13
14.2676
 23
-0.300068
 33
24.8251
  0
3DFACE
  8
0
 62
    90
 10
14.0407
 20
-0.300068
 30
25.7021
 11
13.4869
 21
-0.300068
 31
25.9135
 12
13.3874
 22
-0.300068
 32
25.2839
 13
13.8454
 23
-0.300068
 33
25.1091
  0
3DFACE
  8
0
 62
    90
 10
13.4869
 20
-0.300068
 30
25.9135
 11
12.911
 21
-0.300068
 31
25.9849
 12
12.911
 22
-0.300068
 32
25.343
 13
13.3874
 23
-0.300068
 33
25.2839
  0
3DFACE
  8
0
 62
    90
 10
14.551
 20
-0.300068
 30
19.1817
 11
14.0407
 21
-0.300068
 31
18.8384
 12
13.8454
 22
-0.300068
 32
19.4315
 13
14.2676
 23
-0.300068
 33
19.7154
  0
3DFACE
  8
0
 62
    90
 10
14.551
 20
-0.300068
 30
19.1817
 11
14.9983
 21
-0.300068
 31
19.6437
 12
14.6376
 22
-0.300068
 32
20.0976
 13
14.2676
 23
-0.300068
 33
19.7154
  0
3DFACE
  8
0
 62
    90
 10
14.9983
 20
-0.300068
 30
19.6437
 11
15.3655
 21
-0.300068
 31
20.2066
 12
14.9413
 22
-0.300068
 32
20.5632
 13
14.6376
 23
-0.300068
 33
20.0976
  0
3DFACE
  8
0
 62
    90
 10
15.3655
 20
-0.300068
 30
20.2066
 11
15.6383
 21
-0.300068
 31
20.8488
 12
15.167
 22
-0.300068
 32
21.0944
 13
14.9413
 23
-0.300068
 33
20.5632
  0
3DFACE
  8
0
 62
    90
 10
15.6383
 20
-0.300068
 30
20.8488
 11
15.8062
 21
-0.300068
 31
21.5456
 12
15.3059
 22
-0.300068
 32
21.6708
 13
15.167
 23
-0.300068
 33
21.0944
  0
3DFACE
  8
0
 62
    90
 10
15.8062
 20
-0.300068
 30
21.5456
 11
15.863
 21
-0.300068
 31
22.2703
 12
15.3528
 22
-0.300068
 32
22.2703
 13
15.3059
 23
-0.300068
 33
21.6708
  0
3DFACE
  8
0
 62
    90
 10
15.8062
 20
-0.300068
 30
22.995
 11
15.863
 21
-0.300068
 31
22.2703
 12
15.3528
 22
-0.300068
 32
22.2703
 13
15.3059
 23
-0.300068
 33
22.8697
  0
3DFACE
  8
0
 62
    90
 10
15.8062
 20
-0.300068
 30
22.995
 11
15.6383
 21
-0.300068
 31
23.6918
 12
15.167
 22
-0.300068
 32
23.4462
 13
15.3059
 23
-0.300068
 33
22.8697
  0
3DFACE
  8
0
 62
    90
 10
15.6383
 20
-0.300068
 30
23.6918
 11
15.3655
 21
-0.300068
 31
24.334
 12
14.9413
 22
-0.300068
 32
23.9774
 13
15.167
 23
-0.300068
 33
23.4462
  0
3DFACE
  8
0
 62
    90
 10
15.3655
 20
-0.300068
 30
24.334
 11
14.9983
 21
-0.300068
 31
24.8969
 12
14.6376
 22
-0.300068
 32
24.443
 13
14.9413
 23
-0.300068
 33
23.9774
  0
3DFACE
  8
0
 62
    90
 10
14.9413
 20
-0.300068
 30
23.9774
 11
14.6376
 21
-0.300068
 31
24.443
 12
14.6376
 22
0.301452
 32
24.443
 13
14.9413
 23
0.301452
 33
23.9774
  0
3DFACE
  8
0
 62
    90
 10
15.167
 20
-0.300068
 30
23.4462
 11
14.9413
 21
-0.300068
 31
23.9774
 12
14.9413
 22
0.301452
 32
23.9774
 13
15.167
 23
0.301452
 33
23.4462
  0
3DFACE
  8
0
 62
    90
 10
15.3059
 20
-0.300068
 30
22.8697
 11
15.167
 21
-0.300068
 31
23.4462
 12
15.167
 22
0.301452
 32
23.4462
 13
15.3059
 23
0.301452
 33
22.8697
  0
3DFACE
  8
0
 62
    90
 10
15.3059
 20
-0.300068
 30
22.8697
 11
15.3528
 21
-0.300068
 31
22.2703
 12
15.3528
 22
0.301452
 32
22.2703
 13
15.3059
 23
0.301452
 33
22.8697
  0
3DFACE
  8
0
 62
    90
 10
15.3059
 20
-0.300068
 30
21.6708
 11
15.3528
 21
-0.300068
 31
22.2703
 12
15.3528
 22
0.301452
 32
22.2703
 13
15.3059
 23
0.301452
 33
21.6708
  0
3DFACE
  8
0
 62
    90
 10
15.167
 20
-0.300068
 30
21.0944
 11
15.3059
 21
-0.300068
 31
21.6708
 12
15.3059
 22
0.301452
 32
21.6708
 13
15.167
 23
0.301452
 33
21.0944
  0
3DFACE
  8
0
 62
    90
 10
14.9413
 20
-0.300068
 30
20.5632
 11
15.167
 21
-0.300068
 31
21.0944
 12
15.167
 22
0.301452
 32
21.0944
 13
14.9413
 23
0.301452
 33
20.5632
  0
3DFACE
  8
0
 62
    90
 10
14.6376
 20
-0.300068
 30
20.0976
 11
14.9413
 21
-0.300068
 31
20.5632
 12
14.9413
 22
0.301452
 32
20.5632
 13
14.6376
 23
0.301452
 33
20.0976
  0
3DFACE
  8
0
 62
    90
 10
14.2676
 20
-0.300068
 30
19.7154
 11
14.6376
 21
-0.300068
 31
20.0976
 12
14.6376
 22
0.301452
 32
20.0976
 13
14.2676
 23
0.301452
 33
19.7154
  0
3DFACE
  8
0
 62
    90
 10
14.2676
 20
-0.300068
 30
19.7154
 11
13.8454
 21
-0.300068
 31
19.4315
 12
13.8454
 22
0.301452
 32
19.4315
 13
14.2676
 23
0.301452
 33
19.7154
  0
3DFACE
  8
0
 62
    90
 10
13.8454
 20
-0.300068
 30
19.4315
 11
14.0407
 21
-0.300068
 31
18.8384
 12
14.0407
 22
0.301452
 32
18.8384
 13
13.8454
 23
0.301452
 33
19.4315
  0
3DFACE
  8
0
 62
    90
 10
13.3874
 20
-0.300068
 30
25.2839
 11
12.911
 21
-0.300068
 31
25.343
 12
12.911
 22
0.301452
 32
25.343
 13
13.3874
 23
0.301452
 33
25.2839
  0
3DFACE
  8
0
 62
    90
 10
13.8454
 20
-0.300068
 30
25.1091
 11
13.3874
 21
-0.300068
 31
25.2839
 12
13.3874
 22
0.301452
 32
25.2839
 13
13.8454
 23
0.301452
 33
25.1091
  0
3DFACE
  8
0
 62
    90
 10
14.2676
 20
-0.300068
 30
24.8251
 11
13.8454
 21
-0.300068
 31
25.1091
 12
13.8454
 22
0.301452
 32
25.1091
 13
14.2676
 23
0.301452
 33
24.8251
  0
3DFACE
  8
0
 62
    90
 10
14.2676
 20
-0.300068
 30
24.8251
 11
14.6376
 21
-0.300068
 31
24.443
 12
14.6376
 22
0.301452
 32
24.443
 13
14.2676
 23
0.301452
 33
24.8251
  0
3DFACE
  8
0
 62
    90
 10
14.551
 20
-0.300068
 30
25.3589
 11
14.9983
 21
-0.300068
 31
24.8969
 12
14.9983
 22
0.301452
 32
24.8969
 13
14.551
 23
0.301452
 33
25.3589
  0
3DFACE
  8
0
 62
    90
 10
14.551
 20
-0.300068
 30
25.3589
 11
14.0407
 21
-0.300068
 31
25.7021
 12
14.0407
 22
0.301452
 32
25.7021
 13
14.551
 23
0.301452
 33
25.3589
  0
3DFACE
  8
0
 62
    90
 10
14.0407
 20
-0.300068
 30
25.7021
 11
13.4869
 21
-0.300068
 31
25.9135
 12
13.4869
 22
0.301452
 32
25.9135
 13
14.0407
 23
0.301452
 33
25.7021
  0
3DFACE
  8
0
 62
    90
 10
13.4869
 20
-0.300068
 30
25.9135
 11
12.911
 21
-0.300068
 31
25.9849
 12
12.911
 22
0.301452
 32
25.9849
 13
13.4869
 23
0.301452
 33
25.9135
  0
3DFACE
  8
0
 62
    90
 10
14.551
 20
-0.300068
 30
19.1817
 11
14.0407
 21
-0.300068
 31
18.8384
 12
14.0407
 22
0.301452
 32
18.8384
 13
14.551
 23
0.301452
 33
19.1817
  0
3DFACE
  8
0
 62
    90
 10
14.551
 20
-0.300068
 30
19.1817
 11
14.9983
 21
-0.300068
 31
19.6437
 12
14.9983
 22
0.301452
 32
19.6437
 13
14.551
 23
0.301452
 33
19.1817
  0
3DFACE
  8
0
 62
    90
 10
14.9983
 20
-0.300068
 30
19.6437
 11
15.3655
 21
-0.300068
 31
20.2066
 12
15.3655
 22
0.301452
 32
20.2066
 13
14.9983
 23
0.301452
 33
19.6437
  0
3DFACE
  8
0
 62
    90
 10
15.3655
 20
-0.300068
 30
20.2066
 11
15.6383
 21
-0.300068
 31
20.8488
 12
15.6383
 22
0.301452
 32
20.8488
 13
15.3655
 23
0.301452
 33
20.2066
  0
3DFACE
  8
0
 62
    90
 10
15.6383
 20
-0.300068
 30
20.8488
 11
15.8062
 21
-0.300068
 31
21.5456
 12
15.8062
 22
0.301452
 32
21.5456
 13
15.6383
 23
0.301452
 33
20.8488
  0
3DFACE
  8
0
 62
    90
 10
15.8062
 20
-0.300068
 30
21.5456
 11
15.863
 21
-0.300068
 31
22.2703
 12
15.863
 22
0.301452
 32
22.2703
 13
15.8062
 23
0.301452
 33
21.5456
  0
3DFACE
  8
0
 62
    90
 10
15.8062
 20
-0.300068
 30
22.995
 11
15.863
 21
-0.300068
 31
22.2703
 12
15.863
 22
0.301452
 32
22.2703
 13
15.8062
 23
0.301452
 33
22.995
  0
3DFACE
  8
0
 62
    90
 10
15.8062
 20
-0.300068
 30
22.995
 11
15.6383
 21
-0.300068
 31
23.6918
 12
15.6383
 22
0.301452
 32
23.6918
 13
15.8062
 23
0.301452
 33
22.995
  0
3DFACE
  8
0
 62
    90
 10
15.6383
 20
-0.300068
 30
23.6918
 11
15.3655
 21
-0.300068
 31
24.334
 12
15.3655
 22
0.301452
 32
24.334
 13
15.6383
 23
0.301452
 33
23.6918
  0
3DFACE
  8
0
 62
    90
 10
15.3655
 20
-0.300068
 30
24.334
 11
14.9983
 21
-0.300068
 31
24.8969
 12
14.9983
 22
0.301452
 32
24.8969
 13
15.3655
 23
0.301452
 33
24.334
  0
3DFACE
  8
0
 62
    90
 10
14.551
 20
0.301452
 30
25.3589
 11
14.9983
 21
0.301452
 31
24.8969
 12
14.6376
 22
0.301452
 32
24.443
 13
14.2676
 23
0.301452
 33
24.8251
  0
3DFACE
  8
0
 62
    90
 10
14.551
 20
0.301452
 30
25.3589
 11
14.0407
 21
0.301452
 31
25.7021
 12
13.8454
 22
0.301452
 32
25.1091
 13
14.2676
 23
0.301452
 33
24.8251
  0
3DFACE
  8
0
 62
    90
 10
14.0407
 20
0.301452
 30
25.7021
 11
13.4869
 21
0.301452
 31
25.9135
 12
13.3874
 22
0.301452
 32
25.2839
 13
13.8454
 23
0.301452
 33
25.1091
  0
3DFACE
  8
0
 62
    90
 10
13.4869
 20
0.301452
 30
25.9135
 11
12.911
 21
0.301452
 31
25.9849
 12
12.911
 22
0.301452
 32
25.343
 13
13.3874
 23
0.301452
 33
25.2839
  0
3DFACE
  8
0
 62
    90
 10
14.551
 20
0.301452
 30
19.1817
 11
14.0407
 21
0.301452
 31
18.8384
 12
13.8454
 22
0.301452
 32
19.4315
 13
14.2676
 23
0.301452
 33
19.7154
  0
3DFACE
  8
0
 62
    90
 10
14.551
 20
0.301452
 30
19.1817
 11
14.9983
 21
0.301452
 31
19.6437
 12
14.6376
 22
0.301452
 32
20.0976
 13
14.2676
 23
0.301452
 33
19.7154
  0
3DFACE
  8
0
 62
    90
 10
14.9983
 20
0.301452
 30
19.6437
 11
15.3655
 21
0.301452
 31
20.2066
 12
14.9413
 22
0.301452
 32
20.5632
 13
14.6376
 23
0.301452
 33
20.0976
  0
3DFACE
  8
0
 62
    90
 10
15.3655
 20
0.301452
 30
20.2066
 11
15.6383
 21
0.301452
 31
20.8488
 12
15.167
 22
0.301452
 32
21.0944
 13
14.9413
 23
0.301452
 33
20.5632
  0
3DFACE
  8
0
 62
    90
 10
15.6383
 20
0.301452
 30
20.8488
 11
15.8062
 21
0.301452
 31
21.5456
 12
15.3059
 22
0.301452
 32
21.6708
 13
15.167
 23
0.301452
 33
21.0944
  0
3DFACE
  8
0
 62
    90
 10
15.8062
 20
0.301452
 30
21.5456
 11
15.863
 21
0.301452
 31
22.2703
 12
15.3528
 22
0.301452
 32
22.2703
 13
15.3059
 23
0.301452
 33
21.6708
  0
3DFACE
  8
0
 62
    90
 10
15.8062
 20
0.301452
 30
22.995
 11
15.863
 21
0.301452
 31
22.2703
 12
15.3528
 22
0.301452
 32
22.2703
 13
15.3059
 23
0.301452
 33
22.8697
  0
3DFACE
  8
0
 62
    90
 10
15.8062
 20
0.301452
 30
22.995
 11
15.6383
 21
0.301452
 31
23.6918
 12
15.167
 22
0.301452
 32
23.4462
 13
15.3059
 23
0.301452
 33
22.8697
  0
3DFACE
  8
0
 62
    90
 10
15.6383
 20
0.301452
 30
23.6918
 11
15.3655
 21
0.301452
 31
24.334
 12
14.9413
 22
0.301452
 32
23.9774
 13
15.167
 23
0.301452
 33
23.4462
  0
3DFACE
  8
0
 62
    90
 10
15.3655
 20
0.301452
 30
24.334
 11
14.9983
 21
0.301452
 31
24.8969
 12
14.6376
 22
0.301452
 32
24.443
 13
14.9413
 23
0.301452
 33
23.9774
  0
3DFACE
  8
0
 62
    90
 10
12.8687
 20
0.354294
 30
5.93351
 11
12.8687
 21
0.354294
 31
25.9897
 12
12.931
 22
0.278367
 32
25.9897
 13
12.931
 23
0.278367
 33
5.93351
  0
3DFACE
  8
0
 62
    90
 10
12.931
 20
0.278367
 30
5.93351
 11
12.931
 21
0.278367
 31
25.9897
 12
12.9773
 22
0.191742
 32
25.9897
 13
12.9773
 23
0.191743
 33
5.93351
  0
3DFACE
  8
0
 62
    90
 10
12.9773
 20
0.191743
 30
5.93351
 11
12.9773
 21
0.191742
 31
25.9897
 12
13.0058
 22
0.097749
 32
25.9897
 13
13.0058
 23
0.09775
 33
5.93351
  0
3DFACE
  8
0
 62
    90
 10
13.0058
 20
0.09775
 30
5.93351
 11
13.0058
 21
0.097749
 31
25.9897
 12
13.0154
 22
0
 32
25.9897
 13
13.0154
 23
1.00001e-006
 33
5.93351
  0
3DFACE
  8
0
 62
    90
 10
13.0154
 20
1.00001e-006
 30
5.93351
 11
13.0154
 21
0
 31
25.9897
 12
13.0058
 22
-0.097749
 32
25.9897
 13
13.0058
 23
-0.097748
 33
5.93351
  0
3DFACE
  8
0
 62
    90
 10
13.0058
 20
-0.097748
 30
5.93351
 11
13.0058
 21
-0.097749
 31
25.9897
 12
12.9773
 22
-0.191741
 32
25.9897
 13
12.9773
 23
-0.191741
 33
5.93351
  0
3DFACE
  8
0
 62
    90
 10
12.9773
 20
-0.191741
 30
5.93351
 11
12.9773
 21
-0.191741
 31
25.9897
 12
12.931
 22
-0.278365
 32
25.9897
 13
12.931
 23
-0.278365
 33
5.93351
  0
3DFACE
  8
0
 62
    90
 10
12.931
 20
-0.278365
 30
5.93351
 11
12.931
 21
-0.278365
 31
25.9897
 12
12.8687
 22
-0.354292
 32
25.9897
 13
12.8687
 23
-0.354292
 33
5.93351
  0
3DFACE
  8
0
 62
    90
 10
12.8687
 20
-0.354292
 30
5.93351
 11
12.8687
 21
-0.354292
 31
25.9897
 12
12.7927
 22
-0.416603
 32
25.9897
 13
12.7927
 23
-0.416603
 33
5.93351
  0
3DFACE
  8
0
 62
    90
 10
12.7927
 20
-0.416603
 30
5.93351
 11
12.7927
 21
-0.416603
 31
25.9897
 12
12.7061
 22
-0.462905
 32
25.9897
 13
12.7061
 23
-0.462905
 33
5.93351
  0
3DFACE
  8
0
 62
    90
 10
12.7061
 20
-0.462905
 30
5.93351
 11
12.7061
 21
-0.462905
 31
25.9897
 12
12.6121
 22
-0.491417
 32
25.9897
 13
12.6121
 23
-0.491417
 33
5.93351
  0
3DFACE
  8
0
 62
    90
 10
12.6121
 20
-0.491417
 30
5.93351
 11
12.6121
 21
-0.491417
 31
25.9897
 12
12.5144
 22
-0.501045
 32
25.9897
 13
12.5144
 23
-0.501045
 33
5.93351
  0
3DFACE
  8
0
 62
    90
 10
12.5144
 20
-0.501045
 30
5.93351
 11
12.5144
 21
-0.501045
 31
25.9897
 12
12.4166
 22
-0.491417
 32
25.9897
 13
12.4166
 23
-0.491417
 33
5.93351
  0
3DFACE
  8
0
 62
    90
 10
12.4166
 20
-0.491417
 30
5.93351
 11
12.4166
 21
-0.491417
 31
25.9897
 12
12.3226
 22
-0.462905
 32
25.9897
 13
12.3226
 23
-0.462905
 33
5.93351
  0
3DFACE
  8
0
 62
    90
 10
12.3226
 20
-0.462905
 30
5.93351
 11
12.3226
 21
-0.462905
 31
25.9897
 12
12.236
 22
-0.416604
 32
25.9897
 13
12.236
 23
-0.416603
 33
5.93351
  0
3DFACE
  8
0
 62
    90
 10
12.236
 20
-0.416603
 30
5.93351
 11
12.236
 21
-0.416604
 31
25.9897
 12
12.1601
 22
-0.354293
 32
25.9897
 13
12.1601
 23
-0.354292
 33
5.93351
  0
3DFACE
  8
0
 62
    90
 10
12.1601
 20
-0.354292
 30
5.93351
 11
12.1601
 21
-0.354293
 31
25.9897
 12
12.0978
 22
-0.278366
 32
25.9897
 13
12.0978
 23
-0.278365
 33
5.93351
  0
3DFACE
  8
0
 62
    90
 10
12.0978
 20
-0.278365
 30
5.93351
 11
12.0978
 21
-0.278366
 31
25.9897
 12
12.0515
 22
-0.191742
 32
25.9897
 13
12.0515
 23
-0.19174
 33
5.93351
  0
3DFACE
  8
0
 62
    90
 10
12.0515
 20
-0.19174
 30
5.93351
 11
12.0515
 21
-0.191742
 31
25.9897
 12
12.023
 22
-0.09775
 32
25.9897
 13
12.023
 23
-0.097748
 33
5.93351
  0
3DFACE
  8
0
 62
    90
 10
12.023
 20
-0.097748
 30
5.93351
 11
12.023
 21
-0.09775
 31
25.9897
 12
12.0133
 22
-1.00001e-006
 32
25.9897
 13
12.0133
 23
2.00002e-006
 33
5.93351
  0
3DFACE
  8
0
 62
    90
 10
12.0133
 20
2.00002e-006
 30
5.93351
 11
12.0133
 21
-1.00001e-006
 31
25.9897
 12
12.023
 22
0.097748
 32
25.9897
 13
12.023
 23
0.097751
 33
5.93351
  0
3DFACE
  8
0
 62
    90
 10
12.023
 20
0.097751
 30
5.93351
 11
12.023
 21
0.097748
 31
25.9897
 12
12.0515
 22
0.191741
 32
25.9897
 13
12.0515
 23
0.191744
 33
5.93351
  0
3DFACE
  8
0
 62
    90
 10
12.0515
 20
0.191744
 30
5.93351
 11
12.0515
 21
0.191741
 31
25.9897
 12
12.0978
 22
0.278365
 32
25.9897
 13
12.0978
 23
0.278368
 33
5.93351
  0
3DFACE
  8
0
 62
    90
 10
12.0978
 20
0.278368
 30
5.93351
 11
12.0978
 21
0.278365
 31
25.9897
 12
12.1601
 22
0.354292
 32
25.9897
 13
12.1601
 23
0.354295
 33
5.93351
  0
3DFACE
  8
0
 62
    90
 10
12.1601
 20
0.354295
 30
5.93351
 11
12.1601
 21
0.354292
 31
25.9897
 12
12.236
 22
0.416604
 32
25.9897
 13
12.236
 23
0.416606
 33
5.93351
  0
3DFACE
  8
0
 62
    90
 10
12.236
 20
0.416606
 30
5.93351
 11
12.236
 21
0.416604
 31
25.9897
 12
12.3226
 22
0.462906
 32
25.9897
 13
12.3226
 23
0.462908
 33
5.93351
  0
3DFACE
  8
0
 62
    90
 10
12.3226
 20
0.462908
 30
5.93351
 11
12.3226
 21
0.462906
 31
25.9897
 12
12.4166
 22
0.491419
 32
25.9897
 13
12.4166
 23
0.49142
 33
5.93351
  0
3DFACE
  8
0
 62
    90
 10
12.4166
 20
0.49142
 30
5.93351
 11
12.4166
 21
0.491419
 31
25.9897
 12
12.5144
 22
0.501047
 32
25.9897
 13
12.5144
 23
0.501047
 33
5.93351
  0
3DFACE
  8
0
 62
    90
 10
12.5144
 20
0.501047
 30
5.93351
 11
12.5144
 21
0.501047
 31
25.9897
 12
12.6121
 22
0.491421
 32
25.9897
 13
12.6121
 23
0.49142
 33
5.93351
  0
3DFACE
  8
0
 62
    90
 10
12.6121
 20
0.49142
 30
5.93351
 11
12.6121
 21
0.491421
 31
25.9897
 12
12.7061
 22
0.462909
 32
25.9897
 13
12.7061
 23
0.462907
 33
5.93351
  0
3DFACE
  8
0
 62
    90
 10
12.7061
 20
0.462907
 30
5.93351
 11
12.7061
 21
0.462909
 31
25.9897
 12
12.7927
 22
0.416608
 32
25.9897
 13
12.7927
 23
0.416605
 33
5.93351
  0
3DFACE
  8
0
 62
    90
 10
12.8687
 20
0.354294
 30
25.9897
 11
12.8687
 21
0.354294
 31
5.93351
 12
12.7927
 22
0.416605
 32
5.93351
 13
12.7927
 23
0.416608
 33
25.9897
  0
3DFACE
  8
0
 62
    90
 10
12.5144
 20
0.501047
 30
25.9897
 11
12.4166
 21
0.491419
 31
25.9897
 12
12.7061
 22
0.462909
 32
25.9897
 13
12.6121
 23
0.491421
 33
25.9897
  0
3DFACE
  8
0
 62
    90
 10
12.4166
 20
0.491419
 30
25.9897
 11
12.3226
 21
0.462906
 31
25.9897
 12
12.7927
 22
0.416608
 32
25.9897
 13
12.7061
 23
0.462909
 33
25.9897
  0
3DFACE
  8
0
 62
    90
 10
12.3226
 20
0.462906
 30
25.9897
 11
12.236
 21
0.416604
 31
25.9897
 12
12.8687
 22
0.354294
 32
25.9897
 13
12.7927
 23
0.416608
 33
25.9897
  0
3DFACE
  8
0
 62
    90
 10
12.236
 20
0.416604
 30
25.9897
 11
12.1601
 21
0.354292
 31
25.9897
 12
12.931
 22
0.278367
 32
25.9897
 13
12.8687
 23
0.354294
 33
25.9897
  0
3DFACE
  8
0
 62
    90
 10
12.1601
 20
0.354292
 30
25.9897
 11
12.0978
 21
0.278365
 31
25.9897
 12
12.9773
 22
0.191742
 32
25.9897
 13
12.931
 23
0.278367
 33
25.9897
  0
3DFACE
  8
0
 62
    90
 10
12.0978
 20
0.278365
 30
25.9897
 11
12.0515
 21
0.191741
 31
25.9897
 12
13.0058
 22
0.097749
 32
25.9897
 13
12.9773
 23
0.191742
 33
25.9897
  0
3DFACE
  8
0
 62
    90
 10
12.0515
 20
0.191741
 30
25.9897
 11
12.023
 21
0.097748
 31
25.9897
 12
13.0154
 22
0
 32
25.9897
 13
13.0058
 23
0.097749
 33
25.9897
  0
3DFACE
  8
0
 62
    90
 10
12.023
 20
0.097748
 30
25.9897
 11
12.0133
 21
-1.00001e-006
 31
25.9897
 12
13.0058
 22
-0.097749
 32
25.9897
 13
13.0154
 23
0
 33
25.9897
  0
3DFACE
  8
0
 62
    90
 10
12.0133
 20
-1.00001e-006
 30
25.9897
 11
12.023
 21
-0.09775
 31
25.9897
 12
12.9773
 22
-0.191741
 32
25.9897
 13
13.0058
 23
-0.097749
 33
25.9897
  0
3DFACE
  8
0
 62
    90
 10
12.023
 20
-0.09775
 30
25.9897
 11
12.0515
 21
-0.191742
 31
25.9897
 12
12.931
 22
-0.278365
 32
25.9897
 13
12.9773
 23
-0.191741
 33
25.9897
  0
3DFACE
  8
0
 62
    90
 10
12.0515
 20
-0.191742
 30
25.9897
 11
12.0978
 21
-0.278366
 31
25.9897
 12
12.8687
 22
-0.354292
 32
25.9897
 13
12.931
 23
-0.278365
 33
25.9897
  0
3DFACE
  8
0
 62
    90
 10
12.0978
 20
-0.278366
 30
25.9897
 11
12.1601
 21
-0.354293
 31
25.9897
 12
12.7927
 22
-0.416603
 32
25.9897
 13
12.8687
 23
-0.354292
 33
25.9897
  0
3DFACE
  8
0
 62
    90
 10
12.1601
 20
-0.354293
 30
25.9897
 11
12.236
 21
-0.416604
 31
25.9897
 12
12.7061
 22
-0.462905
 32
25.9897
 13
12.7927
 23
-0.416603
 33
25.9897
  0
3DFACE
  8
0
 62
    90
 10
12.236
 20
-0.416604
 30
25.9897
 11
12.3226
 21
-0.462905
 31
25.9897
 12
12.6121
 22
-0.491417
 32
25.9897
 13
12.7061
 23
-0.462905
 33
25.9897
  0
3DFACE
  8
0
 62
    90
 10
12.3226
 20
-0.462905
 30
25.9897
 11
12.4166
 21
-0.491417
 31
25.9897
 12
12.5144
 22
-0.501045
 32
25.9897
 13
12.6121
 23
-0.491417
 33
25.9897
  0
3DFACE
  8
0
 62
   170
 10
-7.1611
 20
0.354293
 30
-6.08605
 11
-7.16109
 21
0.354293
 31
13.9701
 12
-7.09878
 22
0.278366
 32
13.9701
 13
-7.09878
 23
0.278366
 33
-6.08605
  0
3DFACE
  8
0
 62
   170
 10
-7.09878
 20
0.278366
 30
-6.08605
 11
-7.09878
 21
0.278366
 31
13.9701
 12
-7.05248
 22
0.191741
 32
13.9701
 13
-7.05248
 23
0.191742
 33
-6.08605
  0
3DFACE
  8
0
 62
   170
 10
-7.05248
 20
0.191742
 30
-6.08605
 11
-7.05248
 21
0.191741
 31
13.9701
 12
-7.02397
 22
0.097748
 32
13.9701
 13
-7.02397
 23
0.097749
 33
-6.08605
  0
3DFACE
  8
0
 62
   170
 10
-7.02397
 20
0.097749
 30
-6.08605
 11
-7.02397
 21
0.097748
 31
13.9701
 12
-7.01434
 22
-1.00001e-006
 32
13.9701
 13
-7.01434
 23
0
 33
-6.08605
  0
3DFACE
  8
0
 62
   170
 10
-7.01434
 20
0
 30
-6.08605
 11
-7.01434
 21
-1.00001e-006
 31
13.9701
 12
-7.02397
 22
-0.09775
 32
13.9701
 13
-7.02397
 23
-0.097749
 33
-6.08605
  0
3DFACE
  8
0
 62
   170
 10
-7.02397
 20
-0.097749
 30
-6.08605
 11
-7.02397
 21
-0.09775
 31
13.9701
 12
-7.05248
 22
-0.191742
 32
13.9701
 13
-7.05248
 23
-0.191742
 33
-6.08605
  0
3DFACE
  8
0
 62
   170
 10
-7.05248
 20
-0.191742
 30
-6.08605
 11
-7.05248
 21
-0.191742
 31
13.9701
 12
-7.09878
 22
-0.278366
 32
13.9701
 13
-7.09878
 23
-0.278366
 33
-6.08605
  0
3DFACE
  8
0
 62
   170
 10
-7.09878
 20
-0.278366
 30
-6.08605
 11
-7.09878
 21
-0.278366
 31
13.9701
 12
-7.1611
 22
-0.354293
 32
13.9701
 13
-7.1611
 23
-0.354293
 33
-6.08605
  0
3DFACE
  8
0
 62
   170
 10
-7.1611
 20
-0.354293
 30
-6.08605
 11
-7.1611
 21
-0.354293
 31
13.9701
 12
-7.23702
 22
-0.416604
 32
13.9701
 13
-7.23702
 23
-0.416604
 33
-6.08605
  0
3DFACE
  8
0
 62
   170
 10
-7.23702
 20
-0.416604
 30
-6.08605
 11
-7.23702
 21
-0.416604
 31
13.9701
 12
-7.32365
 22
-0.462906
 32
13.9701
 13
-7.32365
 23
-0.462906
 33
-6.08605
  0
3DFACE
  8
0
 62
   170
 10
-7.32365
 20
-0.462906
 30
-6.08605
 11
-7.32365
 21
-0.462906
 31
13.9701
 12
-7.41764
 22
-0.491418
 32
13.9701
 13
-7.41764
 23
-0.491418
 33
-6.08605
  0
3DFACE
  8
0
 62
   170
 10
-7.41764
 20
-0.491418
 30
-6.08605
 11
-7.41764
 21
-0.491418
 31
13.9701
 12
-7.51539
 22
-0.501046
 32
13.9701
 13
-7.51539
 23
-0.501046
 33
-6.08605
  0
3DFACE
  8
0
 62
   170
 10
-7.51539
 20
-0.501046
 30
-6.08605
 11
-7.51539
 21
-0.501046
 31
13.9701
 12
-7.61314
 22
-0.491418
 32
13.9701
 13
-7.61314
 23
-0.491418
 33
-6.08605
  0
3DFACE
  8
0
 62
   170
 10
-7.61314
 20
-0.491418
 30
-6.08605
 11
-7.61314
 21
-0.491418
 31
13.9701
 12
-7.70713
 22
-0.462906
 32
13.9701
 13
-7.70713
 23
-0.462906
 33
-6.08605
  0
3DFACE
  8
0
 62
   170
 10
-7.70713
 20
-0.462906
 30
-6.08605
 11
-7.70713
 21
-0.462906
 31
13.9701
 12
-7.79375
 22
-0.416605
 32
13.9701
 13
-7.79375
 23
-0.416604
 33
-6.08605
  0
3DFACE
  8
0
 62
   170
 10
-7.79375
 20
-0.416604
 30
-6.08605
 11
-7.79375
 21
-0.416605
 31
13.9701
 12
-7.86968
 22
-0.354294
 32
13.9701
 13
-7.86968
 23
-0.354293
 33
-6.08605
  0
3DFACE
  8
0
 62
   170
 10
-7.86968
 20
-0.354293
 30
-6.08605
 11
-7.86968
 21
-0.354294
 31
13.9701
 12
-7.93199
 22
-0.278367
 32
13.9701
 13
-7.93199
 23
-0.278366
 33
-6.08605
  0
3DFACE
  8
0
 62
   170
 10
-7.93199
 20
-0.278366
 30
-6.08605
 11
-7.93199
 21
-0.278367
 31
13.9701
 12
-7.97829
 22
-0.191743
 32
13.9701
 13
-7.97829
 23
-0.191741
 33
-6.08605
  0
3DFACE
  8
0
 62
   170
 10
-7.97829
 20
-0.191741
 30
-6.08605
 11
-7.97829
 21
-0.191743
 31
13.9701
 12
-8.00681
 22
-0.097751
 32
13.9701
 13
-8.00681
 23
-0.097749
 33
-6.08605
  0
3DFACE
  8
0
 62
   170
 10
-8.00681
 20
-0.097749
 30
-6.08605
 11
-8.00681
 21
-0.097751
 31
13.9701
 12
-8.01643
 22
-2.00002e-006
 32
13.9701
 13
-8.01643
 23
1.00001e-006
 33
-6.08605
  0
3DFACE
  8
0
 62
   170
 10
-8.01643
 20
1.00001e-006
 30
-6.08605
 11
-8.01643
 21
-2.00002e-006
 31
13.9701
 12
-8.00681
 22
0.097747
 32
13.9701
 13
-8.00681
 23
0.09775
 33
-6.08605
  0
3DFACE
  8
0
 62
   170
 10
-8.00681
 20
0.09775
 30
-6.08605
 11
-8.00681
 21
0.097747
 31
13.9701
 12
-7.9783
 22
0.19174
 32
13.9701
 13
-7.97829
 23
0.191743
 33
-6.08605
  0
3DFACE
  8
0
 62
   170
 10
-7.97829
 20
0.191743
 30
-6.08605
 11
-7.9783
 21
0.19174
 31
13.9701
 12
-7.93199
 22
0.278364
 32
13.9701
 13
-7.93199
 23
0.278367
 33
-6.08605
  0
3DFACE
  8
0
 62
   170
 10
-7.93199
 20
0.278367
 30
-6.08605
 11
-7.93199
 21
0.278364
 31
13.9701
 12
-7.86968
 22
0.354291
 32
13.9701
 13
-7.86968
 23
0.354294
 33
-6.08605
  0
3DFACE
  8
0
 62
   170
 10
-7.86968
 20
0.354294
 30
-6.08605
 11
-7.86968
 21
0.354291
 31
13.9701
 12
-7.79376
 22
0.416603
 32
13.9701
 13
-7.79375
 23
0.416605
 33
-6.08605
  0
3DFACE
  8
0
 62
   170
 10
-7.79375
 20
0.416605
 30
-6.08605
 11
-7.79376
 21
0.416603
 31
13.9701
 12
-7.70713
 22
0.462905
 32
13.9701
 13
-7.70713
 23
0.462907
 33
-6.08605
  0
3DFACE
  8
0
 62
   170
 10
-7.70713
 20
0.462907
 30
-6.08605
 11
-7.70713
 21
0.462905
 31
13.9701
 12
-7.61314
 22
0.491418
 32
13.9701
 13
-7.61314
 23
0.491419
 33
-6.08605
  0
3DFACE
  8
0
 62
   170
 10
-7.61314
 20
0.491419
 30
-6.08605
 11
-7.61314
 21
0.491418
 31
13.9701
 12
-7.51539
 22
0.501046
 32
13.9701
 13
-7.51539
 23
0.501046
 33
-6.08605
  0
3DFACE
  8
0
 62
   170
 10
-7.51539
 20
0.501046
 30
-6.08605
 11
-7.51539
 21
0.501046
 31
13.9701
 12
-7.41764
 22
0.49142
 32
13.9701
 13
-7.41764
 23
0.491419
 33
-6.08605
  0
3DFACE
  8
0
 62
   170
 10
-7.41764
 20
0.491419
 30
-6.08605
 11
-7.41764
 21
0.49142
 31
13.9701
 12
-7.32365
 22
0.462908
 32
13.9701
 13
-7.32365
 23
0.462906
 33
-6.08605
  0
3DFACE
  8
0
 62
   170
 10
-7.32365
 20
0.462906
 30
-6.08605
 11
-7.32365
 21
0.462908
 31
13.9701
 12
-7.23703
 22
0.416607
 32
13.9701
 13
-7.23702
 23
0.416604
 33
-6.08605
  0
3DFACE
  8
0
 62
   170
 10
-7.16109
 20
0.354293
 30
13.9701
 11
-7.1611
 21
0.354293
 31
-6.08605
 12
-7.23702
 22
0.416604
 32
-6.08605
 13
-7.23703
 23
0.416607
 33
13.9701
  0
3DFACE
  8
0
 62
   170
 10
-7.51539
 20
0.501046
 30
13.9701
 11
-7.61314
 21
0.491418
 31
13.9701
 12
-7.32365
 22
0.462908
 32
13.9701
 13
-7.41764
 23
0.49142
 33
13.9701
  0
3DFACE
  8
0
 62
   170
 10
-7.61314
 20
0.491418
 30
13.9701
 11
-7.70713
 21
0.462905
 31
13.9701
 12
-7.23703
 22
0.416607
 32
13.9701
 13
-7.32365
 23
0.462908
 33
13.9701
  0
3DFACE
  8
0
 62
   170
 10
-7.70713
 20
0.462905
 30
13.9701
 11
-7.79376
 21
0.416603
 31
13.9701
 12
-7.16109
 22
0.354293
 32
13.9701
 13
-7.23703
 23
0.416607
 33
13.9701
  0
3DFACE
  8
0
 62
   170
 10
-7.79376
 20
0.416603
 30
13.9701
 11
-7.86968
 21
0.354291
 31
13.9701
 12
-7.09878
 22
0.278366
 32
13.9701
 13
-7.16109
 23
0.354293
 33
13.9701
  0
3DFACE
  8
0
 62
   170
 10
-7.86968
 20
0.354291
 30
13.9701
 11
-7.93199
 21
0.278364
 31
13.9701
 12
-7.05248
 22
0.191741
 32
13.9701
 13
-7.09878
 23
0.278366
 33
13.9701
  0
3DFACE
  8
0
 62
   170
 10
-7.93199
 20
0.278364
 30
13.9701
 11
-7.9783
 21
0.19174
 31
13.9701
 12
-7.02397
 22
0.097748
 32
13.9701
 13
-7.05248
 23
0.191741
 33
13.9701
  0
3DFACE
  8
0
 62
   170
 10
-7.9783
 20
0.19174
 30
13.9701
 11
-8.00681
 21
0.097747
 31
13.9701
 12
-7.01434
 22
-1.00001e-006
 32
13.9701
 13
-7.02397
 23
0.097748
 33
13.9701
  0
3DFACE
  8
0
 62
   170
 10
-8.00681
 20
0.097747
 30
13.9701
 11
-8.01643
 21
-2.00002e-006
 31
13.9701
 12
-7.02397
 22
-0.09775
 32
13.9701
 13
-7.01434
 23
-1.00001e-006
 33
13.9701
  0
3DFACE
  8
0
 62
   170
 10
-8.01643
 20
-2.00002e-006
 30
13.9701
 11
-8.00681
 21
-0.097751
 31
13.9701
 12
-7.05248
 22
-0.191742
 32
13.9701
 13
-7.02397
 23
-0.09775
 33
13.9701
  0
3DFACE
  8
0
 62
   170
 10
-8.00681
 20
-0.097751
 30
13.9701
 11
-7.97829
 21
-0.191743
 31
13.9701
 12
-7.09878
 22
-0.278366
 32
13.9701
 13
-7.05248
 23
-0.191742
 33
13.9701
  0
3DFACE
  8
0
 62
   170
 10
-7.97829
 20
-0.191743
 30
13.9701
 11
-7.93199
 21
-0.278367
 31
13.9701
 12
-7.1611
 22
-0.354293
 32
13.9701
 13
-7.09878
 23
-0.278366
 33
13.9701
  0
3DFACE
  8
0
 62
   170
 10
-7.93199
 20
-0.278367
 30
13.9701
 11
-7.86968
 21
-0.354294
 31
13.9701
 12
-7.23702
 22
-0.416604
 32
13.9701
 13
-7.1611
 23
-0.354293
 33
13.9701
  0
3DFACE
  8
0
 62
   170
 10
-7.86968
 20
-0.354294
 30
13.9701
 11
-7.79375
 21
-0.416605
 31
13.9701
 12
-7.32365
 22
-0.462906
 32
13.9701
 13
-7.23702
 23
-0.416604
 33
13.9701
  0
3DFACE
  8
0
 62
   170
 10
-7.79375
 20
-0.416605
 30
13.9701
 11
-7.70713
 21
-0.462906
 31
13.9701
 12
-7.41764
 22
-0.491418
 32
13.9701
 13
-7.32365
 23
-0.462906
 33
13.9701
  0
3DFACE
  8
0
 62
   170
 10
-7.70713
 20
-0.462906
 30
13.9701
 11
-7.61314
 21
-0.491418
 31
13.9701
 12
-7.51539
 22
-0.501046
 32
13.9701
 13
-7.41764
 23
-0.491418
 33
13.9701
  0
3DFACE
  8
0
 62
   170
 10
-5.47874
 20
-0.300069
 30
13.3393
 11
-5.03142
 21
-0.300069
 31
12.8773
 12
-5.39213
 22
-0.300069
 32
12.4234
 13
-5.76216
 23
-0.300069
 33
12.8056
  0
3DFACE
  8
0
 62
   170
 10
-5.47874
 20
-0.300069
 30
13.3393
 11
-5.9891
 21
-0.300069
 31
13.6826
 12
-6.18432
 22
-0.300069
 32
13.0895
 13
-5.76216
 23
-0.300069
 33
12.8056
  0
3DFACE
  8
0
 62
   170
 10
-5.9891
 20
-0.300069
 30
13.6826
 11
-6.54287
 21
-0.300069
 31
13.894
 12
-6.6424
 22
-0.300069
 32
13.2644
 13
-6.18432
 23
-0.300069
 33
13.0895
  0
3DFACE
  8
0
 62
   170
 10
-6.54287
 20
-0.300069
 30
13.894
 11
-7.11878
 21
-0.300069
 31
13.9653
 12
-7.11878
 22
-0.300069
 32
13.3234
 13
-6.6424
 23
-0.300069
 33
13.2644
  0
3DFACE
  8
0
 62
   170
 10
-5.47875
 20
-0.300069
 30
7.16214
 11
-5.98911
 21
-0.300069
 31
6.81888
 12
-6.18433
 22
-0.300069
 32
7.41194
 13
-5.76216
 23
-0.300069
 33
7.69588
  0
3DFACE
  8
0
 62
   170
 10
-5.47875
 20
-0.300069
 30
7.16214
 11
-5.03142
 21
-0.300069
 31
7.6241
 12
-5.39213
 22
-0.300069
 32
8.07801
 13
-5.76216
 23
-0.300069
 33
7.69588
  0
3DFACE
  8
0
 62
   170
 10
-5.03142
 20
-0.300069
 30
7.6241
 11
-4.6643
 21
-0.300069
 31
8.187
 12
-5.08846
 22
-0.300069
 32
8.54363
 13
-5.39213
 23
-0.300069
 33
8.07801
  0
3DFACE
  8
0
 62
   170
 10
-4.6643
 20
-0.300069
 30
8.187
 11
-4.39151
 21
-0.300069
 31
8.82921
 12
-4.86281
 22
-0.300069
 32
9.07486
 13
-5.08846
 23
-0.300069
 33
8.54363
  0
3DFACE
  8
0
 62
   170
 10
-4.39151
 20
-0.300069
 30
8.82921
 11
-4.22352
 21
-0.300069
 31
9.52604
 12
-4.72385
 22
-0.300069
 32
9.65127
 13
-4.86281
 23
-0.300069
 33
9.07486
  0
3DFACE
  8
0
 62
   170
 10
-4.22352
 20
-0.300069
 30
9.52604
 11
-4.1668
 21
-0.300069
 31
10.2507
 12
-4.67693
 22
-0.300069
 32
10.2507
 13
-4.72385
 23
-0.300069
 33
9.65127
  0
3DFACE
  8
0
 62
   170
 10
-4.22352
 20
-0.300069
 30
10.9754
 11
-4.1668
 21
-0.300069
 31
10.2507
 12
-4.67693
 22
-0.300069
 32
10.2507
 13
-4.72385
 23
-0.300069
 33
10.8502
  0
3DFACE
  8
0
 62
   170
 10
-4.22352
 20
-0.300069
 30
10.9754
 11
-4.39151
 21
-0.300069
 31
11.6722
 12
-4.86281
 22
-0.300069
 32
11.4266
 13
-4.72385
 23
-0.300069
 33
10.8502
  0
3DFACE
  8
0
 62
   170
 10
-4.39151
 20
-0.300069
 30
11.6722
 11
-4.6643
 21
-0.300069
 31
12.3144
 12
-5.08846
 22
-0.300069
 32
11.9578
 13
-4.86281
 23
-0.300069
 33
11.4266
  0
3DFACE
  8
0
 62
   170
 10
-4.6643
 20
-0.300069
 30
12.3144
 11
-5.03142
 21
-0.300069
 31
12.8773
 12
-5.39213
 22
-0.300069
 32
12.4234
 13
-5.08846
 23
-0.300069
 33
11.9578
  0
3DFACE
  8
0
 62
   170
 10
-5.08846
 20
-0.300069
 30
11.9578
 11
-5.39213
 21
-0.300069
 31
12.4234
 12
-5.39213
 22
0.301451
 32
12.4234
 13
-5.08846
 23
0.301451
 33
11.9578
  0
3DFACE
  8
0
 62
   170
 10
-4.86281
 20
-0.300069
 30
11.4266
 11
-5.08846
 21
-0.300069
 31
11.9578
 12
-5.08846
 22
0.301451
 32
11.9578
 13
-4.86281
 23
0.301451
 33
11.4266
  0
3DFACE
  8
0
 62
   170
 10
-4.72385
 20
-0.300069
 30
10.8502
 11
-4.86281
 21
-0.300069
 31
11.4266
 12
-4.86281
 22
0.301451
 32
11.4266
 13
-4.72385
 23
0.301451
 33
10.8502
  0
3DFACE
  8
0
 62
   170
 10
-4.72385
 20
-0.300069
 30
10.8502
 11
-4.67693
 21
-0.300069
 31
10.2507
 12
-4.67693
 22
0.301451
 32
10.2507
 13
-4.72385
 23
0.301451
 33
10.8502
  0
3DFACE
  8
0
 62
   170
 10
-4.72385
 20
-0.300069
 30
9.65127
 11
-4.67693
 21
-0.300069
 31
10.2507
 12
-4.67693
 22
0.301451
 32
10.2507
 13
-4.72385
 23
0.301451
 33
9.65127
  0
3DFACE
  8
0
 62
   170
 10
-4.86281
 20
-0.300069
 30
9.07486
 11
-4.72385
 21
-0.300069
 31
9.65127
 12
-4.72385
 22
0.301451
 32
9.65127
 13
-4.86281
 23
0.301451
 33
9.07486
  0
3DFACE
  8
0
 62
   170
 10
-5.08846
 20
-0.300069
 30
8.54363
 11
-4.86281
 21
-0.300069
 31
9.07486
 12
-4.86281
 22
0.301451
 32
9.07486
 13
-5.08846
 23
0.301451
 33
8.54363
  0
3DFACE
  8
0
 62
   170
 10
-5.39213
 20
-0.300069
 30
8.07801
 11
-5.08846
 21
-0.300069
 31
8.54363
 12
-5.08846
 22
0.301451
 32
8.54363
 13
-5.39213
 23
0.301451
 33
8.07801
  0
3DFACE
  8
0
 62
   170
 10
-5.76216
 20
-0.300069
 30
7.69588
 11
-5.39213
 21
-0.300069
 31
8.07801
 12
-5.39213
 22
0.301451
 32
8.07801
 13
-5.76216
 23
0.301451
 33
7.69588
  0
3DFACE
  8
0
 62
   170
 10
-5.76216
 20
-0.300069
 30
7.69588
 11
-6.18433
 21
-0.300069
 31
7.41194
 12
-6.18433
 22
0.301451
 32
7.41194
 13
-5.76216
 23
0.301451
 33
7.69588
  0
3DFACE
  8
0
 62
   170
 10
-6.18433
 20
-0.300069
 30
7.41194
 11
-5.98911
 21
-0.300069
 31
6.81888
 12
-5.98911
 22
0.301451
 32
6.81888
 13
-6.18433
 23
0.301451
 33
7.41194
  0
3DFACE
  8
0
 62
   170
 10
-6.6424
 20
-0.300069
 30
13.2644
 11
-7.11878
 21
-0.300069
 31
13.3234
 12
-7.11878
 22
0.301451
 32
13.3234
 13
-6.6424
 23
0.301451
 33
13.2644
  0
3DFACE
  8
0
 62
   170
 10
-6.18432
 20
-0.300069
 30
13.0895
 11
-6.6424
 21
-0.300069
 31
13.2644
 12
-6.6424
 22
0.301451
 32
13.2644
 13
-6.18432
 23
0.301451
 33
13.0895
  0
3DFACE
  8
0
 62
   170
 10
-5.76216
 20
-0.300069
 30
12.8056
 11
-6.18432
 21
-0.300069
 31
13.0895
 12
-6.18432
 22
0.301451
 32
13.0895
 13
-5.76216
 23
0.301451
 33
12.8056
  0
3DFACE
  8
0
 62
   170
 10
-5.76216
 20
-0.300069
 30
12.8056
 11
-5.39213
 21
-0.300069
 31
12.4234
 12
-5.39213
 22
0.301451
 32
12.4234
 13
-5.76216
 23
0.301451
 33
12.8056
  0
3DFACE
  8
0
 62
   170
 10
-5.47874
 20
-0.300069
 30
13.3393
 11
-5.03142
 21
-0.300069
 31
12.8773
 12
-5.03142
 22
0.301451
 32
12.8773
 13
-5.47874
 23
0.301451
 33
13.3393
  0
3DFACE
  8
0
 62
   170
 10
-5.47874
 20
-0.300069
 30
13.3393
 11
-5.9891
 21
-0.300069
 31
13.6826
 12
-5.9891
 22
0.301451
 32
13.6826
 13
-5.47874
 23
0.301451
 33
13.3393
  0
3DFACE
  8
0
 62
   170
 10
-5.9891
 20
-0.300069
 30
13.6826
 11
-6.54287
 21
-0.300069
 31
13.894
 12
-6.54287
 22
0.301451
 32
13.894
 13
-5.9891
 23
0.301451
 33
13.6826
  0
3DFACE
  8
0
 62
   170
 10
-6.54287
 20
-0.300069
 30
13.894
 11
-7.11878
 21
-0.300069
 31
13.9653
 12
-7.11878
 22
0.301451
 32
13.9653
 13
-6.54287
 23
0.301451
 33
13.894
  0
3DFACE
  8
0
 62
   170
 10
-5.47875
 20
-0.300069
 30
7.16214
 11
-5.98911
 21
-0.300069
 31
6.81888
 12
-5.98911
 22
0.301451
 32
6.81888
 13
-5.47875
 23
0.301451
 33
7.16214
  0
3DFACE
  8
0
 62
   170
 10
-5.47875
 20
-0.300069
 30
7.16214
 11
-5.03142
 21
-0.300069
 31
7.6241
 12
-5.03142
 22
0.301451
 32
7.6241
 13
-5.47875
 23
0.301451
 33
7.16214
  0
3DFACE
  8
0
 62
   170
 10
-5.03142
 20
-0.300069
 30
7.6241
 11
-4.6643
 21
-0.300069
 31
8.187
 12
-4.6643
 22
0.301451
 32
8.187
 13
-5.03142
 23
0.301451
 33
7.6241
  0
3DFACE
  8
0
 62
   170
 10
-4.6643
 20
-0.300069
 30
8.187
 11
-4.39151
 21
-0.300069
 31
8.82921
 12
-4.39151
 22
0.301451
 32
8.82921
 13
-4.6643
 23
0.301451
 33
8.187
  0
3DFACE
  8
0
 62
   170
 10
-4.39151
 20
-0.300069
 30
8.82921
 11
-4.22352
 21
-0.300069
 31
9.52604
 12
-4.22352
 22
0.301451
 32
9.52604
 13
-4.39151
 23
0.301451
 33
8.82921
  0
3DFACE
  8
0
 62
   170
 10
-4.22352
 20
-0.300069
 30
9.52604
 11
-4.1668
 21
-0.300069
 31
10.2507
 12
-4.1668
 22
0.301451
 32
10.2507
 13
-4.22352
 23
0.301451
 33
9.52604
  0
3DFACE
  8
0
 62
   170
 10
-4.22352
 20
-0.300069
 30
10.9754
 11
-4.1668
 21
-0.300069
 31
10.2507
 12
-4.1668
 22
0.301451
 32
10.2507
 13
-4.22352
 23
0.301451
 33
10.9754
  0
3DFACE
  8
0
 62
   170
 10
-4.22352
 20
-0.300069
 30
10.9754
 11
-4.39151
 21
-0.300069
 31
11.6722
 12
-4.39151
 22
0.301451
 32
11.6722
 13
-4.22352
 23
0.301451
 33
10.9754
  0
3DFACE
  8
0
 62
   170
 10
-4.39151
 20
-0.300069
 30
11.6722
 11
-4.6643
 21
-0.300069
 31
12.3144
 12
-4.6643
 22
0.301451
 32
12.3144
 13
-4.39151
 23
0.301451
 33
11.6722
  0
3DFACE
  8
0
 62
   170
 10
-4.6643
 20
-0.300069
 30
12.3144
 11
-5.03142
 21
-0.300069
 31
12.8773
 12
-5.03142
 22
0.301451
 32
12.8773
 13
-4.6643
 23
0.301451
 33
12.3144
  0
3DFACE
  8
0
 62
   170
 10
-5.47874
 20
0.301451
 30
13.3393
 11
-5.03142
 21
0.301451
 31
12.8773
 12
-5.39213
 22
0.301451
 32
12.4234
 13
-5.76216
 23
0.301451
 33
12.8056
  0
3DFACE
  8
0
 62
   170
 10
-5.47874
 20
0.301451
 30
13.3393
 11
-5.9891
 21
0.301451
 31
13.6826
 12
-6.18432
 22
0.301451
 32
13.0895
 13
-5.76216
 23
0.301451
 33
12.8056
  0
3DFACE
  8
0
 62
   170
 10
-5.9891
 20
0.301451
 30
13.6826
 11
-6.54287
 21
0.301451
 31
13.894
 12
-6.6424
 22
0.301451
 32
13.2644
 13
-6.18432
 23
0.301451
 33
13.0895
  0
3DFACE
  8
0
 62
   170
 10
-6.54287
 20
0.301451
 30
13.894
 11
-7.11878
 21
0.301451
 31
13.9653
 12
-7.11878
 22
0.301451
 32
13.3234
 13
-6.6424
 23
0.301451
 33
13.2644
  0
3DFACE
  8
0
 62
   170
 10
-5.47875
 20
0.301451
 30
7.16214
 11
-5.98911
 21
0.301451
 31
6.81888
 12
-6.18433
 22
0.301451
 32
7.41194
 13
-5.76216
 23
0.301451
 33
7.69588
  0
3DFACE
  8
0
 62
   170
 10
-5.47875
 20
0.301451
 30
7.16214
 11
-5.03142
 21
0.301451
 31
7.6241
 12
-5.39213
 22
0.301451
 32
8.07801
 13
-5.76216
 23
0.301451
 33
7.69588
  0
3DFACE
  8
0
 62
   170
 10
-5.03142
 20
0.301451
 30
7.6241
 11
-4.6643
 21
0.301451
 31
8.187
 12
-5.08846
 22
0.301451
 32
8.54363
 13
-5.39213
 23
0.301451
 33
8.07801
  0
3DFACE
  8
0
 62
   170
 10
-4.6643
 20
0.301451
 30
8.187
 11
-4.39151
 21
0.301451
 31
8.82921
 12
-4.86281
 22
0.301451
 32
9.07486
 13
-5.08846
 23
0.301451
 33
8.54363
  0
3DFACE
  8
0
 62
   170
 10
-4.39151
 20
0.301451
 30
8.82921
 11
-4.22352
 21
0.301451
 31
9.52604
 12
-4.72385
 22
0.301451
 32
9.65127
 13
-4.86281
 23
0.301451
 33
9.07486
  0
3DFACE
  8
0
 62
   170
 10
-4.22352
 20
0.301451
 30
9.52604
 11
-4.1668
 21
0.301451
 31
10.2507
 12
-4.67693
 22
0.301451
 32
10.2507
 13
-4.72385
 23
0.301451
 33
9.65127
  0
3DFACE
  8
0
 62
   170
 10
-4.22352
 20
0.301451
 30
10.9754
 11
-4.1668
 21
0.301451
 31
10.2507
 12
-4.67693
 22
0.301451
 32
10.2507
 13
-4.72385
 23
0.301451
 33
10.8502
  0
3DFACE
  8
0
 62
   170
 10
-4.22352
 20
0.301451
 30
10.9754
 11
-4.39151
 21
0.301451
 31
11.6722
 12
-4.86281
 22
0.301451
 32
11.4266
 13
-4.72385
 23
0.301451
 33
10.8502
  0
3DFACE
  8
0
 62
   170
 10
-4.39151
 20
0.301451
 30
11.6722
 11
-4.6643
 21
0.301451
 31
12.3144
 12
-5.08846
 22
0.301451
 32
11.9578
 13
-4.86281
 23
0.301451
 33
11.4266
  0
3DFACE
  8
0
 62
   170
 10
-4.6643
 20
0.301451
 30
12.3144
 11
-5.03142
 21
0.301451
 31
12.8773
 12
-5.39213
 22
0.301451
 32
12.4234
 13
-5.08846
 23
0.301451
 33
11.9578
  0
3DFACE
  8
0
 62
   170
 10
-9.97199
 20
-0.000779
 30
-7.73867
 11
-8.97813
 21
0.203069
 31
-7.6062
 12
-8.82438
 22
-0.000779
 32
-7.6062
 13
-8.82438
 23
-0.000779
 33
-7.6062
  0
3DFACE
  8
0
 62
   170
 10
-8.82438
 20
-0.000779
 30
-7.6062
 11
-8.97813
 21
0.203069
 31
-7.6062
 12
-8.13557
 22
0.375884
 32
-7.22895
 13
-7.85147
 23
-0.000779
 33
-7.22895
  0
3DFACE
  8
0
 62
   170
 10
-7.85147
 20
-0.000779
 30
-7.22895
 11
-8.13557
 21
0.375884
 31
-7.22895
 12
-7.57259
 22
0.491354
 32
-6.66437
 13
-7.2014
 23
-0.000779
 33
-6.66437
  0
3DFACE
  8
0
 62
   170
 10
-7.2014
 20
-0.000779
 30
-6.66437
 11
-7.57259
 21
0.491354
 31
-6.66437
 12
-7.3749
 22
0.531902
 32
-5.9984
 13
-6.97313
 23
-0.000779
 33
-5.9984
  0
3DFACE
  8
0
 62
   170
 10
-6.97313
 20
-0.000779
 30
-5.9984
 11
-7.3749
 21
0.531902
 31
-5.9984
 12
-7.57259
 22
0.491354
 32
-5.33243
 13
-7.2014
 23
-0.000779
 33
-5.33243
  0
3DFACE
  8
0
 62
   170
 10
-8.13557
 20
0.375884
 30
-4.76785
 11
-7.85147
 21
-0.000779
 31
-4.76785
 12
-7.2014
 22
-0.000779
 32
-5.33243
 13
-7.57259
 23
0.491354
 33
-5.33243
  0
3DFACE
  8
0
 62
   170
 10
-7.85147
 20
-0.000779
 30
-4.76785
 11
-8.13557
 21
0.375884
 31
-4.76785
 12
-8.97813
 22
0.203069
 32
-4.39061
 13
-8.82438
 23
-0.000779
 33
-4.39061
  0
3DFACE
  8
0
 62
   170
 10
-8.82438
 20
-0.000779
 30
-4.39061
 11
-8.97813
 21
0.203069
 31
-4.39061
 12
-9.97199
 22
-0.000779
 32
-4.25814
 13
-9.97199
 23
-0.000779
 33
-4.25814
  0
3DFACE
  8
0
 62
   170
 10
-8.97813
 20
0.203069
 30
-4.39061
 11
-9.39818
 21
0.352297
 31
-4.39061
 12
-9.97199
 22
-0.000779
 32
-4.25814
 13
-9.97199
 23
-0.000779
 33
-4.25814
  0
3DFACE
  8
0
 62
   170
 10
-8.13557
 20
0.375884
 30
-4.76785
 11
-8.91173
 21
0.65162
 31
-4.76785
 12
-9.39818
 22
0.352297
 32
-4.39061
 13
-8.97813
 23
0.203069
 33
-4.39061
  0
3DFACE
  8
0
 62
   170
 10
-7.57259
 20
0.491354
 30
-5.33243
 11
-8.5867
 21
0.851621
 31
-5.33243
 12
-8.91173
 22
0.65162
 32
-4.76785
 13
-8.13557
 23
0.375884
 33
-4.76785
  0
3DFACE
  8
0
 62
   170
 10
-7.3749
 20
0.531902
 30
-5.9984
 11
-8.47256
 21
0.921852
 31
-5.9984
 12
-8.5867
 22
0.851621
 32
-5.33243
 13
-7.57259
 23
0.491354
 33
-5.33243
  0
3DFACE
  8
0
 62
   170
 10
-7.57259
 20
0.491354
 30
-6.66437
 11
-8.5867
 21
0.851621
 31
-6.66437
 12
-8.47256
 22
0.921852
 32
-5.9984
 13
-7.3749
 23
0.531902
 33
-5.9984
  0
3DFACE
  8
0
 62
   170
 10
-8.13557
 20
0.375884
 30
-7.22895
 11
-8.91173
 21
0.65162
 31
-7.22895
 12
-8.5867
 22
0.851621
 32
-6.66437
 13
-7.57259
 23
0.491354
 33
-6.66437
  0
3DFACE
  8
0
 62
   170
 10
-8.97813
 20
0.203069
 30
-7.6062
 11
-9.39818
 21
0.352297
 31
-7.6062
 12
-8.91173
 22
0.65162
 32
-7.22895
 13
-8.13557
 23
0.375884
 33
-7.22895
  0
3DFACE
  8
0
 62
   170
 10
-9.97199
 20
-0.000779
 30
-7.73867
 11
-9.39818
 21
0.352297
 31
-7.6062
 12
-8.97813
 22
0.203069
 32
-7.6062
 13
-8.97813
 23
0.203069
 33
-7.6062
  0
3DFACE
  8
0
 62
   170
 10
-9.97199
 20
-0.000779
 30
-7.73867
 11
-9.97199
 21
0.406918
 31
-7.6062
 12
-9.39818
 22
0.352297
 32
-7.6062
 13
-9.39818
 23
0.352297
 33
-7.6062
  0
3DFACE
  8
0
 62
   170
 10
-9.39818
 20
0.352297
 30
-7.6062
 11
-9.97199
 21
0.406918
 31
-7.6062
 12
-9.97199
 22
0.752546
 32
-7.22895
 13
-8.91173
 23
0.65162
 33
-7.22895
  0
3DFACE
  8
0
 62
   170
 10
-8.91173
 20
0.65162
 30
-7.22895
 11
-9.97199
 21
0.752546
 31
-7.22895
 12
-9.97199
 22
0.983488
 32
-6.66437
 13
-8.5867
 23
0.851621
 33
-6.66437
  0
3DFACE
  8
0
 62
   170
 10
-8.5867
 20
0.851621
 30
-6.66437
 11
-9.97199
 21
0.983488
 31
-6.66437
 12
-9.97199
 22
1.06458
 32
-5.9984
 13
-8.47256
 23
0.921852
 33
-5.9984
  0
3DFACE
  8
0
 62
   170
 10
-8.47256
 20
0.921852
 30
-5.9984
 11
-9.97199
 21
1.06458
 31
-5.9984
 12
-9.97199
 22
0.983488
 32
-5.33243
 13
-8.5867
 23
0.851621
 33
-5.33243
  0
3DFACE
  8
0
 62
   170
 10
-8.5867
 20
0.851621
 30
-5.33243
 11
-9.97199
 21
0.983488
 31
-5.33243
 12
-9.97199
 22
0.752546
 32
-4.76785
 13
-8.91173
 23
0.65162
 33
-4.76785
  0
3DFACE
  8
0
 62
   170
 10
-8.91173
 20
0.65162
 30
-4.76785
 11
-9.97199
 21
0.752546
 31
-4.76785
 12
-9.97199
 22
0.406918
 32
-4.39061
 13
-9.39818
 23
0.352297
 33
-4.39061
  0
3DFACE
  8
0
 62
   170
 10
-9.39818
 20
0.352297
 30
-4.39061
 11
-9.97199
 21
0.406918
 31
-4.39061
 12
-9.97199
 22
-0.000779
 32
-4.25814
 13
-9.97199
 23
-0.000779
 33
-4.25814
  0
3DFACE
  8
0
 62
   170
 10
-9.97199
 20
0.406918
 30
-4.39061
 11
-10.5458
 21
0.352297
 31
-4.39061
 12
-9.97199
 22
-0.000779
 32
-4.25814
 13
-9.97199
 23
-0.000779
 33
-4.25814
  0
3DFACE
  8
0
 62
   170
 10
-9.97199
 20
0.752546
 30
-4.76785
 11
-11.0322
 21
0.65162
 31
-4.76785
 12
-10.5458
 22
0.352297
 32
-4.39061
 13
-9.97199
 23
0.406918
 33
-4.39061
  0
3DFACE
  8
0
 62
   170
 10
-9.97199
 20
0.983488
 30
-5.33243
 11
-11.3573
 21
0.851621
 31
-5.33243
 12
-11.0322
 22
0.65162
 32
-4.76785
 13
-9.97199
 23
0.752546
 33
-4.76785
  0
3DFACE
  8
0
 62
   170
 10
-9.97199
 20
1.06458
 30
-5.9984
 11
-11.4714
 21
0.921852
 31
-5.9984
 12
-11.3573
 22
0.851621
 32
-5.33243
 13
-9.97199
 23
0.983488
 33
-5.33243
  0
3DFACE
  8
0
 62
   170
 10
-9.97199
 20
0.983488
 30
-6.66437
 11
-11.3573
 21
0.851621
 31
-6.66437
 12
-11.4714
 22
0.921852
 32
-5.9984
 13
-9.97199
 23
1.06458
 33
-5.9984
  0
3DFACE
  8
0
 62
   170
 10
-9.97199
 20
0.752546
 30
-7.22895
 11
-11.0322
 21
0.65162
 31
-7.22895
 12
-11.3573
 22
0.851621
 32
-6.66437
 13
-9.97199
 23
0.983488
 33
-6.66437
  0
3DFACE
  8
0
 62
   170
 10
-9.97199
 20
0.406918
 30
-7.6062
 11
-10.5458
 21
0.352297
 31
-7.6062
 12
-11.0322
 22
0.65162
 32
-7.22895
 13
-9.97199
 23
0.752546
 33
-7.22895
  0
3DFACE
  8
0
 62
   170
 10
-9.97199
 20
-0.000779
 30
-7.73867
 11
-10.5458
 21
0.352297
 31
-7.6062
 12
-9.97199
 22
0.406918
 32
-7.6062
 13
-9.97199
 23
0.406918
 33
-7.6062
  0
3DFACE
  8
0
 62
   170
 10
-9.97199
 20
-0.000779
 30
-7.73867
 11
-10.9659
 21
0.203069
 31
-7.6062
 12
-10.5458
 22
0.352297
 32
-7.6062
 13
-10.5458
 23
0.352297
 33
-7.6062
  0
3DFACE
  8
0
 62
   170
 10
-10.5458
 20
0.352297
 30
-7.6062
 11
-10.9659
 21
0.203069
 31
-7.6062
 12
-11.8084
 22
0.375884
 32
-7.22895
 13
-11.0322
 23
0.65162
 33
-7.22895
  0
3DFACE
  8
0
 62
   170
 10
-11.0322
 20
0.65162
 30
-7.22895
 11
-11.8084
 21
0.375884
 31
-7.22895
 12
-12.3714
 22
0.491354
 32
-6.66437
 13
-11.3573
 23
0.851621
 33
-6.66437
  0
3DFACE
  8
0
 62
   170
 10
-11.3573
 20
0.851621
 30
-6.66437
 11
-12.3714
 21
0.491354
 31
-6.66437
 12
-12.5691
 22
0.531902
 32
-5.9984
 13
-11.4714
 23
0.921852
 33
-5.9984
  0
3DFACE
  8
0
 62
   170
 10
-11.4714
 20
0.921852
 30
-5.9984
 11
-12.5691
 21
0.531902
 31
-5.9984
 12
-12.3714
 22
0.491354
 32
-5.33243
 13
-11.3573
 23
0.851621
 33
-5.33243
  0
3DFACE
  8
0
 62
   170
 10
-11.3573
 20
0.851621
 30
-5.33243
 11
-12.3714
 21
0.491354
 31
-5.33243
 12
-11.8084
 22
0.375884
 32
-4.76785
 13
-11.0322
 23
0.65162
 33
-4.76785
  0
3DFACE
  8
0
 62
   170
 10
-11.0322
 20
0.65162
 30
-4.76785
 11
-11.8084
 21
0.375884
 31
-4.76785
 12
-10.9659
 22
0.203069
 32
-4.39061
 13
-10.5458
 23
0.352297
 33
-4.39061
  0
3DFACE
  8
0
 62
   170
 10
-10.5458
 20
0.352297
 30
-4.39061
 11
-10.9659
 21
0.203069
 31
-4.39061
 12
-9.97199
 22
-0.000779
 32
-4.25814
 13
-9.97199
 23
-0.000779
 33
-4.25814
  0
3DFACE
  8
0
 62
   170
 10
-10.9659
 20
0.203069
 30
-4.39061
 11
-11.1196
 21
-0.000779
 31
-4.39061
 12
-9.97199
 22
-0.000779
 32
-4.25814
 13
-9.97199
 23
-0.000779
 33
-4.25814
  0
3DFACE
  8
0
 62
   170
 10
-11.8084
 20
0.375884
 30
-4.76785
 11
-12.0925
 21
-0.000779
 31
-4.76785
 12
-11.1196
 22
-0.000779
 32
-4.39061
 13
-10.9659
 23
0.203069
 33
-4.39061
  0
3DFACE
  8
0
 62
   170
 10
-12.3714
 20
0.491354
 30
-5.33243
 11
-12.7426
 21
-0.000779
 31
-5.33243
 12
-12.0925
 22
-0.000779
 32
-4.76785
 13
-11.8084
 23
0.375884
 33
-4.76785
  0
3DFACE
  8
0
 62
   170
 10
-12.5691
 20
0.531902
 30
-5.9984
 11
-12.9709
 21
-0.000779
 31
-5.9984
 12
-12.7426
 22
-0.000779
 32
-5.33243
 13
-12.3714
 23
0.491354
 33
-5.33243
  0
3DFACE
  8
0
 62
   170
 10
-12.3714
 20
0.491354
 30
-6.66437
 11
-12.7426
 21
-0.000779
 31
-6.66437
 12
-12.9709
 22
-0.000779
 32
-5.9984
 13
-12.5691
 23
0.531902
 33
-5.9984
  0
3DFACE
  8
0
 62
   170
 10
-11.8084
 20
0.375884
 30
-7.22895
 11
-12.0925
 21
-0.000779
 31
-7.22895
 12
-12.7426
 22
-0.000779
 32
-6.66437
 13
-12.3714
 23
0.491354
 33
-6.66437
  0
3DFACE
  8
0
 62
   170
 10
-10.9659
 20
0.203069
 30
-7.6062
 11
-11.1196
 21
-0.000779
 31
-7.6062
 12
-12.0925
 22
-0.000779
 32
-7.22895
 13
-11.8084
 23
0.375884
 33
-7.22895
  0
3DFACE
  8
0
 62
   170
 10
-9.97199
 20
-0.000779
 30
-7.73867
 11
-11.1196
 21
-0.000779
 31
-7.6062
 12
-10.9659
 22
0.203069
 32
-7.6062
 13
-10.9659
 23
0.203069
 33
-7.6062
  0
3DFACE
  8
0
 62
   170
 10
-9.97199
 20
-0.000779
 30
-7.73867
 11
-10.9659
 21
-0.204627
 31
-7.6062
 12
-11.1196
 22
-0.000779
 32
-7.6062
 13
-11.1196
 23
-0.000779
 33
-7.6062
  0
3DFACE
  8
0
 62
   170
 10
-11.1196
 20
-0.000779
 30
-7.6062
 11
-10.9659
 21
-0.204627
 31
-7.6062
 12
-11.8084
 22
-0.377442
 32
-7.22895
 13
-12.0925
 23
-0.000779
 33
-7.22895
  0
3DFACE
  8
0
 62
   170
 10
-12.0925
 20
-0.000779
 30
-7.22895
 11
-11.8084
 21
-0.377442
 31
-7.22895
 12
-12.3714
 22
-0.492912
 32
-6.66437
 13
-12.7426
 23
-0.000779
 33
-6.66437
  0
3DFACE
  8
0
 62
   170
 10
-12.7426
 20
-0.000779
 30
-6.66437
 11
-12.3714
 21
-0.492912
 31
-6.66437
 12
-12.5691
 22
-0.53346
 32
-5.9984
 13
-12.9709
 23
-0.000779
 33
-5.9984
  0
3DFACE
  8
0
 62
   170
 10
-12.9709
 20
-0.000779
 30
-5.9984
 11
-12.5691
 21
-0.53346
 31
-5.9984
 12
-12.3714
 22
-0.492912
 32
-5.33243
 13
-12.7426
 23
-0.000779
 33
-5.33243
  0
3DFACE
  8
0
 62
   170
 10
-12.7426
 20
-0.000779
 30
-5.33243
 11
-12.3714
 21
-0.492912
 31
-5.33243
 12
-11.8084
 22
-0.377442
 32
-4.76785
 13
-12.0925
 23
-0.000779
 33
-4.76785
  0
3DFACE
  8
0
 62
   170
 10
-12.0925
 20
-0.000779
 30
-4.76785
 11
-11.8084
 21
-0.377442
 31
-4.76785
 12
-10.9659
 22
-0.204627
 32
-4.39061
 13
-11.1196
 23
-0.000779
 33
-4.39061
  0
3DFACE
  8
0
 62
   170
 10
-11.1196
 20
-0.000779
 30
-4.39061
 11
-10.9659
 21
-0.204627
 31
-4.39061
 12
-9.97199
 22
-0.000779
 32
-4.25814
 13
-9.97199
 23
-0.000779
 33
-4.25814
  0
3DFACE
  8
0
 62
   170
 10
-10.9659
 20
-0.204627
 30
-4.39061
 11
-10.5458
 21
-0.353855
 31
-4.39061
 12
-9.97199
 22
-0.000779
 32
-4.25814
 13
-9.97199
 23
-0.000779
 33
-4.25814
  0
3DFACE
  8
0
 62
   170
 10
-11.8084
 20
-0.377442
 30
-4.76785
 11
-11.0322
 21
-0.653178
 31
-4.76785
 12
-10.5458
 22
-0.353855
 32
-4.39061
 13
-10.9659
 23
-0.204627
 33
-4.39061
  0
3DFACE
  8
0
 62
   170
 10
-12.3714
 20
-0.492912
 30
-5.33243
 11
-11.3573
 21
-0.853179
 31
-5.33243
 12
-11.0322
 22
-0.653178
 32
-4.76785
 13
-11.8084
 23
-0.377442
 33
-4.76785
  0
3DFACE
  8
0
 62
   170
 10
-12.5691
 20
-0.53346
 30
-5.9984
 11
-11.4714
 21
-0.92341
 31
-5.9984
 12
-11.3573
 22
-0.853179
 32
-5.33243
 13
-12.3714
 23
-0.492912
 33
-5.33243
  0
3DFACE
  8
0
 62
   170
 10
-12.3714
 20
-0.492912
 30
-6.66437
 11
-11.3573
 21
-0.853179
 31
-6.66437
 12
-11.4714
 22
-0.92341
 32
-5.9984
 13
-12.5691
 23
-0.53346
 33
-5.9984
  0
3DFACE
  8
0
 62
   170
 10
-11.8084
 20
-0.377442
 30
-7.22895
 11
-11.0322
 21
-0.653178
 31
-7.22895
 12
-11.3573
 22
-0.853179
 32
-6.66437
 13
-12.3714
 23
-0.492912
 33
-6.66437
  0
3DFACE
  8
0
 62
   170
 10
-10.9659
 20
-0.204627
 30
-7.6062
 11
-10.5458
 21
-0.353855
 31
-7.6062
 12
-11.0322
 22
-0.653178
 32
-7.22895
 13
-11.8084
 23
-0.377442
 33
-7.22895
  0
3DFACE
  8
0
 62
   170
 10
-9.97199
 20
-0.000779
 30
-7.73867
 11
-10.5458
 21
-0.353855
 31
-7.6062
 12
-10.9659
 22
-0.204627
 32
-7.6062
 13
-10.9659
 23
-0.204627
 33
-7.6062
  0
3DFACE
  8
0
 62
   170
 10
-9.97199
 20
-0.000779
 30
-7.73867
 11
-9.97199
 21
-0.408476
 31
-7.6062
 12
-10.5458
 22
-0.353855
 32
-7.6062
 13
-10.5458
 23
-0.353855
 33
-7.6062
  0
3DFACE
  8
0
 62
   170
 10
-10.5458
 20
-0.353855
 30
-7.6062
 11
-9.97199
 21
-0.408476
 31
-7.6062
 12
-9.97199
 22
-0.754104
 32
-7.22895
 13
-11.0322
 23
-0.653178
 33
-7.22895
  0
3DFACE
  8
0
 62
   170
 10
-11.0322
 20
-0.653178
 30
-7.22895
 11
-9.97199
 21
-0.754104
 31
-7.22895
 12
-9.97199
 22
-0.985046
 32
-6.66437
 13
-11.3573
 23
-0.853179
 33
-6.66437
  0
3DFACE
  8
0
 62
   170
 10
-11.3573
 20
-0.853179
 30
-6.66437
 11
-9.97199
 21
-0.985046
 31
-6.66437
 12
-9.97199
 22
-1.06614
 32
-5.9984
 13
-11.4714
 23
-0.92341
 33
-5.9984
  0
3DFACE
  8
0
 62
   170
 10
-11.4714
 20
-0.92341
 30
-5.9984
 11
-9.97199
 21
-1.06614
 31
-5.9984
 12
-9.97199
 22
-0.985046
 32
-5.33243
 13
-11.3573
 23
-0.853179
 33
-5.33243
  0
3DFACE
  8
0
 62
   170
 10
-11.3573
 20
-0.853179
 30
-5.33243
 11
-9.97199
 21
-0.985046
 31
-5.33243
 12
-9.97199
 22
-0.754104
 32
-4.76785
 13
-11.0322
 23
-0.653178
 33
-4.76785
  0
3DFACE
  8
0
 62
   170
 10
-11.0322
 20
-0.653178
 30
-4.76785
 11
-9.97199
 21
-0.754104
 31
-4.76785
 12
-9.97199
 22
-0.408476
 32
-4.39061
 13
-10.5458
 23
-0.353855
 33
-4.39061
  0
3DFACE
  8
0
 62
   170
 10
-10.5458
 20
-0.353855
 30
-4.39061
 11
-9.97199
 21
-0.408476
 31
-4.39061
 12
-9.97199
 22
-0.000779
 32
-4.25814
 13
-9.97199
 23
-0.000779
 33
-4.25814
  0
3DFACE
  8
0
 62
   170
 10
-9.97199
 20
-0.408476
 30
-4.39061
 11
-9.39818
 21
-0.353855
 31
-4.39061
 12
-9.97199
 22
-0.000779
 32
-4.25814
 13
-9.97199
 23
-0.000779
 33
-4.25814
  0
3DFACE
  8
0
 62
   170
 10
-9.97199
 20
-0.754104
 30
-4.76785
 11
-8.91173
 21
-0.653178
 31
-4.76785
 12
-9.39818
 22
-0.353855
 32
-4.39061
 13
-9.97199
 23
-0.408476
 33
-4.39061
  0
3DFACE
  8
0
 62
   170
 10
-9.97199
 20
-0.985046
 30
-5.33243
 11
-8.5867
 21
-0.853179
 31
-5.33243
 12
-8.91173
 22
-0.653178
 32
-4.76785
 13
-9.97199
 23
-0.754104
 33
-4.76785
  0
3DFACE
  8
0
 62
   170
 10
-9.97199
 20
-1.06614
 30
-5.9984
 11
-8.47256
 21
-0.92341
 31
-5.9984
 12
-8.5867
 22
-0.853179
 32
-5.33243
 13
-9.97199
 23
-0.985046
 33
-5.33243
  0
3DFACE
  8
0
 62
   170
 10
-9.97199
 20
-0.985046
 30
-6.66437
 11
-8.5867
 21
-0.853179
 31
-6.66437
 12
-8.47256
 22
-0.92341
 32
-5.9984
 13
-9.97199
 23
-1.06614
 33
-5.9984
  0
3DFACE
  8
0
 62
   170
 10
-9.97199
 20
-0.754104
 30
-7.22895
 11
-8.91173
 21
-0.653178
 31
-7.22895
 12
-8.5867
 22
-0.853179
 32
-6.66437
 13
-9.97199
 23
-0.985046
 33
-6.66437
  0
3DFACE
  8
0
 62
   170
 10
-9.97199
 20
-0.408476
 30
-7.6062
 11
-9.39818
 21
-0.353855
 31
-7.6062
 12
-8.91173
 22
-0.653178
 32
-7.22895
 13
-9.97199
 23
-0.754104
 33
-7.22895
  0
3DFACE
  8
0
 62
   170
 10
-9.97199
 20
-0.000779
 30
-7.73867
 11
-9.39818
 21
-0.353855
 31
-7.6062
 12
-9.97199
 22
-0.408476
 32
-7.6062
 13
-9.97199
 23
-0.408476
 33
-7.6062
  0
3DFACE
  8
0
 62
   170
 10
-9.97199
 20
-0.000779
 30
-7.73867
 11
-8.97813
 21
-0.204627
 31
-7.6062
 12
-9.39818
 22
-0.353855
 32
-7.6062
 13
-9.39818
 23
-0.353855
 33
-7.6062
  0
3DFACE
  8
0
 62
   170
 10
-9.39818
 20
-0.353855
 30
-7.6062
 11
-8.97813
 21
-0.204627
 31
-7.6062
 12
-8.13557
 22
-0.377442
 32
-7.22895
 13
-8.91173
 23
-0.653178
 33
-7.22895
  0
3DFACE
  8
0
 62
   170
 10
-8.91173
 20
-0.653178
 30
-7.22895
 11
-8.13557
 21
-0.377442
 31
-7.22895
 12
-7.57259
 22
-0.492912
 32
-6.66437
 13
-8.5867
 23
-0.853179
 33
-6.66437
  0
3DFACE
  8
0
 62
   170
 10
-8.5867
 20
-0.853179
 30
-6.66437
 11
-7.57259
 21
-0.492912
 31
-6.66437
 12
-7.3749
 22
-0.53346
 32
-5.9984
 13
-8.47256
 23
-0.92341
 33
-5.9984
  0
3DFACE
  8
0
 62
   170
 10
-8.47256
 20
-0.92341
 30
-5.9984
 11
-7.3749
 21
-0.53346
 31
-5.9984
 12
-7.57259
 22
-0.492912
 32
-5.33243
 13
-8.5867
 23
-0.853179
 33
-5.33243
  0
3DFACE
  8
0
 62
   170
 10
-8.5867
 20
-0.853179
 30
-5.33243
 11
-7.57259
 21
-0.492912
 31
-5.33243
 12
-8.13557
 22
-0.377442
 32
-4.76785
 13
-8.91173
 23
-0.653178
 33
-4.76785
  0
3DFACE
  8
0
 62
   170
 10
-8.91173
 20
-0.653178
 30
-4.76785
 11
-8.13557
 21
-0.377442
 31
-4.76785
 12
-8.97813
 22
-0.204627
 32
-4.39061
 13
-9.39818
 23
-0.353855
 33
-4.39061
  0
3DFACE
  8
0
 62
   170
 10
-9.39818
 20
-0.353855
 30
-4.39061
 11
-8.97813
 21
-0.204627
 31
-4.39061
 12
-9.97199
 22
-0.000779
 32
-4.25814
 13
-9.97199
 23
-0.000779
 33
-4.25814
  0
3DFACE
  8
0
 62
   170
 10
-8.97813
 20
-0.204627
 30
-4.39061
 11
-8.82438
 21
-0.000779
 31
-4.39061
 12
-9.97199
 22
-0.000779
 32
-4.25814
 13
-9.97199
 23
-0.000779
 33
-4.25814
  0
3DFACE
  8
0
 62
   170
 10
-8.13557
 20
-0.377442
 30
-4.76785
 11
-7.85147
 21
-0.000779
 31
-4.76785
 12
-8.82438
 22
-0.000779
 32
-4.39061
 13
-8.97813
 23
-0.204627
 33
-4.39061
  0
3DFACE
  8
0
 62
   170
 10
-7.85147
 20
-0.000779
 30
-4.76785
 11
-8.13557
 21
-0.377442
 31
-4.76785
 12
-7.57259
 22
-0.492912
 32
-5.33243
 13
-7.2014
 23
-0.000779
 33
-5.33243
  0
3DFACE
  8
0
 62
   170
 10
-7.3749
 20
-0.53346
 30
-5.9984
 11
-6.97313
 21
-0.000779
 31
-5.9984
 12
-7.2014
 22
-0.000779
 32
-5.33243
 13
-7.57259
 23
-0.492912
 33
-5.33243
  0
3DFACE
  8
0
 62
   170
 10
-7.57259
 20
-0.492912
 30
-6.66437
 11
-7.2014
 21
-0.000779
 31
-6.66437
 12
-6.97313
 22
-0.000779
 32
-5.9984
 13
-7.3749
 23
-0.53346
 33
-5.9984
  0
3DFACE
  8
0
 62
   170
 10
-8.13557
 20
-0.377442
 30
-7.22895
 11
-7.85147
 21
-0.000779
 31
-7.22895
 12
-7.2014
 22
-0.000779
 32
-6.66437
 13
-7.57259
 23
-0.492912
 33
-6.66437
  0
3DFACE
  8
0
 62
   170
 10
-8.97813
 20
-0.204627
 30
-7.6062
 11
-8.82438
 21
-0.000779
 31
-7.6062
 12
-7.85147
 22
-0.000779
 32
-7.22895
 13
-8.13557
 23
-0.377442
 33
-7.22895
  0
3DFACE
  8
0
 62
   170
 10
-9.97199
 20
-0.000779
 30
-7.73867
 11
-8.82438
 21
-0.000779
 31
-7.6062
 12
-8.97813
 22
-0.204627
 32
-7.6062
 13
-8.97813
 23
-0.204627
 33
-7.6062
  0
3DFACE
  8
0
 62
   250
 10
25.033
 20
0.48886
 30
-8.20492
 11
25.033
 21
-0.510457
 31
-8.20492
 12
-25.0159
 22
-0.510456
 32
-8.20492
 13
-25.0158
 23
0.488861
 33
-8.20492
  0
3DFACE
  8
0
 62
   250
 10
25.033
 20
0.48886
 30
-7.81621
 11
-25.0158
 21
0.48886
 31
-7.81621
 12
-25.0159
 22
-0.510456
 32
-7.81621
 13
25.033
 23
-0.510457
 33
-7.81621
  0
3DFACE
  8
0
 62
   250
 10
25.033
 20
0.48886
 30
-8.20492
 11
25.033
 21
0.48886
 31
-7.81621
 12
25.033
 22
-0.510457
 32
-7.81621
 13
25.033
 23
-0.510457
 33
-8.20492
  0
3DFACE
  8
0
 62
   250
 10
25.033
 20
-0.510457
 30
-8.20492
 11
25.033
 21
-0.510457
 31
-7.81621
 12
-25.0159
 22
-0.510456
 32
-7.81621
 13
-25.0159
 23
-0.510456
 33
-8.20492
  0
3DFACE
  8
0
 62
   250
 10
-25.0159
 20
-0.510456
 30
-8.20492
 11
-25.0159
 21
-0.510456
 31
-7.81621
 12
-25.0158
 22
0.48886
 32
-7.81621
 13
-25.0158
 23
0.488861
 33
-8.20492
  0
3DFACE
  8
0
 62
   250
 10
25.033
 20
0.48886
 30
-7.81621
 11
25.033
 21
0.48886
 31
-8.20492
 12
-25.0158
 22
0.488861
 32
-8.20492
 13
-25.0158
 23
0.48886
 33
-7.81621
  0
3DFACE
  8
0
 62
   250
 10
25.033
 20
0.48886
 30
-4.20855
 11
25.033
 21
-0.510457
 31
-4.20855
 12
-25.0159
 22
-0.510456
 32
-4.20855
 13
-25.0158
 23
0.488861
 33
-4.20855
  0
3DFACE
  8
0
 62
   250
 10
25.033
 20
0.48886
 30
-3.81984
 11
-25.0158
 21
0.48886
 31
-3.81984
 12
-25.0159
 22
-0.510456
 32
-3.81984
 13
25.033
 23
-0.510457
 33
-3.81984
  0
3DFACE
  8
0
 62
   250
 10
25.033
 20
0.48886
 30
-4.20855
 11
25.033
 21
0.48886
 31
-3.81984
 12
25.033
 22
-0.510457
 32
-3.81984
 13
25.033
 23
-0.510457
 33
-4.20855
  0
3DFACE
  8
0
 62
   250
 10
25.033
 20
-0.510457
 30
-4.20855
 11
25.033
 21
-0.510457
 31
-3.81984
 12
-25.0159
 22
-0.510456
 32
-3.81984
 13
-25.0159
 23
-0.510456
 33
-4.20855
  0
3DFACE
  8
0
 62
   250
 10
-25.0159
 20
-0.510456
 30
-4.20855
 11
-25.0159
 21
-0.510456
 31
-3.81984
 12
-25.0158
 22
0.48886
 32
-3.81984
 13
-25.0158
 23
0.488861
 33
-4.20855
  0
3DFACE
  8
0
 62
   250
 10
25.033
 20
0.48886
 30
-3.81984
 11
25.033
 21
0.48886
 31
-4.20855
 12
-25.0158
 22
0.488861
 32
-4.20855
 13
-25.0158
 23
0.48886
 33
-3.81984
  0
3DFACE
  8
0
 62
   250
 10
25.033
 20
0.48886
 30
7.82296
 11
25.033
 21
-0.510457
 31
7.82296
 12
-25.0159
 22
-0.510456
 32
7.82296
 13
-25.0158
 23
0.488861
 33
7.82296
  0
3DFACE
  8
0
 62
   250
 10
25.033
 20
0.48886
 30
8.21167
 11
-25.0158
 21
0.48886
 31
8.21167
 12
-25.0159
 22
-0.510456
 32
8.21167
 13
25.033
 23
-0.510457
 33
8.21167
  0
3DFACE
  8
0
 62
   250
 10
25.033
 20
0.48886
 30
7.82296
 11
25.033
 21
0.48886
 31
8.21167
 12
25.033
 22
-0.510457
 32
8.21167
 13
25.033
 23
-0.510457
 33
7.82296
  0
3DFACE
  8
0
 62
   250
 10
25.033
 20
-0.510457
 30
7.82296
 11
25.033
 21
-0.510457
 31
8.21167
 12
-25.0159
 22
-0.510456
 32
8.21167
 13
-25.0159
 23
-0.510456
 33
7.82296
  0
3DFACE
  8
0
 62
   250
 10
-25.0159
 20
-0.510456
 30
7.82296
 11
-25.0159
 21
-0.510456
 31
8.21167
 12
-25.0158
 22
0.48886
 32
8.21167
 13
-25.0158
 23
0.488861
 33
7.82296
  0
3DFACE
  8
0
 62
   250
 10
25.033
 20
0.48886
 30
8.21167
 11
25.033
 21
0.48886
 31
7.82296
 12
-25.0158
 22
0.488861
 32
7.82296
 13
-25.0158
 23
0.48886
 33
8.21167
  0
3DFACE
  8
0
 62
   250
 10
25.033
 20
0.48886
 30
3.81198
 11
25.033
 21
-0.510457
 31
3.81198
 12
-25.0159
 22
-0.510456
 32
3.81198
 13
-25.0158
 23
0.488861
 33
3.81198
  0
3DFACE
  8
0
 62
   250
 10
25.033
 20
0.48886
 30
4.20069
 11
-25.0158
 21
0.48886
 31
4.20069
 12
-25.0159
 22
-0.510456
 32
4.20069
 13
25.033
 23
-0.510457
 33
4.20069
  0
3DFACE
  8
0
 62
   250
 10
25.033
 20
0.48886
 30
3.81198
 11
25.033
 21
0.48886
 31
4.20069
 12
25.033
 22
-0.510457
 32
4.20069
 13
25.033
 23
-0.510457
 33
3.81198
  0
3DFACE
  8
0
 62
   250
 10
25.033
 20
-0.510457
 30
3.81198
 11
25.033
 21
-0.510457
 31
4.20069
 12
-25.0159
 22
-0.510456
 32
4.20069
 13
-25.0159
 23
-0.510456
 33
3.81198
  0
3DFACE
  8
0
 62
   250
 10
-25.0159
 20
-0.510456
 30
3.81198
 11
-25.0159
 21
-0.510456
 31
4.20069
 12
-25.0158
 22
0.48886
 32
4.20069
 13
-25.0158
 23
0.488861
 33
3.81198
  0
3DFACE
  8
0
 62
   250
 10
25.033
 20
0.48886
 30
4.20069
 11
25.033
 21
0.48886
 31
3.81198
 12
-25.0158
 22
0.488861
 32
3.81198
 13
-25.0158
 23
0.48886
 33
4.20069
  0
3DFACE
  8
0
 62
   250
 10
25.033
 20
0.48886
 30
-0.194883
 11
25.033
 21
-0.510457
 31
-0.194883
 12
-25.0159
 22
-0.510456
 32
-0.194883
 13
-25.0158
 23
0.488861
 33
-0.194883
  0
3DFACE
  8
0
 62
   250
 10
25.033
 20
0.48886
 30
0.193826
 11
-25.0158
 21
0.48886
 31
0.193826
 12
-25.0159
 22
-0.510456
 32
0.193826
 13
25.033
 23
-0.510457
 33
0.193826
  0
3DFACE
  8
0
 62
   250
 10
25.033
 20
0.48886
 30
-0.194883
 11
25.033
 21
0.48886
 31
0.193826
 12
25.033
 22
-0.510457
 32
0.193826
 13
25.033
 23
-0.510457
 33
-0.194883
  0
3DFACE
  8
0
 62
   250
 10
25.033
 20
-0.510457
 30
-0.194883
 11
25.033
 21
-0.510457
 31
0.193826
 12
-25.0159
 22
-0.510456
 32
0.193826
 13
-25.0159
 23
-0.510456
 33
-0.194883
  0
3DFACE
  8
0
 62
   250
 10
-25.0159
 20
-0.510456
 30
-0.194883
 11
-25.0159
 21
-0.510456
 31
0.193826
 12
-25.0158
 22
0.48886
 32
0.193826
 13
-25.0158
 23
0.488861
 33
-0.194883
  0
3DFACE
  8
0
 62
   250
 10
25.033
 20
0.48886
 30
0.193826
 11
25.033
 21
0.48886
 31
-0.194883
 12
-25.0158
 22
0.488861
 32
-0.194883
 13
-25.0158
 23
0.48886
 33
0.193826
  0
ENDSEC
  0
EOF
